<?xml version="1.0" encoding="utf-8"?>
<!-- Generator: Adobe Illustrator 16.0.0, SVG Export Plug-In . SVG Version: 6.00 Build 0)  -->
<!DOCTYPE svg PUBLIC "-//W3C//DTD SVG 1.1//EN" "http://www.w3.org/Graphics/SVG/1.1/DTD/svg11.dtd">
<svg version="1.1" id="Layer_1" xmlns="http://www.w3.org/2000/svg" xmlns:xlink="http://www.w3.org/1999/xlink" x="0px" y="0px"
	 width="72px" height="72px" viewBox="0 0 72 72" enable-background="new 0 0 72 72" xml:space="preserve">
<path fill="#444444" d="M14.805,37.109c-2.229-7.389,8.146-14.021,8.589-14.299c0.397-0.25,0.921-0.131,1.172,0.266
	c0.25,0.397,0.131,0.922-0.266,1.172c-0.098,0.062-9.724,6.217-7.867,12.37c0.135,0.449-0.119,0.923-0.568,1.059
	c-0.082,0.025-0.165,0.037-0.246,0.037C15.254,37.715,14.917,37.478,14.805,37.109z M17.884,42.25
	c-0.963,0.226-1.45,0.393-1.47,0.399c-0.261,0.09-0.399,0.375-0.309,0.636c0.072,0.207,0.266,0.337,0.473,0.337
	c0.054,0,0.109-0.009,0.163-0.027c0.004-0.002,0.466-0.159,1.372-0.372c0.269-0.063,0.436-0.332,0.373-0.601
	C18.422,42.353,18.151,42.184,17.884,42.25z M30.496,41.013c0,0-0.001,0-0.001,0c-1.123,0.003-2.178,0.028-3.165,0.07
	c-0.276,0.013-0.49,0.245-0.478,0.521c0.012,0.269,0.233,0.479,0.499,0.479c0.007,0,0.015,0,0.022,0
	c0.974-0.042,2.016-0.067,3.125-0.07c0.276-0.001,0.499-0.226,0.499-0.501C30.996,41.235,30.771,41.013,30.496,41.013z
	 M24.167,41.291c-1.092,0.099-2.152,0.224-3.152,0.372c-0.273,0.04-0.462,0.294-0.421,0.567c0.037,0.248,0.25,0.427,0.494,0.427
	c0.024,0,0.049-0.002,0.074-0.006c0.981-0.145,2.023-0.268,3.096-0.364c0.275-0.025,0.478-0.268,0.453-0.543
	S24.438,41.275,24.167,41.291z M59.56,49.551c-2.016,3.604-6.046,6.354-10.781,7.358c-1.416,0.301-2.834,0.453-4.215,0.453
	c-4.877,0-8.698-1.843-10.897-5.035c-0.579,0.038-1.161,0.064-1.749,0.064c-7.011,0-13.157-2.355-16.861-6.464
	c-2.963-3.286-4.261-7.604-3.755-12.487c1.067-10.271,19.495-18.366,20.279-18.706l0.341-0.148l0.34,0.15
	c0.771,0.341,18.9,8.465,20.269,18.678c0.014,0.104,0.014,0.205,0.026,0.309c3.366,1.603,6.639,3.878,7.725,6.926
	C61.364,43.693,61.114,46.771,59.56,49.551z M13.404,39.438c2.631-0.566,11.612-2.291,22.309-2.039
	c3.112-3.655,6.912-6.383,7.189-6.58l0.303-0.215l0.364,0.076c0.277,0.058,3.54,0.762,7.14,2.231
	c-1.876-8.25-16.375-15.333-18.794-16.463C29.4,17.6,13.883,25.042,12.992,33.617C12.774,35.717,12.921,37.657,13.404,39.438z
	 M32.725,50.654c-0.537-1.178-0.902-2.481-1.053-3.912c-0.271-2.567,0.975-5.251,2.724-7.669c-9.74-0.091-17.817,1.428-20.448,1.987
	c0.565,1.354,1.354,2.601,2.371,3.729c3.383,3.751,9.068,5.903,15.599,5.903C32.19,50.692,32.455,50.663,32.725,50.654z
	 M58.984,46.388c-4.582-0.033-9.052,0.689-12.902,1.626c-5.11,1.244-9.127,2.867-10.835,3.611c0.131,0.177,0.282,0.334,0.425,0.5
	c1.948,2.263,4.998,3.537,8.891,3.537c1.263,0,2.562-0.14,3.861-0.415c4.264-0.904,7.871-3.344,9.651-6.526
	C58.498,47.967,58.792,47.185,58.984,46.388z M59.221,44.691c0.043-1.146-0.128-2.31-0.541-3.471
	c-1.939-5.446-12.938-8.286-15.095-8.793c-0.85,0.635-3.346,2.58-5.663,5.054c-0.491,0.525-0.972,1.072-1.43,1.639
	c-1.914,2.365-3.386,5.022-3.13,7.443c0.141,1.329,0.484,2.526,0.997,3.592C37.234,48.871,47.801,44.545,59.221,44.691z
	 M38.257,50.984c-0.896,0.396-1.337,0.66-1.355,0.672c-0.236,0.142-0.313,0.448-0.171,0.686c0.094,0.155,0.26,0.242,0.43,0.242
	c0.087,0,0.176-0.023,0.257-0.071c0.004-0.003,0.414-0.247,1.244-0.614c0.253-0.111,0.367-0.406,0.255-0.659
	C38.805,50.986,38.508,50.871,38.257,50.984z M45.357,49.246c0.051,0.233,0.258,0.393,0.488,0.393c0.035,0,0.071-0.004,0.107-0.012
	c0.781-0.171,1.618-0.337,2.513-0.49c0.272-0.047,0.455-0.306,0.408-0.578c-0.047-0.271-0.304-0.453-0.578-0.408
	c-0.91,0.157-1.763,0.325-2.558,0.5C45.469,48.709,45.298,48.976,45.357,49.246z M50.936,48.751c0.022,0,0.045-0.001,0.067-0.005
	c0.811-0.108,1.66-0.207,2.55-0.294c0.274-0.027,0.476-0.272,0.449-0.547s-0.274-0.463-0.547-0.449
	c-0.901,0.089-1.763,0.189-2.585,0.3c-0.273,0.036-0.466,0.288-0.429,0.562C50.475,48.568,50.689,48.751,50.936,48.751z
	 M43.205,49.271c-0.875,0.24-1.717,0.497-2.5,0.765c-0.262,0.09-0.401,0.374-0.313,0.635c0.071,0.208,0.266,0.339,0.474,0.339
	c0.054,0,0.108-0.009,0.161-0.026c0.766-0.262,1.587-0.513,2.441-0.747c0.267-0.073,0.424-0.349,0.351-0.614
	S43.474,49.199,43.205,49.271z M56.085,48.243c0.011,0,0.021,0,0.033-0.001c0.473-0.031,0.951-0.06,1.441-0.083
	c0.276-0.013,0.489-0.247,0.476-0.522c-0.013-0.275-0.242-0.508-0.522-0.476c-0.496,0.023-0.982,0.052-1.461,0.083
	c-0.275,0.019-0.483,0.256-0.466,0.532C55.604,48.04,55.823,48.243,56.085,48.243z"/>
</svg>
