<?xml version="1.0" encoding="utf-8"?>
<!-- Generator: Adobe Illustrator 16.0.0, SVG Export Plug-In . SVG Version: 6.00 Build 0)  -->
<!DOCTYPE svg PUBLIC "-//W3C//DTD SVG 1.1//EN" "http://www.w3.org/Graphics/SVG/1.1/DTD/svg11.dtd">
<svg version="1.1" id="Layer_1" xmlns="http://www.w3.org/2000/svg" xmlns:xlink="http://www.w3.org/1999/xlink" x="0px" y="0px"
	 width="72px" height="72px" viewBox="0 0 72 72" enable-background="new 0 0 72 72" xml:space="preserve">
<path fill="#444444" d="M41.812,21.021c-0.086-0.407-0.129-0.822-0.129-1.238c0-2.019,1.006-3.892,2.701-5.018l0.457-0.337
	l-0.197-1.108l-0.54-0.139c-0.298-0.077-1.098-0.255-2.081-0.255c-1.591,0-2.896,0.458-3.839,1.336
	c-0.479-1.156-1.294-2.811-2.041-2.811c-0.757,0-1.57,1.652-2.046,2.806c-0.943-0.875-2.245-1.331-3.832-1.331
	c-0.981,0-1.783,0.178-2.104,0.26l-0.547,0.175l-0.157,1.108l0.455,0.302c1.685,1.118,2.691,2.991,2.691,5.009
	c0,0.418-0.043,0.833-0.128,1.238c-9.444,2.348-15.995,10.208-15.995,19.281c0,11.013,9.718,19.972,21.663,19.972
	s21.663-8.959,21.663-19.972C57.807,31.227,51.256,23.368,41.812,21.021z M36.144,58.574c-11.008,0-19.963-8.197-19.963-18.272
	c0-8.436,6.242-15.732,15.179-17.744l0.487-0.109l0.142-0.479c0.209-0.708,0.315-1.444,0.315-2.188
	c-0.001-1.931-0.718-3.757-1.977-5.155c1.459,0.014,2.505,0.512,3.11,1.483c0.19,0.305,0.518,0.486,0.877,0.486
	c0.447,0,0.842-0.285,0.985-0.718c0.146-0.457,0.508-1.255,0.837-1.915c0.33,0.664,0.695,1.467,0.85,1.934
	c0.142,0.421,0.536,0.704,0.98,0.704c0.359,0,0.688-0.182,0.878-0.488c0.605-0.973,1.652-1.473,3.113-1.487
	c-1.26,1.399-1.976,3.226-1.976,5.156c0,0.74,0.105,1.476,0.314,2.187l0.141,0.48l0.488,0.109
	c8.938,2.011,15.181,9.307,15.181,17.744C56.107,50.377,47.151,58.574,36.144,58.574z M26.378,29.646h1.7v4.362h-1.7V29.646z
	 M32.213,39.098h1.7v4.361h-1.7V39.098z M19.878,39.098h1.7v4.361h-1.7V39.098z"/>
</svg>
