<?xml version="1.0" encoding="utf-8"?>
<!-- Generator: Adobe Illustrator 16.0.0, SVG Export Plug-In . SVG Version: 6.00 Build 0)  -->
<!DOCTYPE svg PUBLIC "-//W3C//DTD SVG 1.1//EN" "http://www.w3.org/Graphics/SVG/1.1/DTD/svg11.dtd">
<svg version="1.1" id="Layer_1" xmlns="http://www.w3.org/2000/svg" xmlns:xlink="http://www.w3.org/1999/xlink" x="0px" y="0px"
	 width="72px" height="72px" viewBox="0 0 72 72" enable-background="new 0 0 72 72" xml:space="preserve">
<path fill="#444444" d="M37.03,25.007l-0.001-1.159l4.58-5.261l-1.281-1.116l-3.126,3.59c-0.017-2.069-0.43-4.905-2.308-6.785
	c-3.193-3.192-9.297-2.14-9.404-2.123l-0.584,0.104l-0.104,0.583c-0.045,0.252-1.065,6.216,2.123,9.403
	c1.91,1.909,4.816,2.31,6.918,2.31c0.575,0,1.08-0.03,1.487-0.066l0,0.519c-9.239,0.448-16.623,8.083-16.623,17.433
	c0,9.634,7.838,17.471,17.473,17.471c9.634,0,17.471-7.837,17.471-17.471C53.652,33.09,46.27,25.454,37.03,25.007z M28.127,21.042
	c-2.041-2.04-1.882-5.822-1.729-7.294c1.481-0.154,5.262-0.302,7.294,1.73c1.638,1.638,1.854,4.38,1.798,6.166l-4.333-4.313
	l-1.199,1.205l4.325,4.306C32.492,22.895,29.756,22.672,28.127,21.042z M36.181,58.211c-8.697,0-15.773-7.075-15.773-15.771
	c0-8.699,7.076-15.775,15.773-15.775c8.697,0,15.772,7.077,15.772,15.775C51.953,51.136,44.878,58.211,36.181,58.211z
	 M29.776,33.109h1.7v3.776h-1.7V33.109z M34.827,41.289h1.7v3.773h-1.7V41.289z M24.152,41.289h1.7v3.773h-1.7V41.289z"/>
</svg>
