<?xml version="1.0" encoding="utf-8"?>
<!-- Generator: Adobe Illustrator 16.0.0, SVG Export Plug-In . SVG Version: 6.00 Build 0)  -->
<!DOCTYPE svg PUBLIC "-//W3C//DTD SVG 1.1//EN" "http://www.w3.org/Graphics/SVG/1.1/DTD/svg11.dtd">
<svg version="1.1" id="Layer_1" xmlns="http://www.w3.org/2000/svg" xmlns:xlink="http://www.w3.org/1999/xlink" x="0px" y="0px"
	 width="72px" height="72px" viewBox="0 0 72 72" enable-background="new 0 0 72 72" xml:space="preserve">
<path fill="#444444" d="M58.005,23.072c-0.424-2.569-1.233-3.811-3.767-5.774c-0.858-0.666-1.353-1.398-1.831-2.107
	c-0.732-1.084-1.489-2.205-3.338-2.602c-1.961-0.424-3.402,0.073-5.068,0.648c-0.802,0.277-1.631,0.563-2.641,0.799
	c-0.771,0.18-1.386,0.299-1.911,0.401c-1.654,0.321-2.566,0.499-4.675,1.831c-2.329,1.471-3.128,3.702-3.833,5.67
	c-0.176,0.491-0.352,0.982-0.55,1.46c-0.274,0.662-0.654,1.331-1.057,2.038c-1.013,1.782-2.162,3.802-2.229,6.704
	c-0.037,1.616,0.379,2.819,0.82,4.092c0.643,1.857,1.36,3.972,0.815,8.133c-6.799,6.425-12.073,8.381-12.252,8.444
	c-0.98,0.181-1.789,0.736-2.228,1.571c-0.846,1.607-0.021,3.712,1.84,4.691c0.622,0.327,1.307,0.5,1.98,0.5
	c0.823,0,1.563-0.25,2.134-0.696c5.347-3.158,9.65-6.864,13.113-10.73c2.53-1.832,5.808-2.608,8.981-3.355
	c4.178-0.983,8.498-2.001,11.097-5.475c1.56-2.084,1.981-4.086,2.428-6.205c0.168-0.796,0.341-1.619,0.582-2.478
	c0.218-0.78,0.476-1.481,0.726-2.159C57.764,26.781,58.352,25.182,58.005,23.072z M19.587,57.184c-0.073,0.138-0.18,0.252-0.3,0.354
	c-0.565,0.482-1.582,0.565-2.439,0.112c-1.077-0.566-1.6-1.698-1.167-2.521c0.258-0.49,0.821-0.782,1.506-0.782
	c0.019,0,0.038,0.007,0.057,0.007c0.397,0.01,0.802,0.111,1.176,0.309C19.498,55.229,20.021,56.36,19.587,57.184z M21.311,56.295
	c-0.102-1.159-0.832-2.303-2.027-2.98c4.45-2.269,14.626-8.861,23.93-25.035C40.29,36.49,34.104,48.018,21.311,56.295z
	 M55.634,27.919c-0.26,0.708-0.529,1.439-0.765,2.28c-0.255,0.91-0.434,1.759-0.606,2.58c-0.427,2.025-0.796,3.774-2.142,5.573
	c-2.25,3.007-6.102,3.914-10.18,4.874c-1.999,0.471-4.035,0.957-5.95,1.704c1.562-2.033,2.919-4.079,4.086-6.085
	c0.096,0.04,0.196,0.066,0.304,0.066c0.053,0,0.105-0.005,0.158-0.016c0.21-0.042,5.167-1.061,8.242-3.906
	c0.326-0.301,0.346-0.809,0.045-1.135c-0.303-0.326-0.811-0.345-1.135-0.044c-2.05,1.896-5.184,2.914-6.653,3.311
	c1.198-2.229,2.174-4.384,2.967-6.393c1.694-0.639,5.34-2.185,7.496-4.38c0.311-0.316,0.306-0.825-0.011-1.135
	c-0.315-0.311-0.824-0.305-1.136,0.01c-1.479,1.507-3.85,2.711-5.583,3.459c0.994-2.813,1.621-5.243,2.002-7.028
	c0.028-0.134,0.049-0.233,0.064-0.296c0.113-0.285,0.055-0.611-0.154-0.839c-0.218-0.241-0.563-0.325-0.872-0.212
	c-0.233,0.087-0.358,0.217-0.443,0.408l-0.001,0c-1.389,2.91-2.825,5.556-4.28,7.984c-0.352-1.823-0.656-4.275-0.286-6.236
	c0.082-0.436-0.204-0.856-0.641-0.938c-0.429-0.081-0.856,0.204-0.938,0.64c-0.555,2.938,0.198,6.682,0.649,8.503
	c-1.256,1.976-2.52,3.787-3.776,5.442c-0.513-1.62-1.141-4.225-0.816-6.554c0.061-0.439-0.246-0.845-0.685-0.906
	c-0.442-0.057-0.845,0.246-0.906,0.685c-0.453,3.257,0.677,6.813,1.226,8.292c-1.499,1.872-2.977,3.534-4.406,4.998
	c0.163-3.311-0.501-5.289-1.065-6.919c-0.409-1.182-0.763-2.202-0.732-3.529c0.058-2.496,1.055-4.25,2.02-5.946
	c0.428-0.752,0.832-1.462,1.144-2.217c0.208-0.502,0.393-1.018,0.578-1.534c0.678-1.892,1.318-3.678,3.179-4.854
	c1.854-1.171,2.519-1.3,4.124-1.612c0.541-0.105,1.174-0.228,1.969-0.414c1.091-0.254,1.999-0.568,2.801-0.845
	c1.555-0.538,2.677-0.929,4.206-0.596c1.217,0.261,1.666,0.925,2.345,1.931c0.523,0.775,1.117,1.653,2.178,2.477
	c2.219,1.72,2.812,2.611,3.167,4.767C56.698,25.025,56.229,26.302,55.634,27.919z"/>
</svg>
