<?xml version="1.0" encoding="utf-8"?>
<!-- Generator: Adobe Illustrator 16.0.0, SVG Export Plug-In . SVG Version: 6.00 Build 0)  -->
<!DOCTYPE svg PUBLIC "-//W3C//DTD SVG 1.1//EN" "http://www.w3.org/Graphics/SVG/1.1/DTD/svg11.dtd">
<svg version="1.1" id="Layer_1" xmlns="http://www.w3.org/2000/svg" xmlns:xlink="http://www.w3.org/1999/xlink" x="0px" y="0px"
	 width="72px" height="72px" viewBox="0 0 72 72" enable-background="new 0 0 72 72" xml:space="preserve">
<path fill="#444444" d="M57.867,13.316c-0.247,0.076-6.08,1.9-9.508,5.262c0.138-0.912,0.188-1.496,0.191-1.539
	c0.021-0.272-0.107-0.535-0.338-0.682s-0.523-0.156-0.761-0.021c-0.21,0.119-4.767,2.735-7.519,6.313
	c0.032-0.799,0.024-1.301,0.023-1.341c-0.012-0.591-0.684-0.93-1.164-0.587c-0.212,0.151-5.19,3.725-7.379,7.994
	c-0.081-0.692-0.154-1.117-0.159-1.152c-0.047-0.271-0.24-0.492-0.5-0.576c-0.26-0.083-0.546-0.017-0.741,0.174
	c-0.187,0.184-4.617,4.538-6.105,9.134c-0.028,0.089-0.057,0.177-0.083,0.266c-0.305-1.159-0.565-1.909-0.585-1.964
	c-0.196-0.561-0.94-0.667-1.289-0.19c-5.138,7.027-5.78,12.607-5.073,19.775l-3.515,3.514c-0.288,0.289-0.288,0.757,0,1.044
	c0.287,0.288,0.754,0.288,1.041,0l3.514-3.515c7.566,0.743,13.002-0.123,19.776-5.074c0.223-0.161,0.334-0.433,0.296-0.701
	c-0.04-0.272-0.228-0.497-0.485-0.588c-0.056-0.021-0.809-0.28-1.965-0.586c0.087-0.027,0.176-0.055,0.263-0.084
	c4.598-1.486,8.955-5.916,9.137-6.105c0.412-0.424,0.18-1.139-0.401-1.24c-0.036-0.006-0.462-0.078-1.151-0.16
	c4.269-2.188,7.84-7.166,7.991-7.377c0.343-0.481,0.004-1.152-0.587-1.164c-0.04,0-0.542-0.009-1.342,0.024
	c3.581-2.754,6.195-7.31,6.313-7.52c0.293-0.514-0.111-1.145-0.701-1.098c-0.043,0.003-0.631,0.054-1.547,0.194
	c3.362-3.429,5.196-9.258,5.272-9.507C58.963,13.674,58.436,13.142,57.867,13.316z M52.391,22.785
	c-0.601,0.601-1.213,1.139-1.82,1.604c-0.275,0.212-0.368,0.586-0.219,0.9c0.147,0.313,0.496,0.481,0.834,0.402
	c0.941-0.22,1.807-0.376,2.486-0.48c-2.955,4.442-5.385,6.194-7.553,7.305c-0.319,0.163-0.475,0.533-0.367,0.875
	c0.107,0.342,0.443,0.559,0.801,0.51c1.025-0.138,1.961-0.209,2.688-0.246c-1.313,1.598-3.854,4.378-6.614,5.764
	c-0.9,0.458-1.786,0.817-2.635,1.076c-0.346,0.104-0.563,0.444-0.516,0.805c0.049,0.358,0.351,0.628,0.711,0.638
	c0.99,0.022,1.888,0.092,2.586,0.166c-1.545,1.377-4.481,3.737-7.422,4.688c-1.279,0.413-2.497,0.672-3.524,0.747
	c-0.373,0.028-0.666,0.334-0.68,0.709c-0.015,0.375,0.257,0.7,0.628,0.756c1.5,0.22,2.865,0.552,3.827,0.817
	c-5.716,3.841-10.378,4.511-16.327,4.049l14.559-14.559l7.182-2.976c0.375-0.155,0.553-0.587,0.397-0.962
	c-0.155-0.376-0.587-0.556-0.962-0.399l-3.895,1.613l9.996-9.995c0.286-0.287,0.286-0.754-0.002-1.041
	c-0.287-0.287-0.754-0.287-1.042,0L32.892,38.167c-0.001,0.002-5.831,5.832-5.831,5.832l2.614-6.312
	c0.156-0.375-0.022-0.809-0.398-0.963c-0.375-0.156-0.807,0.021-0.962,0.398l-3.976,9.598l-6.103,6.104
	c-0.462-5.948,0.208-10.61,4.046-16.326c0.268,0.962,0.599,2.329,0.818,3.827c0.055,0.371,0.385,0.646,0.755,0.63
	c0.375-0.015,0.681-0.308,0.71-0.683c0.075-1.025,0.333-2.244,0.746-3.524c0.951-2.938,3.312-5.876,4.689-7.422
	c0.071,0.7,0.142,1.597,0.165,2.586c0.009,0.362,0.278,0.664,0.638,0.712c0.356,0.05,0.698-0.169,0.804-0.515
	c0.257-0.849,0.619-1.735,1.076-2.638c1.384-2.756,4.167-5.297,5.764-6.612c-0.037,0.729-0.108,1.664-0.248,2.688
	c-0.047,0.356,0.169,0.694,0.511,0.802c0.345,0.108,0.714-0.048,0.876-0.367c1.088-2.124,2.813-4.564,7.305-7.554
	c-0.104,0.681-0.261,1.545-0.479,2.486c-0.08,0.339,0.087,0.688,0.401,0.835c0.313,0.149,0.689,0.058,0.898-0.218
	c0.482-0.633,1.021-1.246,1.602-1.826c2.186-2.184,5.623-3.723,7.554-4.47C56.117,17.164,54.574,20.6,52.391,22.785z"/>
</svg>
