<?xml version="1.0" encoding="utf-8"?>
<!-- Generator: Adobe Illustrator 16.0.0, SVG Export Plug-In . SVG Version: 6.00 Build 0)  -->
<!DOCTYPE svg PUBLIC "-//W3C//DTD SVG 1.1//EN" "http://www.w3.org/Graphics/SVG/1.1/DTD/svg11.dtd">
<svg version="1.1" id="Layer_1" xmlns="http://www.w3.org/2000/svg" xmlns:xlink="http://www.w3.org/1999/xlink" x="0px" y="0px"
	 width="72px" height="72px" viewBox="0 0 72 72" enable-background="new 0 0 72 72" xml:space="preserve">
<path fill="#444444" d="M36.026,13.922c-12.199,0-22.125,9.927-22.125,22.125c0,12.197,9.925,22.124,22.125,22.124
	c12.195,0,22.121-9.927,22.121-22.124C58.146,23.849,48.221,13.922,36.026,13.922z M36.026,56.645c-11.359,0-20.6-9.242-20.6-20.598
	c0-11.358,9.241-20.599,20.6-20.599c11.355,0,20.595,9.241,20.595,20.599C56.621,47.404,47.38,56.645,36.026,56.645z M36.025,44.438
	c-0.867,0-1.644,0.523-2.025,1.367c-0.68,1.502-1.026,2.786-1.026,3.812c0,3.589,2.135,3.977,3.052,3.977
	c0.917,0,3.046-0.388,3.044-3.977c0-1.025-0.344-2.308-1.024-3.812C37.666,44.961,36.893,44.438,36.025,44.438z M36.026,52.066
	c-0.417,0-1.526,0-1.526-2.449c0-0.797,0.308-1.896,0.891-3.184c0.135-0.298,0.366-0.471,0.635-0.471s0.5,0.173,0.635,0.471
	c0.581,1.289,0.888,2.39,0.888,3.184C37.549,52.066,36.443,52.066,36.026,52.066z M28.177,38.52
	c1.077-0.463,1.746-1.412,1.746-2.473c0-1.061-0.669-2.01-1.746-2.475c-2.063-0.89-3.813-1.34-5.199-1.34
	c-4.578,0-5.262,2.389-5.262,3.814s0.684,3.813,5.262,3.813C24.364,39.859,26.113,39.41,28.177,38.52z M19.243,36.047
	c0-0.565,0-2.288,3.735-2.288c1.16,0,2.749,0.42,4.594,1.214c0.516,0.224,0.825,0.625,0.825,1.074c0,0.449-0.308,0.852-0.825,1.073
	c-1.844,0.793-3.433,1.214-4.594,1.214C19.243,38.334,19.243,36.613,19.243,36.047z M36.025,17.735c-2.824,0-4.577,2.1-4.577,5.478
	c0,1.286,0.428,2.83,1.271,4.59c0.632,1.321,1.899,2.14,3.307,2.14s2.669-0.819,3.3-2.14c0.844-1.76,1.27-3.304,1.27-4.59
	C40.596,19.835,38.844,17.735,36.025,17.735z M37.952,27.145c-0.374,0.786-1.111,1.273-1.926,1.273s-1.555-0.487-1.93-1.273
	c-0.745-1.552-1.122-2.875-1.122-3.931c0-1.188,0.298-3.952,3.052-3.952c2.75,0,3.046,2.763,3.046,3.952
	C39.072,24.27,38.695,25.592,37.952,27.145z M48.854,32.995c-1.242,0-2.746,0.251-4.471,0.748c-1.393,0.4-2.258,1.283-2.258,2.304
	c0,1.021,0.865,1.904,2.258,2.303c1.725,0.496,3.229,0.748,4.471,0.748c3.431,0,5.479-1.141,5.479-3.051
	C54.333,34.136,52.285,32.995,48.854,32.995z M48.854,37.572c-1.1,0-2.461-0.232-4.049-0.688c-0.75-0.215-1.154-0.592-1.154-0.838
	c0-0.245,0.404-0.622,1.154-0.838c1.588-0.457,2.949-0.688,4.049-0.688c2.4,0,3.953,0.6,3.953,1.527S51.254,37.572,48.854,37.572z
	 M42.95,31.278c0.286,0,0.577-0.052,0.864-0.159c1.545-0.582,2.695-1.244,3.422-1.971c0.93-0.929,1.443-1.843,1.525-2.721
	c0.077-0.823-0.224-1.6-0.871-2.249c-0.648-0.649-2.434-1.881-4.971,0.654c-0.725,0.725-1.387,1.876-1.969,3.422
	c-0.327,0.866-0.148,1.784,0.465,2.398C41.826,31.062,42.375,31.278,42.95,31.278z M42.378,28.791
	c0.499-1.322,1.06-2.318,1.621-2.88c0.839-0.839,1.456-1.087,1.903-1.087c0.475,0,0.756,0.281,0.908,0.434
	c0.324,0.325,0.465,0.66,0.432,1.026c-0.049,0.506-0.424,1.124-1.086,1.785c-0.563,0.563-1.559,1.123-2.881,1.621
	c-0.305,0.115-0.59,0.072-0.781-0.117C42.305,29.384,42.264,29.098,42.378,28.791z M27.4,30.853c0.2,0.05,0.403,0.073,0.606,0.073
	c0.725,0,1.449-0.309,2.021-0.881c0.732-0.73,1.033-1.713,0.807-2.626c-0.429-1.729-1.024-2.985-1.771-3.733
	c-1.787-1.786-3.795-1.827-5.51-0.114c-1.714,1.714-1.672,3.722,0.115,5.51C24.415,29.83,25.671,30.425,27.4,30.853z M24.631,24.651
	c1.12-1.117,2.153-1.085,3.351,0.115c0.541,0.542,1.014,1.584,1.369,3.021c0.113,0.459-0.134,0.911-0.404,1.181
	c-0.269,0.27-0.72,0.516-1.181,0.403c-1.435-0.354-2.48-0.829-3.021-1.368C23.548,26.805,23.512,25.771,24.631,24.651z
	 M27.413,39.982c-1.84,0.648-3.235,1.438-4.144,2.347c-2.389,2.388-2.633,5.114-0.636,7.11c0.898,0.899,1.943,1.343,3.039,1.343
	c1.34,0,2.756-0.665,4.07-1.979c0.91-0.91,1.699-2.304,2.348-4.144c0.486-1.38,0.17-2.856-0.826-3.853
	C30.268,39.813,28.792,39.499,27.413,39.982z M30.649,44.152c-0.571,1.623-1.239,2.824-1.986,3.57
	c-0.84,0.842-3.004,2.584-4.952,0.637c-1.947-1.946-0.203-4.11,0.637-4.952c0.747-0.746,1.949-1.415,3.572-1.986
	c0.821-0.289,1.688-0.11,2.265,0.464C30.761,42.463,30.939,43.331,30.649,44.152z M44.635,39.982
	c-1.379-0.484-2.855-0.17-3.852,0.824c-0.995,0.996-1.311,2.473-0.826,3.853c0.65,1.841,1.439,3.235,2.348,4.144
	c1.314,1.314,2.73,1.979,4.07,1.979c1.098,0,2.143-0.443,3.041-1.343c1.997-1.996,1.753-4.722-0.637-7.11
	C47.869,41.42,46.475,40.63,44.635,39.982z M48.336,48.361c-1.947,1.947-4.113,0.203-4.952-0.637
	c-0.747-0.746-1.415-1.947-1.985-3.572c-0.291-0.821-0.111-1.689,0.465-2.267c0.393-0.393,0.923-0.601,1.48-0.601
	c0.26,0,0.524,0.044,0.783,0.138c1.625,0.572,2.826,1.24,3.573,1.986C48.54,44.25,50.284,46.414,48.336,48.361z M36.026,32.995
	c-1.683,0-3.052,1.369-3.052,3.052c0,1.682,1.369,3.051,3.052,3.051c1.68,0,3.046-1.369,3.046-3.051
	C39.072,34.364,37.706,32.995,36.026,32.995z M36.026,37.57c-0.841,0-1.526-0.682-1.526-1.524c0-0.84,0.685-1.525,1.526-1.525
	c0.842,0,1.524,0.685,1.523,1.525C37.549,36.887,36.868,37.57,36.026,37.57z"/>
</svg>
