<?xml version="1.0" encoding="utf-8"?>
<!-- Generator: Adobe Illustrator 16.0.0, SVG Export Plug-In . SVG Version: 6.00 Build 0)  -->
<!DOCTYPE svg PUBLIC "-//W3C//DTD SVG 1.1//EN" "http://www.w3.org/Graphics/SVG/1.1/DTD/svg11.dtd">
<svg version="1.1" id="Layer_1" xmlns="http://www.w3.org/2000/svg" xmlns:xlink="http://www.w3.org/1999/xlink" x="0px" y="0px"
	 width="72px" height="72px" viewBox="0 0 72 72" enable-background="new 0 0 72 72" xml:space="preserve">
<path fill="#414042" d="M56.266,33.35c0.361,1.023,0.537,2.179,0.522,3.438c-0.002,0.112-0.005,0.228-0.009,0.338
	c-0.161,4.379-1.905,8.546-4.908,11.733c-4.191,4.453-9.701,6.188-13.584,6.863c-1.849,0.319-3.83,0.492-5.84,0.492
	c-7.136,0-14.643-2.177-18.094-7.627c-1.703-2.688-2.24-6.675,0.396-9.525c1.098-1.188,2.401-2.123,3.661-3.028
	c0.834-0.599,1.697-1.22,2.471-1.896c1.071-0.935,2.051-2.102,2.997-3.232l0.162-0.193c2.45-2.919,4.529-5.294,7.108-7.089
	c2.085-1.452,4.153-2.372,6.274-2.805c-0.223-0.18-0.447-0.359-0.671-0.537c-1.428-1.144-2.904-2.326-4.491-3.379l-1.632-1.083
	l1.958-0.061c5.623-0.172,10.078,0.195,14.928,2.563c4.553,2.223,8.422,5.873,10.154,9.501L58.6,27.22l0.678,1.048l-3.799,2.46
	L54.8,29.681l1.509-0.978c-3.228-3.028-7.502-5.7-11.885-7.409l0.454-1.163c3.634,1.418,7.201,3.479,10.194,5.859
	c-1.922-2.545-4.861-4.962-8.106-6.547c-4.095-1.999-7.813-2.502-12.438-2.473c1.04,0.765,2.033,1.56,3.001,2.337
	c0.525,0.42,1.056,0.844,1.594,1.264c0.001,0,0.004,0,0.004,0v0.003c1.827,1.426,3.764,2.817,6.035,3.925
	c3.109,1.518,6.234,2.289,8.572,2.113l0.094,1.244c-2.555,0.192-5.911-0.623-9.215-2.235c-2.209-1.079-4.09-2.394-5.854-3.752
	c-2.336,0.271-4.599,1.177-6.9,2.779c-2.452,1.707-4.474,4.02-6.864,6.867l-0.162,0.193c-0.978,1.166-1.988,2.371-3.133,3.37
	c-0.819,0.716-1.706,1.352-2.563,1.969c-1.266,0.908-2.461,1.768-3.474,2.863c-2.187,2.363-1.705,5.726-0.258,8.01
	c4.116,6.501,14.635,7.962,22.667,6.571c3.695-0.64,8.931-2.286,12.889-6.488c2.796-2.969,4.418-6.849,4.568-10.921
	c0.004-0.102,0.007-0.208,0.008-0.313c0.014-1.109-0.139-2.121-0.451-3.005c-0.199-0.565-0.533-1.04-0.887-1.543
	c-0.26-0.37-0.527-0.75-0.756-1.187c-0.291-0.554-0.452-1.129-0.608-1.686c-0.051-0.182-0.103-0.363-0.157-0.544l1.191-0.368
	c0.061,0.19,0.113,0.382,0.168,0.573c0.146,0.517,0.283,1.007,0.512,1.445c0.193,0.364,0.426,0.697,0.672,1.049
	C55.605,32.052,56.006,32.621,56.266,33.35z M24.791,32.697l0.883,0.883c0.237-0.237,0.469-0.476,0.696-0.716
	c0.299-0.316,0.594-0.637,0.885-0.956l-0.925-0.84c-0.285,0.314-0.574,0.628-0.866,0.938C25.244,32.238,25.019,32.467,24.791,32.697
	z M27.304,29.983l0.933,0.83c1.577-1.765,3.065-3.433,4.723-4.587l-0.714-1.023C30.469,26.439,28.933,28.16,27.304,29.983z"/>
</svg>
