<?xml version="1.0" encoding="utf-8"?>
<!-- Generator: Adobe Illustrator 16.0.0, SVG Export Plug-In . SVG Version: 6.00 Build 0)  -->
<!DOCTYPE svg PUBLIC "-//W3C//DTD SVG 1.1//EN" "http://www.w3.org/Graphics/SVG/1.1/DTD/svg11.dtd">
<svg version="1.1" id="Layer_1" xmlns="http://www.w3.org/2000/svg" xmlns:xlink="http://www.w3.org/1999/xlink" x="0px" y="0px"
	 width="72px" height="72px" viewBox="0 0 72 72" enable-background="new 0 0 72 72" xml:space="preserve">
<path fill="#444444" d="M47.415,23.374c-1.235-0.86-2.573-1.569-3.974-2.126c0.6-1.899,1.297-2.659,2.838-2.659l0.146,0.003
	c0.214,0.007,0.464,0.053,0.72,0.131l0.178,0.055l-0.09,0.162c-0.205,0.376-0.308,0.774-0.297,1.182
	c0.022,1.183,0.789,1.876,1.438,2.11c0.21,0.076,0.425,0.113,0.636,0.113c0.443,0,0.849-0.173,1.108-0.478
	c0.281-0.328,0.648-1.087-0.088-2.47c-0.121-0.23-0.295-0.457-0.516-0.675l-0.147-0.15l0.188-0.092
	c0.691-0.333,1.523-0.525,2.285-0.525c0.596,0,1.105,0.124,1.396,0.34c0.104,0.078,0.229,0.119,0.361,0.119
	c0.189,0,0.375-0.093,0.488-0.247c0.098-0.131,0.137-0.291,0.111-0.452c-0.022-0.163-0.108-0.302-0.238-0.4
	c-0.52-0.383-1.246-0.585-2.105-0.585c-0.985,0-2.099,0.272-2.977,0.725c-0.204,0.106-0.395,0.218-0.57,0.34l-0.068,0.049
	l-0.078-0.037c-0.59-0.269-1.191-0.425-1.703-0.443l-0.176-0.008c-2.492,0-3.42,1.738-3.979,3.478
	c-1.223-0.402-2.482-0.693-3.765-0.852c-0.168-0.021-0.315-0.031-0.476-0.047c0.018-0.076,0.035-0.152,0.035-0.258v-3.413
	c1.256,0.106,2.492,0.324,3.69,0.669c0.116,0.032,0.233,0.049,0.353,0.049c0.547,0,1.027-0.349,1.195-0.871l0.199-0.617
	c0.104-0.322,0.07-0.677-0.088-0.977c-0.16-0.299-0.438-0.523-0.764-0.615c-2.019-0.581-4.121-0.876-6.248-0.876
	c-2.126,0-4.228,0.295-6.248,0.876c-0.326,0.093-0.604,0.317-0.762,0.616c-0.16,0.299-0.192,0.655-0.088,0.977l0.199,0.616
	c0.167,0.522,0.648,0.871,1.196,0.871c0.116,0,0.232-0.017,0.345-0.049c1.306-0.375,2.652-0.608,4.018-0.701v3.445
	c0,0.073,0.016,0.119,0.025,0.177c-0.226,0.012-0.451,0.023-0.678,0.041c0,0,0,0-0.001,0c-6.491,0.528-12.318,4.222-15.59,9.88
	c0,0-0.001,0.001-0.002,0.002c-1.684,2.916-2.602,6.24-2.655,9.614l-0.006,0.101c-0.005,0.071-0.01,0.144-0.01,0.217
	c0,0.758,0.055,1.563,0.169,2.466c0,0.001,0,0.002,0,0.003c0.395,3.181,1.566,6.247,3.389,8.869c0,0.001,0,0.002,0.001,0.003
	c1.803,2.592,4.217,4.738,6.982,6.213c0.003,0,0.004,0.004,0.007,0.006c2.862,1.525,6.093,2.334,9.343,2.334
	c0.073,0,0.145-0.006,0.313-0.018c0.003,0,0.005,0,0.008,0l0.292-0.016c0.002,0,0.004,0,0.008,0
	c6.521-0.201,12.531-3.596,16.078-9.076c0-0.001,0-0.002,0-0.003c1.771-2.734,2.846-5.899,3.109-9.151
	c0.001-0.003,0.002-0.005,0.002-0.007c0.025-0.331,0.038-0.667,0.049-1.003c0-0.001,0-0.002,0-0.003l0.012-0.203
	c0.016-0.138,0.024-0.274,0.024-0.415C55.966,33.206,52.77,27.1,47.415,23.374z M48.309,19.51l0.09-0.158l0.139,0.118
	c0.188,0.161,0.331,0.335,0.422,0.502c0.23,0.436,0.318,0.776,0.252,0.981l-0.087,0.175h-0.106c-0.07,0-0.147-0.014-0.227-0.043
	c-0.146-0.051-0.622-0.28-0.639-0.989C48.148,19.895,48.201,19.698,48.309,19.51z M52.037,30.589l-3.262,3.261l-2.646-2.646
	l-2.648-2.648l1.938-1.937l1.648-1.648C49.115,26.504,50.798,28.423,52.037,30.589z M37.125,19.858
	c-0.361-0.02-0.709-0.029-1.046-0.029c0.007-0.052,0.021-0.09,0.021-0.152v-0.33V19.24v-3.042c0.113-0.002,0.226-0.012,0.339-0.012
	c0.221,0,0.44,0.015,0.661,0.023v3.031v0.107v0.33C37.1,19.751,37.116,19.799,37.125,19.858z M36.784,21.33l-0.265,0.264
	l-0.278-0.28C36.419,21.316,36.6,21.321,36.784,21.33z M36.52,23.717l4.838,4.84l-4.84,4.838l-4.838-4.838L36.52,23.717z
	 M42.42,29.618l1.908,1.907l3.388,3.388l-4.84,4.841l-5.295-5.294L42.42,29.618z M35.457,34.458l-5.294,5.292l-1.357-1.357
	l-3.481-3.479l5.294-5.294L35.457,34.458z M27.445,39.154l1.659,1.658l-4.841,4.842l-4.84-4.84l2.419-2.42l2.421-2.421
	L27.445,39.154z M30.163,41.876l5.295,5.294l-4.839,4.84l-5.295-5.295L30.163,41.876z M31.226,40.814l5.293-5.293l5.293,5.293
	l-5.293,5.295L31.226,40.814z M42.879,41.877l4.837,4.837l-5.294,5.294l-4.838-4.838L42.879,41.877z M43.939,40.813l4.836-4.838
	l4.842,4.84l-4.84,4.838L43.939,40.813z M38.716,21.519c2.517,0.364,4.944,1.252,7.091,2.591l-3.387,3.386l-4.84-4.841
	L38.716,21.519z M30.851,15.739l-0.138,0.038l-0.225-0.695l0.15-0.042c1.874-0.528,3.826-0.796,5.801-0.796
	c1.976,0,3.928,0.267,5.803,0.796l0.148,0.042l-0.224,0.691l-0.14-0.038c-1.385-0.389-2.812-0.629-4.254-0.722
	c-0.059-0.02-0.119-0.028-0.176-0.028c-0.039,0-0.08,0.009-0.121,0.018c-0.347-0.017-0.691-0.035-1.04-0.035
	c-0.26,0-0.518,0.017-0.777,0.026c-0.021-0.002-0.042-0.009-0.062-0.009c-0.032,0-0.065,0.009-0.099,0.015
	C33.911,15.071,32.349,15.311,30.851,15.739z M34.226,21.421l0.867,0.867l0.365,0.366l-4.841,4.84l-3.713-3.713
	C29.124,22.5,31.613,21.683,34.226,21.421z M25.605,24.604l3.951,3.951l-5.294,5.294l-3.814-3.813
	C21.796,27.862,23.56,26.023,25.605,24.604z M19.684,31.393l3.519,3.519l-2.423,2.423l-2.418,2.419L17.707,39.1
	C17.795,36.417,18.474,33.778,19.684,31.393z M17.888,42.348l0.472-0.472l4.841,4.84l-2.723,2.724
	C19.139,47.292,18.25,44.863,17.888,42.348z M21.341,50.698l2.922-2.923l5.295,5.295l-2.603,2.603
	C24.777,54.426,22.854,52.721,21.341,50.698z M28.353,56.396l2.266-2.267l3.902,3.902C32.389,57.852,30.293,57.296,28.353,56.396z
	 M36.52,57.91l-4.839-4.84l4.839-4.84l4.842,4.84L36.52,57.91z M38.656,57.896l3.765-3.766l1.963,1.962
	C42.6,56.997,40.668,57.611,38.656,57.896z M45.742,55.331l-2.26-2.259l5.295-5.295l2.4,2.4
	C49.721,52.277,47.861,54.021,45.742,55.331z M52.002,48.879l-2.163-2.164l4.433-4.434C53.943,44.602,53.17,46.852,52.002,48.879z
	 M49.836,34.911l2.924-2.924c1.086,2.34,1.682,4.91,1.705,7.554L49.836,34.911z"/>
</svg>
