<?xml version="1.0" encoding="utf-8"?>
<!-- Generator: Adobe Illustrator 16.0.0, SVG Export Plug-In . SVG Version: 6.00 Build 0)  -->
<!DOCTYPE svg PUBLIC "-//W3C//DTD SVG 1.1//EN" "http://www.w3.org/Graphics/SVG/1.1/DTD/svg11.dtd">
<svg version="1.1" id="Layer_1" xmlns="http://www.w3.org/2000/svg" xmlns:xlink="http://www.w3.org/1999/xlink" x="0px" y="0px"
	 width="72px" height="72px" viewBox="0 0 72 72" enable-background="new 0 0 72 72" xml:space="preserve">
<path fill="#444444" d="M35.846,48.566c-1.407-0.211-2.697-1.254-3.453-2.789c-0.634-1.289-0.835-2.697-1.03-4.061
	c-0.122-0.853-0.253-1.773-0.521-2.639c-0.395,0.814-0.663,1.699-0.907,2.512c-0.404,1.337-0.815,2.699-1.634,3.877
	c-0.163,0.232-0.343,0.455-0.532,0.66l-0.881-0.822c0.152-0.162,0.295-0.339,0.425-0.525c0.71-1.021,1.094-2.29,1.464-3.518
	c0.383-1.271,0.812-2.691,1.68-3.891l0.574-0.795l0.448,0.873c0.677,1.314,0.887,2.783,1.073,4.078
	c0.184,1.289,0.371,2.602,0.921,3.718c0.58,1.181,1.535,1.978,2.551,2.13L35.846,48.566z M44.566,39.77l0.459,1.111
	c1.959-0.811,2.021-4.777,1.75-7.512c1.764,2.384,1.906,5.934,1.006,8.51c-0.068,0.195-0.139,0.391-0.209,0.586
	c-0.471,1.309-0.956,2.662-0.895,4.174l1.203-0.05c-0.054-1.276,0.373-2.462,0.823-3.717c0.071-0.198,0.144-0.396,0.213-0.597
	c1.244-3.561,0.743-8.519-2.619-11.102l-1.249-0.959l0.291,1.547C45.973,35.128,45.775,39.268,44.566,39.77z M34.713,13.824
	c0.305,2.228,0.872,6.375-0.77,10.597l1.122,0.437c1.483-3.814,1.288-7.511,0.998-9.975c1.19,2.093,1.88,4.396,1.871,6.383
	c-0.002,0.537-0.02,1.19-0.041,1.925c-0.098,3.462-0.238,8.665,0.922,12.34c-0.437,1.635-0.737,3.228-0.664,4.822l1.203-0.058
	c-0.103-2.2,0.606-4.514,1.356-6.959c0.167-0.543,0.335-1.091,0.497-1.646c0.553-1.895,0.501-4.039,0.255-6.404
	c1.19,2.067,1.414,4.802,1.615,7.279c0.176,2.151,0.327,4.01,1.103,5.144l0.992-0.679c-0.594-0.871-0.738-2.664-0.895-4.563
	c-0.264-3.226-0.59-7.24-3.262-9.635l-1.209-1.084l0.211,1.61c0.399,3.065,0.68,5.782,0.032,7.996
	c-0.159,0.55-0.327,1.093-0.491,1.63c-0.023,0.078-0.047,0.154-0.07,0.231c-0.581-3.251-0.471-7.201-0.393-9.991
	c0.021-0.746,0.038-1.408,0.041-1.954c0.016-2.963-1.295-6.389-3.5-9.165l-1.117-1.407l0.045,1.797
	C34.575,12.816,34.636,13.261,34.713,13.824z M48.875,46.477c-0.434,0.487-1.109,0.996-1.829,1.532
	c-0.401,0.3-0.819,0.612-1.222,0.942c-0.711-1.294-1.645-3.313-1.87-4.338c-0.29-1.311-0.618-2.795-1.411-4.086l-0.514-0.834
	l-0.512,0.834c-0.795,1.295-1.123,2.777-1.416,4.108c-0.285,1.285-0.578,2.614-1.229,3.716c-0.563,0.95-1.382,1.516-2.93,2.018
	l0.37,1.146c1.343-0.436,2.707-1.047,3.596-2.553c0.747-1.266,1.062-2.689,1.37-4.09c0.191-0.861,0.398-1.805,0.75-2.68
	c0.35,0.875,0.558,1.818,0.748,2.68c0.289,1.307,1.431,3.661,2.127,4.898c-0.682,0.684-1.236,1.449-1.469,2.348L44.6,52.42
	c0.35-1.342,1.846-2.461,3.164-3.447c0.234-0.175,0.467-0.348,0.688-0.52c-1.07,4.797-4.474,9.723-8.541,11.165
	c0.755-0.783,1.384-1.718,1.871-3.222l-1.146-0.371c-0.672,2.07-1.591,2.836-2.982,3.998l-1.541,1.289l1.777-0.078
	c6.026-0.267,11.322-7.766,12.032-14.293l0.203-1.877L48.875,46.477z M36.154,58.943c-2.453,0.75-5.126,0.224-6.974-1.373
	c-2.589-2.237-4.594-5.684-5.371-9.114c0.22,0.171,0.449,0.342,0.684,0.517c1.319,0.986,2.815,2.105,3.164,3.447l1.165-0.301
	c-0.289-1.115-1.073-2.027-1.986-2.829c0.023-1.565-0.427-3.026-0.909-4.565c-0.903-2.879-1.914-6.103,0.01-11.057
	c0.275,1.918,0.6,3.641,1.151,4.605c-0.59,0.543-1.042,0.715-1.056,0.719l0.396,1.137c0.197-0.068,4.826-1.787,4.669-11.257
	c-0.054-3.24,0.047-6,1.575-8.372c-0.011,0.092-0.021,0.185-0.032,0.276c-0.271,2.299-0.504,4.284,0.032,6.935
	c0.207,1.029,0.587,1.998,0.987,3.024c0.669,1.709,1.359,3.477,1.359,5.766h1.203c0-2.517-0.766-4.476-1.44-6.204
	c-0.382-0.976-0.742-1.899-0.929-2.824c-0.498-2.463-0.286-4.27-0.018-6.556c0.085-0.726,0.173-1.477,0.245-2.306l0.142-1.637
	l-1.165,1.158c-3.041,3.021-3.231,6.66-3.163,10.759c0.073,4.435-0.943,6.973-1.951,8.4c-0.468-1.204-0.796-3.635-0.937-4.679
	c-0.079-0.582-0.136-1.003-0.189-1.229l-0.385-1.616l-0.74,1.488c-3.218,6.479-1.939,10.554-0.914,13.83
	c0.357,1.14,0.677,2.169,0.803,3.198c-0.123-0.092-0.245-0.186-0.367-0.274c-0.719-0.538-1.396-1.045-1.829-1.532l-1.253-1.412
	l0.203,1.877c0.467,4.291,2.788,8.713,6.059,11.539c1.513,1.308,3.49,2.002,5.519,2.002c0.866,0,1.743-0.127,2.595-0.387
	L36.154,58.943z M28.894,54.412l-1.011,0.652c1.435,2.221,3.628,3.494,6.02,3.494v-1.205C31.928,57.354,30.103,56.282,28.894,54.412
	z"/>
</svg>
