<?xml version="1.0" encoding="utf-8"?>
<!-- Generator: Adobe Illustrator 16.0.0, SVG Export Plug-In . SVG Version: 6.00 Build 0)  -->
<!DOCTYPE svg PUBLIC "-//W3C//DTD SVG 1.1//EN" "http://www.w3.org/Graphics/SVG/1.1/DTD/svg11.dtd">
<svg version="1.1" id="Layer_1" xmlns="http://www.w3.org/2000/svg" xmlns:xlink="http://www.w3.org/1999/xlink" x="0px" y="0px"
	 width="72px" height="72px" viewBox="0 0 72 72" enable-background="new 0 0 72 72" xml:space="preserve">
<path fill="#444444" d="M55.523,46.169c-0.174-0.128-0.39-0.198-0.606-0.198c-0.127,0-0.251,0.024-0.444,0.096l-0.021-0.23
	c2.43-1.956,2.932-3.995,3.016-5.036c0.027-0.351-0.129-0.692-0.42-0.913c-0.179-0.135-0.399-0.209-0.616-0.209
	c-0.043,0-0.084,0.004-0.125,0.008l-0.164,0.022l0.058-0.155c0.507-1.395,0.661-2.621,0.679-2.759
	c0.035-0.303-0.08-0.618-0.309-0.846c-0.2-0.202-0.461-0.311-0.736-0.311c-0.037,0-0.072,0.005-0.107,0.009
	c-0.135,0.016-1.361,0.171-2.764,0.683l-0.152,0.066l0.021-0.145c0.032-0.264-0.039-0.493-0.202-0.712
	c-0.201-0.262-0.498-0.339-0.895-0.339c-0.006,0-0.01,0-0.014,0c-1.041,0-3.082,0.465-5.094,2.967l-0.154-0.279
	c0.133-0.32,0.086-0.787-0.123-1.072c-0.195-0.271-0.508-0.614-0.875-0.614h-0.002c-2.197,0-3.367,0.438-4.602,1.673
	c-1.424,1.424-1.169,3.736-0.982,5.295c0.055,0.46,0.107,0.895,0.107,1.232l0.001,0.611c0.002,0.559-0.461,0.623-0.655,0.633
	c-0.265,0-0.561-0.151-0.595-0.576l-0.371-4.549c0-1.785,0.797-3.439,2.187-4.543c0.242-0.194,0.484-0.375,0.719-0.553
	c0.527-0.397,1.025-0.773,1.449-1.198c0.289-0.286,0.721-0.625,1.104-0.925c1.404-1.105,3.326-2.617,3.326-4.888
	c0-1.979-0.803-3.061-2.506-4.896c-0.204-0.22-0.496-0.346-0.801-0.346c-0.06,0-0.119,0.004-0.18,0.014
	c-0.361,0.059-0.684,0.305-0.822,0.639c-0.016,0.029-0.117,0.233-0.359,0.542l-0.176-0.082c0.043-0.21,0.076-0.413,0.098-0.608
	c0.383-3.537-0.854-5.582-1.624-6.486c-0.206-0.241-0.509-0.38-0.83-0.38c-0.054,0-0.108,0.004-0.163,0.012
	c-0.346,0.052-0.652,0.267-0.803,0.561l-0.096,0.187l-0.086-0.19c-0.703-1.576-1.6-2.758-1.771-2.978
	c-0.189-0.235-0.509-0.377-0.858-0.377s-0.672,0.143-0.862,0.38c-0.173,0.221-1.068,1.404-1.771,2.976l-0.084,0.188l-0.096-0.182
	c-0.16-0.301-0.463-0.512-0.811-0.564c-0.051-0.007-0.103-0.01-0.154-0.01c-0.323,0-0.625,0.138-0.831,0.378
	c-0.77,0.906-2.006,2.954-1.624,6.487c0.021,0.196,0.054,0.398,0.098,0.61l-0.176,0.082c-0.253-0.323-0.351-0.527-0.357-0.541
	c-0.14-0.336-0.456-0.582-0.824-0.642c-0.059-0.01-0.119-0.014-0.178-0.014c-0.305,0-0.598,0.126-0.802,0.346
	c-1.704,1.834-2.507,2.917-2.507,4.896c0,2.27,1.922,3.783,3.328,4.889c0.4,0.314,0.813,0.638,1.101,0.925
	c0.424,0.425,0.921,0.8,1.447,1.196c0.239,0.181,0.484,0.367,0.73,0.563c1.387,1.103,2.184,2.736,2.186,4.488l-0.373,4.601
	c-0.03,0.368-0.258,0.571-0.648,0.571c-0.142-0.006-0.603-0.069-0.602-0.629l0.002-0.617c0-0.336,0.052-0.771,0.107-1.231
	c0.187-1.558,0.442-3.69-0.982-5.114c-1.235-1.234-2.403-1.408-4.641-1.492c-0.328,0-0.641,0.164-0.837,0.435
	c-0.205,0.28-0.256,0.661-0.104,1.054l-0.231,0.018c-1.956-2.431-3.993-2.931-5.129-3.019c-0.315,0-0.614,0.155-0.82,0.424
	c-0.159,0.214-0.232,0.484-0.2,0.741l0.02,0.163l-0.153-0.057c-1.401-0.512-2.625-0.662-2.761-0.678
	c-0.039-0.006-0.079-0.008-0.118-0.008c-0.266,0-0.523,0.111-0.724,0.313c-0.229,0.228-0.345,0.543-0.309,0.844
	c0.006,0.054,0.153,1.319,0.679,2.765l0.056,0.154l-0.163-0.021c-0.042-0.006-0.083-0.008-0.125-0.008
	c-0.225,0-0.441,0.072-0.625,0.209c-0.288,0.219-0.442,0.558-0.414,0.907c0.084,1.042,0.586,3.081,3.086,5.095l-0.155,0.154
	c-0.119-0.05-0.247-0.074-0.379-0.074c-0.217,0-0.432,0.069-0.607,0.196c-0.284,0.206-0.446,0.534-0.433,0.878
	c0.082,2.197,0.256,3.366,1.492,4.602c0.76,0.761,1.813,1.131,3.219,1.131c0.67,0,1.321-0.079,1.958-0.155
	c0.436-0.052,0.848-0.101,1.171-0.101c2.014,0,9.524,1.916,11.462,3.854c0.025,0.024,0.057,0.037,0.085,0.057v1.003
	c0,0.365,0.135,0.664,0.5,0.664c0.365,0,0.5-0.299,0.5-0.664v-1.184c2.128-1.895,9.348-3.73,11.318-3.73
	c0.319,0,0.731,0.047,1.231,0.106c0.575,0.069,1.227,0.147,1.894,0.147c1.407,0,2.461-0.369,3.221-1.129
	c1.236-1.237,1.41-2.406,1.492-4.603C55.968,46.702,55.807,46.374,55.523,46.169z M54.609,47.525
	c-0.086,1.638-0.262,2.365-1.082,3.184c-0.506,0.507-1.228,0.743-2.269,0.743c-0.581,0-1.175-0.072-1.79-0.146
	c-0.486-0.057-0.945-0.111-1.351-0.111c-1.86,0-8.191,1.452-11.318,3.412v-1.365l8.919-5.945c0.305-0.203,0.387-0.615,0.186-0.921
	c-0.125-0.185-0.33-0.295-0.555-0.295c-0.131,0-0.258,0.039-0.367,0.11L36.8,51.646v-4.14c0-0.366-0.135-0.664-0.5-0.664
	c-0.365,0-0.5,0.298-0.5,0.664v4.291l-8.411-5.606c-0.11-0.071-0.238-0.11-0.369-0.11c-0.223,0-0.429,0.11-0.552,0.295
	c-0.203,0.306-0.12,0.718,0.184,0.921l9.148,6.099v1.368c-3.031-2.038-9.639-3.568-11.549-3.568c-0.405,0-0.863,0.055-1.39,0.117
	c-0.575,0.068-1.169,0.14-1.75,0.14c-1.04,0-1.761-0.235-2.268-0.743c-0.82-0.82-0.996-1.546-1.081-3.184l-0.006-0.127l0.125,0.022
	c0.331,0.062,0.694,0.093,1.078,0.093c0.668,0,1.382-0.094,2.123-0.279c0.286-0.071,0.492-0.327,0.502-0.621
	c0.01-0.295-0.178-0.563-0.458-0.654c-1.025-0.331-1.847-0.73-2.376-1.157c-1.661-1.337-2.243-2.669-2.439-3.551l-0.031-0.142
	l0.143,0.021c0.188,0.027,0.418,0.045,0.689,0.045l0.224-0.004c0.228-0.009,0.434-0.132,0.549-0.33
	c0.115-0.198,0.12-0.438,0.014-0.641c-0.598-1.148-0.887-2.4-1.006-3.044l-0.027-0.143l0.143,0.026
	c0.643,0.118,1.893,0.407,3.043,1.007c0.095,0.049,0.202,0.076,0.308,0.076c0.117,0,0.232-0.029,0.333-0.088
	c0.198-0.114,0.322-0.316,0.33-0.545c0.013-0.326-0.001-0.625-0.041-0.905l-0.021-0.128l0.141,0.061
	c0.882,0.196,2.214,0.836,3.551,2.496c0.424,0.526,0.824,1.465,1.157,2.492c0.085,0.262,0.343,0.691,0.649,0.691
	c0.002,0,0.004,0,0.005,0c0.294,0,0.55-0.449,0.621-0.736c0.371-1.482,0.307-2.791,0.188-3.434l-0.023-0.125l0.127,0.008
	c1.638,0.085,2.365,0.261,3.184,1.081c0.968,0.967,0.774,2.588,0.603,4.018c-0.057,0.476-0.116,0.968-0.116,1.39l-0.002,0.612
	c-0.004,1.234,0.939,1.921,1.875,1.962l0.104,0.002c0.855,0,1.822-0.562,1.922-1.793l0.375-4.656c0-2.188-0.979-4.221-2.684-5.58
	c-0.228-0.18-0.455-0.353-0.678-0.521l-0.083-0.063c-0.488-0.368-0.949-0.716-1.306-1.073c-0.342-0.342-0.787-0.691-1.221-1.032
	c-1.321-1.039-2.819-2.217-2.819-3.843c0-1.395,0.459-2.135,1.839-3.654l0.085-0.097l0.07,0.11c0.336,0.522,1.146,1.546,2.812,2.545
	c0.103,0.063,0.221,0.096,0.342,0.096c0.168,0,0.329-0.065,0.453-0.18c0.215-0.2,0.272-0.523,0.138-0.786
	c-0.57-1.117-0.918-2.125-1.004-2.915c-0.278-2.575,0.4-4.191,1.017-5.092l0.082-0.119l0.083,0.119
	c0.207,0.297,0.475,0.599,0.795,0.896c0.123,0.113,0.284,0.176,0.453,0.176c0.057,0,0.113-0.006,0.168-0.021
	c0.221-0.058,0.395-0.224,0.463-0.442c0.471-1.495,1.311-2.813,1.769-3.465l0.082-0.116l0.082,0.116
	c0.458,0.651,1.298,1.965,1.771,3.465c0.068,0.217,0.24,0.383,0.464,0.442c0.055,0.014,0.11,0.022,0.17,0.022
	c0.167,0,0.327-0.063,0.45-0.177c0.32-0.298,0.589-0.6,0.795-0.896l0.083-0.119l0.082,0.119c0.618,0.902,1.295,2.517,1.017,5.092
	c-0.085,0.789-0.433,1.797-1.004,2.915c-0.133,0.263-0.076,0.586,0.139,0.786c0.123,0.117,0.285,0.18,0.453,0.18
	c0.12,0,0.237-0.033,0.342-0.096c1.666-0.998,2.477-2.024,2.812-2.545l0.069-0.11l0.089,0.098c1.38,1.517,1.84,2.259,1.84,3.654
	c0,1.626-1.497,2.805-2.821,3.847c-0.432,0.338-0.877,0.689-1.219,1.03c-0.355,0.356-0.814,0.705-1.311,1.08l-0.107,0.089
	c-0.209,0.159-0.424,0.335-0.639,0.505c-1.709,1.359-2.688,3.445-2.686,5.667l0.373,4.66c0.098,1.229,1.068,1.906,2.021,1.906
	c0.002,0,0.004,0,0.004,0c0.937,0,1.88-0.842,1.875-2.076L41.318,44.4c0-0.422-0.057-0.914-0.114-1.391
	c-0.171-1.43-0.365-3.051,0.604-4.018c0.818-0.82,1.545-0.996,3.184-1.081l0.127-0.007l-0.023,0.125
	c-0.119,0.641-0.183,1.718,0.188,3.199c0.07,0.287,0.326,0.492,0.673,0.506c0.263,0,0.517-0.193,0.603-0.461
	c0.334-1.028,0.734-1.852,1.157-2.377c1.339-1.662,2.671-2.242,3.552-2.438l0.141-0.031l-0.02,0.142
	c-0.039,0.281-0.054,0.589-0.041,0.914c0.008,0.228,0.131,0.433,0.33,0.549c0.1,0.059,0.215,0.09,0.33,0.09
	c0.107,0,0.215-0.025,0.309-0.076c1.154-0.602,2.402-0.89,3.045-1.007l0.143-0.026l-0.025,0.144
	c-0.119,0.645-0.41,1.897-1.008,3.044c-0.104,0.203-0.099,0.443,0.016,0.641c0.115,0.198,0.32,0.321,0.549,0.33l0.23,0.004
	c0.271,0,0.498-0.018,0.682-0.044l0.145-0.021l-0.031,0.141c-0.195,0.882-0.778,2.213-2.438,3.55
	c-0.529,0.427-1.352,0.826-2.377,1.157c-0.279,0.091-0.469,0.359-0.459,0.652c0.01,0.296,0.217,0.552,0.504,0.623
	c0.741,0.185,1.456,0.279,2.124,0.279c0.384,0,0.745-0.031,1.076-0.093l0.124-0.022L54.609,47.525z"/>
</svg>
