<?xml version="1.0" encoding="utf-8"?>
<!-- Generator: Adobe Illustrator 16.0.0, SVG Export Plug-In . SVG Version: 6.00 Build 0)  -->
<!DOCTYPE svg PUBLIC "-//W3C//DTD SVG 1.1//EN" "http://www.w3.org/Graphics/SVG/1.1/DTD/svg11.dtd">
<svg version="1.1" id="Layer_1" xmlns="http://www.w3.org/2000/svg" xmlns:xlink="http://www.w3.org/1999/xlink" x="0px" y="0px"
	 width="72px" height="72px" viewBox="0 0 72 72" enable-background="new 0 0 72 72" xml:space="preserve">
<path fill="#444444" d="M44.611,33.521c0.406,0.092,0.66,0.494,0.568,0.9c-0.076,0.35-0.389,0.586-0.732,0.586
	c-0.055,0-0.11-0.006-0.168-0.018l-5.543-1.251c-0.405-0.092-0.66-0.494-0.568-0.899c0.091-0.406,0.494-0.66,0.898-0.569
	L44.611,33.521z M42.951,51.168c0.176,0.219,0.215,0.518,0.104,0.773c-0.113,0.257-0.359,0.432-0.639,0.451
	c-0.105,0.004-0.952,0.061-2.204,0.061c-2.78,0-7.56-0.285-10.761-1.942c-0.237,0.138-0.495,0.263-0.791,0.365
	c-0.718,0.248-1.643,0.383-2.631,0.383c-1.588,0-3.331-0.361-4.663-1.151c-2.566-0.132-5.92-0.946-7.713-4.043
	c-0.853-1.472-1.021-2.904-1.053-3.514c-0.519-0.617-0.889-1.351-1.085-2.181c-0.536-2.264,0.321-4.786,2.078-6.279
	c-0.032-0.368-0.044-0.741-0.016-1.124c0.14-1.879,1.263-3.379,3.25-4.34c1.42-0.686,2.791-0.854,2.849-0.859
	c0.413-0.05,0.787,0.246,0.836,0.659c0.049,0.412-0.246,0.785-0.658,0.835c-0.046,0.006-4.535,0.588-4.775,3.816
	c-0.116,1.566,0.431,2.987,1.538,4.001c1.563,1.426,4.103,1.932,7.156,1.422c0.409-0.067,0.797,0.209,0.865,0.619
	c0.068,0.409-0.208,0.798-0.618,0.866c-0.853,0.143-1.675,0.214-2.458,0.214c-2.446,0-4.514-0.688-5.961-2.009
	c-0.73-0.668-1.275-1.467-1.618-2.354c-0.921,1.148-1.339,2.761-1.002,4.187c0.383,1.617,1.655,2.701,3.583,3.047
	c5.055,0.908,6.544-0.873,6.95-1.682c0.009-0.019,0.026-0.029,0.037-0.046c0.029-0.049,0.063-0.09,0.102-0.13
	c0.03-0.031,0.058-0.06,0.091-0.085c0.043-0.031,0.089-0.055,0.138-0.077c0.04-0.018,0.078-0.034,0.12-0.045
	c0.049-0.013,0.098-0.017,0.149-0.019c0.048-0.003,0.095-0.003,0.144,0.005c0.022,0.003,0.043-0.003,0.065,0.002
	c0.031,0.007,0.054,0.027,0.083,0.038c0.027,0.01,0.056,0.009,0.082,0.022c0.019,0.01,0.03,0.026,0.047,0.037
	c0.045,0.027,0.083,0.059,0.121,0.095c0.036,0.033,0.068,0.065,0.097,0.104c0.026,0.037,0.045,0.075,0.065,0.116
	c0.023,0.048,0.042,0.094,0.055,0.146c0.01,0.04,0.013,0.08,0.016,0.122c0.004,0.058,0.003,0.112-0.005,0.17
	c-0.003,0.019,0.002,0.035-0.002,0.054c-0.092,0.399-0.226,1.582,0.26,2.267c0.237,0.336,0.611,0.526,1.142,0.585
	c0.003,0,0.005,0.002,0.009,0.003c0.002,0,0.004,0,0.007,0c1.448,0.193,2.87,0.498,3.732,1.31c0.403-0.298,0.997-0.666,1.857-1.039
	c2.357-1.021,5.543-1.604,9.473-1.734c0.307-0.01,0.58,0.16,0.707,0.436c0.127,0.272,0.08,0.598-0.123,0.82
	c-0.082,0.092-1.7,1.878-3.435,3.188C39.757,48.343,41.574,49.46,42.951,51.168z M21.428,48.602
	c0.752-0.354,2.294-1.113,2.956-1.984c0.117-0.153,0.195-0.364,0.277-0.59c0.026-0.072,0.06-0.158,0.098-0.249
	c-0.319-0.196-0.598-0.44-0.815-0.749c-0.265-0.376-0.436-0.828-0.531-1.337c-0.323,0.224-0.697,0.435-1.147,0.61
	c-0.894,0.35-1.944,0.524-3.142,0.524c-0.866,0-1.81-0.093-2.826-0.274c-0.718-0.129-1.364-0.354-1.946-0.648
	C14.874,45.695,16.488,48.342,21.428,48.602z M28.17,49.453c0.559-0.192,0.934-0.463,1.03-0.741c0.306-0.883,0.091-1.231,0.02-1.347
	c-0.416-0.676-1.827-0.95-3.029-1.112c-0.037,0.081-0.083,0.205-0.116,0.296c-0.106,0.288-0.238,0.646-0.492,0.98
	c-0.547,0.716-1.41,1.318-2.3,1.816C24.924,49.883,26.929,49.882,28.17,49.453z M40.65,50.939c-1.811-1.601-3.875-2.355-3.9-2.365
	c-0.276-0.1-0.47-0.35-0.496-0.643c-0.025-0.293,0.12-0.572,0.375-0.719c0.975-0.563,2.068-1.518,2.898-2.314
	c-5.696,0.452-8.027,1.928-8.729,2.498c0.103,0.537,0.056,1.138-0.174,1.808c-0.022,0.063-0.064,0.118-0.093,0.18
	C33.604,50.789,38.203,50.962,40.65,50.939z M60.775,36.75c-0.021,0.091-0.586,2.268-2.084,4.463
	c-2.034,2.979-4.808,4.555-8.025,4.555c-3.574,0-6.055-0.897-7.373-2.668c-0.242-0.325-0.435-0.682-0.583-1.055
	c-0.075,0.039-0.154,0.072-0.243,0.084c-0.55,0.073-1.158,0.124-1.791,0.124c-1.674,0-3.507-0.36-4.849-1.61
	c-0.594-0.553-0.938-1.134-1.138-1.585c-0.939,0.243-1.94,0.38-3.016,0.38c-2.088,0-4.428-0.457-7.002-1.371
	c-1.348-0.479-2.44-1.51-3-2.827c-0.715-1.685-1.351-4.205-0.312-6.646c0.593-1.392,1.843-2.366,3.344-2.607
	c2.372-0.381,6.913-0.964,10.665-0.596c0.54,0.054,1.076,0.167,1.591,0.338l2.664,0.886l0.108-0.083
	c1.535-1.173,3.443-1.818,5.375-1.818h8.775c0.991,0,1.799-0.807,1.799-1.798s-0.808-1.798-1.799-1.798
	c-0.416,0-0.753-0.337-0.753-0.753c0-0.416,0.337-0.753,0.753-0.753c1.821,0,3.305,1.481,3.305,3.304
	c0,1.821-1.482,3.304-3.305,3.304h-8.775c-1.246,0-2.475,0.331-3.562,0.932c0.953,0.207,1.922,0.331,2.901,0.349l10.354,0.146
	c0.377,0.005,0.691,0.287,0.736,0.661c0.046,0.373-0.191,0.724-0.555,0.819l-8.66,2.277l1.015,0.189
	c0.408,0.077,0.677,0.47,0.603,0.878c-0.068,0.363-0.385,0.615-0.74,0.615c-0.045,0-0.092-0.004-0.139-0.013l-4.28-0.8l0,0
	l-1.851-0.346c-0.408-0.076-0.679-0.469-0.603-0.878c0.075-0.408,0.471-0.677,0.878-0.602l1.656,0.31l6.404-1.685l-4.844-0.068
	c-1.669-0.031-3.314-0.313-4.896-0.837l-3.042-1.011c-0.408-0.136-0.834-0.226-1.264-0.269c-3.584-0.352-7.979,0.215-10.279,0.584
	c-0.986,0.158-1.809,0.798-2.196,1.711c-0.832,1.953-0.289,4.051,0.311,5.468c0.396,0.931,1.167,1.658,2.117,1.995
	c10.323,3.664,13.208-1.737,13.237-1.792c0.188-0.37,0.643-0.518,1.012-0.329c0.371,0.188,0.52,0.642,0.33,1.012
	c-0.037,0.071-0.918,1.764-3.275,2.893c-0.115,0.055-0.239,0.094-0.357,0.145c0.463,0.935,1.902,2.639,6.144,2.063
	c0.041-0.006,0.078,0.007,0.117,0.008c-0.049-0.59,0.003-1.192,0.169-1.779c-0.376-0.265-1.229-0.758-2.428-0.812
	c-0.415-0.018-0.735-0.369-0.718-0.785c0.019-0.416,0.373-0.738,0.785-0.72c1.353,0.061,2.371,0.542,2.977,0.92
	c0.451-0.634,1.225-1.353,2.561-1.902c2.446-1.005,3.91,0.097,4.803,1.354c0.839-0.642,2.084-1.121,3.728-1.427
	c0.488-0.09,0.955-0.154,1.371-0.202c-1.302-0.74-3.546-1.087-5.335-0.47c-0.395,0.135-0.82-0.074-0.957-0.467
	c-0.135-0.393,0.073-0.821,0.467-0.957c2.803-0.966,7.127-0.131,8.18,2.221c0.104,0.23,0.084,0.497-0.051,0.711
	c-0.137,0.214-0.371,0.345-0.623,0.349c-0.014,0-1.33,0.026-2.797,0.301c-1.499,0.281-2.615,0.725-3.221,1.267
	c0.075,0.16,0.146,0.313,0.205,0.444c0.167,0.369,0.805,0.594,1.706,0.599c0.013,0,0.024,0,0.038,0c2.697,0,5.453-1.601,6.123-3.042
	c0.164-0.353,0.568-0.521,0.936-0.392C60.665,35.985,60.871,36.373,60.775,36.75z M57.973,39.527
	c-1.476,0.803-3.242,1.267-4.74,1.267c-0.012,0-0.025,0-0.039,0c-1.551-0.009-2.641-0.535-3.068-1.481
	c-1.117-2.476-2.083-3.067-3.825-2.351c-1.999,0.82-2.237,1.986-2.259,2.11c-0.002,0.058-0.012,0.086-0.027,0.145
	c-0.117,0.389-0.427,1.754,0.487,2.983c1.004,1.349,3.136,2.062,6.165,2.062c2.723,0,4.995-1.299,6.756-3.859
	C57.623,40.109,57.807,39.816,57.973,39.527z"/>
</svg>
