<?xml version="1.0" encoding="utf-8"?>
<!-- Generator: Adobe Illustrator 16.0.0, SVG Export Plug-In . SVG Version: 6.00 Build 0)  -->
<!DOCTYPE svg PUBLIC "-//W3C//DTD SVG 1.1//EN" "http://www.w3.org/Graphics/SVG/1.1/DTD/svg11.dtd">
<svg version="1.1" id="Layer_1" xmlns="http://www.w3.org/2000/svg" xmlns:xlink="http://www.w3.org/1999/xlink" x="0px" y="0px"
	 width="72px" height="72px" viewBox="0 0 72 72" enable-background="new 0 0 72 72" xml:space="preserve">
<path fill="#444444" d="M57.538,24.505c-0.062-0.221-0.22-0.402-0.431-0.488c-4.664-1.934-6.344-1.564-8.838-0.037
	c1.529-2.493,1.898-4.174-0.035-8.838c-0.088-0.211-0.269-0.37-0.488-0.431c-0.221-0.059-0.456-0.014-0.639,0.124
	c-0.051,0.038-4.918,3.843-2.084,11.347l-5.642,5.642c0.146-0.396,0.282-0.752,0.4-1.048c1.058-2.663,1.018-2.992-1.458-11.744
	c-0.078-0.272-0.307-0.478-0.586-0.525c-0.281-0.047-0.563,0.067-0.727,0.3c-0.195,0.278-4.667,6.803-0.115,15.503l-5.438,5.436
	c1.181-3.057,1.127-6.621-3.236-15.845c-0.125-0.263-0.371-0.412-0.68-0.424c-0.29,0.005-0.549,0.18-0.665,0.444
	c-0.145,0.329-3.41,8.11,1.173,19.229l-5.086,5.088c1.161-3.663,1.334-5.934-6.003-17.872c-0.144-0.235-0.415-0.37-0.686-0.349
	c-0.277,0.021-0.518,0.195-0.624,0.451c-0.167,0.403-3.921,9.854,4.763,20.32l-4.765,4.771c-0.289,0.289-0.289,0.758,0,1.045
	c0.144,0.144,0.333,0.217,0.521,0.217s0.378-0.073,0.522-0.217l4.761-4.762c5.532,4.596,10.785,5.719,14.565,5.719
	c3.372,0,5.572-0.886,5.763-0.963c0.256-0.106,0.43-0.349,0.45-0.625c0.021-0.275-0.111-0.541-0.349-0.688
	c-11.943-7.337-14.21-7.162-17.873-6.001l5.085-5.086c4.535,1.868,8.515,2.442,11.66,2.442c4.569,0,7.377-1.187,7.572-1.271
	c0.268-0.115,0.439-0.375,0.443-0.664c0.006-0.289-0.16-0.557-0.422-0.68c-9.225-4.363-12.786-4.416-15.847-3.234l5.431-5.431
	c2.907,1.523,5.575,2.047,7.846,2.047c4.523,0,7.479-2.035,7.664-2.167c0.231-0.164,0.349-0.446,0.301-0.729
	c-0.049-0.278-0.254-0.507-0.526-0.584c-8.753-2.477-9.077-2.514-11.743-1.459c-0.297,0.117-0.652,0.255-1.047,0.4l5.639-5.641
	c1.687,0.638,3.193,0.904,4.502,0.904c4.527,0,6.816-2.949,6.848-2.989C57.555,24.96,57.598,24.725,57.538,24.505z M21.375,48.375
	c-0.095,0.292-0.194,0.598-0.294,0.919c-5.737-7.272-5.17-13.865-4.513-16.743C23.034,43.27,22.497,44.922,21.375,48.375z
	 M39.701,55.686c-2.868,0.653-9.47,1.224-16.742-4.515c0.322-0.101,0.625-0.198,0.917-0.293
	C27.334,49.754,28.984,49.218,39.701,55.686z M29.025,41.471c-0.011,0.021-0.021,0.041-0.032,0.063
	c-2.628-7.046-1.942-12.581-1.299-15.261C31.959,35.771,30.83,37.962,29.025,41.471z M45.973,44.555
	c-2.688,0.639-8.232,1.317-15.252-1.296c0.02-0.011,0.042-0.021,0.062-0.03C34.287,41.425,36.481,40.295,45.973,44.555z
	 M38.412,30.232c-0.221,0.557-0.496,1.245-0.799,2.194c-2.189-5.051-1.12-9.135-0.213-11.234
	C39.309,27.976,39.232,28.165,38.412,30.232z M42.021,33.842c2.067-0.821,2.256-0.897,9.039,1.011
	c-2.1,0.91-6.185,1.978-11.233-0.212C40.775,34.337,41.465,34.064,42.021,33.842z M46.061,24.693
	c-1.246-4.18,0.238-6.786,1.219-7.958c1.455,3.865,0.807,4.858-0.867,7.419C46.299,24.327,46.182,24.508,46.061,24.693z
	 M47.561,26.193c0.187-0.121,0.365-0.238,0.537-0.352c2.563-1.673,3.553-2.322,7.422-0.868
	C54.35,25.953,51.736,27.438,47.561,26.193z"/>
</svg>
