<?xml version="1.0" encoding="utf-8"?>
<!-- Generator: Adobe Illustrator 16.0.0, SVG Export Plug-In . SVG Version: 6.00 Build 0)  -->
<!DOCTYPE svg PUBLIC "-//W3C//DTD SVG 1.1//EN" "http://www.w3.org/Graphics/SVG/1.1/DTD/svg11.dtd">
<svg version="1.1" id="Layer_1" xmlns="http://www.w3.org/2000/svg" xmlns:xlink="http://www.w3.org/1999/xlink" x="0px" y="0px"
	 width="72px" height="72px" viewBox="0 0 72 72" enable-background="new 0 0 72 72" xml:space="preserve">
<path fill="#444444" d="M59.089,33.685c-0.348-3.444-1.515-6.857-2.774-8.118c-1.26-1.258-4.674-2.425-8.117-2.774
	c-0.709-0.07-1.401-0.105-2.063-0.105c-2.657,0-5.004,0.574-6.782,1.662l-0.392,0.239l-0.089-0.449
	c-0.53-2.69-2.336-5.36-5.231-7.725c-2.681-2.188-5.92-3.778-7.702-3.778c-1.781,0-5.02,1.59-7.702,3.778
	c-3.479,2.841-5.395,6.15-5.395,9.319c0,1.088,0.157,4.504,0.53,6.106l0.007,0.118l-0.006,0.027
	c-0.192,0.838-0.105,1.696-0.029,2.453c0.042,0.42,0.082,0.817,0.082,1.21c0,5.946,7.717,9.142,11.103,10.262l0.081,0.074
	l0.023,0.039c0.038,0.06,0.078,0.111,0.123,0.158c1.16,1.158,1.8,2.705,1.8,4.351c0,1.645-0.64,3.19-1.8,4.35
	c-0.161,0.162-0.249,0.374-0.249,0.601s0.088,0.439,0.248,0.599c0.162,0.161,0.375,0.249,0.6,0.249c0.227,0,0.44-0.088,0.6-0.247
	c2.584-2.586,3.048-6.563,1.129-9.672l-0.213-0.345l0.387-0.127c0.948-0.309,1.884-0.664,2.781-1.058l0.309-0.135l0.118,0.315
	c0.57,1.523,1.184,2.774,1.598,3.554l0.095,0.177l-0.12,0.161c-2.262,3.091-1.924,7.467,0.787,10.18
	c0.16,0.16,0.372,0.249,0.599,0.249s0.441-0.088,0.602-0.249c0.161-0.161,0.249-0.374,0.249-0.6
	c-0.001-0.228-0.089-0.44-0.249-0.599c-2.078-2.078-2.393-5.354-0.75-7.789l0.157-0.234l0.253,0.129
	c1.989,1.016,5.875,2.723,9.593,2.723c2.348,0,4.236-0.697,5.611-2.072c0.276-0.277,0.58-0.527,0.926-0.812
	c0.582-0.476,1.244-1.017,1.701-1.743l0.076-0.088l0.025-0.016c1.396-0.868,3.924-3.172,4.695-3.943
	C58.557,41.85,59.54,38.154,59.089,33.685z M26.682,44.259l-0.681,0.173v-6.447c0-3.554,3.182-6.445,6.689-6.445
	c0.326,0,0.802-0.281,0.802-0.556c0-0.307-0.249-0.557-0.555-0.557c-2.27,0-4.658,1.001-6.117,2.8l-0.821,0.798v-3.043
	c0-3.553,3.147-6.443,6.659-6.443c0.334,0,0.772-0.281,0.772-0.558c0-0.31-0.317-0.555-0.616-0.555
	c-2.264,0-4.555,1.026-5.993,2.801L26,27.024v-6.542c0-0.269-0.169-0.557-0.5-0.557S25,20.213,25,20.482v6.386l-0.4-0.629
	c-1.424-1.761-3.369-2.813-5.71-2.813c-0.295,0-0.603,0.239-0.603,0.555c0,0.314,0.165,0.558,0.459,0.558
	c3.579,0,6.254,2.95,6.254,6.443v2.886l-0.4-0.629c-1.424-1.761-3.369-2.813-5.71-2.813c-0.295,0-0.603,0.24-0.603,0.557
	c0,0.313,0.165,0.556,0.459,0.556c3.579,0,6.254,2.95,6.254,6.445v6.401l-0.227-0.122c-1.333-0.445-2.717-1.068-4.296-1.94
	c-2.443-1.351-5.356-3.604-5.356-6.675c0-0.482-0.045-0.931-0.091-1.393c-0.08-0.789-0.149-1.47,0.047-2.083l0.095-0.221
	l-0.095-0.295c-0.312-0.975-0.541-4.474-0.541-5.924c0-3.577,2.989-6.551,4.771-8.005c2.715-2.216,5.595-3.396,6.63-3.396
	c1.036,0,3.917,1.179,6.631,3.396c1.782,1.454,4.77,4.429,4.77,8.005c0,1.449-0.23,4.947-0.542,5.924l-0.097,0.221l0.085,0.295
	c0.2,0.634,0.106,1.37,0.032,2.083c-0.045,0.445-0.121,0.904-0.121,1.393c0,3.081-2.983,5.331-5.417,6.675
	C29.46,43.326,27.546,43.971,26.682,44.259z M33.46,47.639l-0.198-0.396c-0.341-0.682-0.841-1.756-1.29-2.991l-0.095-0.257
	l0.241-0.133c2.889-1.582,6.327-4.293,6.327-8.215l0.025-1.299l0.574,1.018c1.424,2.513,0.992,5.693-1.049,7.732L33.46,47.639z
	 M55.113,42.891c-1.025,1.026-3.661,3.34-4.57,3.808l-0.225,0.092l-0.141,0.274c-0.294,0.568-0.824,1.002-1.46,1.522
	c-0.339,0.278-0.69,0.565-1.028,0.903c-1.045,1.046-2.539,1.576-4.435,1.576c-1.215,0-2.586-0.215-4.071-0.646
	c-1.841-0.53-3.486-1.272-4.542-1.798l-0.396-0.199l4.537-4.539c1.217-1.218,2.835-1.887,4.557-1.887
	c1.721,0,3.34,0.669,4.555,1.886c0.106,0.104,0.244,0.161,0.394,0.161s0.29-0.057,0.394-0.161c0.104-0.106,0.162-0.245,0.162-0.395
	s-0.058-0.289-0.162-0.394c-1.429-1.427-3.324-2.213-5.343-2.213c-0.267,0-0.532,0.014-0.797,0.042l-0.896,0.095l2.084-2.086
	c1.217-1.219,2.836-1.889,4.558-1.889c1.721,0,3.34,0.67,4.558,1.887c0.105,0.105,0.243,0.164,0.393,0.164
	c0.148,0,0.289-0.058,0.394-0.162c0.104-0.106,0.162-0.248,0.162-0.395c0-0.148-0.058-0.289-0.162-0.395
	c-1.427-1.429-3.325-2.214-5.343-2.214c-0.262,0-0.53,0.017-0.797,0.043l-0.895,0.093l4.559-4.559c0.217-0.218,0.217-0.569,0-0.787
	c-0.105-0.104-0.244-0.163-0.393-0.163c-0.15,0-0.289,0.059-0.394,0.163l-4.565,4.567l0.094-0.897
	c0.242-2.287-0.549-4.527-2.166-6.145c-0.106-0.105-0.244-0.162-0.394-0.162s-0.288,0.056-0.394,0.162
	c-0.104,0.106-0.162,0.247-0.162,0.394c0,0.149,0.058,0.29,0.162,0.394c1.216,1.215,1.885,2.834,1.885,4.557
	c0,1.723-0.669,3.342-1.885,4.555l-2.092,2.094l0.094-0.896c0.242-2.285-0.547-4.527-2.17-6.149l-0.116-0.096l-0.05-0.128
	l-0.002-0.057c-0.008-0.336-0.047-0.641-0.112-0.931l-0.006-0.115l0.006-0.025c0.269-1.147,0.437-3.315,0.506-5.043l0.062-0.104
	l0.035-0.032c1.973-1.883,4.918-2.279,7.041-2.279c0.619,0,1.254,0.033,1.883,0.096c3.486,0.354,6.359,1.556,7.09,2.288
	c0.732,0.731,1.934,3.602,2.287,7.09C57.633,36.145,57.641,40.364,55.113,42.891z"/>
</svg>
