<?xml version="1.0" encoding="utf-8"?>
<!-- Generator: Adobe Illustrator 16.0.0, SVG Export Plug-In . SVG Version: 6.00 Build 0)  -->
<!DOCTYPE svg PUBLIC "-//W3C//DTD SVG 1.1//EN" "http://www.w3.org/Graphics/SVG/1.1/DTD/svg11.dtd">
<svg version="1.1" id="Layer_1" xmlns="http://www.w3.org/2000/svg" xmlns:xlink="http://www.w3.org/1999/xlink" x="0px" y="0px"
	 width="72px" height="72px" viewBox="0 0 72 72" enable-background="new 0 0 72 72" xml:space="preserve">
<path fill="#444444" d="M42.545,15.101c0-1.296-1.054-2.35-2.35-2.35h-7.994c-1.296,0-2.35,1.054-2.35,2.35
	c0,0.792,0.397,1.492,1,1.917v11.165c-0.603,0.426-1,1.125-1,1.917s0.397,1.492,1,1.917v11.162c-0.603,0.426-1,1.124-1,1.917
	s0.397,1.491,1,1.917v11.583c0,0.47,0.381,0.85,0.85,0.85h8.994c0.47,0,0.85-0.38,0.85-0.85V47.016c0.604-0.426,1-1.125,1-1.918
	s-0.396-1.492-1-1.918V32.019c0.604-0.426,1-1.125,1-1.918s-0.396-1.492-1-1.918V17.019C42.148,16.593,42.545,15.894,42.545,15.101z
	 M32.201,14.451h7.994c0.358,0,0.65,0.292,0.65,0.65s-0.292,0.65-0.65,0.65h-7.994c-0.358,0-0.65-0.292-0.65-0.65
	S31.843,14.451,32.201,14.451z M40.846,30.101c0,0.358-0.292,0.65-0.65,0.65h-7.994c-0.358,0-0.65-0.292-0.65-0.65
	s0.292-0.65,0.65-0.65h7.994C40.554,29.451,40.846,29.743,40.846,30.101z M40.846,45.098c0,0.358-0.292,0.65-0.65,0.65h-7.994
	c-0.358,0-0.65-0.292-0.65-0.65s0.292-0.65,0.65-0.65h7.994C40.554,44.447,40.846,44.739,40.846,45.098z M39.846,42.748h-7.294
	V32.451h7.294V42.748z M39.846,27.751h-7.294v-10.3h7.294V27.751z M39.846,57.748h-7.294V47.447h7.294V57.748z M28.552,19.101
	c0-1.296-1.054-2.35-2.35-2.35h-8c-1.296,0-2.35,1.054-2.35,2.35c0,0.792,0.397,1.492,1,1.917v11.165c-0.603,0.426-1,1.125-1,1.917
	s0.397,1.492,1,1.917v11.162c-0.603,0.426-1,1.124-1,1.917s0.397,1.491,1,1.917v7.583c0,0.47,0.381,0.85,0.85,0.85h9
	c0.469,0,0.85-0.38,0.85-0.85v-7.583c0.603-0.426,1-1.124,1-1.917s-0.397-1.491-1-1.917V36.019c0.603-0.426,1-1.125,1-1.917
	s-0.397-1.492-1-1.917V21.019C28.155,20.593,28.552,19.894,28.552,19.101z M18.202,18.451h8c0.358,0,0.65,0.292,0.65,0.65
	s-0.292,0.65-0.65,0.65h-8c-0.358,0-0.65-0.292-0.65-0.65S17.844,18.451,18.202,18.451z M26.852,34.101
	c0,0.358-0.292,0.65-0.65,0.65h-8c-0.358,0-0.65-0.292-0.65-0.65s0.292-0.65,0.65-0.65h8C26.561,33.451,26.852,33.743,26.852,34.101
	z M26.852,49.098c0,0.358-0.292,0.65-0.65,0.65h-8c-0.358,0-0.65-0.292-0.65-0.65s0.292-0.65,0.65-0.65h8
	C26.561,48.447,26.852,48.739,26.852,49.098z M25.852,46.748h-7.3V36.451h7.3V46.748z M25.852,31.751h-7.3v-10.3h7.3V31.751z
	 M25.852,57.748h-7.3v-6.301h7.3V57.748z M55.346,37.18V26.019c0.604-0.426,1-1.125,1-1.918c0-1.296-1.054-2.35-2.35-2.35h-8
	c-1.296,0-2.35,1.054-2.35,2.35c0,0.793,0.396,1.492,1,1.918V37.18c-0.604,0.426-1,1.125-1,1.918s0.396,1.492,1,1.918v17.582
	c0,0.47,0.38,0.85,0.85,0.85h9c0.47,0,0.85-0.38,0.85-0.85V41.016c0.604-0.426,1-1.125,1-1.918S55.949,37.605,55.346,37.18z
	 M45.346,39.098c0-0.358,0.292-0.65,0.65-0.65h8c0.358,0,0.65,0.292,0.65,0.65s-0.292,0.65-0.65,0.65h-8
	C45.638,39.748,45.346,39.456,45.346,39.098z M46.346,26.451h7.301v10.297h-7.301V26.451z M45.996,23.451h8
	c0.358,0,0.65,0.292,0.65,0.65s-0.292,0.65-0.65,0.65h-8c-0.358,0-0.65-0.292-0.65-0.65S45.638,23.451,45.996,23.451z
	 M53.646,57.748h-7.301V41.447h7.301V57.748z"/>
</svg>
