<?xml version="1.0" encoding="utf-8"?>
<!-- Generator: Adobe Illustrator 16.0.0, SVG Export Plug-In . SVG Version: 6.00 Build 0)  -->
<!DOCTYPE svg PUBLIC "-//W3C//DTD SVG 1.1//EN" "http://www.w3.org/Graphics/SVG/1.1/DTD/svg11.dtd">
<svg version="1.1" id="Layer_1" xmlns="http://www.w3.org/2000/svg" xmlns:xlink="http://www.w3.org/1999/xlink" x="0px" y="0px"
	 width="72px" height="72px" viewBox="0 0 72 72" enable-background="new 0 0 72 72" xml:space="preserve">
<path fill="#444444" d="M57.957,38.893c0.436-0.418,0.188-1.156-0.411-1.229c-0.366-0.042-8.668-0.971-17.997,1.792
	c0.698-0.636,1.383-1.282,2.037-1.937c9.02-9.018,13.451-19.465,13.494-19.571c0.246-0.591-0.35-1.184-0.936-0.938
	c-0.105,0.045-10.555,4.477-19.567,13.498c-0.653,0.651-1.297,1.333-1.931,2.03c2.762-9.329,1.832-17.623,1.789-17.989
	c-0.033-0.274-0.221-0.507-0.483-0.594c-0.263-0.089-0.552-0.019-0.744,0.183c-0.269,0.279-6.613,6.957-9.936,16.864
	c-0.234,0.7-0.449,1.417-0.65,2.144c-1.974-6.874-6.072-11.576-6.263-11.792c-0.366-0.413-1.045-0.272-1.216,0.253
	c-0.098,0.3-2.363,7.413-0.712,15.388c1.371,6.625,5.085,11.717,6.352,13.306l-6.737,6.738c-0.452,0.452-0.126,1.221,0.505,1.221
	c0.183,0,0.366-0.068,0.506-0.209l6.734-6.736c1.583,1.272,6.615,4.961,13.311,6.35c2.119,0.438,4.175,0.602,6.062,0.602
	c5.21,0,9.104-1.238,9.32-1.311c0.246-0.078,0.43-0.283,0.48-0.533c0.053-0.252-0.033-0.513-0.229-0.683
	c-0.213-0.189-4.92-4.292-11.795-6.267c0.73-0.201,1.449-0.416,2.146-0.648C50.997,45.5,57.678,39.158,57.957,38.893z M21.15,48.421
	c-1.538-2.12-4.216-6.397-5.316-11.715c-1.165-5.623-0.248-10.92,0.314-13.316c2.727,3.661,4.897,8.195,5.733,12.906
	C21.884,36.312,21.15,48.406,21.15,48.421z M35.588,31.519c6.625-6.629,14.038-10.724,17.348-12.363
	c-1.64,3.311-5.731,10.726-12.36,17.354c-1.474,1.471-3.069,2.905-4.743,4.258L23.967,48.13l7.366-11.869
	C32.683,34.587,34.115,32.992,35.588,31.519z M23.314,36.358c0.349-1.686,0.792-3.335,1.316-4.9
	c2.399-7.153,6.53-12.684,8.502-15.059c0.281,6.233-0.691,13.313-3.024,19.123c-0.887,1.43-6.613,10.656-7.474,12.042L23.314,36.358
	z M48.708,55.953c-2.396,0.563-7.687,1.477-13.314,0.309c-5.292-1.096-9.58-3.775-11.71-5.313l12.105-0.732
	C40.502,51.049,45.044,53.229,48.708,55.953z M35.734,48.786l-11.202,0.677c1.363-0.846,10.86-6.738,12.038-7.469
	c5.988-2.368,12.906-3.307,19.127-3.026c-2.373,1.97-7.898,6.097-15.063,8.499C39.09,47.984,37.441,48.43,35.734,48.786z"/>
</svg>
