<?xml version="1.0" encoding="utf-8"?>
<!-- Generator: Adobe Illustrator 16.0.0, SVG Export Plug-In . SVG Version: 6.00 Build 0)  -->
<!DOCTYPE svg PUBLIC "-//W3C//DTD SVG 1.1//EN" "http://www.w3.org/Graphics/SVG/1.1/DTD/svg11.dtd">
<svg version="1.1" id="Layer_1" xmlns="http://www.w3.org/2000/svg" xmlns:xlink="http://www.w3.org/1999/xlink" x="0px" y="0px"
	 width="72px" height="72px" viewBox="0 0 72 72" enable-background="new 0 0 72 72" xml:space="preserve">
<path fill="#444444" d="M35.656,34.256V23.512c0-6.393-5.201-11.593-11.594-11.593S12.468,17.12,12.468,23.512v10.744
	c0,6.106,4.749,11.112,10.745,11.55v13.161c0,0.47,0.381,0.85,0.85,0.85s0.85-0.38,0.85-0.85V45.806
	C30.909,45.367,35.656,40.361,35.656,34.256z M24.913,44.106v-7.447l4.249-4.248c0.332-0.332,0.332-0.87,0-1.202
	c-0.332-0.332-0.87-0.333-1.202,0l-3.047,3.046v-4.758l4.249-4.248c0.332-0.332,0.332-0.87,0-1.202s-0.87-0.332-1.202,0
	l-3.047,3.046v-4.655c0-0.469-0.381-0.85-0.85-0.85s-0.85,0.381-0.85,0.85v4.67l-3.062-3.061c-0.333-0.333-0.871-0.333-1.202,0
	c-0.332,0.332-0.332,0.87,0,1.202l4.264,4.263v4.758l-3.062-3.061c-0.333-0.333-0.871-0.333-1.202,0
	c-0.332,0.332-0.332,0.87,0,1.202l4.264,4.263v7.433c-5.059-0.433-9.045-4.682-9.045-9.851V23.512c0-5.455,4.438-9.893,9.894-9.893
	s9.894,4.438,9.894,9.893v10.744C33.956,39.424,29.971,43.673,24.913,44.106z M56.993,28.446c-1.695-1.695-3.95-2.628-6.348-2.628
	c-2.398,0-4.652,0.933-6.349,2.628l-5.746,5.748c-3.294,3.297-3.483,8.54-0.57,12.063l-1.143,1.143
	c-0.16,0.169-3.896,4.216-1.372,11.835c0.118,0.356,0.45,0.583,0.807,0.583c0.088,0,0.179-0.015,0.267-0.044
	c0.446-0.147,0.688-0.628,0.54-1.074c-2.188-6.602,0.862-9.991,0.975-10.112l1.127-1.127c1.605,1.333,3.605,2.06,5.718,2.06
	c2.397,0,4.651-0.935,6.348-2.63l5.747-5.746C60.492,37.644,60.492,31.947,56.993,28.446z M55.792,39.94l-5.746,5.745
	c-1.376,1.375-3.203,2.133-5.146,2.133c-1.657,0-3.228-0.556-4.507-1.569l3.761-3.761h4.46c0.47,0,0.85-0.38,0.85-0.85
	s-0.38-0.85-0.85-0.85h-2.761l2.133-2.133h4.458c0.47,0,0.85-0.38,0.85-0.85s-0.38-0.85-0.85-0.85h-2.758l2.136-2.136
	c0.332-0.332,0.332-0.87,0.001-1.202c-0.332-0.332-0.87-0.332-1.202,0l-2.146,2.145v-2.776c0-0.469-0.38-0.85-0.85-0.85
	s-0.85,0.381-0.85,0.85v4.475l-2.131,2.131l-0.001-2.773c0-0.47-0.38-0.85-0.85-0.85s-0.85,0.381-0.85,0.85l0.001,4.472
	l-3.755,3.754c-2.254-2.854-2.068-7.018,0.563-9.651l5.745-5.747c1.375-1.374,3.202-2.131,5.146-2.131
	c1.943,0,3.771,0.757,5.146,2.13C58.628,32.486,58.628,37.104,55.792,39.94z"/>
</svg>
