<?xml version="1.0" encoding="utf-8"?>
<!-- Generator: Adobe Illustrator 16.0.0, SVG Export Plug-In . SVG Version: 6.00 Build 0)  -->
<!DOCTYPE svg PUBLIC "-//W3C//DTD SVG 1.1//EN" "http://www.w3.org/Graphics/SVG/1.1/DTD/svg11.dtd">
<svg version="1.1" id="Layer_1" xmlns="http://www.w3.org/2000/svg" xmlns:xlink="http://www.w3.org/1999/xlink" x="0px" y="0px"
	 width="72px" height="72px" viewBox="0 0 72 72" enable-background="new 0 0 72 72" xml:space="preserve">
<path fill="#444444" d="M23.979,29.426c-0.568-6.342,4.129-11.965,10.471-12.533c6.338-0.567,11.958,4.13,12.528,10.472
	c0.254,2.832-0.544,5.629-2.235,7.906c0.024,0.188,0.056,0.375,0.056,0.571c0.002,2.384-1.855,4.323-4.139,4.323
	c-1,0-1.967-0.377-2.719-1.063c-0.285-0.261-0.308-0.705-0.047-0.99c0.26-0.287,0.703-0.309,0.989-0.047
	c0.495,0.449,1.125,0.695,1.775,0.695c1.51,0,2.737-1.31,2.737-2.918c0-1.609-1.229-2.919-2.737-2.919
	c-0.543,0-1.066,0.168-1.517,0.488c-0.315,0.226-0.754,0.15-0.979-0.165s-0.15-0.754,0.165-0.978c0.688-0.49,1.493-0.75,2.329-0.75
	c1.492,0,2.791,0.836,3.521,2.076c1.095-1.829,1.594-3.955,1.401-6.105c-0.5-5.571-5.439-9.698-11.005-9.199
	c-5.571,0.5-9.698,5.438-9.199,11.011c0.325,3.626,2.586,6.817,5.902,8.328c0.353,0.161,0.508,0.577,0.348,0.931
	c-0.118,0.254-0.373,0.407-0.639,0.407c-0.098,0-0.197-0.02-0.291-0.063C26.923,37.186,24.349,33.553,23.979,29.426z M42.05,35.844
	c0-0.791-0.514-1.433-1.147-1.433c-0.635,0-1.148,0.642-1.148,1.433s0.514,1.434,1.148,1.434
	C41.536,37.277,42.05,36.635,42.05,35.844z M32.881,33.349c0,0.448,0.364,0.812,0.812,0.812c0.449,0,0.812-0.364,0.812-0.812
	c0-0.449-0.363-0.812-0.812-0.812C33.245,32.537,32.881,32.9,32.881,33.349z M17.835,45.578c-2.222-0.537-3.44-2.133-3.256-4.271
	c0.229-2.656,2.251-4.367,4.074-4.486c0.079-0.006,0.156-0.008,0.232-0.01c-0.137,0.01-0.273,0.026-0.406,0.051
	c-1.489,0.275-2.562,1.813-2.442,3.5c0.058,0.818,0.403,1.566,0.97,2.109c0.637,0.607,1.543,0.952,2.619,0.997
	c4.761,0.199,8.026-4.295,8.163-4.485c0.225-0.316,0.152-0.754-0.163-0.979s-0.753-0.151-0.979,0.162
	c-0.029,0.04-2.971,4.065-6.963,3.901c-1.92-0.082-2.212-1.289-2.249-1.806c-0.076-1.085,0.615-1.894,1.299-2.021
	s1.571,0.099,2.019,0.513c0.28,0.258,0.291,0.488,0.275,0.64c-0.039,0.379,0.233,0.723,0.612,0.77c0.379,0.045,0.727-0.221,0.78-0.6
	c0.011-0.078,0.26-1.933-0.874-3.153c-0.687-0.741-1.692-1.074-2.986-0.988c-1.414,0.093-2.746,0.779-3.752,1.933
	c-0.928,1.067-1.507,2.43-1.628,3.832c-0.192,2.232,0.844,4.914,4.325,5.758c0.056,0.013,0.111,0.02,0.166,0.02
	c0.317,0,0.604-0.216,0.681-0.538C18.443,46.048,18.212,45.669,17.835,45.578z M35.415,48.43c-0.365-0.131-0.766,0.057-0.896,0.422
	c-0.003,0.01-0.365,0.957-1.532,2.033c-1.086,1.002-3.112,2.327-6.593,2.943c-5.188,0.917-6.261-2.102-6.466-3.047
	c-0.446-2.061,0.644-4.67,2.978-5.271c0.077-0.02,0.152-0.037,0.226-0.053c-0.133,0.035-0.263,0.076-0.389,0.126
	c-1.502,0.582-2.347,2.544-1.846,4.286c0.248,0.863,0.795,1.538,1.581,1.945c0.862,0.447,1.957,0.549,3.254,0.299
	c2.728-0.524,4.591-2.586,5.388-5.963c0.575-2.442,0.392-4.705,0.384-4.799c-0.032-0.388-0.373-0.674-0.758-0.641
	c-0.386,0.032-0.673,0.373-0.64,0.758c0.001,0.021,0.172,2.131-0.353,4.357c-0.669,2.839-2.112,4.49-4.287,4.908
	c-1.747,0.336-2.891-0.108-3.221-1.254c-0.293-1.019,0.195-2.277,1.004-2.59c0.649-0.254,1.562-0.195,2.08,0.129
	c0.323,0.201,0.376,0.424,0.389,0.576c0.032,0.381,0.361,0.668,0.744,0.643c0.382-0.024,0.674-0.35,0.656-0.732
	c-0.003-0.053-0.056-0.89-0.475-1.736c1.788-0.894,2.516-1.948,2.549-1.998c0.215-0.323,0.128-0.761-0.194-0.976
	c-0.324-0.215-0.757-0.129-0.972,0.193c-0.005,0.009-0.654,0.908-2.274,1.65c-0.028-0.022-0.049-0.05-0.079-0.071
	c-0.813-0.603-1.862-0.742-3.118-0.42c-1.449,0.375-2.655,1.343-3.396,2.727c-0.685,1.279-0.905,2.811-0.603,4.202
	c0.32,1.473,1.201,2.698,2.479,3.446c0.995,0.582,2.189,0.875,3.565,0.875c0.64-0.002,1.32-0.064,2.038-0.189
	c7.493-1.323,9.135-5.695,9.201-5.88C35.969,48.964,35.78,48.561,35.415,48.43z M54.164,46.023c0.674,1.23,0.912,2.732,0.652,4.123
	c-0.283,1.524-1.137,2.834-2.403,3.688c-1.138,0.764-2.595,1.155-4.269,1.155c-0.438,0-0.893-0.027-1.358-0.081
	c-3.854-0.448-7.154-2.6-9.537-6.223c-1.779-2.701-2.422-5.244-2.448-5.352c-0.094-0.377,0.136-0.757,0.512-0.852
	c0.376-0.092,0.757,0.138,0.85,0.514c0.006,0.023,0.624,2.449,2.278,4.953c2.18,3.289,5.041,5.16,8.508,5.563
	c1.91,0.223,3.529-0.07,4.681-0.844c1.22-0.82,1.655-1.964,1.808-2.779c0.486-2.617-1.121-4.67-2.959-5.143
	c-0.076-0.021-0.151-0.038-0.226-0.053c0.134,0.035,0.263,0.076,0.39,0.125c1.484,0.576,2.344,2.6,1.834,4.328
	c-0.254,0.863-0.803,1.533-1.588,1.935c-0.863,0.44-1.953,0.53-3.244,0.269c-2.562-0.522-4.383-2.465-5.266-5.613
	c-0.643-2.28-0.566-4.387-0.563-4.476c0.001-0.028,0.016-0.053,0.02-0.08c0.009-0.052,0.017-0.101,0.036-0.148
	c0.017-0.043,0.041-0.08,0.065-0.118c0.023-0.035,0.045-0.069,0.074-0.101c0.038-0.041,0.082-0.071,0.129-0.102
	c0.021-0.014,0.035-0.034,0.059-0.046c0.009-0.005,0.02-0.004,0.028-0.008c0.052-0.023,0.107-0.035,0.165-0.046
	c0.035-0.006,0.069-0.016,0.105-0.017c0.017-0.001,0.03-0.009,0.047-0.008c0.04,0.002,0.073,0.02,0.111,0.027
	c0.037,0.008,0.073,0.013,0.108,0.026c0.051,0.02,0.095,0.047,0.139,0.077c0.031,0.021,0.062,0.039,0.089,0.064
	c0.04,0.039,0.071,0.083,0.102,0.129c0.015,0.022,0.036,0.038,0.049,0.063c0.044,0.086,1.178,2.17,4.334,3.046
	c0.077-0.072,0.146-0.149,0.234-0.214c0.813-0.602,1.861-0.742,3.118-0.418C52.248,43.754,53.434,44.689,54.164,46.023z
	 M50.135,46.127c-0.648-0.252-1.563-0.193-2.08,0.129c-0.32,0.202-0.375,0.426-0.389,0.577c-0.031,0.381-0.361,0.667-0.744,0.642
	c-0.381-0.022-0.673-0.35-0.654-0.73c0.001-0.048,0.044-0.744,0.364-1.506c-1.473-0.482-2.541-1.197-3.288-1.867
	c0.296,2.341,1.286,5.93,4.582,6.604c1.731,0.354,2.869-0.08,3.205-1.224C51.434,47.719,50.95,46.441,50.135,46.127z M58.859,38.833
	c-0.307-1.366-1.03-2.62-2.037-3.532c-1.102-1-2.473-1.502-3.862-1.414c-1.294,0.082-2.248,0.542-2.835,1.365
	c-0.967,1.357-0.482,3.165-0.461,3.241c0.102,0.368,0.48,0.587,0.852,0.491c0.369-0.094,0.596-0.469,0.508-0.842
	c-0.035-0.147-0.053-0.377,0.19-0.67c0.392-0.467,1.241-0.802,1.937-0.766c0.871,0.048,1.707,1.047,1.754,2.098
	c0.051,1.178-0.926,1.996-2.68,2.246c-4.412,0.629-5.586-3.783-5.637-3.982c-0.094-0.375-0.473-0.604-0.85-0.512
	c-0.377,0.094-0.606,0.473-0.512,0.85c0.014,0.059,0.371,1.473,1.418,2.794c0.994,1.256,2.801,2.665,5.778,2.241
	c3.729-0.533,3.914-2.965,3.884-3.696c-0.078-1.777-1.488-3.352-3.08-3.439c-0.136-0.007-0.271-0.006-0.41,0.002
	c0.076-0.008,0.152-0.015,0.231-0.021c2.288-0.145,3.998,1.877,4.442,3.854c0.188,0.832,0.555,3.648-2.59,4.901
	c-0.359,0.144-0.535,0.552-0.393,0.912c0.11,0.274,0.373,0.44,0.652,0.44c0.086,0,0.174-0.016,0.261-0.047
	c1.447-0.576,2.521-1.543,3.101-2.799C59.039,41.436,59.156,40.148,58.859,38.833z"/>
</svg>
