<?xml version="1.0" encoding="utf-8"?>
<!-- Generator: Adobe Illustrator 16.0.0, SVG Export Plug-In . SVG Version: 6.00 Build 0)  -->
<!DOCTYPE svg PUBLIC "-//W3C//DTD SVG 1.1//EN" "http://www.w3.org/Graphics/SVG/1.1/DTD/svg11.dtd">
<svg version="1.1" id="Layer_1" xmlns="http://www.w3.org/2000/svg" xmlns:xlink="http://www.w3.org/1999/xlink" x="0px" y="0px"
	 width="72px" height="72px" viewBox="0 0 72 72" enable-background="new 0 0 72 72" xml:space="preserve">
<path fill="#444444" d="M56.579,17.703c-1.394-1.086-3.062-1.66-4.823-1.66c-2.426,0-4.671,1.092-6.168,2.995
	c-0.494-0.879-1.165-1.677-2.009-2.335c-1.393-1.086-3.061-1.66-4.821-1.66c-2.438,0-4.694,1.102-6.192,3.023L20.267,33.837
	c-2.484,3.187-2.115,7.705,0.722,10.458l-8.117,10.407c-0.289,0.37-0.223,0.904,0.147,1.192c0.155,0.121,0.339,0.18,0.522,0.18
	c0.253,0,0.503-0.112,0.671-0.327l8.13-10.424c1.236,0.768,2.634,1.192,4.108,1.192c2.426,0,4.672-1.093,6.17-2.995
	c0.361,0.643,0.818,1.241,1.368,1.774l-8.117,10.407c-0.289,0.37-0.223,0.904,0.147,1.192c0.155,0.121,0.339,0.18,0.522,0.18
	c0.253,0,0.503-0.112,0.671-0.327l8.129-10.423c1.235,0.768,2.632,1.191,4.105,1.191c2.438,0,4.696-1.103,6.195-3.024l12.299-15.771
	C60.603,25.307,59.992,20.364,56.579,17.703z M31.306,42.446c-1.174,1.506-2.943,2.369-4.855,2.369c-1.379,0-2.685-0.45-3.776-1.3
	c-2.673-2.086-3.152-5.959-1.067-8.633l12.299-15.771c1.173-1.505,2.941-2.368,4.852-2.368c1.379,0,2.685,0.45,3.776,1.3
	c2.673,2.085,3.152,5.958,1.067,8.632L31.306,42.446z M56.602,27.675L44.303,43.446c-1.175,1.505-2.944,2.369-4.855,2.369
	c-1.379,0-2.683-0.449-3.772-1.3c-0.865-0.675-1.496-1.538-1.889-2.485l11.156-14.31c1.572-2.017,1.994-4.564,1.379-6.863
	l0.582-0.746c1.174-1.505,2.943-2.368,4.854-2.368c1.38,0,2.687,0.45,3.778,1.3C58.207,21.128,58.687,25.001,56.602,27.675z
	 M52.514,28.466c-0.354,0.456-0.771,0.625-1.203,0.625c-0.788,0-1.632-0.564-2.267-0.988c-1.148-0.767-1.556-0.928-1.742-0.687
	c-0.008,0.01-0.02,0.014-0.028,0.024c-0.228,0.338-0.067,0.665,1.12,1.714c0.861,0.76,2.162,1.908,1.174,3.178
	c-0.355,0.455-0.771,0.625-1.204,0.625c-0.788,0-1.633-0.564-2.268-0.988c-1.151-0.768-1.556-0.927-1.742-0.687
	c-0.023,0.03-0.057,0.045-0.083,0.071c-0.009,0.013-0.011,0.028-0.021,0.041c-0.279,0.358-0.162,0.664,1.087,1.766
	c0.86,0.76,2.162,1.909,1.171,3.178c-0.354,0.455-0.77,0.625-1.202,0.625c-0.788,0-1.633-0.564-2.269-0.988
	c-1.145-0.766-1.552-0.927-1.741-0.687c-0.008,0.01-0.021,0.015-0.028,0.024c-0.227,0.338-0.066,0.667,1.12,1.714
	c0.861,0.76,2.162,1.907,1.174,3.177c-0.355,0.455-0.771,0.625-1.203,0.625c-0.789,0-1.634-0.564-2.269-0.988
	c-1.146-0.765-1.553-0.929-1.739-0.687c-0.288,0.37-0.821,0.436-1.193,0.148c-0.37-0.289-0.437-0.823-0.148-1.193
	c1.216-1.559,2.974-0.384,4.025,0.317c0.284,0.19,0.708,0.473,1.006,0.612c-0.203-0.231-0.545-0.533-0.776-0.737
	c-0.995-0.878-2.659-2.347-1.303-4.086c0.025-0.033,0.062-0.05,0.091-0.079c1.208-1.385,2.905-0.259,3.93,0.425
	c0.285,0.191,0.71,0.475,1.008,0.614c-0.202-0.232-0.545-0.535-0.777-0.74c-0.995-0.878-2.659-2.347-1.302-4.086
	c0.023-0.03,0.057-0.046,0.083-0.072c0.009-0.013,0.011-0.028,0.021-0.041c1.216-1.559,2.976-0.383,4.026,0.319
	c0.284,0.19,0.708,0.473,1.006,0.613c-0.203-0.232-0.545-0.534-0.777-0.739c-0.994-0.878-2.658-2.347-1.302-4.086
	c0.024-0.032,0.06-0.048,0.088-0.076c1.211-1.389,2.907-0.263,3.934,0.422c0.284,0.19,0.708,0.473,1.005,0.612
	c-0.202-0.232-0.544-0.534-0.776-0.739c-0.994-0.877-2.658-2.347-1.303-4.086c0.288-0.37,0.823-0.438,1.193-0.148
	c0.37,0.289,0.437,0.823,0.148,1.193c-0.28,0.359-0.162,0.665,1.086,1.767C52.203,26.049,53.503,27.197,52.514,28.466z
	 M39.513,27.467c-0.354,0.455-0.77,0.625-1.202,0.625c-0.788,0-1.632-0.564-2.266-0.989c-1.146-0.766-1.551-0.926-1.739-0.686
	c-0.007,0.009-0.019,0.013-0.026,0.022c-0.229,0.338-0.072,0.665,1.118,1.715c0.861,0.76,2.162,1.909,1.172,3.178
	c-0.355,0.455-0.771,0.625-1.203,0.625c-0.789,0-1.633-0.564-2.268-0.988c-1.148-0.766-1.554-0.928-1.742-0.687
	c-0.023,0.03-0.057,0.045-0.083,0.072c-0.009,0.013-0.011,0.028-0.021,0.041c-0.28,0.358-0.162,0.664,1.086,1.766
	c0.861,0.76,2.162,1.908,1.172,3.177c-0.355,0.456-0.771,0.625-1.203,0.625c-0.789,0-1.633-0.564-2.268-0.988
	c-1.147-0.767-1.554-0.928-1.741-0.687c-0.008,0.01-0.02,0.015-0.028,0.024c-0.227,0.338-0.066,0.666,1.12,1.713
	c0.861,0.759,2.162,1.908,1.172,3.177c-0.355,0.455-0.771,0.625-1.203,0.625c-0.789,0-1.633-0.564-2.268-0.988
	c-1.149-0.767-1.556-0.923-1.742-0.687c-0.289,0.371-0.823,0.437-1.193,0.147c-0.37-0.288-0.436-0.822-0.147-1.192
	c1.217-1.56,2.976-0.384,4.026,0.317c0.285,0.19,0.709,0.474,1.007,0.613c-0.203-0.232-0.545-0.534-0.777-0.739
	c-0.994-0.877-2.659-2.346-1.302-4.085c0.024-0.031,0.059-0.048,0.086-0.075c1.211-1.391,2.91-0.263,3.935,0.421
	c0.285,0.19,0.708,0.473,1.006,0.613c-0.203-0.232-0.545-0.534-0.777-0.739c-0.994-0.878-2.659-2.347-1.302-4.086
	c0.024-0.03,0.058-0.046,0.084-0.072c0.009-0.013,0.01-0.028,0.02-0.04c1.216-1.557,2.976-0.383,4.026,0.319
	c0.285,0.19,0.708,0.473,1.006,0.612c-0.203-0.232-0.545-0.534-0.777-0.739c-0.995-0.877-2.659-2.347-1.302-4.086
	c0.023-0.03,0.056-0.045,0.083-0.071c1.212-1.397,2.91-0.269,3.936,0.417c0.284,0.19,0.708,0.473,1.005,0.612
	c-0.202-0.232-0.544-0.534-0.776-0.739c-0.993-0.877-2.654-2.347-1.299-4.085c0.289-0.37,0.822-0.437,1.193-0.148
	c0.37,0.289,0.437,0.823,0.148,1.193c-0.28,0.359-0.163,0.665,1.084,1.767C39.203,25.049,40.503,26.198,39.513,27.467z"/>
</svg>
