<?xml version="1.0" encoding="utf-8"?>
<!-- Generator: Adobe Illustrator 16.0.0, SVG Export Plug-In . SVG Version: 6.00 Build 0)  -->
<!DOCTYPE svg PUBLIC "-//W3C//DTD SVG 1.1//EN" "http://www.w3.org/Graphics/SVG/1.1/DTD/svg11.dtd">
<svg version="1.1" id="Layer_1" xmlns="http://www.w3.org/2000/svg" xmlns:xlink="http://www.w3.org/1999/xlink" x="0px" y="0px"
	 width="72px" height="72px" viewBox="0 0 72 72" enable-background="new 0 0 72 72" xml:space="preserve">
<path fill="#444444" d="M54.148,25.982l-0.135-0.111l0.029-0.171c0.061-0.344,0.09-0.694,0.09-1.041c0-3.309-2.691-6-6-6
	c-0.464,0-0.928,0.054-1.379,0.16l-0.191,0.045l-0.117-0.158c-2.452-3.305-6.221-5.201-10.339-5.201
	c-4.118,0-7.886,1.895-10.338,5.201l-0.117,0.158l-0.192-0.045c-0.451-0.106-0.914-0.16-1.379-0.16c-3.309,0-5.999,2.691-5.999,6
	c0,0.345,0.034,0.695,0.094,1.041l0.037,0.171l-0.119,0.111c-2.175,1.801-3.393,4.451-3.393,7.269c0,5.204,4.291,9.437,9.494,9.437
	l1.839,0.015C26.415,42.824,30,44.213,30,55.359v0.229c0,0.251-0.123,0.488,0.069,0.648c2.045,1.709,3.92,2.576,6.036,2.576
	c2.116,0,4.386-0.867,6.431-2.576C42.729,56.076,43,55.839,43,55.588v-0.229c0-10.957,2.807-12.359,3.521-12.36h1.611
	c5.204,0,9.438-4.39,9.438-9.593C57.57,30.587,56.322,27.783,54.148,25.982z M44.375,42.041c-0.34,0.323-0.658,0.712-0.95,1.152
	C41.843,45.588,42,49.573,41,55.04v0.147l-0.025,0.088c-1.594,1.226-3.106,1.847-4.675,1.847c-1.569,0-2.977-0.621-4.571-1.847
	L32,55.186V55.04c0-5.435-1.237-9.41-2.818-11.813c-0.298-0.455-1.013-0.852-1.357-1.178l-0.321-0.305l0.401-0.186
	c1.187-0.549,2.223-1.326,3.08-2.311l0.313-0.361l0.189,0.434c0.568,1.309,1.317,3.275,1.655,5.238
	C33.187,44.82,33.411,45,33.766,45c0.007,0,0.015,0,0.022,0c0.147,0,0.275-0.093,0.36-0.214c0.086-0.122,0.119-0.257,0.094-0.404
	c-0.355-2.058-1.117-4.083-1.694-5.419l-0.244-0.564l0.596,0.156c1.04,0.271,2.118,0.41,3.205,0.41c1.084,0,2.163-0.139,3.206-0.413
	l0.596-0.157l-0.244,0.566c-0.576,1.337-1.34,3.363-1.694,5.421c-0.024,0.147,0.009,0.296,0.095,0.418
	c0.086,0.121,0.215,0.202,0.457,0.236c0.273,0,0.504-0.195,0.551-0.464c0.341-1.971,1.089-3.939,1.656-5.246l0.189-0.436
	l0.313,0.357c0.84,0.967,1.899,1.763,3.064,2.302l0.4,0.187L44.375,42.041z M48.132,40.998L46.352,41
	c-0.031,0.003-0.209,0.032-0.209,0.032l-0.066-0.019c-2.068-0.552-3.861-1.931-4.92-3.785l-0.246-0.424l-0.453,0.187
	c-1.385,0.569-2.85,0.856-4.354,0.856c-1.507,0-2.972-0.287-4.353-0.856l-0.455-0.185l-0.244,0.424
	c-1.059,1.854-2.853,3.233-4.921,3.785l-0.066,0.018l-0.067-0.012c-0.055-0.012-0.097-0.021-0.204-0.021h-1.719
	c-4.271,0-7.745-3.476-7.745-7.748c0-2.524,1.238-4.9,3.313-6.352c0.304-0.212,0.433-0.592,0.322-0.946
	c-0.132-0.419-0.198-0.855-0.198-1.295c0-2.376,1.933-4.309,4.309-4.309c0.552,0,1.09,0.104,1.598,0.308
	c0.101,0.04,0.206,0.06,0.313,0.06c0.289,0,0.555-0.145,0.712-0.387c2.072-3.216,5.588-5.136,9.406-5.136s7.335,1.92,9.406,5.136
	c0.156,0.242,0.422,0.387,0.711,0.387c0.107,0,0.213-0.021,0.313-0.061c0.51-0.204,1.047-0.307,1.597-0.307
	c2.377,0,4.309,1.933,4.309,4.309c0,0.44-0.065,0.875-0.196,1.295c-0.112,0.353,0.017,0.734,0.321,0.946
	c2.074,1.453,3.313,3.827,3.313,6.351C55.877,37.523,52.402,40.998,48.132,40.998z"/>
</svg>
