<?xml version="1.0" encoding="utf-8"?>
<!-- Generator: Adobe Illustrator 16.0.0, SVG Export Plug-In . SVG Version: 6.00 Build 0)  -->
<!DOCTYPE svg PUBLIC "-//W3C//DTD SVG 1.1//EN" "http://www.w3.org/Graphics/SVG/1.1/DTD/svg11.dtd">
<svg version="1.1" id="Layer_1" xmlns="http://www.w3.org/2000/svg" xmlns:xlink="http://www.w3.org/1999/xlink" x="0px" y="0px"
	 width="72px" height="72px" viewBox="0 0 72 72" enable-background="new 0 0 72 72" xml:space="preserve">
<path fill="#444444" d="M54.412,35.675c0,0.614-0.498,1.111-1.111,1.111s-1.111-0.498-1.111-1.111c0-0.613,0.498-1.111,1.111-1.111
	S54.412,35.062,54.412,35.675z M61.756,38.999l-0.747,1.399c-2.403,4.028-5.923,6.765-10.456,7.918
	c-1.713,0.438-3.576,0.682-5.539,0.682c-2.981,0-6.139-0.482-9.377-1.46c-0.73,0.751-1.524,1.353-2.429,1.831
	c-1.165,0.615-2.46,1.008-3.96,1.195L28.5,50.66l-0.161-0.737c-0.315-1.442-0.763-2.755-1.33-3.899
	c-0.534-1.072-1.159-1.963-1.858-2.648c-1.881-0.74-3.514-1.273-5.1-1.654c-0.185,0.235-0.374,0.479-0.563,0.728
	c-1.875,2.442-3.814,4.97-7.805,5.366l-1.16,0.115L10.8,46.8c0.251-1.024,0.507-1.95,0.746-2.817
	c0.609-2.205,1.117-4.045,1.117-5.793c0-1.747-0.508-3.586-1.096-5.717c-0.261-0.944-0.516-1.87-0.767-2.893l-0.277-1.13l1.16,0.115
	c3.995,0.396,5.933,2.928,7.807,5.376l0.46,0.598c3.116-1.54,6.281-2.801,9.408-3.744c1.468-2.365,2.407-4.988,2.987-8.462
	l0.172-1.027l0.96,0.401c2.794,1.164,4.32,3.115,5.798,5.003c0.572,0.731,1.16,1.48,1.789,2.106c0.248-0.039,0.574-0.049,0.9-0.05
	c7.026-0.001,12.982,2.035,17.789,6.067l0.867,0.712l-1.089,0.562c-0.854,0.537-2.418,1.893-3.174,2.893H61.756z M31.583,30.173
	c2.51-0.642,4.979-1.067,7.337-1.266c-0.316-0.381-0.628-0.777-0.941-1.178c-1.158-1.482-2.354-3.009-4.204-4.043
	C33.288,26.141,32.569,28.267,31.583,30.173z M33.847,46.966c-1.837-0.649-3.594-1.411-5.295-2.149l-0.413-0.18
	c0.121,0.215,0.237,0.434,0.348,0.657c0.526,1.058,0.958,2.241,1.286,3.521c0.987-0.183,1.883-0.486,2.664-0.898
	C32.937,47.652,33.411,47.332,33.847,46.966z M58.702,41h-4.515l0.207-1.016c0.36-1.727,1.479-3.176,3.418-4.509
	c-4.345-3.312-9.65-5.021-15.771-5.021c-8.604,0.022-16.68,3.199-21.952,5.876l-0.594,0.295l-0.418-0.522
	c-0.317-0.391-0.608-0.772-0.9-1.155c-1.441-1.884-2.93-3.831-5.459-4.52c0.147,0.557,0.295,1.093,0.438,1.607
	c0.623,2.258,1.16,4.203,1.16,6.156c0,1.951-0.537,3.897-1.158,6.151c-0.144,0.519-0.292,1.054-0.439,1.613
	c2.528-0.69,4.017-2.631,5.457-4.511c0.304-0.394,0.596-0.774,0.914-1.164l0.32-0.396l0.498,0.109
	c3.399,0.754,6.399,2.053,9.299,3.311c1.994,0.863,4.049,1.754,6.208,2.451c3.274,1.057,6.591,1.615,9.585,1.615
	c1.286,0,2.521-0.098,3.697-0.262c0.496-0.084,0.99-0.225,1.476-0.35C53.424,45.932,56.41,44,58.702,41z M48.754,39.275L50.12,39.3
	l-0.655,1.194c-0.512,0.933-1.229,1.722-2.131,2.347c-1.068,0.74-2.316,1.188-3.607,1.294c-0.194,0.016-0.393,0.024-0.588,0.024
	c-1.127,0-2.223-0.273-3.166-0.79c-0.852-0.467-1.57-1.12-2.136-1.938l-0.358-0.521l0.406-0.481c1.016-1.199,2.43-1.759,4.449-1.759
	c1.089,0,2.264,0.157,3.398,0.31C46.752,39.116,47.799,39.257,48.754,39.275z M47.186,40.82c-0.553-0.057-1.106-0.131-1.658-0.205
	c-1.059-0.141-2.149-0.286-3.127-0.286c-1.227,0-2.111,0.228-2.769,0.711c0.331,0.354,0.712,0.651,1.134,0.881
	c0.699,0.386,1.52,0.587,2.371,0.587c0.15,0,0.303-0.006,0.453-0.019c1.01-0.085,1.98-0.431,2.807-1.003
	C46.682,41.288,46.947,41.064,47.186,40.82z"/>
</svg>
