<?xml version="1.0" encoding="utf-8"?>
<!-- Generator: Adobe Illustrator 16.0.0, SVG Export Plug-In . SVG Version: 6.00 Build 0)  -->
<!DOCTYPE svg PUBLIC "-//W3C//DTD SVG 1.1//EN" "http://www.w3.org/Graphics/SVG/1.1/DTD/svg11.dtd">
<svg version="1.1" id="Layer_1" xmlns="http://www.w3.org/2000/svg" xmlns:xlink="http://www.w3.org/1999/xlink" x="0px" y="0px"
	 width="72px" height="72px" viewBox="0 0 72 72" enable-background="new 0 0 72 72" xml:space="preserve">
<path fill="#444444" d="M26.757,24.762c0-0.397,0.322-0.718,0.718-0.718s0.718,0.321,0.718,0.718c0,0.396-0.321,0.718-0.718,0.718
	S26.757,25.159,26.757,24.762z M28.893,32.569c0.396,0,0.718-0.321,0.718-0.718s-0.321-0.718-0.718-0.718s-0.718,0.322-0.718,0.718
	S28.497,32.569,28.893,32.569z M35.982,33.987c0.396,0,0.718-0.321,0.718-0.718s-0.322-0.718-0.718-0.718s-0.718,0.322-0.718,0.718
	S35.585,33.987,35.982,33.987z M37.4,41.075c0.396,0,0.718-0.321,0.718-0.718s-0.321-0.719-0.718-0.719s-0.719,0.322-0.719,0.719
	S37.004,41.075,37.4,41.075z M44.488,41.075c0.396,0,0.718-0.321,0.718-0.718s-0.321-0.719-0.718-0.719s-0.719,0.322-0.719,0.719
	S44.092,41.075,44.488,41.075z M45.906,46.747c0.396,0,0.718-0.321,0.718-0.718s-0.321-0.719-0.718-0.719s-0.719,0.322-0.719,0.719
	S45.51,46.747,45.906,46.747z M52.996,46.729c-0.396,0-0.719,0.322-0.719,0.719s0.322,0.718,0.719,0.718s0.718-0.321,0.718-0.718
	S53.393,46.729,52.996,46.729z M56.559,54.139c-1.59,2.473-4.275,3.948-7.184,3.948c-1.727,0-3.492-0.508-5.244-1.509
	c-1.174-0.604-2.354-1.242-3.717-2.016l-0.635-0.361l-0.334,0.65c-0.127,0.248-0.367,0.401-0.629,0.401
	c-0.396,0-0.717-0.321-0.717-0.718c0-0.12,0.047-0.247,0.146-0.391l0.417-0.606l-0.627-0.386c-3.451-2.127-6.397-4.334-9.006-6.748
	L28.484,45.9l-0.471,0.572c-0.084,0.103-0.265,0.272-0.538,0.272c-0.396,0-0.718-0.322-0.718-0.718c0-0.254,0.141-0.428,0.259-0.529
	l0.565-0.482l-0.519-0.535c-2.257-2.326-4.35-4.924-6.399-7.939L20.3,36.038l-0.777,0.481c-0.084,0.112-0.268,0.303-0.555,0.303
	c-0.396,0-0.718-0.322-0.718-0.718c0-0.322,0.227-0.593,0.563-0.673l0.831-0.456l-0.399-0.599c-1.28-2.025-2.502-4.124-3.735-6.418
	c-3.012-5.186-1.135-10.361,2.159-12.601c0.825-0.562,2.191-1.231,4.011-1.231c1.927,0,4.84,0.784,7.777,4.52
	c0.858,0.958,1.636,1.812,2.378,2.615l0.416,0.45l0.501-0.354c0.143-0.101,0.272-0.149,0.395-0.149c0.396,0,0.718,0.322,0.718,0.718
	c0,0.143-0.058,0.289-0.173,0.435l-0.379,0.477l0.422,0.441c2.259,2.366,4.316,4.376,6.673,6.518l0.406,0.369l0.455-0.308
	c0.142-0.096,0.268-0.142,0.385-0.142c0.396,0,0.719,0.321,0.719,0.717c0,0.095-0.031,0.197-0.098,0.322l-0.258,0.488l0.414,0.365
	c0.924,0.815,1.877,1.645,2.895,2.53l0.482,0.422c0.914,0.796,1.862,1.624,2.871,2.51l0.504,0.443l0.465-0.486
	c0.139-0.145,0.319-0.225,0.514-0.225c0.396,0,0.719,0.322,0.719,0.717c0,0.148-0.061,0.299-0.181,0.445l-0.423,0.52l0.5,0.445
	c0.828,0.735,1.688,1.508,2.613,2.35C58.747,45.178,58.785,50.676,56.559,54.139z M52.546,42.448
	c-3.315-3.007-5.926-5.275-8.021-7.098c-5.354-4.66-9.196-8.007-16.167-15.779c-2.596-3.305-5.087-4-6.717-4
	c-1.132,0-2.227,0.337-3.165,0.974c-2.762,1.881-4.305,6.267-1.725,10.691c7.582,14.112,14.665,21.2,28.063,28.081
	c1.528,0.875,3.069,1.319,4.576,1.319c2.416,0,4.644-1.224,5.959-3.271C57.296,50.334,57.186,45.783,52.546,42.448z M50.161,52.402
	c-0.767,0-2.354-0.275-3.218-0.77l-0.185-0.102C34.084,45.023,27.703,38.633,20.501,25.23l-0.075-0.137
	c-0.622-1.063-0.888-2.15-0.749-3.059c0.059-0.39-0.211-0.757-0.6-0.816c-0.038-0.006-0.076-0.009-0.114-0.009
	c-0.354,0-0.651,0.256-0.705,0.61c-0.19,1.25,0.129,2.628,0.922,3.988l0.066,0.118c7.356,13.689,13.876,20.22,26.835,26.872
	l0.162,0.087c1.136,0.649,3.009,0.952,3.917,0.952c0.396,0,0.72-0.32,0.72-0.716S50.557,52.402,50.161,52.402z"/>
</svg>
