<?xml version="1.0" encoding="utf-8"?>
<!-- Generator: Adobe Illustrator 16.0.0, SVG Export Plug-In . SVG Version: 6.00 Build 0)  -->
<!DOCTYPE svg PUBLIC "-//W3C//DTD SVG 1.1//EN" "http://www.w3.org/Graphics/SVG/1.1/DTD/svg11.dtd">
<svg version="1.1" id="Layer_1" xmlns="http://www.w3.org/2000/svg" xmlns:xlink="http://www.w3.org/1999/xlink" x="0px" y="0px"
	 width="72px" height="72px" viewBox="0 0 72 72" enable-background="new 0 0 72 72" xml:space="preserve">
<path fill="#444444" d="M61.982,29.618c0.122-0.2,0.251-0.393,0.35-0.617c0.578-1.302,0.681-2.822,0.289-4.282
	c-0.703-2.629-2.897-4.537-5.218-4.537c-0.364,0-0.727,0.047-1.077,0.142l-22.364,5.992l-11.709-7.592
	c-0.742-0.481-1.623-0.736-2.549-0.736c-2.075,0-4.153,1.216-5.424,3.175c-1.025,1.582-1.404,3.463-1.04,5.164
	c0.285,1.33,1.018,2.435,2.064,3.112l2.119,1.374c-0.798,0.33-1.472,0.876-1.971,1.595c-0.923,1.152-1.295,2.922-0.883,4.76
	l-1.224,0.328c-1.578,0.423-2.765,1.65-3.358,3.236c-0.026,0.06-0.063,0.107-0.088,0.169c-0.5,1.246-0.561,2.728-0.174,4.174
	c0.45,1.679,1.461,3.054,2.692,3.83c0.919,0.675,1.976,1.082,3.067,1.082c0.395,0,0.787-0.052,1.166-0.153l21.306-5.708
	l14.104,9.145c0.743,0.482,1.626,0.737,2.553,0.737c2.074,0,4.152-1.217,5.422-3.177c1.915-2.955,1.456-6.668-1.023-8.275
	l-4.443-2.881l4.4-1.179c1.207-0.322,2.246-1.148,2.927-2.328c0.869-1.504,1.088-3.409,0.601-5.225
	C62.371,30.476,62.188,30.039,61.982,29.618z M16.241,36.722c-0.32-1.74,0.287-3.43,1.456-4.164c0.11-0.021,0.22-0.044,0.333-0.044
	c1.24,0,2.512,1.236,3.054,2.911L16.241,36.722z M22.443,35.06c-0.441-1.415-1.29-2.587-2.322-3.276l7.598-2.036
	c0.025,0.046,0.038,0.096,0.072,0.139c0.011,0.014,1.1,1.444,0.84,3.516L22.443,35.06z M29.427,29.291l1.317-0.353
	c0.113,0.157,0.823,1.214,0.621,2.726c-0.051,0.38,0.164,0.723,0.495,0.874l-1.504,0.403C30.4,31.234,29.813,29.939,29.427,29.291z
	 M17.221,28.656c0.842-0.483,1.97-1.602,1.823-3.385c-0.033-0.408-0.396-0.707-0.798-0.677c-0.407,0.034-0.71,0.391-0.677,0.798
	c0.119,1.442-1.12,2.01-1.266,2.072c-0.157,0.064-0.269,0.183-0.348,0.318c-0.639-0.543-0.936-1.261-1.054-1.81
	c-0.266-1.244,0.034-2.696,0.804-3.883c0.946-1.458,2.516-2.401,3.998-2.401c0.605,0,1.151,0.156,1.624,0.462l10.423,6.758
	L19.68,30.143c1.125-1.017,2.793-2.971,3.09-5.816c0.049-0.467-0.29-0.885-0.757-0.934c-0.478-0.052-0.885,0.29-0.934,0.757
	c-0.28,2.68-2.145,4.437-2.962,5.087L17.221,28.656z M16.83,46.35c-0.346,0.862-0.936,1.444-1.662,1.639
	c-1.57,0.427-3.371-1.103-3.961-3.309c-0.302-1.128-0.261-2.267,0.116-3.207c0.346-0.862,0.936-1.444,1.661-1.639
	c0.176-0.047,0.358-0.071,0.542-0.071c1.458,0,2.896,1.422,3.42,3.38C17.247,44.271,17.206,45.409,16.83,46.35z M52.696,40.488
	c-0.094,0.482-0.384,1.331-1.316,1.814c-0.362,0.188-0.504,0.635-0.316,0.998c0.132,0.254,0.391,0.399,0.658,0.399
	c0.114,0,0.23-0.027,0.34-0.083c1.15-0.597,1.68-1.533,1.932-2.288l0.48,0.312c-0.099,0.413-0.548,1.895-2.1,2.958
	c-0.337,0.231-0.423,0.691-0.192,1.028c0.144,0.209,0.375,0.322,0.611,0.322c0.144,0,0.289-0.042,0.417-0.13
	c1.576-1.081,2.262-2.5,2.552-3.344l2.324,1.507c1.665,1.08,1.904,3.793,0.523,5.926c-0.946,1.458-2.515,2.4-3.996,2.4
	c-0.606,0-1.153-0.155-1.627-0.463l-12.818-8.312l12.189-3.266L52.696,40.488z M60.424,35.319c-0.321,0.556-0.91,1.273-1.894,1.536
	l-11.12,2.979c0.173-0.959,0.05-2.452-1.315-3.493c-0.325-0.248-0.789-0.185-1.037,0.14c-0.247,0.325-0.185,0.789,0.141,1.037
	c1.153,0.879,0.742,2.181,0.692,2.326c-0.048,0.135-0.042,0.27-0.015,0.399l-0.468,0.126c0.212-1.077,0.096-2.808-1.476-4.004
	c-0.327-0.248-0.791-0.183-1.037,0.141c-0.247,0.325-0.185,0.789,0.141,1.037c1.435,1.092,0.873,2.761,0.847,2.837
	c-0.049,0.135-0.043,0.271-0.015,0.401l-10.586,2.837c0.211-1.077,0.096-2.807-1.473-4.004c-0.324-0.248-0.789-0.186-1.037,0.139
	c-0.248,0.325-0.186,0.789,0.139,1.037c1.428,1.09,0.875,2.75,0.845,2.837c-0.049,0.136-0.043,0.272-0.015,0.403l-13.93,3.732
	c0.166-0.26,0.316-0.538,0.439-0.844c0.499-1.246,0.561-2.728,0.173-4.174c-0.493-1.842-1.665-3.311-3.059-4.03l4.313-1.155
	c0.444,0.694,1.284,2.308,1.048,4.281c-0.049,0.405,0.241,0.773,0.646,0.822c0.03,0.004,0.06,0.006,0.089,0.006
	c0.369,0,0.688-0.276,0.733-0.652c0.253-2.112-0.47-3.854-1.034-4.854l1.18-0.316c0.241,0.35,1.041,1.673,0.789,3.538
	c-0.054,0.405,0.23,0.777,0.635,0.832c0.033,0.004,0.067,0.007,0.1,0.007c0.365,0,0.682-0.271,0.732-0.642
	c0.254-1.894-0.34-3.353-0.773-4.132l10.557-2.828c0.449,0.717,1.381,2.548,1.049,5.021c-0.054,0.405,0.23,0.777,0.635,0.832
	c0.033,0.004,0.066,0.007,0.099,0.007c0.365,0,0.683-0.271,0.732-0.642c0.343-2.556-0.448-4.545-1.035-5.615l1.19-0.319
	c0.254,0.373,1.042,1.703,0.791,3.574c-0.054,0.405,0.23,0.777,0.635,0.832c0.033,0.004,0.066,0.007,0.1,0.007
	c0.365,0,0.683-0.271,0.732-0.642c0.256-1.907-0.339-3.377-0.776-4.168l11.365-3.044c0.297,0.395,0.733,1.18,0.468,2.193
	c-0.104,0.395,0.134,0.799,0.528,0.903c0.063,0.016,0.126,0.024,0.188,0.024c0.328,0,0.628-0.22,0.715-0.553
	c0.328-1.255-0.014-2.275-0.406-2.967l0.554-0.148c0.242,0.352,1.039,1.676,0.79,3.541c-0.054,0.405,0.23,0.777,0.636,0.832
	c0.033,0.004,0.066,0.006,0.099,0.006c0.365,0,0.683-0.27,0.732-0.642c0.253-1.894-0.342-3.354-0.774-4.134l2.677-0.717
	c0.235-0.063,0.479-0.095,0.725-0.095c1.733,0,3.464,1.581,4.024,3.676C61.22,32.748,61.06,34.219,60.424,35.319z M60.889,27.981
	c-1.094-1.216-2.549-1.973-4.06-1.973c-0.394,0-0.785,0.051-1.164,0.152l-22.773,6.101c0.078-0.109,0.14-0.231,0.159-0.373
	c0.203-1.519-0.242-2.718-0.604-3.407l12.465-3.339c0.186,0.341,0.454,1.004,0.337,1.874c-0.063,0.465,0.265,0.893,0.729,0.956
	c0.039,0.005,0.077,0.008,0.114,0.008c0.419,0,0.784-0.31,0.842-0.737c0.144-1.068-0.097-1.944-0.358-2.546l10.189-2.73
	c0.207-0.056,0.422-0.084,0.638-0.084c1.539,0,3.076,1.409,3.575,3.277C61.233,26.109,61.188,27.113,60.889,27.981z M13.215,40.691
	c-0.715,0.191-1.281,0.727-1.593,1.506c-0.287,0.719-0.323,1.571-0.1,2.401c0.413,1.537,1.589,2.61,2.861,2.61
	c0.189,0,0.378-0.025,0.56-0.074c0.715-0.191,1.281-0.727,1.593-1.506c0.287-0.719,0.323-1.571,0.1-2.401
	C16.162,41.462,14.619,40.314,13.215,40.691z M15.422,45.184c-0.168,0.42-0.448,0.701-0.789,0.793
	c-0.76,0.201-1.657-0.591-1.951-1.688c-0.154-0.573-0.134-1.173,0.055-1.646c0.168-0.42,0.448-0.701,0.789-0.793
	c0.081-0.021,0.165-0.032,0.25-0.032c0.707,0,1.438,0.74,1.702,1.721C15.631,44.111,15.611,44.711,15.422,45.184z"/>
</svg>
