<?xml version="1.0" encoding="utf-8"?>
<!-- Generator: Adobe Illustrator 16.0.0, SVG Export Plug-In . SVG Version: 6.00 Build 0)  -->
<!DOCTYPE svg PUBLIC "-//W3C//DTD SVG 1.1//EN" "http://www.w3.org/Graphics/SVG/1.1/DTD/svg11.dtd">
<svg version="1.1" id="Layer_1" xmlns="http://www.w3.org/2000/svg" xmlns:xlink="http://www.w3.org/1999/xlink" x="0px" y="0px"
	 width="72px" height="72px" viewBox="0 0 72 72" enable-background="new 0 0 72 72" xml:space="preserve">
<path fill="#444444" d="M58.057,22.745c-0.826-1.69-2.558-3.396-4.568-3.396c-0.133,0-0.27,0.008-0.459,0.02
	c-0.012,0.001-0.033,0.017-0.056,0.032c-0.053-0.014-0.101-0.047-0.155-0.047c-0.164,0-0.325,0.066-0.449,0.19
	c-0.643,0.554-11.314,8.742-18.331,14.109c-0.131,0.099-0.215,0.245-0.237,0.409s0.022,0.326,0.123,0.458
	c0.117,0.155,0.297,0.243,0.492,0.243c0.136,0,0.266-0.044,0.375-0.125c13.327-10.195,17.098-13.12,18.149-13.976
	c0.177-0.046,0.358-0.072,0.542-0.072c1.572,0,2.931,1.614,3.459,2.7c0.885,1.812,0.731,3.6-0.428,5.037
	c-0.005,0.006-0.006,0.015-0.012,0.021c-3.536,4.097-9.97,14.16-12.71,18.63c0.123-2.348-0.394-4.424-0.429-4.562
	c-0.581-2.296-2.877-5.428-5.57-6.486c-0.072-0.028-0.148-0.043-0.227-0.043c-0.258,0-0.483,0.156-0.576,0.395
	c-0.124,0.318,0.031,0.679,0.349,0.804c2.222,0.871,4.325,3.669,4.822,5.634c0.344,1.356,0.905,5.374-0.571,7.753
	c-0.556,0.707-1.316,1.469-2.265,1.903c-0.531,0.241-1.109,0.364-1.72,0.364c-0.26,0-0.525-0.022-0.789-0.068
	c-1.483-0.253-3.165-1.345-3.349-3.144c-0.137-1.344,0.687-2.462,1.68-3.04c0.151-0.051,0.281-0.118,0.395-0.196
	c0.08-0.033,0.159-0.073,0.24-0.1c0.198-0.065,0.51-0.143,0.864-0.143c0.567,0,1.363,0.201,1.92,1.159
	c0.109,0.19,0.315,0.308,0.535,0.308c0.078,0,0.15-0.031,0.222-0.06c-0.098,0.759-0.303,1.428-0.683,1.813
	c-0.145,0.147-0.394,0.345-0.871,0.345c-0.164,0-0.346-0.024-0.541-0.071c-0.447-0.107-0.737-0.578-0.75-0.952
	c-0.009-0.269,0.121-0.436,0.405-0.524c0.325-0.101,0.509-0.448,0.407-0.775c-0.082-0.261-0.318-0.438-0.592-0.438
	c-0.063,0-0.123,0.01-0.184,0.028c-0.813,0.253-1.302,0.925-1.276,1.75c0.032,0.981,0.762,1.89,1.7,2.116
	c0.293,0.068,0.572,0.104,0.83,0.104c0.867,0,1.433-0.387,1.752-0.713c1.647-1.673,1.08-5.683,0.752-6.955
	c-0.551-2.14-2.437-4.609-4.844-4.975c-0.143-0.021-0.29-0.031-0.439-0.031c-1.506,0-3.314,1.063-3.608,2.784
	c-0.21,1.228,0.701,2.351,1.709,2.826c0.083,0.039,0.172,0.06,0.263,0.06c0.239,0,0.46-0.14,0.562-0.354
	c0.07-0.151,0.078-0.319,0.022-0.476c-0.056-0.155-0.169-0.28-0.319-0.351c-0.57-0.269-1.119-0.886-1.015-1.497
	c0.177-1.035,1.392-1.756,2.372-1.756c0.092,0,0.183,0.007,0.269,0.02c1.79,0.271,3.383,2.318,3.831,4.06
	c0.167,0.65,0.306,1.683,0.313,2.717c-0.665-0.897-1.64-1.405-2.735-1.405c-0.409,0-0.833,0.069-1.255,0.207
	c-0.095,0.031-0.187,0.079-0.281,0.116c-0.065,0.02-0.126,0.037-0.181,0.075c-0.254,0.115-0.502,0.249-0.738,0.411
	c-0.093,0.008-0.196,0.013-0.316,0.013c-0.74,0-1.779-0.152-2.318-0.295c-1.095-0.288-1.779-1.327-2.089-1.922
	c-1.338-2.555,0.151-5.001,1.834-6.319c0.129-0.102,0.212-0.247,0.232-0.413c0.02-0.164-0.024-0.327-0.127-0.457
	c-0.118-0.151-0.296-0.238-0.488-0.238c-0.139,0-0.271,0.045-0.381,0.132c-0.478,0.375-0.876,0.788-1.236,1.216
	c-0.113-0.101-0.249-0.172-0.402-0.172c-0.126,0-0.249,0.039-0.353,0.11l-1.614,1.123c0.09-0.32,0.152-0.646,0.149-0.974
	c-0.01-1.09-0.608-1.961-1.686-2.453c-0.087-0.041-0.18-0.064-0.271-0.091c5.486-3.687,20.121-12.149,21.123-12.708
	c0.002-0.001,0.003-0.003,0.005-0.004c0.21-0.107,0.465-0.226,0.742-0.354c1.173-0.546,2.503-1.165,2.944-2.05
	c0.729-1.455,0.353-3.381-0.857-4.386l-0.148-0.125c-0.974-0.825-1.606-1.272-2.178-1.271c-0.475,0.007-1.992,0.531-4.059,1.399
	c-0.557,0.233-1.458,0.618-2.635,1.12c-2.918,1.247-7.8,3.334-11.008,4.619c-4.166,1.666-7.171,2.964-9.184,3.968
	c-0.102,0.051-0.174,0.131-0.232,0.22c-0.657,0.145-1.309,0.407-1.922,0.807c-3.991,2.596-3.68,7.917-1.701,11.765
	c0.698,1.357,1.928,2.71,3.45,3.484c-0.99,1.354-1.915,2.442-2.859,3.552c-0.678,0.799-1.318,1.553-1.922,2.353
	c-0.053,0.07-0.087,0.149-0.106,0.23c-1.58,2.558-1.48,5.845,0.456,8.01c0.852,0.952,2.459,2.128,4.181,2.307
	c0.151,0.015,0.3,0.022,0.448,0.022c1.618,0,3.022-0.888,3.768-1.457c0.059-0.044,0.123-0.09,0.187-0.149l0.122-0.11l0.099,0.132
	c0.848,1.125,2.212,1.719,3.946,1.719c0.137,0,0.276-0.004,0.416-0.011c2.077-0.108,4.632-1.849,4.979-4.167
	c0.058-0.388,0.11-1.032,0.038-1.826c0.792,0.976,1.984,1.693,3.384,1.932c0.328,0.057,0.662,0.084,0.996,0.084
	c0.791,0,1.543-0.16,2.234-0.476c0.97-0.44,1.89-1.225,2.706-2.258c0.019-0.021,0.046-0.033,0.062-0.058
	c0.019-0.029,0.032-0.062,0.051-0.092c0.131-0.171,0.266-0.331,0.39-0.516c0.175-0.257,0.585-0.941,1.212-1.984
	c2.217-3.691,9.469-15.166,13.232-19.503c0.013-0.014,0.016-0.032,0.026-0.047C58.938,27.249,59.137,24.958,58.057,22.745z
	 M19.532,32.563c0.008,0.011,0.014,0.025,0.022,0.036c0.458,0.562,1.093,0.869,1.914,0.89c0.575,0,1.147-0.173,1.653-0.432
	c0.039,0.008,0.073,0.031,0.113,0.031c0.105,0,0.209-0.026,0.3-0.078c1.887-1.053,6.02-3.004,10.26-4.976
	c-4.991,2.985-9.95,6.053-11.26,7.211c-0.124,0.11-0.198,0.26-0.208,0.425c-0.007,0.106,0.021,0.206,0.065,0.298
	c-0.082,0.117-0.156,0.239-0.217,0.367c-0.153,0.326-0.209,0.649-0.187,0.955c-1.013-0.596-2.019-1.636-2.295-2.451
	C19.479,34.207,19.433,33.372,19.532,32.563z M29.522,22.264c3.205-1.283,8.105-3.377,11.035-4.627
	c1.135-0.484,2.06-0.879,2.627-1.119c1.36-0.57,3.104-1.228,3.619-1.289c0.143,0.048,0.436,0.201,1.393,1.013l0.104,0.086
	c0.76,0.63,1.006,1.947,0.542,2.877c-0.229,0.459-1.288,0.982-2.354,1.479l-0.096,0.044c-0.261,0.121-0.507,0.236-0.722,0.348
	c-1.685,0.868-5.308,2.548-9.144,4.325c-4.021,1.863-8.449,3.915-11.384,5.377c0.16-0.5,0.216-1.039,0.158-1.593
	c-0.128-1.212-0.8-2.366-1.799-3.089c-0.434-0.313-0.905-0.546-1.396-0.702C23.97,24.539,26.417,23.506,29.522,22.264z
	 M17.125,37.314c-1.732-3.368-2.071-7.977,1.275-10.154c0.739-0.481,1.533-0.721,2.295-0.721c0.748,0,1.449,0.261,2.082,0.718
	c0.718,0.519,1.2,1.402,1.292,2.271c0.078,0.744-0.141,1.557-0.616,2.08c-0.088,0.098-0.188,0.196-0.292,0.294
	c-0.076,0.042-0.159,0.086-0.229,0.125c-0.11,0.062-0.183,0.157-0.237,0.261c-0.406,0.293-0.855,0.512-1.268,0.512
	c-0.001,0-0.001,0-0.002,0c-0.382,0-0.679-0.377-0.909-0.658c-0.156-0.193-0.286-0.964-0.225-1.511
	c0.004-0.037,0.011-0.063,0.017-0.096c0.09-0.111,0.181-0.221,0.284-0.304c0.073-0.059,0.126-0.133,0.166-0.215
	c0.029,0.011,0.051,0.012,0.083,0.028c0.088,0.045,0.182,0.067,0.28,0.067c0.235,0,0.447-0.13,0.553-0.34
	c0.075-0.148,0.088-0.316,0.036-0.473c-0.052-0.156-0.161-0.284-0.309-0.358c-0.28-0.143-0.557-0.215-0.822-0.215
	c-0.415,0-0.78,0.18-1.055,0.52c-0.177,0.219-0.302,0.496-0.38,0.799c-1,1.514-1.092,3.909-0.622,5.294
	c0.513,1.512,2.897,3.83,4.865,3.83c0.098,0,0.195-0.035,0.29-0.047c0.143-0.018,0.261-0.096,0.355-0.196
	c0.083-0.021,0.165-0.045,0.239-0.079c0.339-0.158,0.577-0.454,0.672-0.832c0.041-0.159,0.016-0.327-0.069-0.469
	c-0.085-0.141-0.22-0.241-0.381-0.281c-0.05-0.014-0.102-0.02-0.153-0.02c-0.244,0-0.472,0.15-0.568,0.377l-0.085,0.119
	l-0.134-0.049c-0.253-0.124-0.458-0.296-0.254-0.729c0.191-0.405,0.721-0.843,1.244-0.843c0.124,0,0.242,0.025,0.349,0.074
	c0.642,0.295,0.957,0.733,0.962,1.34c0.009,1.037-0.935,2.404-2.02,2.926c-0.572,0.272-1.173,0.414-1.784,0.414
	C19.876,40.771,18.011,39.038,17.125,37.314z M31.963,53.607c-0.242,1.627-2.287,3.031-3.818,3.109
	c-0.113,0.008-0.23,0.01-0.349,0.01c-1.667,0-2.824-0.658-3.346-1.904c-0.403-0.961-0.433-1.618-0.106-2.344
	c0.369-0.819,1.048-1.566,1.423-1.566l0.084,0.009l0.028,0.013c0.077,0.032,0.157,0.049,0.24,0.049c0.25,0,0.474-0.149,0.571-0.381
	c0.064-0.152,0.065-0.322,0.002-0.475c-0.062-0.152-0.181-0.271-0.333-0.335c-0.196-0.083-0.395-0.124-0.594-0.124
	c-1.197,0-2.192,1.505-2.551,2.301c-0.556,1.233-0.295,2.283-0.05,2.967l0.052,0.145l-0.146,0.049
	c-0.095,0.031-0.178,0.083-0.246,0.152c-0.02,0.02-0.082,0.068-0.191,0.15c-0.979,0.748-2.036,1.161-2.975,1.161
	c-0.104,0-0.207-0.006-0.307-0.016c-1.282-0.132-2.625-1.05-3.386-1.9c-2.062-2.305-1.31-5.886,0.687-7.784
	c1.224-1.164,2.434-1.576,4.01-2.029c0.965-0.277,1.909-0.418,2.806-0.418c1.152,0,2.183,0.229,3.064,0.68
	C32.147,47.998,32.201,52.014,31.963,53.607z M27.095,44.021c-1.056-0.541-2.278-0.814-3.632-0.814
	c-1.015,0-2.073,0.157-3.145,0.466c-0.492,0.141-0.967,0.288-1.432,0.458c0.54-0.659,1.095-1.36,1.674-2.16
	c0.037-0.051,0.057-0.108,0.077-0.166c0.454,0.123,0.919,0.211,1.404,0.211c0.747,0,1.484-0.169,2.195-0.489
	c0.044,0.01,0.084,0.032,0.131,0.032c0.128,0,0.249-0.037,0.353-0.109l3.525-2.452c-0.717,1.615-0.709,3.382,0.133,4.992
	c0.701,1.339,1.721,2.241,2.872,2.544c0.286,0.076,0.793,0.156,1.359,0.156l0.46,0.004c-0.433,0.579-0.729,1.271-0.821,2.042
	C31.389,47.129,29.845,45.428,27.095,44.021z M29.486,49.887c0.992,1.651,0.966,3.334-0.068,4.498
	c-0.469,0.525-1.279,0.866-2.064,0.866c-0.134,0-0.267-0.01-0.397-0.028c-0.7-0.111-1.253-0.518-1.518-1.115
	c-0.343-0.775-0.045-1.897,0.664-2.502c0.3-0.254,0.65-0.39,1.012-0.39c0.292,0,0.586,0.091,0.85,0.263
	c0.286,0.188,0.367,0.571,0.18,0.857c-0.114,0.176-0.308,0.28-0.519,0.28c-0.12,0-0.237-0.035-0.338-0.103L27.25,52.49l-0.133-0.038
	c-0.086,0-0.153,0.048-0.213,0.099c-0.282,0.239-0.453,0.782-0.333,1.057c0.093,0.213,0.287,0.345,0.576,0.392
	c0.067,0.01,0.137,0.017,0.208,0.017c0.432,0,0.899-0.188,1.136-0.455c0.945-1.063,0.268-2.479-0.067-3.039
	c-0.713-1.188-2.012-2.099-3.563-2.494c-0.612-0.154-1.265-0.237-1.888-0.237c-1.205,0-3.392,0.315-4.497,2.431
	c-0.294,0.563-0.354,1.416-0.146,2.072c0.099,0.311,0.302,0.725,0.71,0.934c0.17,0.086,0.417,0.135,0.697,0.135
	c0.386,0,0.916-0.098,1.242-0.37c0.204-0.171,0.256-0.354,0.176-0.614c-0.138-0.447-0.339-0.729-0.467-0.799
	c-0.404-0.026-0.675-0.307-0.673-0.641c0.002-0.346,0.274-0.615,0.618-0.615c0.758,0.005,1.378,0.621,1.707,1.688
	c0.227,0.735,0.021,1.438-0.564,1.929c-0.495,0.416-1.255,0.664-2.033,0.664c-0.479,0-0.918-0.096-1.268-0.275
	c-0.624-0.319-1.082-0.895-1.325-1.659c-0.31-0.979-0.22-2.165,0.229-3.022c1.407-2.69,4.104-3.092,5.586-3.092
	c0.729,0,1.491,0.096,2.201,0.275C27.032,47.305,28.607,48.418,29.486,49.887z"/>
</svg>
