<?xml version="1.0" encoding="utf-8"?>
<!-- Generator: Adobe Illustrator 16.0.0, SVG Export Plug-In . SVG Version: 6.00 Build 0)  -->
<!DOCTYPE svg PUBLIC "-//W3C//DTD SVG 1.1//EN" "http://www.w3.org/Graphics/SVG/1.1/DTD/svg11.dtd">
<svg version="1.1" id="Layer_1" xmlns="http://www.w3.org/2000/svg" xmlns:xlink="http://www.w3.org/1999/xlink" x="0px" y="0px"
	 width="72px" height="72px" viewBox="0 0 72 72" enable-background="new 0 0 72 72" xml:space="preserve">
<path fill="#444444" d="M47.315,23.563c1.215-0.737,2.772-1.335,3.851-1.606c0.245-0.06,0.439-0.24,0.52-0.48
	c0.08-0.236,0.033-0.495-0.123-0.692c-0.027-0.034-2.793-3.426-7.274-3.426c-1.556,0-3.144,0.417-4.722,1.24l-0.67,0.35
	l-0.061-0.755c-0.086-1.087,0.083-2.497,0.505-4.188c0.056-0.221,0.007-0.45-0.134-0.63c-0.139-0.177-0.354-0.282-0.58-0.282
	c-3.454,0-5.868,2.738-6.651,5.283l-0.16,0.518l-0.501-0.199c-1.35-0.532-2.581-0.802-3.663-0.802c-0.813,0-1.556,0.152-2.21,0.453
	c-1.846,0.849-2.316,2.533-2.364,2.722c-0.076,0.309,0.059,0.623,0.353,0.819c0.22,0.146,1.121,0.737,2.313,1.454
	c-7.076,1.704-11.34,9.319-11.34,16.445c0,10.448,9.96,19.276,21.75,19.276c11.79,0,21.75-8.828,21.749-19.276
	C57.902,32.92,53.937,25.611,47.315,23.563z M25.126,21.235l-0.467-0.303l0.35-0.432c0.299-0.369,0.666-0.649,1.091-0.834
	c0.451-0.201,0.976-0.303,1.561-0.303c1.226,0,2.725,0.439,4.455,1.303c0.103,0.051,0.218,0.077,0.33,0.077
	c0.138,0,0.272-0.037,0.387-0.108c0.219-0.136,0.35-0.37,0.35-0.627c0-1.492,1.309-4.168,3.676-5.105l0.82-0.324l-0.142,0.869
	c-0.588,3.6,0.287,4.8,0.567,5.082c0.141,0.139,0.326,0.215,0.521,0.215c0.143,0,0.284-0.042,0.408-0.122
	c1.77-1.18,3.551-1.779,5.291-1.779c2.004,0,3.578,0.804,4.545,1.479l0.762,0.535L48.768,21.2c-0.971,0.38-2.328,1.023-3.375,1.92
	c-0.593-0.084-1.197-0.138-1.824-0.138c-2.649,0-4.004,0.438-5.104,0.794c-0.799,0.256-1.377,0.442-2.311,0.442
	c-0.936,0-1.521-0.188-2.333-0.449c-1.08-0.35-2.424-0.787-5.083-0.787c-0.247,0-0.48,0.031-0.721,0.044
	C26.917,22.377,25.84,21.696,25.126,21.235z M36.154,57.593c-10.992,0-20.278-8.155-20.278-17.807
	c0-9.471,6.676-15.334,12.862-15.334c2.408,0,3.591,0.381,4.636,0.716c0.791,0.256,1.609,0.521,2.78,0.521
	c1.177,0,2.002-0.267,2.806-0.527c1.035-0.333,2.209-0.71,4.61-0.71c6.185,0,12.861,5.863,12.861,15.334
	C56.432,49.439,47.146,57.593,36.154,57.593z M31.945,29.898c0,0.405-0.33,0.734-0.735,0.734c-3.808,0-7.917,3.973-7.917,10.39
	c-0.001,0.406-0.331,0.735-0.736,0.735c-0.406,0-0.736-0.329-0.736-0.733c0-7.327,4.874-11.86,9.389-11.86
	C31.615,29.163,31.945,29.493,31.945,29.898z"/>
</svg>
