<?xml version="1.0" encoding="utf-8"?>
<!-- Generator: Adobe Illustrator 16.0.0, SVG Export Plug-In . SVG Version: 6.00 Build 0)  -->
<!DOCTYPE svg PUBLIC "-//W3C//DTD SVG 1.1//EN" "http://www.w3.org/Graphics/SVG/1.1/DTD/svg11.dtd">
<svg version="1.1" id="Layer_1" xmlns="http://www.w3.org/2000/svg" xmlns:xlink="http://www.w3.org/1999/xlink" x="0px" y="0px"
	 width="72px" height="72px" viewBox="0 0 72 72" enable-background="new 0 0 72 72" xml:space="preserve">
<path fill="#444444" d="M39.365,45.89c-0.123,1.248-0.808,2.396-1.743,2.922c-1.211,0.68-2.385,1.02-3.51,1.02
	c-0.652,0-1.288-0.114-1.904-0.343c-3.196-1.187-4.628-5.038-4.688-5.202c-0.144-0.396,0.06-0.833,0.456-0.978
	c0.395-0.145,0.833,0.059,0.979,0.455c0.012,0.033,1.259,3.359,3.79,4.295c1.24,0.459,2.629,0.264,4.128-0.578
	c0.408-0.229,0.887-0.872,0.973-1.741c0.041-0.419,0.422-0.734,0.835-0.685C39.1,45.096,39.407,45.47,39.365,45.89z M60.586,21.063
	c-0.007,0.776-0.159,1.522-0.44,2.158c-0.151,0.345-0.331,0.648-0.531,0.899c-0.468,0.577-0.655,1.57-0.506,2.661
	c0.184,1.344-0.05,2.524-0.64,3.239c-0.462,0.559-1.056,0.854-1.718,0.854c-0.096,0-0.192-0.006-0.289-0.019
	c0.096,1.69-0.558,3.071-1.755,3.46c-0.543,0.177-1.152,0.124-1.722-0.144c-0.165,1.23-0.782,2.165-1.721,2.472
	c-0.668,0.219-1.418,0.081-2.102-0.362c-0.067,0.228-0.153,0.44-0.255,0.635c1.512,0.515,2.761,1.716,3.572,3.496
	c0.224,0.5,0.515,0.961,0.866,1.377c0.315,0.37,0.736,0.571,1.321,0.632c0.711,0.075,1.317,0.463,1.802,1.152
	c1.121,1.607,1.388,4.756-0.32,7.432c-0.421,0.657-0.947,1.209-1.521,1.596c-0.325,0.222-0.634,0.38-0.94,0.482
	c-0.688,0.238-1.375,0.981-1.83,1.985c-0.558,1.235-1.383,2.112-2.263,2.403c-0.265,0.088-0.529,0.133-0.784,0.133
	c-0.001,0-0.001,0-0.001,0c-0.513,0-0.976-0.171-1.361-0.491c-0.813,1.466-2.134,2.294-3.321,2
	c-0.565-0.142-1.038-0.505-1.382-1.038c-0.649,0.784-1.454,1.243-2.26,1.243c-0.173,0-0.346-0.021-0.513-0.063
	c-0.688-0.171-1.24-0.681-1.587-1.423c-0.708,0.627-1.547,0.887-2.313,0.699c-0.593-0.148-1.083-0.537-1.428-1.115
	c-0.701,0.609-1.52,0.859-2.272,0.673c-0.643-0.162-1.164-0.604-1.513-1.26c-0.611,0.407-1.287,0.55-1.911,0.395
	c-0.759-0.191-1.353-0.795-1.688-1.668c-0.576,0.346-1.206,0.457-1.786,0.314c-0.775-0.192-1.377-0.813-1.709-1.7
	c-0.649,0.488-1.388,0.675-2.073,0.507c-0.958-0.24-1.638-1.13-1.889-2.347c-0.556,0.312-1.155,0.407-1.708,0.271
	c-1.222-0.305-1.971-1.636-1.996-3.329c-0.583,0.119-1.16,0.002-1.656-0.343c-0.931-0.648-1.416-2.042-1.268-3.638
	c0.112-1.194,0.524-2.334,1.161-3.211c0.138-0.189,0.181-0.536,0.126-0.706l-0.022-0.072c-0.278,0.051-0.595,0.045-0.875-0.025
	c-0.64-0.16-1.168-0.604-1.526-1.284c-0.621-1.182-0.632-2.916-0.029-4.527c0.535-1.423,1.526-2.488,2.587-2.781
	c0.245-0.07,0.493-0.091,0.737-0.078c-0.162-0.397-0.303-0.814-0.394-1.26c-0.303-1.488-0.029-2.917,0.713-3.73
	c0.397-0.441,0.907-0.69,1.471-0.718c0.642-0.029,1.058-0.192,1.351-0.527c0.483-0.553,0.855-1.193,1.105-1.903
	c0.745-2.118,2.167-3.504,4.003-3.904c3.125-0.685,6.597-0.023,10.16,1.937c2.247,1.237,4.343,0.562,5.432-1.77
	c1.666-3.573,3.94-6.066,6.76-7.409c1.775-0.845,3.95-0.583,5.917,0.716c0.45,0.301,0.942,0.538,1.465,0.706
	c0.455,0.142,0.924,0.092,1.453-0.167c0.642-0.313,1.368-0.305,2.142,0.021C58.717,15.363,60.615,17.889,60.586,21.063z
	 M47.671,38.18c-0.115-0.014-0.232-0.013-0.348-0.021c-0.312,0.06-0.638,0.05-0.967-0.032c-0.227,0.004-0.453,0.009-0.682,0.027
	c-0.294,0.764-0.797,1.322-1.47,1.542c-0.609,0.197-1.302,0.103-1.945-0.265c-0.302,0.675-0.787,1.147-1.412,1.351
	c-0.557,0.183-1.181,0.109-1.776-0.185c-0.019,0.012-0.038,0.021-0.057,0.034c-0.571,0.369-1.147,0.632-1.724,0.804
	c-0.036,0.014-0.067,0.034-0.104,0.046c-0.103,0.034-0.211,0.039-0.317,0.056c-0.353,0.075-0.705,0.127-1.055,0.127
	c-0.432,0-0.85-0.063-1.251-0.176c-0.299,0.481-0.712,0.828-1.214,0.991c-0.923,0.303-1.997-0.085-2.847-0.979
	c-0.305,0.556-0.751,0.951-1.305,1.131c-0.211,0.068-0.433,0.104-0.658,0.104c-1.024,0-2.054-0.712-2.8-1.865
	c-0.403,0.384-0.911,0.594-1.484,0.594c-0.013,0-0.092-0.001-0.104-0.002c-1.129-0.056-2.279-0.979-3.003-2.408
	c-0.54-1.07-0.797-2.256-0.723-3.341c0.017-0.236-0.13-0.551-0.267-0.665l-0.059-0.05c-0.227,0.205-0.48,0.354-0.756,0.443
	c-0.21,0.068-0.433,0.104-0.658,0.104c-0.699,0-1.385-0.339-1.987-0.896c-0.396-0.076-0.802-0.221-1.222-0.459
	c-0.137-0.078-0.279-0.086-0.463-0.035c-0.49,0.136-1.161,0.758-1.571,1.848c-0.448,1.196-0.467,2.483-0.049,3.279
	c0.104,0.198,0.283,0.448,0.546,0.514c0.098,0.024,0.204,0.018,0.331-0.018c0.673-0.187,1.363,0.197,1.584,0.925l0.066,0.211
	c0.208,0.643,0.067,1.495-0.346,2.064c-0.478,0.658-0.789,1.53-0.876,2.455c-0.108,1.169,0.245,1.981,0.618,2.241
	c0.333,0.231,0.735,0.102,1.172-0.299c0.246-0.226,0.609-0.266,0.897-0.1c0.289,0.166,0.437,0.5,0.365,0.825
	c-0.348,1.587,0.098,2.864,0.716,3.018c0.41,0.104,0.955-0.265,1.402-0.906c0.2-0.287,0.57-0.4,0.894-0.278
	c0.327,0.122,0.529,0.45,0.492,0.797c-0.149,1.378,0.295,2.335,0.811,2.465c0.44,0.105,1.061-0.347,1.525-1.104
	c0.178-0.29,0.526-0.431,0.855-0.336c0.328,0.091,0.556,0.389,0.559,0.729c0.008,0.999,0.354,1.781,0.84,1.902
	c0.374,0.094,0.857-0.202,1.286-0.75c0.196-0.249,0.525-0.354,0.827-0.26c0.303,0.094,0.517,0.364,0.537,0.681
	c0.058,0.897,0.389,1.573,0.826,1.684c0.361,0.09,0.854-0.204,1.284-0.753c0.186-0.237,0.496-0.343,0.788-0.27
	c0.293,0.073,0.515,0.313,0.566,0.61c0.12,0.696,0.421,1.186,0.786,1.277c0.424,0.096,1.054-0.346,1.518-1.097
	c0.167-0.269,0.481-0.405,0.794-0.348c0.312,0.061,0.553,0.307,0.608,0.618c0.121,0.692,0.42,1.178,0.781,1.268
	c0.412,0.108,1.088-0.273,1.639-1.286c0.136-0.249,0.396-0.398,0.671-0.398c0.055,0,0.11,0.006,0.166,0.019
	c0.332,0.074,0.575,0.359,0.597,0.699c0.055,0.902,0.386,1.582,0.825,1.69c0.537,0.133,1.353-0.488,1.876-1.793
	c0.13-0.323,0.472-0.522,0.809-0.473c0.346,0.045,0.617,0.319,0.658,0.666c0.095,0.785,0.413,1.357,0.813,1.457
	c0.596,0.161,1.608-0.76,2.049-2.325c0.091-0.32,0.378-0.545,0.71-0.557c0.337,0,0.634,0.194,0.745,0.508
	c0.108,0.307,0.358,0.82,0.809,0.82h0.001c0.092,0,0.194-0.019,0.304-0.055c0.455-0.151,0.985-0.772,1.352-1.584
	c0.635-1.399,1.63-2.42,2.73-2.802c0.176-0.059,0.366-0.159,0.574-0.301c0.406-0.273,0.782-0.672,1.091-1.154
	c1.303-2.039,1.204-4.517,0.356-5.732c-0.295-0.42-0.547-0.492-0.709-0.509c-0.972-0.101-1.755-0.492-2.327-1.163
	c-0.446-0.527-0.813-1.11-1.094-1.735C50.325,39.367,49.11,38.349,47.671,38.18z M59.059,21.049c0.022-2.42-1.376-4.466-2.74-5.046
	c-0.354-0.149-0.635-0.172-0.875-0.055c-0.87,0.428-1.752,0.514-2.586,0.251c-0.663-0.213-1.283-0.511-1.849-0.889
	c-1.513-0.999-3.119-1.226-4.415-0.609c-2.49,1.186-4.52,3.432-6.032,6.675c-0.975,2.084-2.661,3.279-4.628,3.279
	c-0.956,0-1.939-0.275-2.924-0.817c-3.233-1.778-6.33-2.391-9.097-1.783c-1.301,0.283-2.327,1.32-2.889,2.919
	c-0.315,0.893-0.785,1.701-1.396,2.401c-0.574,0.657-1.369,1-2.429,1.047c-0.103,0.005-0.246,0.035-0.412,0.219
	c-0.342,0.375-0.581,1.259-0.348,2.399c0.388,1.901,1.676,3.195,2.434,2.945c0.092-0.03,0.182-0.093,0.268-0.188
	c0.472-0.521,1.263-0.557,1.835-0.063l0.16,0.136c0.529,0.441,0.863,1.24,0.813,1.945c-0.055,0.813,0.145,1.718,0.563,2.547
	c0.53,1.048,1.26,1.549,1.715,1.571h0c0.494,0,0.723-0.478,0.833-0.878c0.089-0.32,0.375-0.548,0.708-0.56
	c0.01-0.001,0.02-0.001,0.029-0.001c0.321,0,0.609,0.201,0.719,0.506c0.549,1.529,1.598,2.378,2.21,2.175
	c0.391-0.126,0.667-0.72,0.706-1.511c0.017-0.348,0.268-0.641,0.609-0.711c0.338-0.073,0.687,0.1,0.84,0.414
	c0.641,1.316,1.508,1.813,1.995,1.657c0.431-0.141,0.715-0.843,0.706-1.747c-0.003-0.34,0.219-0.642,0.546-0.739
	c0.328-0.093,0.678,0.034,0.861,0.321c0.53,0.83,1.245,1.325,1.724,1.167c0.354-0.116,0.619-0.621,0.689-1.319
	c0.032-0.315,0.256-0.579,0.563-0.66c0.307-0.083,0.632,0.033,0.817,0.292c0.52,0.722,1.16,1.127,1.592,0.987
	c0.353-0.115,0.616-0.62,0.688-1.318c0.031-0.301,0.236-0.555,0.523-0.648c0.288-0.092,0.603-0.008,0.805,0.216
	c0.465,0.519,0.979,0.786,1.341,0.665c0.429-0.14,0.712-0.837,0.706-1.736c-0.002-0.317,0.192-0.603,0.488-0.717
	c0.295-0.115,0.632-0.034,0.844,0.203c0.46,0.513,0.972,0.779,1.332,0.66c0.471-0.152,0.768-0.979,0.708-1.966
	c-0.02-0.34,0.188-0.652,0.508-0.765c0.322-0.115,0.678-0.001,0.876,0.276c0.519,0.727,1.156,1.138,1.598,0.994
	c0.505-0.166,0.882-1.152,0.635-2.516c-0.062-0.343,0.117-0.685,0.435-0.83c0.315-0.145,0.692-0.057,0.912,0.215
	c0.492,0.611,1.056,0.935,1.461,0.803c0.605-0.197,0.959-1.501,0.501-3.059c-0.094-0.319,0.029-0.663,0.306-0.849
	c0.274-0.186,0.641-0.172,0.901,0.035c0.289,0.229,0.577,0.356,0.81,0.356c0.126,0,0.318-0.031,0.54-0.3
	c0.305-0.369,0.425-1.178,0.304-2.059c-0.208-1.523,0.094-2.917,0.829-3.825c0.115-0.144,0.226-0.333,0.324-0.558
	C58.947,22.156,59.054,21.619,59.059,21.049z M42.63,25.301c-0.378,0.188-0.532,0.646-0.346,1.023
	c0.389,0.784,0.325,1.583,0.103,1.993c-0.824,1.509-1.897,2.411-3.19,2.682c-2.645,0.557-5.465-1.605-5.494-1.627
	c-0.334-0.258-0.813-0.197-1.071,0.135c-0.258,0.333-0.199,0.812,0.133,1.07c0.121,0.094,2.654,2.04,5.532,2.04
	c0.396,0,0.801-0.037,1.205-0.121c1.755-0.364,3.177-1.523,4.227-3.448c0.513-0.942,0.483-2.277-0.074-3.402
	C43.465,25.268,43.007,25.11,42.63,25.301z"/>
</svg>
