<?xml version="1.0" encoding="utf-8"?>
<!-- Generator: Adobe Illustrator 16.0.0, SVG Export Plug-In . SVG Version: 6.00 Build 0)  -->
<!DOCTYPE svg PUBLIC "-//W3C//DTD SVG 1.1//EN" "http://www.w3.org/Graphics/SVG/1.1/DTD/svg11.dtd">
<svg version="1.1" id="Layer_1" xmlns="http://www.w3.org/2000/svg" xmlns:xlink="http://www.w3.org/1999/xlink" x="0px" y="0px"
	 width="72px" height="72px" viewBox="0 0 72 72" enable-background="new 0 0 72 72" xml:space="preserve">
<path fill="#444444" d="M61.93,49.934c-0.308-1.226-1.709-2.091-3.746-2.315c-0.461-0.052-0.918-0.116-1.369-0.19
	c0.804-1.297,1.479-2.672,1.976-4.122c0.483-1.406,0.176-2.273-0.167-2.754c-0.829-1.162-2.738-1.197-4.755-0.018
	c-2.245,1.313-4.6,2.232-7.037,2.77c-3.865-2.772-6.546-6.372-8.654-9.55c-1.421-2.146-4.286-8.116-4.79-9.981
	c-0.469-1.737,0.265-3.627,0.791-4.154c1.175-1.177,1.631-2.455,1.253-3.507c-0.41-1.139-1.689-1.819-3.804-2.022
	c-1.56-0.149-2.653,0.183-3.249,0.99c-0.416,0.563-0.754,1.613-0.005,3.418c0.628,1.506-0.169,3.351-1.489,6.407L26.46,25.89
	c-1.911,4.458-2.142,9.171-0.699,13.75c-2.434-1.218-5.07-2.696-6.022-3.446c-1.413-1.115-1.951-3.069-1.843-3.805
	c0.114-0.775,0.182-2.217-0.637-3.165c-0.937-1.084-2.558-1.049-4.71,0.251c-1.34,0.811-2.019,1.729-2.016,2.731
	c0.002,0.7,0.356,1.745,2.036,2.747c1.404,0.836,1.865,2.792,2.629,6.035l0.246,1.037C18.098,53.13,28.662,58.1,37.952,58.1
	c2.865,0,5.694-0.613,8.317-1.717c0.645,0.052,1.287,0.088,1.926,0.088c4.476,0,8.774-1.281,12.289-3.692
	C62.147,51.637,62.049,50.408,61.93,49.934z M28.022,26.56l0.422-0.98c1.447-3.35,2.403-5.563,1.499-7.734
	c-0.337-0.811-0.411-1.467-0.198-1.755c0.207-0.28,0.833-0.391,1.719-0.308c1.961,0.188,2.307,0.74,2.366,0.905
	c0.136,0.378-0.216,1.089-0.856,1.73c-1.063,1.064-1.81,3.648-1.229,5.798c0.558,2.064,3.462,8.135,5.014,10.477
	c1.952,2.944,4.379,6.242,7.769,8.999c-0.917,0.107-1.844,0.171-2.781,0.171c-4.605,0-8.758-1.273-12.212-2.52
	c-0.43-0.154-0.973-0.382-1.578-0.654C26.047,36.018,26.06,31.14,28.022,26.56z M17.096,41.63l-0.245-1.031
	c-0.837-3.554-1.39-5.901-3.413-7.105c-0.754-0.45-1.206-0.933-1.207-1.292c-0.001-0.348,0.435-0.811,1.196-1.271
	c1.069-0.647,1.704-0.783,2.047-0.783c0.296,0,0.421,0.101,0.497,0.188c0.263,0.304,0.358,1.014,0.242,1.807
	c-0.218,1.487,0.723,4.006,2.473,5.387c1.654,1.3,7.702,4.487,10.272,5.413c3.592,1.295,7.921,2.619,12.789,2.619
	c4.575,0,8.942-1.197,12.979-3.561c0.728-0.425,1.415-0.659,1.936-0.659c0.199,0,0.461,0.034,0.577,0.198
	c0.152,0.213,0.131,0.666-0.057,1.214C54.475,50.661,46.387,56.4,37.952,56.4C31.518,56.4,19.884,53.289,17.096,41.63z
	 M59.522,51.377c-2.897,1.988-6.383,3.13-10.053,3.346c2.441-1.512,4.598-3.473,6.305-5.762c0.726,0.141,1.466,0.262,2.222,0.347
	c1.527,0.168,2.203,0.714,2.285,1.04C60.348,50.615,60.058,51.01,59.522,51.377z"/>
</svg>
