<?xml version="1.0" encoding="utf-8"?>
<!-- Generator: Adobe Illustrator 16.0.0, SVG Export Plug-In . SVG Version: 6.00 Build 0)  -->
<!DOCTYPE svg PUBLIC "-//W3C//DTD SVG 1.1//EN" "http://www.w3.org/Graphics/SVG/1.1/DTD/svg11.dtd">
<svg version="1.1" id="Layer_1" xmlns="http://www.w3.org/2000/svg" xmlns:xlink="http://www.w3.org/1999/xlink" x="0px" y="0px"
	 width="72px" height="72px" viewBox="0 0 72 72" enable-background="new 0 0 72 72" xml:space="preserve">
<path fill="#444444" d="M42.583,28.374c-0.847-0.234-1.16-0.723-1.636-1.463c-0.111-0.171-0.228-0.348-0.352-0.526l3.553-9.236
	c0.121-0.315,0.012-0.675-0.267-0.87c-0.276-0.194-0.651-0.176-0.907,0.046l-3.094,2.68l-0.305-3.662
	c-0.027-0.321-0.26-0.588-0.574-0.66c-0.314-0.07-0.639,0.072-0.801,0.35l-2.135,3.659l-2.133-3.658
	c-0.162-0.279-0.485-0.418-0.801-0.35c-0.315,0.072-0.548,0.339-0.574,0.66l-0.305,3.661l-3.093-2.681
	c-0.256-0.222-0.631-0.24-0.908-0.046c-0.278,0.195-0.387,0.555-0.266,0.87l3.557,9.247c-0.12,0.173-0.247,0.349-0.354,0.515
	c-0.476,0.74-0.79,1.229-1.635,1.463c-7.716,2.142-12.702,7.904-12.702,14.675c0,8.526,7.902,14.48,19.216,14.48
	c11.315,0,19.216-5.954,19.217-14.48C55.284,36.278,50.298,30.516,42.583,28.374z M36.074,56.052c-0.002,0-0.005,0-0.007,0
	c-0.003,0-0.007-0.001-0.01-0.001c-1.533-0.016-3.686-4.051-3.686-13.002c0-6.225,1.063-11.489,2.71-13.441l0.986,0.789l0.986-0.789
	c1.646,1.952,2.711,7.216,2.711,13.441C39.764,52.002,37.609,56.037,36.074,56.052z M30.203,31.011
	c1.069-0.817,1.904-1.93,2.487-3.316l1.239,0.991c-1.874,2.26-3.036,7.74-3.036,14.363c0,5.85,0.902,10.31,2.428,12.65
	c-5.021-1.289-8.34-6.125-8.34-12.651C24.981,38.008,26.934,33.511,30.203,31.011z M38.813,55.699
	c1.526-2.341,2.428-6.801,2.428-12.65c0-6.624-1.163-12.104-3.036-14.364l1.238-0.991c0.584,1.386,1.418,2.5,2.488,3.317
	c3.27,2.5,5.223,6.997,5.223,12.037C47.154,49.574,43.836,54.41,38.813,55.699z M39.45,25.244l-2.255-1.954l4.512-3.91L39.45,25.244
	z M38.297,17.801l0.199,2.404l-2.43,2.105l-0.266-0.23L38.297,17.801z M33.836,17.804l1.375,2.355l-0.546,0.936l-1.028-0.891
	L33.836,17.804z M38.607,26.47l-2.54,2.033l-2.038-1.63l-1.042-0.833l-2.559-6.658L38.607,26.47z M18.329,43.049
	c0-5.815,4.167-10.814,10.69-12.959c-3.453,2.815-5.517,7.614-5.517,12.959c0,5.203,1.931,9.439,5.112,11.958
	C22.32,53.097,18.329,48.707,18.329,43.049z M43.52,55.006c3.182-2.519,5.114-6.754,5.115-11.957c0-5.344-2.063-10.143-5.517-12.958
	c6.521,2.146,10.687,7.144,10.687,12.958C53.805,48.707,49.814,53.097,43.52,55.006z"/>
</svg>
