<?xml version="1.0" encoding="utf-8"?>
<!-- Generator: Adobe Illustrator 16.0.0, SVG Export Plug-In . SVG Version: 6.00 Build 0)  -->
<!DOCTYPE svg PUBLIC "-//W3C//DTD SVG 1.1//EN" "http://www.w3.org/Graphics/SVG/1.1/DTD/svg11.dtd">
<svg version="1.1" id="Layer_1" xmlns="http://www.w3.org/2000/svg" xmlns:xlink="http://www.w3.org/1999/xlink" x="0px" y="0px"
	 width="72px" height="72px" viewBox="0 0 72 72" enable-background="new 0 0 72 72" xml:space="preserve">
<path fill="#414042" d="M36.354,42.098c-0.783,1.194-1.038,2.614-0.716,3.995l-1.121,0.261c-0.388-1.664-0.069-3.447,0.874-4.888
	L36.354,42.098z M31.168,32.081c1.088-0.91,2.468-1.325,3.889-1.164l0.128-1.144c-1.707-0.19-3.443,0.328-4.755,1.425L31.168,32.081
	z M37.673,55.004c-2.53,1.446-5.701,1.128-7.894-0.794l-0.167-0.146l-1.07,0.018c-0.122-0.461-0.323-0.938-0.592-1.396
	c-0.263-0.471-0.573-0.887-0.911-1.227l0.452-0.742l-0.983-0.598l-0.965,1.587l0.402,0.315c0.362,0.283,0.718,0.72,1.007,1.235
	c0.294,0.5,0.489,1.026,0.551,1.483l0.068,0.507l1.621-0.026c1.463,1.213,3.271,1.834,5.092,1.834c1.359,0,2.726-0.348,3.96-1.055
	c0.912-0.521,1.697-1.202,2.336-2.025l-0.908-0.705C39.125,53.975,38.453,54.557,37.673,55.004z M31.708,44.596L31.136,43.6
	c-1.494,0.854-2.586,2.297-2.996,3.957l1.117,0.276C29.597,46.456,30.468,45.307,31.708,44.596z M57.023,55.504l-0.434,0.271
	c-0.39,0.246-0.787,0.641-1.122,1.115c-0.351,0.478-0.6,0.981-0.709,1.428l-0.12,0.498l-1.607-0.192
	c-1.342,0.894-2.885,1.339-4.428,1.339c-1.636,0-3.267-0.5-4.656-1.5c-1.834-1.32-2.996-3.33-3.254-5.563
	c-0.584,0.002-1.174-0.06-1.76-0.191l-1.433,0.759l-0.291-0.42c-0.263-0.38-0.677-0.76-1.166-1.073
	c-0.492-0.33-1.007-0.556-1.458-0.644l-0.502-0.101l0.124-1.639c-1.221-1.691-1.702-3.757-1.432-5.746
	c-0.668-0.147-1.304-0.382-1.9-0.688c-2.17,1.244-3.48,3.576-3.421,6.086l-1.15,0.025c-0.065-2.727,1.257-5.27,3.478-6.791
	c-1.473-1.08-2.574-2.652-3.036-4.48l-1.323-0.936l0.244-0.448c0.22-0.405,0.373-0.946,0.432-1.522
	c0.072-0.588,0.042-1.149-0.083-1.592l-0.138-0.492l1.519-0.629c1.514-2.924,4.691-4.632,7.97-4.263
	c1.027,0.115,2.005,0.427,2.889,0.901c-0.334-0.48-0.687-0.962-1.055-1.442l-0.224-0.027c-3.986-0.494-8.438,0.371-12.211,2.373
	l-0.539-1.017c3.605-1.912,7.799-2.839,11.693-2.607c-0.542-0.478-1.408-0.861-2.496-1.084c-1.872-0.383-4.175-0.243-6.32,0.383
	c-4.468,1.304-7.314,4.436-6.782,6.262c0.373,1.276,2.914,1.107,4.979,0.74l0.202,1.132c-0.574,0.103-1.638,0.292-2.735,0.292
	c-1.527,0-3.119-0.366-3.55-1.841c-0.798-2.738,2.666-6.259,7.565-7.689c2.353-0.687,4.794-0.83,6.873-0.405
	c0.223,0.046,0.434,0.1,0.641,0.158c-4.557-4.642-10.964-8.76-19.164-10.48l0.236-1.126c8.182,1.716,14.636,5.756,19.306,10.362
	c-0.315-1.511-0.221-3.282,0.264-4.99c0.486-1.71,1.336-3.237,2.396-4.3c1.092-1.099,2.291-1.566,3.289-1.282
	c1.025,0.291,1.512,1.311,1.445,3.03c-0.045,1.2-0.35,2.777-0.932,4.822c-0.593,2.087-1.145,3.479-1.734,4.379l-0.963-0.631
	c0.525-0.8,1.029-2.091,1.591-4.063c0.556-1.955,0.847-3.444,0.89-4.551c0.03-0.77-0.052-1.721-0.611-1.88
	c-0.576-0.165-1.383,0.205-2.158,0.986c-0.924,0.928-1.671,2.278-2.105,3.804c-0.432,1.519-0.519,3.145-0.241,4.462
	c0.105,0.492,0.258,0.922,0.444,1.262c-0.071-2.66,0.583-5.479,1.859-7.927l1.021,0.533c-1.402,2.691-1.997,5.856-1.626,8.684
	l0.113,0.867l-0.048-0.013c0.643,0.794,1.236,1.593,1.777,2.389c0.248-0.81,0.842-1.658,1.736-2.456
	c1.393-1.239,3.309-2.205,5.395-2.72c2.076-0.511,4.179-0.535,5.916-0.065c1.771,0.479,2.955,1.429,3.244,2.608
	c0.656,2.655-3.867,4.132-7.881,5.123c-2.246,0.553-3.902,0.818-5.148,0.818c-0.166,0-0.326-0.005-0.479-0.014l0.071-1.149
	c1.171,0.07,2.851-0.173,5.278-0.772c6.529-1.611,7.215-3.028,7.041-3.729c-0.185-0.749-1.092-1.411-2.429-1.772
	c-1.553-0.421-3.45-0.395-5.34,0.072c-1.881,0.464-3.668,1.361-4.903,2.461c-0.632,0.562-1.08,1.14-1.31,1.67
	c2.815-1.812,6.321-2.908,9.813-3.041l0.043,1.15c-3.631,0.139-7.269,1.38-10.026,3.41c0.64,1.061,1.188,2.105,1.646,3.115
	c1.846-1.275,4.197-1.761,6.471-1.195c2.891,0.72,5.123,2.97,5.824,5.872l-1.119,0.271c-0.6-2.484-2.508-4.41-4.983-5.026
	c-2.959-0.736-6.077,0.599-7.582,3.246l-1.001-0.568c0.4-0.702,0.898-1.319,1.466-1.851c-0.165-0.375-0.343-0.756-0.532-1.141
	l-0.013,0.006c-1.055-2.026-3.034-3.387-5.304-3.641c-2.872-0.321-5.646,1.213-6.905,3.818l-0.095,0.198l-1.005,0.417
	c0.072,0.473,0.075,0.991,0.01,1.528c-0.054,0.528-0.172,1.031-0.347,1.475l0.874,0.618l0.048,0.216
	c0.576,2.585,2.631,4.618,5.189,5.185c0.216-0.756,0.544-1.484,0.989-2.164c2.41-3.681,7.367-4.715,11.048-2.305
	c2.767,1.813,4.037,5.061,3.476,8.125c1.537-0.466,2.881-1.459,3.766-2.823l0.12-0.185l1.032-0.275
	c-0.008-0.479,0.057-0.994,0.192-1.517c0.122-0.519,0.306-1,0.538-1.419l-0.637-0.592l0.783-0.844l1.361,1.264l-0.302,0.414
	c-0.272,0.373-0.494,0.891-0.629,1.455c-0.149,0.571-0.192,1.131-0.128,1.588l0.072,0.507l-1.565,0.417
	c-0.17,0.246-0.356,0.479-0.549,0.703c0.235,0.135,0.466,0.281,0.688,0.44c2.68,1.931,3.889,5.324,3.049,8.509L57.023,55.504z
	 M46.391,48.665c2.063-3.149,1.178-7.392-1.973-9.456c-3.15-2.061-7.391-1.177-9.456,1.975c-1.583,2.418-1.465,5.588,0.293,7.887
	l0.133,0.173l-0.082,1.086c0.455,0.149,0.92,0.379,1.368,0.681c0.449,0.286,0.844,0.619,1.162,0.977l0.945-0.502l0.215,0.055
	C41.824,52.26,44.794,51.104,46.391,48.665z M55.557,55.102l-0.466-0.982l0.062-0.211c0.815-2.777-0.213-5.777-2.557-7.465
	c-0.279-0.199-0.576-0.373-0.882-0.529c-1.012,0.859-2.228,1.46-3.545,1.734c-0.205,0.565-0.472,1.121-0.817,1.648
	c-1.275,1.948-3.304,3.192-5.514,3.518c0.23,1.891,1.221,3.593,2.779,4.713c2.365,1.701,5.552,1.714,7.931,0.027l0.183-0.129
	l1.063,0.129c0.169-0.447,0.42-0.902,0.74-1.338C54.838,55.782,55.188,55.402,55.557,55.102z M52.296,46.857l-0.671,0.935
	c1.159,0.836,1.906,2.069,2.104,3.474l1.14-0.158C54.631,49.412,53.693,47.864,52.296,46.857z M48.086,33.711l-0.277,1.117
	c1.387,0.345,2.539,1.214,3.24,2.443l1-0.568C51.201,35.218,49.757,34.127,48.086,33.711z"/>
</svg>
