<?xml version="1.0" encoding="utf-8"?>
<!-- Generator: Adobe Illustrator 16.0.0, SVG Export Plug-In . SVG Version: 6.00 Build 0)  -->
<!DOCTYPE svg PUBLIC "-//W3C//DTD SVG 1.1//EN" "http://www.w3.org/Graphics/SVG/1.1/DTD/svg11.dtd">
<svg version="1.1" id="Layer_1" xmlns="http://www.w3.org/2000/svg" xmlns:xlink="http://www.w3.org/1999/xlink" x="0px" y="0px"
	 width="72px" height="72px" viewBox="0 0 72 72" enable-background="new 0 0 72 72" xml:space="preserve">
<path fill="#444444" d="M41.402,22.173c0-4.384-4.143-7.951-9.236-7.951c-5.091,0-9.234,3.567-9.234,7.951
	c0,3.189,2.063,5.098,6.141,5.695l-0.106,4.127c-1.388-2.32-4.256-3.922-7.573-3.922c-4.668,0-8.465,3.165-8.465,7.054
	c0,2.771,1.805,4.452,5.361,5.028l-0.616,13.987c-0.043,1.022,0.324,1.993,1.033,2.731c0.708,0.737,1.663,1.146,2.686,1.146
	s1.975-0.408,2.684-1.146s1.075-1.709,1.033-2.732l-0.617-13.985c1.993-0.322,3.432-0.993,4.314-2.008l-0.413,16.005
	c-0.026,1.024,0.355,1.994,1.07,2.728c0.717,0.735,1.676,1.14,2.701,1.14s1.984-0.406,2.704-1.14
	c0.715-0.735,1.095-1.705,1.07-2.728l-0.678-26.284C39.34,27.27,41.402,25.361,41.402,22.173z M23.571,54.208
	c0.026,0.601-0.189,1.168-0.605,1.603c-0.83,0.866-2.318,0.866-3.149,0c-0.416-0.435-0.63-1.002-0.606-1.603l0.612-13.882
	c0.499,0.034,1.017,0.057,1.57,0.057c0.552,0,1.069-0.022,1.567-0.057L23.571,54.208z M21.393,38.844
	c-6.926,0-6.926-2.797-6.926-3.717c0-3.041,3.107-5.515,6.926-5.515c3.818,0,6.925,2.473,6.926,5.515
	C28.319,36.047,28.319,38.844,21.393,38.844z M24.471,22.172c0-3.535,3.452-6.412,7.695-6.412c4.244,0,7.697,2.877,7.697,6.412
	c0,1.079,0,4.361-7.697,4.361C24.471,26.533,24.471,23.251,24.471,22.172z M34.4,54.191c0.015,0.604-0.211,1.179-0.635,1.613
	c-0.848,0.869-2.348,0.869-3.196,0c-0.424-0.433-0.65-1.009-0.634-1.613l0.675-26.171c0.498,0.031,1.011,0.053,1.556,0.053
	c0.547,0,1.061-0.021,1.559-0.053L34.4,54.191z M59.102,45c0-3.395-3.106-6.156-6.926-6.156c-2.534,0-4.749,1.221-5.957,3.031
	l-0.182-4.896c3.08-0.743,3.83-2.638,3.83-4.29c0-3.394-3.109-6.156-6.926-6.156c-3.818,0-6.928,2.761-6.928,6.156
	c0,1.653,0.75,3.548,3.834,4.291l-0.643,17.166c-0.037,1.022,0.334,1.989,1.045,2.729s1.666,1.145,2.691,1.145
	c1.023,0,1.979-0.408,2.689-1.146s1.082-1.706,1.045-2.729l-0.229-6.164c0.641,0.611,1.589,1.114,2.981,1.395L48.939,54.5
	c-0.076,0.902,0.232,1.803,0.846,2.469c0.613,0.667,1.484,1.051,2.391,1.051s1.777-0.384,2.387-1.051
	c0.617-0.666,0.922-1.566,0.848-2.469l-0.488-5.125C58.305,48.696,59.102,46.715,59.102,45z M37.555,32.69
	c0-2.546,2.416-4.617,5.387-4.617c2.969,0,5.387,2.071,5.387,4.617c0,1.321-0.559,3.078-5.387,3.078S37.555,34.011,37.555,32.69z
	 M44.525,55.807c-0.838,0.865-2.332,0.865-3.168,0c-0.418-0.435-0.637-1.005-0.615-1.606l0.636-16.972
	c0.482,0.047,0.995,0.078,1.563,0.078s1.081-0.031,1.563-0.078L45.141,54.2C45.162,54.8,44.943,55.37,44.525,55.807z M53.877,54.629
	c0.039,0.48-0.115,0.944-0.443,1.298c-0.658,0.712-1.865,0.712-2.518,0c-0.328-0.356-0.482-0.817-0.443-1.299l0.482-5.058
	c0.384,0.028,0.785,0.047,1.221,0.047c0.435,0,0.835-0.019,1.219-0.047L53.877,54.629z M52.176,48.078
	c-4.828,0-5.387-1.758-5.387-3.078c0-2.546,2.416-4.617,5.387-4.617s5.387,2.071,5.387,4.617
	C57.563,46.32,57.004,48.078,52.176,48.078z"/>
</svg>
