<?xml version="1.0" encoding="utf-8"?>
<!-- Generator: Adobe Illustrator 16.0.0, SVG Export Plug-In . SVG Version: 6.00 Build 0)  -->
<!DOCTYPE svg PUBLIC "-//W3C//DTD SVG 1.1//EN" "http://www.w3.org/Graphics/SVG/1.1/DTD/svg11.dtd">
<svg version="1.1" id="Layer_1" xmlns="http://www.w3.org/2000/svg" xmlns:xlink="http://www.w3.org/1999/xlink" x="0px" y="0px"
	 width="71.998px" height="71.998px" viewBox="0 0 71.998 71.998" enable-background="new 0 0 71.998 71.998" xml:space="preserve">
<path fill="#444444" d="M60.892,34.92c-0.531-1.646-2.178-5.473-5.961-5.473c-0.459,0.003-0.945,0.061-1.433,0.18
	c-2.647,0.639-3.644,2.127-4.604,3.566c-0.976,1.461-1.896,2.84-4.668,3.648c-0.715,0.195-1.359,0.291-1.974,0.291
	c-1.433,0-2.407-0.529-3.44-1.093c-1.013-0.552-2.058-1.122-3.471-1.122c-0.865,0-1.776,0.214-2.784,0.655
	c-3.673,1.602-4.261,5.389-3.586,8.398c1.294,5.775,6.689,9.508,13.741,9.508c1.854,0,3.801-0.254,5.787-0.752
	c0.041-0.008,0.082-0.021,0.121-0.035c5.396-1.713,9.477-4.85,11.492-8.832C61.576,40.965,61.845,37.874,60.892,34.92z
	 M58.813,43.176c-1.836,3.634-5.621,6.511-10.651,8.103c-1.876,0.473-3.709,0.712-5.447,0.712c-6.343,0-11.179-3.277-12.315-8.349
	c-0.263-1.177-0.846-5.136,2.737-6.699c0.822-0.355,1.544-0.53,2.208-0.53c1.049,0,1.849,0.437,2.78,0.942
	c1.095,0.597,2.334,1.271,4.133,1.271c0.743,0,1.515-0.11,2.365-0.347c3.291-0.963,4.457-2.705,5.485-4.247
	c0.912-1.367,1.634-2.446,3.729-2.953c0.378-0.092,0.747-0.138,1.097-0.138c2.828,0.001,4.135,3.111,4.567,4.448
	C60.331,37.953,60.095,40.647,58.813,43.176z M32.528,33.847c1.73-0.562,3.52-1.143,4.687-4.247
	c1.433-3.804-0.818-6.874-3.406-8.479c-1.751-1.086-3.685-1.637-5.748-1.637c-5.259,0-10.506,3.676-14.035,9.833
	c-0.006,0.012-0.013,0.022-0.018,0.033c-0.004,0.007-0.007,0.013-0.01,0.02c-2.574,5.153-3.219,10.333-1.818,14.595
	c1.012,3.089,2.999,5.44,5.743,6.804c0.982,0.487,2.494,1.069,4.109,1.069h0.001c2.052,0,3.701-0.964,4.769-2.787
	c1.396-2.382,1.042-4.145,0.699-5.85c-0.347-1.729-0.676-3.367,0.687-5.958C29.507,34.826,30.975,34.349,32.528,33.847z
	 M26.903,36.528c-1.618,3.074-1.203,5.145-0.835,6.971c0.325,1.62,0.582,2.898-0.522,4.786c-0.812,1.385-1.96,2.059-3.512,2.059
	h-0.001c-1.407,0-2.777-0.575-3.468-0.92c-2.383-1.183-4.112-3.233-4.999-5.937c-1.274-3.869-0.662-8.632,1.726-13.422
	c0.002-0.005,0.004-0.008,0.006-0.012c3.264-5.685,8.034-9.079,12.763-9.079c1.791,0,3.469,0.478,4.987,1.419
	c1.011,0.627,4.197,2.962,2.803,6.671c-0.917,2.435-2.174,2.844-3.768,3.36C30.409,32.968,28.511,33.583,26.903,36.528z
	 M29.603,24.292c-0.078,0.402-0.462,0.663-0.856,0.588c-0.243-0.047-5.493-0.919-10.069,6.901c-0.137,0.234-0.38,0.363-0.629,0.363
	c-0.128,0-0.258-0.034-0.375-0.105c-0.346-0.21-0.461-0.668-0.253-1.022c5.143-8.788,11.344-7.656,11.606-7.601
	C29.423,23.496,29.682,23.888,29.603,24.292z M47.253,48.424c0.068,0.406-0.199,0.793-0.596,0.862
	c-1.409,0.247-2.678,0.355-3.82,0.355c-7.841,0-9.668-5.123-9.751-5.373c-0.131-0.388,0.073-0.812,0.454-0.947
	c0.383-0.131,0.796,0.074,0.928,0.462c0.088,0.248,2.152,5.756,11.941,4.032C46.81,47.746,47.187,48.021,47.253,48.424z"/>
</svg>
