<?xml version="1.0" encoding="utf-8"?>
<!-- Generator: Adobe Illustrator 16.0.0, SVG Export Plug-In . SVG Version: 6.00 Build 0)  -->
<!DOCTYPE svg PUBLIC "-//W3C//DTD SVG 1.1//EN" "http://www.w3.org/Graphics/SVG/1.1/DTD/svg11.dtd">
<svg version="1.1" id="Layer_1" xmlns="http://www.w3.org/2000/svg" xmlns:xlink="http://www.w3.org/1999/xlink" x="0px" y="0px"
	 width="72px" height="72px" viewBox="0 0 72 72" enable-background="new 0 0 72 72" xml:space="preserve">
<path fill="#444444" d="M56.617,33.614c0.244-0.625,0.371-1.299,0.371-1.977c0-1.502-0.615-2.862-1.606-3.844
	c0.453-0.803,0.694-1.702,0.694-2.643c0-2.986-2.43-5.415-5.416-5.415c-0.014,0-0.026,0-0.04,0
	c-0.891-2.182-3.036-3.653-5.438-3.653c-1.217,0-2.377,0.368-3.354,1.049c-1.357-1.794-3.491-2.875-5.777-2.875
	c-1.521,0-3.002,0.48-4.229,1.363c-0.679-0.295-1.417-0.45-2.164-0.45c-2.396,0-4.467,1.569-5.165,3.782
	c-0.401-0.085-0.812-0.129-1.227-0.129c-3.238,0-5.872,2.635-5.872,5.873c0,1.002,0.263,1.988,0.747,2.857
	c-0.74,0.803-1.203,1.865-1.203,3.04c0,0.043,0,0.086,0.002,0.129c-1.664,0.83-2.741,2.537-2.741,4.437
	c0,1.254,0.471,2.446,1.309,3.357c-0.26,0.673-0.396,1.396-0.396,2.121c0,3.238,2.634,5.872,5.872,5.872
	c1.33,0,2.544-0.46,3.53-1.208c3.557,2.037,7.034,4.895,7.034,10.336v2.324h12.656v-5.415c0-1.806,0.875-5.52,6.562-10.31
	c0.546,0.186,1.123,0.295,1.72,0.295c2.986,0,5.416-2.429,5.416-5.414C57.902,35.833,57.44,34.587,56.617,33.614z M52.486,40.832
	c-1.636,0-3.101-1.095-3.563-2.661c-0.065-0.22-0.216-0.403-0.419-0.511c-0.203-0.106-0.44-0.128-0.657-0.057
	c-0.342,0.109-0.701,0.166-1.067,0.166c-1.923,0-3.488-1.565-3.488-3.488h-1.699c0,0.941,0.271,1.812,0.711,2.573
	c-1.736,2.488-3.45,6.942-3.45,12.724h1.699c0-0.737,0.03-1.449,0.085-2.138c2.001-3.326,4.867-5.903,7.134-7.69
	c0.356,0.632,0.83,1.181,1.395,1.62c-5.759,5.038-6.659,9.133-6.659,11.176v3.716h-9.257v-0.625c0-6.682-4.716-9.981-7.507-11.597
	c0.522-0.728,0.899-1.567,1.043-2.489c0.697,0.284,1.445,0.431,2.217,0.431c0.129,0,0.254-0.019,0.382-0.027
	c2.093,1.419,4.595,3.434,5.837,5.155c-0.161,0.757-0.335,1.511-0.531,2.251l1.644,0.436c0.959-3.63,1.522-7.54,1.579-10.853
	c0.763-0.257,1.468-0.686,2.023-1.284l-1.246-1.156c-1.115,1.2-3.067,1.362-4.359,0.373c-0.221-0.171-0.513-0.219-0.778-0.134
	c-0.266,0.086-0.473,0.297-0.553,0.564c-0.524,1.752-2.168,2.976-3.999,2.976c-0.915,0-1.783-0.291-2.51-0.84
	c-0.271-0.203-0.637-0.229-0.931-0.061c-0.295,0.166-0.462,0.492-0.427,0.829c0.015,0.141,0.021,0.282,0.021,0.426
	c0,2.301-1.872,4.173-4.172,4.173s-4.172-1.872-4.172-4.173c0-0.671,0.163-1.337,0.47-1.927c0.185-0.354,0.098-0.79-0.209-1.046
	c-0.747-0.623-1.174-1.536-1.174-2.506c0-1.403,0.892-2.645,2.221-3.09c0.4-0.134,0.641-0.541,0.566-0.956
	c-0.03-0.168-0.047-0.342-0.047-0.52c0-1.445,1.104-2.624,2.51-2.772c-0.045,0.257-0.075,0.518-0.075,0.786
	c0,1.456,0.697,2.801,1.854,3.641c-0.018,0.154-0.027,0.311-0.027,0.468c0,1.505,0.828,2.877,2.16,3.579l0.793-1.504
	c-0.772-0.407-1.252-1.203-1.252-2.075c0-0.222,0.03-0.438,0.089-0.643c0.111-0.387-0.064-0.798-0.42-0.986
	c-0.923-0.488-1.496-1.438-1.496-2.479c0-1.283,0.866-2.4,2.107-2.716c0.337-0.086,0.587-0.368,0.633-0.712
	c0.213-1.611,1.602-2.826,3.23-2.826c1.121,0,2.15,0.566,2.754,1.514c0.216,0.339,0.636,0.479,1.012,0.341
	c0.41-0.152,0.842-0.229,1.285-0.229c1.258,0,2.402,0.634,3.083,1.654c-0.36,0.278-0.685,0.604-0.949,0.983
	c-0.282-0.07-0.573-0.105-0.87-0.105c-1.979,0-3.589,1.61-3.589,3.589c0,0.541,0.119,1.063,0.354,1.553l1.533-0.735
	c-0.124-0.258-0.187-0.533-0.187-0.817c0-1.042,0.848-1.889,1.889-1.889c0.303,0,0.593,0.069,0.86,0.206
	c0.207,0.106,0.447,0.123,0.665,0.046c0.219-0.075,0.396-0.237,0.494-0.447c0.5-1.083,1.687-1.736,2.845-1.617
	c0.314,0.036,0.61-0.105,0.788-0.36c0.645-0.927,1.704-1.481,2.833-1.481c1.901,0,3.449,1.547,3.449,3.449
	c0,0.597-0.154,1.184-0.445,1.698c-0.139,0.246-0.146,0.545-0.021,0.798c0.127,0.253,0.371,0.426,0.651,0.463
	c0.935,0.122,1.641,0.927,1.641,1.874c0,0.157-0.019,0.311-0.056,0.456l1.648,0.416c0.071-0.281,0.106-0.575,0.106-0.872
	c0-1.423-0.84-2.678-2.072-3.254c0.162-0.508,0.246-1.041,0.246-1.579c0-2.839-2.31-5.149-5.148-5.149
	c-1.523,0-2.961,0.675-3.935,1.826c-0.411,0.001-0.813,0.065-1.199,0.174c-0.976-1.589-2.71-2.581-4.615-2.581
	c-0.425,0-0.843,0.049-1.25,0.146c-0.938-1.12-2.316-1.771-3.8-1.771c-2.292,0-4.272,1.583-4.813,3.762
	c-0.875,0.342-1.599,0.945-2.102,1.701c-0.129-0.011-0.259-0.023-0.389-0.023c-0.686,0-1.329,0.166-1.911,0.441
	c-0.28-0.567-0.436-1.187-0.436-1.836c0-2.301,1.872-4.173,4.172-4.173c0.532,0,1.052,0.1,1.546,0.296
	c0.244,0.096,0.521,0.075,0.748-0.059c0.227-0.135,0.378-0.367,0.41-0.628c0.226-1.859,1.811-3.261,3.688-3.261
	c0.648,0,1.285,0.168,1.841,0.487c0.31,0.178,0.699,0.143,0.972-0.089c0.999-0.846,2.27-1.312,3.58-1.312
	c2.01,0,3.867,1.092,4.845,2.851c0.13,0.233,0.36,0.392,0.624,0.429c0.267,0.036,0.53-0.052,0.719-0.239
	c0.787-0.783,1.832-1.214,2.943-1.214c1.876,0,3.532,1.262,4.025,3.07c0.112,0.411,0.519,0.675,0.934,0.618
	c0.17-0.023,0.343-0.035,0.52-0.035c2.049,0,3.717,1.667,3.717,3.715c0,0.582-0.14,1.138-0.393,1.646
	c-0.728-0.364-1.545-0.574-2.412-0.574c-0.516,0-1.03,0.074-1.531,0.22l0.477,1.632c0.346-0.101,0.7-0.152,1.055-0.152
	c2.049,0,3.717,1.667,3.717,3.715c0,0.62-0.146,1.207-0.434,1.745c-0.181,0.339-0.111,0.758,0.169,1.021
	c0.76,0.71,1.179,1.674,1.179,2.714C56.203,39.165,54.535,40.832,52.486,40.832z M43.427,38.206c0.62,0.53,1.355,0.924,2.176,1.116
	c-1.423,1.192-2.972,2.651-4.385,4.371C41.763,41.392,42.58,39.532,43.427,38.206z M35.637,44.937
	c-1.267-1.368-2.885-2.655-4.103-3.547c1.143-0.553,2.103-1.457,2.694-2.602c0.617,0.287,1.297,0.416,1.981,0.421
	C36.163,40.995,35.967,42.949,35.637,44.937z"/>
</svg>
