<?xml version="1.0" encoding="utf-8"?>
<!-- Generator: Adobe Illustrator 16.0.0, SVG Export Plug-In . SVG Version: 6.00 Build 0)  -->
<!DOCTYPE svg PUBLIC "-//W3C//DTD SVG 1.1//EN" "http://www.w3.org/Graphics/SVG/1.1/DTD/svg11.dtd">
<svg version="1.1" id="Layer_1" xmlns="http://www.w3.org/2000/svg" xmlns:xlink="http://www.w3.org/1999/xlink" x="0px" y="0px"
	 width="72px" height="72px" viewBox="0 0 72 72" enable-background="new 0 0 72 72" xml:space="preserve">
<path fill="#444444" d="M36.076,12.993c-12.729,0-23.084,10.356-23.084,23.084c0,12.728,10.356,23.082,23.084,23.082
	c12.727,0,23.082-10.354,23.082-23.082C59.158,23.349,48.803,12.993,36.076,12.993z M36.076,57.729
	c-11.938,0-21.652-9.713-21.652-21.65c0-11.939,9.714-21.653,21.652-21.653c11.938,0,21.65,9.714,21.65,21.653
	C57.727,48.016,48.014,57.729,36.076,57.729z M36.076,17.934c-10.004,0-18.143,8.139-18.143,18.144
	c0.001,10.002,8.139,18.143,18.143,18.143c10.002,0,18.141-8.141,18.141-18.143C54.217,26.074,46.078,17.934,36.076,17.934z
	 M36.076,52.787c-9.215,0-16.711-7.496-16.711-16.709c0-9.216,7.496-16.712,16.711-16.712c9.213,0,16.709,7.496,16.709,16.712
	C52.785,45.291,45.289,52.787,36.076,52.787z M36.076,33.04c1.581,0,2.29-2.811,2.29-5.597c0-2.786-0.709-5.597-2.29-5.597
	c-1.584,0-2.291,2.811-2.291,5.597C33.785,30.229,34.492,33.04,36.076,33.04z M36.076,23.32c0.301,0.313,0.859,1.704,0.859,4.123
	c0,2.418-0.56,3.81-0.859,4.124c-0.3-0.313-0.859-1.706-0.859-4.124C35.217,25.024,35.776,23.634,36.076,23.32z M36.076,39.113
	c-1.584,0-2.291,2.811-2.291,5.597c0,2.785,0.707,5.597,2.291,5.597c1.581,0,2.29-2.812,2.29-5.597
	C38.366,41.924,37.657,39.113,36.076,39.113z M36.076,48.832c-0.3-0.313-0.859-1.704-0.859-4.122c0-2.419,0.56-3.81,0.859-4.123
	c0.301,0.313,0.859,1.704,0.859,4.123C36.938,47.128,36.377,48.52,36.076,48.832z M44.707,33.786
	c-2.784-0.001-5.596,0.708-5.596,2.292c0,1.581,2.812,2.29,5.596,2.29c2.787,0,5.598-0.709,5.598-2.29
	C50.305,34.494,47.494,33.786,44.707,33.786z M44.707,36.936c-2.418,0-3.809-0.56-4.123-0.857c0.314-0.301,1.705-0.861,4.123-0.861
	c2.42,0,3.813,0.561,4.125,0.861C48.52,36.376,47.127,36.936,44.707,36.936z M33.039,36.078c0-1.584-2.812-2.292-5.597-2.292
	c-2.786,0-5.597,0.708-5.597,2.292c0,1.581,2.811,2.29,5.597,2.29C30.228,38.367,33.039,37.658,33.039,36.078z M27.442,35.216
	c2.419,0,3.81,0.561,4.124,0.861c-0.314,0.299-1.705,0.858-4.124,0.858s-3.81-0.561-4.124-0.858
	C23.633,35.777,25.023,35.216,27.442,35.216z M38.227,33.932c0.174,0.177,0.494,0.388,1.017,0.388c1.354,0,3.245-1.404,4.563-2.718
	c0.973-0.973,1.771-2.018,2.248-2.945c0.762-1.488,0.471-2.252,0.094-2.631c-0.178-0.176-0.496-0.387-1.018-0.387
	c-1.355,0-3.246,1.403-4.563,2.718C38.596,30.324,37.105,32.81,38.227,33.932z M41.58,29.371c1.434-1.433,2.826-2.232,3.523-2.292
	c-0.02,0.447-0.613,1.816-2.311,3.509c-1.477,1.472-2.906,2.276-3.525,2.299C39.279,32.449,39.871,31.073,41.58,29.371z
	 M33.925,38.221c-0.175-0.177-0.495-0.387-1.016-0.387c-1.356,0-3.247,1.404-4.564,2.717c-1.972,1.969-3.46,4.455-2.343,5.576
	c0.177,0.176,0.496,0.387,1.018,0.387c1.355,0,3.246-1.402,4.563-2.717c0.976-0.971,1.773-2.018,2.25-2.943
	C34.595,39.365,34.304,38.6,33.925,38.221z M30.572,42.783c-1.477,1.473-2.908,2.275-3.526,2.299
	c0.013-0.438,0.604-1.814,2.311-3.518c1.435-1.433,2.827-2.23,3.526-2.289C32.862,39.723,32.268,41.091,30.572,42.783z
	 M43.795,40.568c-1.314-1.318-3.203-2.728-4.561-2.728c-0.521,0-0.838,0.209-1.014,0.386c-0.382,0.377-0.673,1.141,0.088,2.629
	c0.474,0.929,1.27,1.977,2.239,2.951c1.317,1.317,3.206,2.728,4.563,2.728c0.52,0,0.838-0.21,1.014-0.386
	c0.379-0.379,0.672-1.142-0.088-2.631C45.563,42.591,44.768,41.544,43.795,40.568z M41.563,42.795
	c-1.701-1.707-2.289-3.084-2.303-3.521c0.621,0.021,2.049,0.828,3.521,2.307c1.703,1.707,2.291,3.084,2.304,3.521
	C44.466,45.079,43.037,44.271,41.563,42.795z M28.355,31.583c1.316,1.319,3.205,2.729,4.563,2.729c0.519,0,0.836-0.209,1.012-0.386
	c0.381-0.377,0.672-1.141-0.087-2.63c-0.474-0.928-1.271-1.976-2.242-2.95c-1.316-1.319-3.206-2.728-4.562-2.728
	c-0.52,0-0.838,0.209-1.014,0.384c-0.379,0.379-0.672,1.142,0.088,2.631C26.587,29.562,27.384,30.609,28.355,31.583z M30.587,29.357
	c1.702,1.708,2.29,3.084,2.304,3.522c-0.621-0.024-2.049-0.831-3.521-2.307c-1.703-1.707-2.291-3.084-2.303-3.522
	C27.686,27.074,29.113,27.881,30.587,29.357z"/>
</svg>
