<?xml version="1.0" encoding="utf-8"?>
<!-- Generator: Adobe Illustrator 16.0.0, SVG Export Plug-In . SVG Version: 6.00 Build 0)  -->
<!DOCTYPE svg PUBLIC "-//W3C//DTD SVG 1.1//EN" "http://www.w3.org/Graphics/SVG/1.1/DTD/svg11.dtd">
<svg version="1.1" id="Layer_1" xmlns="http://www.w3.org/2000/svg" xmlns:xlink="http://www.w3.org/1999/xlink" x="0px" y="0px"
	 width="72px" height="72px" viewBox="0 0 72 72" enable-background="new 0 0 72 72" xml:space="preserve">
<path fill="#444444" d="M56.279,47.859c-0.619-0.834-1.693-0.355-3.646,0.514c-2.568,1.145-6.449,2.875-10.676,2.486
	c-6.201-0.566-6.75-5.053-7.58-11.844c-0.068-0.558-0.138-1.127-0.212-1.703c-0.788-6.136-2.51-9.162-3.542-10.479
	c0.109,0,0.227,0.018,0.362,0.054c0.066,0.019,0.134,0.027,0.2,0.027c0.005,0,0.011-0.001,0.015,0c0.421,0,0.762-0.342,0.762-0.763
	c0-0.248-0.118-0.467-0.301-0.606c-0.674-0.715-4.898-5.009-9.328-5.25c-0.475-0.528-0.707-3.594-0.497-6.678
	c0.017-0.254-0.093-0.5-0.294-0.654c-0.202-0.156-0.468-0.201-0.708-0.121l-3.436,1.146c-0.359,0.12-0.576,0.485-0.509,0.858
	c0,0,0.806,4.469,1.25,7.022c-0.069,0.128-0.196,0.337-0.303,0.513c-0.956,1.573-2.945,4.849-2.036,8.799
	c0.07,0.307,0.321,0.538,0.632,0.584c0.037,0.005,0.074,0.008,0.11,0.008c0.271,0,0.525-0.145,0.663-0.386
	c0.03-0.053,0.067-0.115,0.108-0.182c-0.054,2.657,0.286,7.684,2.576,15.197C23.045,56.75,30.29,59.218,36.483,59.217
	c3.101,0,5.94-0.619,7.869-1.177c8.094-2.347,11.59-8.078,12.021-9.371C56.477,48.354,56.445,48.081,56.279,47.859z M17.101,28.942
	c0.071-2.527,1.354-4.639,2.039-5.768c0.413-0.68,0.602-0.99,0.534-1.384c-0.338-1.945-0.919-5.188-1.166-6.563l1.749-0.584
	c-0.078,2.058-0.047,5.559,0.964,6.69c0.338,0.378,0.714,0.471,0.969,0.48c2.848,0.126,5.766,2.372,7.311,3.764
	c-0.297,0.149-0.541,0.338-0.747,0.497c-0.351,0.271-0.545,0.411-0.806,0.411c-0.3,0-0.731-0.188-1.249-0.545
	c-0.514-0.353-0.984-0.524-1.438-0.524c-1.059,0-1.598,0.895-1.992,1.547c-0.202,0.335-0.477,0.792-0.656,0.792
	c-0.052,0-0.206-0.021-0.504-0.223c-0.507-0.343-1.055-0.518-1.628-0.518C19.123,27.015,17.933,27.997,17.101,28.942z
	 M43.928,56.575C37.288,58.5,25.53,59.677,21.35,45.958c-2.949-9.67-2.581-15-2.398-16.404c0.013-0.097,0.003-0.191-0.02-0.281
	c0.492-0.423,1.031-0.733,1.547-0.733c0.266,0,0.519,0.084,0.773,0.256c0.482,0.327,0.927,0.484,1.358,0.484
	c1.04,0,1.573-0.883,1.961-1.528c0.218-0.362,0.488-0.811,0.687-0.811c0.061,0,0.237,0.024,0.574,0.257
	c0.807,0.555,1.478,0.813,2.114,0.813c0.552,0,0.969-0.199,1.317-0.429c0.782,0.919,2.58,3.637,3.388,9.924
	c0.074,0.575,0.144,1.143,0.211,1.696c0.854,6.981,1.528,12.497,8.955,13.176c4.617,0.423,8.888-1.478,11.437-2.612
	c0.36-0.162,0.745-0.332,1.088-0.476C53.102,51.205,49.873,54.854,43.928,56.575z"/>
</svg>
