<?xml version="1.0" encoding="utf-8"?>
<!-- Generator: Adobe Illustrator 16.0.0, SVG Export Plug-In . SVG Version: 6.00 Build 0)  -->
<!DOCTYPE svg PUBLIC "-//W3C//DTD SVG 1.1//EN" "http://www.w3.org/Graphics/SVG/1.1/DTD/svg11.dtd">
<svg version="1.1" id="Layer_1" xmlns="http://www.w3.org/2000/svg" xmlns:xlink="http://www.w3.org/1999/xlink" x="0px" y="0px"
	 width="72px" height="72px" viewBox="0 0 72 72" enable-background="new 0 0 72 72" xml:space="preserve">
<path fill="#444444" d="M57.793,33.71c-0.355-1.587-1.068-3.019-2.029-4.679c-0.336-0.578-0.793-1.293-1.234-1.984l-0.084-0.131
	c-0.426-0.669-0.857-1.348-1.155-1.871c-0.131-0.227-0.375-0.369-0.638-0.369c-0.066,0-0.133,0.008-0.197,0.027
	c-0.324,0.092-0.543,0.391-0.533,0.728c0.109,3.799-0.503,6.448-1.982,8.59c-1,1.45-2.369,2.264-3.821,3.127
	c-1.034,0.612-2.103,1.246-3.062,2.137c-1.356,1.256-2.064,2.913-2.104,4.924c-0.035,1.747,0.421,3.509,0.872,5.003
	c0.234,0.781,0.232,2.808-0.082,3.595c-0.398,0.99-1.469,2.316-2.176,3.193c-0.322,0.4-0.576,0.717-0.727,0.945
	c-0.139,0.213-0.158,0.477-0.053,0.707c0.105,0.229,0.316,0.388,0.568,0.422c0.424,0.056,0.931,0.083,1.504,0.083
	c0.211,0,0.429-0.005,0.645-0.013c0.959-0.033,1.805-0.176,2.51-0.422c1.514-0.533,3.305-1.967,3.639-3.574
	c0.173-0.83,0.164-1.612,0.158-2.313c-0.012-1-0.021-1.862,0.457-2.774c0.834-1.597,2.387-2.33,4.037-3.108
	c0.979-0.461,1.993-0.938,2.913-1.629c1.728-1.298,2.743-3.084,3.017-5.312C58.467,37.105,58.121,35.177,57.793,33.71z
	 M54.34,43.152c-0.792,0.595-1.699,1.022-2.658,1.476c-1.793,0.845-3.647,1.718-4.711,3.753c-0.648,1.24-0.636,2.374-0.623,3.471
	c0.008,0.678,0.014,1.316-0.129,2c-0.205,0.996-1.557,2.092-2.689,2.489c-0.184,0.064-0.391,0.117-0.606,0.164
	c0.063-0.04,0.138-0.075,0.196-0.116c0.714-0.503,1.309-1.342,1.814-2.565c0.568-1.378,0.502-2.819,0.438-4.214
	c-0.055-1.183-0.105-2.299,0.227-3.299c0.334-1.013,0.987-2.047,1.938-3.076c0.132-0.143,0.202-0.33,0.194-0.524
	c-0.006-0.196-0.09-0.377-0.234-0.51c-0.137-0.125-0.313-0.194-0.497-0.194c-0.203,0-0.399,0.086-0.538,0.234
	c-1.095,1.183-1.854,2.396-2.255,3.607c-0.416,1.258-0.356,2.564-0.298,3.846c0.059,1.285,0.113,2.5-0.329,3.57
	c-0.397,0.957-0.824,1.588-1.306,1.93c-0.117,0.082-0.268,0.162-0.414,0.241c0.508-0.695,0.976-1.416,1.242-2.085
	c0.453-1.131,0.446-3.494,0.125-4.563c-0.939-3.11-1.488-6.282,0.826-8.428c0.846-0.784,1.801-1.351,2.813-1.951
	c1.521-0.904,3.094-1.84,4.278-3.553c1.234-1.788,1.944-3.909,2.172-6.485l0.041-0.44l0.236,0.373
	c0.334,0.525,0.657,1.04,0.901,1.462c0.894,1.545,1.555,2.862,1.868,4.265C57.083,37.248,57.406,40.848,54.34,43.152z
	 M54.279,36.979c0.047,0.191,0.016,0.389-0.088,0.556c-0.201,0.331-0.442,0.646-0.695,0.909c-0.584,0.611-1.148,1.022-1.818,1.453
	c-0.172,0.108-0.346,0.225-0.521,0.344c-0.123,0.08-0.265,0.123-0.409,0.123c-0.245,0-0.473-0.121-0.609-0.324
	c-0.226-0.335-0.136-0.791,0.2-1.018l0.545-0.357c0.603-0.387,1.07-0.729,1.554-1.232c0.176-0.185,0.354-0.418,0.504-0.662
	c0.136-0.22,0.369-0.352,0.627-0.352c0.135,0,0.267,0.037,0.382,0.107C54.117,36.627,54.234,36.788,54.279,36.979z M49.473,41.109
	c0,0.226-0.101,0.435-0.275,0.574c-0.165,0.146-0.338,0.211-0.518,0.211H48.65c-0.394-0.014-0.705-0.334-0.705-0.73
	c0.017-0.461,0.434-0.786,0.796-0.786C49.145,40.378,49.473,40.706,49.473,41.109z M37.945,56.227
	c-0.025-0.299,0.016-0.6,0.061-0.92c0.094-0.656,0.209-1.473-0.355-2.334c-0.256-0.391-0.586-0.695-0.885-0.971
	c-0.328-0.299-0.608-0.557-0.751-0.874c-0.764-1.69,0.579-4.573,1.78-6.081c5.38-6.758,5.081-10.198,4.884-12.474l-0.018-0.197
	c-0.219-2.594-2.493-6.222-4.374-8.54c-0.951-1.177-1.646-3.089-1.884-4.367c-0.268-1.429,0.17-3.316,1.116-4.805
	c0.18-0.286,0.143-0.656-0.09-0.9c-0.137-0.143-0.33-0.225-0.529-0.225c-0.129,0-0.256,0.035-0.369,0.099
	c-2.839,1.637-4.453,3.702-5.162,4.788c-1.393,2.138-2.658,4.264-2.841,6.784c-0.205,2.835,0.799,5.489,1.762,7.763
	c0.631,1.49,1.129,2.667,1.02,4.188c-0.111,1.534-0.688,2.868-1.301,4.287c-0.477,1.102-0.97,2.241-1.239,3.503
	c-0.794,3.714,0.507,7.572,2.05,9.588c2.275,2.971,5.505,3.682,6.607,3.923c0.054,0.011,0.106,0.017,0.159,0.017
	c0.176,0,0.346-0.063,0.48-0.181c0.174-0.151,0.268-0.379,0.25-0.608c-0.027-0.328-0.127-0.627-0.217-0.895
	C38.02,56.57,37.961,56.385,37.945,56.227z M31.981,53.648c-1.344-1.756-2.475-5.131-1.78-8.392c0.239-1.12,0.681-2.143,1.153-3.233
	c0.634-1.463,1.288-2.978,1.416-4.758c0.134-1.873-0.482-3.325-1.136-4.873c-0.892-2.106-1.829-4.563-1.646-7.076
	c0.157-2.176,1.273-4.045,2.606-6.089c0.403-0.617,1.114-1.562,2.22-2.553l0.352-0.315l-0.104,0.459
	c-0.237,1.034-0.27,2.017-0.102,2.92c0.282,1.502,1.065,3.637,2.187,5.02c1.828,2.257,3.877,5.64,4.054,7.74l0.017,0.203
	c0.188,2.167,0.446,5.136-4.57,11.435c-1.192,1.497-3.134,5.012-1.968,7.596c0.267,0.59,0.705,0.994,1.094,1.351
	c0.24,0.22,0.49,0.449,0.65,0.692c0.251,0.383,0.217,0.72,0.133,1.328c-0.032,0.229-0.059,0.481-0.071,0.748
	c-2.195-2.153-3.155-4.913-3.279-6.062c-0.334-3.127,1.162-6.539,2.504-9.162c0.192-0.377,0.406-0.739,0.635-1.13
	c0.774-1.316,1.573-2.678,1.397-4.479c-0.205-2.133-1.044-3.789-1.854-5.392c-0.324-0.643-0.658-1.307-0.959-2.008
	c-0.222-0.516-0.372-1.065-0.46-1.678c-0.052-0.359-0.363-0.63-0.724-0.63c-0.035,0-0.07,0.003-0.105,0.008
	c-0.193,0.028-0.365,0.13-0.482,0.286c-0.118,0.157-0.167,0.35-0.139,0.543c0.106,0.74,0.291,1.41,0.563,2.049
	c0.316,0.738,0.66,1.419,1.002,2.096c0.815,1.615,1.519,3.011,1.699,4.866c0.128,1.33-0.489,2.382-1.205,3.603
	c-0.225,0.385-0.459,0.782-0.672,1.198c-1.433,2.804-3.031,6.474-2.656,9.985c0.142,1.327,0.999,3.715,2.715,5.845
	C33.488,55.221,32.646,54.516,31.981,53.648z M29.925,56.43c-0.11-0.14-0.198-0.253-0.243-0.352c-0.092-0.2-0.135-0.415-0.186-0.665
	c-0.11-0.536-0.246-1.204-0.936-1.729c-0.308-0.236-0.644-0.379-0.959-0.515c-0.298-0.128-0.555-0.237-0.719-0.41
	c-0.906-0.946-0.48-2.679,0.057-4.249c2.393-7.008,1.04-9.916,0.438-11.207c-0.043-0.092-0.082-0.176-0.102-0.229
	c-0.782-2.089-3.723-3.94-6.003-4.89c-0.942-0.393-1.957-1.585-2.502-2.525c-0.567-0.978-0.599-2.905-0.302-4.203
	c0.058-0.252-0.024-0.518-0.213-0.696c-0.137-0.128-0.314-0.199-0.502-0.199c-0.07,0-0.141,0.01-0.209,0.03
	c-0.941,0.279-1.335,1.203-1.623,1.878c-0.082,0.195-0.161,0.379-0.232,0.504c-0.935,1.643-1.505,3.616-1.607,5.554
	c-0.109,2.127,0.341,4.085,1.301,5.664c0.562,0.924,1.246,1.697,1.908,2.445c1.16,1.313,2.162,2.445,2.418,4.176
	c0.123,0.83,0.043,1.678-0.043,2.594c-0.084,0.906-0.172,1.843-0.047,2.803c0.394,3.027,2.345,5.54,4.105,6.686
	c1.327,0.864,2.869,1.303,4.582,1.303c0.652,0,1.173-0.065,1.453-0.103c0.23-0.028,0.435-0.166,0.548-0.366
	c0.113-0.201,0.126-0.447,0.032-0.66C30.229,56.818,30.071,56.617,29.925,56.43z M21.07,50.02c-0.104-0.806-0.027-1.623,0.055-2.49
	c0.089-0.947,0.18-1.926,0.032-2.93c-0.32-2.164-1.565-3.572-2.772-4.936c-0.645-0.729-1.254-1.416-1.752-2.234
	c-1.781-2.927-1.128-6.701-0.027-9.044l0.217-0.461l0.067,0.504c0.106,0.788,0.311,1.449,0.61,1.966
	c0.666,1.152,1.859,2.581,3.207,3.143c2.566,1.072,4.701,2.738,5.193,4.052c0.047,0.12,0.104,0.242,0.17,0.385
	c0.503,1.082,1.683,3.615-0.52,10.066c-0.446,1.305-1.374,4.02,0.271,5.734c0.373,0.391,0.838,0.59,1.226,0.756
	c0.237,0.1,0.46,0.195,0.622,0.32c0.243,0.183,0.295,0.395,0.389,0.857c0.009,0.047,0.023,0.104,0.034,0.156
	c-1.953-1.041-3.269-2.709-3.617-3.436c-0.365-0.765-0.597-1.742-0.707-2.748c-0.039-0.371-0.349-0.881-0.797-0.881
	c-0.004,0-0.006,0-0.01,0c-0.402,1-0.693,0.639-0.649,1.039c0.128,1.174,0.404,2.42,0.842,3.338
	c0.399,0.833,1.413,2.121,2.881,3.198c-0.536-0.175-1.045-0.405-1.514-0.71C23.093,54.736,21.403,52.572,21.07,50.02z
	 M22.854,48.499c-0.197-0.002-0.568-0.115-0.688-0.521c-0.023-0.076-0.035-0.15-0.035-0.227c0.003-0.457,0.332-0.783,0.732-0.783
	c0.172,0,0.537,0.098,0.678,0.463c0.041,0.098,0.061,0.197,0.059,0.301c-0.014,0.629-0.537,0.767-0.738,0.767H22.854z
	 M22.806,41.426c-0.253-0.805-0.827-1.566-1.382-2.303l-0.235-0.314c-0.247-0.336-0.567-0.625-0.876-0.89
	c-0.307-0.262-0.345-0.726-0.083-1.033c0.14-0.163,0.343-0.259,0.558-0.259c0.174,0,0.342,0.063,0.475,0.176
	c0.354,0.301,0.761,0.67,1.104,1.133l0.231,0.308c0.603,0.803,1.28,1.704,1.607,2.743c0.424,1.349,0.128,2.818-0.159,4.24
	l-0.115,0.586c-0.067,0.346-0.369,0.596-0.719,0.596c-0.047,0-0.092-0.004-0.139-0.014c-0.193-0.037-0.359-0.146-0.469-0.308
	s-0.15-0.356-0.113-0.549l0.119-0.601C22.86,43.693,23.117,42.412,22.806,41.426z M32.928,24.16
	c-0.024-0.082-0.038-0.177-0.038-0.282c0-0.404,0.328-0.733,0.732-0.733c0.403,0,0.732,0.328,0.732,0.731l0.004,0.104
	c0.006,0.403-0.316,0.736-0.721,0.743h-0.011v0.001c-0.342,0-0.633-0.239-0.712-0.56L32.928,24.16z"/>
</svg>
