<?xml version="1.0" encoding="utf-8"?>
<!-- Generator: Adobe Illustrator 16.0.0, SVG Export Plug-In . SVG Version: 6.00 Build 0)  -->
<!DOCTYPE svg PUBLIC "-//W3C//DTD SVG 1.1//EN" "http://www.w3.org/Graphics/SVG/1.1/DTD/svg11.dtd">
<svg version="1.1" id="Layer_1" xmlns="http://www.w3.org/2000/svg" xmlns:xlink="http://www.w3.org/1999/xlink" x="0px" y="0px"
	 width="72px" height="72px" viewBox="0 0 72 72" enable-background="new 0 0 72 72" xml:space="preserve">
<path fill="#444444" d="M35.442,45.32c-1.925,0-4.586,0.298-6.329,1.716c-1.392,1.132-2.29,2.447-2.597,3.804
	c-0.306,1.347-0.008,2.66,0.837,3.697c0.826,1.016,2.021,1.574,3.364,1.574c1.417,0,2.917-0.612,4.342-1.771
	c2.87-2.337,3.265-7.766,3.279-7.995l0.053-0.79l-0.783-0.108C37.569,45.442,36.68,45.32,35.442,45.32z M33.985,53.022
	c-2.029,1.651-4.192,1.821-5.314,0.441c-0.516-0.633-0.688-1.41-0.498-2.248c0.223-0.981,0.918-1.971,2.013-2.861
	c1.058-0.86,2.924-1.334,5.256-1.334c0.423,0,0.802,0.016,1.11,0.035C36.311,48.771,35.592,51.715,33.985,53.022z M50.731,30.974
	c0.505,0.079,1,0.12,1.472,0.12c2.846,0,4.921-1.501,5.285-3.825c0.362-2.315-1.135-4.946-5.297-5.602
	c-0.283-0.044-0.58-0.067-0.884-0.067c-3.428,0-7.101,2.849-7.255,2.97l-0.623,0.489l0.443,0.656
	C44.002,25.906,47.074,30.396,50.731,30.974z M51.929,23.347c2.64,0.416,4.163,1.852,3.88,3.659
	c-0.275,1.756-2.229,2.696-4.813,2.289c-2.191-0.345-4.291-2.693-5.219-3.867C47.014,24.598,49.718,23.002,51.929,23.347z
	 M20.338,31.327c-1.113-0.484-2.188-0.73-3.196-0.73c-1.967,0-3.565,0.976-4.276,2.611c-0.935,2.15-0.149,5.072,3.714,6.755
	c0.793,0.346,1.736,0.521,2.802,0.521c2.836,0,5.687-1.226,5.807-1.278l0.727-0.315l-0.264-0.747
	C25.576,37.926,23.733,32.805,20.338,31.327z M19.383,38.783c-0.831,0-1.545-0.128-2.124-0.379
	c-2.451-1.067-3.563-2.841-2.834-4.519c0.446-1.025,1.411-1.589,2.717-1.589c0.773,0,1.62,0.198,2.517,0.588
	c2.034,0.886,3.475,3.687,4.077,5.056C22.772,38.278,21.048,38.783,19.383,38.783z M59.286,40.448
	c-0.152-0.11-3.762-2.702-7.119-2.702c-0.391,0-0.77,0.036-1.125,0.105c-1.761,0.344-3.173,1.081-4.082,2.132
	c-0.903,1.045-1.259,2.344-1.001,3.658c0.438,2.24,2.399,3.632,5.12,3.632c0.563,0,1.158-0.061,1.77-0.18
	c3.632-0.711,6.538-5.313,6.66-5.508l0.419-0.673L59.286,40.448z M52.522,45.426c-2.59,0.503-4.553-0.355-4.896-2.11
	c-0.157-0.803,0.057-1.57,0.619-2.22c0.658-0.761,1.737-1.306,3.122-1.576c0.248-0.049,0.518-0.073,0.799-0.073
	c2.029,0,4.313,1.235,5.431,1.925C56.576,42.77,54.555,45.027,52.522,45.426z M27.633,25.362c0.205,0,0.408-0.011,0.61-0.033
	c1.784-0.196,3.252-0.814,4.246-1.787c0.987-0.965,1.45-2.23,1.303-3.561c-0.273-2.476-2.433-4.076-5.503-4.076
	c-0.344,0-0.703,0.02-1.077,0.061c-3.679,0.406-6.958,4.752-7.096,4.937l-0.474,0.635l0.601,0.517
	C20.4,22.19,24.124,25.362,27.633,25.362z M27.398,17.656c2.675-0.298,4.506,0.725,4.704,2.512c0.089,0.812-0.188,1.559-0.802,2.16
	c-0.719,0.704-1.841,1.157-3.243,1.312c-2.226,0.244-4.85-1.474-6.051-2.361C22.988,20.148,25.194,17.899,27.398,17.656z
	 M33.812,28.546l-0.792-0.032l-0.087,0.788c-0.025,0.229-0.593,5.643,1.821,8.451c1.433,1.665,3.129,2.582,4.779,2.582
	c1.028,0,1.985-0.355,2.767-1.028c1.017-0.874,1.541-2.114,1.479-3.494c-0.063-1.389-0.716-2.842-1.886-4.203
	C39.479,28.804,34.042,28.555,33.812,28.546z M41.191,38.018c-1.344,1.156-3.452,0.599-5.148-1.373
	c-1.446-1.683-1.526-4.832-1.473-6.328c1.486,0.171,4.587,0.721,6.033,2.401c0.92,1.07,1.431,2.167,1.477,3.172
	C42.119,36.749,41.812,37.484,41.191,38.018z"/>
</svg>
