<?xml version="1.0" encoding="utf-8"?>
<!-- Generator: Adobe Illustrator 16.0.0, SVG Export Plug-In . SVG Version: 6.00 Build 0)  -->
<!DOCTYPE svg PUBLIC "-//W3C//DTD SVG 1.1//EN" "http://www.w3.org/Graphics/SVG/1.1/DTD/svg11.dtd">
<svg version="1.1" id="Layer_1" xmlns="http://www.w3.org/2000/svg" xmlns:xlink="http://www.w3.org/1999/xlink" x="0px" y="0px"
	 width="72px" height="72px" viewBox="0 0 72 72" enable-background="new 0 0 72 72" xml:space="preserve">
<path fill="#444444" d="M54.355,33.05c-0.156-1.301-1.125-2.423-2.527-2.927l-0.311-0.111l0.244-0.221
	c1.006-0.9,1.317-1.858,1.401-2.502c0.166-1.292-0.399-2.557-1.515-3.384c-0.676-0.502-1.508-0.797-2.404-0.854l-0.352-0.021
	l0.203-0.288c0.821-1.166,0.92-2.187,0.856-2.838c-0.118-1.239-0.913-2.309-2.124-2.86c-0.563-0.256-1.169-0.385-1.801-0.385
	c-0.471,0-0.947,0.072-1.418,0.217l-0.275,0.084l0.021-0.288c0.156-1.979-0.879-3.337-1.898-3.945
	c-0.627-0.375-1.371-0.573-2.15-0.573c-1.014,0-2.56,0.331-4.17,1.907l-0.138,0.135l-0.138-0.135
	c-1.609-1.576-3.156-1.907-4.17-1.907c-0.78,0-1.524,0.199-2.151,0.573c-1.02,0.608-2.054,1.966-1.899,3.945l0.022,0.288
	l-0.276-0.084c-0.47-0.145-0.947-0.217-1.419-0.217c-0.631,0-1.236,0.129-1.798,0.384c-1.212,0.551-2.006,1.622-2.125,2.861
	c-0.062,0.651,0.036,1.672,0.858,2.838l0.203,0.288l-0.351,0.021c-0.895,0.057-1.727,0.352-2.405,0.854
	c-1.115,0.828-1.68,2.093-1.513,3.385c0.084,0.644,0.394,1.602,1.401,2.502l0.246,0.221l-0.311,0.111
	c-1.403,0.504-2.372,1.626-2.527,2.927c-0.18,1.505,0.718,2.852,2.402,3.602l0.292,0.132l-0.249,0.202
	c-1.002,0.814-1.477,1.975-1.27,3.103c0.266,1.442,1.769,3.125,5.126,3.125l0.303-0.003l0.034,0.158
	c0.586,2.748,3.904,16.457,11.715,16.457c7.813,0,11.13-13.709,11.718-16.458l0.034-0.158l0.3,0.003c3.36,0,4.863-1.684,5.13-3.125
	c0.207-1.128-0.268-2.287-1.27-3.102l-0.249-0.203l0.292-0.131C53.637,35.902,54.535,34.555,54.355,33.05z M34.855,58.223
	c-3.477-4.222-0.153-26.023,0.949-32.023h0.388c1.103,6,4.428,27.865,0.951,32.087c-0.064,0.078-0.131,0.13-0.199,0.181
	c-0.308,0.057-0.622,0.096-0.946,0.096c-0.288,0-0.567-0.03-0.842-0.075C35.051,58.421,34.951,58.339,34.855,58.223z M49.564,37.205
	c1.623,0.468,2.576,1.534,2.369,2.652c-0.191,1.043-1.466,2.093-3.879,2.093c-0.244,0-0.5-0.011-0.822-0.035
	c-0.305,0-0.565,0.218-0.621,0.521c-0.026,0.14-2.326,12.284-7.924,15.401c1.329-2.727,1.47-8.103,1.083-13.952l4.962-4.962
	c0.119-0.118,0.186-0.276,0.186-0.444c0-0.17-0.066-0.328-0.186-0.449c-0.119-0.119-0.277-0.184-0.447-0.184
	c-0.168,0-0.326,0.065-0.445,0.184l-4.19,4.191c-0.179-2.217-0.422-4.466-0.694-6.638l4.949-4.949
	c0.119-0.119,0.185-0.277,0.185-0.446s-0.065-0.326-0.185-0.446c-0.119-0.12-0.279-0.186-0.447-0.186
	c-0.169,0-0.327,0.067-0.447,0.186l-4.259,4.259c-0.273-2.044-0.563-3.983-0.842-5.723c0.07-0.031,0.138-0.073,0.194-0.13
	l3.313-3.314c0.246-0.247,0.246-0.647,0-0.894c-0.119-0.12-0.278-0.186-0.446-0.186s-0.328,0.067-0.447,0.186l-2.856,2.856
	c-0.485-2.923-0.899-5.084-1.049-5.847c-0.058-0.296-0.318-0.51-0.62-0.51c-0.302,0-0.562,0.214-0.621,0.515
	c-0.034,0.176-0.479,2.489-1.031,5.861l-2.874-2.875c-0.119-0.12-0.279-0.186-0.447-0.186s-0.327,0.067-0.446,0.186
	c-0.247,0.248-0.247,0.648,0,0.894l3.313,3.314c0.063,0.063,0.138,0.109,0.218,0.141c-0.275,1.744-0.563,3.693-0.835,5.742
	l-4.29-4.29c-0.119-0.12-0.278-0.186-0.446-0.186c-0.169,0-0.327,0.067-0.447,0.186c-0.246,0.246-0.246,0.647,0,0.893l4.973,4.973
	c0.002,0.002,0.005,0.002,0.007,0.004c-0.081,0.646-0.16,1.297-0.234,1.953c-0.188,1.662-0.34,3.216-0.462,4.687l-4.218-4.22
	c-0.119-0.12-0.278-0.186-0.446-0.186c-0.169,0-0.328,0.066-0.447,0.186c-0.12,0.119-0.185,0.279-0.185,0.447
	s0.065,0.326,0.185,0.445l4.972,4.973c0.003,0.004,0.009,0.005,0.013,0.009c-0.479,6.94-0.13,11.533,1.049,13.926
	c-5.59-3.125-7.888-15.256-7.914-15.396c-0.055-0.303-0.316-0.521-0.621-0.521l-0.057,0.002c-0.268,0.022-0.524,0.033-0.768,0.033
	c-2.414,0-3.688-1.052-3.88-2.093c-0.206-1.118,0.746-2.184,2.37-2.652c0.287-0.083,0.478-0.359,0.456-0.658
	c-0.023-0.3-0.253-0.542-0.548-0.581c-2.739-0.358-3.565-1.714-3.44-2.766c0.125-1.049,1.231-2.112,3.101-2.112
	c0.18,0,0.368,0.01,0.628,0.034c0.288,0,0.548-0.203,0.616-0.479c0.077-0.305-0.086-0.624-0.378-0.74
	c-1.643-0.658-2.63-1.642-2.776-2.776c-0.108-0.831,0.27-1.656,1.012-2.205c0.542-0.402,1.224-0.616,1.973-0.616
	c0.631,0,1.307,0.155,1.953,0.446c0.083,0.037,0.171,0.057,0.261,0.057c0.225,0,0.436-0.122,0.548-0.319
	c0.162-0.283,0.084-0.641-0.183-0.829c-1.606-1.142-2.463-2.465-2.351-3.634c0.076-0.786,0.595-1.471,1.391-1.833
	c0.395-0.179,0.824-0.271,1.275-0.271c0.79,0,1.591,0.278,2.318,0.799c0.109,0.077,0.237,0.119,0.37,0.119
	c0.14,0,0.278-0.048,0.388-0.134c0.22-0.171,0.302-0.472,0.198-0.731c-0.701-1.768-0.33-3.402,0.946-4.165
	c0.432-0.257,0.949-0.393,1.495-0.393c1.318,0,2.679,0.756,3.832,2.129c0.113,0.135,0.289,0.211,0.484,0.211
	s0.371-0.076,0.484-0.211c1.154-1.373,2.515-2.13,3.832-2.13c0.547,0,1.064,0.137,1.496,0.394c1.276,0.763,1.647,2.397,0.946,4.165
	c-0.104,0.258-0.022,0.559,0.197,0.731c0.112,0.087,0.245,0.134,0.389,0.134c0.134,0,0.261-0.042,0.369-0.118
	c0.726-0.524,1.528-0.8,2.317-0.8c0.451,0,0.881,0.09,1.275,0.271c0.795,0.361,1.315,1.046,1.391,1.831
	c0.111,1.17-0.746,2.494-2.352,3.635c-0.268,0.189-0.346,0.546-0.184,0.829c0.113,0.197,0.322,0.32,0.549,0.32
	c0.09,0,0.178-0.02,0.26-0.057c0.646-0.292,1.322-0.445,1.954-0.445c0.749,0,1.431,0.216,1.974,0.619
	c0.742,0.549,1.119,1.38,1.013,2.211c-0.146,1.133-1.132,2.127-2.777,2.785c-0.291,0.117-0.454,0.455-0.378,0.761
	c0.066,0.275,0.318,0.515,0.669,0.515c0.004,0,0.009,0,0.013,0c0.195,0,0.385-0.071,0.567-0.071c1.867,0,2.972,1.023,3.097,2.073
	c0.125,1.052-0.701,2.409-3.441,2.766c-0.295,0.04-0.524,0.282-0.547,0.582C49.087,36.846,49.279,37.122,49.564,37.205z"/>
</svg>
