<?xml version="1.0" encoding="utf-8"?>
<!-- Generator: Adobe Illustrator 16.0.0, SVG Export Plug-In . SVG Version: 6.00 Build 0)  -->
<!DOCTYPE svg PUBLIC "-//W3C//DTD SVG 1.1//EN" "http://www.w3.org/Graphics/SVG/1.1/DTD/svg11.dtd">
<svg version="1.1" id="Layer_1" xmlns="http://www.w3.org/2000/svg" xmlns:xlink="http://www.w3.org/1999/xlink" x="0px" y="0px"
	 width="72px" height="72px" viewBox="0 0 72 72" enable-background="new 0 0 72 72" xml:space="preserve">
<path fill="#444444" d="M42.501,20.415c-1.75-0.673-3.715-0.442-5.26,0.618c-0.514,0.353-0.95,0.787-1.315,1.271
	c-4.161-0.024-7.54-3.415-7.54-7.583c0-0.418-0.34-0.758-0.759-0.758c-0.418,0-0.758,0.34-0.758,0.758
	c0,1.597,0.416,3.097,1.141,4.402c-0.084,2.186-1.876,3.941-4.083,3.941c-1.724,0-3.127-1.402-3.127-3.126
	c0-1.296,1.055-2.351,2.351-2.351c0.954,0,1.728,0.776,1.728,1.729c0,0.678-0.551,1.23-1.23,1.23c-0.459,0-0.833-0.374-0.833-0.833
	c0-0.418-0.34-0.758-0.759-0.758s-0.758,0.34-0.758,0.758c0,1.295,1.054,2.35,2.35,2.35c1.516,0,2.749-1.232,2.749-2.747
	c0-1.79-1.457-3.246-3.246-3.246c-2.133,0-3.868,1.735-3.868,3.867c0,2.562,2.083,4.645,4.644,4.645
	c2.449,0,4.532-1.579,5.298-3.771c1.488,1.646,3.56,2.751,5.892,2.97c-0.224,0.615-0.339,1.259-0.339,1.925
	c0,0.203,0.027,0.411,0.05,0.617c0.009,0.083,0.007,0.168,0.021,0.25c0.001,0.008,0,0.017,0.002,0.025
	c0.002,0.012,0.009,0.022,0.012,0.034c0.329,1.951,1.673,3.64,3.556,4.36c3.198,1.224,5.283,4.35,5.188,7.774
	c-0.116,4.211-3.633,7.731-7.839,7.847c-3.409,0.088-6.549-1.992-7.771-5.193c-0.844-2.212-2.927-3.639-5.306-3.639H22.69h-0.118
	h-0.001c-0.219,0-0.437,0.014-0.651,0.038c-0.207,0.023-0.41,0.061-0.61,0.106c-0.001,0-0.002,0.001-0.003,0.001
	c-1.328,0.303-2.49,1.079-3.294,2.239c-1.052,1.517-1.29,3.46-0.638,5.197c2.868,7.641,10.163,12.588,18.204,12.588
	c0.716,0,1.441-0.039,2.167-0.12c8.907-0.984,16.086-8.169,17.069-17.085C55.788,31.943,50.725,23.58,42.501,20.415z M21.823,39.373
	c0.039-0.008,0.078-0.016,0.117-0.021c0.208-0.033,0.418-0.054,0.633-0.054h0.119c0.004,0,0.008,0,0.012,0
	c0.004,0,0.008,0.001,0.013,0.001c0.358,6.793,5.997,12.208,12.877,12.208c7.111,0,12.894-5.784,12.894-12.896
	c0-6.866-5.404-12.504-12.188-12.872c0-0.006-0.001-0.013-0.001-0.02c0-0.004,0-0.008,0-0.013c0-0.234,0.023-0.464,0.062-0.69
	c0.005-0.034,0.012-0.068,0.019-0.102c0.043-0.226,0.102-0.447,0.184-0.663c7.58,0.498,13.444,6.714,13.444,14.359
	c0,7.947-6.465,14.412-14.413,14.412c-7.68,0-13.895-5.887-14.369-13.494C21.42,39.46,21.62,39.411,21.823,39.373z M26.58,41.961
	c1.451,3.803,5.165,6.297,9.23,6.17c4.997-0.138,9.174-4.32,9.313-9.32c0.111-4.069-2.364-7.783-6.162-9.233
	c-1.075-0.411-1.902-1.257-2.332-2.285c5.789,0.526,10.342,5.403,10.342,11.319c0,6.274-5.104,11.379-11.378,11.379
	c-5.933,0-10.813-4.567-11.327-10.379C25.312,40.032,26.159,40.858,26.58,41.961z M53.307,40.58
	c-0.906,8.216-7.521,14.837-15.729,15.744c-8.181,0.908-15.906-3.821-18.784-11.492c-0.484-1.291-0.314-2.676,0.464-3.803
	c0.158-0.227,0.338-0.429,0.531-0.614c0.891,8.021,7.584,14.125,15.804,14.125c8.784,0,15.931-7.146,15.931-15.929
	c0-8.177-6.072-14.865-14.054-15.79c0.19-0.195,0.397-0.378,0.63-0.538c1.148-0.787,2.555-0.953,3.854-0.453
	C49.536,24.748,54.203,32.461,53.307,40.58z"/>
</svg>
