<?xml version="1.0" encoding="utf-8"?>
<!-- Generator: Adobe Illustrator 16.0.0, SVG Export Plug-In . SVG Version: 6.00 Build 0)  -->
<!DOCTYPE svg PUBLIC "-//W3C//DTD SVG 1.1//EN" "http://www.w3.org/Graphics/SVG/1.1/DTD/svg11.dtd">
<svg version="1.1" id="Layer_1" xmlns="http://www.w3.org/2000/svg" xmlns:xlink="http://www.w3.org/1999/xlink" x="0px" y="0px"
	 width="72px" height="72px" viewBox="0 0 72 72" enable-background="new 0 0 72 72" xml:space="preserve">
<path fill="#444444" d="M61.611,15.25c-0.338-0.187-0.774-0.107-1.043,0.172c-0.361,0.377-2.96,1.297-5.947,1.61
	c-2.588,0.269-5.118,3.864-6.144,5.502c-1.413-0.687-2.769-0.346-3.85,1c-0.257-0.046-0.58-0.083-0.958-0.083
	c-1.647,0-4.891,0.729-8.092,5.607c-0.654,0.998-1.352,2.135-2.098,3.351c-4.21,6.863-9.976,16.265-17.957,16.396
	c-0.56,0.047-1.119,0.074-1.645,0.101c-2.013,0.1-3.343,0.165-3.669,1.185c-0.304,0.948,0.708,1.748,1.14,2.09
	c2.093,1.65,4.645,2.56,7.188,2.56c0.157,0,0.311-0.004,0.464-0.011c1.228,0.936,4.22,2.047,7.563,2.047
	c3.507,0,8.48-1.209,12.26-6.972c1.537-2.343,3.091-4.544,4.594-6.674c4.999-7.082,8.681-12.298,6.715-15.568
	c0.54-1.05,0.882-2.692-0.283-4.015c0.468-0.759,1.066-1.617,1.723-2.401c2.314,1.152,4.404,1.332,6.219,0.525
	c3.175-1.411,4.204-5.32,4.246-5.486C62.133,15.812,61.948,15.438,61.611,15.25z M42.029,42.15
	c-1.511,2.142-3.074,4.355-4.627,6.723c-3.363,5.128-7.75,6.204-10.838,6.204c-1.753-0.001-3.329-0.347-4.52-0.75
	c4.51-1.222,9.773-4.946,10.045-5.141c0.382-0.272,0.47-0.804,0.197-1.186c-0.272-0.382-0.803-0.471-1.186-0.197
	c-2.143,1.53-8.471,5.432-11.889,5.206c-0.015-0.001-0.027,0.006-0.042,0.005c-0.207,0.016-0.418,0.025-0.635,0.025
	c-2.162,0-4.341-0.779-6.134-2.193c-0.055-0.044-0.105-0.084-0.151-0.123c0.489-0.06,1.164-0.093,1.71-0.12
	c0.544-0.026,1.125-0.056,1.646-0.102c8.856-0.144,14.905-10.004,19.321-17.204c0.736-1.199,1.424-2.322,2.07-3.307
	c2.763-4.211,5.365-4.84,6.67-4.84c0.613,0,0.986,0.136,0.986,0.136c0.377,0.151,0.809,0.019,1.031-0.322
	c0.813-1.238,1.517-1.386,2.568-0.588c1.298,0.983,0.368,2.448,0.171,2.729c-0.228,0.316-0.21,0.747,0.041,1.044
	C50.344,30.372,46.49,35.83,42.029,42.15z M57.093,20.122c-1.208,0.534-2.647,0.443-4.288-0.275
	c0.691-0.625,1.385-1.061,1.992-1.124c1.354-0.141,3.238-0.499,4.749-0.991C59.022,18.638,58.229,19.62,57.093,20.122z"/>
</svg>
