<?xml version="1.0" encoding="utf-8"?>
<!-- Generator: Adobe Illustrator 16.0.0, SVG Export Plug-In . SVG Version: 6.00 Build 0)  -->
<!DOCTYPE svg PUBLIC "-//W3C//DTD SVG 1.1//EN" "http://www.w3.org/Graphics/SVG/1.1/DTD/svg11.dtd">
<svg version="1.1" id="Layer_1" xmlns="http://www.w3.org/2000/svg" xmlns:xlink="http://www.w3.org/1999/xlink" x="0px" y="0px"
	 width="72px" height="72px" viewBox="0 0 72 72" enable-background="new 0 0 72 72" xml:space="preserve">
<path fill="#444444" d="M24.763,30.569c0-2.885,2.346-5.231,5.23-5.231c0.4,0,0.801,0.047,1.193,0.139l0.162,0.038l0.067-0.152
	c0.835-1.9,2.713-3.128,4.785-3.128c0.317,0,0.575,0.259,0.575,0.576s-0.258,0.575-0.575,0.575c-1.834,0-3.451,1.238-3.932,3.011
	c-0.043,0.158-0.152,0.291-0.298,0.364c-0.08,0.04-0.168,0.061-0.256,0.061c-0.074,0-0.146-0.014-0.214-0.041
	c-0.486-0.193-0.993-0.291-1.506-0.291c-2.25,0-4.08,1.83-4.08,4.08c0,0.316-0.258,0.574-0.576,0.574
	C25.021,31.144,24.763,30.886,24.763,30.569z M30.213,40.439c-0.771-0.771-1.195-1.795-1.195-2.885c0-0.318-0.258-0.578-0.576-0.578
	c-0.318,0-0.576,0.26-0.576,0.578c0,1.396,0.544,2.711,1.532,3.697c0.987,0.987,2.3,1.53,3.699,1.53c1.4,0,2.713-0.543,3.701-1.53
	c0.108-0.107,0.168-0.253,0.168-0.406c0-0.154-0.06-0.299-0.168-0.406c-0.108-0.108-0.254-0.17-0.408-0.17
	c-0.154,0-0.299,0.062-0.407,0.17c-0.77,0.769-1.794,1.192-2.885,1.192C32.007,41.632,30.983,41.209,30.213,40.439z M58.496,36.037
	c-0.055,4.881-1.751,9.695-4.786,13.554c-1.256,1.61-2.709,3.058-4.321,4.251c-3.869,2.901-8.431,4.447-13.188,4.447
	c0.001,0-0.241,0.011-0.303,0.006c-4.763-0.063-9.294-1.652-13.121-4.597c-1.612-1.236-3.15-2.679-4.373-4.282
	c-2.945-3.863-4.703-8.585-4.703-13.297V36c0-0.17,0.242-0.5,0.776-0.5h0.816L15.2,35.334c-0.355-1.02-0.524-1.589-0.524-2.35
	c0-2.187,1.37-4.223,3.332-4.986l0.185-0.06l-0.071-0.179c-0.228-0.595-0.342-1.307-0.342-1.94c0-2.885,2.331-5.319,5.196-5.319
	h0.173l0.114-0.08c0.367-2.555,2.593-4.438,5.178-4.438c0.968,0,1.913,0.291,2.733,0.796l0.192,0.129l0.095-0.198
	c0.86-1.858,2.676-3.01,4.739-3.01c2.059,0,3.875,1.156,4.735,3.018l0.096,0.204l0.191-0.117c0.814-0.502,1.76-0.768,2.732-0.768
	c2.584,0,4.811,1.932,5.178,4.493l0.024,0.174c0,0,0.178-0.002,0.179-0.002c1.457,0,2.762,0.548,3.749,1.544
	s1.532,2.311,1.531,3.703c0,0.639-0.121,1.309-0.343,1.887l-0.069,0.186l0.185,0.072c1.993,0.775,3.332,2.762,3.332,4.941
	c0,0.761-0.168,1.28-0.523,2.3L57.105,35.5h0.815C58.094,35.5,58.496,35.643,58.496,36.037z M15.828,32.895
	c0,0.89,0.305,1.772,0.859,2.484l0.054,0.069l0.089,0.007c1.161,0.087,2.291,0.361,3.357,0.814c0.177,0.076,0.338,0.149,0.498,0.229
	c0.209,0.104,0.361,0.182,0.509,0.266c3.194,1.797,5.224,4.998,5.47,8.586l0.012,0.174l0.174,0.013
	c3.908,0.271,7.347,2.655,8.974,6.226l0.182,0.399l0.182-0.399c1.625-3.568,5.062-5.955,8.97-6.226l0.174-0.013l0.014-0.174
	c0.207-3.041,1.723-5.855,4.157-7.726l0.08-0.062l-0.002-0.103c-0.049-2.202-1.876-3.991-4.074-3.991
	c-0.813,0-1.601,0.239-2.271,0.691c-0.096,0.063-0.207,0.098-0.321,0.098c-0.062,0-0.123-0.01-0.183-0.029
	c-0.168-0.056-0.303-0.188-0.361-0.356c-0.573-1.634-2.119-2.731-3.846-2.731c-2.248,0-4.078,1.831-4.078,4.081
	c0,0.317-0.258,0.575-0.576,0.575s-0.576-0.258-0.576-0.574c0-2.884,2.347-5.229,5.228-5.229c1.898,0,3.652,1.037,4.574,2.708
	l0.09,0.162l0.168-0.076c0.664-0.301,1.39-0.453,2.15-0.453c2.5,0,4.659,1.79,5.135,4.257l0.051,0.269l0.24-0.129
	c0.063-0.034,0.127-0.059,0.189-0.084c0.023-0.01,0.049-0.019,0.072-0.027l0.07-0.085c1.348-0.629,2.764-1.037,4.301-1.037h0.121
	l0.061-0.008c0.512-0.988,0.822-1.604,0.822-2.513c0-2-1.426-3.755-3.314-4.113c-0.186-0.035-0.342-0.146-0.42-0.319
	c-0.076-0.172-0.063-0.364,0.035-0.526c0.389-0.641,0.596-1.368,0.596-2.109c0-2.25-1.83-4.277-4.08-4.277
	c-0.211,0-0.436-0.134-0.683-0.134c-0.017,0-0.032,0-0.048,0c-0.205,0-0.327,0.15-0.424,0.066c-0.131-0.111-0.203-0.174-0.201-0.346
	c0.004-2.321-1.826-4.092-4.075-4.092c-1.056,0-2.058,0.431-2.823,1.165c-0.107,0.104-0.248,0.173-0.396,0.173
	c-0.057,0-0.111-0.002-0.166-0.019c-0.198-0.06-0.352-0.219-0.397-0.421c-0.422-1.871-2.056-3.178-3.971-3.178
	c-1.919,0-3.553,1.309-3.976,3.18c-0.046,0.202-0.198,0.365-0.396,0.425c-0.055,0.017-0.111,0.025-0.167,0.025
	c-0.148,0-0.29-0.058-0.398-0.161c-0.764-0.734-1.767-1.14-2.822-1.14c-2.249,0-4.079,1.83-4.079,4.08
	c0,0.182-0.082,0.373-0.203,0.475c-0.128,0.109-0.27,0.169-0.399,0.169c-0.313-0.047-0.537-0.068-0.749-0.068
	c-2.25,0-4.08,1.83-4.08,4.08c0,0.741,0.206,1.472,0.596,2.112c0.098,0.162,0.11,0.361,0.034,0.533
	c-0.077,0.173-0.233,0.297-0.418,0.332C17.222,29.254,15.828,30.939,15.828,32.895z M57.33,36.5h-1.506l-0.027,0.002
	c-0.027-0.008-0.057-0.068-0.087-0.078c-0.104-0.034-0.226-0.099-0.354-0.099c-1.428,0-2.826,0.665-4.008,1.325
	c-2.963,1.66-4.877,4.972-4.877,8.443c0,0.317-0.258,0.572-0.574,0.572c-4.521,0-8.441,3.211-9.324,7.637
	c-0.055,0.268-0.292,0.461-0.564,0.461s-0.511-0.197-0.564-0.466c-0.886-4.429-4.809-7.644-9.328-7.644
	c-0.317,0-0.576-0.262-0.576-0.584c0-3.444-1.869-6.633-4.876-8.317c-1.314-0.735-2.707-1.146-4.14-1.221
	c-0.035-0.037-0.08,0.026-0.147,0.017c-0.139-0.086-0.23-0.049-0.346-0.049h-0.97l0.006,0.107c0.17,4.174,1.798,8.615,4.353,11.967
	c1.259,1.65,2.624,3.021,4.059,4.123c3.542,2.726,7.85,4.08,12.458,4.134c0.148,0,0.526-0.037,0.557-0.037l0.458,0.021
	c4.644,0,8.215-1.612,11.75-4.264c1.792-1.326,3.06-2.467,4.104-3.808c2.969-3.776,4.362-7.44,4.52-12.162L57.33,36.5z"/>
</svg>
