<?xml version="1.0" encoding="utf-8"?>
<!-- Generator: Adobe Illustrator 16.0.0, SVG Export Plug-In . SVG Version: 6.00 Build 0)  -->
<!DOCTYPE svg PUBLIC "-//W3C//DTD SVG 1.1//EN" "http://www.w3.org/Graphics/SVG/1.1/DTD/svg11.dtd">
<svg version="1.1" id="Layer_1" xmlns="http://www.w3.org/2000/svg" xmlns:xlink="http://www.w3.org/1999/xlink" x="0px" y="0px"
	 width="72px" height="72px" viewBox="0 0 72 72" enable-background="new 0 0 72 72" xml:space="preserve">
<path fill="#444444" d="M51.456,27.931c-1.735-1.113-3.782-1.701-5.921-1.701c-1.28,0-2.546,0.223-3.755,0.62
	c-1.378-5.208-4.467-10.199-7.661-11.76c-1.366-0.666-2.891-1.004-4.534-1.004c-3.358,0-6.07,1.405-6.136,1.439
	c-4.698,2.147-7.446,5.308-8.167,9.396c-1.768,10.015,9.837,23.012,13.3,26.654c0.049,1.481,0.208,2.711,0.37,3.595l0.007,0.042
	c0.269,1.353,1.493,2.524,2.802,2.677c0.901,0.102,1.787,0.153,2.635,0.153c10.461,0,17.176-7.487,20.249-11.951
	c1.463-2.131,2.211-4.528,2.162-6.933C56.697,33.924,54.896,30.146,51.456,27.931z M16.844,25.194
	c0.636-3.59,3.035-6.292,7.328-8.257c0.432-0.21,2.721-1.259,5.425-1.259c1.408,0,2.701,0.285,3.846,0.848
	c2.789,1.373,5.627,6.117,6.854,10.91c-0.582,0.278-1.136,0.612-1.67,0.978c-2.425-4.625-5.612-7.758-8.153-7.976
	c-0.158-0.016-0.313-0.025-0.465-0.025c-2.512,0-4.37,2.364-5.264,3.5l-0.215,0.273l-0.346,0.029
	c-4.173,0.359-6.354,2.579-7.379,4.827C16.63,27.727,16.625,26.434,16.844,25.194z M35.304,31.729c-1.147-1.101-2.866-1.735-4-1.876
	c-0.166-0.02-0.33-0.03-0.491-0.03c-1.979,0-3.599,1.51-4.203,2.159l-0.271,0.291l-0.396-0.04c-0.249-0.025-0.495-0.038-0.736-0.038
	c-1.389,0-2.577,0.411-3.528,1.221c-1.163,0.993-1.788,2.386-2.13,3.571c-0.717-1.374-1.349-2.783-1.834-4.196
	c0.241-1.781,1.343-6.543,6.607-6.995c0.851-0.073,1.591-0.491,2.029-1.146c0.802-1.209,2.093-2.649,3.694-2.649
	c0.116,0,0.232,0.008,0.31,0.02c1.386,0.12,4.391,2.259,7.004,7.387c-0.508,0.454-0.991,0.935-1.42,1.472
	C35.712,31.165,35.518,31.446,35.304,31.729z M28.598,49.459c-1.811-1.962-5.135-5.809-7.817-10.277
	c0.243-1.259,0.836-3.632,1.939-4.567c0.66-0.557,1.476-0.839,2.425-0.839c0.196,0,0.4,0.012,0.606,0.036
	c0.083,0.009,0.166,0.013,0.248,0.013c0.644,0,1.259-0.268,1.731-0.752c0.737-0.76,1.866-1.666,3.062-1.666
	c0.111,0,0.222,0.007,0.317,0.021c0.801,0.102,2.417,0.638,3.248,1.59C30.062,39.229,28.788,45.1,28.598,49.459z M53.339,45.191
	c-2.899,4.207-9.217,11.264-18.935,11.264c-0.809,0-1.638-0.049-2.453-0.146c-0.625-0.067-1.309-0.742-1.437-1.422
	c-0.657-3.588-1.323-13.013,6.667-23.012c2.033-2.549,5.149-4.07,8.336-4.07c1.834,0,3.59,0.506,5.082,1.462
	c2.971,1.912,4.524,5.25,4.621,9.922C55.266,41.258,54.613,43.334,53.339,45.191z M47.709,35.071
	c-1.529-1.277-3.021-1.923-4.434-1.923c-0.576,0-1.141,0.109-1.674,0.325c-4.435,1.798-6.529,10.986-7.066,16.132l-0.064,0.601
	l0.556,0.222c0.486,0.192,1.106,0.29,1.84,0.29c4.117,0,10.715-3.036,13.048-6.95C51.159,41.68,51.786,38.477,47.709,35.071z
	 M48.555,42.953c-2.08,3.49-8.246,6.036-11.414,6.188l-0.973,0.047l0.144-0.963c0.288-1.936,1.924-11.676,5.885-13.278
	c0.178-0.073,0.544-0.222,1.088-0.222c1.018,0,2.16,0.526,3.4,1.565C49.311,38.48,49.921,40.662,48.555,42.953z"/>
</svg>
