<?xml version="1.0" encoding="utf-8"?>
<!-- Generator: Adobe Illustrator 16.0.0, SVG Export Plug-In . SVG Version: 6.00 Build 0)  -->
<!DOCTYPE svg PUBLIC "-//W3C//DTD SVG 1.1//EN" "http://www.w3.org/Graphics/SVG/1.1/DTD/svg11.dtd">
<svg version="1.1" id="Layer_1" xmlns="http://www.w3.org/2000/svg" xmlns:xlink="http://www.w3.org/1999/xlink" x="0px" y="0px"
	 width="72px" height="72px" viewBox="0 0 72 72" enable-background="new 0 0 72 72" xml:space="preserve">
<path fill="#444444" d="M56.742,25.234c-0.129-0.284-0.424-0.455-0.736-0.422l-4.563,0.472c-0.328-0.661-1.125-1.46-2.381-2.578
	l-0.146-0.132c-0.061-0.55,0.67-2.367,0.951-3.066c0.509-1.268,0.68-1.693,0.188-2.085c-0.008-0.006-0.018-0.008-0.025-0.014
	c-0.01-0.009-0.016-0.021-0.023-0.028c-0.49-0.391-0.867-0.129-1.988,0.646c-0.621,0.431-2.232,1.545-2.781,1.608
	c-1.688-1.179-2.662-1.712-3.301-1.865l-0.662-4.737C41.23,12.726,41,12.48,40.695,12.42c-0.307-0.062-0.613,0.077-0.771,0.344
	c-0.897,1.521-1.993,3.284-2.401,3.83c-0.349-0.003-0.93-0.069-1.417-0.124c-1.661-0.187-2.577-0.291-2.908,0.432
	c-0.102,0.22-0.193,0.666,0.34,1.162c0.56,0.521,1.275,1.656,1.777,2.532c-0.602,0.149-1.266,0.447-1.567,1.042
	c-0.201,0.397-0.308,1.057,0.317,1.94c0.899,1.271,1.094,3.955,1.101,5.278c-0.297-0.058-0.599-0.091-0.902-0.091
	c-0.699,0-1.342,0.172-1.912,0.511c-2.17,1.294-8.62,9.567-12.937,16.096c-4.621,6.992-4.488,12.927-3.125,14.017
	c0.467,0.373,1.215,0.452,1.76,0.452c1.189,0,5.497-0.438,11.01-6.065c5.307-5.418,11.004-13.237,12.935-16.176
	c0.749-1.142,0.588-2.318,0.079-3.358c1.334-0.284,3.863-0.641,5.256-0.063c0.382,0.158,0.707,0.219,0.982,0.219
	c0.449,0,0.769-0.162,0.98-0.338c0.514-0.425,0.657-1.14,0.67-1.759c0.965,0.296,2.23,0.742,2.863,1.173
	c0.602,0.411,1.016,0.224,1.209,0.075c0.631-0.483,0.326-1.354-0.225-2.935c-0.16-0.462-0.354-1.014-0.435-1.354
	c0.442-0.522,1.919-1.98,3.204-3.192C56.809,25.853,56.873,25.518,56.742,25.234z M41.748,23.903
	c0.238,0.104,0.514,0.069,0.723-0.085c0.207-0.155,0.318-0.408,0.289-0.667c-0.012-0.104-0.258-2.238-0.556-3.713
	c0.437,0.227,1.144,0.651,2.278,1.448c0.813,0.572,2.041-0.087,3.77-1.256c-0.758,1.942-1.129,3.285-0.393,3.953l0.233,0.209
	c0.955,0.852,1.486,1.391,1.772,1.731c-1.549,0.099-3.803,0.238-3.803,0.238c-0.266,0.017-0.502,0.177-0.615,0.417
	c-0.112,0.242-0.086,0.525,0.072,0.74c0.379,0.521,0.631,1.216,0.551,1.372c0,0-0.1,0.09-0.479,0.104
	c-2.562,0.091-5.878,2.75-6.036,2.88c-0.148-0.119-0.262-0.204-0.318-0.246c-0.063-0.057-0.209-0.184-0.418-0.348
	c0.104-0.215,1.949-4.014,1.471-6.521c-0.07-0.373-0.004-0.488-0.004-0.488C40.422,23.557,41.137,23.643,41.748,23.903z
	 M35.048,22.295c0.076-0.161,0.764-0.379,1.428-0.395c0.25-0.005,0.482-0.14,0.609-0.355c0.128-0.215,0.138-0.481,0.022-0.706
	c-0.045-0.088-0.901-1.75-1.841-2.994c0.24,0.023,0.48,0.051,0.674,0.072c0.835,0.095,1.556,0.177,2.012,0.105
	c0.321-0.049,0.534-0.082,2.159-2.743l0.455,3.252c0.002,0.018,0.014,0.032,0.018,0.049c-0.018,0.151-0.009,0.324,0.049,0.531
	c0.202,0.733,0.408,2.131,0.539,3.114c-0.596-0.102-1.296-0.093-1.8,0.312c-0.347,0.277-0.718,0.832-0.517,1.897
	c0.305,1.596-0.727,4.276-1.252,5.412c-0.305-0.184-0.639-0.36-0.996-0.521c0.002-0.013,0.009-0.022,0.009-0.035
	c0.008-0.181,0.122-4.454-1.361-6.554C35.037,22.426,35.049,22.295,35.048,22.295z M40.777,36.795
	c-1.906,2.902-7.527,10.619-12.759,15.958c-4.065,4.149-7.815,5.629-9.97,5.629c-0.537,0-0.798-0.099-0.833-0.118
	c-0.428-0.488-0.954-4.703,2.563-10.715c1.32,1.073,2.085,1.34,2.177,1.369c0.074,0.023,0.147,0.034,0.22,0.034
	c0.305,0,0.585-0.194,0.688-0.499c0.125-0.379-0.08-0.788-0.456-0.921c-0.007-0.003-0.669-0.247-1.854-1.235
	c0.027-0.042,0.049-0.081,0.076-0.123c0.728-1.102,1.478-2.191,2.23-3.263c1.576,1.422,2.78,1.845,2.833,1.862
	c0.076,0.023,0.154,0.037,0.23,0.037c0.303,0,0.585-0.192,0.688-0.496c0.129-0.377-0.074-0.791-0.452-0.924
	c-0.011-0.004-1.056-0.381-2.45-1.674c0.785-1.093,1.565-2.146,2.327-3.146c2.033,1.781,3.39,1.875,3.547,1.88
	c0.007,0,0.014,0,0.022,0c0.385,0,0.697-0.302,0.718-0.688c0.021-0.396-0.286-0.736-0.68-0.767
	c-0.011-0.002-1.054-0.117-2.711-1.589c0.857-1.102,1.672-2.114,2.424-3.007c2.038,1.79,3.398,1.883,3.556,1.889
	c0.008,0,0.015,0,0.022,0c0.385,0,0.697-0.301,0.718-0.688c0.021-0.396-0.285-0.735-0.679-0.767
	c-0.011-0.002-1.035-0.115-2.665-1.547c1.271-1.452,2.267-2.447,2.79-2.76c0.346-0.206,0.726-0.306,1.165-0.306
	c1.912,0,4.001,1.894,4.022,1.912c0.021,0.02,0.045,0.039,0.067,0.057C38.391,32.215,42.023,34.898,40.777,36.795z M51.887,29.152
	c0.032,0.461,0.271,1.147,0.549,1.939c0.063,0.187,0.144,0.413,0.219,0.641c-1.402-0.633-3.23-1.105-3.327-1.13
	c-0.244-0.063-0.502,0.004-0.685,0.178c-0.182,0.175-0.262,0.429-0.211,0.675c0.131,0.632,0.072,1.369-0.065,1.479
	c0-0.001-0.128,0.042-0.479-0.104c-2.305-0.955-6.268,0.012-6.656,0.111c-0.192-0.239-0.391-0.46-0.588-0.664
	c0.98-0.76,3.369-2.366,5-2.424c1.084-0.037,1.543-0.521,1.738-0.922c0.275-0.567,0.145-1.232-0.078-1.784
	c0.971-0.061,2.344-0.146,3.223-0.202c0.244-0.017,0.432-0.08,0.578-0.161l2.937-0.304C51.848,28.612,51.863,28.829,51.887,29.152z"
	/>
</svg>
