<?xml version="1.0" encoding="utf-8"?>
<!-- Generator: Adobe Illustrator 16.0.0, SVG Export Plug-In . SVG Version: 6.00 Build 0)  -->
<!DOCTYPE svg PUBLIC "-//W3C//DTD SVG 1.1//EN" "http://www.w3.org/Graphics/SVG/1.1/DTD/svg11.dtd">
<svg version="1.1" id="Layer_1" xmlns="http://www.w3.org/2000/svg" xmlns:xlink="http://www.w3.org/1999/xlink" x="0px" y="0px"
	 width="72px" height="72px" viewBox="0 0 72 72" enable-background="new 0 0 72 72" xml:space="preserve">
<path fill="#444444" d="M61.92,48.087c-0.354-2.283-0.392-2.752-0.133-4.157c0.35-1.896-0.83-11.945-5.132-17.339
	c-4.666-5.849-10.858-7.372-12.052-7.618c-0.901-0.186-1.26-0.457-1.639-0.743c-0.343-0.259-0.732-0.553-1.377-0.672
	c-0.841-0.156-1.316,0.149-1.563,0.401c-0.563,0.576-0.589,1.508-0.563,2.668c0.033,1.49-0.509,3.52-0.514,3.54l-0.031,0.116
	l0.002,0.12c0.006,0.304,0.093,3.743,1.156,7.995c-0.993-0.362-1.999-0.658-3.009-0.842c-0.073-0.015-1.805-0.354-4.421-0.354
	c-0.972,0-2.129,0.051-3.396,0.198c-0.086,0.01-0.174,0.022-0.261,0.034c-2.122,0.266-4.537,0.805-6.944,1.851
	c-2.907,1.157-4.535,2.458-5.842,3.502c-1.254,1.002-2.16,1.726-3.817,2.093c-1.292,0.418-2.166,1.361-2.279,2.463
	c-0.101,0.98,0.419,1.896,1.39,2.451c1.448,0.827,6.4,5.042,8.317,6.845c2.063,1.937,7.411,3.986,13.639,4.159
	c0.166,0.005,0.333,0.007,0.497,0.007c0,0,0,0,0.001,0c5.829,0,10.525-2.807,14.732-5.839c0.677-0.487,1.358-0.928,2.033-1.357
	c3.122,1.162,4.456,1.491,5.354,1.71c0.391,0.095,0.709,0.172,1.087,0.3c0.15,0.051,0.316,0.112,0.493,0.177
	c0.76,0.278,1.705,0.624,2.501,0.624c0.755,0,1.182-0.313,1.406-0.574C61.913,49.426,62.036,48.835,61.92,48.087z M30.784,50.152
	c-0.322,0.269-0.502,0.71-0.687,1.217c-0.027,0.072-0.05,0.135-0.025,0.104c-0.003,0.005-0.008,0.012-0.014,0.021
	c-0.042,0.066-0.162,0.277-0.592,1.177c-0.003,0.008-0.004,0.017-0.007,0.023c-4.156-0.71-7.313-2.196-8.484-3.296
	c-1.727-1.624-6.912-6.096-8.638-7.082c-0.22-0.126-0.583-0.396-0.542-0.8c0.042-0.415,0.479-0.815,1.032-0.999
	c1.964-0.431,3.109-1.345,4.434-2.403c1.283-1.025,2.738-2.188,5.434-3.261c1.921-0.833,3.846-1.323,5.604-1.605
	c0.042,0.615,0.228,1.375,0.795,2.114c0.095,0.125,0.188,0.249,0.279,0.372c0.792,1.075,1.38,2.126,0.925,3.141
	c-0.04,0.09-0.064,0.186-0.072,0.282c-0.095,1.241,0.146,1.959,0.174,2.037c0.051,0.142,0.137,0.265,0.246,0.358l-0.309,0.188
	c-0.339,0.207-0.489,0.62-0.363,0.997c0.098,0.29,0.341,0.499,0.629,0.56c-0.087,0.075-0.118,0.12-0.154,0.173
	c-0.138,0.209-0.178,0.484-0.109,0.726c-0.028,0.021-0.054,0.045-0.079,0.069c-0.122,0.123-0.334,0.377-0.488,0.688
	c-0.1,0.201-0.181,0.422-0.181,0.662c-0.008,0.146-0.141,0.714-0.289,1.238l-0.271,0.62c-0.138,0.315-0.072,0.683,0.167,0.931
	c0.024,0.025,0.326,0.335,0.755,0.723c0.305,0.275,0.671,0.588,1.058,0.871C30.917,50.055,30.837,50.107,30.784,50.152z
	 M47.687,47.586c-4.086,2.946-8.637,5.664-14.189,5.512c-0.78-0.021-1.54-0.075-2.276-0.155c0.108-0.222,0.223-0.455,0.267-0.53
	c0.082-0.124,0.131-0.258,0.205-0.459c0.044-0.12,0.139-0.381,0.207-0.507c0.027-0.015,0.057-0.03,0.088-0.047
	c0.416-0.225,1.112-0.602,1.131-1.355c0.008-0.325-0.117-0.794-0.761-1.186c-0.533-0.325-1.143-0.869-1.534-1.239l0.06-0.138
	c0.015-0.035,0.028-0.071,0.039-0.107c0.138-0.483,0.369-1.353,0.356-1.652c0.009-0.025,0.036-0.067,0.068-0.113l1.316-0.392
	c0.367-0.109,0.616-0.45,0.607-0.834c-0.005-0.235-0.107-0.452-0.272-0.604c0.474-0.286,1.021-0.611,1.539-0.917
	c0.344-0.202,0.501-0.617,0.376-0.997c-0.122-0.371-0.487-0.622-0.867-0.583c0.072-0.171,0.088-0.364,0.038-0.552
	c-0.099-0.364-0.426-0.62-0.803-0.628l-1.365-0.028c-0.013-0.178-0.018-0.396-0.004-0.652c0.832-2.091-0.604-3.963-1.47-5.093
	c-0.356-0.464-0.45-0.938-0.461-1.292c0.98-0.094,1.887-0.134,2.662-0.134c2.435,0,4.073,0.319,4.101,0.324
	c1.301,0.238,2.615,0.681,3.91,1.242c0.744,0.323,1.481,0.685,2.205,1.078c3.816,2.073,7.244,4.929,9.245,6.6
	c0.323,0.27,0.614,0.514,0.871,0.724l0.102,0.071c0.417,0.251,0.483,0.405,0.486,0.405c-0.04,0.473-1.83,1.605-3.048,2.372
	c-0.017,0.011-0.034,0.022-0.051,0.032c-0.483,0.304-1.003,0.637-1.531,0.984C48.52,47.008,48.1,47.288,47.687,47.586z
	 M60.148,48.719c-0.495,0-1.316-0.302-1.916-0.521c-0.19-0.069-0.369-0.135-0.531-0.189c-0.429-0.146-0.789-0.234-1.231-0.342
	c-0.777-0.189-1.794-0.44-3.953-1.21c1.649-1.075,2.76-1.979,2.748-3.127c-0.008-0.691-0.43-1.301-1.256-1.812
	c-0.242-0.199-0.514-0.427-0.813-0.677c-2.493-2.083-6.566-5.479-11.098-7.602c-1.252-4.313-1.451-8.067-1.477-8.755
	c0.128-0.502,0.574-2.373,0.539-3.894c-0.015-0.695,0.007-1.154,0.063-1.37c0.017,0.002,0.035,0.005,0.054,0.009
	c0.242,0.044,0.37,0.136,0.663,0.357c0.439,0.333,1.043,0.789,2.319,1.052c1.094,0.225,6.766,1.623,11.066,7.013
	c4.018,5.037,5.023,14.701,4.789,15.97c-0.315,1.715-0.228,2.448,0.125,4.726c0.033,0.214,0.023,0.33,0.035,0.362
	C60.249,48.714,60.209,48.719,60.148,48.719z M48.619,24.833c-0.095,0.668-0.874,1.373-2.317,2.093
	c-0.122,0.061-0.252,0.09-0.379,0.09c-0.312,0-0.612-0.172-0.761-0.47c-0.21-0.42-0.04-0.93,0.38-1.141
	c0.598-0.3,1.25-0.73,1.421-0.935c0.118-0.397,0.522-0.653,0.934-0.599C48.361,23.938,48.685,24.368,48.619,24.833z M47.946,27.018
	c0.287,0.362,0.245,0.877-0.109,1.172c-0.538,0.447-2.665,1.265-3.555,1.595c-0.098,0.036-0.197,0.053-0.296,0.053
	c-0.345,0-0.67-0.211-0.797-0.554c-0.163-0.44,0.061-0.929,0.501-1.093c1.263-0.469,2.795-1.108,3.063-1.312
	C47.123,26.6,47.658,26.657,47.946,27.018z M57.501,34.75c0.332,0.332,0.322,0.878-0.009,1.21c-0.698,0.699-2.579,0.86-3.639,0.894
	c-0.01,0-0.019,0-0.028,0c-0.456,0-0.834-0.362-0.849-0.822c-0.015-0.469,0.353-0.861,0.822-0.877
	c1.063-0.035,2.26-0.232,2.51-0.414C56.641,34.41,57.169,34.419,57.501,34.75z M36.304,45.95c0.335,1.034,1.101,3.535,0.957,4.438
	c-0.066,0.419-0.428,0.718-0.839,0.718c-0.044,0-0.089-0.004-0.134-0.011c-0.463-0.074-0.78-0.51-0.706-0.973
	c0.041-0.403-0.43-2.214-0.895-3.647c-0.145-0.447,0.1-0.926,0.546-1.071C35.678,45.258,36.158,45.503,36.304,45.95z M38.17,44.639
	c0.208,0.611,0.691,2.095,0.691,2.68c0,0.47-0.38,0.85-0.85,0.85s-0.85-0.38-0.85-0.85c-0.012-0.251-0.32-1.307-0.602-2.131
	c-0.151-0.444,0.086-0.928,0.53-1.079C37.534,43.955,38.019,44.194,38.17,44.639z"/>
</svg>
