<?xml version="1.0" encoding="utf-8"?>
<!-- Generator: Adobe Illustrator 16.0.0, SVG Export Plug-In . SVG Version: 6.00 Build 0)  -->
<!DOCTYPE svg PUBLIC "-//W3C//DTD SVG 1.1//EN" "http://www.w3.org/Graphics/SVG/1.1/DTD/svg11.dtd">
<svg version="1.1" id="Layer_1" xmlns="http://www.w3.org/2000/svg" xmlns:xlink="http://www.w3.org/1999/xlink" x="0px" y="0px"
	 width="72px" height="72px" viewBox="0 0 72 72" enable-background="new 0 0 72 72" xml:space="preserve">
<path fill="#444444" d="M55.007,35.773c1.527-1.529,2.368-3.559,2.367-5.718c0-0.106-0.03-0.209-0.088-0.297l-0.029-0.045
	l-0.012-0.052c-0.024-0.101-0.073-0.19-0.146-0.263c-1.053-1.053-2.453-1.633-3.94-1.633c-0.228,0-0.453,0.016-0.675,0.043
	l-0.274,0.033l-0.056-0.271c-0.014-0.063-0.031-0.12-0.055-0.174c-0.891-2.01-2.137-3.827-3.707-5.396
	c-0.922-0.923-2.146-1.391-3.639-1.391c-0.72,0-1.504,0.113-2.387,0.352l-0.16,0.047l-0.124-0.111
	c-1.681-1.508-3.854-2.338-6.123-2.338c-2.233,0-4.381,0.806-6.049,2.271l-0.118,0.104l-0.153-0.038
	c-0.757-0.189-1.478-0.285-2.143-0.285c-1.492,0-2.716,0.468-3.639,1.39c-2.025,2.024-3.548,4.529-4.403,7.244l-0.085,0.271
	l-0.276-0.069c-0.322-0.082-0.654-0.123-0.982-0.123c-1.055,0-2.055,0.411-2.803,1.159c-0.045,0.045-0.096,0.1-0.164,0.226
	c-0.08,0.1-0.148,0.219-0.148,0.347c-0.001,1.511,0.536,2.931,1.604,3.999c0.451,0.45,0.867,0.819,1.435,1.095L18,36.253v0.188
	c0,4.532,2.066,8.788,5.447,11.989c3.368,3.188,8.047,4.943,12.805,4.943c9.43,0,17.253-6.988,17.816-15.913
	c0.011-0.164-0.028-0.327-0.11-0.47l-0.136-0.234l0.219-0.158C54.376,36.354,54.701,36.077,55.007,35.773z M44.963,22.339
	c0.051,0,0.105-0.008,0.159-0.024l0.058-0.019l0.059,0.006c0.811,0.084,1.475,0.38,1.974,0.88c1.422,1.422,2.554,3.069,3.358,4.889
	l0.127,0.257l-0.25,0.14c-0.348,0.196-0.674,0.427-0.971,0.688l-0.09,0.078l-2.705-0.078c-0.492-0.033-0.984-0.049-1.47-0.049
	c-2.688,0-5.254,0.489-7.621,1.453l-0.528,0.216l0.123-0.558c0.008-0.038,0.014-0.077,0.014-0.116c0-0.963,0.375-1.868,1.056-2.55
	c0.681-0.682,1.587-1.057,2.55-1.057c0.305,0,0.551-0.247,0.551-0.551C41.355,23.956,42.975,22.339,44.963,22.339z M20.998,29.873
	c0.017-0.036,0.033-0.074,0.045-0.111c0.785-2.5,2.128-4.712,3.993-6.576c0.521-0.521,1.216-0.82,2.066-0.888l0.058-0.005
	l0.055,0.018c0.059,0.017,0.117,0.027,0.172,0.027c0.761,0,1.476,0.296,2.016,0.834c0.539,0.539,0.835,1.255,0.835,2.017
	c0,0.304,0.247,0.552,0.488,0.559l0.132-0.007c0.145,0,0.282-0.057,0.386-0.16c0.539-0.539,1.255-0.835,2.017-0.835
	c0.762,0,1.478,0.296,2.016,0.834c0.105,0.105,0.244,0.163,0.39,0.163s0.284-0.058,0.389-0.163c0.103-0.103,0.161-0.242,0.161-0.388
	c0-0.148-0.057-0.286-0.161-0.39c-0.746-0.746-1.739-1.157-2.795-1.157c-0.609,0-1.191,0.133-1.731,0.396l-0.303,0.147l-0.112-0.317
	c-0.128-0.364-0.309-0.705-0.538-1.017l-0.107-0.248l0.183-0.183c1.415-1.414,3.298-2.193,5.305-2.193s3.892,0.779,5.373,2.254
	l0.237,0.192l-0.198,0.233c-0.558,0.659-0.923,1.453-1.056,2.297l-0.035,0.216l-0.215,0.034c-0.983,0.153-1.877,0.609-2.588,1.319
	c-0.89,0.889-1.378,2.071-1.378,3.328c0,0.199,0.107,0.383,0.281,0.48l0.496,0.278l-0.51,0.252
	c-1.299,0.641-2.521,1.436-3.633,2.364l-0.198,0.165l-0.193-0.171c-2.397-2.118-5.457-3.238-8.847-3.238
	c-0.33,0-0.663,0.011-1.01,0.035l-1.699,0.048L20.998,29.873z M17.483,34.278c-0.781-0.782-1.251-1.818-1.322-2.917l-0.01-0.149
	l0.113-0.098c0.514-0.443,1.173-0.688,1.854-0.688c0.761,0,1.477,0.297,2.016,0.836c0.102,0.101,0.243,0.16,0.404,0.16
	c0.001,0,2.015-0.059,2.015-0.059c0.316-0.021,0.63-0.031,0.941-0.031c3.046,0,5.804,0.984,7.977,2.843l0.246,0.21l-0.229,0.229
	c-0.406,0.407-0.798,0.842-1.166,1.287l-0.035,0.045l-0.047,0.029c-0.045,0.027-0.081,0.06-0.113,0.092
	c-0.539,0.54-1.255,0.847-2.017,0.847c-0.761,0-1.477-0.269-2.016-0.808C25.991,36.004,25.852,36,25.705,36h-0.031
	c-0.145,0-0.282,0.004-0.385,0.107c-0.539,0.54-1.255,0.784-2.017,0.784c-0.743,0-1.446-0.285-1.979-0.802l-0.05-0.049l-0.023-0.065
	c-0.079-0.218-0.287-0.364-0.518-0.364C19.486,35.611,18.343,35.137,17.483,34.278z M25.997,48.252l-0.474-0.396
	c-3.289-2.758-5.218-6.549-5.428-10.67l-0.038-0.734l0.54,0.498c0.73,0.672,1.68,1.042,2.674,1.042c0.81,0,1.587-0.242,2.248-0.7
	l0.171-0.119l0.171,0.119c0.661,0.458,1.438,0.7,2.248,0.7l0.726-0.03l-0.273,0.475c-1.586,2.756-2.442,5.85-2.546,9.199
	L25.997,48.252z M34.462,38.29c1.051,1.052,2.451,1.632,3.94,1.632c1.271,0,2.467-0.416,3.457-1.201l0.182-0.144l0.186,0.138
	c0.961,0.715,2.105,1.094,3.318,1.094c1.465,0,2.85-0.564,3.896-1.59l0.082-0.08l0.115-0.006c0.791-0.033,1.568-0.181,2.309-0.438
	l0.447-0.156l-0.052,0.472c-0.843,7.808-7.761,13.694-16.091,13.694c-3.22,0-6.331-0.895-8.997-2.586l-0.135-0.085l-0.004-0.16
	c-0.139-5.233,1.694-10.024,5.163-13.494c3.335-3.335,7.929-5.172,12.936-5.172c0.467,0,0.936,0.016,1.432,0.046l2.959,0.085
	c0.146,0,0.285-0.056,0.389-0.16c0.844-0.845,1.967-1.31,3.162-1.31c1.117,0,2.188,0.414,3.012,1.166l0.102,0.093l-0.004,0.138
	c-0.053,1.787-0.777,3.465-2.041,4.728c-1.32,1.32-3.072,2.047-4.938,2.047c-0.182,0-0.35,0.088-0.453,0.236l-0.093,0.095
	l-0.034,0.026c-0.846,0.844-1.969,1.309-3.162,1.309c-1.195,0-2.318-0.465-3.162-1.309c-0.105-0.104-0.242-0.162-0.39-0.162
	s-0.285,0.058-0.392,0.164c-0.041,0.041-0.076,0.09-0.104,0.148L41.473,37.6l-0.041,0.039c-0.828,0.762-1.902,1.182-3.029,1.182
	c-1.194,0-2.317-0.465-3.163-1.31c-0.104-0.104-0.242-0.161-0.389-0.161s-0.285,0.058-0.39,0.162
	C34.357,37.616,34.3,37.754,34.3,37.9C34.3,38.048,34.358,38.186,34.462,38.29z"/>
</svg>
