<?xml version="1.0" encoding="utf-8"?>
<!-- Generator: Adobe Illustrator 16.0.0, SVG Export Plug-In . SVG Version: 6.00 Build 0)  -->
<!DOCTYPE svg PUBLIC "-//W3C//DTD SVG 1.1//EN" "http://www.w3.org/Graphics/SVG/1.1/DTD/svg11.dtd">
<svg version="1.1" id="Layer_1" xmlns="http://www.w3.org/2000/svg" xmlns:xlink="http://www.w3.org/1999/xlink" x="0px" y="0px"
	 width="72px" height="72px" viewBox="0 0 72 72" enable-background="new 0 0 72 72" xml:space="preserve">
<path fill="#444444" d="M55.341,20.784c-0.044-0.347,0.079-1.155,0.163-1.712c0.166-1.094,0.354-2.332,0.172-3.446
	c-0.107-0.654-0.537-0.833-0.718-0.88c-0.733-0.19-1.247,0.458-2.269,1.752c-1.211,1.536-3.045,3.859-4.821,4.062
	c-0.593,0.071-1.149-0.115-1.698-0.558c-0.014-0.011-0.031-0.014-0.046-0.023c-7.075-5.427-16.766-5.773-24.216-0.824
	c-9.578,6.358-12.195,19.324-5.836,28.902c0.19,0.286,0.393,0.562,0.594,0.836c-0.361,0.42-1.87,1.939-5.238,2.551
	c-0.416,0.076-0.693,0.475-0.618,0.893c0.069,0.368,0.392,0.627,0.756,0.627c0.045,0,0.091-0.003,0.138-0.012
	c3.412-0.619,5.204-2.088,5.927-2.842c4.051,4.721,9.898,7.255,15.843,7.255c3.961,0,7.965-1.124,11.502-3.474
	c7.448-4.947,10.883-13.992,8.642-22.608c-0.007-0.023-0.003-0.047-0.013-0.069c0-0.004-0.008-0.023-0.014-0.038
	c-0.021-0.088-0.037-0.174-0.063-0.261c0-0.003-0.004-0.006-0.004-0.009c-0.075-0.397-0.123-1.14,0.328-1.984
	c0.599-1.121,2.223-2.661,6.568-3.631c0.486-0.107,0.801-0.504,0.781-0.985C61.156,23.1,58.545,21.284,55.341,20.784z
	 M52.477,28.247c-0.772,1.487-0.516,2.802-0.365,3.312c2.134,8.016-1.051,16.45-7.98,21.054c-8.877,5.891-20.887,3.466-26.779-5.406
	c-5.892-8.873-3.467-20.885,5.405-26.776c6.984-4.639,16.095-4.265,22.667,0.932c0.041,0.032,0.09,0.045,0.135,0.067
	c0.777,0.52,1.609,0.752,2.484,0.652c2.412-0.274,4.482-2.898,5.854-4.636c0.1-0.125,0.205-0.258,0.31-0.39
	c-0.034,0.591-0.128,1.21-0.215,1.784c-0.194,1.283-0.349,2.297,0.131,2.941c0.204,0.273,0.495,0.444,0.844,0.494
	c2.05,0.292,3.552,1.139,4.271,1.724C55.743,24.903,53.471,26.33,52.477,28.247z M42.175,24.325
	c-0.216,0.366-0.687,0.485-1.05,0.271c-10.133-5.987-17.48,1.315-17.789,1.628c-0.15,0.154-0.349,0.23-0.548,0.23
	c-0.193,0-0.386-0.072-0.536-0.219c-0.302-0.295-0.309-0.779-0.014-1.083c0.084-0.085,8.476-8.489,19.667-1.878
	C42.27,23.49,42.391,23.961,42.175,24.325z"/>
</svg>
