<?xml version="1.0" encoding="utf-8"?>
<!-- Generator: Adobe Illustrator 16.0.0, SVG Export Plug-In . SVG Version: 6.00 Build 0)  -->
<!DOCTYPE svg PUBLIC "-//W3C//DTD SVG 1.1//EN" "http://www.w3.org/Graphics/SVG/1.1/DTD/svg11.dtd">
<svg version="1.1" id="Layer_1" xmlns="http://www.w3.org/2000/svg" xmlns:xlink="http://www.w3.org/1999/xlink" x="0px" y="0px"
	 width="72px" height="72px" viewBox="0 0 72 72" enable-background="new 0 0 72 72" xml:space="preserve">
<path fill="#444444" d="M51.048,27.394c-0.772-0.94-2.228-2.059-4.78-2.059c-0.36,0-0.742,0.023-1.131,0.07l-0.443-0.307
	c-0.674-0.545-2.848-2.051-6.651-2.36l-0.233-0.02l-0.037-0.233c-0.279-1.716-1.025-5.001-2.913-7.689
	c-0.144-0.206-0.381-0.334-0.632-0.334c-0.158,0-0.311,0.035-0.441,0.127l-2.296,1.583c-0.286,0.2-0.402,0.518-0.281,0.846
	c0.043,0.117,1.043,2.802,1.333,5.99c0.036,0.391,0.367,0.492,0.83,0.492c0.003,0,0.006,0,0.009,0c0.205,0,0.39,0.091,0.522-0.067
	c0.132-0.158,0.195-0.152,0.176-0.357c-0.222-2.433-0.824-4.622-1.164-5.712l-0.065-0.209l1.173-0.822l0.163,0.286
	c1.785,3.122,2.157,6.76,2.173,6.914c0.037,0.399,0.368,0.7,0.804,0.7c1.56,0.049,3.015,0.329,4.319,0.835l-0.102,0.579
	c-0.893,0.024-1.889,0.214-2.963,0.568c-0.699,0.229-1.199,0.232-2.035,0.237l-0.207,0.008l-0.038-0.005l-0.288-0.003
	c-0.684,0-1.183-0.015-1.857-0.237c-1.174-0.386-2.236-0.582-3.156-0.582c-1.065,0-1.959,0.25-2.733,0.763
	c-2.089,1.383-2.607,4.366-2.841,7.123c-0.054,0.346-0.285,2.323,0.508,7.322c0.855,5.382,1.628,7.609,1.641,7.646
	c0.382,1.244,0.847,2.69,1.4,3.97l0.311,0.719l-0.711-0.327c-3.495-1.604-4.78-6.51-5.093-7.988l-2.002-11.815
	c-0.352-1.796-0.009-3.541,0.92-4.668c0.524-0.638,1.225-1.077,2.085-1.307c0.329-0.534,0.682-0.989,1.077-1.391
	c0.113-0.115,0.233-0.228,0.362-0.341c-2.511,0.02-3.95,1.129-4.716,2.06c-1.236,1.502-1.691,3.662-1.246,5.931l2.005,11.833
	c1.222,5.769,4.221,9.327,8.229,9.739l0.129,0.037l0.079,0.151c1.207,1.578,2.701,2.41,4.703,2.41h2.529
	c2.026,0,3.535-0.851,4.75-2.465l0.072-0.194l0.121-0.02c3.827-0.586,6.699-4.127,7.879-9.702l1.996-11.777
	C52.738,31.063,52.285,28.896,51.048,27.394z M37.473,55.498h-2.53c-2.857,0-4.218-1.609-6.064-7.627
	c-0.032-0.092-0.77-2.155-1.583-7.271c-0.762-4.806-0.538-6.636-0.51-6.829l0.015-0.101c0.188-2.247,0.603-4.959,2.157-5.988
	c0.501-0.332,1.139-0.5,1.898-0.5c0.756,0,1.65,0.168,2.658,0.498c0.953,0.313,1.674,0.314,2.601,0.314l0.115-0.009l0.154,0.008
	c0.873,0,1.562-0.002,2.519-0.317c1.009-0.33,1.902-0.502,2.658-0.502c0.758,0,1.397,0.159,1.898,0.491
	c1.553,1.028,1.969,3.724,2.166,6.049c0.004,0.017,0.297,1.759-0.505,6.818c-0.792,4.989-1.515,7.138-1.593,7.368
	C41.688,53.896,40.329,55.498,37.473,55.498z M50.773,33.063l-1.994,11.766c-0.291,1.371-1.482,5.983-4.656,7.788l-0.764,0.434
	l0.338-0.81c0.516-1.235,0.962-2.634,1.297-3.726c0.031-0.094,0.801-2.332,1.65-7.676c0.793-5.003,0.562-6.976,0.504-7.342
	c-0.168-1.997-0.521-4.495-1.771-6.1l-0.336-0.431l0.543-0.053c0.234-0.022,0.463-0.036,0.684-0.036c1.564,0,2.772,0.503,3.59,1.497
	C50.785,29.502,51.127,31.258,50.773,33.063z M32.307,32.494c-0.007,0.024-0.708,2.336-0.188,5.768
	c0.063,0.422-0.228,0.815-0.648,0.879c-0.04,0.006-0.079,0.008-0.118,0.008c-0.377,0-0.705-0.281-0.761-0.656
	c-0.579-3.83,0.211-6.364,0.245-6.469c0.103-0.32,0.399-0.535,0.736-0.535c0.08,0,0.159,0.013,0.235,0.037
	C32.21,31.655,32.434,32.089,32.307,32.494z"/>
</svg>
