<?xml version="1.0" encoding="utf-8"?>
<!-- Generator: Adobe Illustrator 16.0.0, SVG Export Plug-In . SVG Version: 6.00 Build 0)  -->
<!DOCTYPE svg PUBLIC "-//W3C//DTD SVG 1.1//EN" "http://www.w3.org/Graphics/SVG/1.1/DTD/svg11.dtd">
<svg version="1.1" id="Layer_1" xmlns="http://www.w3.org/2000/svg" xmlns:xlink="http://www.w3.org/1999/xlink" x="0px" y="0px"
	 width="72px" height="72px" viewBox="0 0 72 72" enable-background="new 0 0 72 72" xml:space="preserve">
<path fill="#444444" d="M54.111,32.227c-0.346-0.195-0.361-0.672-0.01-0.863c5.744-3.125,6.856-10.918,2.248-15.528
	c-4.605-4.604-12.397-3.505-15.529,2.248c-0.191,0.354-0.67,0.332-0.863-0.011c-0.777-1.376-1.926-2.549-3.324-3.393
	c-3.575-2.155-8.167-1.507-11.168,1.579c-0.047,0.048-0.094,0.098-0.134,0.142c-5.549,5.945-8.077,20.81-6.056,35.455l-5.993,5.994
	c-0.291,0.289-0.291,0.76,0,1.051c0.291,0.291,0.762,0.291,1.052,0l5.993-5.992c14.685,2.027,29.522-0.518,35.448-6.049
	c3.039-2.745,4.021-7.504,1.728-11.309C56.648,34.134,55.508,33.016,54.111,32.227z M54.77,45.764
	c-5.406,5.045-19.445,7.469-33.111,5.814L33.216,40.02c0.03,0.002,16.409,0.869,16.438,0.869c0.394,0,0.723-0.308,0.742-0.705
	c0.022-0.41-0.293-0.76-0.703-0.781l-15.063-0.797l15.321-15.319c0.291-0.29,0.291-0.762,0-1.053c-0.29-0.29-0.763-0.29-1.054,0
	l-20.72,20.719l4.587-20.257c0.09-0.401-0.161-0.8-0.562-0.89c-0.401-0.092-0.8,0.16-0.891,0.561l-5.107,22.56l-5.6,5.6
	c-1.655-13.666,0.77-27.704,5.821-33.116c3.459-3.794,9.634-3.208,12.236,1.396c0.766,1.355,2.713,1.375,3.467-0.011
	c2.656-4.881,9.266-5.808,13.168-1.907c3.904,3.906,2.973,10.516-1.906,13.169c-1.379,0.751-1.371,2.699-0.011,3.468
	c1.171,0.661,2.13,1.602,2.849,2.795C58.133,39.475,57.326,43.434,54.77,45.764z"/>
</svg>
