<?xml version="1.0" encoding="utf-8"?>
<!-- Generator: Adobe Illustrator 16.0.0, SVG Export Plug-In . SVG Version: 6.00 Build 0)  -->
<!DOCTYPE svg PUBLIC "-//W3C//DTD SVG 1.1//EN" "http://www.w3.org/Graphics/SVG/1.1/DTD/svg11.dtd">
<svg version="1.1" id="Layer_1" xmlns="http://www.w3.org/2000/svg" xmlns:xlink="http://www.w3.org/1999/xlink" x="0px" y="0px"
	 width="72px" height="72px" viewBox="0 0 72 72" enable-background="new 0 0 72 72" xml:space="preserve">
<path fill="#434343" d="M57.757,14.515c-0.215-0.092-0.461-0.139-0.733-0.139c-1.55,0-4.271,1.554-8.581,4.09
	c-3.989,2.347-8.511,5.006-11.964,5.969c-4.163,1.16-7.975,1.309-10.831,1.309c-1.002,0-1.948-0.021-2.829-0.04
	c-0.777-0.017-1.505-0.032-2.175-0.032c-1.292,0-2.191,0.061-2.917,0.199c-3.363,0.639-5.348,2.899-5.431,2.995
	c-0.197,0.229-0.258,0.544-0.16,0.83c0.097,0.286,0.34,0.499,0.636,0.559c0.024,0.005,2.432,0.515,3.208,2.234
	c1.895,4.187,4.521,6.4,7.594,6.4c0.67,0,1.365-0.107,2.063-0.318c0.438-0.13,0.856-0.322,1.245-0.571
	c0.773-0.497,1.813-0.469,2.59,0.07c1.052,0.728,2.211,0.944,3.358,0.622c0.834-0.231,1.55-0.602,2.129-1.1
	c0.602-0.521,1.497-0.687,2.276-0.419c0.401,0.138,0.82,0.206,1.247,0.228c-0.358,0.389-0.715,0.752-1.068,1.075
	c-3.991,3.652-8.214,5.68-11.607,7.309c-1.831,0.879-3.413,1.638-4.469,2.452c-2.71,2.09-3.458,5.003-3.489,5.126
	c-0.072,0.293,0.017,0.603,0.232,0.813c0.217,0.211,0.53,0.293,0.82,0.212c0.006-0.002,0.65-0.176,1.476-0.176
	c0.998,0,1.804,0.241,2.396,0.717c2.432,1.953,4.737,2.943,6.85,2.943c1.686,0,3.206-0.635,4.516-1.885
	c0.333-0.316,0.619-0.678,0.851-1.073c0.47-0.803,1.372-1.243,2.342-1.108c0.214,0.029,0.431,0.046,0.65,0.046
	c1.011,0,1.895-0.339,2.628-1.008c0.646-0.591,1.118-1.246,1.401-1.946c0.308-0.749,1.013-1.287,1.84-1.403
	c0.97-0.136,1.856-0.572,2.637-1.3c0.762-0.711,1.269-1.531,1.507-2.442c0.198-0.77,0.78-1.379,1.518-1.591
	c0.931-0.268,1.771-0.836,2.496-1.689c0.873-1.022,1.258-2.295,1.113-3.679c-0.1-0.969,0.406-1.889,1.288-2.343
	c0.552-0.282,1.688-1.112,2.07-1.638c1.711-2.375,1.843-4.485,1.305-7.116c1.013-1.249,1.556-2.778,1.992-4.692
	C61.087,17.264,59.402,15.219,57.757,14.515z M55.103,33.815c-0.159,0.218-1.02,0.892-1.471,1.123
	c-1.51,0.778-2.374,2.359-2.202,4.029c0.097,0.924-0.144,1.731-0.716,2.402c-0.506,0.595-1.067,0.983-1.672,1.157
	c-1.313,0.377-2.345,1.45-2.693,2.797c-0.155,0.592-0.498,1.14-1.021,1.627c-0.52,0.484-1.096,0.773-1.714,0.859
	c-1.424,0.2-2.641,1.136-3.178,2.445c-0.188,0.466-0.517,0.915-0.974,1.332c-0.516,0.471-1.194,0.628-1.899,0.534
	c-1.666-0.228-3.225,0.538-4.041,1.933c-0.151,0.259-0.338,0.494-0.556,0.701c-0.998,0.953-2.092,1.416-3.343,1.416
	c-2.138,0-4.326-1.396-5.786-2.569c-0.888-0.713-2.085-1.091-3.46-1.091c-0.132,0-0.26,0.004-0.384,0.01
	c0.425-0.855,1.166-1.999,2.383-2.938c0.915-0.705,2.421-1.428,4.166-2.266c3.31-1.589,7.844-3.765,12.02-7.587
	c2.81-2.569,5.703-7.085,8.256-11.07c1.832-2.858,4.34-6.773,5.2-6.957l0.138-0.004c2.087,0,3.243,3.37,3.747,5.378
	C56.595,29.849,56.661,31.652,55.103,33.815z M58.118,22.626c-0.252,1.108-0.529,2.029-0.914,2.821
	c-1.398-4.458-3.484-5.448-5.049-5.448c-0.082,0-0.164,0.003-0.247,0.008c-1.563,0.101-3.22,2.583-6.521,7.736
	c-1.639,2.558-3.421,5.329-5.2,7.623c-0.16,0.07-0.305,0.155-0.483,0.207c-0.681,0.196-1.328,0.194-1.918-0.008
	c-1.341-0.457-2.884-0.168-3.936,0.74c-0.388,0.333-0.884,0.586-1.476,0.751c-0.662,0.184-1.301,0.057-1.935-0.384
	c-1.331-0.921-3.139-0.964-4.478-0.102c-0.252,0.162-0.525,0.287-0.813,0.373c-0.542,0.163-1.071,0.246-1.575,0.246
	c-2.976,0-4.93-2.937-6.045-5.4c-0.64-1.418-1.917-2.246-2.936-2.703c0.77-0.573,1.952-1.261,3.45-1.546
	c0.617-0.117,1.418-0.169,2.6-0.169c0.659,0,1.374,0.016,2.139,0.032c0.892,0.019,1.85,0.04,2.865,0.04
	c2.964,0,6.926-0.156,11.288-1.372c3.668-1.022,8.291-3.742,12.369-6.141c3.222-1.895,6.552-3.854,7.783-3.854h0.001
	C59.09,16.935,58.593,20.548,58.118,22.626z M33.518,51.609c-0.684,1.642-1.701,2.631-3.021,2.939
	c-0.29,0.067-0.58,0.098-0.866,0.098c-2.121,0-4.033-1.645-4.124-1.724c-0.353-0.309-0.389-0.844-0.082-1.197
	c0.308-0.354,0.844-0.393,1.199-0.085c0.524,0.454,2.173,1.57,3.491,1.251c0.756-0.178,1.373-0.829,1.834-1.937
	c0.181-0.433,0.679-0.64,1.111-0.457C33.493,50.678,33.698,51.176,33.518,51.609z M27.581,33.235
	c0.316,0.347,0.292,0.884-0.055,1.201c-1.068,0.975-2.153,1.466-3.235,1.466c-0.249,0-0.497-0.026-0.746-0.078
	c-2.451-0.514-3.781-3.456-3.836-3.581c-0.19-0.429,0.003-0.929,0.431-1.12c0.424-0.192,0.93,0.001,1.122,0.429
	c0.076,0.168,0.207,0.415,0.38,0.688c0.475,0.752,1.283,1.719,2.256,1.921c0.639,0.132,1.33-0.099,2.058-0.647
	c0.141-0.106,0.28-0.204,0.423-0.334C26.726,32.865,27.264,32.889,27.581,33.235z"/>
</svg>
