<?xml version="1.0" encoding="utf-8"?>
<!-- Generator: Adobe Illustrator 16.0.0, SVG Export Plug-In . SVG Version: 6.00 Build 0)  -->
<!DOCTYPE svg PUBLIC "-//W3C//DTD SVG 1.1//EN" "http://www.w3.org/Graphics/SVG/1.1/DTD/svg11.dtd">
<svg version="1.1" id="Layer_1" xmlns="http://www.w3.org/2000/svg" xmlns:xlink="http://www.w3.org/1999/xlink" x="0px" y="0px"
	 width="72px" height="72px" viewBox="0 0 72 72" enable-background="new 0 0 72 72" xml:space="preserve">
<path fill="#444444" d="M53.689,30.102l0.664-0.459c2.533-1.75,3.986-4.343,3.986-7.114c0-4.833-3.932-8.766-8.766-8.766
	c-3.076,0-5.752,0.977-7.16,2.615L42,16.859l-0.521-0.364c-1.386-0.976-2.61-1.155-4.521-1.155c-3.977,0-7.632,2.729-8.693,6.491
	l-0.199,0.708l-0.697-0.235c-1.131-0.38-1.946-0.653-3.031-0.653c-5.703,0-10.343,4.64-10.343,10.344
	c0,3.572,2.195,6.155,4.037,7.694l0.393,0.328l-0.192,0.474c-0.535,1.315-1.082,2.833-1.082,4.126c0,2.57,0.959,5.04,2.7,6.951
	l0.379,0.414l-0.322,0.461c-1.198,1.701-2.193,3.24-2.957,4.578c-0.2,0.349-0.078,0.795,0.273,0.996
	c0.107,0.063,0.231,0.094,0.359,0.096c0.266,0,0.503-0.137,0.634-0.366c0.71-1.242,1.631-2.673,2.737-4.251l0.386-0.551l0.566,0.365
	c1.675,1.078,3.607,1.646,5.587,1.646c0.883,0,1.892-0.516,2.541-0.996l0.505-0.374l0.426,0.462
	c1.712,1.854,4.415,4.063,7.566,4.063c5.703,0,10.344-4.639,10.344-10.342c0-0.191-0.127-0.506-0.238-0.783
	c-0.115-0.287-0.246-0.613-0.295-0.936l-0.107-0.693l0.693-0.104c4.467-0.68,7.834-4.346,7.834-8.525
	c0-2.096-0.92-4.294-2.525-6.035L53.689,30.102z M48.707,43.811c-0.57,0.086-1.074,0.392-1.414,0.856
	c-0.342,0.467-0.482,1.039-0.395,1.608c0.074,0.481,0.235,0.888,0.379,1.246l0.123,0.301l0.012,0.184
	c-0.125,4.768-4.109,8.648-8.881,8.648c-2.757,0-5.252-2.252-6.493-3.594c-0.407-0.442-0.985-0.695-1.588-0.695
	c-0.469,0-0.913,0.148-1.287,0.427c-0.611,0.456-1.314,0.705-1.666,0.707c-1.637,0-3.246-0.459-4.655-1.328l-0.65-0.401l0.458-0.612
	c1.649-2.207,3.557-4.595,5.673-7.095l0.292-0.346l10.207,2.93c0.068,0.021,0.134,0.029,0.203,0.029
	c0.322,0,0.611-0.216,0.701-0.527c0.053-0.188,0.032-0.385-0.063-0.556c-0.095-0.171-0.248-0.295-0.437-0.349l-9.568-2.746
	l0.727-0.83c1.38-1.578,2.838-3.195,4.333-4.807l0.244-0.266l0.396,0.051l0.126,0.031l10.69-0.01c0.422,0,0.729-0.454,0.729-0.835
	S46.596,35,46.174,35h-9.887l1.111-1.075c3.037-3.147,5.668-5.615,7.826-7.515l0.068-0.034c2.406-2.117,4.236-3.474,5.477-4.096
	c0.168-0.083,0.285-0.222,0.35-0.412c0.059-0.173,0.031-0.367-0.063-0.556c-0.121-0.242-0.422-0.402-0.715-0.402
	c-0.119,0-0.359,0.029-0.455,0.078c-0.746,0.372-1.689,1.049-2.852,1.984l-0.66,0.449L45,24.363v-2.722c0-0.381-0.581-0.729-1-0.729
	s-1,0.347-1,0.729v3.985l0.27,0.205c-1.06,0.948-1.651,2.004-2.771,3.122c-0.399,0.401-0.787,0.81-1.211,1.229l-1.033,0.932
	l-1.334-8.163c-0.055-0.344-0.374-0.613-0.73-0.613c-0.04,0-0.087,0.003-0.128,0.009c-0.196,0.032-0.367,0.137-0.481,0.294
	c-0.116,0.159-0.162,0.352-0.131,0.541l1.48,9.253l-0.246,0.252c-2.246,2.307-4.489,4.724-6.668,7.184l-0.687,0.775L23.955,29.89
	c-0.125-0.25-0.376-0.404-0.654-0.404c-0.113,0-0.222,0.026-0.325,0.077c-0.359,0.18-0.506,0.62-0.327,0.98l5.649,11.296
	l-0.302,0.353c-2.386,2.781-4.529,5.435-6.37,7.891l-0.547,0.729l-0.563-0.715c-1.248-1.585-1.907-3.479-1.907-5.48
	c0-1.166,0.63-2.725,0.968-3.563c0.36-0.882,0.115-1.88-0.608-2.484c-1.604-1.342-3.515-3.571-3.515-6.575
	c0-4.9,3.986-8.885,8.884-8.885c0.807,0,1.377,0.18,2.487,0.552c0.288,0.098,0.517,0.139,0.767,0.139
	c0.349,0,0.697-0.086,1.01-0.249c0.518-0.275,0.908-0.758,1.068-1.324c0.872-3.094,4.006-5.428,7.289-5.428
	c1.902,0,2.693,0.192,3.682,0.889c0.367,0.258,0.797,0.395,1.242,0.395c0.631,0,1.229-0.274,1.637-0.752
	c1.117-1.301,3.438-2.108,6.053-2.108c4.031,0,7.308,3.279,7.308,7.307c0,2.283-1.224,4.439-3.358,5.914
	c-0.513,0.354-0.847,0.915-0.918,1.54c-0.066,0.622,0.137,1.243,0.561,1.702c1.34,1.45,2.139,3.335,2.139,5.043
	C55.303,40.534,51.949,43.316,48.707,43.811z"/>
</svg>
