<?xml version="1.0" encoding="utf-8"?>
<!-- Generator: Adobe Illustrator 16.0.0, SVG Export Plug-In . SVG Version: 6.00 Build 0)  -->
<!DOCTYPE svg PUBLIC "-//W3C//DTD SVG 1.1//EN" "http://www.w3.org/Graphics/SVG/1.1/DTD/svg11.dtd">
<svg version="1.1" id="Layer_1" xmlns="http://www.w3.org/2000/svg" xmlns:xlink="http://www.w3.org/1999/xlink" x="0px" y="0px"
	 width="72px" height="72px" viewBox="0 0 72 72" enable-background="new 0 0 72 72" xml:space="preserve">
<path fill="#444444" d="M56.121,16.805c-1.281-0.797-2.685-1.218-4.058-1.218c-1.982,0-3.843,0.876-5.239,2.468l-2.516,2.864
	c-0.203,0.231-0.415,0.506-0.638,0.796c-0.644,0.837-1.443,1.88-2.27,1.896c-0.13,0-0.261-0.02-0.391-0.038
	c-0.277-0.038-0.576-0.066-0.825-0.045c-1.513,0.118-2.29,1.522-2.857,2.547l-0.066,0.121c-1.679,3.014-4.75,4.851-8.017,6.618
	c-0.561,0.303-1.153,0.597-1.757,0.897c-2.489,1.237-5.31,2.64-6.871,5.156c-0.224,0.362-0.425,0.738-0.625,1.113
	c-0.271,0.511-0.527,0.992-0.841,1.426c-0.202,0.28-0.426,0.552-0.67,0.82c-1.479,1.642-3.66,3.072-5.172,4.007
	c-1.152,0.712-1.9,1.801-2.164,3.148c-0.312,1.594,0.106,3.374,1.118,4.76c0.911,1.249,2.973,2.541,4.848,2.541
	c0.138,0,0.274-0.007,0.458-0.027l0,0.002c0.521-0.059,1.002-0.215,1.434-0.467c3.166-1.851,5.575-3.617,7.363-5.399
	c0.39-0.387,0.836-0.846,1.2-1.404c0.255-0.393,0.446-0.796,0.63-1.187c0.104-0.22,0.207-0.439,0.32-0.65
	c1.011-1.866,3.218-2.993,5.353-4.083c0.606-0.311,1.199-0.613,1.749-0.925c0.497-0.282,0.968-0.594,1.438-0.904
	c0.372-0.247,0.744-0.494,1.129-0.722c0.285-0.17,0.573-0.317,0.858-0.465c0.725-0.375,1.474-0.762,2.147-1.438
	c0.441-0.441,0.771-0.914,1.092-1.371c0.385-0.55,0.749-1.069,1.252-1.433c1.853-1.334,4.104-2.567,6.695-3.665l4.206-1.782
	l2.845-1.175l0.111-0.045c1.505-0.616,3.124-1.464,3.695-3.527C62.09,22.417,58.786,18.462,56.121,16.805z M59.45,25.563
	c-0.142,0.513-0.379,0.912-0.716,1.248c0.011-0.143,0.016-0.289,0.016-0.438c0,0,0,0,0,0c0-0.416-0.043-0.852-0.124-1.263
	c-0.206-1.037-0.593-2.013-1.151-2.905c-0.024-0.039-0.048-0.077-0.073-0.115c-0.001-0.001-0.002-0.003-0.003-0.004v0l-1.426,0.925
	c0.475,0.732,0.815,1.572,0.985,2.43c0.061,0.304,0.092,0.626,0.092,0.933v0c0,0.454-0.07,1.254-0.53,1.69l-0.343,0.136
	c-0.307,0.121-0.614,0.242-0.915,0.37l-2.798,1.185c0.107-0.421,0.163-0.857,0.162-1.295c0-0.442-0.057-0.877-0.168-1.294
	l-1.643,0.441c0.074,0.273,0.111,0.56,0.111,0.853c0,0.848-0.304,1.677-0.839,2.301l-0.523,0.223
	c-2.703,1.146-5.066,2.44-7.023,3.85c-0.085,0.062-0.167,0.125-0.246,0.191c-0.024-0.477-0.096-0.951-0.212-1.387l-1.643,0.435
	c0.106,0.405,0.163,0.857,0.163,1.307c0,0,0,0.001,0,0.001c0,0.549-0.105,2.379-1.464,3.009l0.027,0.06
	c-0.286,0.176-0.591,0.333-0.903,0.494c-0.314,0.163-0.632,0.327-0.944,0.514c-0.408,0.241-0.804,0.503-1.201,0.767
	c-0.437,0.289-0.875,0.58-1.337,0.843c-0.529,0.3-1.1,0.591-1.684,0.889c-0.259,0.133-0.521,0.267-0.785,0.404
	c0.018-0.176,0.027-0.354,0.027-0.537c0-0.496-0.074-0.99-0.214-1.428l-1.619,0.518c0.087,0.272,0.133,0.588,0.133,0.911
	c0,0.782-0.268,1.487-0.699,1.84l0.037,0.046c-1.197,0.802-2.267,1.767-2.955,3.035c-0.129,0.24-0.247,0.486-0.363,0.733
	c-0.074,0.156-0.146,0.31-0.22,0.457c-0.092-0.749-0.394-1.405-0.647-1.896c-0.377-0.729-1-1.775-2.047-2.432l-0.902,1.441
	c0.016,0.01,0.031,0.02,0.046,0.029c0.508,0.334,0.951,0.888,1.391,1.737c0.001,0.002,0.001,0.003,0.002,0.005
	c0.192,0.372,0.42,0.861,0.474,1.347c0,0.001,0,0.002,0,0.003c0.01,0.091,0.015,0.18,0.015,0.269c0,0.001,0,0.001,0,0.002
	c0,0.781-0.355,1.567-1.152,2.551h0c-1.019,0.845-2.2,1.696-3.559,2.566c0.159-1.025,0.016-2.125-0.434-3.141
	c-0.001-0.002-0.002-0.004-0.002-0.006c-0.588-1.329-1.654-2.483-3.083-3.337l-0.872,1.459c0.003,0.002,0.005,0.003,0.008,0.005
	c0.932,0.559,1.681,1.291,2.156,2.099c0.09,0.153,0.169,0.309,0.239,0.467c0,0.002,0.001,0.004,0.002,0.005
	c0.469,1.067,0.459,2.292-0.026,3.2c-0.001,0.002-0.002,0.003-0.003,0.005c-0.007,0.014-0.014,0.026-0.021,0.039
	c-0.185,0.328-0.441,0.563-0.682,0.622c-1.449,0.142-3.11-1.018-3.705-1.832c-0.727-0.996-1.043-2.311-0.824-3.432
	c0.119-0.607,0.457-1.452,1.39-2.028c0.75-0.464,1.586-0.999,2.423-1.602l0.02,0.039c0.001-0.002,0.003-0.003,0.005-0.003h0
	c0.68-0.348,1.688-0.178,2.216,0.373l1.227-1.177l0-0.001c0,0,0,0,0,0c-0.386-0.402-0.871-0.705-1.405-0.888
	c0.37-0.337,0.725-0.689,1.054-1.055c0.301-0.331,0.559-0.648,0.789-0.967c0.381-0.526,0.677-1.083,0.963-1.621
	c0.183-0.344,0.365-0.688,0.568-1.017c0.515-0.83,1.212-1.524,2.015-2.135l0.009,0.017c0,0,0-0.001,0-0.001c0,0,0.001,0,0.001,0
	c0.072-0.039,0.156-0.061,0.252-0.064c0,0,0,0,0,0c0.001,0,0.002,0,0.003,0c0.238-0.019,0.51,0.086,0.733,0.249
	c0.418,0.315,0.722,0.829,0.997,1.329l1.489-0.82c-0.349-0.633-0.778-1.351-1.466-1.868l-0.013-0.01
	c-0.029-0.021-0.059-0.042-0.088-0.063c0.731-0.41,1.495-0.789,2.249-1.164c0.411-0.204,0.817-0.406,1.212-0.61
	c0.012-0.004,0.024-0.008,0.037-0.012c0.063-0.018,0.131-0.027,0.205-0.027c0.028,0.017,0.051,0.001,0.078,0.003
	c0.173,0.014,0.358,0.074,0.536,0.176c1.365,0.788,2.33,2.184,2.647,3.832l1.669-0.322c-0.005-0.024-0.01-0.05-0.015-0.074
	c-0.001-0.005-0.002-0.01-0.003-0.014c-0.4-1.954-1.518-3.635-3.103-4.68c0.518-0.294,1.027-0.595,1.523-0.906l0.079,0.406
	c0.341-0.066,0.726,0.076,1.079,0.356c0.404,0.321,0.727,0.781,1.068,1.268l1.391-0.978c-0.015-0.021-0.029-0.042-0.044-0.063
	c-0.366-0.52-0.781-1.098-1.35-1.553c-0.002-0.002-0.005-0.004-0.007-0.006c0,0-0.001-0.001-0.002-0.001
	c-0.225-0.179-0.464-0.327-0.711-0.443c1.33-0.97,2.522-2.069,3.48-3.407l0.022,0.041c0.905-0.499,2.24-0.335,2.999,0.361
	c0,0.001,0.001,0.001,0.002,0.002v0l1.152-1.25c-0.779-0.72-1.853-1.097-2.98-1.117c0.33-0.523,0.708-0.962,1.184-0.998
	c0.13,0,0.26,0.02,0.39,0.038c0.206,0.028,0.443,0.048,0.676,0.053c1.62-0.032,2.696-1.434,3.562-2.56
	c0.198-0.258,0.386-0.504,0.566-0.709l0.827-0.942l0.015,0.023c0.002-0.001,0.005-0.003,0.007-0.004
	c1.058-0.626,2.597-0.567,3.604,0.14l0.265-0.37l0.712-1.021c-0.777-0.546-1.741-0.859-2.729-0.892
	c1.054-1.105,2.354-1.688,3.777-1.688c1.056,0,2.147,0.333,3.159,0.962C57.461,19.64,60.175,22.956,59.45,25.563z M50.044,21.261
	l0.26-0.374l0.23-0.321L50.044,21.261z"/>
</svg>
