<?xml version="1.0" encoding="utf-8"?>
<!-- Generator: Adobe Illustrator 16.0.0, SVG Export Plug-In . SVG Version: 6.00 Build 0)  -->
<!DOCTYPE svg PUBLIC "-//W3C//DTD SVG 1.1//EN" "http://www.w3.org/Graphics/SVG/1.1/DTD/svg11.dtd">
<svg version="1.1" id="Layer_1" xmlns="http://www.w3.org/2000/svg" xmlns:xlink="http://www.w3.org/1999/xlink" x="0px" y="0px"
	 width="72px" height="72px" viewBox="0 0 72 72" enable-background="new 0 0 72 72" xml:space="preserve">
<path fill="#444444" d="M25.485,39.983c2.436,0,6.065-2.056,9.247-5.237c3.842-3.843,6.702-9.149,4.437-11.415
	c-0.523-0.523-1.272-0.8-2.168-0.8c-2.436,0-6.065,2.056-9.247,5.237c-3.842,3.842-6.703,9.148-4.437,11.414
	C23.84,39.706,24.59,39.983,25.485,39.983z M28.957,28.971c3.273-3.273,6.399-4.739,8.044-4.739c0.441,0,0.766,0.102,0.967,0.302
	c0.954,0.955-0.272,4.844-4.438,9.01c-4.15,4.15-8.063,5.387-9.011,4.438C23.564,37.026,24.791,33.136,28.957,28.971z
	 M57.258,35.756c-1.196-6.821-4.967-13.69-10.617-19.34l-0.001,0.001l0,0c-1.334-1.334-3.256-2.04-5.558-2.04
	c-5.212,0-11.95,3.501-17.585,9.136c-8.479,8.479-11.596,18.645-7.097,23.145c0.017,0.017,0.036,0.03,0.052,0.047
	c5.641,5.622,12.488,9.376,19.288,10.568c1.526,0.268,3.01,0.399,4.439,0.399c5.065,0,9.454-1.659,12.636-4.841
	C56.896,48.752,58.474,42.688,57.258,35.756z M24.699,24.716c5.328-5.328,11.606-8.638,16.383-8.638
	c1.867,0,3.333,0.519,4.356,1.542c1.745,1.746,2.025,4.813,0.788,8.638c-1.3,4.019-4.101,8.316-7.886,12.101
	c-5.328,5.328-11.605,8.639-16.383,8.639c-1.858,0-3.317-0.516-4.339-1.528c-0.005-0.005-0.01-0.01-0.016-0.015l-0.001,0.001
	C13.905,41.757,17.155,32.26,24.699,24.716z M51.614,51.63c-3.679,3.677-9.216,5.086-15.581,3.969
	c-5.091-0.894-10.22-3.314-14.808-6.93c0.24,0.017,0.483,0.028,0.732,0.028c5.212,0,11.95-3.501,17.585-9.138
	c3.972-3.971,6.92-8.509,8.301-12.779c0.66-2.042,0.91-3.91,0.795-5.559c3.624,4.592,6.051,9.729,6.944,14.828
	C56.7,42.42,55.291,47.953,51.614,51.63z M26.435,27.651l-1.293-1.292l1.201-1.202l1.293,1.292L26.435,27.651z M36.17,34.983
	l1.525,1.526l-1.203,1.201l-1.525-1.525L36.17,34.983z M40.64,23.061l-1.201-1.203l1.525-1.524l1.201,1.203L40.64,23.061z
	 M21.841,39.454l1.203,1.201l-1.523,1.525l-1.203-1.201L21.841,39.454z M19.977,35.017l-0.122-1.695l2.053-0.148l0.122,1.695
	L19.977,35.017z M34.854,22.044l-1.695-0.121l0.147-2.052L35,19.993L34.854,22.044z M27.629,40.469l1.695,0.121l-0.147,2.053
	l-1.695-0.121L27.629,40.469z M40.453,27.646l2.053-0.147l0.121,1.695l-2.053,0.147L40.453,27.646z"/>
</svg>
