<?xml version="1.0" encoding="utf-8"?>
<!-- Generator: Adobe Illustrator 16.0.0, SVG Export Plug-In . SVG Version: 6.00 Build 0)  -->
<!DOCTYPE svg PUBLIC "-//W3C//DTD SVG 1.1//EN" "http://www.w3.org/Graphics/SVG/1.1/DTD/svg11.dtd">
<svg version="1.1" id="Layer_1" xmlns="http://www.w3.org/2000/svg" xmlns:xlink="http://www.w3.org/1999/xlink" x="0px" y="0px"
	 width="72px" height="72px" viewBox="0 0 72 72" enable-background="new 0 0 72 72" xml:space="preserve">
<path fill="#444444" d="M33.252,32.409c-0.162,0.371-0.594,0.538-0.964,0.378c-0.287-0.125-6.866-2.851-10.782,5.02
	c-0.128,0.258-0.387,0.406-0.657,0.406c-0.11,0-0.221-0.023-0.326-0.074c-0.363-0.182-0.51-0.623-0.331-0.986
	c4.553-9.146,12.603-5.744,12.683-5.709C33.246,31.605,33.414,32.038,33.252,32.409z M56.039,26.054
	c-1.288,1.223-2.77,2.695-3.211,3.222c0.083,0.34,0.277,0.896,0.441,1.36c0.56,1.588,0.869,2.463,0.236,2.951
	c-0.195,0.15-0.611,0.34-1.218-0.07c-0.638-0.432-1.911-0.876-2.884-1.171c-0.01,0.624-0.152,1.342-0.668,1.771
	c-0.344,0.287-0.965,0.542-1.975,0.127c-1.255-0.514-3.428-0.272-4.832-0.007c1.418,1.811,2.407,3.781,2.863,5.787
	c0.824,3.609-0.034,7.147-2.479,10.23c-2.824,3.566-7.135,5.635-11.663,5.635c-0.267,0-0.535-0.008-0.803-0.021
	c-0.028-0.002-0.051-0.016-0.077-0.021c-0.023,0-0.045,0.01-0.068,0.008c-8.908-0.973-12.414,3.223-12.559,3.401
	c-0.002,0.002-0.004,0.003-0.006,0.004c-0.142,0.175-0.348,0.273-0.563,0.273c-0.079,0-0.157-0.019-0.234-0.043
	c-0.008-0.003-0.015-0.007-0.023-0.011c-0.042-0.017-0.084-0.03-0.124-0.055c-0.016-0.01-0.024-0.025-0.039-0.035
	c-0.013-0.008-0.028-0.012-0.04-0.021c-0.024-0.02-0.035-0.045-0.056-0.066c-0.037-0.039-0.073-0.074-0.1-0.119
	c-0.027-0.043-0.044-0.086-0.061-0.134c-0.014-0.039-0.029-0.075-0.036-0.114c-0.012-0.059-0.011-0.115-0.005-0.174
	c0.002-0.033,0.001-0.064,0.007-0.096c0.012-0.064,0.037-0.125,0.067-0.186c0.009-0.02,0.01-0.041,0.021-0.059
	c0.027-0.046,2.71-4.654,0.478-13.134c0-0.003,0.001-0.007,0-0.011c-0.006-0.014-0.017-0.023-0.021-0.037
	c-1.368-4.641-0.393-9.671,2.607-13.456c2.444-3.083,5.693-4.726,9.396-4.748c0.025,0,0.051,0,0.076,0
	c1.965,0,4.008,0.484,6.002,1.378c-0.056-1.426-0.312-3.656-1.113-4.781c-0.633-0.888-0.527-1.55-0.326-1.951
	c0.3-0.599,0.967-0.902,1.572-1.055c-0.509-0.879-1.232-2.019-1.797-2.54c-0.538-0.497-0.449-0.945-0.347-1.168
	c0.332-0.727,1.252-0.627,2.926-0.444c0.489,0.054,1.075,0.118,1.426,0.119c0.412-0.55,1.507-2.328,2.402-3.861
	c0.158-0.269,0.467-0.41,0.774-0.349c0.306,0.059,0.54,0.305,0.585,0.615l0.682,4.763c0.644,0.152,1.627,0.683,3.328,1.862
	c0.553-0.063,2.17-1.192,2.793-1.626c1.123-0.783,1.502-1.048,1.998-0.658c0.008,0.008,0.014,0.019,0.022,0.027
	c0.008,0.007,0.019,0.009,0.028,0.015c0.496,0.393,0.324,0.823-0.182,2.098c-0.281,0.705-1.009,2.536-0.947,3.088l0.148,0.133
	c1.268,1.122,2.072,1.922,2.403,2.585l4.588-0.491c0.313-0.034,0.61,0.136,0.744,0.422C56.332,25.5,56.268,25.837,56.039,26.054z
	 M39.637,23.706c0.002,0-0.064,0.116,0.008,0.49c0.453,2.332-1.086,5.777-1.401,6.453c0.133,0.102,0.271,0.194,0.403,0.3
	c0.135,0.105,0.254,0.219,0.386,0.327c0.586-0.464,3.59-2.747,5.961-2.839c0.384-0.015,0.481-0.107,0.481-0.108
	c0.082-0.156-0.166-0.839-0.56-1.379c-0.157-0.215-0.185-0.501-0.072-0.743c0.112-0.241,0.349-0.403,0.615-0.421
	c0.001,0,2.269-0.149,3.825-0.253c-0.289-0.341-0.826-0.883-1.791-1.736l-0.235-0.209c-0.743-0.669-0.375-2.022,0.38-3.979
	c-1.732,1.18-2.965,1.849-3.785,1.276c-1.146-0.796-1.859-1.22-2.299-1.448c0.305,1.483,0.559,3.63,0.572,3.737
	c0.029,0.26-0.08,0.516-0.288,0.672c-0.209,0.158-0.489,0.191-0.728,0.088C40.494,23.675,39.773,23.591,39.637,23.706z
	 M34.57,22.781c1.331,1.871,1.403,5.461,1.399,6.372c0.355,0.2,0.705,0.416,1.054,0.642c0.537-1.205,1.483-3.771,1.183-5.318
	c-0.207-1.07,0.163-1.631,0.512-1.912c0.507-0.407,1.208-0.42,1.81-0.319c-0.135-0.988-0.348-2.394-0.555-3.131
	c-0.058-0.208-0.068-0.383-0.051-0.533c-0.005-0.019-0.015-0.032-0.02-0.05l-0.467-3.27c-1.627,2.683-1.842,2.717-2.164,2.769
	c-0.459,0.072-1.185-0.007-2.027-0.1c-0.195-0.02-0.437-0.048-0.679-0.071c0.95,1.249,1.818,2.918,1.864,3.008
	c0.116,0.224,0.108,0.492-0.02,0.709c-0.128,0.217-0.36,0.353-0.613,0.36c-0.668,0.017-1.359,0.239-1.435,0.401
	C34.361,22.338,34.349,22.47,34.57,22.781z M37.736,32.097c-2.925-2.321-6.208-3.596-9.249-3.596c-0.022,0-0.044,0-0.067,0
	c-3.244,0.019-6.098,1.469-8.257,4.193c-2.706,3.412-3.583,7.947-2.35,12.129c0.002,0.009,0,0.019,0.002,0.028
	c0.008,0.022,0.024,0.039,0.03,0.062c1.408,5.346,0.989,9.239,0.375,11.601c2.119-1.313,5.848-2.748,11.642-2.117
	c0.014,0.002,0.023,0.008,0.036,0.011c0.01,0.001,0.02-0.005,0.03-0.005c4.343,0.234,8.543-1.655,11.238-5.059
	c2.159-2.723,2.92-5.834,2.199-8.996C42.686,37.366,40.686,34.436,37.736,32.097z M53.48,26.477l-2.951,0.316
	c-0.147,0.082-0.334,0.146-0.582,0.164c-0.883,0.06-2.262,0.152-3.239,0.215c0.226,0.555,0.36,1.224,0.086,1.795
	c-0.194,0.404-0.655,0.894-1.746,0.935c-1.582,0.06-3.86,1.569-4.905,2.368c0.239,0.23,0.481,0.459,0.707,0.697
	c0.971-0.227,4.387-0.933,6.469-0.079c0.355,0.147,0.481,0.102,0.481,0.102c0.14-0.11,0.195-0.851,0.062-1.486
	c-0.053-0.247,0.027-0.504,0.209-0.68c0.182-0.176,0.445-0.245,0.688-0.182c0.098,0.024,1.939,0.493,3.352,1.125
	c-0.076-0.231-0.158-0.459-0.223-0.645c-0.281-0.797-0.523-1.484-0.559-1.948C51.303,28.848,51.287,28.63,53.48,26.477z"/>
</svg>
