<?xml version="1.0" encoding="utf-8"?>
<!-- Generator: Adobe Illustrator 16.0.0, SVG Export Plug-In . SVG Version: 6.00 Build 0)  -->
<!DOCTYPE svg PUBLIC "-//W3C//DTD SVG 1.1//EN" "http://www.w3.org/Graphics/SVG/1.1/DTD/svg11.dtd">
<svg version="1.1" id="Layer_1" xmlns="http://www.w3.org/2000/svg" xmlns:xlink="http://www.w3.org/1999/xlink" x="0px" y="0px"
	 width="72px" height="72px" viewBox="0 0 72 72" enable-background="new 0 0 72 72" xml:space="preserve">
<path fill="#444444" d="M25.683,28.625l-0.394-0.321l-0.395,0.321c-0.064,0.052-1.583,1.302-1.583,2.929
	c0,1.627,1.518,2.878,1.583,2.931l0.395,0.319l0.394-0.319c0.065-0.053,1.583-1.304,1.583-2.931
	C27.266,29.927,25.748,28.677,25.683,28.625z M25.289,33.157c-0.329-0.372-0.741-0.966-0.741-1.603c0-0.637,0.412-1.231,0.74-1.603
	c0.328,0.372,0.741,0.968,0.741,1.603C26.029,32.191,25.617,32.787,25.289,33.157z M30.295,34.485l0.395,0.318l0.395-0.318
	c0.064-0.053,1.583-1.304,1.583-2.931c0-1.627-1.518-2.877-1.583-2.929l-0.395-0.321l-0.395,0.321
	c-0.064,0.052-1.583,1.302-1.583,2.929C28.712,33.181,30.23,34.432,30.295,34.485z M30.689,29.951
	c0.328,0.372,0.741,0.968,0.74,1.603c0,0.638-0.412,1.233-0.74,1.603c-0.327-0.372-0.74-0.966-0.74-1.603
	C29.949,30.917,30.361,30.323,30.689,29.951z M24.894,47.468l0.395,0.32l0.394-0.32c0.065-0.053,1.583-1.302,1.583-2.93
	c0-1.626-1.518-2.877-1.583-2.929l-0.394-0.321l-0.395,0.321c-0.064,0.052-1.583,1.303-1.583,2.929
	C23.311,46.166,24.829,47.415,24.894,47.468z M25.288,42.938c0.328,0.371,0.741,0.967,0.741,1.602c0,0.637-0.412,1.232-0.74,1.604
	c-0.329-0.373-0.741-0.967-0.741-1.604S24.96,43.309,25.288,42.938z M30.295,47.468l0.395,0.32l0.395-0.32
	c0.064-0.053,1.583-1.302,1.583-2.93c0-1.626-1.518-2.877-1.583-2.929l-0.395-0.321l-0.395,0.321
	c-0.064,0.052-1.583,1.303-1.583,2.929C28.712,46.166,30.23,47.415,30.295,47.468z M30.69,42.936c0.328,0.371,0.74,0.965,0.74,1.604
	c0,0.638-0.412,1.232-0.74,1.604c-0.327-0.373-0.74-0.967-0.74-1.604S30.362,43.307,30.69,42.936z M22.983,35.115l-0.395-0.319
	l-0.395,0.319c-0.065,0.054-1.583,1.303-1.583,2.931s1.518,2.878,1.583,2.931l0.395,0.319l0.395-0.319
	c0.064-0.053,1.583-1.303,1.583-2.931S23.047,35.169,22.983,35.115z M22.588,39.648c-0.328-0.373-0.741-0.967-0.741-1.603
	s0.412-1.233,0.74-1.603c0.328,0.372,0.741,0.969,0.741,1.603C23.328,38.684,22.916,39.277,22.588,39.648z M28.384,35.115
	l-0.394-0.319l-0.395,0.319c-0.064,0.054-1.583,1.303-1.583,2.931s1.519,2.878,1.583,2.931l0.395,0.319l0.394-0.319
	c0.064-0.053,1.583-1.303,1.583-2.931S28.449,35.169,28.384,35.115z M27.99,39.65c-0.328-0.373-0.741-0.967-0.741-1.604
	c0-0.636,0.412-1.233,0.74-1.603c0.328,0.372,0.74,0.969,0.741,1.603C28.73,38.686,28.318,39.279,27.99,39.65z M27.595,53.96
	l0.395,0.319l0.394-0.319c0.064-0.052,1.583-1.303,1.583-2.931c0-1.625-1.518-2.877-1.583-2.928l-0.394-0.322l-0.395,0.322
	c-0.064,0.051-1.583,1.303-1.583,2.928C26.012,52.657,27.531,53.908,27.595,53.96z M27.99,49.427
	c0.327,0.372,0.739,0.966,0.739,1.604c0,0.637-0.411,1.232-0.739,1.603c-0.328-0.373-0.741-0.969-0.741-1.603
	C27.249,50.393,27.662,49.798,27.99,49.427z M32.996,40.977l0.395,0.319l0.395-0.319c0.064-0.053,1.583-1.303,1.583-2.931
	s-1.519-2.877-1.583-2.931l-0.395-0.319l-0.395,0.319c-0.065,0.054-1.583,1.303-1.583,2.931S32.931,40.924,32.996,40.977z
	 M33.39,36.443c0.328,0.372,0.741,0.969,0.741,1.603c0,0.638-0.412,1.231-0.739,1.603c-0.328-0.373-0.741-0.967-0.741-1.603
	S33.062,36.813,33.39,36.443z M56.264,41.165c-1.129,4.949-4.039,9.614-8.65,13.866c-3.104,2.859-7.609,6.27-11.453,6.27
	c-3.845,0-8.35-3.41-11.452-6.271c-4.612-4.252-7.523-8.916-8.65-13.865c-1.295-5.685,0.401-11.339,4.321-14.405
	c2.682-2.098,5.668-2.211,8.235-2.048c0.302,0.021,0.771,0.077,1.363,0.15c1.534,0.188,3.851,0.474,6.183,0.474
	c0.742,0,1.559-0.032,2.424-0.091l0.096,1.331c-0.896,0.063-1.746,0.093-2.52,0.093c-2.417,0-4.785-0.29-6.352-0.483
	c-0.571-0.07-1.021-0.125-1.283-0.141c-3.313-0.214-5.429,0.297-7.298,1.759c-3.516,2.751-5.024,7.88-3.842,13.071
	c1.067,4.683,3.844,9.117,8.255,13.185c2.392,2.207,6.94,5.909,10.519,5.909s8.127-3.702,10.521-5.909
	c4.41-4.066,7.188-8.502,8.254-13.185c1.184-5.191-0.324-10.32-3.842-13.071c-1.869-1.462-3.984-1.972-7.298-1.759
	c-0.26,0.016-0.707,0.07-1.272,0.14c-0.316,0.039-0.672,0.082-1.056,0.126l-0.159-1.323c0.381-0.044,0.73-0.087,1.045-0.127
	c0.59-0.071,1.055-0.129,1.354-0.148c2.565-0.164,5.554-0.05,8.235,2.048C55.861,29.826,57.559,35.481,56.264,41.165z M23.34,17.027
	l-0.238-0.909l0.944,0.162c3.172,0.544,6.233,2.252,8.766,4.863c0.037-3.209,0.93-6.525,2.541-9.326l0.539-0.938l0.539,0.938
	c1.61,2.801,2.504,6.117,2.54,9.326c2.533-2.611,5.596-4.319,8.768-4.863l0.943-0.162l-0.236,0.909
	c-0.619,2.375-2.484,5.529-5.116,6.843l-0.563-1.081c1.955-0.976,3.436-3.159,4.17-5.096c-3.012,0.782-5.879,2.713-8.164,5.52
	l-1.277,1.571l0.179-2.002c0.276-3.113-0.368-6.462-1.781-9.354c-1.413,2.893-2.058,6.241-1.781,9.354l0.178,2.002l-1.278-1.571
	c-2.285-2.807-5.151-4.737-8.162-5.52c0.735,1.937,2.214,4.12,4.168,5.096l-0.562,1.081C25.823,22.557,23.959,19.402,23.34,17.027z"
	/>
</svg>
