<?xml version="1.0" encoding="utf-8"?>
<!-- Generator: Adobe Illustrator 16.0.0, SVG Export Plug-In . SVG Version: 6.00 Build 0)  -->
<!DOCTYPE svg PUBLIC "-//W3C//DTD SVG 1.1//EN" "http://www.w3.org/Graphics/SVG/1.1/DTD/svg11.dtd">
<svg version="1.1" id="Layer_1" xmlns="http://www.w3.org/2000/svg" xmlns:xlink="http://www.w3.org/1999/xlink" x="0px" y="0px"
	 width="72px" height="72px" viewBox="0 0 72 72" enable-background="new 0 0 72 72" xml:space="preserve">
<path fill="#444444" d="M58.227,37.586c-0.854-3.055-2.182-5.97-3.375-8.43l-0.014-0.007l-0.025-0.076
	c-0.246-0.489-0.254-1.055-0.012-1.578l0.059-0.131c0.035-0.076,0.074-0.161,0.111-0.264c0.725-1.918,0.098-4.101-0.205-4.951
	c-0.48-1.342-1.269-2.691-2.434-4.146c-0.098-0.112-0.141-0.262-0.119-0.41c0.008-0.048,0.01-0.104,0.006-0.194
	c0.024-0.45-0.104-0.929-0.352-1.306c-0.18-0.269-0.385-0.526-0.613-0.729c-0.494-0.438-1.095-0.741-1.74-0.813
	c-0.08-0.009-0.158-0.08-0.236-0.08c-0.209,0-0.403-0.104-0.62-0.032l-0.114-0.238H48.48c-0.088,0-0.174,0.246-0.276,0.191
	c-1.616-0.808-3.356-1.327-5.31-1.327c-1.1,0-2.723,0.104-4.139,1.006l-0.338,0.222c-0.313,0.238-0.684,0.363-1.076,0.363
	c-0.15,0-0.303-0.019-0.451-0.057c-3.213-0.846-6.071-1.322-8.768-1.457c-0.799-0.039-1.612-0.079-2.436-0.079
	c-0.896,0-1.687,0.049-2.417,0.151c-1.547,0.214-3.047,0.555-4.598,1.043c-0.913,0.306-1.645,0.992-2.01,1.884
	c-0.361,0.886-0.32,1.884,0.115,2.746c0.424,0.847,0.862,1.723,1.074,2.648c0.232,1.014,0.524,2.028,0.869,3.014
	c1.703,4.88,4.581,9.054,8.105,11.761c0.46,0.367,0.712,0.936,0.67,1.572c0,1.214,0.474,2.423,1.331,3.402l0.193,0.222l-0.184,0.229
	c-1.112,1.369-2.372,2.697-4.057,3.125c-0.388,0.096-0.797,0.146-1.251,0.146c-0.905,0-1.825-0.186-2.798-0.386l-0.366-0.063
	c-1.207-0.246-2.275-0.353-3.266-0.353H16.9c-1.047,0-2.238,0.022-3.132,0.569c-0.775,0.474-0.88,1.099-0.874,1.442
	c0.017,0.978,0.85,2.009,2.698,3.349c1.281,0.927,2.653,1.699,3.256,2.037c0.972,0.551,2.001,1.065,2.998,1.563l1.053,0.528
	c0.271,0.14,0.566,0.271,0.914,0.425c0.948,0.421,2.129,0.944,2.586,1.666l0.167,0.267l-0.246,0.193
	c-0.464,0.365-1.834,0.838-3.851,1.07c-0.471,0.056-0.955,0.082-1.438,0.082c-2.177,0-4.216-0.566-5.923-1.123
	c-0.076-0.024-0.155-0.037-0.234-0.037c-0.329,0-0.619,0.211-0.721,0.523c-0.129,0.397,0.089,0.826,0.486,0.955
	c1.819,0.592,4.004,1.196,6.416,1.196c0.537,0,1.071-0.031,1.591-0.093c0.4-0.047,1.442-0.183,2.468-0.455
	c1.474-0.393,2.336-0.897,2.713-1.584c0.257-0.469,0.262-1.008,0.014-1.519c-0.629-1.294-2.173-1.977-3.413-2.526
	c-0.309-0.139-0.601-0.268-0.843-0.389l-1.064-0.531c-0.979-0.491-1.992-0.989-2.927-1.517l-0.088-0.034
	c-3.662-2.06-4.7-3.209-4.992-3.729l-0.178-0.25c0,0-0.398-0.894,2.695-0.534c1.75,0.016,3.388,0.341,3.388,0.341
	c0.954,0.196,2.034,0.421,3.113,0.421c0.581,0,1.11-0.063,1.618-0.191c2.114-0.534,3.588-2.067,4.867-3.646l0.184-0.227l0.255,0.138
	c0.805,0.446,1.671,0.675,2.503,0.675c0.369,0,0.732-0.058,1.089-0.153l0.019-0.028c0.158-0.044,0.322-0.112,0.486-0.112
	c0.372,0,0.735,0.236,1.036,0.236h0.007l0.096,0.17c1.812,1.473,3.916,2.793,6.258,3.738c1.909,0.771,3.514,1.274,5.046,1.584
	c1.229,0.246,2.46,0.318,3.65,0.387c1.459,0.086,2.84,0.167,4.203,0.543c0.277,0.075,0.566,0.113,0.855,0.113
	c0.666,0,1.314-0.2,1.867-0.576C58.366,48.619,59,47.759,59,46.84v-0.088l-0.002-0.016C59.313,43.523,59.053,40.527,58.227,37.586z
	 M57.473,46.641c-0.06,0.514-0.339,0.978-0.768,1.271c-0.298,0.204-0.646,0.312-1.008,0.312c-0.154,0-0.311-0.021-0.465-0.062
	c-1.508-0.415-3.028-0.504-4.5-0.591c-1.188-0.069-2.311-0.135-3.439-0.361c-1.439-0.288-2.957-0.768-4.777-1.502
	c-2.199-0.889-4.174-2.038-5.873-3.419c-0.587-0.479-1.33-0.744-2.089-0.744c-0.298,0-0.595,0.04-0.894,0.124
	c-0.227,0.063-0.465,0.094-0.709,0.094c-1.345,0-2.408-0.904-2.702-1.18c-0.786-0.742-1.238-1.725-1.238-2.711
	c0.05-1.061-0.415-2.088-1.254-2.755c-3.295-2.524-5.997-6.455-7.608-11.067c-0.324-0.931-0.601-1.89-0.821-2.851
	c-0.252-1.1-0.752-2.101-1.199-2.994c-0.237-0.464-0.261-1.007-0.064-1.488c0.194-0.48,0.588-0.851,1.086-1.02
	c1.445-0.457,2.86-0.777,4.327-0.981c0.658-0.091,1.382-0.135,2.214-0.135c0.796,0,1.594,0.039,2.385,0.078
	c2.569,0.131,5.328,0.59,8.434,1.408c0.274,0.071,0.555,0.107,0.834,0.107c0.703,0,1.377-0.222,1.967-0.656l0.137-0.089l0.392-0.271
	l0.019,0.026c0.779-0.413,1.731-0.598,3.037-0.599c1.619,0,3.114,0.684,4.646,1.45c0.292,0.152,0.616,0.242,0.938,0.242
	c0.203,0,0.404-0.011,0.6-0.071l0.044-0.005h0.144l-0.127,0.024l0.137-0.024h0.07c0.332,0,0.643,0.14,0.9,0.369
	c0.129,0.113,0.248,0.215,0.357,0.379c0.072,0.107,0.115,0.277,0.099,0.415c-0.009,0.054-0.013,0.11-0.009,0.214
	c-0.023,0.507,0.143,1.001,0.396,1.325l0.048,0.034l0.033,0.042c1.039,1.299,1.748,2.503,2.168,3.68
	c0.516,1.441,0.596,2.901,0.217,3.906c-0.016,0.042-0.158,0.36-0.158,0.36c-0.402,0.9-0.383,1.924,0.058,2.82
	c1.171,2.41,2.481,5.276,3.313,8.25C57.546,40.768,57.775,43.594,57.473,46.641z M45.818,17.888c0.099,0.518-0.418,1.132-0.93,1.501
	c-0.131,0.094-0.248,0.155-0.349,0.182c-0.046,0.014-0.114,0.029-0.167,0.029c-0.014,0-0.021,0-0.029-0.003
	c-0.015-0.021-0.025-0.077,0.02-0.259c0.135-0.553,0.589-1.064,1.215-1.371C45.723,17.897,45.796,17.888,45.818,17.888z
	 M49.357,21.068c0.09-0.058,0.223-0.132,0.336-0.139c0.056,0.384-0.039,0.661-0.198,0.927c-0.147,0.242-0.353,0.477-0.623,0.714
	c-0.11,0.097-0.272,0.232-0.438,0.292l-0.177,0.036c-0.016,0.001-0.028-0.001-0.039-0.002c-0.042-0.292,0.06-0.582,0.271-0.938
	C48.706,21.595,49.005,21.289,49.357,21.068z"/>
</svg>
