<?xml version="1.0" encoding="utf-8"?>
<!-- Generator: Adobe Illustrator 16.0.0, SVG Export Plug-In . SVG Version: 6.00 Build 0)  -->
<!DOCTYPE svg PUBLIC "-//W3C//DTD SVG 1.1//EN" "http://www.w3.org/Graphics/SVG/1.1/DTD/svg11.dtd">
<svg version="1.1" id="Layer_1" xmlns="http://www.w3.org/2000/svg" xmlns:xlink="http://www.w3.org/1999/xlink" x="0px" y="0px"
	 width="72px" height="72px" viewBox="0 0 72 72" enable-background="new 0 0 72 72" xml:space="preserve">
<path fill="#444444" d="M43.476,55.706c0.888,0.809-0.469,1.521-1.245,0.813c-0.818-0.748-1.63-1.503-2.426-2.276
	c-1.517-1.473-2.97-3.013-4.3-4.657c-1.45-1.79-2.748-3.7-3.881-5.705c-1.28-2.267-2.062-4.849-3.477-7.016
	c-0.516,1.089-0.695,2.295-1.056,3.437c-0.404,1.278-1.149,2.535-2.004,3.568c-0.802,0.968-1.857,1.372-3.048,1.646
	c-1.524,0.355-1.496-0.394-1.973-1.683c-1.299,0.702-2.789,0.575-4.168,0.217c-0.742-0.192-3.479-0.569-3.514-1.523
	c-0.091-2.621,0.685-5.464,2.836-7.133c-0.381-0.411-1.435-0.97-1.384-1.589c0.066-0.813,1.085-1.688,1.73-2.076
	c-1.145-0.908-1.853-2.328-2.243-3.709c-0.483-1.715,1.193-2.174,2.536-2.667c-0.841-1.496-0.962-3.363-0.85-5.042
	c0.06-0.894,0.213-1.756,0.556-2.586c0.228-0.553,0.419-1.907,0.938-2.227c1.072-0.662,3.542-0.088,4.673,0.19
	c1.543,0.38,3.055,1.082,4.181,2.227c0.784-1.074,1.794-2.069,3.067-1.082c1.263,0.979,2.259,2.17,2.475,3.802
	c0.969-1.935,2.699-2.308,3.756-0.201c0.827-0.885,1.943-1.32,3.095-1.603c0.815-0.204,1.648-0.081,2.474-0.035
	c0.52,0.029,1.393-0.313,1.843-0.027c0.733,0.468,0.772,3.103,0.818,3.91c0.081,1.435-0.282,2.949-1.014,4.188
	c4.231,0.624-0.156,4.534-1.737,5.461c-1.588,0.932-2.953,0.981-4.742,0.822c-1.147-0.102-2.942-0.066-2.447,1.518
	c1.782,5.695,4.731,11.311,8.944,15.558c0.444,0.451,0.108,1.229-0.512,1.229c-0.647,0-1.243-0.966-1.627-1.39
	c-1.192-1.32-2.28-2.734-3.241-4.232c-1.551-2.419-2.715-5.035-3.739-7.713c-0.441-1.155-1.112-2.334-1.334-3.547
	c-0.329-1.789,1.136-2.757,2.748-2.883c1.783-0.14,3.294,0.464,4.963-0.458c1.163-0.642,2.497-1.543,3.094-2.785
	c-0.49-0.268-1.289-0.262-1.824-0.177c-0.748,0.12-1.142-0.905-0.504-1.315c1.071-0.689,1.539-2.568,1.545-3.759
	c0.007-0.877-0.175-1.741-0.325-2.601c-0.104-0.589-1.664-0.437-2.299-0.44c-1.491-0.008-2.96,0.765-3.7,2.059
	c-1.104,1.929-1.793-2.85-2.646-1.477c-0.979,1.577-1.214,3.159-1.087,4.987c0.05,0.729,0.06,4.184-1.528,3.315
	c-1.259-0.689-1.061-3.088-0.889-4.227c0.254-1.669,0.972-3.482,0.154-5.109c-0.323-0.643-0.859-1.14-1.41-1.588
	c-0.599-0.479-1.061,0.338-1.395,0.937c-1.004,1.8-1.822-0.175-2.992-0.924c-1.399-0.896-3.105-1.282-4.749-1.351
	c-0.372-0.016-0.745-0.014-1.117,0.006c-0.11,0.394-0.271,0.769-0.431,1.144c-0.35,0.814-0.539,1.604-0.598,2.489
	c-0.104,1.583-0.02,3.51,1.05,4.787c1.23,1.458-3.081,1.489-2.726,2.641c0.519,1.685,1.488,3.257,3.399,3.191
	c1.394-0.286,3.169,0.321,4.545,0.559c0.562,0.097,1.964,0.337,1.25,1.268c-0.459,0.6-1.744,0.108-2.342-0.003
	c-1.554-0.29-3.435-0.719-4.956-0.073c-0.329,0.14-0.629,0.339-0.883,0.591c-0.428,0.427-0.013,0.495,0.314,0.848
	c0.384,0.42,1.728,1.314,0.66,1.885c-1.259,0.672-2.082,1.9-2.514,3.233c-0.234,0.72-0.364,1.473-0.409,2.228
	c-0.038,0.642,1.476,0.82,2.065,0.992c0.768,0.224,1.579,0.426,2.386,0.342c0.865-0.089,1.355-0.856,2.115-0.991
	c0.87-0.153,0.798,0.824,0.988,1.344c0.104,0.286,0.232,0.564,0.329,0.854c0.393-0.09,0.79-0.179,1.164-0.334
	c1.355-0.566,2.352-2.443,2.792-3.771c0.306-0.921,0.48-1.881,0.783-2.803c0.152-0.463,0.335-0.917,0.576-1.341
	c0.495-0.872,0.025-0.092,0.175-0.907c0.162-0.878,1.211-0.57,1.638-0.136c0.3,0.308,0.101,0.629,0.321,0.971
	c0.197,0.307,0.399,0.611,0.592,0.921c0.895,1.436,1.396,3.151,2.162,4.667C34.754,46.987,38.862,51.509,43.476,55.706
	C43.77,55.974,38.273,50.973,43.476,55.706z M38.109,40.774c-0.313,0.596-0.124,1.83,0.833,1.271
	c0.615-0.36,1.211-1.872,1.479-2.496c1.006-2.335-1.033-3.596-3.133-3.732c-0.596-0.039-2.469-0.261-2.007,0.939
	c0.302,0.782,1.745,0.452,2.394,0.544C40.229,37.662,38.866,39.297,38.109,40.774C38.057,40.875,38.23,40.538,38.109,40.774z
	 M42.205,31.797c-1.009,0.068-0.829,1.867,0.116,1.867C43.373,33.664,43.195,31.74,42.205,31.797
	C41.807,31.824,42.604,31.774,42.205,31.797z M59.586,34.089c0.345-1.083-1.732-1.931-2.444-2.287
	c0.922-1.267,1.264-2.884,1.403-4.417c0.082-0.904,0.099-1.847-0.111-2.735c-0.172-0.726-0.25-1.822-0.572-2.468
	c-0.522-1.045-3.694-0.729-4.638-0.631c-1.652,0.173-3.324,0.691-4.636,1.742c-0.497-0.878-2.176-2.915-3.136-1.195
	c-0.485,0.869,0.57,1.169,1.171,0.876c0.539,0.587,0.682,1.287,1.046,1.944c0.494,0.894,1.271-0.042,1.708-0.412
	c0.588-0.498,1.285-0.854,2.013-1.1c1.641-0.554,3.463-0.606,5.159-0.307c0.278,1.805,0.754,3.189,0.442,5.06
	c-0.129,0.785-0.326,1.577-0.7,2.284c-0.285,0.538-1.275,1.228-0.894,1.895c0.363,0.635,1.488,0.904,2.091,1.258
	c0.896,0.527,0.328,1.158-0.154,1.896c-0.418,0.641-0.959,1.268-1.664,1.6c-0.771,0.361-1.651,0.021-2.46-0.024
	c-0.925-0.052-1.851,0.005-2.773,0.066c-0.558,0.036-1.695-0.142-2.123,0.289c-0.517,0.521-0.032,1.085,0.515,1.227
	c1.097-0.004,2.188-0.135,3.285-0.152c1.563-0.026,3.473,0.095,4.369,1.587c-0.473,0.319-1.752,1.032-1.809,1.63
	c-0.064,0.68,1.253,1.473,1.611,2.049c0.804,1.291,1.04,2.883,0.95,4.38c-0.053,0.883-3.852,0.996-4.706,0.767
	c-0.771-0.207-1.169-0.996-1.854-1.201c-0.847-0.255-0.89,0.724-1.141,1.218c-0.139,0.272-0.296,0.535-0.43,0.81
	c-0.379-0.136-0.763-0.271-1.115-0.47c-0.903-0.51-1.311-1.475-1.727-2.374c-0.871-1.918-0.335-3.949-0.841-5.94
	c-0.158-0.623-0.817-2.404-1.757-1.649c-0.621,0.504-1.164,1.504-1.668,2.132c-0.605,0.756-1.01,1.657-1.495,2.49
	c-0.274,0.47-1.729,2.446-0.198,2.446c0.874,0,1.619-2.022,1.981-2.666c0.506-0.899,1.061-1.634,1.71-2.432
	c0.322,1.192,0.186,2.456,0.274,3.675c0.1,1.361,0.625,2.577,1.285,3.758c0.706,1.264,1.736,1.909,3.067,2.387
	c1.495,0.531,1.513-0.208,2.158-1.438c1.11,0.784,2.479,0.893,3.792,0.747c0.815-0.09,3.396-0.146,3.871-0.841
	c0.665-0.974,0.257-3.248-0.001-4.313c-0.308-1.272-0.919-2.479-1.857-3.402c0.425-0.377,1.541-0.786,1.563-1.415
	c0.029-0.815-0.88-1.802-1.476-2.263C58.106,37.287,59.085,35.661,59.586,34.089C59.657,33.865,59.148,35.462,59.586,34.089z"/>
</svg>
