<?xml version="1.0" encoding="utf-8"?>
<!-- Generator: Adobe Illustrator 16.0.0, SVG Export Plug-In . SVG Version: 6.00 Build 0)  -->
<!DOCTYPE svg PUBLIC "-//W3C//DTD SVG 1.1//EN" "http://www.w3.org/Graphics/SVG/1.1/DTD/svg11.dtd">
<svg version="1.1" id="Layer_1" xmlns="http://www.w3.org/2000/svg" xmlns:xlink="http://www.w3.org/1999/xlink" x="0px" y="0px"
	 width="72px" height="72px" viewBox="0 0 72 72" enable-background="new 0 0 72 72" xml:space="preserve">
<path fill="#444444" d="M58.105,20.508c0.271-0.284,0.312-0.718,0.099-1.048c-0.214-0.33-0.627-0.47-0.995-0.341l-3.051,1.071
	c1.365-1.993,2.711-4.192,4.076-6.659c0.187-0.338,0.122-0.761-0.158-1.027c-0.28-0.268-0.705-0.312-1.034-0.106
	c-3.27,2.028-7.124,5.085-11.724,9.303l1.476-3.735c0.162-0.408-0.015-0.873-0.406-1.071c-0.392-0.199-0.871-0.065-1.104,0.306
	c-4.005,6.369-12.115,15.652-17.862,21.327l-0.141-0.146c-0.325-0.339-0.864-0.349-1.202-0.024c-0.339,0.325-0.35,0.863-0.025,1.202
	l7.104,7.405c0.167,0.174,0.39,0.261,0.613,0.261c0.212,0,0.424-0.078,0.588-0.236c0.339-0.325,0.35-0.863,0.025-1.202l-0.553-0.577
	c0.159,0.134,0.351,0.202,0.544,0.202c0.236,0,0.47-0.097,0.638-0.287c0.772-0.876,1.558-1.755,2.351-2.635
	c0.063-0.037,0.131-0.068,0.186-0.124c4.977-5.017,11.74-10.19,18.556-14.194c0.343-0.202,0.5-0.614,0.379-0.993
	c-0.122-0.378-0.477-0.616-0.888-0.586l-3.638,0.334c0.488-0.509,0.978-1.02,1.464-1.527C55.024,23.731,56.593,22.096,58.105,20.508
	z M51.973,28.633l0.157-0.015c-1.758,1.125-3.49,2.32-5.178,3.553c1.365-1.438,2.734-2.872,4.099-4.296
	C51.101,28.336,51.521,28.667,51.973,28.633z M33.739,44c-0.3,0.341-0.271,0.85,0.048,1.164l-5.189-5.409
	c4.242-4.187,9.761-10.323,14.025-15.86l-0.261,0.662c-0.474,0.999-1.012,2.008-1.602,2.998c-0.24,0.403-0.107,0.925,0.296,1.165
	c0.136,0.081,0.286,0.12,0.434,0.12c0.29,0,0.572-0.148,0.731-0.416c0.589-0.989,1.126-1.997,1.607-2.999
	c4.261-4.063,7.914-7.206,11.063-9.513c-1.216,2.002-2.43,3.805-3.67,5.455c-0.906,1.175-2.333,2.81-4.365,4.998
	c-0.319,0.344-0.299,0.882,0.045,1.201c0.163,0.152,0.371,0.227,0.578,0.227c0.228,0,0.455-0.091,0.623-0.272
	c1.958-2.108,3.365-3.716,4.307-4.915l2.015-0.708c-0.734,0.766-1.478,1.542-2.228,2.324C45.979,30.706,39.55,37.41,33.739,44z
	 M25.939,39.456c-0.316-0.347-0.854-0.375-1.201-0.059c-0.348,0.315-0.374,0.853-0.059,1.201l4.351,4.8l-4.188-4.025
	c-0.338-0.325-0.875-0.314-1.202,0.024c-0.257,0.267-0.296,0.655-0.137,0.969l-9.333,8.13c-0.196,0.17-0.303,0.421-0.291,0.681
	c0.012,0.259,0.143,0.499,0.354,0.65l2.136,1.534c-0.155,0.17-0.235,0.396-0.22,0.627c0.016,0.244,0.135,0.469,0.329,0.618
	l1.878,1.449c-0.018,0.018-0.024,0.043-0.04,0.063c-0.059,0.071-0.113,0.145-0.145,0.228c-0.013,0.033-0.012,0.068-0.02,0.103
	c-0.019,0.077-0.037,0.153-0.034,0.232c0,0.01-0.004,0.019-0.004,0.028c0.002,0.035,0.022,0.065,0.029,0.1
	c0.013,0.07,0.027,0.138,0.058,0.203c0.022,0.047,0.054,0.085,0.084,0.127c0.026,0.037,0.042,0.08,0.075,0.113
	c0.015,0.016,0.035,0.021,0.051,0.034c0.015,0.013,0.021,0.031,0.037,0.043l2.573,1.959c0.153,0.116,0.334,0.173,0.514,0.173
	c0.229,0,0.456-0.092,0.622-0.27l8.308-8.91c0.306-0.329,0.293-0.831-0.008-1.154l0.917,0.881c0.165,0.158,0.377,0.236,0.589,0.236
	c0.223,0,0.446-0.087,0.613-0.261c0.298-0.31,0.3-0.78,0.041-1.109c0.188-0.01,0.374-0.075,0.523-0.211
	c0.348-0.315,0.374-0.853,0.059-1.201L25.939,39.456z M29.22,49.121l-7.783,8.348l-1.185-0.902l2.829-2.817
	c0.333-0.332,0.333-0.87,0.002-1.202c-0.332-0.333-0.87-0.334-1.202-0.003l-2.311,2.302l-1.289-0.994l2.852-2.687
	c0.342-0.322,0.358-0.86,0.037-1.202c-0.322-0.343-0.861-0.357-1.202-0.036l-2.366,2.228l-1.506-1.082l8.594-7.486l5.688,5.467
	C30.035,48.769,29.527,48.791,29.22,49.121z"/>
</svg>
