<?xml version="1.0" encoding="utf-8"?>
<!-- Generator: Adobe Illustrator 16.0.0, SVG Export Plug-In . SVG Version: 6.00 Build 0)  -->
<!DOCTYPE svg PUBLIC "-//W3C//DTD SVG 1.1//EN" "http://www.w3.org/Graphics/SVG/1.1/DTD/svg11.dtd">
<svg version="1.1" id="Layer_1" xmlns="http://www.w3.org/2000/svg" xmlns:xlink="http://www.w3.org/1999/xlink" x="0px" y="0px"
	 width="72px" height="72px" viewBox="0 0 72 72" enable-background="new 0 0 72 72" xml:space="preserve">
<path fill="#444444" d="M57.368,44.932c-1,0.154-2.406-0.634-3.372-0.997c-1.271-0.478-2.421-1.317-3.61-1.966
	c-2.395-1.305-5.106-2.441-7.879-2.417c-2.239,0.021-4.613,0.459-6.818,0.852c-1.254,0.223-2.505,0.51-3.698,0.963
	c-0.659,0.251-2.812,0.981-2.714,1.905c0.09,0.906,2.573,1.349,3.254,1.671c1.335,0.632,2.488,1.693,3.688,2.545
	c2.417,1.715,5.021,2.686,8.004,2.778c3.061,0.095,5.505-0.852,8.209-2.137c1.283-0.609,2.686-0.914,3.995-1.461
	c0.395-0.165,1.131-0.342,1.461-0.619C58.369,45.642,57.996,44.82,57.368,44.932C57.343,44.936,57.714,44.87,57.368,44.932z
	 M38.711,41.242c2.582-0.338,4.854-0.589,7.386,0.219c2.805,0.895,5.084,2.864,7.837,3.799c-3.766,0.13-7.576-0.289-11.314-0.704
	c-1.804-0.199-3.604-0.447-5.381-0.819c-1.586-0.332-3.122-0.911-4.714-1.195C34.503,41.802,36.628,41.522,38.711,41.242z
	 M50.953,47.443c-2.767,1.425-5.83,1.9-8.9,1.312c-3.34-0.641-5.513-2.899-8.314-4.603c6.091,1.77,12.799,2.408,19.131,2.408
	C52.208,46.802,51.579,47.121,50.953,47.443C50.301,47.779,51.563,47.13,50.953,47.443z M46.479,55.92
	c-0.695,0.065-2.33-1.319-2.929-1.78c-0.849-0.654-1.427-1.596-2.233-2.299c-0.839-0.731-1.746-0.76-2.693-1.205
	c-1.062-0.5-1.493-1.784-2.643-2.281c-1.083-0.468-2.276-0.439-3.431-0.472c-1.223-0.033-2.44-0.198-3.665-0.234
	c-1.341-0.039-2.687,0.01-4.016,0.202c-0.986,0.144-3.815,0.698-1.764,1.814c2.059,1.121,3.355,3.148,4.892,4.843
	c0.837,0.923,1.781,1.86,2.941,2.361c1.259,0.544,2.572,0.145,3.846,0.59c1.167,0.408,2.262,0.989,3.531,0.989
	c1.291,0,2.527-0.503,3.761-0.819c0.6-0.154,1.221-0.278,1.844-0.247c0.618,0.03,0.942-0.275,1.472-0.215
	c0.428,0.049,1.132,0.177,1.51-0.088C47.423,56.712,47.11,55.87,46.479,55.92C46.374,55.93,46.828,55.893,46.479,55.92z
	 M31.656,49.111c1.117,0.108,2.278-0.038,3.372,0.26c1.291,0.352,1.703,1.577,2.751,2.253c0.753,0.485,1.7,0.428,2.433,0.961
	c1.021,0.743,1.66,1.887,2.684,2.636c-5.616-1.973-11.134-4.129-16.706-6.223C28.01,48.846,29.84,48.938,31.656,49.111
	C32.077,49.152,29.897,48.943,31.656,49.111z M40.741,56.673c-1.301,0.377-2.505,0.687-3.833,0.235
	c-1.568-0.532-2.724-0.938-4.388-0.958c-2.783-0.033-4.8-3.941-6.546-5.671c5.394,2.013,10.752,4.063,16.163,6.029
	C41.667,56.412,41.203,56.538,40.741,56.673C39.997,56.889,41.201,56.539,40.741,56.673z M27.444,43.572
	c1.576-1.126,3.409-1.812,5.092-2.751c1.659-0.927,3.371-1.727,5.194-2.312c3.625-1.163,7.648-1.991,10.479-4.744
	c1.189-1.157,1.254-2.893,2.312-4.161c0.732-0.886,1.121-1.786,1.487-2.851c0.485-1.412,0.941-2.836,1.348-4.273
	c0.272-0.961,0.996-2.518,0.802-3.526c-0.083-0.414-0.608-0.676-0.971-0.413c-0.253,0.165-0.423,0.507-0.586,0.737
	c-0.906,0.403-1.687,1.019-2.534,1.524c-1.481,0.882-3.315,0.903-4.746,1.895c-0.623,0.432-0.987,1.063-1.523,1.576
	C43.309,24.74,42.589,24.83,41.963,25c-1.851,0.501-2.775,1.915-3.75,3.448c-0.887,1.395-1.905,2.591-2.565,4.132
	c-0.717,1.673-0.93,3.515-1.671,5.169c-0.731,1.635-2.598,2.283-4.127,3.013c0.827-2.758,2.926-4.863,4.288-7.344
	c0.657-1.196,1.185-2.489,1.111-3.879c-0.035-0.66-0.305-1.245-0.474-1.874c-0.212-0.79-0.083-1.649,0.008-2.447
	c0.16-1.398,0.187-2.724-0.404-4.035c-0.58-1.289-1.466-2.408-2.078-3.679c-0.264-0.547-0.479-1.131-0.53-1.74
	c-0.019-0.188-0.104-0.338-0.254-0.45c-0.365-0.267-0.268-0.519-0.359-0.984c-0.097-0.497-0.527-1.286-1.133-0.732
	c-0.367,0.334-0.586,1.304-0.738,1.773c-0.45,1.396-0.799,2.632-1.619,3.869c-0.764,1.156-1.425,2.302-1.408,3.73
	c0.017,1.333-0.45,1.928-1.113,3.03c-0.859,1.427-0.687,3.032-0.304,4.58c0.685,2.771,1.073,5.592,2.098,8.274
	c0.239,0.625,0.504,1.239,0.8,1.839c0.151,0.307,0.309,0.608,0.476,0.906c-0.389,0.214-0.773,0.439-1.144,0.684
	c-1.38,0.909-2.674,1.991-3.863,3.137c-0.683-1.901,0.927-4.342,1.267-6.195c0.457-2.486,0.26-5.127-0.788-7.436
	c-1.049-2.311-1.631-4.846-3.601-6.585c-1.076-0.95-2.113-1.806-2.98-2.964c-0.431-0.576-1.565-3.222-2.567-2.511
	c-0.467,0.332-0.209,0.803,0.04,1.157c0.324,0.461,0.119,1.164,0.136,1.727c0.045,1.475-0.089,2.683-0.467,4.107
	c-0.4,1.508-0.262,2.627,0.186,4.084c0.327,1.063-0.417,2.138-0.471,3.202c-0.067,1.321,0.558,2.511,1.235,3.597
	c0.731,1.172,1.358,2.383,2.021,3.594c0.699,1.277,1.447,2.605,2.53,3.602c0.375,0.345,0.787,0.644,1.215,0.917
	c0.358,0.229,0.578,0.991,1.091,0.912c-1.972,2.18-3.122,4.739-4.709,7.174c-0.318,0.487-0.66,0.96-1.044,1.397
	c-0.38,0.434-1.21,0.871-1.442,1.383c-0.189,0.417,0.125,0.903,0.581,0.903c0.603,0,1.314-0.888,1.682-1.289
	c1.848-2.016,2.759-4.647,4.343-6.844C23.097,47.085,25.181,45.189,27.444,43.572C28.431,42.867,24.924,45.373,27.444,43.572z
	 M50.395,27.475c-0.499,1.382-1.737,2.28-2.192,3.745c-0.423,1.368-1.32,2.112-2.501,2.87c-2.713,1.742-5.898,2.381-8.913,3.402
	c5.674-4.577,10.927-9.633,15.356-15.442C51.628,23.878,51.045,25.69,50.395,27.475C50.217,27.968,50.844,26.242,50.395,27.475z
	 M36.362,34.278c0.567-1.662,1.412-3.013,2.436-4.418c1.003-1.377,1.653-3.113,3.441-3.612c1.594-0.444,2.281-0.957,3.378-2.135
	c1.23-1.324,3.476-1.283,4.994-2.158c-4.342,5.562-9.454,10.381-14.938,14.794C35.907,35.927,36.088,35.088,36.362,34.278
	C36.924,32.63,36.2,34.757,36.362,34.278z M32.185,19.88c1.077,1.749,1.562,3.121,1.327,5.192c-0.083,0.724-0.157,1.451-0.104,2.18
	c0.069,0.95,0.609,1.783,0.564,2.748c-0.159,3.396-3.571,6.183-4.888,9.178c-0.355-1.683-0.458-3.435-0.276-5.146
	c0.201-1.89,0.953-3.633,1.429-5.46c0.903-3.468,0.706-6.845,0.979-10.371C31.508,18.777,31.845,19.33,32.185,19.88
	C32.647,20.63,31.847,19.333,32.185,19.88z M26.197,30.735c-0.298-1.161-0.671-2.477-0.185-3.642
	c0.414-0.991,1.298-1.702,1.489-2.801c0.184-1.061-0.086-1.999,0.422-3.02c0.656-1.318,1.622-2.392,2.072-3.818
	c-0.199,2.958-0.009,5.958-0.562,8.88c-0.649,3.43-2.102,6.491-1.97,10.053C26.933,34.524,26.679,32.607,26.197,30.735
	C25.901,29.583,26.315,31.194,26.197,30.735z M18.568,25.588c1.313,1.087,2.141,2.183,2.74,3.79
	c0.622,1.669,1.618,3.312,1.932,5.074c0.27,1.516,0.257,3.199-0.052,4.709c-0.349,1.703-1.182,3.262-1.336,5.016
	c-1.33-2.982-2.381-6.358-2.996-9.563c-0.333-1.737-0.499-3.5-0.775-5.247c-0.285-1.802-0.962-3.544-1.178-5.35
	C17.405,24.599,17.976,25.097,18.568,25.588C19.131,26.054,18.034,25.146,18.568,25.588z M19.63,42.71
	c-0.93-1.338-1.644-2.806-2.412-4.237c-0.751-1.415-2.179-2.876-1.962-4.605c0.18-1.434,0.778-2.408,0.251-3.864
	c-0.568-1.596,0.048-2.955,0.374-4.53c0.713,2.866,1.101,5.714,1.586,8.624c0.524,3.142,1.549,6.319,2.686,9.291
	C19.967,43.172,19.792,42.945,19.63,42.71C18.873,41.621,19.807,42.966,19.63,42.71z"/>
</svg>
