<?xml version="1.0" encoding="utf-8"?>
<!-- Generator: Adobe Illustrator 16.0.0, SVG Export Plug-In . SVG Version: 6.00 Build 0)  -->
<!DOCTYPE svg PUBLIC "-//W3C//DTD SVG 1.1//EN" "http://www.w3.org/Graphics/SVG/1.1/DTD/svg11.dtd">
<svg version="1.1" id="Layer_1" xmlns="http://www.w3.org/2000/svg" xmlns:xlink="http://www.w3.org/1999/xlink" x="0px" y="0px"
	 width="72px" height="72px" viewBox="0 0 72 72" enable-background="new 0 0 72 72" xml:space="preserve">
<path fill="#444444" d="M60.06,36.219c-0.843-0.183-1.889-0.272-3.193-0.272c-5.864,0-15.743,1.848-24.673,3.836
	c1.782-1.813,3.57-3.563,5.364-5.257c7.175-3.225,14.202-5.875,21.027-7.914c0.345-0.103,0.626-0.187,0.841-0.253
	c0.799-0.25,1.216-1.061,1.063-2.066c-0.179-1.174-1.087-2.432-2.349-2.262c-2.007,0.041-5.083,0.889-8.692,2.201
	c1.271-1.001,2.544-1.975,3.817-2.914c0.294-0.216,0.533-0.393,0.713-0.528c0.559-0.422,0.741-1.125,0.488-1.879
	c-0.313-0.934-1.317-1.942-2.396-1.942c-0.271,0-0.525,0.062-0.759,0.184c-3.687,1.408-10.189,7.116-16.63,13.418
	c-10.536,4.994-20.439,10.4-21.201,10.818l-0.29,0.158c-0.099,0.044-0.192,0.1-0.286,0.157l-0.308,0.168l0.024,0.03
	c-0.492,0.416-0.801,0.996-0.863,1.652c-0.041,0.429,0.037,0.852,0.201,1.245l-0.186,0.051l0.017,0.037
	c-0.566,0.288-0.995,0.774-1.205,1.39c-0.216,0.633-0.178,1.32,0.107,1.937c0.425,0.919,1.335,1.512,2.32,1.512
	c0.354,0,0.696-0.075,1.016-0.224c0.159-0.073,0.306-0.163,0.442-0.266l0.135-0.041c1.061-0.321,2.107-0.61,3.16-0.914
	c-1.067,1.18-1.755,1.954-1.913,2.132l-0.223,0.252c-0.082,0.077-0.154,0.164-0.225,0.254l-0.22,0.248l0.031,0.02
	c-0.322,0.558-0.417,1.208-0.253,1.846c0.167,0.651,0.578,1.21,1.157,1.572c0.425,0.267,0.911,0.408,1.406,0.408
	c0.874,0,1.666-0.433,2.119-1.154c0.093-0.149,0.168-0.307,0.227-0.469l0.093-0.11c2.12-2.526,4.255-4.967,6.401-7.325
	c11.61-2.874,22.687-4.622,33.052-5.211c0.365-0.021,0.662-0.038,0.887-0.054c0.919-0.062,1.527-0.879,1.515-2.033
	C61.804,37.539,61.185,36.327,60.06,36.219z M58.225,23.73l0.12-0.016c0.051,0.015,0.205,0.143,0.336,0.422
	c0.124,0.267,0.149,0.508,0.138,0.629l-0.72,0.218c-5.464,1.632-11.058,3.667-16.746,6.053c1.263-1.129,2.526-2.23,3.793-3.299
	C50.694,25.417,55.562,23.761,58.225,23.73z M30.983,34.255c-0.956,0.968-1.896,1.932-2.813,2.882
	c-3.78,1.911-7.591,3.966-11.431,6.179c-0.09-0.354-0.248-0.692-0.481-0.989c-0.097-0.123-0.208-0.232-0.323-0.333
	C18.649,40.537,24.44,37.472,30.983,34.255z M24.536,40.947c-0.254,0.27-0.508,0.539-0.754,0.802
	c-0.472,0.115-0.936,0.229-1.387,0.341C23.11,41.698,23.822,41.328,24.536,40.947z M13.708,47.514
	c-0.069,0.202-0.208,0.36-0.393,0.445c-0.389,0.179-0.884-0.036-1.079-0.458c-0.101-0.218-0.115-0.457-0.042-0.675
	c0.069-0.202,0.208-0.36,0.392-0.445c0.096-0.044,0.198-0.066,0.303-0.066c0.325,0,0.63,0.206,0.777,0.525
	C13.767,47.058,13.781,47.297,13.708,47.514z M13.634,44.344c-0.136-0.188-0.205-0.408-0.184-0.63
	c0.021-0.218,0.122-0.408,0.286-0.537c0.167-0.132,0.347-0.159,0.469-0.159c0.271,0,0.54,0.135,0.717,0.36
	c0.132,0.169,0.19,0.369,0.193,0.571C14.514,44.108,14.02,44.24,13.634,44.344z M15.447,47.175
	c-0.007-0.356-0.083-0.713-0.237-1.048c-0.063-0.137-0.142-0.262-0.226-0.382c1.489-0.394,3.813-0.999,6.666-1.709
	c-0.609,0.658-1.173,1.271-1.705,1.852C18.453,46.3,16.954,46.728,15.447,47.175z M18.203,52.955
	c-0.226,0.36-0.776,0.465-1.181,0.209c-0.208-0.13-0.355-0.327-0.413-0.554c-0.054-0.212-0.023-0.425,0.086-0.601
	c0.14-0.224,0.394-0.356,0.678-0.356c0.175,0,0.35,0.051,0.503,0.146c0.208,0.131,0.355,0.328,0.414,0.556
	C18.344,52.567,18.313,52.779,18.203,52.955z M19.565,51.127c-0.205-0.303-0.466-0.566-0.786-0.768
	c-0.132-0.083-0.272-0.146-0.414-0.202c5.299-5.876,26.183-28.675,33.6-31.435l0.105-0.055c0.062,0,0.261,0.076,0.483,0.312
	c0.201,0.213,0.288,0.412,0.314,0.517c-0.164,0.123-0.368,0.273-0.611,0.453C41.196,28.1,30.204,38.591,19.565,51.127z
	 M60.076,39.001c-0.204,0.014-0.456,0.027-0.757,0.045c-9.731,0.553-20.087,2.136-30.903,4.682c0.533-0.57,1.066-1.136,1.601-1.696
	c9.48-2.176,20.633-4.385,26.849-4.385c1.193,0,2.163,0.083,2.882,0.245l0.115,0.011c0.044,0.027,0.162,0.186,0.222,0.479
	C60.142,38.657,60.113,38.888,60.076,39.001z"/>
</svg>
