<?xml version="1.0" encoding="utf-8"?>
<!-- Generator: Adobe Illustrator 16.0.0, SVG Export Plug-In . SVG Version: 6.00 Build 0)  -->
<!DOCTYPE svg PUBLIC "-//W3C//DTD SVG 1.1//EN" "http://www.w3.org/Graphics/SVG/1.1/DTD/svg11.dtd">
<svg version="1.1" id="Layer_1" xmlns="http://www.w3.org/2000/svg" xmlns:xlink="http://www.w3.org/1999/xlink" x="0px" y="0px"
	 width="72px" height="72px" viewBox="0 0 72 72" enable-background="new 0 0 72 72" xml:space="preserve">
<path fill="#444444" d="M58.1,14.587c-0.065-0.224-0.244-0.419-0.49-0.49c-2.59-0.753-4.151-0.087-6.021,0.97
	c-0.872-0.045-2.075-1.383-3.47-1.081c-0.833,0.179-1.477,0.86-2.1,1.519c-1.168,1.237-1.258,1.269-2.688,0.853
	c-0.749-0.216-1.596-0.462-2.402-0.126c-0.797,0.333-1.307,1.11-1.8,1.861c-0.933,1.424-1.032,1.477-2.571,1.389
	c-0.895-0.049-1.677-0.081-2.43,0.396c-0.724,0.492-1.057,1.305-1.397,2.147c-0.625,1.546-0.721,1.626-2.313,1.9
	c-0.808,0.139-1.725,0.296-2.345,0.917c-1.086,1.085-0.768,3.111-1.385,3.865c-0.619,0.757-2.729,0.915-3.58,2.191
	c-0.487,0.73-0.437,1.632-0.393,2.429c0.085,1.543,0.036,1.644-1.388,2.578c-0.751,0.492-1.529,1.003-1.861,1.796
	c-0.584,1.398,0.595,2.977,0.328,3.838c-0.271,0.871-2.26,1.891-2.573,3.35c-0.244,1.135,0.958,5.676,1.488,7.586l-4.698,4.696
	c-0.281,0.282-0.281,0.737,0,1.019c0.281,0.281,0.737,0.281,1.018,0l4.698-4.696c1.202,0.333,6.369,1.752,7.585,1.487
	c1.461-0.313,2.476-2.299,3.35-2.571c0.859-0.269,2.438,0.909,3.838,0.327c1.398-0.584,2.017-2.678,2.856-3.127
	c0.83-0.446,2.67,0.332,3.942-0.518c1.275-0.85,1.435-2.959,2.191-3.578c0.756-0.619,2.778-0.299,3.864-1.386
	c1.086-1.085,0.77-3.112,1.386-3.864c0.62-0.76,2.729-0.916,3.581-2.19c0.849-1.273,0.068-3.111,0.517-3.947
	c0.445-0.833,2.627-1.527,3.127-2.858c0.584-1.399-0.595-2.978-0.325-3.84c0.271-0.873,2.26-1.889,2.571-3.35
	c0.298-1.397-1.037-2.599-1.082-3.47C58.186,18.739,58.852,17.177,58.1,14.587z M18.627,45.189c0.184-0.854,2.12-1.875,2.54-3.224
	c0.241-0.772,0.011-1.565-0.192-2.266c-0.421-1.448-0.412-1.577,1.142-2.593c1.815-1.19,2.154-1.728,2.036-3.861
	c-0.035-0.628-0.067-1.22,0.153-1.552c0.324-0.485,1.358-0.774,2.219-1.174v8.113c0,0.398,0.323,0.719,0.72,0.719
	s0.72-0.319,0.72-0.719V29.39c0.728-1.132,0.528-2.936,1.126-3.534c0.646-0.645,2.619-0.354,3.76-1.289
	c0.438-0.359,0.721-0.861,0.958-1.395v5.987c0,0.398,0.322,0.722,0.72,0.722c0.398,0,0.72-0.323,0.72-0.722v-8.216
	c0.333-0.075,0.771-0.053,1.23-0.026c2.125,0.118,2.664-0.219,3.855-2.038c1.016-1.549,1.143-1.563,2.596-1.142
	c0.42,0.121,0.871,0.252,1.334,0.284v3.201c0,0.398,0.32,0.722,0.719,0.722c0.399,0,0.721-0.323,0.721-0.722v-3.521
	c1.056-0.625,1.984-2.153,2.718-2.312c0.748-0.16,2.022,1.278,3.464,1.099c0.094-0.011,0.186-0.041,0.27-0.088
	c1.5-0.856,2.518-1.277,3.793-1.17L19.881,51.301C19.152,48.579,18.522,45.734,18.627,45.189z M55.792,20.047
	c-0.047,0.082-0.076,0.173-0.088,0.269c-0.179,1.433,1.259,2.715,1.101,3.46c-0.186,0.855-2.121,1.876-2.541,3.224
	c-0.365,1.171,0.35,2.39,0.422,3.271h-7.748c-0.396,0-0.72,0.321-0.72,0.719c0,0.398,0.322,0.721,0.72,0.721h6.607
	c-0.744,0.495-1.572,0.98-1.977,1.737c-0.693,1.297,0.041,3.1-0.445,3.825c-0.512,0.768-2.57,0.945-3.496,2.078
	c-0.936,1.14-0.645,3.112-1.289,3.76c-0.6,0.6-2.398,0.396-3.535,1.125h-9.042c-0.397,0-0.72,0.322-0.72,0.722
	c0,0.396,0.322,0.72,0.72,0.72h7.913c-0.111,0.238-0.212,0.483-0.311,0.729c-0.678,1.674-0.813,1.73-2.414,1.643
	c-2.125-0.117-2.664,0.223-3.854,2.038c-1.02,1.554-1.147,1.562-2.596,1.142c-0.699-0.203-1.493-0.434-2.266-0.192
	c-1.347,0.42-2.369,2.356-3.223,2.539c-0.545,0.106-3.388-0.524-6.112-1.253l36.064-36.068
	C57.068,17.528,56.648,18.546,55.792,20.047z"/>
</svg>
