<?xml version="1.0" encoding="utf-8"?>
<!-- Generator: Adobe Illustrator 16.0.0, SVG Export Plug-In . SVG Version: 6.00 Build 0)  -->
<!DOCTYPE svg PUBLIC "-//W3C//DTD SVG 1.1//EN" "http://www.w3.org/Graphics/SVG/1.1/DTD/svg11.dtd">
<svg version="1.1" id="Layer_1" xmlns="http://www.w3.org/2000/svg" xmlns:xlink="http://www.w3.org/1999/xlink" x="0px" y="0px"
	 width="72px" height="72px" viewBox="0 0 72 72" enable-background="new 0 0 72 72" xml:space="preserve">
<path fill="#444444" d="M41.018,37.46c0.811,0.082,1.624,0.122,2.433,0.122c5.061,0,9.905-1.568,12.323-4.108
	c1.153-1.211,1.655-2.555,1.453-3.886c-0.122-0.8-0.581-1.437-1.326-1.84c-0.712-0.385-1.6-0.5-2.465-0.506
	c1.125-1.466,2.028-3.331,2.35-5.02c0.257-1.348,0.105-2.465-0.438-3.23c-0.543-0.763-1.385-1.142-2.372-1.073
	c-0.724,0.052-1.478,0.337-2.165,0.73c0.208-1.466,0.147-3.036-0.337-4.25c-0.414-1.038-1.117-1.753-2.033-2.067
	c-0.867-0.299-1.799-0.149-2.696,0.429c-1.395,0.899-2.557,2.722-3.268,4.453c-0.381-0.659-0.871-1.241-1.476-1.625
	c-0.789-0.499-1.708-0.627-2.655-0.372c-2.584,0.695-3.604,4.589-3.664,7.63c-0.447-0.231-0.924-0.398-1.366-0.457
	c-0.997-0.128-1.83,0.244-2.334,1.058c-0.675,1.092-0.703,3.209-0.069,5.268c0.551,1.792,2.058,4.992,6.039,7.086
	c-0.659,0.931-1.318,1.827-1.976,2.675c-1.337-0.874-4.361-3.073-5.495-5.749c-1.248-2.941-2.836-4.786-4.472-5.195
	c-0.862-0.216-1.699-0.022-2.416,0.556c-1.802,1.456-0.812,4.577-0.087,6.262c-1.081,0.214-2.593,0.689-3.374,1.725
	c-0.465,0.618-0.622,1.361-0.452,2.151c0.537,2.494,3.977,2.908,5.944,2.937c-0.293,1.122-0.283,2.463,0.75,3.298
	c0.618,0.499,1.473,0.676,2.373,0.676c0.489,0,0.99-0.054,1.476-0.135c-7.119,7.075-12.879,9.405-12.976,9.443
	c-0.032,0.013-0.053,0.037-0.083,0.053c-0.482,0.231-0.883,0.585-1.134,1.061c-0.694,1.32-0.032,3.04,1.476,3.833
	c0.499,0.263,1.049,0.401,1.591,0.401c0.641,0,1.208-0.205,1.667-0.541c0.012-0.006,0.025-0.009,0.038-0.016
	c6.5-3.825,11.437-8.505,15.186-13.255c0.934,1.647,3.144,5.04,5.693,5.415c1.357,0.203,2.4-0.743,3.054-1.756
	c1.102,1.188,3.062,2.954,4.976,2.954c0.49,0,0.978-0.116,1.446-0.387c0.72-0.417,1.179-1.05,1.328-1.831
	c0.255-1.335-0.456-2.85-1.05-3.829c1.796-0.608,4.933-2.022,4.795-4.431c-0.054-0.948-0.484-1.719-1.246-2.229
	c-1.45-0.971-3.978-0.902-7.115,0.189c-2.74,0.958-6.175,0.404-7.819,0.039c0.572-0.948,1.1-1.884,1.589-2.804
	C40.75,37.388,40.874,37.445,41.018,37.46z M32.538,28.214c-0.574-1.866-0.41-3.389-0.109-3.874c0.105-0.17,0.225-0.276,0.53-0.277
	c0.74,0.016,1.742,0.76,1.882,0.991c0.129,0.43,0.571,0.684,1.008,0.583c0.437-0.102,0.719-0.526,0.645-0.969
	c-0.447-2.655,0.421-7.307,2.295-7.811c0.499-0.135,0.913-0.082,1.304,0.166c0.853,0.54,1.446,1.956,1.656,3.12
	c0.076,0.417,0.416,0.713,0.873,0.698c0.424-0.018,0.77-0.346,0.811-0.769c0.154-1.629,1.581-4.817,3.235-5.883
	c0.679-0.437,1.089-0.296,1.222-0.25c0.446,0.153,0.775,0.51,1.007,1.09c0.634,1.588,0.264,4.397-0.491,5.857
	c-0.004,0.005-0.007,0.011-0.01,0.017c-0.213,0.417-0.05,0.928,0.366,1.143c0.417,0.216,0.929,0.052,1.145-0.362
	c0.002-0.005,0.005-0.01,0.008-0.015c0.342-0.647,1.98-1.968,3.187-2.055c0.504-0.036,0.729,0.174,0.862,0.361
	c0.261,0.368,0.317,1.071,0.154,1.929c-0.415,2.183-2.105,4.9-3.69,5.935c-0.373,0.243-0.495,0.731-0.281,1.121
	c0.215,0.39,0.695,0.548,1.097,0.365c0.665-0.302,2.809-0.645,3.851-0.082c0.278,0.15,0.414,0.331,0.455,0.601
	c0.152,1-0.462,1.889-1.004,2.458c-2.054,2.158-7.197,4.029-13.118,3.485c2.329-4.701,3.614-8.841,4.278-11.481
	c0.032-0.128,0.056-0.224,0.073-0.285c0.131-0.304,0.074-0.658-0.148-0.906c-0.229-0.255-0.59-0.35-0.914-0.234
	c-0.253,0.088-0.389,0.231-0.482,0.437l-0.003-0.001c-2.006,4.204-4.141,7.867-6.302,11.071
	C34.352,32.575,33.017,29.773,32.538,28.214z M26.444,43.138c-0.648-0.523-0.022-2.076,0.18-2.462
	c0.145-0.273,0.129-0.605-0.041-0.864c-0.17-0.26-0.463-0.396-0.778-0.382c-1.647,0.13-5.144-0.083-5.462-1.562
	c-0.066-0.309-0.021-0.546,0.146-0.77c0.571-0.76,2.353-1.151,3.342-1.219c0.288-0.02,0.547-0.185,0.687-0.438
	c0.139-0.253,0.141-0.56,0.004-0.814c-0.896-1.66-1.79-4.466-0.86-5.217c0.298-0.241,0.595-0.313,0.935-0.229
	c0.829,0.207,2.136,1.421,3.319,4.209c1.282,3.025,4.443,5.397,5.994,6.423c-0.81,0.993-1.614,1.928-2.407,2.801
	C29.867,43.241,27.268,43.808,26.444,43.138z M17.298,57.887c-0.667-0.352-1.016-1.056-0.763-1.538
	c0.074-0.14,0.194-0.251,0.349-0.328c0,0,0,0,0.001-0.001c0.154-0.076,0.341-0.118,0.548-0.118c0.268,0,0.544,0.071,0.801,0.207
	c0.35,0.183,0.626,0.472,0.76,0.792c0.065,0.155,0.151,0.459,0.002,0.743C18.754,58.105,17.952,58.23,17.298,57.887z M20.694,56.682
	c-0.035-0.146-0.071-0.293-0.131-0.436c-0.239-0.574-0.666-1.067-1.206-1.432c3.417-1.884,9.87-6.215,16.578-14.751
	c0.004-0.007,0.012-0.011,0.016-0.019c0-0.001,0-0.003,0.001-0.004c1.622-2.066,3.259-4.371,4.871-6.955
	C37.496,40.476,31.445,49.784,20.694,56.682z M47.428,41.683c2.996-1.044,4.862-0.884,5.61-0.382
	c0.313,0.21,0.471,0.499,0.494,0.912c0.08,1.396-3.105,2.642-4.66,3.026c-0.281,0.069-0.508,0.276-0.601,0.55
	c-0.094,0.274-0.042,0.576,0.138,0.803c0.432,0.546,1.617,2.354,1.405,3.466c-0.057,0.298-0.214,0.507-0.51,0.677
	c-1.382,0.806-4.021-1.767-5.081-3.137c-0.188-0.245-0.494-0.368-0.803-0.319c-0.306,0.047-0.562,0.257-0.669,0.547
	c-0.158,0.433-0.919,2.006-1.823,1.889c-1.71-0.252-3.826-3.283-4.81-5.215c0.704-0.956,1.367-1.911,1.98-2.859
	C39.556,42.013,43.876,42.922,47.428,41.683z"/>
</svg>
