<?xml version="1.0" encoding="utf-8"?>
<!-- Generator: Adobe Illustrator 16.0.0, SVG Export Plug-In . SVG Version: 6.00 Build 0)  -->
<!DOCTYPE svg PUBLIC "-//W3C//DTD SVG 1.1//EN" "http://www.w3.org/Graphics/SVG/1.1/DTD/svg11.dtd">
<svg version="1.1" id="Layer_1" xmlns="http://www.w3.org/2000/svg" xmlns:xlink="http://www.w3.org/1999/xlink" x="0px" y="0px"
	 width="72px" height="72px" viewBox="0 0 72 72" enable-background="new 0 0 72 72" xml:space="preserve">
<path fill="#444444" d="M53.676,47.497c6.172-8.808,5.771-20.077-0.953-26.803l-3.785-3.788c-0.002-0.002-0.004-0.005-0.006-0.007
	c-2.725-2.723-6.975-3.549-11.971-2.328c-4.856,1.188-9.874,4.185-14.126,8.437c-4.253,4.252-7.249,9.269-8.437,14.125
	c-1.221,4.994-0.394,9.244,2.328,11.967c0.003,0.003,0.006,0.006,0.009,0.009l3.786,3.786c3.539,3.537,8.335,5.326,13.372,5.326
	c4.533-0.002,9.259-1.451,13.433-4.373c1.253-0.881,2.928-0.916,4.27-0.098c0.582,0.357,1.297,0.273,1.776-0.207
	s0.563-1.195,0.207-1.777C52.759,50.426,52.796,48.75,53.676,47.497z M15.924,37.504c1.12-4.578,3.968-9.334,8.02-13.386
	c4.053-4.053,8.809-6.901,13.39-8.021c1.381-0.339,2.693-0.505,3.916-0.505c2.706,0,4.973,0.82,6.568,2.418
	c2.32,2.319,3,6.044,1.914,10.486c-1.121,4.58-3.969,9.332-8.021,13.386c-4.054,4.052-8.808,6.9-13.389,8.021
	c-3.885,0.95-7.222,0.55-9.55-1.119c-0.195-0.14-0.367-0.308-0.548-0.465c-0.128-0.111-0.268-0.209-0.388-0.329
	C15.518,45.67,14.838,41.945,15.924,37.504z M52.391,46.593c-1.154,1.646-1.283,3.796-0.369,5.597
	c-1.801-0.914-3.953-0.782-5.599,0.369c-8.18,5.734-18.606,5.41-24.792-0.775l-0.111-0.11c0.067,0.016,0.142,0.019,0.21,0.032
	c0.423,0.088,0.857,0.157,1.305,0.201c0.055,0.005,0.106,0.015,0.162,0.02c0.394,0.034,0.794,0.053,1.205,0.053
	c0.122,0,0.249-0.01,0.373-0.013c0.092-0.002,0.184-0.005,0.276-0.009c0.533-0.022,1.078-0.068,1.635-0.146
	c0.069-0.01,0.14-0.022,0.209-0.033c0.589-0.089,1.188-0.199,1.802-0.349c4.856-1.188,9.874-4.183,14.125-8.436
	c1.063-1.063,2.049-2.175,2.946-3.319c2.693-3.433,4.601-7.165,5.491-10.806c0.022-0.093,0.031-0.18,0.053-0.272
	c0.126-0.545,0.236-1.085,0.313-1.611c0.033-0.229,0.041-0.447,0.065-0.672c0.041-0.38,0.086-0.763,0.101-1.131
	c0.01-0.252-0.005-0.492-0.007-0.738c-0.003-0.326-0.001-0.655-0.025-0.971c-0.02-0.251-0.062-0.49-0.095-0.734
	c-0.04-0.293-0.075-0.589-0.135-0.872c-0.012-0.058-0.015-0.121-0.027-0.178l0.11,0.111C57.799,27.987,58.124,38.411,52.391,46.593z
	 M25.274,47.703c1.185,0,2.477-0.199,3.85-0.604c3.689-1.086,7.567-3.531,10.922-6.886c3.354-3.351,5.798-7.23,6.884-10.918
	c1.133-3.855,0.66-7.074-1.33-9.065c-1.994-1.993-5.213-2.465-9.066-1.332c-3.69,1.085-7.568,3.529-10.922,6.884
	c-3.355,3.354-5.799,7.234-6.884,10.922c-1.134,3.852-0.66,7.07,1.331,9.063C21.341,47.052,23.131,47.703,25.274,47.703z
	 M20.235,37.148c1.011-3.441,3.315-7.083,6.487-10.254c3.171-3.172,6.813-5.475,10.254-6.487c1.229-0.361,2.373-0.542,3.405-0.542
	c1.718,0,3.128,0.497,4.106,1.477c1.57,1.569,1.9,4.236,0.937,7.512c-1.011,3.442-3.315,7.085-6.487,10.253
	c-3.171,3.172-6.813,5.475-10.256,6.486c-3.276,0.963-5.944,0.631-7.511-0.936C19.603,43.091,19.27,40.423,20.235,37.148z
	 M26.917,42.979c0.906,0,1.93-0.201,3.039-0.604c2.412-0.876,5.01-2.628,7.313-4.933c2.305-2.301,4.057-4.899,4.934-7.312
	c0.949-2.611,0.775-4.745-0.491-6.012c-1.267-1.266-3.401-1.44-6.012-0.492c-2.412,0.878-5.008,2.629-7.313,4.935
	c-2.304,2.303-4.056,4.901-4.934,7.313c-0.948,2.608-0.775,4.742,0.491,6.008C24.673,42.611,25.688,42.979,26.917,42.979z
	 M24.93,36.41c0.799-2.202,2.422-4.595,4.568-6.74c2.144-2.146,4.538-3.768,6.739-4.568c0.932-0.339,1.779-0.507,2.496-0.507
	c0.804,0,1.447,0.211,1.869,0.633c0.799,0.799,0.844,2.388,0.125,4.364c-0.799,2.201-2.422,4.595-4.566,6.74
	c-2.145,2.143-4.539,3.766-6.74,4.566c-1.975,0.719-3.565,0.672-4.364-0.127C24.258,39.973,24.211,38.382,24.93,36.41z
	 M29.249,38.533c0.507,0,1.142-0.137,1.941-0.501c1.237-0.562,2.607-1.56,3.859-2.811c1.251-1.251,2.251-2.622,2.813-3.859
	c0.859-1.887,0.453-2.868-0.036-3.358c-0.49-0.49-1.472-0.894-3.358-0.037c-1.236,0.562-2.607,1.563-3.859,2.813
	c-1.25,1.252-2.251,2.623-2.813,3.859c-0.859,1.888-0.453,2.866,0.037,3.356C28.114,38.277,28.561,38.533,29.249,38.533z
	 M29.225,35.289c0.486-1.07,1.372-2.278,2.493-3.398c1.121-1.121,2.329-2.008,3.398-2.494c0.613-0.277,1.028-0.356,1.281-0.356
	c0.185,0,0.287,0.04,0.319,0.074c0.079,0.079,0.197,0.543-0.282,1.599c-0.487,1.07-1.372,2.277-2.494,3.398
	c-1.121,1.122-2.328,2.007-3.398,2.494c-1.057,0.479-1.52,0.36-1.599,0.281C28.864,36.809,28.746,36.345,29.225,35.289z"/>
</svg>
