<?xml version="1.0" encoding="utf-8"?>
<!-- Generator: Adobe Illustrator 16.0.0, SVG Export Plug-In . SVG Version: 6.00 Build 0)  -->
<!DOCTYPE svg PUBLIC "-//W3C//DTD SVG 1.1//EN" "http://www.w3.org/Graphics/SVG/1.1/DTD/svg11.dtd">
<svg version="1.1" id="Layer_1" xmlns="http://www.w3.org/2000/svg" xmlns:xlink="http://www.w3.org/1999/xlink" x="0px" y="0px"
	 width="72px" height="72px" viewBox="0 0 72 72" enable-background="new 0 0 72 72" xml:space="preserve">
<path fill="#444444" d="M31.71,15.09l-0.33-0.749l-0.761,0.301c-0.138,0.055-1.492,0.611-3.223,1.783
	c-1.323-2.001-2.449-3.233-2.563-3.355l-0.621-0.666l-0.621,0.666c-0.115,0.124-1.26,1.376-2.597,3.409
	c-1.768-1.207-3.16-1.78-3.3-1.836l-0.761-0.301l-0.33,0.749c-0.194,0.441-4.731,10.903-2.454,19.601
	c2.011,7.679,5.912,12.837,9.708,12.837c0.098,0,0.194-0.012,0.291-0.019c0.022,0,0.043,0.007,0.064,0.007
	c0.008,0,0.015-0.003,0.023-0.003c0.074,0.005,0.147,0.015,0.221,0.015c0,0,0,0,0.001,0c3.795,0,7.696-5.159,9.707-12.837
	C36.441,25.994,31.904,15.532,31.71,15.09z M15.793,34.261c-1.779-6.794,1.045-15.092,2.04-17.678
	c0.547,0.278,1.348,0.729,2.253,1.358c-1.804,3.088-3.627,7.393-3.627,12.218c0,3.436,0.431,6.599,1.171,9.267
	C16.938,37.945,16.308,36.224,15.793,34.261z M24.212,45.817c-2.862,0-6.052-6.431-6.052-15.658c0-7.065,4.395-13.154,6.052-15.199
	c1.657,2.044,6.052,8.133,6.052,15.199C30.264,39.387,27.074,45.817,24.212,45.817z M32.52,34.261
	c-0.444,1.697-0.978,3.207-1.561,4.544c0.638-2.533,1.005-5.474,1.005-8.646c0-4.854-1.845-9.181-3.66-12.273
	c0.874-0.6,1.644-1.032,2.175-1.303C31.475,19.169,34.298,27.466,32.52,34.261z M58.295,35.07c-0.063-0.015-1.516-0.33-3.664-0.344
	c0.052-2.41-0.176-4.073-0.2-4.239l-0.133-0.9l-0.89,0.194c-0.165,0.036-1.817,0.416-4.073,1.327
	c-0.768-1.998-1.587-3.261-1.67-3.386l-0.455-0.681l-0.697,0.429c-0.41,0.252-10.091,6.281-13.162,14.729
	c-2.232,6.138-2.459,11.778-0.593,14.722c0.412,0.65,0.926,1.145,1.512,1.494c0.023,0.017,0.042,0.04,0.065,0.057
	c0.001,0.001,0.002,0.001,0.003,0.002c0.83,0.646,1.936,0.991,3.248,0.991c0.001,0,0.001,0,0.001,0
	c3.366,0,7.937-2.201,12.225-5.888c6.817-5.86,9.035-17.044,9.126-17.518l0.154-0.804L58.295,35.07z M34.949,42.778
	c2.398-6.598,9.439-11.819,11.728-13.381c0.291,0.54,0.693,1.366,1.081,2.398c-3.239,1.515-7.188,4.019-9.932,7.987
	c-1.957,2.832-3.402,5.685-4.309,8.304C33.804,46.413,34.28,44.617,34.949,42.778z M39.225,40.749
	c4.018-5.812,11.097-8.321,13.621-9.061c0.203,2.621,0.361,10.118-3.663,15.942c-4.008,5.799-9.115,9.85-12.419,9.85
	c-0.578,0-1.07-0.138-1.461-0.408C32.947,55.444,33.979,48.34,39.225,40.749z M48.705,52.287c-1.245,1.07-2.521,1.993-3.778,2.78
	c1.952-1.73,3.897-3.929,5.654-6.47c2.763-3.997,3.703-8.609,3.968-12.186c1.057,0.005,1.938,0.09,2.529,0.172
	C56.429,39.273,54.039,47.701,48.705,52.287z M36.745,54.99l-1.69-0.184c0.042-0.39,1.092-9.606,6.242-14.759l1.203,1.201
	C37.768,45.982,36.755,54.9,36.745,54.99z M25.013,43.737l-1.227-1.177c0.24-0.252,5.848-6.301,2.554-16.653l1.62-0.516
	C31.572,36.744,25.282,43.457,25.013,43.737z"/>
</svg>
