<?xml version="1.0" encoding="utf-8"?>
<!-- Generator: Adobe Illustrator 16.0.0, SVG Export Plug-In . SVG Version: 6.00 Build 0)  -->
<!DOCTYPE svg PUBLIC "-//W3C//DTD SVG 1.1//EN" "http://www.w3.org/Graphics/SVG/1.1/DTD/svg11.dtd">
<svg version="1.1" id="Layer_1" xmlns="http://www.w3.org/2000/svg" xmlns:xlink="http://www.w3.org/1999/xlink" x="0px" y="0px"
	 width="72px" height="72px" viewBox="0 0 72 72" enable-background="new 0 0 72 72" xml:space="preserve">
<path fill="#444444" d="M58.561,19.819c-0.357-0.134-0.756,0.045-0.892,0.402c-0.049,0.13-0.158,0.254-0.29,0.375
	c-0.011,0.002-0.021,0-0.031,0.002c-1.251,0.349-3.764-0.017-5.353-0.705c1.456-0.749,3.556-1.636,5.727-1.914
	c0.12,0.037,0.228,0.064,0.36,0.111c0.077,0.027,0.154,0.04,0.232,0.04c0.285,0,0.549-0.175,0.652-0.458
	c0.129-0.36-0.06-0.755-0.419-0.884c-1.261-0.45-2.034-0.479-2.854-0.508c-1.135-0.042-2.422-0.089-5.689-1.324
	c-3.166-1.197-6.978-1.057-10.11-0.583c-0.046-0.099-0.107-0.191-0.2-0.262c-0.092-0.07-2.27-1.698-4.994-1.427
	c-3.615,0.361-7.421,2.23-9.473,4.65c-1.378,1.625-3.778,4.969-4.364,9.105c-0.556,3.917,0.721,7.504,3.692,10.378
	c0.007,0.007,0.017,0.009,0.024,0.016c1.326,1.784,3.366,2.925,6.009,3.27c0.008,0.002,0.017,0.002,0.026,0.004
	c0.91,0.084,1.831,0.15,2.805,0.15c0.73,0,1.495-0.044,2.303-0.139c0.051,0.064,0.098,0.15,0.096,0.26
	c-0.005,0.221-0.207,1.045-2.637,2.436c-3.115,1.782-11.032,6.529-17.38,12.195c-0.745,0.459-1.404,0.896-1.949,1.303
	c-0.683,0.51-0.873,1.387-0.463,2.133c0.306,0.555,0.849,0.867,1.435,0.867c0.203,0,0.411-0.037,0.617-0.119
	c2.038-0.777,4.326-1.59,6.748-2.449c5.449-1.934,11.625-4.127,16.795-6.614c6.053-2.913,9.738-5.769,11.265-8.733
	c1.015-1.969,1.515-3.779,1.489-5.386c-0.024-1.503-0.5-2.787-1.414-3.817c-1.018-1.148-2.512-1.896-4.323-2.164
	c-1.674-0.248-3.495-0.049-5.129,0.558c-2.673,0.993-4.516,1.087-5.329,0.272c-0.944-0.946-0.494-3.095-0.17-4.084
	c1.747-1.099,4.15-1.492,7.18-1.153c1.324,0.148,2.518,0.212,3.594,0.212c6.051,0,8.334-2.048,8.976-2.812
	c0.922-0.191,3.274-0.814,3.84-2.312C59.098,20.353,58.917,19.954,58.561,19.819z M33.867,44.012
	c2.247-1.283,3.337-2.477,3.332-3.647c0-0.17-0.037-0.319-0.079-0.464c0.93-0.178,1.923-0.43,3.01-0.79
	c0.117,0.18,0.263,0.49,0.21,0.948c-0.099,0.86-0.977,2.678-5.73,5.178c-1.573,0.826-3.628,1.845-5.804,2.923
	c-1.971,0.977-4.032,1.998-6.008,3.009C27.363,47.836,31.744,45.227,33.867,44.012z M54.137,22.039
	c-0.02,0.033-2.191,3.24-11.431,2.208c-3.972-0.444-7.041,0.277-9.123,2.139c-2.629,2.351-2.659,5.635-2.659,5.773
	c0,0.381,0.308,0.689,0.689,0.69c0.001,0,0.002,0,0.002,0c0.38,0,0.689-0.307,0.691-0.685c0.001-0.024,0.035-2.014,1.341-3.794
	c-0.145,1.504,0.161,2.705,0.915,3.463c1.241,1.247,3.525,1.263,6.792,0.049c2.984-1.108,6.324-0.592,7.938,1.228
	c1.518,1.714,1.424,4.365-0.271,7.654c-3.146,6.108-16.535,10.86-27.292,14.678c-2.429,0.863-4.725,1.679-6.779,2.463
	c-0.189,0.072-0.293-0.029-0.347-0.127c-0.054-0.096-0.083-0.238,0.077-0.357c2.881-2.146,9.458-5.406,14.742-8.023
	c2.184-1.082,4.246-2.104,5.833-2.938c4.054-2.132,6.228-4.231,6.461-6.241c0.073-0.635-0.067-1.17-0.267-1.581
	c0.578-0.222,1.173-0.463,1.803-0.745c0.348-0.156,0.504-0.564,0.348-0.914c-0.156-0.349-0.563-0.505-0.912-0.349
	c-5.484,2.457-8.649,2.408-11.931,2.104c-4.283-0.564-5.772-3.216-6.267-5.337c-0.529-2.269-0.164-5.108,1.001-7.79
	c1.206-2.775,3.126-5.142,5.408-6.663c0.317-0.212,0.402-0.641,0.191-0.958c-0.212-0.317-0.641-0.403-0.958-0.191
	c-2.5,1.666-4.598,4.246-5.909,7.262c-1.042,2.396-1.483,4.84-1.312,7.051c-0.717-1.685-0.958-3.51-0.68-5.471
	c0.537-3.792,2.768-6.894,4.05-8.406c1.808-2.132,5.327-3.846,8.557-4.169c1.273-0.127,2.418,0.285,3.16,0.652
	c-2.347,0.482-4.016,1.051-4.176,1.108c-0.361,0.125-0.55,0.519-0.424,0.88c0.126,0.361,0.52,0.551,0.88,0.424
	c0.091-0.032,9.189-3.163,15.24-0.875c2.076,0.785,3.429,1.116,4.438,1.269c-2.638,0.97-4.595,2.298-4.711,2.376
	c-0.315,0.216-0.394,0.647-0.179,0.961c0.133,0.195,0.351,0.3,0.57,0.3c0.135,0,0.27-0.039,0.393-0.123
	c0.008-0.005,0.201-0.136,0.526-0.333c0.913,0.582,2.294,1.021,3.671,1.245C54.196,21.978,54.159,22.001,54.137,22.039z
	 M47.102,17.743c0,0.483-0.391,0.875-0.875,0.875c-0.482,0-0.875-0.392-0.875-0.875c0-0.483,0.393-0.875,0.875-0.875
	C46.711,16.868,47.102,17.26,47.102,17.743z"/>
</svg>
