<?xml version="1.0" encoding="utf-8"?>
<!-- Generator: Adobe Illustrator 16.0.0, SVG Export Plug-In . SVG Version: 6.00 Build 0)  -->
<!DOCTYPE svg PUBLIC "-//W3C//DTD SVG 1.1//EN" "http://www.w3.org/Graphics/SVG/1.1/DTD/svg11.dtd">
<svg version="1.1" id="Layer_1" xmlns="http://www.w3.org/2000/svg" xmlns:xlink="http://www.w3.org/1999/xlink" x="0px" y="0px"
	 width="72px" height="72px" viewBox="0 0 72 72" enable-background="new 0 0 72 72" xml:space="preserve">
<path fill="#444444" d="M56.773,23.343c-0.047-0.005-0.775-0.086-1.75-0.01c1.93-3.263,2.879-8.123,2.924-8.36
	c0.097-0.49-0.336-0.92-0.823-0.827c-0.237,0.046-5.099,0.994-8.36,2.924c0.075-0.975-0.005-1.702-0.01-1.75
	c-0.05-0.429-0.468-0.711-0.882-0.602c-0.239,0.063-5.164,1.385-8.328,3.564c0.065-1.232,0.048-2.077,0.047-2.126
	c-0.013-0.495-0.521-0.826-0.979-0.635c-0.243,0.103-5.345,2.253-8.072,5.076c-0.255-1.072-0.471-1.778-0.482-1.819
	c-0.146-0.476-0.727-0.654-1.115-0.345c-0.141,0.111-3.129,2.507-5.205,5.284c-0.696-1.28-1.213-2.1-1.24-2.143
	c-0.265-0.418-0.865-0.44-1.16-0.049c-0.243,0.325-5.937,7.928-5.937,13.23c0,7.603,6.535,14.175,4.295,16.647l-5.286,5.287
	c-0.277,0.275-0.277,0.723,0,0.998c0.275,0.275,0.722,0.275,0.999,0l5.285-5.287c2.473-2.24,9.044,4.293,16.648,4.293
	c5.302,0,12.905-5.691,13.228-5.935c0.185-0.14,0.289-0.36,0.279-0.593c-0.011-0.23-0.133-0.443-0.328-0.566
	c-0.043-0.026-0.862-0.545-2.143-1.24c2.777-2.076,5.173-5.065,5.283-5.205c0.311-0.389,0.132-0.969-0.344-1.115
	c-0.041-0.012-0.746-0.229-1.813-0.482c2.814-2.725,4.967-7.829,5.068-8.072c0.191-0.458-0.139-0.967-0.635-0.979
	c-0.049-0.002-0.895-0.019-2.127,0.046c2.18-3.163,3.502-8.089,3.564-8.327C57.484,23.809,57.201,23.392,56.773,23.343z
	 M51.732,32.883c-0.461,0.467-0.088,1.263,0.572,1.199c0.982-0.098,1.873-0.139,2.521-0.156c-0.889,1.881-2.99,5.922-5.282,7.413
	c-0.526,0.345-0.372,1.158,0.246,1.284c0.81,0.163,1.526,0.338,2.069,0.479c-1.043,1.192-3.114,3.401-5.215,4.746
	c-0.457,0.291-0.426,0.973,0.057,1.221c0.874,0.451,1.617,0.869,2.154,1.182c-2.111,1.465-7.658,5.034-11.515,5.034
	c-5.954,0-11.105-4.313-14.802-4.728l12.644-12.644h11.274c0.391,0,0.706-0.315,0.706-0.704s-0.315-0.705-0.706-0.705h-9.861
	c2.658-2.662,10.025-10.029,12.766-12.769c0.275-0.275,0.275-0.724,0-0.998c-0.274-0.275-0.723-0.275-0.998,0l-6.34,6.339v-6.081
	c0-0.391-0.316-0.706-0.707-0.706c-0.39,0-0.705,0.315-0.705,0.706v7.493L28.157,42.941V27.506c0-0.391-0.317-0.707-0.706-0.707
	c-0.39,0-0.705,0.316-0.705,0.707v16.848l-5.203,5.203c-0.416-3.692-4.73-8.848-4.73-14.802c0-3.857,3.57-9.402,5.034-11.516
	c0.312,0.537,0.73,1.281,1.183,2.156c0.246,0.475,0.924,0.52,1.221,0.056c1.341-2.098,3.552-4.168,4.745-5.213
	c0.141,0.543,0.313,1.264,0.474,2.078c0.123,0.619,0.939,0.776,1.285,0.247c1.496-2.3,5.54-4.404,7.418-5.293
	c-0.019,0.648-0.06,1.537-0.157,2.522c-0.063,0.656,0.73,1.035,1.2,0.571c2.009-1.991,6.337-3.471,8.171-4.032
	c-0.009,0.563-0.064,1.339-0.287,2.104c-0.195,0.675,0.615,1.19,1.146,0.728c1.866-1.638,5.662-2.833,8.095-3.404
	c-0.572,2.432-1.77,6.226-3.406,8.095c-0.207,0.236-0.231,0.579-0.063,0.844c0.168,0.265,0.489,0.388,0.791,0.301
	c0.762-0.221,1.539-0.279,2.104-0.284C55.204,26.549,53.725,30.872,51.732,32.883z"/>
</svg>
