<?xml version="1.0" encoding="utf-8"?>
<!-- Generator: Adobe Illustrator 16.0.0, SVG Export Plug-In . SVG Version: 6.00 Build 0)  -->
<!DOCTYPE svg PUBLIC "-//W3C//DTD SVG 1.1//EN" "http://www.w3.org/Graphics/SVG/1.1/DTD/svg11.dtd">
<svg version="1.1" id="Layer_1" xmlns="http://www.w3.org/2000/svg" xmlns:xlink="http://www.w3.org/1999/xlink" x="0px" y="0px"
	 width="72px" height="72px" viewBox="0 0 72 72" enable-background="new 0 0 72 72" xml:space="preserve">
<path fill="#444444" d="M24.35,55.037c-1.172,2.672-3.537,3.388-5.624,4.02c-0.353,0.106-0.716,0.219-1.064,0.334
	c-0.085,0.027-0.171,0.041-0.257,0.041c-0.338,0-0.654-0.215-0.767-0.554c-0.141-0.423,0.087-0.882,0.512-1.022
	c0.369-0.123,0.745-0.237,1.107-0.347c2.006-0.606,3.738-1.133,4.611-3.122c0.179-0.408,0.657-0.596,1.066-0.416
	C24.343,54.15,24.529,54.628,24.35,55.037z M59.118,16.224c0.133-0.297,0.077-0.646-0.146-0.884
	c-0.222-0.239-0.563-0.322-0.871-0.208c-0.509,0.184-1.07,0.271-1.666,0.362c-0.603,0.092-1.224,0.187-1.834,0.393
	c-0.395,0.134-0.785,0.312-1.162,0.483c-0.553,0.25-1.076,0.486-1.543,0.564c-0.771,0.129-1.451,0.115-2.107,0.1
	c-1.408-0.03-2.866-0.063-4.624,1.425c-1.663,1.41-2.749,1.464-4.909,1.57l-0.51,0.026c-2.499,0.133-3.078,1.404-3.692,2.749
	c-0.184,0.402-0.373,0.818-0.631,1.258c-0.502,0.856-0.567,0.864-1.655,0.986c-0.107,0.012-0.209,0.023-0.307,0.032
	c-0.968,0.098-1.882,0.191-2.53,1.617c-0.248,0.546-0.245,1.17-0.242,1.722c0.002,0.463,0.005,0.99-0.167,1.186
	c-0.129,0.149-0.412,0.225-0.74,0.313c-0.483,0.129-1.085,0.289-1.586,0.79c-0.887,0.889-0.896,1.754-0.903,2.518
	c-0.002,0.245-0.004,0.498-0.034,0.765c-0.078,0.718-0.165,0.775-0.648,1.085c-0.218,0.139-0.489,0.314-0.795,0.573
	c-0.664,0.56-1.474,1.608-1.736,2.527c-0.216,0.754-0.106,1.405-0.009,1.981c0.065,0.385,0.126,0.747,0.086,1.122
	c-0.049,0.465-0.259,0.742-0.656,1.229c-0.192,0.235-0.41,0.502-0.61,0.823c-0.741,1.187-0.652,2.291-0.485,3.409
	c0.104,0.691,0.266,1.338,0.423,1.961c0.337,1.344,0.629,2.504,0.272,3.768c-0.121,0.432,0.129,0.877,0.559,0.999
	c0.43,0.122,0.877-0.13,0.998-0.56c0.475-1.68,0.101-3.165-0.26-4.602c-0.147-0.586-0.3-1.193-0.392-1.807
	c-0.159-1.059-0.16-1.645,0.257-2.313c0.146-0.234,0.314-0.439,0.491-0.658c0.427-0.521,0.91-1.114,1.013-2.08
	c0.062-0.594-0.024-1.108-0.101-1.561c-0.081-0.484-0.146-0.867-0.031-1.269c0.143-0.503,0.704-1.297,1.224-1.735
	c0.227-0.191,0.43-0.322,0.627-0.449c0.736-0.475,1.23-0.889,1.381-2.27c0.039-0.347,0.041-0.655,0.044-0.927
	c0.007-0.664,0.009-0.968,0.429-1.388c0.193-0.193,0.502-0.275,0.859-0.371c0.485-0.129,1.088-0.291,1.542-0.811
	c0.574-0.659,0.569-1.547,0.566-2.26c-0.002-0.403-0.005-0.82,0.097-1.042c0.264-0.581,0.373-0.592,1.22-0.678
	c0.103-0.01,0.211-0.021,0.325-0.035c1.421-0.159,2.037-0.353,2.869-1.775c0.3-0.512,0.516-0.985,0.705-1.404
	c0.574-1.256,0.787-1.724,2.31-1.805l0.504-0.025c2.283-0.113,3.793-0.189,5.875-1.952c1.29-1.092,2.233-1.07,3.543-1.042
	c0.697,0.015,1.488,0.031,2.409-0.123c0.676-0.112,1.32-0.405,1.943-0.686c0.358-0.162,0.697-0.316,1.017-0.424
	c0.476-0.162,1-0.242,1.558-0.326c0.049-0.008,0.101-0.015,0.151-0.023c-0.714,1.259-1.364,2.589-0.638,4.464
	c0.088,0.228,0.183,0.435,0.275,0.635c0.307,0.658,0.459,1.028,0.309,1.583c-0.09,0.332-0.327,0.59-0.627,0.915
	c-0.313,0.342-0.668,0.731-0.897,1.279c-0.495,1.188-0.088,2.278,0.24,3.154c0.383,1.027,0.498,1.497,0.084,2.024
	c-0.155,0.197-0.445,0.375-0.754,0.563c-0.457,0.279-0.976,0.595-1.365,1.137c-0.733,1.02-0.616,1.773-0.513,2.438
	c0.037,0.233,0.07,0.456,0.07,0.706c0,0.76-0.308,0.953-1.199,1.396c-0.532,0.264-1.135,0.563-1.625,1.117
	c-0.678,0.761-0.858,1.453-0.99,1.961c-0.156,0.596-0.193,0.738-1.098,0.941c-1.569,0.354-1.981,0.959-2.356,2.482l-0.054,0.22
	c-0.271,1.119-0.271,1.119-1.256,1.378l-0.215,0.055c-1.324,0.344-1.943,0.558-2.723,2.043c-0.209,0.396-0.324,0.776-0.426,1.112
	c-0.205,0.675-0.291,0.896-0.734,1.062c-0.291,0.109-0.66,0.123-1.052,0.137c-0.493,0.02-1.052,0.039-1.604,0.256
	c-0.933,0.365-1.381,1.105-1.742,1.702c-0.447,0.737-0.631,0.978-1.224,0.97c-0.363-0.004-0.726-0.104-1.11-0.208
	c-0.952-0.263-2.256-0.62-3.356,0.982c-0.226,0.327-0.368,0.633-0.482,0.878c-0.236,0.506-0.278,0.598-0.773,0.684
	c-0.586,0.104-1.519-0.076-1.844-0.289c-0.373-0.248-0.875-0.143-1.12,0.23c-0.246,0.373-0.142,0.875,0.231,1.119
	c0.55,0.361,1.497,0.587,2.343,0.587c0.234,0,0.46-0.017,0.664-0.054c1.326-0.231,1.678-0.987,1.961-1.595
	c0.102-0.22,0.2-0.428,0.349-0.646c0.432-0.629,0.667-0.592,1.593-0.338c0.445,0.123,0.95,0.262,1.525,0.267
	c0.011,0,0.022,0,0.033,0c1.53,0,2.142-1.011,2.588-1.751c0.324-0.537,0.544-0.874,0.947-1.032c0.299-0.116,0.676-0.131,1.076-0.146
	c0.479-0.018,1.021-0.037,1.559-0.237c1.213-0.454,1.492-1.369,1.716-2.106c0.089-0.293,0.173-0.568,0.312-0.832
	c0.479-0.912,0.594-0.943,1.693-1.228l0.219-0.058c1.842-0.481,2.073-1.133,2.42-2.562l0.053-0.215
	c0.269-1.092,0.32-1.103,1.144-1.289c1.724-0.389,2.063-1.187,2.306-2.112c0.111-0.424,0.215-0.824,0.635-1.295
	c0.281-0.318,0.697-0.524,1.136-0.744c0.886-0.439,2.099-1.043,2.099-2.845c-0.002-0.375-0.049-0.683-0.092-0.955
	c-0.083-0.538-0.118-0.762,0.229-1.243c0.199-0.275,0.537-0.481,0.896-0.701c0.397-0.242,0.847-0.516,1.183-0.942
	c1.018-1.293,0.541-2.568,0.158-3.592c-0.275-0.734-0.511-1.366-0.261-1.965c0.119-0.286,0.34-0.528,0.599-0.807
	c0.375-0.41,0.801-0.874,0.993-1.585c0.313-1.151-0.083-2.003-0.399-2.689c-0.086-0.183-0.168-0.358-0.236-0.536
	c-0.494-1.282-0.029-2.097,0.676-3.329C58.629,17.186,58.887,16.735,59.118,16.224z M20.746,53.094c0.018,0,0.035,0,0.051,0.002
	c0.447-0.014,0.798-0.387,0.786-0.832c-0.013-0.438-0.372-0.787-0.809-0.787c-0.012,0-0.025,0-0.037,0
	c-0.64,0-1.776-1.178-3.379-3.498c-0.086-0.125-0.164-0.239-0.234-0.34c-0.144-0.205-0.296-0.414-0.449-0.627
	c-1.03-1.425-2.096-2.898-1.971-4.508c0.048-0.617,0.207-1.126,0.376-1.665c0.321-1.022,0.653-2.08,0.123-3.647
	c-0.628-1.856-0.605-3.051,0.083-4.124c0.146-0.228,0.395-0.455,0.659-0.694c0.328-0.299,0.701-0.637,0.968-1.073
	c0.569-0.93,0.587-1.924,0.606-2.886c0.004-0.21,0.007-0.421,0.018-0.633c0.111-2.263,0.576-3.024,2.073-3.396
	c0.239-0.058,0.406-0.066,0.568-0.074c0.833-0.04,1.201-0.332,1.707-1.359c0.192-0.389,0.342-0.748,0.487-1.096
	c0.356-0.856,0.639-1.531,1.351-2.128c0.767-0.644,1.677-1.059,2.639-1.499c0.501-0.229,1.018-0.466,1.525-0.74
	c0.958-0.52,1.64-1.231,2.301-1.919c0.027-0.027,0.054-0.056,0.081-0.084c0.373,0.807,0.983,1.64,1.477,2.314
	c0.165,0.225,0.37,0.503,0.414,0.587c0.599,1.147,0.983,2.633,1.111,4.298c0.034,0.445,0.422,0.778,0.869,0.744
	c0.445-0.034,0.778-0.424,0.744-0.869c-0.102-1.312-0.407-3.23-1.29-4.921c-0.092-0.179-0.25-0.397-0.543-0.795
	c-0.972-1.328-1.475-2.186-1.495-2.556c0.277-0.281,0.313-0.731,0.067-1.056c-0.27-0.355-0.778-0.426-1.133-0.155
	c-0.001,0.001-0.003,0.001-0.004,0.002c-0.552,0.42-1.016,0.903-1.464,1.37c-0.6,0.626-1.168,1.216-1.904,1.616
	c-0.459,0.248-0.928,0.463-1.427,0.691c-1.017,0.463-2.07,0.946-3.006,1.73c-1.014,0.849-1.416,1.813-1.804,2.745
	c-0.135,0.325-0.275,0.66-0.444,1.003c-0.13,0.265-0.21,0.393-0.253,0.454c-0.026,0.002-0.055,0.003-0.08,0.004
	c-0.194,0.011-0.487,0.023-0.88,0.122c-2.859,0.707-3.202,2.893-3.3,4.886c-0.011,0.229-0.016,0.456-0.02,0.682
	c-0.015,0.813-0.028,1.515-0.368,2.07c-0.146,0.24-0.405,0.474-0.677,0.722c-0.315,0.287-0.671,0.61-0.933,1.018
	c-1.222,1.909-0.813,3.86-0.252,5.517c0.361,1.067,0.153,1.729-0.134,2.646c-0.18,0.572-0.384,1.222-0.446,2.023
	c-0.171,2.201,1.127,3.997,2.273,5.581c0.15,0.206,0.297,0.409,0.437,0.608c0.067,0.097,0.144,0.207,0.227,0.328
	C17.434,50.93,19.069,53.094,20.746,53.094z M29.016,46.023c-0.1,0.148-0.191,0.287-0.299,0.445
	c-1.089,1.613-2.444,3.62-2.672,5.157c-0.066,0.442,0.239,0.854,0.681,0.919c0.041,0.006,0.08,0.01,0.12,0.01
	c0.395,0,0.74-0.289,0.8-0.689c0.161-1.088,1.281-2.808,2.197-4.168c0.016,0,0.031,0,0.048-0.002
	c0.445-0.043,0.771-0.438,0.728-0.883c-0.002-0.022,0-0.046-0.001-0.068c1.604-2.392,6.661-2.235,8.923-1.303
	c0.412,0.17,0.885-0.025,1.055-0.438c0.172-0.413-0.025-0.886-0.438-1.058c-1.836-0.756-5.099-1.121-7.718-0.305
	c0.807-1.27,1.844-2.845,3.098-4.598c2.921-2.56,6.988-2.016,10.579-1.533c0.443,0.061,0.849-0.252,0.908-0.693
	c0.061-0.443-0.25-0.85-0.692-0.91c-2.626-0.353-5.701-0.761-8.503,0.08c0.84-1.07,1.746-2.171,2.723-3.286
	c2.501-2.297,6.527-3.449,10.104-2.858c0.443,0.071,0.857-0.227,0.93-0.667c0.073-0.441-0.225-0.858-0.666-0.93
	c-2.198-0.363-4.547-0.127-6.697,0.57c2.021-1.981,4.248-3.917,6.691-5.677c0.363-0.26,0.445-0.766,0.184-1.129
	c-0.261-0.363-0.767-0.445-1.129-0.184c-2.136,1.538-4.105,3.205-5.924,4.917c0.168-0.671,0.252-1.39,0.164-2.194
	c-0.048-0.445-0.447-0.766-0.893-0.717c-0.443,0.048-0.766,0.448-0.717,0.892c0.139,1.271-0.277,2.245-0.805,3.476
	c-0.102,0.236-0.203,0.475-0.303,0.722c-0.055,0.132-0.059,0.268-0.043,0.401c-0.711,0.745-1.393,1.49-2.044,2.232
	c-0.038,0.035-0.082,0.064-0.119,0.099c-0.06,0.057-0.097,0.126-0.135,0.195c-0.567,0.652-1.11,1.298-1.631,1.937
	c0.026-0.652-0.065-1.258-0.152-1.799c-0.073-0.444-0.142-0.863-0.142-1.276c0.002-0.448-0.358-0.81-0.806-0.811H36.42
	c-0.446,0-0.809,0.361-0.809,0.808c-0.002,0.545,0.082,1.052,0.162,1.541c0.097,0.594,0.19,1.157,0.12,1.736
	c-0.102,0.855-0.464,1.768-0.814,2.653c-0.078,0.196-0.154,0.398-0.231,0.6c-1.445,1.969-2.631,3.75-3.552,5.189
	c0.024-1.569-0.34-3.635-0.874-4.887c-0.176-0.412-0.651-0.604-1.063-0.428c-0.41,0.174-0.602,0.648-0.427,1.062
	c0.399,0.937,0.797,2.876,0.745,4.374c-0.019,0.559-0.165,1.12-0.319,1.717C29.212,44.829,29.071,45.41,29.016,46.023z"/>
</svg>
