<?xml version="1.0" encoding="utf-8"?>
<!-- Generator: Adobe Illustrator 16.0.0, SVG Export Plug-In . SVG Version: 6.00 Build 0)  -->
<!DOCTYPE svg PUBLIC "-//W3C//DTD SVG 1.1//EN" "http://www.w3.org/Graphics/SVG/1.1/DTD/svg11.dtd">
<svg version="1.1" id="Layer_1" xmlns="http://www.w3.org/2000/svg" xmlns:xlink="http://www.w3.org/1999/xlink" x="0px" y="0px"
	 width="72px" height="72px" viewBox="0 0 72 72" enable-background="new 0 0 72 72" xml:space="preserve">
<path fill="#444444" d="M60.475,32.589c-0.561-1.006-1.406-1.516-2.51-1.516c-0.572,0-1.087,0.137-1.4,0.219
	c-0.633,0.169-1.301,0.469-1.963,0.767c-0.539,0.241-1.047,0.468-1.418,0.563c-0.309,0.08-0.497,0.369-0.481,0.675
	c-0.104-0.066-0.218-0.112-0.345-0.112c-0.145,0-0.282,0.047-0.397,0.135c-0.049,0.037-0.082,0.086-0.118,0.134
	c-0.035-0.029-0.073-0.051-0.113-0.072c-0.014-0.007-0.025-0.014-0.039-0.02c-0.081-0.036-0.167-0.062-0.26-0.062
	c-0.07,0-0.142,0.012-0.207,0.034c-0.211,0.069-0.422,0.111-0.634,0.14c-1.132-0.318-2.984-2.708-3.756-3.976
	c-1.617-2.66-3.069-4.757-4.903-6.348c-2.117-1.838-4.582-2.804-7.536-2.954c-0.421-0.021-0.836-0.031-1.246-0.031
	c-3.748,0-7.036,0.896-9.774,2.666c-1.978,1.279-3.207,2.951-4.41,4.588c-0.597,0.81-1.216,1.644-1.925,2.431
	c-1.076,0.793-2.55,1.947-3.814,2.938c-0.866,0.679-1.682,1.317-2.208,1.713c-0.218,0.164-0.305,0.438-0.242,0.688
	c-0.025,0.155-0.013,0.332,0.056,0.461c2.185,4.124,6.319,6.942,9.774,8.686c-0.141,1.426,1.357,3.705,2.207,4.516
	c0.341,0.322,0.859,0.752,1.427,0.752c0.119,0,0.239-0.019,0.354-0.057c0.769-0.253,0.957-1.195,1.11-2.052
	c0.045,0.386,0.114,0.843,0.384,1.269c0.696,1.092,2.259,1.622,3.316,1.982c1.517,0.514,3.545,1.105,5.765,1.105
	c0.631,0,1.258-0.047,1.863-0.143c4.381-0.705,7.324-2.078,9.549-4.451c0.755-0.808,1.111-1.896,1.025-3.148
	c-0.023-0.365-0.186-0.737-0.359-1.135c-0.346-0.792-0.728-1.688-0.146-2.738c1.054-0.753,2.12-1.275,3.148-1.275
	c0.188,0,0.374,0.022,0.555,0.058c0.032,0.04,0.058,0.083,0.099,0.116c0.12,0.095,0.241,0.154,0.346,0.202
	c0.02,0.226,0.145,0.438,0.363,0.541c0.484,0.229,1.181,0.606,1.947,1.022c0.909,0.492,1.852,1.002,2.494,1.283
	c0.45,0.197,0.889,0.297,1.303,0.297c1.158,0,2.016-0.758,2.699-1.502C62.043,38.824,61.83,35.022,60.475,32.589z M47.152,32.211
	c-0.582-0.464-1.16-1.012-1.752-1.575c-0.479-0.455-0.975-0.926-1.465-1.33c-0.305-0.251-0.623-0.492-0.949-0.725
	c0.199-0.334,0.703-0.806,1.068-0.982c0.561,0.811,1.104,1.676,1.656,2.583C45.76,30.263,46.336,31.2,47.152,32.211z M43.272,26.527
	c-0.457,0.271-0.882,0.673-1.136,0.986c-0.097,0.12-0.176,0.236-0.247,0.352c-0.46-0.279-0.938-0.538-1.431-0.781
	c0.005-0.049,0.008-0.097,0.007-0.134c-0.026-0.662,0.813-1.741,1.505-1.95C42.424,25.472,42.855,25.983,43.272,26.527z
	 M38.382,22.427c-1.086,0.817-1.763,1.911-1.982,3.16c-0.309-0.08-0.617-0.158-0.932-0.225c-0.308-0.065-0.619-0.119-0.93-0.172
	c0.068-1.048,0.622-2.57,1.285-3.51C36.758,21.837,37.607,22.088,38.382,22.427z M39.54,23.165c0.037-0.022,0.063-0.057,0.094-0.085
	c0.489,0.302,0.949,0.642,1.386,1.015c-0.846,0.511-1.561,1.498-1.787,2.433c-0.5-0.207-1.012-0.397-1.536-0.567
	C37.85,24.841,38.453,23.834,39.54,23.165z M33.152,21.482c0.386,0,0.779,0.009,1.176,0.03c0.017,0.001,0.033,0.003,0.05,0.004
	c-0.562,0.999-1.047,2.339-1.145,3.488c-0.598-0.067-1.198-0.11-1.801-0.132c-0.183-1.051-0.201-2.469,0.285-3.338
	C32.188,21.502,32.664,21.482,33.152,21.482z M25.273,25.489c-0.137-0.678-0.016-1.634,0.329-2.192
	c0.047-0.076,0.076-0.158,0.088-0.241c0.452-0.216,0.913-0.416,1.392-0.587c-0.237,0.855-0.389,1.813-0.249,2.707
	c-0.229,0.038-0.464,0.056-0.691,0.101C25.851,25.333,25.562,25.41,25.273,25.489z M28.137,24.985
	c-0.163-1.011,0.217-2.273,0.463-2.966c0.532-0.132,1.078-0.239,1.638-0.322c-0.344,1.16-0.248,2.448-0.14,3.175
	C29.44,24.886,28.785,24.917,28.137,24.985z M23.98,24.014c-0.115,0.618-0.131,1.289,0.016,1.885
	c-0.442,0.166-0.877,0.357-1.31,0.558c-0.021-0.589,0.02-1.146,0.325-1.507c0.076-0.091,0.115-0.2,0.134-0.313
	C23.407,24.42,23.683,24.211,23.98,24.014z M21.402,27.104c-0.33,0.178-0.655,0.36-0.976,0.548c0.308-0.415,0.617-0.822,0.941-1.216
	C21.374,26.667,21.388,26.892,21.402,27.104z M24.419,47.21c-0.046,0.253-0.111,0.613-0.184,0.854l-0.062,0.203l-0.171-0.127
	c-0.075-0.055-0.169-0.133-0.284-0.244c-0.669-0.636-1.497-2.012-1.742-2.902c1.044,0.472,1.969,0.828,2.703,1.086
	C24.565,46.413,24.492,46.795,24.419,47.21z M46.046,43.516c0.14,0.319,0.238,0.555,0.248,0.684c0.041,0.611-0.043,1.484-0.675,2.16
	c-2.012,2.147-4.727,3.396-8.799,4.051c-0.546,0.088-1.086,0.13-1.652,0.13c-1.563,0-3.26-0.329-5.367-1.047
	c-0.807-0.275-2.158-0.733-2.605-1.435c-0.131-0.205-0.163-0.498-0.198-0.81c-0.016-0.136-0.033-0.28-0.059-0.428
	C29.294,47.547,31.349,48,33.283,48h0.068c0.353,0,0.699-0.017,1.042-0.043c0.016,0.517,0.188,1.037,0.544,1.456
	c0.126,0.147,0.308,0.231,0.501,0.231c0.158,0,0.306-0.055,0.427-0.156c0.275-0.236,0.308-0.652,0.074-0.928
	c-0.189-0.222-0.277-0.509-0.249-0.767c0.702-0.123,1.382-0.3,2.039-0.528c0.037,0.246,0.088,0.477,0.159,0.695
	c0.088,0.271,0.34,0.453,0.625,0.453c0.069,0,0.139-0.012,0.204-0.033c0.345-0.111,0.533-0.484,0.421-0.829
	c-0.075-0.232-0.113-0.505-0.136-0.807c0.504-0.232,0.998-0.489,1.479-0.777c0.122,0.626,0.348,1.213,0.683,1.702
	c0.124,0.18,0.327,0.285,0.543,0.285c0.135,0,0.264-0.039,0.373-0.114c0.145-0.1,0.242-0.25,0.273-0.423
	c0.031-0.174-0.006-0.348-0.105-0.493c-0.431-0.628-0.532-1.324-0.552-1.776c0.44-0.346,0.901-0.806,1.382-1.299
	c0.126,0.466,0.313,0.944,0.57,1.411c0.115,0.212,0.336,0.343,0.578,0.343c0.107,0,0.217-0.029,0.314-0.082
	c0.318-0.174,0.436-0.576,0.262-0.893c-0.349-0.636-0.564-1.334-0.58-1.865c0-0.014-0.008-0.024-0.009-0.038
	c0.418-0.396,0.844-0.797,1.279-1.185C45.54,42.332,45.827,43.016,46.046,43.516z M46.31,39.201
	c-0.049,0.023-0.085,0.061-0.126,0.095c-1.107,0.81-2.157,1.794-3.104,2.69c-0.852,0.807-1.657,1.57-2.346,2.051
	c-2.137,1.492-4.633,2.249-7.42,2.249c-3.01,0-5.965-0.884-7.925-1.55c-2.951-1.003-10.043-3.91-13.204-9.473
	c0.504-0.386,1.153-0.894,1.875-1.46c1.577-1.235,3.736-2.928,4.664-3.537c2.306-1.513,4.99-3.173,7.673-3.701
	c1.343-0.263,2.736-0.397,4.143-0.397c4.172,0,8.184,1.15,11.262,3.193c0.043,0.042,0.093,0.074,0.146,0.103
	c0.399,0.271,0.786,0.553,1.151,0.854c0.455,0.376,0.914,0.812,1.418,1.29c1.506,1.434,3.383,3.218,5.647,3.217
	c0.092,0,0.185-0.017,0.277-0.023c0.012,0.002,0.024,0.008,0.036,0.01c0.109,0.018,0.215,0.027,0.321,0.027
	c0.392,0,0.741-0.125,1.043-0.372c0.003-0.002,0.005-0.006,0.008-0.009c0.026-0.022,0.043-0.052,0.065-0.079
	c0.393,0.593,0.576,1.41,0.464,2.192c-0.078,0.537-0.287,1.016-0.603,1.39c-0.042-0.028-0.081-0.062-0.131-0.079
	c-0.451-0.16-0.92-0.24-1.395-0.24C48.901,37.643,47.569,38.301,46.31,39.201z M57.354,41.172c-0.229,0-0.467-0.059-0.771-0.193
	c-0.602-0.264-1.527-0.766-2.424-1.25c-0.537-0.292-1.05-0.568-1.491-0.795c0.09-0.097,0.165-0.205,0.244-0.312l4.205,1.179
	c0.056,0.016,0.114,0.023,0.178,0.023c0.294,0,0.554-0.197,0.634-0.479c0.047-0.171,0.026-0.349-0.061-0.5
	c-0.086-0.154-0.227-0.264-0.396-0.311l-3.948-1.108c0.018-0.059,0.027-0.121,0.043-0.181c1.444,0.019,2.752,0.114,4.015,0.21
	l0.156,0.01c0.342,0,0.629-0.266,0.654-0.606c0.027-0.361-0.244-0.678-0.604-0.707l-0.106-0.008
	c-1.186-0.092-2.516-0.188-3.959-0.212c-0.004-0.112-0.022-0.22-0.034-0.331l3.368-0.515c0.174-0.027,0.325-0.119,0.43-0.261
	c0.104-0.141,0.146-0.315,0.119-0.489c-0.047-0.319-0.326-0.558-0.646-0.558c-0.034,0-0.066,0.002-0.102,0.008l-3.488,0.533
	c-0.064-0.153-0.143-0.294-0.223-0.437c0.063,0.021,0.131,0.034,0.201,0.034c0.057,0,0.111-0.007,0.164-0.021
	c0.489-0.126,1.076-0.389,1.674-0.657c0.59-0.264,1.201-0.537,1.721-0.674c0.438-0.117,0.793-0.174,1.087-0.174
	c0.762,0,1.092,0.402,1.334,0.838c0.029,0.052,0.05,0.113,0.078,0.167l-0.692,0.106c-0.359,0.055-0.607,0.392-0.552,0.749
	c0.049,0.319,0.329,0.559,0.649,0.559c0.033,0,0.066-0.003,0.101-0.008l0.987-0.15c0.155,0.539,0.25,1.103,0.283,1.674
	c-0.22-0.008-0.455-0.018-0.712-0.033c-0.346,0-0.634,0.292-0.655,0.638c-0.012,0.176,0.047,0.391,0.164,0.521
	c0.115,0.131,0.275,0.296,0.451,0.307c0.234,0.015,0.457,0.072,0.671,0.127c-0.08,0.45-0.216,0.876-0.406,1.271l-0.774-0.218
	c-0.059-0.016-0.117-0.023-0.178-0.023c-0.293,0-0.555,0.197-0.633,0.48c-0.047,0.168-0.026,0.346,0.059,0.498
	c0.086,0.154,0.229,0.265,0.398,0.313l0.314,0.088C58.279,40.9,57.819,41.172,57.354,41.172z M22.138,30.748
	c0.91,0.872,1.884,4.057,1.674,5.565c-0.313,2.25-2.063,4.475-4.067,4.846c-0.039,0.006-0.081,0.01-0.121,0.01
	c-0.317,0-0.588-0.226-0.646-0.538c-0.032-0.173,0.005-0.348,0.105-0.492s0.249-0.242,0.421-0.272
	c1.542-0.285,2.738-2.33,2.87-3.803c0.125-1.396-0.604-3.845-1.147-4.367c-0.262-0.251-0.27-0.668-0.019-0.931
	c0.125-0.13,0.293-0.201,0.474-0.201C21.853,30.564,22.015,30.629,22.138,30.748z M31.388,35.654
	c-0.262-0.159-0.571-0.24-0.919-0.24c-1.47,0-3.471,1.441-5.233,2.852c-0.129,0.103-0.239,0.19-0.296,0.232
	c-0.198,0.148-0.296,0.393-0.256,0.634c0.041,0.245,0.211,0.444,0.444,0.521c0.522,0.17,1.135,0.636,1.727,1.086
	c0.855,0.65,1.739,1.324,2.704,1.447c0.113,0.015,0.227,0.021,0.338,0.021c0.916,0,1.734-0.506,2.304-1.428
	c0.573-0.926,0.774-2.155,0.523-3.209C32.524,36.729,32.062,36.066,31.388,35.654z M31.082,40.088
	c-0.473,0.764-0.962,0.803-1.199,0.803c-0.012,0-0.115-0.005-0.155-0.011c-0.613-0.079-1.352-0.639-2.077-1.188
	c-0.302-0.231-0.61-0.465-0.922-0.674L26.555,38.9l0.166-0.127c1.796-1.375,3.022-2.045,3.748-2.045
	c0.103,0,0.182,0.018,0.231,0.047c0.375,0.229,0.625,0.6,0.744,1.101C31.613,38.59,31.471,39.458,31.082,40.088z M17.96,36.311
	c0.22,0.267,0.196,0.66-0.053,0.897c-0.343,0.33-0.546,0.451-1.008,0.451h-0.066v0.001c-0.262-0.008-0.494-0.167-0.594-0.405
	c-0.157-0.375-0.212-0.904,0.416-1.296c0.177-0.121,0.309-0.164,0.446-0.164c0.156,0,0.307,0.056,0.426,0.155
	c0.066,0.045,0.105,0.077,0.139,0.111C17.757,36.125,17.865,36.195,17.96,36.311z M16.17,34.214
	c-0.155-0.376-0.209-0.906,0.417-1.296c0.176-0.121,0.308-0.164,0.446-0.164c0.156,0,0.308,0.056,0.426,0.155
	c0.061,0.04,0.102,0.073,0.14,0.111c0.08,0.057,0.194,0.13,0.293,0.249c0.219,0.266,0.195,0.66-0.055,0.897
	c-0.342,0.33-0.546,0.451-1.008,0.451h-0.032v0.001C16.502,34.611,16.27,34.453,16.17,34.214z"/>
</svg>
