<?xml version="1.0" encoding="utf-8"?>
<!-- Generator: Adobe Illustrator 16.0.0, SVG Export Plug-In . SVG Version: 6.00 Build 0)  -->
<!DOCTYPE svg PUBLIC "-//W3C//DTD SVG 1.1//EN" "http://www.w3.org/Graphics/SVG/1.1/DTD/svg11.dtd">
<svg version="1.1" id="Layer_1" xmlns="http://www.w3.org/2000/svg" xmlns:xlink="http://www.w3.org/1999/xlink" x="0px" y="0px"
	 width="72px" height="72px" viewBox="0 0 72 72" enable-background="new 0 0 72 72" xml:space="preserve">
<path fill="#444444" d="M58.646,44.459c0-0.243-0.123-0.471-0.326-0.605c-0.163-0.109-3.813-2.52-7.928-2.843
	c0.213-0.756,0.539-1.351,1.045-1.934c0.406-0.472,0.069-1.207-0.554-1.207c-4.237,0-6.64,1.202-8.366,1.019
	c-0.83-0.09-1.098-1.162-0.422-1.66c4.2-3.104,7.871-1.853,13.045-7.025c0.451-0.452,0.141-1.229-0.498-1.246
	c-1.039-0.027-1.896-0.252-2.803-0.754c3.568-4.217,3.915-10.831,3.93-11.125c0.008-0.205-0.068-0.404-0.213-0.55
	c-0.146-0.145-0.345-0.225-0.552-0.213c-0.293,0.013-6.907,0.36-11.124,3.929c-0.503-0.905-0.729-1.763-0.754-2.802
	c-0.018-0.64-0.794-0.951-1.247-0.498c-3.037,3.038-3.86,5.561-4.659,8.001c-0.555,1.7-1.081,3.306-2.363,5.043
	c-0.282,0.382-0.701,0.43-1.001,0.35c-0.14-0.038-0.599-0.205-0.659-0.772c-0.082-0.758,0.104-1.646,0.342-2.771
	c0.301-1.436,0.676-3.22,0.676-5.594c0-0.285-0.167-0.544-0.427-0.664c-0.26-0.118-0.563-0.075-0.78,0.111
	c-0.584,0.505-1.178,0.831-1.934,1.045c-0.324-4.116-2.733-7.765-2.842-7.93c-0.29-0.432-0.926-0.432-1.214,0
	c-0.11,0.165-2.52,3.813-2.843,7.93c-0.757-0.214-1.351-0.54-1.934-1.045c-0.197-0.169-0.471-0.223-0.716-0.138
	c-0.246,0.086-0.428,0.295-0.479,0.55c-1.604,8.205,5.192,8.489,6.268,14.732c0.129,0.751-0.663,1.336-1.312,0.981
	c-0.783-0.428-1.153-1.181-1.545-1.976c-0.992-2.013-1.506-2.449-4.586-3.18c-1.766-0.418-3.433-0.813-4.571-2.573
	c-0.311-0.48-1.039-0.434-1.278,0.095c-0.054,0.119-1.304,2.937-0.163,5.82c0.634,1.608,1.87,2.897,3.679,3.845
	c-0.469,0.387-1.171,0.828-2.053,1c-0.573,0.11-0.79,0.819-0.377,1.232c4.84,4.84,9.77,2.201,12.043,2.863L13.598,57.455
	c-0.284,0.285-0.284,0.748,0,1.031c0.284,0.287,0.748,0.287,1.032,0l13.556-13.555c0.663,2.271-1.978,7.203,2.863,12.045
	c0.412,0.412,1.121,0.194,1.232-0.379c0.172-0.883,0.614-1.584,1-2.053c1.498,2.862,3.809,4.157,6.434,4.157
	c1.784,0,3.146-0.604,3.229-0.642c0.525-0.238,0.58-0.965,0.096-1.278c-1.762-1.14-2.155-2.806-2.573-4.571
	c-0.728-3.07-1.161-3.591-3.18-4.586c-0.793-0.393-1.545-0.762-1.973-1.545c-0.354-0.65,0.232-1.439,0.981-1.311
	c6.233,1.071,6.536,7.869,14.729,6.267c0.552-0.108,0.777-0.771,0.414-1.194c-0.506-0.584-0.832-1.178-1.045-1.934
	c4.115-0.324,7.765-2.732,7.928-2.844C58.523,44.93,58.646,44.702,58.646,44.459z M49.493,46.484c-0.216,0-0.419,0.096-0.558,0.259
	c-0.14,0.165-0.199,0.381-0.164,0.593c0.162,0.956,0.42,1.732,0.826,2.438c-6.193,0.588-6.563-5.324-13.057-6.441
	c-1.951-0.335-3.45,1.729-2.51,3.45c0.649,1.188,1.691,1.702,2.612,2.155c1.521,0.75,1.756,0.887,2.4,3.61
	c0.359,1.515,0.757,3.192,2.081,4.55c-2.942,0.604-5.492-0.565-6.948-4.082c-0.183-0.441-0.732-0.59-1.112-0.306
	c-0.057,0.043-1.135,0.865-1.8,2.319c-3.485-4.396-0.438-8.563-1.974-11.202l3.158-3.158c1.296-0.63,2.918-0.649,4.47-0.051
	c0.374,0.146,0.796-0.041,0.941-0.417c0.146-0.376-0.041-0.799-0.416-0.944c-1.009-0.391-2.051-0.565-3.053-0.528l12.197-12.2
	c0.285-0.285,0.285-0.747,0-1.033c-0.284-0.284-0.748-0.284-1.032,0L33.358,37.695c0.037-1.002-0.139-2.044-0.529-3.055
	c-0.146-0.377-0.569-0.563-0.944-0.417c-0.376,0.145-0.563,0.567-0.417,0.943c0.6,1.552,0.578,3.174-0.051,4.471l-3.158,3.158
	c-2.641-1.536-6.806,1.512-11.204-1.973c1.455-0.666,2.278-1.744,2.321-1.803c0.285-0.381,0.135-0.93-0.306-1.11
	c-3.505-1.453-4.681-3.985-4.078-6.946c1.355,1.321,3.031,1.718,4.546,2.077c2.719,0.644,2.858,0.876,3.611,2.402
	c0.453,0.92,0.967,1.962,2.155,2.613c1.722,0.94,3.785-0.562,3.45-2.512c-1.117-6.492-7.028-6.862-6.441-13.058
	c0.702,0.404,1.479,0.664,2.437,0.824c0.445,0.075,0.851-0.269,0.851-0.72c0-2.781,1.247-5.533,2.025-6.979
	c0.777,1.445,2.025,4.198,2.025,6.979c0,0.45,0.404,0.795,0.85,0.72c0.854-0.144,1.563-0.364,2.206-0.697
	c-0.228,3.29-1.16,5.25-0.961,7.106c0.233,2.177,3.009,2.864,4.286,1.135c3.062-4.146,2.178-7.463,5.839-11.754
	c0.221,0.917,0.626,1.775,1.256,2.688c0.26,0.376,0.795,0.423,1.117,0.102c2.969-2.969,8.005-3.817,9.99-4.042
	c-0.226,1.984-1.073,7.021-4.043,9.99c-0.321,0.322-0.272,0.858,0.103,1.117c0.913,0.63,1.771,1.034,2.688,1.256
	c-4.295,3.663-7.605,2.776-11.754,5.841c-1.73,1.279-1.041,4.055,1.133,4.287c1.857,0.199,3.816-0.732,7.107-0.961
	c-0.332,0.643-0.555,1.352-0.697,2.205c-0.074,0.445,0.27,0.852,0.721,0.852c2.781,0,5.533,1.246,6.979,2.024
	C55.025,45.236,52.273,46.484,49.493,46.484z"/>
</svg>
