<?xml version="1.0" encoding="utf-8"?>
<!-- Generator: Adobe Illustrator 16.0.0, SVG Export Plug-In . SVG Version: 6.00 Build 0)  -->
<!DOCTYPE svg PUBLIC "-//W3C//DTD SVG 1.1//EN" "http://www.w3.org/Graphics/SVG/1.1/DTD/svg11.dtd">
<svg version="1.1" id="Layer_1" xmlns="http://www.w3.org/2000/svg" xmlns:xlink="http://www.w3.org/1999/xlink" x="0px" y="0px"
	 width="72px" height="72px" viewBox="0 0 72 72" enable-background="new 0 0 72 72" xml:space="preserve">
<path fill="#444444" d="M36.094,14.05l-0.398,0.002C23.512,14.27,13.774,24.358,13.99,36.541
	c0.213,11.966,10.122,21.704,22.09,21.705l0.399-0.003c5.902-0.104,11.41-2.502,15.509-6.749c4.1-4.248,6.299-9.838,6.193-15.737
	C57.971,23.787,48.063,14.05,36.094,14.05z M50.857,50.402c-3.81,3.943-8.926,6.171-14.406,6.268l-0.372,0.003
	c-11.116,0-20.319-9.045-20.517-20.159c-0.2-11.315,8.844-20.687,20.161-20.888l0.371-0.003c11.117-0.001,20.32,9.044,20.515,20.162
	C56.707,41.264,54.664,46.456,50.857,50.402z M35.898,22.701H35.79c-0.956,0.017-1.861,0.257-2.551,0.676
	c-0.81,0.493-1.267,1.209-1.254,1.966c0.024,1.428,1.65,2.505,3.784,2.505l0.111-0.001c2.158-0.039,3.829-1.198,3.804-2.641
	C39.657,23.777,38.029,22.701,35.898,22.701z M35.852,26.274H35.77c-1.319,0-2.205-0.577-2.211-0.959
	c-0.004-0.177,0.186-0.405,0.496-0.593c0.449-0.273,1.091-0.437,1.762-0.448l0.081-0.001c1.32,0,2.206,0.579,2.213,0.961
	C38.118,25.632,37.221,26.25,35.852,26.274z M35.613,18.361c-1.397-0.001-2.76,0.205-4.051,0.611
	c-2.91,0.915-5.071,2.745-5.932,5.021c-0.672,1.778-0.479,3.688,0.542,5.379c1.701,2.813,5.475,4.632,9.616,4.632
	c1.396,0,2.759-0.206,4.051-0.611c2.908-0.915,5.068-2.744,5.931-5.02c0.672-1.779,0.479-3.689-0.543-5.381
	C43.525,20.179,39.752,18.361,35.613,18.361z M44.297,27.816c-0.688,1.821-2.484,3.307-4.929,4.075
	c-1.14,0.358-2.343,0.539-3.579,0.539c-3.602,0-6.847-1.521-8.27-3.873c-0.777-1.287-0.922-2.673-0.417-4.009
	c0.688-1.822,2.486-3.307,4.931-4.076c1.139-0.358,2.343-0.54,3.58-0.54c3.601,0.001,6.846,1.521,8.268,3.873
	C44.658,25.093,44.803,26.48,44.297,27.816z M33.556,52.834c-0.036,0.41-0.38,0.718-0.783,0.718c-0.023,0-0.047-0.001-0.07-0.003
	c-0.384-0.035-9.448-0.951-13.444-11.516c-0.153-0.407,0.052-0.862,0.458-1.016c0.406-0.152,0.86,0.053,1.014,0.459
	c3.65,9.65,12.026,10.496,12.11,10.504C33.274,52.021,33.593,52.402,33.556,52.834z"/>
</svg>
