<?xml version="1.0" encoding="utf-8"?>
<!-- Generator: Adobe Illustrator 16.0.0, SVG Export Plug-In . SVG Version: 6.00 Build 0)  -->
<!DOCTYPE svg PUBLIC "-//W3C//DTD SVG 1.1//EN" "http://www.w3.org/Graphics/SVG/1.1/DTD/svg11.dtd">
<svg version="1.1" id="Layer_1" xmlns="http://www.w3.org/2000/svg" xmlns:xlink="http://www.w3.org/1999/xlink" x="0px" y="0px"
	 width="72px" height="72px" viewBox="0 0 72 72" enable-background="new 0 0 72 72" xml:space="preserve">
<path fill="#444444" d="M51.064,27.656c0.067-1.377-0.319-2.705-1.065-3.801c0.746-0.097,1.506-0.414,1.868-1.236
	c0.504-1.139-1.096-3.076-4.758-5.765l2.203-0.845c0.234-0.09,0.406-0.295,0.453-0.542c0.047-0.247-0.039-0.5-0.225-0.669
	c-0.162-0.147-4.001-3.59-7.168-2.55c-2.18,0.714-3.244,2.876-3.527,3.545c-0.506-0.171-1.055-0.247-1.516-0.275
	c0.331-0.958,0.814-1.761,1.529-2.139c0.354-0.187,0.486-0.625,0.299-0.978c-0.186-0.353-0.624-0.489-0.979-0.3
	c-2.797,1.483-2.975,6.39-2.933,8.312c-1.698,0.206-3.184,1.095-4.179,2.385c-1.777-1.645-4.356-2.136-6.628-1.183
	c-2.472,1.036-3.973,3.494-3.811,6.118c-2.579,0.763-4.467,3.15-4.467,5.973c0.004,2.823,1.891,5.21,4.469,5.974
	c-0.136,2.596,1.353,5.021,3.797,6.053c-0.107,0.463-0.167,0.937-0.167,1.416c0,3.401,2.742,6.172,6.132,6.227
	c-0.05,0.307-0.082,0.616-0.082,0.93c0,3.137,2.552,5.688,5.688,5.688c3.136,0,5.688-2.551,5.688-5.688
	c0-0.313-0.031-0.623-0.082-0.93c3.392-0.055,6.133-2.824,6.133-6.227c0-0.525-0.068-1.043-0.197-1.545
	c2.256-1.082,3.624-3.379,3.525-5.846c2.73-0.662,4.769-3.119,4.769-6.051C55.835,30.775,53.796,28.316,51.064,27.656z
	 M40.104,16.545c0.006-0.011,0.004-0.022,0.008-0.033c0.004-0.011,0.014-0.018,0.018-0.029c0.008-0.022,0.842-2.252,2.697-2.859
	c1.492-0.488,3.502,0.579,4.787,1.489l-2.275,0.872c-0.25,0.096-0.427,0.322-0.459,0.587c-0.031,0.266,0.084,0.528,0.305,0.681
	c2.724,1.904,5.172,4.128,5.332,4.835c-0.281,0.452-1.371,0.386-1.961,0.269c-0.396-0.292-0.83-0.544-1.302-0.742
	c-2.194-0.92-4.683-0.5-6.452,1.012c-0.447-0.542-0.99-1-1.594-1.365C39.02,18.896,40.092,16.569,40.104,16.545z M36.809,33.707
	c0-2.639,2.146-4.785,4.784-4.785s4.784,2.146,4.784,4.784c0,2.638-2.146,4.784-4.784,4.784c-0.016,0-0.03,0-0.045-0.001
	c-0.151-0.064-0.323-0.087-0.491-0.035c-0.002,0.001-0.006,0.003-0.008,0.005C38.666,38.188,36.809,36.16,36.809,33.707z
	 M40.785,40.759c0,2.638-2.146,4.784-4.785,4.784c-2.639,0-4.785-2.146-4.785-4.784c0-0.293,0.036-0.581,0.088-0.866
	c2.076-0.242,3.842-1.508,4.781-3.278c0.912,1.72,2.607,2.96,4.605,3.252C40.746,40.158,40.785,40.457,40.785,40.759z M45.598,28.94
	c-0.947-0.797-2.133-1.316-3.434-1.436c0.045-0.3,0.068-0.603,0.068-0.908c0-0.979-0.234-1.902-0.64-2.728
	c1.367-1.271,3.353-1.651,5.101-0.918c1.845,0.773,2.975,2.577,2.924,4.525c-0.004,0.001-0.008,0.001-0.014,0.001
	C48.137,27.476,46.713,28.005,45.598,28.94z M36.96,16.95c0.446,0.009,0.963,0.066,1.372,0.195
	c-0.279,0.871-0.584,2.121-0.596,3.472c-0.336-0.098-0.682-0.17-1.041-0.21C36.678,19.486,36.729,18.195,36.96,16.95z M36,21.812
	c2.639,0,4.785,2.146,4.785,4.785c0,0.323-0.044,0.641-0.107,0.954c-1.994,0.296-3.684,1.533-4.593,3.25
	c-0.937-1.768-2.697-3.03-4.767-3.277c-0.06-0.305-0.102-0.614-0.102-0.928C31.216,23.958,33.362,21.812,36,21.812z M35.361,33.706
	c0,2.508-1.941,4.569-4.399,4.767c-0.008-0.005-0.013-0.011-0.021-0.014c-0.157-0.048-0.315-0.025-0.459,0.025
	c-2.593-0.051-4.688-2.173-4.688-4.779c-0.002-2.637,2.144-4.783,4.783-4.783C33.215,28.922,35.361,31.068,35.361,33.706z
	 M25.002,22.951c1.839-0.773,3.943-0.314,5.307,1.12c-0.344,0.773-0.54,1.626-0.54,2.525c0,0.312,0.024,0.621,0.069,0.928
	c-1.273,0.151-2.427,0.687-3.347,1.489c-1.128-0.982-2.589-1.537-4.095-1.537c-0.107,0-0.212,0.011-0.318,0.016
	C22.022,25.537,23.153,23.726,25.002,22.951z M21.528,38.398c-0.015-0.002-0.029,0.004-0.045,0.002
	c-2.203-0.428-3.872-2.368-3.872-4.695c0.001-2.637,2.147-4.783,4.785-4.783c1.164,0,2.256,0.408,3.122,1.158
	c-0.735,1.023-1.173,2.273-1.173,3.626c0,1.354,0.438,2.604,1.174,3.626c-0.867,0.751-1.958,1.157-3.123,1.157
	c-0.283,0-0.559-0.028-0.829-0.075C21.552,38.411,21.542,38.4,21.528,38.398z M22.074,39.922c0.107,0.006,0.213,0.016,0.322,0.016
	c1.505,0,2.966-0.555,4.095-1.535c0.918,0.801,2.07,1.336,3.341,1.488c-0.04,0.286-0.063,0.576-0.063,0.868
	c0,0.899,0.195,1.753,0.54,2.524c-1.365,1.435-3.467,1.893-5.307,1.121C23.172,43.637,22.042,41.854,22.074,39.922z M25.708,47.148
	c0-0.346,0.049-0.684,0.121-1.017c0.341,0.058,0.684,0.093,1.026,0.093c1.545,0,3.06-0.578,4.225-1.656
	c0.999,1.285,2.484,2.172,4.181,2.373c0.003,0.068,0.016,0.138,0.016,0.207c0,2.638-2.146,4.783-4.785,4.783
	C27.853,51.932,25.708,49.786,25.708,47.148z M36,58.545c-2.339,0-4.242-1.902-4.242-4.242c0-0.371,0.056-0.738,0.151-1.092
	c1.774-0.416,3.258-1.586,4.091-3.156c0.832,1.57,2.316,2.74,4.089,3.156c0.097,0.354,0.151,0.721,0.151,1.092
	C40.241,56.643,38.34,58.545,36,58.545z M41.508,51.932c-2.639,0-4.783-2.146-4.783-4.783c0-0.068,0.012-0.138,0.016-0.207
	c1.627-0.192,3.066-1.014,4.063-2.215c1.139,0.974,2.572,1.498,4.037,1.498c0.439,0,0.883-0.051,1.318-0.145
	c0.08,0.35,0.135,0.703,0.135,1.068C46.293,49.786,44.146,51.932,41.508,51.932z M46.693,44.404
	c-1.75,0.732-3.734,0.353-5.101-0.918c0.404-0.826,0.64-1.75,0.64-2.729c0-0.285-0.025-0.568-0.063-0.851
	c1.298-0.119,2.483-0.64,3.429-1.435c1.115,0.936,2.539,1.463,4.006,1.463c0.008,0,0.013,0,0.021,0
	C49.648,41.863,48.52,43.639,46.693,44.404z M50.457,38.411c-0.094-0.021-0.191-0.026-0.29-0.011
	c-0.071,0.013-0.132,0.043-0.192,0.072c-0.123,0.01-0.246,0.019-0.371,0.019c-1.117,0-2.166-0.38-3.016-1.074
	c0.773-1.038,1.236-2.318,1.236-3.709c0-1.39-0.463-2.671-1.236-3.709c0.85-0.694,1.898-1.075,3.016-1.075
	c2.639-0.002,4.785,2.144,4.785,4.783C54.389,36.055,52.688,38.008,50.457,38.411z"/>
</svg>
