<?xml version="1.0" encoding="utf-8"?>
<!-- Generator: Adobe Illustrator 16.0.0, SVG Export Plug-In . SVG Version: 6.00 Build 0)  -->
<!DOCTYPE svg PUBLIC "-//W3C//DTD SVG 1.1//EN" "http://www.w3.org/Graphics/SVG/1.1/DTD/svg11.dtd">
<svg version="1.1" id="Layer_1" xmlns="http://www.w3.org/2000/svg" xmlns:xlink="http://www.w3.org/1999/xlink" x="0px" y="0px"
	 width="72px" height="72px" viewBox="0 0 72 72" enable-background="new 0 0 72 72" xml:space="preserve">
<path fill="#444444" d="M45.016,38.973c-0.118-1.229-1.2-1.317-1.761-0.393c-0.618,1.018-1.169,2-2.497,2.11
	c-1.004,0.084-2.974-0.798-3.143-1.931c-0.101-0.677,0.803-1.01,1.221-0.51c0.409,0.49,0.975,1.079,1.659,1.12
	c1.141,0.07,1.462-1.536,2.121-2.175c0.962-0.932,2.356-0.75,3.182,0.262c0.767,0.939,0.871,2.417-0.21,3.166
	c-0.458,0.317-1.367,0.344-1.308-0.46C44.323,39.574,45.078,39.62,45.016,38.973C44.971,38.506,45.055,39.38,45.016,38.973z
	 M49.734,37.54c-0.831-0.591-1.88-0.742-2.813-0.3c-1.066,0.504-0.512,1.906,0.396,1.308c1.794-1.184,3.551,2.173,2.56,3.571
	c-1.402,1.978-4.371-0.777-5.952,0.477c-1.297,1.028,1.197,1.118,1.551,1.156c0.798,0.087,1.733,0.552,2.479,0.532
	c-0.876,1.28-0.971,2.079-2.736,2.133c-2.127,0.065-4.305-0.511-6.407,0c0.06-0.51-0.049-1.405-0.53-1.712
	c-0.546-0.348-1.317,0.223-1.001,0.843c0.297,0.583,0.222,1.214-0.571,1.112c-0.396-0.05-0.764-0.302-1.139-0.015
	c0.416-0.318-0.454,0.416-0.238,0.415c-0.632-0.445-0.602-0.835-1.02-1.371c-0.635-0.816-1.379,0.161-1.148,0.883
	c0.234,0.734,2.323,1.916,1.979,2.555c-0.753,1.398-2.383-0.185-3.236-0.712c-0.512-0.317-0.832-0.976-1.328-1.237
	c-0.996-0.523-1.106,0.738-0.654,1.299c0.885,1.098,2.375,1.343,3.276,2.371c1.06,1.208,0.065,2.454-0.228,3.754
	c-0.157,0.699-0.268,1.431-0.564,2.089c-0.301,0.671-0.625,0.511-1.151,0.835c-0.578,0.356-0.28,1.22,0.373,1.22
	c0.552,0,1.081-0.239,1.46-0.635c0.809-0.843,0.983-2.106,1.226-3.198c0.317-1.423,0.955-2.878,1.615-4.171
	c1.499-2.941,3.628-3.344,6.696-3.103c1.555,0.119,3.604,0.457,4.976-0.492c0.589-0.407,2.141-2.306,1.404-2.99
	C52.26,43.416,52.133,39.257,49.734,37.54C48.717,36.816,51.157,38.559,49.734,37.54z M27.653,30.429
	c0.192,1.749,0.962,3.218,2.93,3.218c0.603,0,1.223-0.164,1.69-0.56c0.479-0.405,0.816-1.492-0.19-1.48
	c-0.739,0.008-0.91,0.856-1.842,0.687c-0.833-0.152-1.062-0.818-1.165-1.579c-0.145-1.063-0.186-2.235-1.202-2.869
	c-1.271-0.793-3.118-0.589-4.129,0.52c-0.572,0.626-0.89,1.491-0.801,2.34c0.065,0.621,0.49,1.909,1.326,1.774
	c0.581-0.093,0.939-1.008,0.426-1.394c-0.516-0.626-0.445-1.423,0.263-2.009c0.548-0.454,1.428-0.495,2.061-0.183
	C27.581,29.172,27.594,29.888,27.653,30.429C27.726,31.095,27.527,29.269,27.653,30.429z M30.779,51.518
	c-1.147-1.515-2.999-2.92-4.988-2.92c0.814-0.849,1.57-1.764,2.213-2.75c0.215,0.228,0.525,0.305,0.814,0.158
	c0.595-0.301,0.263-0.806,0.15-1.256c-0.219-0.877,0.462-1.885,0.428-2.805c0.326,0.519,0.526,2.455,1.553,1.793
	c0.927-0.597-0.344-2.544-0.8-3.056c-1.878-2.107-4.731-1.914-7.227-1.403c-0.462,0.088-1.318,0.316-1.568-0.27
	c-0.195-0.457-0.062-1.144,0.356-1.435c0.865-0.602,2.553,0.555,3.038-0.228c0.823-1.32-2.331-1.396-2.929-1.244
	c-0.768,0.194-0.888,0.507-1.669,0.298c-0.662-0.177-1.289-0.505-1.879-0.845c0.612-0.235,1.274-0.671,1.547-1.294
	c0.276-0.637-0.527-1.163-1.052-0.785c-0.508,0.366-0.653,0.869-1.393,0.951c-0.346,0.034-0.958-0.338-1.079-0.607
	c-1.121-2.508,0.86-5.632,3.628-5.477c0.712,0.04,1.394,0.315,1.935,0.779c0.494,0.42,1.337-0.046,1.116-0.701
	c-0.418-1.238-2.861-1.499-3.898-1.363c-3.055,0.401-4.802,3.313-4.355,6.248c0.338,2.221,2.63,3.498,4.567,4.196
	c0.243,0.09,0.492,0.161,0.745,0.216c-0.118,0.378-0.156,0.784-0.105,1.178c0.086,0.675,0.452,1.276,1.073,1.583
	c1.079,0.533,2.452,0.038,3.561-0.16c1.087-0.194,2.483-0.369,3.169,0.722c0.559,0.887,0.187,2.047-0.22,2.913
	c-0.567,1.207-1.4,2.293-2.291,3.278c-0.347,0.383-1.123,0.895-1.268,1.4c-0.193,0.673,0.664,1.08,1.137,0.658
	c0.05,0.794,1.25,0.665,1.787,0.854c0.972,0.343,1.817,0.998,2.487,1.772c0.667,0.771,2.63,3.155,1.43,4.21
	c-1.16,1.02-3.5-0.617-4.356-1.347c-0.704-0.601-1.492-1.433-1.664-2.38c-0.107-0.594,0.828-1.825-0.32-1.933
	c-1.772-0.166-0.854,2.961-0.425,3.635c1.095,1.716,3.114,3.153,5.125,3.529c1.595,0.299,3.392-0.488,3.374-2.32
	C32.512,53.898,31.599,52.603,30.779,51.518C29.438,49.747,31.501,52.473,30.779,51.518z M26.071,32.407
	c-0.325-0.389-0.992-0.301-1.182,0.178c-0.235,0.593,0.548,1.173,0.969,1.442c0.462,0.295,1.349,0.306,1.283-0.485
	C27.102,33.059,26.362,32.756,26.071,32.407C25.832,32.121,26.323,32.709,26.071,32.407z M44.105,22.673
	c0.554,0,1.232-0.442,1.608-0.82c0.444-0.446,0.74-1.6-0.3-1.494c-0.556,0.057-0.914,0.839-1.514,1.019
	C43.154,21.603,43.358,22.673,44.105,22.673z M42.936,40.561c-0.459,0.43-1.031,0.206-1.519,0.491
	c-0.748,0.439-0.134,1.056,0.375,1.226c0.767-0.015,1.534-0.234,2.104-0.766C44.55,40.904,43.563,39.98,42.936,40.561
	C42.66,40.818,43.21,40.307,42.936,40.561z M56.488,24.835c-1.059,1.962-2.902,3.518-4.956,4.356
	c1.894,0.722,2.245,2.801,1.556,4.568c-0.897,2.304-3.139,2.033-5.125,1.678c-1.742-0.312-4.158-0.815-5.725,0.311
	c-0.768,0.551-0.682,1.373-1.217,2.008c-0.249,0.296-0.715,0.329-1.006,0.071c-0.49-0.435-0.029-1.274,0.199-1.728
	c-0.699,0.037-1.396-0.258-1.888-0.757c-0.41-0.415-0.892-1.448,0.019-1.648c0.764-0.169,0.895,0.928,1.608,1.08
	c0.293,0.063,0.529-0.089,0.808,0.088c0.41,0.261,0.563-0.155,1.008-0.401c-0.455-0.569-0.624-1.438-0.267-2.103
	c0.531-0.991,1.933-0.159,1.235,0.593c-0.777,0.849,1.149,0.885,1.346,0.868c1.138-0.099,2.287,0.015,3.411,0.193
	c-0.184-0.577-0.129-1.746,0.778-1.564c0.9,0.179,0.271,1.468,1.308,1.792c1.715,0.537,2.5-0.964,2.438-2.462
	c-0.057-1.35-1.371-1.508-2.45-1.736c-0.378-0.083-0.858-0.112-1.004-0.554c-0.164-0.501,0.326-0.95,0.813-0.843
	c0.286,0.062,0.29-0.252,0.593-0.328c0.607-0.149,1.19-0.389,1.742-0.681c-0.606-0.101-3.748-1.286-2.464-2.281
	c0.612-0.474,1.055,0.271,1.51,0.553c0.526,0.327,1.174,0.51,1.794,0.484c2.633-0.11,3.878-4.146,3.49-6.393
	c-0.225-1.302-1.265-2.241-2.628-2.147c-1.104,0.076-1.624,1.199-2.001,2.09c-0.175,0.414,0.2,1.031,0.586,1.381
	c0.417,0.376,1.251,0.097,1.355,0.814c0.242,1.654-2.372,0.194-2.748-0.362c-0.495,0.893-1.182,1.65-1.945,2.321
	c-0.464,0.407-1.248,1.329-1.926,1.375c2.872,1.825,0.475,4.951-2.036,5.394c-0.448,0.079-1.179,0.242-1.479-0.246
	c-0.452-0.736,0.44-0.964,0.94-1.015c1.11-0.114,3.079-1.006,2.372-2.463c-0.266-0.547-0.91-0.826-1.475-0.93
	c-0.687-0.127-1.296,0.287-1.923,0.192c-0.473,0.214-1.136,0.664-1.223,1.227c-0.073,0.472,0.154,1.111-0.626,1.111
	c-1.597,0-0.323-2.388,0.222-2.87c1.004-0.886,2.48-1.183,3.785-0.947c-1.066-1.951,2.213-3.472,0.777-5.422
	c-1.777-2.413-4.555-0.31-5.05,1.934c-0.597,2.698,0.801,5.488-1.817,7.526c-1.234,0.961,0.89,1.707,0.309,2.586
	c-0.805,1.227-1.992-0.954-2.041-1.636c-0.587,0.248-1.533,0.925-2.161,0.925c-0.358,0-0.684-0.281-0.691-0.65
	c-0.01-0.532,0.594-0.728,0.981-0.911c-3.781-1.639-3.083-6.229-1.508-9.172c-0.363,0.102-0.87,0.196-1.2-0.059
	c-0.408-0.315-0.298-0.949,0.175-1.131c0.894-0.345,1.864-0.389,2.209-1.545c0.263-0.88,0.295-1.938-0.654-2.382
	c-0.832-0.389-1.988-0.479-2.822-0.056c-1.701,0.863-2.276,3.221-2.458,4.95c-0.109,1.015-1.746,0.371-2.343,0.215
	c-0.293-0.07-0.553-0.205-0.78-0.403c-0.196,0.125-0.406,0.217-0.631,0.276c-0.33,0.084-0.676,0.099-0.923-0.186
	c0.432,0.762,1.082,1.394,1.883,1.757c0.658,0.298,1.935,0.042,2.412,0.493c0.639,0.603,0.712,1.493,1.015,2.298
	c0.407,1.084,0.918,2.13,1.501,3.13c0.55,0.944,1.378,1.758,1.79,2.778c0.296,0.734-0.422,1.759-1.088,0.956
	c-0.217-0.262-0.284-0.689-0.47-0.981c-0.36-0.564-0.808-1.067-1.156-1.639c-0.664-1.081-1.242-2.219-1.712-3.397
	c-0.161-0.402-0.309-0.811-0.439-1.224c-0.213-0.677-0.058-0.721-0.745-0.776c-0.926-0.074-1.82-0.408-2.577-0.945
	c-1.618-1.148-2.623-3.21-2.17-5.191c0.393-1.717,2.703-3.611,4.303-2c0.702,0.704,0.657,1.582,0.248,2.419
	c-0.552,1.128-0.511,1.208,0.621,1.515c0.331-1.933,1.156-4.17,2.977-5.168c1.575-0.863,4.396-0.613,5.395,1.05
	c1.154,1.921-0.417,4.526-1.326,6.221c-1.017,1.905-1.675,4.916,0.244,6.532c0.369,0.311,0.81,0.523,1.272,0.652
	c0.612,0.169,0.365,0.453,1.089,0.065c1.055-0.565,1.743-1.556,1.872-2.753c0.254-2.355-0.482-4.489,1.053-6.573
	c1.446-1.965,4.092-2.598,5.997-0.867c0.82,0.745,1.439,1.922,1.17,3.053c-0.132,0.549-0.442,1.01-0.68,1.514
	c-0.201,0.429-0.684,0.95-0.663,1.436c1.674-1.305,2.764-2.515,3.568-4.49c0.512-1.254,1.252-2.635,2.661-3.019
	c1.895-0.517,3.953,0.682,4.539,2.513C57.831,20.958,57.377,23.187,56.488,24.835C55.461,26.74,57.211,23.495,56.488,24.835z
	 M25.581,18.495c0.273-0.314,0.5-1.298,0.7-1.748c0.158-0.354,0.173-0.765-0.264-0.929c-0.584-0.221-1.353,0.448-1.568,0.937
	c-0.391,0.883-0.324,1.894,0.08,2.759C24.338,18.679,25.226,18.898,25.581,18.495C25.604,18.469,25.478,18.612,25.581,18.495z"/>
</svg>
