<?xml version="1.0" encoding="utf-8"?>
<!-- Generator: Adobe Illustrator 16.0.0, SVG Export Plug-In . SVG Version: 6.00 Build 0)  -->
<!DOCTYPE svg PUBLIC "-//W3C//DTD SVG 1.1//EN" "http://www.w3.org/Graphics/SVG/1.1/DTD/svg11.dtd">
<svg version="1.1" id="Layer_1" xmlns="http://www.w3.org/2000/svg" xmlns:xlink="http://www.w3.org/1999/xlink" x="0px" y="0px"
	 width="72px" height="72px" viewBox="0 0 72 72" enable-background="new 0 0 72 72" xml:space="preserve">
<path fill="#414042" d="M46.468,43.864l0.005-0.017l-0.008-0.002c-0.003-0.019-0.004-0.039-0.008-0.06l-0.128,0.021l-7.222-2.076
	l-0.258,0.219c-2.934,2.494-7.382,3.289-11.611,2.072c-4.44-1.277-7.932-4.613-8.895-8.499l-0.097-0.388L11.025,33.7l-0.159,0.556
	c-1.156,4.016-0.383,8.317,2.174,12.116c2.535,3.764,6.526,6.581,11.238,7.938c0.339,0.097,0.679,0.174,1.019,0.256
	c2.643,0.748,5.196,1.127,7.569,1.127c4.014,0,7.518-1.065,10.089-3.176C45.715,50.254,46.99,47.104,46.468,43.864z M24.626,53.104
	c-4.429-1.275-8.173-3.916-10.543-7.433c-2.228-3.31-2.983-7.017-2.155-10.508l5.3,1.052c1.207,4.203,4.872,7.635,9.664,9.014
	c4.504,1.299,9.262,0.489,12.508-2.105l5.5,1.583c-1.162,3.375-3.767,6.096-7.394,7.705C33.63,54.134,29.055,54.378,24.626,53.104z
	 M42.238,51.643c-1.686,1.383-3.818,2.271-6.256,2.674c0.694-0.215,1.374-0.463,2.036-0.756c3.232-1.436,5.719-3.693,7.217-6.498
	C44.816,48.777,43.793,50.367,42.238,51.643z M58.896,42.534c-2.928,4.536-7.631,8.03-13.242,9.839l-0.387-1.195
	c5.338-1.721,9.801-5.031,12.572-9.326c2.746-4.254,3.495-8.959,2.11-13.256c-2.874-8.915-14.138-13.291-25.106-9.755
	c-7.966,2.568-13.906,8.73-15.131,15.699l-1.238-0.218c1.305-7.421,7.579-13.969,15.983-16.678
	c11.629-3.748,23.603,0.99,26.688,10.566C62.648,32.87,61.85,37.958,58.896,42.534z M58.169,27.353
	c-0.446,0.461-0.353,1.188-0.071,1.673c0.104,0.182,0.5,0.769,1.141,0.604l0.307,1.219c-0.174,0.043-0.348,0.066-0.518,0.066
	c-0.801,0-1.557-0.461-2.02-1.261c-0.619-1.073-0.515-2.38,0.26-3.175L58.169,27.353z M55.433,25.852l-0.674,1.562
	c-20.034-8.636-30.788,9.556-31.236,10.335l-1.475-0.847C22.165,36.698,33.986,16.609,55.433,25.852z M55.416,29.607l0.617,1.584
	L25.985,42.888l-0.616-1.584L55.416,29.607z M56.93,31.765l1.609,0.55c-0.161,0.47-4.009,11.537-10.174,13.561l-0.531-1.615
	C53.204,42.497,56.894,31.872,56.93,31.765z"/>
</svg>
