<?xml version="1.0" encoding="utf-8"?>
<!-- Generator: Adobe Illustrator 16.0.0, SVG Export Plug-In . SVG Version: 6.00 Build 0)  -->
<!DOCTYPE svg PUBLIC "-//W3C//DTD SVG 1.1//EN" "http://www.w3.org/Graphics/SVG/1.1/DTD/svg11.dtd">
<svg version="1.1" id="Layer_1" xmlns="http://www.w3.org/2000/svg" xmlns:xlink="http://www.w3.org/1999/xlink" x="0px" y="0px"
	 width="72px" height="72px" viewBox="0 0 72 72" enable-background="new 0 0 72 72" xml:space="preserve">
<path fill="#444444" d="M47.166,45.455l1.414,1.111l-0.555,0.707c-8.519,10.853-19.012,10.709-24.054,10.64
	c-0.977-0.015-2.079-0.028-2.421,0.083l-0.501,0.625L20.148,57.9l-0.99-0.566l0.4-0.695c-0.012-0.375-0.429-1.472-0.801-2.445
	c-1.8-4.727-5.546-14.562,0.568-26.056l0.423-0.795l1.588,0.846l-0.421,0.794c-5.731,10.774-2.313,19.75-0.475,24.573
	c0.447,1.173,0.76,2.008,0.871,2.661c0.643-0.125,1.51-0.118,2.685-0.103c5.118,0.068,14.646,0.199,22.614-9.949L47.166,45.455z
	 M52.798,45.941l-0.208,0.306l-0.223-0.151c-0.173,0.186-0.4,0.303-0.645,0.303c-0.174,0-0.352-0.051-0.508-0.158L19.84,24.715
	c-0.234,0.055-0.488,0.022-0.703-0.122c-0.413-0.275-0.525-0.833-0.25-1.246c0.029-0.043,0.074-0.106,0.119-0.167
	c0.025-0.032,0.049-0.064,0.064-0.088c6.332-9.311,19.042-11.747,28.329-5.432S59.107,36.663,52.798,45.941z M46.385,19.15
	c-8.219-5.589-19.363-3.639-25.29,4.244l1.876,1.287c0.005-0.008,0.005-0.018,0.01-0.026c2.085-3.307,6.347-5.152,7.604-5.639
	c2.071-0.802,4.92-1.235,7.26-1.104c0.497,0.027,0.877,0.453,0.848,0.948c-0.026,0.496-0.45,0.875-0.947,0.849
	c-2.106-0.119-4.66,0.27-6.509,0.984c-2.321,0.899-5.309,2.664-6.732,4.921c-0.019,0.03-0.052,0.042-0.073,0.068l2.605,1.788
	c1.541-1.525,3.768-2.921,6.132-3.836c2.175-0.842,5.138-1.269,7.542-1.086c0.495,0.038,0.867,0.471,0.829,0.966
	c-0.038,0.495-0.472,0.867-0.965,0.829c-2.126-0.162-4.842,0.229-6.757,0.97c-2.016,0.78-3.905,1.935-5.263,3.199l2.481,1.703
	c1.061-0.666,2.231-1.259,3.4-1.711c3.25-1.258,8.407-1.671,11.071-0.146c0.432,0.246,0.579,0.796,0.333,1.228
	c-0.247,0.432-0.797,0.581-1.228,0.334c-2.104-1.204-6.707-0.828-9.527,0.263c-0.819,0.317-1.625,0.724-2.401,1.163l3.367,2.31
	c0.015-0.005,0.03-0.012,0.044-0.018c3.25-1.258,8.405-1.672,11.069-0.146c0.433,0.247,0.581,0.797,0.334,1.229
	c-0.246,0.432-0.796,0.58-1.228,0.334c-1.832-1.049-5.562-0.898-8.356-0.121l13.74,9.426C56.938,35.959,54.665,24.782,46.385,19.15z
	 M49.104,17.429c0.254,0,0.51-0.13,0.688-0.342c1.026-1.218,1.938-1.995,3.295-1.995c0.003,0,0.006,0,0.011,0
	c0.494,0,0.897-0.401,0.897-0.897c0.001-0.497-0.399-0.902-0.897-0.902c-0.002,0-0.008,0-0.011,0c-2.168,0-3.524,1.278-4.67,2.635
	c-0.321,0.379-0.274,0.969,0.106,1.289C48.691,17.36,48.898,17.429,49.104,17.429z M40.822,47.154
	c-2.758,2.615-5.864,4.117-8.524,4.125l-0.9,0.002l0.004,1.8l0.9-0.003c3.114-0.008,6.672-1.689,9.758-4.616l0.652-0.619
	l-1.238-1.307L40.822,47.154z M43.527,46.402c0.27,0,0.537-0.118,0.713-0.351c0.061-0.075,0.117-0.153,0.176-0.229
	c0.297-0.398,0.217-0.962-0.182-1.261c-0.397-0.297-0.961-0.217-1.26,0.181c-0.052,0.069-0.104,0.14-0.158,0.209
	c-0.305,0.396-0.232,0.959,0.162,1.263C43.143,46.342,43.336,46.402,43.527,46.402z M41.657,18.871
	c-0.271-0.155-0.575-0.296-0.904-0.415c-0.465-0.172-0.981,0.068-1.153,0.535c-0.172,0.466,0.069,0.983,0.535,1.153
	c0.233,0.086,0.445,0.183,0.629,0.288c0.141,0.08,0.293,0.119,0.444,0.119c0.313,0,0.616-0.163,0.782-0.451
	C42.236,19.668,42.089,19.118,41.657,18.871z M44.241,23.488c-0.283-0.161-0.597-0.305-0.937-0.426
	c-0.467-0.168-0.984,0.075-1.152,0.542s0.076,0.983,0.543,1.15c0.242,0.087,0.459,0.187,0.65,0.295
	c0.141,0.081,0.295,0.119,0.445,0.119c0.313,0,0.615-0.162,0.784-0.451C44.82,24.285,44.673,23.736,44.241,23.488z"/>
</svg>
