<?xml version="1.0" encoding="utf-8"?>
<!-- Generator: Adobe Illustrator 16.0.0, SVG Export Plug-In . SVG Version: 6.00 Build 0)  -->
<!DOCTYPE svg PUBLIC "-//W3C//DTD SVG 1.1//EN" "http://www.w3.org/Graphics/SVG/1.1/DTD/svg11.dtd">
<svg version="1.1" id="Layer_1" xmlns="http://www.w3.org/2000/svg" xmlns:xlink="http://www.w3.org/1999/xlink" x="0px" y="0px"
	 width="72px" height="72px" viewBox="0 0 72 72" enable-background="new 0 0 72 72" xml:space="preserve">
<path fill="#444444" d="M55.91,18.157c-0.547-0.776-1.189-1.418-1.967-1.966c-2.323-1.638-5.549-2.16-8.75-1.701
	c-3.174,0.457-6.348,1.879-8.604,4.133c-0.471,0.472-0.906,0.984-1.295,1.537c-1.077,1.528-1.756,3.071-2.412,4.561
	c-0.802,1.823-1.568,3.564-2.984,4.979c-1.415,1.415-3.156,2.18-4.979,2.983c-1.49,0.656-3.033,1.335-4.561,2.412
	c-0.552,0.39-1.064,0.824-1.536,1.295c-2.254,2.254-3.676,5.426-4.132,8.601c-0.46,3.2,0.062,6.427,1.7,8.751
	c0.547,0.777,1.19,1.419,1.966,1.967c2.324,1.637,5.549,2.159,8.75,1.7c3.175-0.457,6.348-1.88,8.602-4.134
	c0.471-0.471,0.907-0.983,1.298-1.536c1.077-1.528,1.756-3.071,2.412-4.562c0.803-1.824,1.568-3.563,2.984-4.979
	c1.414-1.415,3.156-2.182,4.978-2.982c1.491-0.656,3.034-1.335,4.562-2.412c0.553-0.389,1.064-0.824,1.537-1.295
	c2.254-2.255,3.676-5.428,4.133-8.602C58.07,23.707,57.549,20.482,55.91,18.157z M54.688,19.018
	c0.615,0.873,1.045,1.904,1.301,3.025c-2.141,0.284-4.241,1.077-6.141,2.225c-0.387,0.232-0.764,0.479-1.132,0.741
	c-0.757-0.726-1.657-1.44-2.573-2.081c-0.82-0.574-1.651-1.088-2.402-1.494c0.824-0.644,1.713-1.219,2.646-1.708
	c2.264-1.187,4.791-1.867,7.336-1.802C54.082,18.253,54.404,18.619,54.688,19.018z M29.455,40.581
	c-0.582-0.708-1.127-1.416-1.62-2.104c0.378-0.211,0.753-0.414,1.123-0.615c1.927-1.047,3.739-2.03,5.406-3.698
	c1.341-1.341,2.242-2.774,3.088-4.287c0.522,0.524,1.147,1.108,1.813,1.693c0.803,0.707,1.68,1.431,2.529,2.076
	c-0.918,1.686-1.824,3.273-3.248,4.697c-1.527,1.527-3.244,2.458-5.065,3.447c-0.648,0.352-1.31,0.711-1.982,1.105
	C30.778,42.134,30.091,41.354,29.455,40.581z M30.203,43.7c-0.142,0.094-0.285,0.188-0.428,0.286
	c-1.695,1.166-3.231,2.677-4.474,4.397c-0.71-0.541-1.405-1.175-2.043-1.827c-0.814-0.834-1.53-1.693-2.063-2.433
	c1.49-2.085,3.206-3.587,5.342-4.892c0.528,0.744,1.121,1.517,1.764,2.299C28.901,42.262,29.54,42.991,30.203,43.7z M40.256,30.446
	c-0.797-0.702-1.518-1.381-2.055-1.938c1.271-2.337,2.354-4.189,4.313-6.025c0.824,0.407,1.807,0.994,2.774,1.67
	c0.787,0.551,1.562,1.16,2.229,1.781c-1.279,1.072-2.412,2.308-3.328,3.641c-0.641,0.932-1.174,1.848-1.668,2.743
	C41.768,31.737,40.984,31.088,40.256,30.446z M37.652,19.682c2.022-2.022,4.882-3.298,7.752-3.711
	c2.146-0.309,4.285-0.133,6.066,0.577c-2.013,0.257-3.972,0.909-5.775,1.854c-2.4,1.258-4.527,3.038-6.133,5.099
	c-0.523-0.423-1.074-0.836-1.633-1.228c-0.525-0.367-1.054-0.71-1.57-1.023C36.743,20.683,37.169,20.166,37.652,19.682z
	 M34.253,25.322c0.406-0.921,0.821-1.864,1.331-2.795c0.492,0.299,0.993,0.625,1.491,0.971c0.545,0.381,1.091,0.793,1.618,1.225
	c-0.76,1.149-1.359,2.254-1.94,3.32c-0.991,1.822-1.922,3.534-3.449,5.061l-0.034,0.034c-0.369-0.421-0.748-0.837-1.129-1.242
	c-0.382-0.405-0.767-0.799-1.147-1.175C32.581,29.119,33.398,27.264,34.253,25.322z M25.522,34.053
	c1.529-0.674,3.004-1.322,4.344-2.342c0.391,0.384,0.789,0.79,1.185,1.21c0.369,0.393,0.738,0.796,1.097,1.208
	c-1.218,0.961-2.531,1.674-3.905,2.421c-1.55,0.843-3.452,1.913-4.856,3.06c-0.423-0.506-0.831-1.032-1.215-1.564
	c-0.392-0.543-0.759-1.092-1.09-1.629C22.45,35.419,23.98,34.731,25.522,34.053z M16.748,51.268c-0.71-1.781-0.885-3.92-0.578-6.065
	c0.414-2.884,1.683-5.737,3.762-7.804c0.314,0.5,0.659,1.011,1.027,1.521c0.413,0.572,0.853,1.14,1.31,1.683
	c-1.453,1.4-2.71,3.067-3.667,4.892C17.658,47.295,17.006,49.254,16.748,51.268z M19.218,54.484
	c-0.399-0.281-0.765-0.605-1.093-0.967c-0.066-2.541,0.615-5.068,1.801-7.334c0.128-0.244,0.262-0.485,0.401-0.723
	c0.523,0.68,1.159,1.42,1.86,2.139c0.709,0.726,1.488,1.433,2.287,2.034l-0.006,0.011c-1.148,1.899-1.941,4-2.224,6.142
	C21.123,55.529,20.091,55.1,19.218,54.484z M26.896,55.926c-1.074,0.155-2.147,0.188-3.173,0.094
	c0.25-1.942,0.974-3.859,2.027-5.603c0.468-0.774,1.001-1.517,1.586-2.208c0.636,0.919,1.427,1.923,2.318,2.927
	c0.847,0.953,1.79,1.914,2.786,2.81C30.767,54.975,28.834,55.648,26.896,55.926z M38.047,46.575
	c-0.627,1.424-1.277,2.899-2.268,4.303c-0.333,0.472-0.713,0.918-1.131,1.337c-0.3,0.299-0.617,0.582-0.95,0.848
	c-1.044-0.918-2.038-1.924-2.926-2.922c-0.953-1.074-1.774-2.129-2.396-3.057c0.7-0.691,1.453-1.318,2.243-1.861
	c1.228-0.844,2.425-1.494,3.578-2.119c0.594-0.324,1.178-0.642,1.75-0.975c0.456,0.448,0.959,0.956,1.485,1.512
	c0.422,0.447,0.86,0.924,1.299,1.42C38.496,45.557,38.273,46.063,38.047,46.575z M46.777,37.846
	c-1.957,0.86-3.824,1.684-5.436,3.293c-0.779,0.779-1.374,1.619-1.877,2.5c-0.322-0.355-0.637-0.697-0.943-1.021
	c-0.441-0.467-0.867-0.903-1.266-1.299c0.811-0.545,1.596-1.159,2.352-1.914c1.666-1.668,2.651-3.48,3.697-5.407
	c0.596-1.095,1.211-2.229,1.994-3.391c0.914,0.643,1.932,1.448,2.969,2.371c0.922,0.824,1.844,1.729,2.701,2.681
	C49.6,36.604,48.165,37.234,46.777,37.846z M56.128,26.696c-0.412,2.871-1.69,5.731-3.711,7.752
	c-0.095,0.093-0.188,0.185-0.284,0.275c-0.925-1.035-1.904-2.001-2.871-2.864c-1.056-0.942-2.113-1.777-3.076-2.455
	c1.221-1.504,2.744-2.832,4.435-3.854c1.743-1.053,3.661-1.777,5.603-2.027C56.316,24.549,56.283,25.622,56.128,26.696z"/>
</svg>
