<?xml version="1.0" encoding="utf-8"?>
<!-- Generator: Adobe Illustrator 16.0.0, SVG Export Plug-In . SVG Version: 6.00 Build 0)  -->
<!DOCTYPE svg PUBLIC "-//W3C//DTD SVG 1.1//EN" "http://www.w3.org/Graphics/SVG/1.1/DTD/svg11.dtd">
<svg version="1.1" id="Layer_1" xmlns="http://www.w3.org/2000/svg" xmlns:xlink="http://www.w3.org/1999/xlink" x="0px" y="0px"
	 width="72px" height="72px" viewBox="0 0 72 72" enable-background="new 0 0 72 72" xml:space="preserve">
<path fill="#444444" d="M59.703,37.57l-0.008-0.103c-0.26-3.487-0.643-8.582-5.068-12.376c-2.643-2.955-8.746-5.986-14.134-3.521
	l-0.015,1.2c1.474,0.716,2.463,1.929,2.463,3.017c0,1.981-2.721,3.656-5.941,3.656c-1.553,0-2.764-0.276-3.811-0.867l-0.62-0.019
	c-6.655,3.286-10.854,12.131-9.768,20.576c0.304,2.365,0.946,4.365,1.908,5.946c0.028,0.047,0.06,0.088,0.089,0.133
	c-2.084-0.97-3.766-2.093-5.085-3.396h0.001c-0.027-0.024-0.053-0.053-0.08-0.077c-2.079-2.089-3.237-4.64-3.583-7.8
	c-0.62-5.682,2.117-11.583,6.655-14.352c1.647-1.006,3.578-1.522,5.9-1.581l-0.033-1.326c-2.562,0.064-4.707,0.645-6.559,1.773
	c-4.962,3.028-7.957,9.455-7.282,15.629c0.018,0.158,0.041,0.313,0.062,0.467c-0.859-2.106-1.159-4.702-0.876-7.743
	c0.02-0.218,0.045-0.434,0.075-0.649c0.2-1.409,0.619-2.763,1.228-4.008c0.113-0.232,0.238-0.457,0.362-0.684
	c0.322-0.569,0.682-1.115,1.087-1.627c1.289-1.629,3.014-2.896,4.988-3.664c2.819-1.098,5.664-1.362,8.1-0.782
	c-0.015,0.131-0.027,0.263-0.027,0.396c0,0.786,0.268,1.568,0.775,2.259l1.07-0.785c-0.344-0.469-0.518-0.964-0.518-1.474
	c0-1.304,1.165-2.522,3.041-3.181l-0.112-1.281c-4.553-0.748-8.823-0.052-12.351,2.011c-3.002,1.756-5.528,4.396-7.213,7.487
	c-0.137,0.242-0.268,0.487-0.39,0.737c-0.017,0.034-0.037,0.065-0.053,0.1l0.005,0.003c-0.645,1.344-1.091,2.795-1.305,4.308
	c-0.034,0.237-0.061,0.474-0.083,0.713c-0.321,3.457,0.064,6.418,1.146,8.801c1.376,3.033,3.134,5.563,5.083,7.315l0.001-0.001
	c2.439,2.412,5.535,3.803,8.15,4.735c0.81,0.58,1.75,1.04,2.855,1.392c1.747,0.557,4.474,0.814,6.941,0.814
	c1.592,0,3.078-0.107,4.121-0.313L40.891,59.4c0.381-0.033,0.778-0.088,1.197-0.172c0.912-0.183,1.748-0.478,2.502-0.867
	c3.496-1.293,5.965-2.733,8.002-4.672c0.137-0.129,0.268-0.264,0.396-0.403c2.939-2.354,5.045-5.446,6.087-8.951
	c0.034-0.117,0.067-0.233,0.101-0.351C59.779,41.814,59.939,39.641,59.703,37.57z M22.305,24.484
	c2.71-1.585,5.907-2.294,9.348-2.087c-0.67,0.497-1.177,1.086-1.504,1.727c-2.449-0.6-5.253-0.429-8.057,0.496
	C22.164,24.577,22.233,24.526,22.305,24.484z M42.275,22.324c1.43-0.407,2.891-0.423,4.287-0.181
	c-1.146,0.085-2.334,0.358-3.582,0.818C42.768,22.737,42.534,22.523,42.275,22.324z M30.236,57.666
	c-2.032-0.648-3.427-1.688-4.394-3.273c-0.864-1.422-1.445-3.248-1.725-5.427c-1.001-7.78,2.743-15.901,8.739-19.062
	c0.472,0.237,0.971,0.422,1.502,0.56c-1.76,3.817-3.119,9.655-3.198,13.861c-0.07,3.698,0.347,8.763,2.734,11.887
	c0.403,0.526,1.125,1.47,2.323,2.201C34.027,58.377,31.709,58.134,30.236,57.666z M51.678,52.73
	c-1.154,1.095-2.469,2.022-4.063,2.858c0.402-0.651,0.712-1.374,0.914-2.157c1.758-6.816-1.217-17.042-6.629-22.792l-0.967,0.909
	c5.571,5.92,7.762,15.925,6.311,21.554c-0.656,2.547-2.58,4.262-5.416,4.825c-3.786,0.757-5.603-0.851-6.879-2.521
	c-2.269-2.971-2.516-8.201-2.462-11.057c0.079-4.166,1.46-9.995,3.224-13.645c0.409,0.043,0.836,0.066,1.289,0.066
	c2.34,0,4.385-0.724,5.706-1.867c1.722,0.368,2.415,0.771,4.024,1.718c4.99,2.933,8.147,8.342,8.047,13.782
	C54.727,47.05,53.887,50.628,51.678,52.73z M57.896,43.629c-0.029,0.11-0.062,0.219-0.094,0.328
	c-0.517,1.736-1.324,3.359-2.373,4.834c0.408-1.354,0.646-2.832,0.674-4.363c0.111-6.001-3.223-11.729-8.701-14.951
	c-1.428-0.839-2.25-1.321-3.715-1.705c0.373-0.605,0.582-1.274,0.582-1.983c0-0.577-0.17-1.159-0.467-1.712
	c3.186-1.088,5.834-0.792,8.489,0.927c2.429,1.571,3.842,3.495,4.688,5.485c-1.063-1.47-2.404-2.746-4.01-3.73
	c-2.22-1.36-4.904-1.992-7.769-1.831l0.075,1.325c2.593-0.15,5.012,0.419,6.998,1.638c3.488,2.139,5.645,5.767,6.106,9.853
	l0.013,0.171l0.006-0.001C58.59,39.76,58.436,41.695,57.896,43.629z M31.474,15.847l-0.492-0.298l1.265-2.993l0.623,0.288
	c3.157,1.461,5.262,4.016,6.438,7.809c0.062,0.199,0.116,0.392,0.17,0.581c0.293,1.027,0.523,1.836,1.668,2.807
	c0.586,0.497,0.918,1.107,0.935,1.717c0.009,0.378-0.101,0.943-0.674,1.482l-0.908-0.968c0.263-0.245,0.257-0.422,0.255-0.481
	c-0.005-0.223-0.175-0.492-0.465-0.738c-1.452-1.23-1.773-2.361-2.086-3.455c-0.051-0.179-0.102-0.363-0.161-0.551
	c-0.994-3.204-2.628-5.348-5.115-6.69l-0.28,0.665c1.408,0.953,2.348,2.093,3.167,3.814c0.779,1.634,1.058,4.053-0.719,5.481
	c-0.302,0.243-0.626,0.447-0.937,0.59c-0.344,0.157-0.961,0.568-0.832,0.998c0.374,1.245,2.939,1.342,3.715,1.342
	c0.836,0,1.566-0.093,2.172-0.278l0.389,1.271c-0.732,0.223-1.594,0.336-2.561,0.336c-1.605,0-4.389-0.297-4.986-2.288
	c-0.366-1.218,0.607-2.154,1.551-2.586c0.212-0.097,0.439-0.241,0.656-0.416c1.174-0.943,0.924-2.679,0.353-3.879
	C33.816,17.729,32.935,16.731,31.474,15.847z"/>
</svg>
