<?xml version="1.0" encoding="utf-8"?>
<!-- Generator: Adobe Illustrator 16.0.0, SVG Export Plug-In . SVG Version: 6.00 Build 0)  -->
<!DOCTYPE svg PUBLIC "-//W3C//DTD SVG 1.1//EN" "http://www.w3.org/Graphics/SVG/1.1/DTD/svg11.dtd">
<svg version="1.1" id="Layer_1" xmlns="http://www.w3.org/2000/svg" xmlns:xlink="http://www.w3.org/1999/xlink" x="0px" y="0px"
	 width="72px" height="72px" viewBox="0 0 72 72" enable-background="new 0 0 72 72" xml:space="preserve">
<path fill="#444444" d="M39.397,34.922l-1.686-0.216c0.919-7.188,2.644-17.624,3.343-21.777l1.676,0.282
	C42.033,17.354,40.313,27.764,39.397,34.922z M42.882,51.566c0-1.767-0.754-2.957-1.896-4.76l-0.063-0.099
	c-1.021-1.611-2.206-4.104-2.054-6.827l-1.697-0.096c-0.141,2.512,0.66,5.22,2.315,7.833l0.063,0.099
	c1.052,1.661,1.632,2.576,1.632,3.85c0,2.564-2.31,4.65-5.147,4.65c-2.84,0-5.15-2.086-5.15-4.65c0-1.274,0.579-2.188,1.629-3.847
	l0.065-0.102c1.654-2.61,2.455-5.319,2.315-7.832l-1.697,0.094c0.15,2.726-1.034,5.218-2.055,6.828l-0.064,0.103
	c-1.14,1.8-1.893,2.988-1.893,4.756c0,2.072,1.081,3.91,2.743,5.069l-1.012,2.781l1.598,0.582l0.931-2.558
	c0.548,0.208,1.132,0.351,1.74,0.42v2.205h1.7v-2.205c0.607-0.069,1.19-0.211,1.737-0.42l0.931,2.558l1.598-0.582l-1.012-2.78
	C41.801,55.478,42.882,53.639,42.882,51.566z M34.354,34.706c-0.914-7.153-2.642-17.612-3.342-21.777l-1.677,0.282
	c0.699,4.155,2.422,14.588,3.333,21.711L34.354,34.706z M36.885,12.07h-1.7v14h1.7V12.07z M47.549,14.708l-1.678-0.275
	c-0.979,5.958-2.285,14.225-2.943,19.772l1.688,0.2C45.271,28.889,46.572,20.649,47.549,14.708z M46.381,44.799l-0.058-0.091
	c-1.152-1.82-1.831-3.637-2.017-5.398l-1.691,0.178c0.214,2.024,0.978,4.087,2.272,6.131l0.058,0.091
	c1.055,1.665,1.637,2.582,1.637,3.857c0,1.899-1.259,3.59-3.207,4.307l0.588,1.596c2.623-0.966,4.318-3.282,4.318-5.902
	C48.281,47.797,47.525,46.604,46.381,44.799z M29.138,34.204c-0.66-5.556-1.965-13.819-2.943-19.772l-1.678,0.275
	c0.976,5.937,2.277,14.173,2.933,19.697L29.138,34.204z M25.484,49.566c0-1.274,0.581-2.19,1.634-3.853l0.061-0.096
	c1.294-2.044,2.058-4.106,2.271-6.131l-1.69-0.178c-0.186,1.762-0.864,3.578-2.017,5.398l-0.061,0.096
	c-1.144,1.804-1.899,2.995-1.899,4.763c0,2.62,1.696,4.937,4.32,5.902l0.587-1.596C26.743,53.156,25.484,51.466,25.484,49.566z
	 M27.189,35.788l-0.308,1.672c2.737,0.504,5.944,0.756,9.152,0.756c3.207,0,6.416-0.252,9.153-0.756l-0.309-1.672
	C39.587,36.762,32.478,36.762,27.189,35.788z"/>
</svg>
