<?xml version="1.0" encoding="utf-8"?>
<!-- Generator: Adobe Illustrator 16.0.0, SVG Export Plug-In . SVG Version: 6.00 Build 0)  -->
<!DOCTYPE svg PUBLIC "-//W3C//DTD SVG 1.1//EN" "http://www.w3.org/Graphics/SVG/1.1/DTD/svg11.dtd">
<svg version="1.1" id="Layer_1" xmlns="http://www.w3.org/2000/svg" xmlns:xlink="http://www.w3.org/1999/xlink" x="0px" y="0px"
	 width="72px" height="72px" viewBox="0 0 72 72" enable-background="new 0 0 72 72" xml:space="preserve">
<path fill="#444444" d="M58.67,27.466c-1.323-1.097-3.119-2.449-5.277-3.79c-0.02-0.014-0.039-0.024-0.06-0.037
	c-1.694-1.049-3.604-2.089-5.72-2.994c-3.312-1.417-6.601-2.275-9.844-2.612c-0.058-0.012-0.113-0.02-0.174-0.018
	c-2.462-0.241-4.898-0.189-7.292,0.197c-3.857,0.622-7.258,2.14-10.161,4.5c-0.023,0.02-0.051,0.031-0.072,0.054
	c-0.004,0.004-0.004,0.01-0.008,0.015c-0.802,0.658-1.573,1.369-2.295,2.158c-2.414,2.634-4.329,5.918-5.692,9.758
	c-0.621,1.749-0.454,3.587,0.316,5.132l-0.34,0.518c-0.514,0.779-0.683,1.711-0.475,2.623c0.208,0.906,0.762,1.67,1.559,2.148
	c4.236,2.54,13.953,7.085,31.442,8.998c0.028,0.004,0.056,0.005,0.083,0.005c0.064,0,0.125-0.019,0.186-0.034
	c0.264,0.024,0.529,0.037,0.795,0.037c0.734,0,1.473-0.096,2.201-0.284l0.057-0.016c2.496-0.65,4.561-2.357,5.666-4.683
	c0.428-0.901,0.86-1.803,1.289-2.695c2.479-5.172,4.821-10.056,5.653-13.322C61.034,31.053,60.314,28.832,58.67,27.466z
	 M13.044,42.635c-0.114-0.499-0.023-1.007,0.252-1.438c0.657,0.762,1.497,1.387,2.49,1.794c0.003,0.001,0.006,0.003,0.009,0.005
	l21.906,8.645c-12.809-2.162-20.267-5.698-23.793-7.813C13.466,43.563,13.159,43.139,13.044,42.635z M59.048,32.756
	c-0.795,3.121-3.106,7.938-5.553,13.042c-0.431,0.894-0.861,1.796-1.29,2.699c-0.915,1.924-2.623,3.335-4.686,3.873l-0.059,0.015
	c-1.486,0.387-3.027,0.293-4.455-0.27L16.353,41.598c-2.51-1.035-3.767-3.844-2.86-6.395c0.214-0.602,0.447-1.184,0.688-1.756
	l18.461,9.228c0.107,0.054,0.222,0.08,0.336,0.08c0.275,0,0.541-0.153,0.674-0.417c0.186-0.371,0.035-0.824-0.337-1.01
	l-18.514-9.255c1.121-2.323,2.48-4.376,4.074-6.114c0.557-0.608,1.149-1.16,1.757-1.685l15.676,13.929
	c0.144,0.127,0.322,0.191,0.5,0.191c0.209,0,0.414-0.086,0.562-0.254c0.274-0.312,0.247-0.787-0.063-1.063L21.824,23.32
	c2.535-1.87,5.449-3.093,8.719-3.62c2.142-0.346,4.321-0.411,6.527-0.225l5.611,16.33c0.108,0.312,0.399,0.508,0.713,0.508
	c0.08,0,0.164-0.013,0.244-0.041c0.393-0.135,0.602-0.562,0.467-0.956l-5.389-15.665c2.736,0.392,5.511,1.185,8.305,2.38
	c1.86,0.796,3.562,1.702,5.089,2.624l-2.147,10.999c-0.081,0.407,0.188,0.804,0.596,0.883c0.047,0.01,0.096,0.014,0.145,0.014
	c0.354,0,0.668-0.249,0.738-0.609l2.037-10.429c1.699,1.11,3.131,2.202,4.229,3.114C58.907,29.623,59.434,31.243,59.048,32.756z
	 M36.875,43.96c-0.133,0.263-0.399,0.415-0.674,0.415c-0.113,0-0.229-0.025-0.337-0.081l-0.595-0.299
	c-0.372-0.187-0.521-0.64-0.334-1.011s0.639-0.521,1.011-0.334l0.595,0.298C36.913,43.136,37.063,43.589,36.875,43.96z
	 M40.818,40.301c0.306,0.281,0.326,0.756,0.045,1.063c-0.148,0.161-0.352,0.243-0.555,0.243c-0.182,0-0.363-0.065-0.508-0.198
	l-0.615-0.563c-0.307-0.281-0.326-0.757-0.045-1.063c0.281-0.306,0.756-0.326,1.063-0.046L40.818,40.301z M45.23,38.723
	c0.143,0.392-0.059,0.823-0.448,0.967c-0.085,0.031-0.173,0.045-0.259,0.045c-0.308,0-0.596-0.188-0.707-0.494l-0.262-0.719
	c-0.144-0.391,0.059-0.821,0.447-0.965c0.391-0.143,0.823,0.059,0.966,0.448L45.23,38.723z M50.846,38.543l-0.102,0.62
	c-0.061,0.369-0.381,0.633-0.742,0.633c-0.039,0-0.081-0.004-0.121-0.011c-0.41-0.066-0.689-0.453-0.623-0.863l0.102-0.621
	c0.066-0.41,0.453-0.688,0.863-0.621C50.634,37.746,50.912,38.133,50.846,38.543z"/>
</svg>
