<?xml version="1.0" encoding="utf-8"?>
<!-- Generator: Adobe Illustrator 16.0.0, SVG Export Plug-In . SVG Version: 6.00 Build 0)  -->
<!DOCTYPE svg PUBLIC "-//W3C//DTD SVG 1.1//EN" "http://www.w3.org/Graphics/SVG/1.1/DTD/svg11.dtd">
<svg version="1.1" id="Layer_1" xmlns="http://www.w3.org/2000/svg" xmlns:xlink="http://www.w3.org/1999/xlink" x="0px" y="0px"
	 width="72px" height="72px" viewBox="0 0 72 72" enable-background="new 0 0 72 72" xml:space="preserve">
<path fill="#444444" d="M59.15,30.426c0.797-0.955,1.049-2.17,0.707-3.42c-0.479-1.751-2.084-3.425-3.892-4.067
	c-0.185-0.087-0.704-0.635-1.161-1.118c-1.625-1.71-4.347-4.575-8.799-6.308c-5.381-2.093-11.725-1.878-18.857,0.644
	c-10.467,3.7-14.812,15.798-14.718,21.151c0.051,2.901,0.974,6.344,2.415,9.086c-0.26,0.42-0.415,0.911-0.428,1.472
	c-0.027,1.17,0.55,2.509,1.404,3.256c1.26,1.101,2.508,1.637,3.849,1.637c0.448,0,0.908-0.061,1.379-0.182
	c0.411-0.104,0.996-0.192,1.734-0.302c3.681-0.551,11.339-1.698,22.409-8.855c4.059-2.624,9.284-6.745,12.412-10.749
	c0.029,0.345,0.063,0.707,0.103,1.108c0.128,1.302,0.274,2.778,0.149,3.823c-0.242,2.012-0.813,3.912-1.7,5.646
	c-3.89,7.604-10.57,12.378-18.33,13.101c-4.157,0.385-11.673-1.555-13.941-2.305c-0.399-0.132-0.829,0.084-0.961,0.482
	c-0.132,0.399,0.084,0.83,0.483,0.963c1.59,0.525,8.439,2.43,13.229,2.43c0.465,0,0.91-0.018,1.332-0.059
	c8.29-0.77,15.414-5.844,19.543-13.922c0.969-1.894,1.594-3.965,1.856-6.153c0.146-1.211-0.002-2.708-0.146-4.156
	C59.109,32.491,58.939,30.772,59.15,30.426z M44.368,42.145c-10.795,6.978-18.234,8.092-21.81,8.627
	c-0.779,0.117-1.395,0.209-1.878,0.33c-1.398,0.353-2.551,0.016-3.858-1.127c-0.52-0.455-0.901-1.348-0.884-2.076
	c0.01-0.436,0.155-0.767,0.43-0.986c0.33-0.26,0.384-0.739,0.122-1.068c-0.089-0.112-0.208-0.18-0.334-0.227
	c-1.315-2.531-2.158-5.682-2.204-8.334c-0.093-5.295,4.408-16.404,13.704-19.691c15.007-5.307,22.264,1.347,25.581,4.792
	c-0.237,0.111-0.416,0.331-0.44,0.61c-0.024,0.268-0.092,0.402-0.144,0.433c-0.074,0.048-0.346,0.126-1.264-0.194
	c-1.287-0.449-2.602-0.696-4.14-0.777c-0.421-0.024-0.778,0.299-0.8,0.72c-0.021,0.418,0.299,0.777,0.719,0.799
	c1.391,0.074,2.573,0.295,3.721,0.695c0.492,0.172,1.027,0.324,1.539,0.324c0.37,0,0.727-0.079,1.049-0.288
	c0.412-0.265,0.667-0.694,0.777-1.26c0.478,0.485,0.832,0.794,1.189,0.922c1.356,0.483,2.596,1.761,2.945,3.039
	c0.181,0.667,0.09,1.265-0.24,1.787c-0.078,0.063-0.146,0.141-0.197,0.235C55.71,33.595,49.514,38.816,44.368,42.145z M55.9,27.767
	c0.3,0.294,0.306,0.775,0.011,1.075c-2.104,2.147-5.649,5.024-9.035,7.331l-0.504,0.345c-3.595,2.448-6.985,4.764-11.718,6.598
	c-0.091,0.035-0.184,0.052-0.276,0.052c-0.305,0-0.592-0.185-0.709-0.485c-0.152-0.392,0.043-0.832,0.435-0.982
	c4.568-1.771,7.892-4.039,11.41-6.437l0.506-0.346c3.31-2.254,6.767-5.056,8.806-7.138C55.118,27.477,55.6,27.473,55.9,27.767z
	 M27.659,40.455c2.008-0.161,3.328-1.944,4.081-3.408c0.25-0.486,0.464-0.955,0.672-1.408c0.808-1.766,1.571-3.432,3.844-4.515
	c0.379-0.181,0.833-0.021,1.014,0.358c0.182,0.379,0.021,0.834-0.358,1.015c-1.763,0.84-2.331,2.059-3.102,3.746
	c0.145-0.06,0.304-0.087,0.467-0.046c2.463,0.618,4.182-1.825,4.989-3.338c1.375-2.585,5.226-5.078,8.317-4.543
	c0.413,0.071,0.69,0.465,0.619,0.879c-0.071,0.415-0.466,0.692-0.88,0.62c-2.393-0.415-5.629,1.719-6.717,3.759
	c-1.463,2.752-3.443,4.242-5.557,4.242c-0.378,0-0.759-0.047-1.143-0.144c-0.265-0.067-0.449-0.271-0.527-0.512
	c-0.091,0.189-0.183,0.38-0.285,0.579c-1.334,2.596-3.17,4.058-5.312,4.232c-0.021,0-0.042,0.002-0.063,0.002
	c-0.393,0-0.725-0.304-0.757-0.701C26.928,40.855,27.24,40.489,27.659,40.455z M45.969,46.195c0.256,0.332,0.195,0.811-0.137,1.066
	c-0.661,0.512-1.184,1.184-1.736,1.896c-0.873,1.12-1.773,2.28-3.322,2.985c-1.873,0.852-3.315,1.026-4.412,1.026
	c-0.42,0-0.788-0.024-1.112-0.048c-0.419-0.029-0.78-0.055-0.972,0.006c-0.4,0.124-0.827-0.1-0.952-0.501s0.1-0.827,0.5-0.953
	c0.463-0.144,0.956-0.108,1.527-0.069c1.076,0.072,2.547,0.174,4.79-0.846c1.207-0.55,1.957-1.515,2.752-2.535
	c0.586-0.754,1.193-1.535,2.008-2.164C45.234,45.801,45.712,45.864,45.969,46.195z M41.998,52.588
	c3.986-0.908,4.623-2.789,5.088-4.162c0.152-0.451,0.285-0.842,0.518-1.162c0.547-0.752,1.289-1.119,2.076-1.506
	c0.738-0.365,1.574-0.777,2.441-1.609c0.514-0.494,1.215-1.414,1.502-2.385c0.119-0.4,0.542-0.631,0.945-0.512
	c0.402,0.118,0.633,0.542,0.514,0.945c-0.371,1.252-1.229,2.395-1.906,3.047c-1.037,0.997-2.027,1.484-2.822,1.878
	c-0.692,0.34-1.192,0.588-1.52,1.036c-0.098,0.134-0.199,0.435-0.307,0.755c-0.516,1.521-1.375,4.062-6.19,5.157
	c-0.058,0.014-0.114,0.02-0.169,0.02c-0.348,0-0.661-0.238-0.742-0.592C41.333,53.089,41.59,52.682,41.998,52.588z M41.26,25.189
	c1.66-0.734,3.963-0.551,6.16,0.49c0.38,0.18,0.541,0.634,0.361,1.014c-0.18,0.379-0.633,0.541-1.014,0.36
	c-1.775-0.841-3.65-1.023-4.894-0.472c-0.778,0.344-1.313,0.976-1.588,1.88C40.188,28.789,39.885,29,39.559,29
	c-0.072,0-0.146-0.011-0.221-0.033c-0.402-0.122-0.629-0.547-0.507-0.948C39.236,26.691,40.075,25.713,41.26,25.189z M18.293,44.555
	c-0.142,0.244-0.397,0.381-0.659,0.381c-0.129,0-0.261-0.033-0.382-0.104c-1.29-0.751-1.886-2.485-1.45-4.217
	c0.378-1.503,1.651-3.136,4.089-3.218c0.009,0,0.018,0,0.026,0c0.408,0,0.746,0.324,0.759,0.733
	c0.014,0.421-0.314,0.772-0.734,0.787c-1.951,0.063-2.513,1.467-2.665,2.067c-0.268,1.062,0.044,2.125,0.741,2.531
	C18.381,43.727,18.504,44.191,18.293,44.555z M21.51,31.946c-0.428,0.97-0.575,2.211-0.08,2.609c0.327,0.264,0.379,0.742,0.115,1.07
	c-0.15,0.188-0.371,0.284-0.593,0.284c-0.168,0-0.336-0.055-0.477-0.167c-1.254-1.011-0.977-3.007-0.358-4.409
	c0.642-1.455,1.755-1.887,2.654-2.1c0.409-0.098,0.818,0.155,0.916,0.563c0.098,0.408-0.155,0.818-0.564,0.916
	C22.253,30.919,21.815,31.254,21.51,31.946z M17.058,36.977c-1.155-1.73-1.435-3.872-0.768-5.873
	c0.604-1.811,1.923-3.231,3.531-3.799c0.396-0.14,0.831,0.067,0.971,0.464c0.14,0.396-0.068,0.829-0.463,0.97
	c-1.169,0.414-2.14,1.477-2.595,2.846c-0.517,1.553-0.302,3.21,0.59,4.549c0.233,0.349,0.139,0.822-0.211,1.054
	c-0.13,0.086-0.277,0.127-0.422,0.127C17.445,37.314,17.204,37.195,17.058,36.977z M25.611,26.429
	c0.094,0.41-0.162,0.818-0.572,0.911c-0.055,0.014-0.112,0.021-0.169,0.021c-0.347,0-0.66-0.24-0.741-0.592
	c-0.359-1.57,1.095-2.966,2.449-3.683c0.492-0.262,0.971-0.402,1.466-0.432c0.42-0.022,0.779,0.297,0.804,0.715
	c0.024,0.421-0.295,0.78-0.715,0.804c-0.272,0.017-0.548,0.101-0.843,0.257C26.354,24.926,25.469,25.81,25.611,26.429z
	 M20.679,25.732c-0.013-1.754,1.032-3.582,2.793-4.854c1.736-1.253,3.743-1.681,5.367-1.129c0.397,0.137,0.61,0.563,0.476,0.96
	c-0.135,0.398-0.568,0.607-0.965,0.473c-1.142-0.389-2.669-0.041-3.987,0.909c-1.343,0.97-2.172,2.387-2.163,3.632
	c0.003,0.419-0.335,0.808-0.755,0.808c-0.002,0-0.004,0-0.006,0C21.022,26.531,20.681,26.15,20.679,25.732z M30.477,19.694
	c-0.311-0.281-0.335-0.764-0.053-1.074c1.131-1.249,3.041-1.849,5.11-1.604c2.038,0.242,3.728,1.249,4.519,2.694
	c0.2,0.369,0.064,0.831-0.305,1.032c-0.115,0.064-0.24,0.094-0.363,0.094c-0.27,0-0.529-0.144-0.668-0.396
	c-0.547-0.998-1.834-1.731-3.362-1.913c-1.558-0.186-3.015,0.242-3.803,1.113C31.27,19.952,30.789,19.976,30.477,19.694z
	 M22.342,37.732c1.269-1.571,2.646-2.042,4.242-2.589c0.16-0.054,0.323-0.11,0.49-0.169c0.397-0.138,0.831,0.071,0.969,0.468
	c0.138,0.396-0.071,0.831-0.468,0.969c-0.17,0.059-0.336,0.116-0.498,0.172c-1.541,0.524-2.559,0.875-3.552,2.106
	c-0.987,1.222-1.768,2.946-1.287,4.049c0.168,0.385-0.008,0.832-0.393,1.001c-0.1,0.042-0.203,0.063-0.304,0.063
	c-0.293,0-0.572-0.17-0.697-0.455C20.057,41.548,21.102,39.268,22.342,37.732z M32.211,43.02c0.192,0.375,0.044,0.832-0.33,1.023
	c-0.216,0.109-0.449,0.223-0.693,0.332c-0.101,0.047-0.207,0.068-0.312,0.068c-0.29,0-0.567-0.168-0.694-0.448
	c-0.172-0.384-0.002-0.833,0.381-1.006c0.221-0.101,0.431-0.2,0.624-0.3C31.561,42.498,32.02,42.646,32.211,43.02z M20.567,45.458
	c2.028-0.122,5.074-0.746,7.579-1.556c0.4-0.129,0.829,0.091,0.958,0.49c0.129,0.398-0.09,0.828-0.49,0.957
	c-2.656,0.857-5.779,1.496-7.956,1.627c-0.015,0.002-0.03,0.002-0.046,0.002c-0.399,0-0.734-0.312-0.759-0.715
	C19.828,45.844,20.147,45.484,20.567,45.458z M32.949,53.531c0.413,0,0.752,0.332,0.76,0.746c0.008,0.421-0.325,0.769-0.746,0.777
	c-0.052,0.002-0.105,0.002-0.157,0.002c-1.828,0-3.339-0.625-4.979-1.38c-0.382-0.175-0.549-0.626-0.374-1.009
	c0.176-0.381,0.627-0.55,1.009-0.373c1.514,0.695,2.896,1.236,4.471,1.236C32.938,53.531,32.943,53.531,32.949,53.531z
	 M34.314,45.193c0.187,0.377,0.035,0.832-0.341,1.021c-5.8,2.892-11.584,3.177-13.63,3.177c-0.445,0-0.713-0.013-0.766-0.017
	c-0.419-0.022-0.741-0.381-0.718-0.802c0.023-0.418,0.384-0.74,0.802-0.717c0.097,0.006,6.959,0.324,13.632-3.004
	C33.669,44.665,34.126,44.818,34.314,45.193z"/>
</svg>
