<?xml version="1.0" encoding="utf-8"?>
<!-- Generator: Adobe Illustrator 16.0.0, SVG Export Plug-In . SVG Version: 6.00 Build 0)  -->
<!DOCTYPE svg PUBLIC "-//W3C//DTD SVG 1.1//EN" "http://www.w3.org/Graphics/SVG/1.1/DTD/svg11.dtd">
<svg version="1.1" id="Layer_1" xmlns="http://www.w3.org/2000/svg" xmlns:xlink="http://www.w3.org/1999/xlink" x="0px" y="0px"
	 width="72px" height="72px" viewBox="0 0 72 72" enable-background="new 0 0 72 72" xml:space="preserve">
<path fill="#444444" d="M39.996,28.848l-0.373,1.026c0.227,0.082,0.447,0.173,0.662,0.271c-0.444,0.37-0.813,0.774-1.08,1.205
	c-0.491-0.791-1.293-1.499-2.329-2.036c0.257,0.017,0.513,0.042,0.761,0.075l0.147-1.082c-0.532-0.072-1.087-0.109-1.65-0.109
	c-3.542,0-6.45,1.406-8.645,4.178c-3.871,4.892-4.562,13.11-3.241,18.707c1.424,6.031,6.089,9.931,11.886,9.931
	c5.798,0,10.464-3.898,11.886-9.931C49.781,43.616,47.973,31.738,39.996,28.848z M35.388,29.316
	c-1.034,0.537-1.835,1.243-2.324,2.033c-0.268-0.43-0.635-0.833-1.079-1.203C33.025,29.673,34.162,29.396,35.388,29.316z
	 M28.346,33.053c0.766-0.967,1.63-1.748,2.585-2.344c1.007,0.704,1.584,1.583,1.585,2.45h1.093c0-1.113,0.984-2.271,2.525-2.996
	c1.541,0.724,2.525,1.883,2.526,2.996h1.092c0-0.867,0.577-1.744,1.583-2.448c1.253,0.778,2.298,1.836,3.149,3.087
	c-0.976,0.528-1.734,1.211-2.205,1.969c-0.569-0.922-1.563-1.733-2.858-2.29l-0.215-0.093l-0.216,0.093
	c-1.295,0.555-2.286,1.366-2.856,2.288c-0.57-0.922-1.563-1.732-2.856-2.288l-0.216-0.093l-0.215,0.093
	c-1.296,0.556-2.289,1.368-2.859,2.29c-0.468-0.754-1.221-1.434-2.186-1.959C27.976,33.55,28.155,33.295,28.346,33.053z
	 M27.225,34.74c1.376,0.732,2.217,1.787,2.219,2.832h1.092c0.002-1.111,0.985-2.269,2.526-2.994
	c1.541,0.725,2.525,1.883,2.526,2.994h1.094c0-1.111,0.982-2.269,2.524-2.994c1.541,0.725,2.524,1.883,2.526,2.994h1.092
	c0.002-1.049,0.852-2.109,2.236-2.841c0.698,1.229,1.242,2.593,1.637,4.029c-0.566,0.424-1.027,0.903-1.346,1.418
	c-0.569-0.922-1.563-1.732-2.857-2.289l-0.217-0.092l-0.215,0.092c-1.295,0.557-2.287,1.367-2.856,2.287
	c-0.569-0.92-1.563-1.73-2.856-2.287l-0.216-0.092l-0.214,0.092c-1.295,0.557-2.287,1.366-2.858,2.287
	c-0.569-0.921-1.563-1.73-2.856-2.287l-0.216-0.092l-0.215,0.092c-1.295,0.557-2.288,1.367-2.858,2.289
	c-0.315-0.508-0.768-0.982-1.325-1.402C25.988,37.34,26.528,35.971,27.225,34.74z M25.303,39.947
	c0.682,0.623,1.067,1.339,1.068,2.037h1.093c0-1.112,0.984-2.271,2.525-2.996c1.542,0.725,2.525,1.884,2.526,2.996h1.093
	c0-1.112,0.984-2.271,2.525-2.996c1.541,0.725,2.525,1.884,2.526,2.996h1.092c0.001-1.112,0.985-2.271,2.526-2.996
	c1.541,0.725,2.525,1.884,2.525,2.996h1.094c0-0.705,0.392-1.426,1.086-2.053c0.256,1.172,0.422,2.373,0.506,3.571
	c-0.528-0.47-1.178-0.881-1.924-1.2L45.35,42.21l-0.217,0.093c-1.294,0.557-2.285,1.366-2.855,2.288
	c-0.57-0.922-1.563-1.731-2.857-2.288l-0.215-0.093l-0.217,0.093c-1.295,0.557-2.285,1.366-2.855,2.288
	c-0.57-0.922-1.563-1.731-2.856-2.288l-0.216-0.093l-0.215,0.093c-1.295,0.557-2.287,1.366-2.857,2.288
	c-0.57-0.922-1.563-1.731-2.857-2.288l-0.215-0.093l-0.216,0.093c-0.737,0.316-1.379,0.721-1.905,1.186
	C24.883,42.3,25.049,41.111,25.303,39.947z M28.966,57.253c0.307-0.224,0.646-0.427,1.021-0.604
	c1.395,0.654,2.326,1.664,2.493,2.672C31.17,58.871,29.989,58.169,28.966,57.253z M36.133,59.92c-0.878,0-1.718-0.104-2.525-0.285
	c0.007-1.109,0.988-2.264,2.525-2.986c1.536,0.724,2.52,1.877,2.525,2.986C37.852,59.816,37.012,59.92,36.133,59.92z M39.787,59.32
	c0.169-1.01,1.1-2.019,2.49-2.672c0.377,0.178,0.717,0.381,1.025,0.604C42.279,58.169,41.098,58.871,39.787,59.32z M44.083,56.473
	c-0.462-0.358-0.994-0.668-1.589-0.924l-0.217-0.093l-0.215,0.093c-1.295,0.557-2.287,1.367-2.856,2.287
	c-0.569-0.92-1.563-1.73-2.856-2.287l-0.216-0.093l-0.214,0.093c-1.295,0.557-2.287,1.366-2.858,2.287
	c-0.569-0.921-1.563-1.73-2.856-2.287l-0.216-0.093l-0.215,0.093c-0.596,0.256-1.128,0.565-1.592,0.924
	c-0.929-1.021-1.693-2.244-2.25-3.65c0.301-0.217,0.622-0.418,0.984-0.588c1.541,0.726,2.524,1.883,2.526,2.996h1.092
	c0.002-1.112,0.985-2.271,2.526-2.996c1.541,0.726,2.525,1.884,2.526,2.996h1.093c0.002-1.112,0.983-2.271,2.525-2.996
	c1.541,0.726,2.525,1.884,2.525,2.996h1.092c0.002-1.112,0.986-2.271,2.527-2.996c0.36,0.17,0.685,0.371,0.984,0.588
	C45.775,54.229,45.012,55.451,44.083,56.473z M46.957,50.83c-0.073,0.313-0.159,0.615-0.25,0.914
	c-0.354-0.229-0.73-0.436-1.143-0.61l-0.213-0.093l-0.218,0.093c-1.294,0.556-2.286,1.366-2.856,2.288
	c-0.569-0.922-1.563-1.732-2.856-2.288l-0.215-0.093l-0.216,0.093c-1.295,0.556-2.285,1.366-2.856,2.288
	c-0.57-0.922-1.563-1.732-2.856-2.288l-0.216-0.093l-0.215,0.093c-1.295,0.556-2.287,1.366-2.857,2.288
	c-0.57-0.922-1.563-1.732-2.857-2.288l-0.215-0.093l-0.215,0.093c-0.41,0.177-0.79,0.382-1.142,0.61
	c-0.091-0.299-0.176-0.602-0.25-0.914c-0.177-0.748-0.313-1.551-0.411-2.381c0.922,0.684,1.471,1.537,1.472,2.365h1.093
	c0-1.113,0.984-2.271,2.525-2.996c1.542,0.725,2.525,1.883,2.526,2.996h1.093c0-1.113,0.984-2.271,2.525-2.996
	c1.541,0.725,2.525,1.883,2.526,2.996h1.092c0.001-1.113,0.984-2.271,2.525-2.996c1.543,0.725,2.525,1.883,2.527,2.996h1.092
	c0.002-0.828,0.551-1.685,1.476-2.369C47.271,49.277,47.135,50.078,46.957,50.83z M47.5,47.068c-0.954,0.527-1.691,1.195-2.15,1.936
	c-0.57-0.92-1.562-1.729-2.854-2.285l-0.216-0.092l-0.215,0.092c-1.295,0.557-2.287,1.366-2.857,2.287
	c-0.57-0.921-1.563-1.73-2.856-2.287l-0.216-0.092l-0.214,0.092c-1.295,0.557-2.287,1.366-2.858,2.287
	c-0.569-0.921-1.563-1.73-2.856-2.287l-0.216-0.092l-0.215,0.092c-1.294,0.557-2.286,1.365-2.856,2.285
	c-0.457-0.738-1.191-1.404-2.141-1.93c-0.037-0.596-0.062-1.199-0.058-1.813c0.416-0.731,1.185-1.383,2.197-1.856
	c1.541,0.726,2.524,1.884,2.526,2.996h1.092c0.002-1.112,0.985-2.271,2.526-2.996c1.541,0.726,2.525,1.884,2.526,2.996h1.094
	c0-1.112,0.982-2.271,2.524-2.996c1.541,0.726,2.524,1.884,2.526,2.996h1.092c0.001-1.112,0.984-2.271,2.527-2.996
	c1.016,0.477,1.787,1.132,2.201,1.865C47.557,45.878,47.538,46.479,47.5,47.068z M27.39,23.148l-0.912-0.906l1.285-0.028
	c2.264-0.05,4.331,0.731,5.96,2.216c0.133-2.103,0.741-3.762,1.97-5.488l0.443-0.624l0.445,0.624
	c1.228,1.725,1.835,3.385,1.968,5.488c1.629-1.486,3.713-2.264,5.96-2.216l1.285,0.028l-0.911,0.906
	c-1.561,1.548-2.682,3.231-3.533,5.296l-1.01-0.417c0.725-1.761,1.637-3.262,2.824-4.638c-1.846,0.276-3.486,1.22-4.713,2.735
	l-1.01,1.245l0.039-1.603c0.053-2.224-0.342-3.879-1.346-5.52c-1.004,1.641-1.399,3.297-1.345,5.52l0.039,1.603l-1.009-1.245
	c-1.228-1.515-2.869-2.459-4.714-2.735c1.187,1.376,2.098,2.877,2.825,4.638l-1.01,0.417C30.069,26.378,28.946,24.696,27.39,23.148z
	 M28.793,18.869c1.242-0.026,2.145,0.125,3.145,0.583c-0.583-1.331-1.495-2.715-2.479-3.723l-0.878-0.896l1.254-0.031
	c1.429-0.035,2.902,0.118,4.201,1.256c0.164-1.718,0.729-3.155,1.736-4.45l0.431-0.554l0.431,0.554
	c1.007,1.295,1.571,2.732,1.735,4.45c1.299-1.138,2.77-1.292,4.199-1.256l1.255,0.031l-0.878,0.896
	c-0.984,1.008-1.895,2.392-2.479,3.723c0.999-0.458,1.906-0.608,3.145-0.583l1.41,0.03l-1.063,0.926
	c-0.662,0.577-1.31,1.451-1.733,2.338l-0.984-0.471c0.279-0.584,0.635-1.152,1.031-1.659c-0.834,0.132-1.551,0.449-2.51,1.057
	l-1.182,0.749l0.359-1.351c0.397-1.486,1.285-3.169,2.371-4.547c-1.16,0.142-2.146,0.61-2.996,1.806l-1.027,1.445l0.037-1.773
	c0.037-1.794-0.32-3.252-1.122-4.528c-0.803,1.277-1.161,2.735-1.122,4.528l0.037,1.774l-1.028-1.446
	c-0.851-1.196-1.836-1.664-2.997-1.806c1.085,1.379,1.974,3.061,2.37,4.547l0.361,1.351l-1.181-0.749
	c-0.958-0.608-1.678-0.925-2.511-1.057c0.397,0.507,0.753,1.075,1.032,1.659l-0.985,0.471c-0.423-0.887-1.071-1.761-1.732-2.338
	l-1.064-0.926L28.793,18.869z"/>
</svg>
