<?xml version="1.0" encoding="utf-8"?>
<!-- Generator: Adobe Illustrator 16.0.0, SVG Export Plug-In . SVG Version: 6.00 Build 0)  -->
<!DOCTYPE svg PUBLIC "-//W3C//DTD SVG 1.1//EN" "http://www.w3.org/Graphics/SVG/1.1/DTD/svg11.dtd">
<svg version="1.1" id="Layer_1" xmlns="http://www.w3.org/2000/svg" xmlns:xlink="http://www.w3.org/1999/xlink" x="0px" y="0px"
	 width="72px" height="72px" viewBox="0 0 72 72" enable-background="new 0 0 72 72" xml:space="preserve">
<path fill="#444444" d="M56.305,39.943c-2.791-3.639-5.744-4.327-10.224-4.327c-8.325,0.001-16.09,5.954-18.063,13.851
	c-0.981,3.934,1.594,6.949,7.254,8.492c1.612,0.438,3.387,0.661,5.275,0.661c3.646,0,7.534-0.859,10.665-2.358
	c3.493-1.673,6.069-4.72,6.892-8.156C58.798,45.208,58.178,42.383,56.305,39.943z M56.607,47.748
	c-0.705,2.943-3.028,5.676-6.06,7.126c-2.932,1.403-6.575,2.208-10.001,2.208c-1.751,0-3.39-0.206-4.87-0.607
	c-2.281-0.621-4.765-1.701-5.808-3.542c0.907,0.396,1.813,0.569,2.713,0.569c2.768,0,5.473-1.6,7.947-3.063
	c1.043-0.615,2.029-1.196,2.957-1.625c0.47-0.217,1.014-0.496,1.531-0.768c0.377-0.197,0.522-0.662,0.325-1.039
	c-0.196-0.377-0.661-0.521-1.038-0.326c-0.5,0.264-1.022,0.531-1.462,0.734c-1,0.459-2.019,1.061-3.097,1.699
	c-3.345,1.979-6.802,4.023-10.034,2.002c-0.107-0.067-0.224-0.096-0.341-0.106c0-0.369,0.038-0.756,0.141-1.17
	c1.805-7.233,8.929-12.687,16.578-12.688c4.157,0,6.563,0.557,8.994,3.727c0.687,0.896,1.161,1.854,1.445,2.846
	c-1.486-0.689-3.381-0.702-5.676-0.007c-0.408,0.123-0.638,0.552-0.514,0.959s0.553,0.638,0.959,0.515
	c2.527-0.769,4.336-0.57,5.531,0.58C56.835,46.423,56.767,47.083,56.607,47.748z M48.532,45.416
	c0.181,0.384,0.018,0.842-0.366,1.023c-0.296,0.142-0.589,0.283-0.876,0.427c-0.108,0.058-0.228,0.083-0.345,0.083
	c-0.28,0-0.553-0.155-0.688-0.426c-0.189-0.379-0.035-0.842,0.346-1.032c0.295-0.147,0.599-0.296,0.903-0.442
	C47.893,44.867,48.352,45.032,48.532,45.416z M44.85,24.064c0.039-3.178-1.275-5.97-3.797-8.069
	c-2.267-1.884-4.439-2.729-7.042-2.729c-1.273,0-2.699,0.191-4.628,0.628c-8.681,1.969-15.37,10.006-15.559,18.704
	c-0.094,4.311,3.296,6.806,9.545,7.075c0.257,0.013,0.52-0.026,0.783-0.026c5.115,0,11.177-2.136,15.446-5.509
	C42.84,31.571,44.803,27.835,44.85,24.064z M24.152,38.197c-0.241,0-0.482-0.004-0.718-0.014c-2.603-0.113-5.541-0.679-7.052-2.459
	c0.587,0.132,1.157,0.202,1.708,0.202c4.11,0,7.259-3.425,10.093-6.506c2.002-2.175,3.892-4.23,5.983-5.154
	c0.388-0.172,0.564-0.626,0.392-1.016c-0.172-0.389-0.626-0.565-1.014-0.393c-2.385,1.055-4.473,3.325-6.493,5.521
	c-3.405,3.702-6.621,7.196-11.142,5.619c-0.137-0.048-0.274-0.042-0.406-0.015c-0.098-0.405-0.152-0.843-0.142-1.326
	c0.173-8.016,6.347-15.431,14.361-17.25c1.811-0.411,3.134-0.594,4.287-0.594c2.248,0,4.059,0.708,6.059,2.37
	c0.963,0.801,1.706,1.723,2.245,2.732c-2.014-0.483-4.394,0.204-7.215,2.079c-0.354,0.235-0.449,0.713-0.215,1.067
	c0.15,0.224,0.394,0.344,0.643,0.344c0.145,0,0.294-0.043,0.424-0.129c3.027-2.014,5.355-2.456,7.116-1.38
	c0.164,0.69,0.251,1.407,0.242,2.152c-0.039,3.262-1.828,6.685-4.666,8.93C34.63,36.152,28.942,38.197,24.152,38.197z"/>
</svg>
