<?xml version="1.0" encoding="utf-8"?>
<!-- Generator: Adobe Illustrator 16.0.0, SVG Export Plug-In . SVG Version: 6.00 Build 0)  -->
<!DOCTYPE svg PUBLIC "-//W3C//DTD SVG 1.1//EN" "http://www.w3.org/Graphics/SVG/1.1/DTD/svg11.dtd">
<svg version="1.1" id="Layer_1" xmlns="http://www.w3.org/2000/svg" xmlns:xlink="http://www.w3.org/1999/xlink" x="0px" y="0px"
	 width="72px" height="72px" viewBox="0 0 72 72" enable-background="new 0 0 72 72" xml:space="preserve">
<g>
	<path fill="#444444" d="M26.829,39.445c1.687,1.947,4.059,2.353,6.515,2.121c0.805-0.076,1.607-0.198,2.418-0.196
		c0.561,0.002,1.239,0.293,1.775,0.214c0.452-0.066,0.507-0.817,0.64-1.143c-0.559-0.227-1.155-0.349-1.754-0.397
		c-0.429-0.035-1.34,0.217-1.691-0.094c-0.354-0.313-0.458-0.91-0.809-1.269c-0.83-0.845-1.978-1.095-3.045-1.494
		c-2.359-0.884-2.34-3.802,0.105-4.678c1.806-0.647,3.936,1.3,4.694,2.774c0.952,1.848,1.622,4.14,3.753,4.952
		c0.502,0.191,0.927-0.69,0.609-1.129c-0.26-0.359-0.881-0.523-1.211-0.852c-0.816-0.812-1.167-1.932-1.667-2.94
		c-0.992-2-2.489-3.841-4.845-4.116c1.031-0.726,2.155-1.318,3.334-1.766c-0.146,1.337,0.689,2.424,1.314,3.52
		c0.236,0.414,0.247,0.776,0.404,1.197c0.146,0.393,0.995,0.398,1.321,0.466c0.298-1.426-0.729-2.569-1.365-3.723
		c-0.747-1.353-0.178-2.004,1.137-2.243c-0.059,1.842,1.721,2.932,2.1,4.632c-0.966,1.479-1.554,3.573-0.432,5.136
		c0.287-0.206,0.904-0.401,0.97-0.813c0.078-0.495-0.285-1.036-0.214-1.585c0.132-1.028,0.726-1.925,1.324-2.741
		c1.447-1.969,2.182-3.807,2.122-6.292c-1.391,0.034-1.284,0.032-1.403,1.287c-0.126,1.352-0.616,2.57-1.416,3.663
		c-0.309-0.664-2.236-2.525-1.641-3.308c0.283-0.371,0.865-0.145,1.246-0.197c0.481-0.065,0.279-1.108,0.279-1.406
		c-7.81,0.005-15.411,5.629-16.125,13.702c0.451,0.04,0.902,0.081,1.353,0.121C26.667,40.377,26.736,39.908,26.829,39.445z
		 M27.916,36.281c0.478,1.184,1.559,1.847,2.712,2.26c0.933,0.335,2.338,0.564,2.671,1.666c-2.174,0.245-5.175-0.022-5.983-2.502
		C27.444,37.343,27.818,36.48,27.916,36.281z"/>
	<path fill="#444444" d="M34.868,36.402C34.718,36.304,34.643,36.254,34.868,36.402L34.868,36.402z"/>
	<path fill="#444444" d="M34.911,36.431c-0.022-0.014-0.025-0.017-0.043-0.029C34.883,36.413,34.896,36.421,34.911,36.431
		L34.911,36.431z"/>
	<path fill="#444444" d="M34.965,36.467c0.079,0.053,0.159,0.104,0.238,0.157c0.046,0.03,0.093,0.061,0.139,0.091
		c-0.05-0.032-0.099-0.065-0.148-0.098c0,0,0,0,0.001,0.001c-0.069-0.046-0.182-0.121-0.283-0.187
		c0.01,0.007,0.02,0.015,0.031,0.022C34.949,36.458,34.958,36.462,34.965,36.467z"/>
	<path fill="#444444" d="M22.58,28.119c-0.786,0.522-1.551,1.076-2.286,1.668c-1.171,0.944-2.258,1.997-3.208,3.165
		c-0.146,0.158-0.368,0.438-0.697,0.901c0.328,0.233,0.923,1.021,1.333,0.476c0.559-0.746,1.184-1.439,1.852-2.088
		c0.677-0.657,1.398-1.269,2.147-1.842c0.582-0.444,1.861-0.987,2.211-1.626c0.162-0.295-0.161-0.621-0.318-0.823
		C23.205,27.422,23.076,27.789,22.58,28.119z"/>
	<path fill="#444444" d="M32.058,33.997c-0.046-0.319-1.059-0.306-1.307-0.347c-0.299,1.798,1.355,2.727,2.687,3.481
		c0.56,0.317,0.932,0.586,1.324,1.093c0.642,0.831,0.636,0.761,1.788,0.769c0.008-1.096-0.755-1.954-1.608-2.539
		c-0.749-0.486-1.65-0.735-2.309-1.359C32.319,34.797,32.119,34.426,32.058,33.997z"/>
	<path fill="#444444" d="M27.005,55.6c-1.017-0.111-2.027-0.295-3.016-0.557c-1.971-0.521-3.869-1.358-5.531-2.547
		c-3.417-2.446-5.545-6.426-5.545-10.643c0-6.817,5.035-11.705,10.353-15.208c3.084-2.032,5.54-4.921,7.102-8.263
		c0.174-0.372,0.533-1.982,1.119-1.786c0.287,0.097,1.05,0.197,0.946,0.591c-0.458,1.749-0.04,3.801,0.69,5.414
		c0.551-0.25,1.273-0.31,1.092-1.038c-0.156-0.628-0.438-1.186-0.524-1.834c-0.128-0.958-0.091-1.956,0.213-2.878
		c0.21-0.639-0.296-1.012-0.833-1.207c-1.04-0.377-2.644-1.089-3.219,0.16c-0.76,1.648-1.243,3.236-2.296,4.764
		c-2.224,3.226-5.424,5.051-8.45,7.404c-2.985,2.323-5.469,5.185-6.697,8.813c-2.375,7.016,0.619,14.357,7.084,17.875
		c1.421,0.773,2.944,1.354,4.511,1.756c0.786,0.201,1.583,0.356,2.386,0.468c0.4,0.055,0.802,0.1,1.205,0.133
		c0.73,0.06,0.788,0.153,0.879-0.574C28.595,55.493,27.709,55.677,27.005,55.6z"/>
	<path fill="#444444" d="M51.498,31.983c0.408,0.348,0.715,0.801,1.139,1.135c0.543,0.429,0.931-0.239,1.34-0.598
		c-2.061-2.353-4.85-4.011-7.854-4.847c-0.354,1.267-0.35,1.409,0.929,1.751c0.65,0.174-0.26,1.527-0.535,1.807
		c-1.071,1.088-2.637,1.542-3.659,2.692c-0.29,0.326-0.519,0.705-0.641,1.126c-0.163,0.562-0.106,0.549,0.431,0.642
		c0.567,0.099,0.718,0.191,0.896-0.344c0.162-0.482,0.527-0.871,0.916-1.182c1.519-1.217,3.816-1.872,4.108-4.101
		c0.754,0.377,2.313,0.842,1.371,1.885c-0.93,1.028-2.461,1.407-3.534,2.272c-1.036,0.835-1.403,2.249-2.602,2.834
		c-1.229,0.601-2.342,1.6-2.792,2.925c0.704,0.24,1.199,0.643,1.63-0.131c0.402-0.722,1.021-1.214,1.745-1.604
		c0.86-0.462,3.082-1.454,4.034-0.769c0.596,0.429,0.973,1.274,1.536,1.781c0.636,0.57,1.402,1.061,2.273,1.134
		c1.098,0.093,3.58-1.378,3.958,0.423c0.18,0.856,0.245,2.262-0.927,2.198c-0.981-0.053-1.971-0.521-2.836-0.953
		c-1.303-0.65-2.398-1.669-3.762-2.204c-1.536-0.603-3.508-0.588-5.014,0.1c0.687,1.51,0.635,0.991,2.133,0.866
		c1.271-0.107,2.472,0.188,3.559,0.848c2.099,1.272,3.988,2.879,6.622,2.628c-0.098,0.483-0.222,0.962-0.381,1.429
		c-0.474-0.065-0.941-0.175-1.394-0.328c-0.594-0.2-1.235-0.901-1.608-0.201c-0.406,0.759-0.426,0.813,0.396,1.182
		c0.661,0.297,1.359,0.508,2.072,0.637c-1.241,2.527-4.025-0.813-4.652-2.199c-0.861-1.875-2.295-3.609-4.576-3.183
		c0.064,0.344-0.027,1.027,0.322,1.248c0.309,0.195,0.873,0.045,1.242,0.207c0.997,0.437,1.41,1.533,1.884,2.43
		c0.963,1.82,2.185,3.415,4.37,3.671c-0.591,0.739-1.302,1.375-2.05,1.949c-0.435-1.289-1.376-2.366-2.439-3.185
		c-0.432-0.333-1.059-0.567-1.418-0.974c-0.312-0.353-0.318-0.876-0.492-1.294c-0.913-2.197-3.037-3.562-5.119-4.51
		c-0.145,0.317-0.731,1.088-0.345,1.379c0.382,0.287,0.91,0.394,1.324,0.64c1.204,0.715,2.35,1.706,2.896,3.028
		c0.669,1.619,0.007,3.262-0.312,4.874c-0.272,1.367,0.097,2.828,0.703,4.057c0.344-0.171,1.19-0.353,1.124-0.844
		c-0.063-0.469-0.341-0.874-0.435-1.332c-0.307-1.513,0.389-2.94,0.572-4.418c0.968,0.599,2.329,1.72,2.65,2.854
		c0.192,0.68-0.459,0.854-0.951,1.074c-1.068,0.479-0.814,0.767-0.391,1.748c2.166-0.938,5.686-4.127,5.686-4.127l0.312-0.422
		c2.881-3.952,3.386-9.136,1.313-13.647c-0.763,0.349-1.291,0.273-1.009,1.11c0.168,0.499,0.37,0.994,0.509,1.502
		c-1.187-0.298-2.255,0.41-3.426,0.41c-0.988,0-1.81-1.065-2.342-1.776c2.271-0.086,4.072-1.139,5.568-2.802
		c-0.795-0.714-0.769-1.028-1.537-0.35c-0.442,0.391-0.89,0.864-1.397,1.172c-1.86,1.129-4.151,0.434-6.181,0.809
		C47.77,34.328,50.626,34.168,51.498,31.983z"/>
	<path fill="#444444" d="M44.398,54.15c-0.472-0.041-0.924,0.148-1.387,0.19c0.429-2.166-0.887-4.005-1.73-5.88
		c-0.397-0.884-0.724-1.841-0.583-2.824c0.072-0.502,0.555-0.957,0.581-1.415c0.023-0.412-0.514-0.745-0.742-1.019
		c-0.795,0.665-1.167,1.685-1.215,2.698c-0.051,1.054,0.976,2.683,0.398,3.55c-0.823,1.235-0.813,2.415-1.065,3.841
		c-0.102,0.569-0.311,1.033-0.561,1.544c-0.263,0.535,0.779,0.787,1.106,0.943c0.418-0.876,0.824-1.784,0.961-2.754
		c0.126-0.917-0.027-1.928,0.548-2.725c0.576,1.103,1.215,2.362,0.996,3.647c-0.128,0.752-0.318,0.367-0.856,0.425
		c-0.451,0.049-0.304,1.107-0.316,1.384c1.461,0.076,2.931-0.034,4.369-0.299C44.836,55.095,44.889,54.192,44.398,54.15z"/>
	<path fill="#444444" d="M44.186,48.608c-0.191-0.826,0.156-1.68-0.09-2.503c-0.267-0.896-0.932-1.611-1.679-2.145
		c-0.351,0.493-0.898,0.863-0.452,1.422c0.385,0.483,0.847,0.86,0.904,1.513c0.15,1.72-0.159,3.169,1.564,4.249
		c0.22-0.354,0.782-0.882,0.531-1.312C44.725,49.423,44.31,49.08,44.186,48.608z"/>
	<path fill="#444444" d="M54.271,28.663c-3.743-3.338-8.437-5.592-11.212-9.925c-0.712-1.111-1.421-2.335-1.84-3.592
		c-0.202-0.607-0.39-1.893-1.26-1.865c-0.862,0.027-2.202,0.396-2.946,0.826c-0.897,0.52-0.15,1.831-0.081,2.636
		c0.434,4.993-4.164,8.377-7.535,11.232c-2.827,2.394-5.326,5.108-6.509,8.69c-1.215,3.68-1.261,7.834,0.2,11.452
		c2.412,5.973,8.384,9.575,14.57,10.46c10.5,1.5,23.131-4.276,23.131-16.222C61.112,37.652,58.179,32.149,54.271,28.663z
		 M57.449,49.661c-2.041,3.335-5.464,5.579-9.135,6.764c-7.515,2.424-17.447,0.937-22.305-5.828
		c-3.913-5.448-3.405-13.427,0.962-18.464c3.474-4.007,9.238-6.599,10.896-11.969c0.232-0.752,0.367-1.533,0.406-2.319
		c0.034-0.674-0.371-1.921-0.133-2.493c0.196-0.468,1.071-0.452,1.475-0.577c0.35,0.965,0.757,1.909,1.225,2.822
		c1.802,3.518,4.54,6.219,7.765,8.45c5.518,3.815,10.62,8.78,10.811,15.901C59.333,44.62,58.917,47.264,57.449,49.661z"/>
	<path fill="#444444" d="M36.665,53.742c-0.521-0.106-1.033-0.163-0.751-0.847c0.7-1.703,2.903-2.316,3.173-4.269
		c-0.448-0.062-1.368-0.096-1.368-0.096c-0.313,2.048-2.901,2.485-3.253,4.494c-1.36-0.578-2.648-1.338-3.777-2.295
		c2.822,0.565,5.766-0.948,7.131-3.444c0.655-1.196,0.672-2.614,1.305-3.816c0.254-0.482,0.578-0.86,1.1-1.039
		c0.699-0.24,0.36-0.944,0.281-1.53c-2.868,0.382-2.833,3.695-3.888,5.736c-1.506,2.916-5.418,3.652-7.978,1.693
		c1.653-0.435,2.422-2.011,3.255-3.345c0.302-0.483,0.697-0.879,1.102-1.277c0.612-0.603,0.311-0.748-0.034-1.591
		c-1.917,0.782-2.229,3.041-3.667,4.32c-0.413,0.368-0.961,0.696-1.541,0.605c-0.294-0.592-0.544-1.207-0.727-1.843
		c-0.305-0.114-0.818,0.19-1.089,0.298c-0.43,0.169,0.179,1.244,0.345,1.617c1.871,4.221,6.035,6.997,10.413,8.087
		C36.798,54.798,37.304,53.872,36.665,53.742z"/>
	<path fill="#444444" d="M36.271,42.658c-0.731,0.304-1.402,0.746-1.979,1.288c-1.152,1.084-1.761,2.351-2.151,4.132
		c0.431,0.046,0.917,0.109,1.347,0.156c-0.066-0.007,0.783-1.991,0.866-2.159c0.247-0.498,0.604-0.906,1.022-1.274
		c0.287-0.251,1.758-0.949,1.703-1.198C36.964,43.07,36.826,42.428,36.271,42.658z"/>
	<path fill="#444444" d="M27.12,43.861c0.941-0.153,1.441-0.262,2.833-0.127c0.043-0.45,0.106-0.831,0.15-1.281
		c-0.976-0.096-1.965-0.103-2.938,0.029c-0.486,0.065-0.967,0.166-1.436,0.31c-0.615,0.188-0.456,0.167-0.314,0.676
		C25.718,44.557,26.181,44.014,27.12,43.861z"/>
</g>
</svg>
