<?xml version="1.0" encoding="utf-8"?>
<!-- Generator: Adobe Illustrator 16.0.0, SVG Export Plug-In . SVG Version: 6.00 Build 0)  -->
<!DOCTYPE svg PUBLIC "-//W3C//DTD SVG 1.1//EN" "http://www.w3.org/Graphics/SVG/1.1/DTD/svg11.dtd">
<svg version="1.1" id="Layer_1" xmlns="http://www.w3.org/2000/svg" xmlns:xlink="http://www.w3.org/1999/xlink" x="0px" y="0px"
	 width="72px" height="72px" viewBox="0 0 72 72" enable-background="new 0 0 72 72" xml:space="preserve">
<path fill="#444444" d="M32.523,41.514c0.343,0.155,0.494,0.562,0.337,0.903l-0.579,1.269c-0.115,0.252-0.363,0.399-0.622,0.399
	c-0.095,0-0.191-0.021-0.283-0.063c-0.342-0.155-0.494-0.561-0.337-0.903l0.579-1.269C31.775,41.506,32.181,41.355,32.523,41.514z
	 M57.529,33.794c-0.346-0.157-0.75-0.006-0.904,0.338L56.047,35.4c-0.158,0.342-0.006,0.748,0.336,0.903
	c0.092,0.042,0.189,0.062,0.283,0.062c0.26,0,0.508-0.147,0.621-0.398l0.58-1.268C58.023,34.356,57.873,33.951,57.529,33.794z
	 M53.781,35.9c-0.344-0.158-0.748-0.006-0.904,0.337l-0.578,1.265c-0.156,0.344-0.006,0.749,0.338,0.904
	c0.092,0.043,0.188,0.063,0.283,0.063c0.258,0,0.506-0.148,0.621-0.398l0.578-1.266C54.275,36.46,54.125,36.055,53.781,35.9z
	 M57.527,38.195c-0.344-0.158-0.748-0.006-0.902,0.338l-0.58,1.268c-0.156,0.342-0.006,0.748,0.338,0.904
	c0.092,0.041,0.188,0.063,0.283,0.063c0.26,0,0.508-0.147,0.621-0.399l0.578-1.269C58.021,38.757,57.871,38.352,57.527,38.195z
	 M53.492,41.26c-0.344-0.156-0.748-0.006-0.904,0.338l-0.578,1.269c-0.156,0.343-0.006,0.748,0.338,0.903
	c0.092,0.043,0.188,0.063,0.281,0.063c0.26,0,0.508-0.147,0.623-0.399l0.578-1.269C53.986,41.822,53.836,41.416,53.492,41.26z
	 M48.479,42.146c-0.345-0.157-0.748-0.006-0.903,0.338l-0.578,1.268c-0.157,0.342-0.006,0.748,0.337,0.904
	c0.094,0.041,0.188,0.061,0.282,0.061c0.26,0,0.508-0.146,0.622-0.398l0.578-1.268C48.973,42.708,48.822,42.303,48.479,42.146z
	 M29.063,44.715c-0.342-0.156-0.748-0.006-0.905,0.336l-0.579,1.268c-0.157,0.345-0.006,0.748,0.337,0.904
	c0.092,0.043,0.188,0.063,0.283,0.063c0.259,0,0.507-0.147,0.622-0.397L29.4,45.62C29.557,45.275,29.406,44.871,29.063,44.715z
	 M32.234,46.775c-0.343-0.156-0.748-0.008-0.905,0.336l-0.579,1.268c-0.157,0.344-0.006,0.748,0.337,0.904
	c0.092,0.043,0.188,0.063,0.283,0.063c0.259,0,0.507-0.147,0.621-0.4l0.579-1.268C32.728,47.336,32.577,46.93,32.234,46.775z
	 M26.952,49.385c-0.343-0.156-0.748-0.006-0.905,0.338l-0.579,1.269c-0.156,0.344-0.005,0.748,0.337,0.903
	c0.092,0.041,0.188,0.063,0.284,0.063c0.259,0,0.507-0.147,0.621-0.399l0.579-1.269C27.445,49.947,27.294,49.541,26.952,49.385z
	 M22.94,46.141c-0.342-0.156-0.748-0.006-0.905,0.338l-0.579,1.269c-0.157,0.342-0.006,0.748,0.337,0.903
	c0.092,0.041,0.188,0.063,0.283,0.063c0.259,0,0.507-0.147,0.622-0.399l0.579-1.269C23.434,46.703,23.283,46.297,22.94,46.141z
	 M22.651,50.02c-0.343-0.158-0.749-0.006-0.905,0.336l-0.579,1.269c-0.157,0.344-0.005,0.748,0.337,0.903
	c0.092,0.043,0.188,0.063,0.284,0.063c0.259,0,0.506-0.147,0.621-0.397l0.579-1.269C23.145,50.58,22.994,50.176,22.651,50.02z
	 M59.675,41.813c-1.354,2.705-3.678,4.724-6.547,5.681c-1.164,0.387-2.369,0.584-3.584,0.584c-4.881,0-9.194-3.111-10.739-7.744
	c-0.957-2.869-0.742-5.938,0.611-8.643c0.741-1.483,1.781-2.749,3.038-3.757c-0.478-1.089-2.431-4.889-6.936-6.406
	c1.185,5.608-1.541,9.711-3.226,11.625c1.701,1.458,3.025,3.374,3.771,5.606c2.207,6.625-1.382,13.813-8.006,16.021
	c-1.301,0.435-2.65,0.654-4.009,0.654c-5.457,0-10.284-3.48-12.012-8.66c-1.071-3.209-0.827-6.644,0.685-9.668
	c1.511-3.025,4.112-5.281,7.321-6.353c1.3-0.433,2.649-0.653,4.008-0.653c1.489,0,2.927,0.267,4.271,0.749
	c1.261-1.251,4.594-5.148,2.756-9.946c-0.629,0.016-1.249,0.068-1.881,0.159c-0.18,0.025-0.362-0.021-0.507-0.13
	c-0.144-0.108-0.24-0.27-0.266-0.449l-0.387-2.703c-0.053-0.374,0.206-0.719,0.579-0.773c11.518-1.649,16.324,6.62,17.447,8.976
	c1.131-0.367,2.303-0.556,3.484-0.556c4.881,0,9.195,3.112,10.739,7.741C61.243,36.037,61.027,39.105,59.675,41.813z M24.051,31.465
	c-1.213,0-2.416,0.196-3.576,0.583c-2.864,0.956-5.183,2.968-6.532,5.666c-1.349,2.7-1.566,5.765-0.611,8.627
	c1.542,4.622,5.849,7.728,10.717,7.728c1.212,0,2.415-0.197,3.577-0.584c5.91-1.971,9.114-8.383,7.143-14.293
	C33.226,34.572,28.919,31.466,24.051,31.465z M43.585,27.135c0.392-0.24,0.791-0.463,1.211-0.656
	c-1.013-2.162-5.166-9.325-15.312-8.206l0.194,1.354c0.617-0.065,1.229-0.095,1.855-0.093c0.269,0.001,0.513,0.161,0.622,0.408
	c2.348,5.32-0.835,9.695-2.485,11.477c0.535,0.265,1.046,0.569,1.536,0.905c1.871-2.077,4.357-6.078,2.705-11.576
	c-0.071-0.234-0.012-0.486,0.155-0.664c0.167-0.178,0.415-0.252,0.651-0.199C40.275,21.162,42.816,25.511,43.585,27.135z
	 M58.992,33.6c-1.359-4.073-5.154-6.809-9.445-6.809c-1.068,0-2.129,0.174-3.152,0.514c-2.522,0.843-4.566,2.616-5.756,4.996
	c-1.188,2.38-1.381,5.078-0.539,7.602c1.359,4.074,5.154,6.811,9.445,6.811c1.068,0,2.129-0.174,3.152-0.514
	c2.523-0.844,4.566-2.617,5.756-4.996S59.834,36.125,58.992,33.6z"/>
</svg>
