<?xml version="1.0" encoding="utf-8"?>
<!-- Generator: Adobe Illustrator 16.0.0, SVG Export Plug-In . SVG Version: 6.00 Build 0)  -->
<!DOCTYPE svg PUBLIC "-//W3C//DTD SVG 1.1//EN" "http://www.w3.org/Graphics/SVG/1.1/DTD/svg11.dtd">
<svg version="1.1" id="Layer_1" xmlns="http://www.w3.org/2000/svg" xmlns:xlink="http://www.w3.org/1999/xlink" x="0px" y="0px"
	 width="72px" height="72px" viewBox="0 0 72 72" enable-background="new 0 0 72 72" xml:space="preserve">
<path fill="#444444" d="M57.73,37.841c-2.867-3.879-7.721-5.371-13.323-4.095c-8.164,1.862-12.924-5.175-14.12-7.229l1.494-0.444
	c0.274-0.082,0.484-0.303,0.552-0.58c0.067-0.278-0.018-0.571-0.223-0.77c-0.2-0.191-4.957-4.693-10.789-3.344
	c-0.683-0.233-2.997-1.264-3.277-4.577c-0.149-1.769-0.657-2.794-1.554-3.134c-1.359-0.518-2.777,0.836-3.765,1.775
	c-0.431,0.41-0.606,1.034-0.52,1.854c0.213,2.045,2.138,5.42,4.456,7.242c-3.711,5.024-1.262,10.609-1.151,10.854
	c0.112,0.248,0.342,0.423,0.61,0.463c0.041,0.006,0.082,0.01,0.122,0.01c0.227,0,0.445-0.098,0.599-0.269l0.372-0.416
	c1.116,5.959,5.815,16.944,15.798,21.165c3.383,1.43,6.811,2.116,10.055,2.115c6.648,0,12.511-2.888,15.55-8.177
	C60.792,46.496,60.436,41.497,57.73,37.841z M16.569,33.492c-0.472-1.854-0.873-5.461,1.846-8.595
	c0.009-0.01,0.011-0.023,0.019-0.033c0.019-0.025,0.042-0.045,0.058-0.071c0.018-0.028,0.02-0.062,0.033-0.09
	c0.023-0.05,0.043-0.098,0.055-0.15c0.012-0.051,0.017-0.1,0.019-0.15c0.001-0.052,0.001-0.101-0.006-0.152
	c-0.008-0.05-0.023-0.097-0.04-0.146c-0.017-0.049-0.037-0.095-0.062-0.138c-0.027-0.047-0.062-0.087-0.098-0.128
	c-0.021-0.023-0.033-0.054-0.059-0.075c-0.017-0.016-0.04-0.019-0.058-0.033c-0.017-0.013-0.028-0.032-0.047-0.043
	c-2.014-1.242-3.968-4.305-4.37-6.212c-0.119-0.564-0.052-0.827,0.023-0.913c1.344-1.28,1.846-1.469,2.037-1.393
	c0.108,0.04,0.411,0.438,0.523,1.768c0.337,3.999,3.216,5.714,4.692,6.062c0.172,0.041,0.336,0.012,0.487-0.052
	c0.019-0.002,0.037,0.003,0.056-0.002c3.444-0.8,6.562,0.894,8.171,2.025l-2.265,0.676c-0.215,0.063-0.394,0.214-0.493,0.417
	l-2.746,5.619l-5.172-0.592c-0.257-0.029-0.516,0.069-0.689,0.263L16.569,33.492z M57.223,49.484
	c-4.113,7.156-14.033,9.416-23.584,5.38c-10.18-4.304-14.51-16.123-15.033-21.238l0.798-0.893l5.323,0.609
	c0.344,0.041,0.664-0.14,0.813-0.446l2.841-5.813l0.33-0.099c0.965,1.714,6.456,10.52,16.056,8.329
	c4.945-1.128,9.201,0.14,11.674,3.483C58.732,41.898,59.055,46.293,57.223,49.484z M54.997,40.334
	c2.185,3.176,0.817,7.477,0.759,7.659c-0.111,0.339-0.425,0.555-0.764,0.555c-0.083,0-0.166-0.013-0.249-0.04
	c-0.423-0.137-0.653-0.59-0.517-1.012c0.012-0.037,1.176-3.742-0.56-6.257c-1.022-1.482-2.89-2.302-5.549-2.438
	c-0.443-0.023-0.784-0.402-0.763-0.843c0.024-0.442,0.396-0.785,0.845-0.761C51.393,37.357,53.678,38.415,54.997,40.334z"/>
</svg>
