<?xml version="1.0" encoding="utf-8"?>
<!-- Generator: Adobe Illustrator 16.0.0, SVG Export Plug-In . SVG Version: 6.00 Build 0)  -->
<!DOCTYPE svg PUBLIC "-//W3C//DTD SVG 1.1//EN" "http://www.w3.org/Graphics/SVG/1.1/DTD/svg11.dtd">
<svg version="1.1" id="Layer_1" xmlns="http://www.w3.org/2000/svg" xmlns:xlink="http://www.w3.org/1999/xlink" x="0px" y="0px"
	 width="72px" height="72px" viewBox="0 0 72 72" enable-background="new 0 0 72 72" xml:space="preserve">
<path fill="#444444" d="M58.768,42.467c-1.466-10.325-6.659-11.9-12.119-13.555c-7.159-2.55-6.016-13.307-6.003-13.415
	c0.027-0.241-0.049-0.482-0.211-0.663c-0.161-0.181-0.392-0.285-0.634-0.285H32.8c-0.232,0-0.455,0.096-0.615,0.264
	c-0.161,0.168-0.245,0.396-0.234,0.627c0.002,0.034,0.157,3.413-0.329,7.785c-0.327,2.941-7.347,6.423-10.72,8.096
	c-1.532,0.76-2.35,1.171-2.758,1.498c-2.376,1.899-5.676,6.67-4.419,11.377c2.62,10.48,10.2,11.012,11.693,11.012
	c0.003,0,0.006,0,0.009-0.001c0.082,0.054,0.163,0.099,0.244,0.15c0.187,0.13,0.357,0.266,0.554,0.392
	c0.097,0.063,0.202,0.094,0.309,0.113c1.742,0.943,3.487,1.429,5.205,1.429c2.157,0,3.718-0.763,4.473-1.23
	c1.571,0.872,3.242,1.313,4.973,1.313c3.263,0,5.731-1.567,6.357-2.005c1.453-0.387,11.111-3.313,11.233-12.773
	C58.776,42.554,58.773,42.51,58.768,42.467z M49.656,52.82c1.286-1.92,2.729-4.959,2.517-8.763c-0.026-0.469-0.43-0.828-0.896-0.801
	c-0.469,0.026-0.827,0.428-0.801,0.896c0.32,5.729-3.79,9.651-3.831,9.69c-0.048,0.045-0.075,0.103-0.11,0.155
	c-0.52,0.354-2.637,1.676-5.35,1.676c-1.301,0-2.562-0.318-3.767-0.917c-0.102-0.132-0.229-0.243-0.399-0.298
	c-0.722-0.231-7.059-2.514-7.411-11.309c-0.307-7.649,5.658-10.714,5.915-10.843c0.42-0.208,0.593-0.716,0.386-1.137
	c-0.208-0.42-0.716-0.595-1.138-0.387c-0.294,0.145-7.213,3.653-6.861,12.436c0.28,7,3.998,10.374,6.473,11.858
	c-0.66,0.268-1.549,0.514-2.643,0.514c-1.676,0-3.411-0.566-5.163-1.673c-6.197-4.356-5.88-11.146-5.862-11.442
	c0.029-0.468-0.327-0.872-0.795-0.901c-0.471-0.031-0.871,0.324-0.901,0.792c-0.019,0.289-0.311,6.048,4.087,10.781
	c-2.48-0.727-6.116-2.902-7.734-9.377c-0.996-3.729,1.643-7.872,3.834-9.624c0.285-0.228,1.337-0.75,2.452-1.303
	c5.68-2.817,11.258-5.866,11.654-9.432c0.356-3.207,0.38-5.85,0.361-7.164h5.212c-0.143,2.936,0.057,11.722,7.231,14.276
	c5.382,1.632,9.635,2.922,10.959,12.113C56.967,48.553,52.612,51.497,49.656,52.82z"/>
</svg>
