<?xml version="1.0" encoding="utf-8"?>
<!-- Generator: Adobe Illustrator 16.0.0, SVG Export Plug-In . SVG Version: 6.00 Build 0)  -->
<!DOCTYPE svg PUBLIC "-//W3C//DTD SVG 1.1//EN" "http://www.w3.org/Graphics/SVG/1.1/DTD/svg11.dtd">
<svg version="1.1" id="Layer_1" xmlns="http://www.w3.org/2000/svg" xmlns:xlink="http://www.w3.org/1999/xlink" x="0px" y="0px"
	 width="72px" height="72px" viewBox="0 0 72 72" enable-background="new 0 0 72 72" xml:space="preserve">
<path fill="#444444" d="M57.891,22.173c-0.037-0.004-0.596-0.066-1.346-0.008c1.482-2.508,2.213-6.243,2.248-6.426
	c0.07-0.375-0.26-0.706-0.636-0.634c-0.183,0.035-3.917,0.764-6.427,2.246c0.059-0.748-0.002-1.307-0.006-1.345
	c-0.039-0.329-0.359-0.545-0.679-0.462c-0.185,0.05-3.969,1.064-6.401,2.739c0.051-0.947,0.037-1.596,0.037-1.633
	c-0.011-0.381-0.398-0.636-0.752-0.489c-0.188,0.08-4.111,1.732-6.207,3.902c-0.197-0.823-0.363-1.366-0.371-1.398
	c-0.113-0.366-0.558-0.502-0.855-0.265c-0.107,0.085-2.405,1.927-4,4.061c-0.535-0.983-0.932-1.613-0.953-1.646
	c-0.204-0.321-0.665-0.339-0.892-0.038c-0.186,0.247-4.562,6.092-4.562,10.167c0,0.095,0.012,0.188,0.015,0.283
	c-1.799-1.986-3.894-2.847-5.427-2.109c-1.767,0.849-2.332,3.464-1.527,6.602c-0.564-0.08-1.116-0.12-1.65-0.12
	c-2.486,0-4.214,0.86-4.743,2.362c-0.649,1.85,0.8,4.1,3.589,5.749c-2.588,1.948-3.78,4.344-2.93,6.108
	c0.584,1.217,1.982,1.887,3.936,1.887c0.833,0,1.736-0.123,2.666-0.361c-0.453,3.208,0.398,5.745,2.249,6.396
	c0.292,0.102,0.6,0.153,0.917,0.153c1.646,0,3.457-1.432,4.83-3.745c1.929,2.565,4.382,3.765,6.11,2.933
	c1.767-0.849,2.332-3.464,1.527-6.603c0.564,0.079,1.115,0.119,1.648,0.119c2.486,0,4.215-0.862,4.742-2.367
	c0.054-0.152,0.071-0.311,0.097-0.468c0.271,0.021,0.541,0.042,0.815,0.042c4.075,0,9.92-4.375,10.167-4.562
	c0.143-0.107,0.223-0.278,0.215-0.456s-0.102-0.342-0.252-0.436c-0.033-0.021-0.663-0.42-1.646-0.955
	c2.135-1.596,3.977-3.891,4.062-3.996c0.237-0.299,0.103-0.743-0.265-0.855c-0.031-0.01-0.573-0.175-1.393-0.372
	c2.162-2.093,3.816-6.019,3.895-6.205c0.148-0.353-0.104-0.744-0.486-0.753c-0.037-0.001-0.688-0.015-1.635,0.035
	c1.675-2.431,2.691-6.216,2.74-6.399C58.438,22.531,58.219,22.21,57.891,22.173z M40.437,47.668c-0.267,0.759-1.469,1.23-3.139,1.23
	c-0.842,0-1.744-0.118-2.681-0.352l-1.561-0.388l0.558,1.508c1.121,3.027,0.754,5.41-0.229,5.882
	c-0.148,0.071-0.31,0.105-0.495,0.105c-0.999,0-2.753-1.127-4.243-3.601l-0.829-1.376l-0.671,1.459
	c-1.375,2.986-3.292,4.361-4.32,3.999c-1.029-0.361-1.658-2.69-0.879-5.823l0.389-1.562l-1.509,0.56
	c-2.667,0.989-5.366,0.845-5.881-0.228c-0.473-0.981,0.729-3.071,3.494-4.735l1.377-0.829l-1.461-0.672
	c-2.933-1.348-4.359-3.293-3.998-4.321C14.627,37.77,15.83,37.3,17.5,37.3c0.843,0,1.745,0.118,2.682,0.352l1.561,0.388
	l-0.558-1.508c-1.121-3.026-0.753-5.409,0.229-5.881c0.148-0.071,0.309-0.106,0.494-0.106c1,0,2.754,1.126,4.242,3.6l0.829,1.376
	l0.672-1.459c1.375-2.988,3.286-4.362,4.322-3.998c1.028,0.36,1.656,2.688,0.879,5.821l-0.387,1.56l1.507-0.559
	c2.667-0.986,5.364-0.845,5.88,0.23c0.473,0.978-0.728,3.064-3.492,4.732l-1.375,0.829l1.458,0.671
	C39.373,44.696,40.798,46.64,40.437,47.668z M54.014,29.503c-0.355,0.359-0.068,0.971,0.438,0.922
	c0.756-0.075,1.438-0.106,1.938-0.12c-0.683,1.445-2.298,4.554-4.06,5.7c-0.403,0.265-0.287,0.89,0.188,0.987
	c0.621,0.125,1.172,0.258,1.59,0.367c-0.801,0.912-2.395,2.608-4.008,3.642c-0.352,0.226-0.326,0.748,0.043,0.938
	c0.672,0.347,1.244,0.67,1.656,0.908c-1.623,1.125-5.886,3.868-8.851,3.868c-0.281,0-0.56-0.014-0.836-0.038
	c-0.308-1.458-1.619-2.986-3.66-4.194c2.589-1.951,3.779-4.346,2.928-6.105c-0.341-0.709-0.965-1.227-1.808-1.54l1.716-1.739h8.668
	c0.3,0,0.542-0.2,0.542-0.5c0-0.3-0.242-0.5-0.542-0.5h-7.583c2.047-2,7.709-7.615,9.814-9.72c0.211-0.212,0.211-0.51,0-0.72
	c-0.211-0.212-0.633-0.188-0.844,0.023l-4.949,4.895v-4.674c0-0.301-0.201-0.542-0.502-0.542c-0.299,0-0.498,0.241-0.498,0.542v5.76
	l-7.173,6.869c-0.249-0.025-0.506-0.041-0.776-0.041c-0.645,0-1.338,0.096-2.047,0.24v-9.358c0-0.3-0.201-0.543-0.5-0.543
	c-0.299,0-0.5,0.243-0.5,0.543v5.049c-0.399-0.966-1.023-1.668-1.866-1.964c-1.702-0.598-3.827,0.677-5.436,3.119
	c-0.013-0.21-0.027-0.42-0.027-0.632c0-2.965,2.795-7.228,3.92-8.852c0.239,0.413,0.587,0.985,0.935,1.657
	c0.189,0.365,0.723,0.399,0.951,0.043c1.03-1.612,2.736-3.204,3.653-4.007c0.107,0.418,0.242,0.972,0.367,1.598
	c0.095,0.476,0.721,0.597,0.986,0.19c1.15-1.769,4.26-3.386,5.705-4.068c-0.013,0.499-0.044,1.181-0.119,1.938
	c-0.051,0.504,0.562,0.795,0.922,0.439c1.543-1.531,4.871-2.668,6.279-3.1c-0.006,0.434-0.049,1.029-0.22,1.617
	c-0.149,0.519,0.474,0.914,0.88,0.559c1.436-1.259,4.352-2.177,6.221-2.616c-0.439,1.87-1.357,4.787-2.615,6.223
	c-0.16,0.182-0.18,0.445-0.051,0.648c0.131,0.203,0.377,0.298,0.608,0.23c0.585-0.169,1.183-0.214,1.618-0.218
	C56.682,24.635,55.545,27.958,54.014,29.503z M30.489,44.177c-0.132,0.378-0.784,0.503-1.523,0.319
	c0.264,0.712,0.214,1.374-0.146,1.548c-0.361,0.173-0.909-0.202-1.302-0.853c-0.318,0.69-0.822,1.123-1.199,0.99
	c-0.378-0.132-0.501-0.783-0.317-1.522c-0.715,0.265-1.376,0.214-1.549-0.147c-0.173-0.359,0.2-0.906,0.853-1.3
	c-0.693-0.317-1.124-0.821-0.992-1.2c0.131-0.376,0.783-0.501,1.522-0.316c-0.264-0.713-0.214-1.375,0.146-1.549
	c0.361-0.174,0.909,0.201,1.302,0.853c0.318-0.69,0.821-1.124,1.199-0.991s0.502,0.784,0.317,1.524
	c0.715-0.265,1.376-0.214,1.549,0.146c0.173,0.361-0.2,0.909-0.852,1.301C30.19,43.297,30.622,43.8,30.489,44.177z"/>
</svg>
