<?xml version="1.0" encoding="utf-8"?>
<!-- Generator: Adobe Illustrator 16.0.0, SVG Export Plug-In . SVG Version: 6.00 Build 0)  -->
<!DOCTYPE svg PUBLIC "-//W3C//DTD SVG 1.1//EN" "http://www.w3.org/Graphics/SVG/1.1/DTD/svg11.dtd">
<svg version="1.1" id="Layer_1" xmlns="http://www.w3.org/2000/svg" xmlns:xlink="http://www.w3.org/1999/xlink" x="0px" y="0px"
	 width="72px" height="72px" viewBox="0 0 72 72" enable-background="new 0 0 72 72" xml:space="preserve">
<path fill="#444444" d="M53.512,23.785c-0.387-0.339-0.687-0.768-0.865-1.239c-1.109-2.919-4.949-9.739-16.669-10
	c-11.69,0.262-15.524,7.081-16.63,10c-0.179,0.472-0.478,0.9-0.864,1.238c-1.826,1.599-2.43,4.153-1.503,6.357
	c0.18,0.426,0.389,0.829,0.62,1.195c1.014,1.618,2.878,2.623,4.886,2.623c1.223-0.005,2.314-0.076,3.243-0.208
	c0.368-0.053,0.745-0.079,1.15-0.079c0.179,0,0.358,0.013,0.538,0.022c0.004,0.166,0.006,0.333-0.01,0.476
	c-0.161,1.418-0.622,2.906-1.371,4.419c-1.179,2.382-2.854,7.222-0.832,12.88c0.632,1.769,1.634,3.454,2.977,5.011
	c1.645,1.908,4.607,3.002,8.127,3.002h0h0c3.306,0,5.76-0.981,7.5-3.001c1.344-1.557,2.346-3.243,2.978-5.012
	c2.022-5.655,0.347-10.497-0.832-12.88c-0.75-1.515-1.211-3.001-1.37-4.419c-0.014-0.124-0.026-0.287-0.038-0.456
	c0.595-0.037,1.176-0.042,1.72,0.036c0.927,0.133,2.018,0.203,3.268,0.208c1.983,0,3.845-1.005,4.858-2.622
	c0.237-0.378,0.447-0.781,0.621-1.197C55.939,27.937,55.336,25.383,53.512,23.785z M42.896,34.361
	c0.182,1.614,0.698,3.291,1.536,4.982c1.06,2.141,2.565,6.489,0.754,11.554c-0.561,1.57-1.456,3.075-2.663,4.474
	c-1.399,1.623-3.432,2.412-6.213,2.412h0h0c-3.025,0-5.518-0.88-6.839-2.413c-1.206-1.397-2.102-2.902-2.664-4.473
	c-1.811-5.067-0.305-9.414,0.754-11.554c0.836-1.691,1.354-3.367,1.537-4.982c0.016-0.144,0.021-0.308,0.021-0.474
	c0.439,0.072,0.891,0.154,1.377,0.249c1.755,0.341,3.574,0.515,5.406,0.515c1.828,0,3.708-0.172,5.586-0.513l0.243-0.044
	c0.378-0.069,0.754-0.134,1.126-0.193C42.868,34.072,42.881,34.236,42.896,34.361z M53.447,29.482
	c-0.14,0.331-0.306,0.65-0.495,0.952c-0.705,1.126-2.015,1.825-3.437,1.825c-1.146-0.005-2.158-0.069-3.008-0.191
	c-1.604-0.229-3.422,0.054-5.081,0.354l-0.242,0.044c-3.552,0.645-7.064,0.645-10.365,0.002c-1.391-0.271-2.647-0.496-3.94-0.496
	c-0.48,0-0.949,0.033-1.392,0.096c-0.852,0.122-1.864,0.186-3.025,0.191c-1.405,0-2.716-0.699-3.423-1.827
	c-0.183-0.29-0.349-0.61-0.492-0.95c-0.643-1.527-0.218-3.303,1.056-4.418c0.595-0.521,1.057-1.183,1.334-1.916
	c0.983-2.597,4.422-8.665,15.04-8.903c10.649,0.239,14.093,6.307,15.08,8.905c0.278,0.73,0.739,1.392,1.334,1.914
	C53.664,26.179,54.088,27.955,53.447,29.482z M25.858,20.84c0.37,0.289,0.436,0.823,0.146,1.193c-0.81,1.037-1.459,2.242-1.93,3.584
	c-0.123,0.35-0.451,0.569-0.802,0.569c-0.093,0-0.188-0.015-0.281-0.048c-0.443-0.155-0.676-0.641-0.521-1.083
	c0.532-1.517,1.271-2.886,2.194-4.068C24.955,20.616,25.489,20.552,25.858,20.84z M28.866,18.445
	c0.257,0.393,0.146,0.92-0.247,1.176c-0.337,0.221-0.67,0.467-0.989,0.733c-0.159,0.132-0.352,0.197-0.544,0.197
	c-0.244,0-0.485-0.104-0.653-0.306c-0.301-0.36-0.252-0.896,0.108-1.197c0.37-0.308,0.756-0.594,1.148-0.851
	C28.085,17.942,28.61,18.053,28.866,18.445z"/>
</svg>
