<?xml version="1.0" encoding="utf-8"?>
<!-- Generator: Adobe Illustrator 16.0.0, SVG Export Plug-In . SVG Version: 6.00 Build 0)  -->
<!DOCTYPE svg PUBLIC "-//W3C//DTD SVG 1.1//EN" "http://www.w3.org/Graphics/SVG/1.1/DTD/svg11.dtd">
<svg version="1.1" id="Layer_1" xmlns="http://www.w3.org/2000/svg" xmlns:xlink="http://www.w3.org/1999/xlink" x="0px" y="0px"
	 width="72px" height="72px" viewBox="0 0 72 72" enable-background="new 0 0 72 72" xml:space="preserve">
<path fill="#444444" d="M36.182,39.57c-4.182,0-7.765,5.416-7.765,9.852c0,4.281,3.482,7.764,7.765,7.764
	c4.281,0,7.763-3.481,7.763-7.764C43.945,44.986,40.361,39.57,36.182,39.57z M36.182,55.791c-3.512,0-6.369-2.857-6.369-6.369
	c0-3.729,2.999-8.456,6.369-8.456c3.369,0,6.368,4.729,6.368,8.456C42.55,52.934,39.691,55.791,36.182,55.791z M31.865,49.422
	c0,0.747,0.194,1.485,0.563,2.131l-1.213,0.691c-0.489-0.857-0.747-1.833-0.747-2.822c0-0.664,0.11-1.383,0.327-2.132l1.342,0.39
	C31.955,48.302,31.864,48.889,31.865,49.422z M50.452,47.482c-0.37-3.387-0.966-5.025-1.789-7.291
	c-0.531-1.459-1.19-3.274-1.966-6.067l-0.307-1.117c-2.191-7.955-3.64-13.209-10.209-13.209c-6.57,0-8.019,5.254-10.21,13.209
	l-0.308,1.117c-0.773,2.793-1.434,4.608-1.965,6.067c-0.824,2.266-1.419,3.904-1.789,7.291c-0.392,3.604,0.751,7.103,3.218,9.854
	c2.742,3.058,6.873,4.881,11.054,4.881c4.18,0,8.311-1.823,11.053-4.881C49.701,54.585,50.846,51.086,50.452,47.482z M46.193,56.404
	c-2.479,2.767-6.223,4.418-10.012,4.418c-3.789,0-7.533-1.651-10.014-4.418c-2.199-2.452-3.219-5.566-2.869-8.771
	c0.352-3.221,0.893-4.711,1.713-6.966c0.538-1.48,1.209-3.327,1.998-6.172l0.309-1.12c2.164-7.855,3.355-12.183,8.863-12.183
	s6.699,4.328,8.863,12.184l0.308,1.12c0.789,2.845,1.461,4.69,2,6.172c0.818,2.255,1.359,3.745,1.711,6.966
	C49.413,50.838,48.395,53.952,46.193,56.404z M33.343,19.522l-2.55-6.387l1.296-0.518l0.385,0.965
	c2.027,1.609,5.312,2.143,7.25,1.705c1.197-0.27,2.283-0.993,3.434-1.76c0.609-0.406,1.232-0.822,1.908-1.199
	c-1.818-0.857-4.369-1.015-6.147-0.614c-1.351,0.304-2.354,0.88-3.255,1.865l-1.03-0.941c1.09-1.194,2.354-1.92,3.979-2.286
	c2.425-0.546,6.166-0.209,8.326,1.493l0.92,0.726l-1.076,0.463c-1.037,0.447-1.958,1.061-2.85,1.656
	c-1.26,0.839-2.451,1.633-3.901,1.96c-0.558,0.126-1.163,0.186-1.791,0.186c-1.634,0-3.41-0.413-4.915-1.121l1.314,3.291
	L33.343,19.522z"/>
</svg>
