<?xml version="1.0" encoding="utf-8"?>
<!-- Generator: Adobe Illustrator 16.0.0, SVG Export Plug-In . SVG Version: 6.00 Build 0)  -->
<!DOCTYPE svg PUBLIC "-//W3C//DTD SVG 1.1//EN" "http://www.w3.org/Graphics/SVG/1.1/DTD/svg11.dtd">
<svg version="1.1" id="Layer_1" xmlns="http://www.w3.org/2000/svg" xmlns:xlink="http://www.w3.org/1999/xlink" x="0px" y="0px"
	 width="72px" height="72px" viewBox="0 0 72 72" enable-background="new 0 0 72 72" xml:space="preserve">
<path fill="#444444" d="M57.568,14.734c-0.004-0.002-0.006-0.007-0.006-0.009c-0.004-0.003-0.006-0.004-0.008-0.005
	c-0.002-0.002-0.005-0.003-0.007-0.006c-2.425-2.251-7.491-1.278-13.634,2.163c-0.086,0.028-0.16,0.072-0.229,0.128
	c-4.107,2.333-8.683,5.753-13.265,10.049c-0.096-1.558-0.469-2.966-1.296-4.082c-0.188-0.253-0.479-0.383-0.782-0.343
	c-0.592,0.071-0.775,0.52-1.316,1.852c-1.046,2.58-3.225,7.949-8.813,12.694c0,0,0,0.001-0.001,0.001
	c-3.052,2.508-4.661,5.254-4.779,8.166c-0.051,1.264,0.188,2.41,0.547,3.401c-0.012,0.013-0.03,0.017-0.042,0.028
	c-0.857,0.879-1.127,2.17-0.759,3.635c0.34,1.35,1.192,2.712,2.402,3.835c1.588,1.476,3.459,2.255,5.067,2.255
	c1.051,0,1.988-0.334,2.664-1.023c0-0.002,0-0.002,0-0.002c0.844,0.256,1.793,0.432,2.822,0.432c0.26,0,0.525-0.012,0.795-0.034
	c2.979-0.261,5.715-1.968,8.136-5.072c2.036-2.612,4.186-3.938,6.388-3.938c0.007,0,0.013,0,0.021,0
	c3.465,0.013,6.037,3.313,6.063,3.347c0.207,0.269,0.574,0.362,0.891,0.231c0.315-0.133,0.497-0.459,0.439-0.789
	c-0.036-0.203-0.914-4.907-4.887-7.434c5.547-5.796,10.022-11.895,12.645-17.262C59.455,21.158,59.788,16.822,57.568,14.734z
	 M56.527,15.786c0.234,0.717-1.012,3.139-3.709,6.905c-1.021-1.193-2.123-2.171-3.184-2.964
	C53.348,16.916,55.768,15.586,56.527,15.786z M43.779,24.488c1.688-1.453,3.234-2.727,4.63-3.819
	c1.163,0.835,2.399,1.907,3.506,3.254c-1.039,1.399-2.252,2.955-3.64,4.653C46.838,26.877,45.26,25.53,43.779,24.488z M47.316,29.74
	c-1.303,1.568-2.742,3.242-4.317,5.018c-1.679-2.039-3.556-3.618-5.285-4.809c1.731-1.622,3.377-3.11,4.912-4.457
	C44.161,26.543,45.833,27.94,47.316,29.74z M54.501,14.93c-1.666,0.728-3.799,2.138-6.135,3.919
	c-0.954-0.611-1.827-1.068-2.511-1.386C49.378,15.613,52.407,14.693,54.501,14.93z M44.236,18.357
	c0.513,0.203,1.591,0.668,2.887,1.459c-1.495,1.184-3.048,2.488-4.6,3.84c-1.457-0.906-2.726-1.496-3.537-1.835
	C40.796,20.495,42.563,19.332,44.236,18.357z M37.613,22.852c0.24,0.084,1.773,0.644,3.744,1.828
	c-1.68,1.49-3.336,3.009-4.886,4.465c-1.701-1.043-3.15-1.686-3.969-2.013C34.214,25.581,35.929,24.147,37.613,22.852z
	 M29.466,35.274c0.397-2.022,0.816-4.167,0.941-6.181c0.301-0.289,0.6-0.576,0.899-0.858c0.007,0.002,0.011,0.007,0.017,0.009
	c0.041,0.014,1.759,0.604,4.025,1.959c-2.501,2.371-4.643,4.484-6.039,5.88C29.36,35.814,29.413,35.545,29.466,35.274z
	 M36.598,30.996c1.758,1.184,3.695,2.789,5.395,4.889c-2.016,2.236-4.232,4.622-6.659,7.137c-0.592,0.121-1.193,0.265-1.814,0.453
	c-2.06,0.625-3.457,0.64-4.15,0.033c-0.878-0.765-0.838-2.664-0.507-4.893C31.594,35.827,34.18,33.285,36.598,30.996z
	 M46.421,49.154c-1.251-0.899-2.946-1.736-4.933-1.748c-0.012,0-0.022,0-0.034,0c-2.692,0-5.238,1.519-7.57,4.511
	c-2.152,2.763-4.531,4.276-7.07,4.504c-3.613,0.317-6.41-2.114-6.438-2.14c-0.304-0.271-0.771-0.248-1.049,0.046
	c-0.278,0.294-0.258,0.753,0.044,1.024c0.067,0.061,0.927,0.813,2.317,1.483c-1.264,0.56-3.398-0.084-5.081-1.646
	c-1.006-0.935-1.71-2.045-1.982-3.129c-0.175-0.692-0.145-1.3,0.063-1.776c0.773,1.387,1.63,2.229,1.696,2.295
	c0.146,0.14,0.333,0.209,0.523,0.209c0.191,0,0.383-0.072,0.529-0.218c0.288-0.284,0.285-0.743-0.008-1.024
	c-0.025-0.024-2.653-2.595-2.509-6.147c0.101-2.49,1.535-4.888,4.262-7.125c0.001-0.002,0.002-0.004,0.004-0.006
	c0.001,0,0.003,0,0.005-0.004c5.861-4.974,8.215-10.773,9.22-13.249c0.022-0.058,0.046-0.114,0.069-0.172
	c1.017,2.576,0.23,6.575-0.474,10.157c-0.835,4.242-1.556,7.909,0.372,9.588c1.125,0.979,2.951,1.069,5.583,0.271
	c3.638-1.104,6.671-0.955,9.015,0.438C44.673,46.311,45.753,47.83,46.421,49.154z M42.629,43.498
	c-1.479-0.633-3.139-0.896-4.966-0.793c1.209-1.277,3.084-3.287,5.213-5.65c0.813,1.156,1.545,2.447,2.138,3.881
	C44.243,41.793,43.447,42.648,42.629,43.498z M46.091,39.709c-0.633-1.396-1.381-2.652-2.2-3.787c1.401-1.576,2.877-3.271,4.33-5
	c0.76,1.077,1.443,2.28,2,3.617C48.966,36.252,47.585,37.98,46.091,39.709z M51.218,33.137c-0.588-1.246-1.272-2.372-2.021-3.389
	c1.275-1.547,2.513-3.099,3.635-4.592c0.555,0.819,1.052,1.721,1.462,2.713c0.024,0.062,0.062,0.115,0.101,0.166
	C53.491,29.687,52.428,31.396,51.218,33.137z M55.249,26.391c-0.44-0.906-0.942-1.739-1.487-2.496
	c1.692-2.344,3.036-4.486,3.713-6.145c0.31,2-0.433,4.971-2.195,8.578C55.271,26.349,55.259,26.371,55.249,26.391z"/>
</svg>
