<?xml version="1.0" encoding="utf-8"?>
<!-- Generator: Adobe Illustrator 16.0.0, SVG Export Plug-In . SVG Version: 6.00 Build 0)  -->
<!DOCTYPE svg PUBLIC "-//W3C//DTD SVG 1.1//EN" "http://www.w3.org/Graphics/SVG/1.1/DTD/svg11.dtd">
<svg version="1.1" id="Layer_1" xmlns="http://www.w3.org/2000/svg" xmlns:xlink="http://www.w3.org/1999/xlink" x="0px" y="0px"
	 width="72px" height="72px" viewBox="0 0 72 72" enable-background="new 0 0 72 72" xml:space="preserve">
<path fill="#444444" d="M49.176,36.849c-1.372-1.219-2.099-2.847-2.047-4.571c0.003-0.078,0.003-0.154,0.003-0.23
	c0-4.724-4.58-8.594-10.355-8.914c-0.036-0.795,0.044-2.163,0.822-3.29l0.346-0.173l-0.025-0.221
	c0.929-1.021,2.425-1.544,4.463-1.544v-1.7c-2.031,0-3.665,0.454-4.885,1.345c-0.729-2.218-2.785-6.07-8.308-6.07
	c-1.236,0-2.592,0.199-4.031,0.591l-0.861,0.235l0.276,0.849c2.067,6.352,5.896,7.685,8.743,7.685h0
	c0.767,0,1.465-0.102,2.068-0.233c-0.285,0.96-0.331,1.877-0.307,2.535c-5.699,0.382-10.193,4.227-10.193,8.907l0.003,0.217
	c0.052,1.738-0.676,3.366-2.047,4.584c-2.922,2.593-4.532,5.948-4.532,9.448c0,7.789,7.939,14.126,17.699,14.126
	c9.76,0,17.699-6.337,17.699-14.126C53.707,42.795,52.098,39.439,49.176,36.849z M33.317,19.139c-3.093,0-5.385-1.898-6.821-5.646
	c0.959-0.208,1.862-0.313,2.693-0.313c5.055,0,6.502,3.913,6.878,5.474C35.47,18.864,34.468,19.139,33.317,19.139z M36.008,58.724
	c-8.822,0-15.999-5.575-15.999-12.427c0-3.008,1.406-5.911,3.96-8.177c1.729-1.536,2.684-3.689,2.618-5.907l-0.002-0.166
	c0-3.995,4.227-7.245,9.423-7.245c5.196,0,9.425,3.25,9.425,7.245l-0.003,0.166c-0.066,2.216,0.888,4.369,2.618,5.906
	c2.554,2.265,3.96,5.168,3.96,8.177C52.008,53.148,44.83,58.724,36.008,58.724z M32.611,54.252v1.699
	c-5.58,0-10.119-4.11-10.119-9.163c0-2.264,0.917-4.436,2.583-6.117l1.208,1.197c-1.348,1.36-2.09,3.107-2.09,4.92
	C24.192,50.903,27.969,54.252,32.611,54.252z"/>
</svg>
