<?xml version="1.0" encoding="utf-8"?>
<!-- Generator: Adobe Illustrator 16.0.0, SVG Export Plug-In . SVG Version: 6.00 Build 0)  -->
<!DOCTYPE svg PUBLIC "-//W3C//DTD SVG 1.1//EN" "http://www.w3.org/Graphics/SVG/1.1/DTD/svg11.dtd">
<svg version="1.1" id="Layer_1" xmlns="http://www.w3.org/2000/svg" xmlns:xlink="http://www.w3.org/1999/xlink" x="0px" y="0px"
	 width="72px" height="72px" viewBox="0 0 72 72" enable-background="new 0 0 72 72" xml:space="preserve">
<path fill="#444444" d="M30.922,31.849l0.159,0.082l-0.107,0.143c-0.263,0.348-0.503,0.714-0.716,1.087l-0.069,0.122l-0.126-0.062
	c-0.823-0.395-1.712-0.595-2.642-0.595c-2.375,0-5.108,1.228-7.903,3.552c-4.853,4.035-7.037,9.548-4.971,12.554
	c0.992,1.357,2.812,2.107,5.121,2.109c2.611,0,5.594-0.924,8.399-2.604c0.708-0.424,1.381-0.879,2-1.354l0.161-0.122l0.071,0.188
	c0.154,0.411,0.328,0.837,0.514,1.262l0.048,0.11l-0.097,0.07c-0.58,0.428-1.207,0.844-1.863,1.237
	c-3.055,1.828-6.334,2.835-9.234,2.835c-2.779,0-5.027-0.936-6.328-2.635l-0.089-0.111c-0.054-0.07-0.076-0.107-0.095-0.146
	c-2.463-3.769-0.177-10.066,5.325-14.641c3.09-2.57,6.181-3.929,8.94-3.929C28.651,31.003,29.83,31.288,30.922,31.849z
	 M27.883,35.039c-0.899,0-3.324,0.288-6.409,2.954c-0.164,0.141-0.263,0.338-0.279,0.554c-0.015,0.217,0.053,0.426,0.195,0.592
	c0.155,0.178,0.378,0.28,0.614,0.28c0.195,0,0.383-0.071,0.529-0.198c2.748-2.373,4.812-2.556,5.374-2.557l0.2,0.009
	c0.409,0,0.755-0.309,0.803-0.717c0.025-0.215-0.035-0.428-0.17-0.598c-0.134-0.17-0.326-0.278-0.538-0.302
	C28.155,35.049,28.047,35.039,27.883,35.039z M37.633,37.074c0.196-0.393,0.037-0.878-0.354-1.081
	c-0.116-0.06-0.24-0.091-0.37-0.091c-0.306,0-0.581,0.169-0.722,0.44c-0.138,0.27-1.303,2.748,0.388,7.328
	c0.116,0.318,0.423,0.532,0.759,0.532c0.096,0,0.191-0.017,0.282-0.052c0.202-0.073,0.364-0.223,0.454-0.418
	c0.091-0.197,0.1-0.418,0.025-0.623C36.707,39.344,37.537,37.291,37.633,37.074z M13.688,19.537c-0.218-0.209-0.302-0.519-0.22-0.81
	c0.083-0.29,0.317-0.51,0.613-0.571c0.179-0.038,1.819-0.365,4.183-0.365c2.178,0,4.254,0.276,6.171,0.819
	c5.297,1.502,8.902,4.901,9.053,5.046c0.218,0.207,0.303,0.517,0.221,0.809c-0.083,0.29-0.316,0.508-0.611,0.57
	c-0.015,0.003-1.701,0.367-4.189,0.367c-2.178-0.001-4.253-0.276-6.167-0.818C17.496,23.096,13.841,19.682,13.688,19.537z
	 M16.143,19.485l0.872,0.592c1.378,0.937,3.567,2.209,6.169,2.946c1.769,0.501,3.694,0.755,5.724,0.755
	c0.378,0,0.736-0.008,1.071-0.023l1.048-0.05l-0.868-0.59c-1.378-0.937-3.567-2.207-6.168-2.943
	c-1.768-0.503-3.695-0.757-5.729-0.757c-0.376,0-0.733,0.009-1.067,0.023L16.143,19.485z M59.837,19.536
	c-0.153,0.146-3.81,3.561-9.054,5.048c-1.918,0.542-3.992,0.818-6.167,0.818c-2.476,0-4.169-0.362-4.185-0.366
	c-0.295-0.063-0.533-0.282-0.615-0.571c-0.082-0.292,0.002-0.602,0.221-0.809c0.152-0.146,3.771-3.548,9.053-5.046
	c1.917-0.543,3.993-0.819,6.172-0.819c2.359,0,4.004,0.327,4.184,0.365c0.296,0.063,0.529,0.281,0.611,0.572
	S60.055,19.328,59.837,19.536z M57.381,19.488l-1.047-0.05c-0.336-0.016-0.693-0.024-1.072-0.024c-2.033,0-3.962,0.255-5.729,0.758
	c-2.611,0.739-4.798,2.008-6.173,2.942L42.497,23.7l1.041,0.053c0.338,0.017,0.698,0.024,1.078,0.024
	c2.03,0,3.956-0.254,5.724-0.755c2.614-0.741,4.801-2.011,6.174-2.945L57.381,19.488z M50.081,40.814
	c1.282,7.039-0.989,13.33-5.284,14.633l-0.088,0.033c-0.027,0.009-0.084,0.022-0.139,0.031c-0.469,0.111-0.926,0.166-1.389,0.166
	c-4.098,0-8.424-4.228-10.526-10.281c-1.495-4.304-1.533-8-0.11-10.692c0.818-1.547,2.107-2.727,3.829-3.505l0.299-0.135
	l-0.125-0.338l-0.035-0.084c-0.078-0.378-1.862-9.306,1.239-14.059c0.149-0.231,0.405-0.37,0.681-0.37
	c0.156,0,0.31,0.046,0.441,0.132c0.182,0.12,0.307,0.303,0.352,0.515s0.004,0.428-0.115,0.609
	c-2.514,3.856-1.301,11.295-1.03,12.747l0.065,0.356l0.354-0.078c0.767-0.17,1.502-0.256,2.185-0.256
	C45.432,30.238,48.857,34.093,50.081,40.814z M48.482,41.105c-0.629-3.451-2.479-9.244-7.797-9.244
	c-0.686,0-1.414,0.098-2.168,0.292l-0.101,0.031c-2.092,0.561-3.583,1.663-4.436,3.277c-1.191,2.249-1.117,5.587,0.207,9.403
	c1.85,5.326,5.63,9.193,8.992,9.193c0.161,0,0.32-0.027,0.479-0.054c0.172-0.028,0.341-0.057,0.507-0.057l0.077-0.029
	C47.758,52.939,49.613,47.314,48.482,41.105z"/>
</svg>
