<?xml version="1.0" encoding="utf-8"?>
<!-- Generator: Adobe Illustrator 16.0.0, SVG Export Plug-In . SVG Version: 6.00 Build 0)  -->
<!DOCTYPE svg PUBLIC "-//W3C//DTD SVG 1.1//EN" "http://www.w3.org/Graphics/SVG/1.1/DTD/svg11.dtd">
<svg version="1.1" id="Layer_1" xmlns="http://www.w3.org/2000/svg" xmlns:xlink="http://www.w3.org/1999/xlink" x="0px" y="0px"
	 width="72px" height="72px" viewBox="0 0 72 72" enable-background="new 0 0 72 72" xml:space="preserve">
<path fill="#444444" d="M57.247,29.226C53.438,22.284,46.21,18.602,43.28,17.342c-0.558-0.241-1.009-0.654-1.27-1.163
	c-1.785-3.479-5.833-3.416-6.007-3.407c-0.04,0.001-0.073,0.02-0.111,0.025c-0.769,0.014-4.232,0.254-5.851,3.407
	c-0.26,0.509-0.711,0.921-1.268,1.162c-2.932,1.262-10.161,4.946-13.967,11.886c-0.659,1.202-0.665,2.664-0.016,3.911
	c0.562,1.08,1.579,1.86,2.754,2.141c0.781,0.694,3.875,3.01,11.22,3.996c-0.589,1.725-1.704,5.448-2.103,9.961
	c-0.23,2.6,0.622,5.101,2.398,7.041c1.785,1.949,4.324,3.067,6.966,3.067c0.056,0,0.104-0.021,0.157-0.031
	c2.586-0.043,5.062-1.147,6.812-3.059c1.777-1.941,2.629-4.443,2.399-7.044c-0.4-4.515-1.515-8.239-2.104-9.963
	c7.429-0.997,10.511-3.356,11.247-4.019c1.174-0.289,2.163-1.033,2.726-2.117C57.911,31.892,57.905,30.43,57.247,29.226z
	 M36.026,36.583c0.047,0,0.088-0.02,0.134-0.027c6.015-0.004,10.592-0.311,13.823-0.65c-2.654,1.048-7.045,2.12-13.956,2.12
	c-0.044,0-0.082,0.019-0.124,0.025c-6.745-0.014-11.099-1.07-13.758-2.11C25.392,36.279,29.986,36.583,36.026,36.583z M43.7,49.386
	c0.188,2.119-0.509,4.16-1.96,5.745c-1.464,1.599-3.546,2.516-5.712,2.516c-0.033,0-0.061,0.015-0.092,0.019
	c-2.134-0.025-4.179-0.935-5.622-2.511c-1.451-1.585-2.146-3.625-1.959-5.743c0.411-4.642,1.641-8.491,2.143-9.913
	c1.651,0.159,3.484,0.254,5.528,0.254c0.05,0,0.094-0.021,0.143-0.028c1.987-0.005,3.775-0.098,5.388-0.253
	C42.059,40.89,43.288,44.731,43.7,49.386z M55.754,32.353c-0.364,0.702-1.021,1.18-1.802,1.312
	c-2.649,0.445-8.502,1.192-17.926,1.192c-0.044,0-0.083,0.019-0.125,0.025c-9.366-0.007-15.169-0.749-17.801-1.193
	c-0.78-0.13-1.437-0.608-1.802-1.311c-0.386-0.743-0.387-1.606-0.002-2.309c3.553-6.477,10.379-9.95,13.15-11.143
	c0.92-0.397,1.669-1.089,2.108-1.948c1.292-2.516,4.326-2.481,4.452-2.483c0.069,0.009,0.13-0.012,0.194-0.022
	c0.643,0.025,3.162,0.266,4.297,2.48c0.44,0.859,1.188,1.551,2.109,1.949c2.77,1.191,9.595,4.662,13.148,11.14
	C56.142,30.747,56.141,31.61,55.754,32.353z M41.193,20.215c-0.165,0.242-0.432,0.372-0.704,0.372c-0.164,0-0.33-0.048-0.477-0.147
	c-0.823-0.56-1.299-1.498-1.351-1.603c-0.206-0.421-0.032-0.931,0.39-1.137c0.421-0.208,0.929-0.033,1.136,0.387
	c0.088,0.176,0.399,0.688,0.78,0.947C41.356,19.298,41.457,19.826,41.193,20.215z M36.587,22.36v1.294c0,0.469-0.381,0.85-0.85,0.85
	s-0.85-0.381-0.85-0.85V22.36c0-0.469,0.381-0.85,0.85-0.85S36.587,21.891,36.587,22.36z M31.888,21.224
	c-0.265,0-0.527-0.124-0.693-0.357c-0.272-0.382-0.183-0.913,0.199-1.186c0.452-0.322,0.741-0.943,0.814-1.155
	c0.153-0.442,0.636-0.682,1.077-0.529c0.443,0.15,0.682,0.628,0.534,1.072c-0.043,0.131-0.455,1.296-1.439,1.998
	C32.231,21.173,32.059,21.224,31.888,21.224z M30.508,22.066c0.381,0.269,0.477,0.792,0.211,1.175
	c-0.044,0.063-0.452,0.635-1.24,1.16c-0.145,0.096-0.309,0.143-0.47,0.143c-0.275,0-0.545-0.133-0.708-0.379
	c-0.26-0.391-0.154-0.918,0.236-1.179c0.517-0.344,0.786-0.714,0.789-0.718C29.597,21.888,30.126,21.797,30.508,22.066z
	 M28.198,27.194c-0.44,0.889-0.827,1.454-1.151,1.678c-0.148,0.103-0.317,0.152-0.484,0.152c-0.27,0-0.534-0.127-0.699-0.365
	c-0.268-0.386-0.172-0.916,0.213-1.183c0.071-0.079,0.376-0.589,0.597-1.036c0.209-0.422,0.719-0.593,1.139-0.385
	C28.234,26.263,28.406,26.773,28.198,27.194z M35.45,31.301c-0.019,0.237-0.056,0.945-0.004,1.365
	c0.059,0.466-0.272,0.891-0.738,0.949c-0.036,0.004-0.071,0.007-0.106,0.007c-0.422,0-0.789-0.314-0.842-0.745
	c-0.084-0.667-0.012-1.606-0.004-1.711c0.037-0.468,0.445-0.822,0.915-0.779C35.139,30.423,35.487,30.833,35.45,31.301z
	 M30.267,31.683c-0.148,0.286-0.376,0.83-0.394,1.09c-0.03,0.449-0.404,0.793-0.847,0.793c-0.02,0-0.039,0-0.058-0.002
	c-0.469-0.032-0.823-0.437-0.791-0.905c0.048-0.707,0.494-1.592,0.583-1.762c0.218-0.416,0.731-0.576,1.146-0.36
	C30.322,30.753,30.483,31.267,30.267,31.683z M42.683,24.504c0.371,0.288,0.426,0.811,0.139,1.182
	c-0.165,0.213-0.416,0.323-0.67,0.323c-0.188,0-0.377-0.06-0.535-0.183c-0.51-0.395-0.773-1.219-0.863-1.556
	c-0.121-0.453,0.148-0.917,0.601-1.039c0.459-0.125,0.918,0.147,1.042,0.599C42.466,24.091,42.605,24.418,42.683,24.504z
	 M33.233,27.047c0,0-0.08,0.441-0.211,1.032c-0.088,0.396-0.439,0.667-0.829,0.667c-0.061,0-0.123-0.006-0.185-0.02
	c-0.458-0.102-0.748-0.556-0.646-1.014c0.122-0.551,0.198-0.963,0.199-0.97c0.084-0.462,0.524-0.773,0.989-0.683
	C33.011,26.143,33.317,26.585,33.233,27.047z M38.595,28.342c0.163,0.44-0.061,0.929-0.501,1.093
	c-0.098,0.036-0.197,0.053-0.296,0.053c-0.345,0-0.67-0.212-0.797-0.554c-0.253-0.68-0.327-1.377-0.335-1.455
	c-0.047-0.467,0.293-0.882,0.76-0.929c0.476-0.044,0.884,0.293,0.932,0.759C38.358,27.314,38.416,27.861,38.595,28.342z
	 M48.607,26.359c0.252,0.396,0.137,0.921-0.26,1.174c-0.142,0.091-0.3,0.134-0.456,0.134c-0.28,0-0.556-0.139-0.718-0.393
	l-0.951-1.49c-0.252-0.396-0.137-0.921,0.26-1.174c0.396-0.254,0.922-0.136,1.174,0.259L48.607,26.359z M44.189,22.988
	c-0.235,0-0.47-0.098-0.638-0.289l-0.768-0.872c-0.311-0.353-0.276-0.89,0.076-1.2c0.351-0.309,0.89-0.276,1.199,0.077l0.768,0.872
	c0.311,0.353,0.276,0.89-0.076,1.2C44.59,22.918,44.39,22.988,44.189,22.988z M46.258,29.911c0.202,0.424,0.022,0.931-0.401,1.133
	c-0.118,0.057-0.243,0.083-0.365,0.083c-0.317,0-0.622-0.179-0.769-0.484l-0.6-1.257c-0.202-0.424-0.022-0.931,0.401-1.133
	c0.427-0.204,0.931-0.021,1.134,0.401L46.258,29.911z M42.408,32.066l0.281,1.449c0.09,0.461-0.211,0.907-0.672,0.997
	c-0.055,0.011-0.109,0.016-0.163,0.016c-0.398,0-0.755-0.282-0.833-0.688L40.74,32.39c-0.09-0.461,0.211-0.907,0.672-0.997
	C41.873,31.306,42.319,31.605,42.408,32.066z M52.015,30.481c0.246,0.399,0.122,0.923-0.278,1.169
	c-0.139,0.085-0.293,0.126-0.444,0.126c-0.285,0-0.564-0.144-0.725-0.405l-0.7-1.138c-0.246-0.399-0.122-0.923,0.278-1.169
	c0.399-0.247,0.924-0.121,1.169,0.279L52.015,30.481z M25.288,31.974l-0.6,1.138c-0.152,0.289-0.447,0.454-0.752,0.454
	c-0.134,0-0.27-0.032-0.396-0.098c-0.416-0.219-0.574-0.733-0.355-1.148l0.6-1.138c0.22-0.415,0.735-0.572,1.148-0.355
	C25.348,31.044,25.507,31.559,25.288,31.974z M23.829,24.593c-0.26-0.391-0.154-0.918,0.236-1.179
	c0.516-0.344,0.785-0.714,0.788-0.718c0.271-0.379,0.799-0.473,1.182-0.204c0.382,0.269,0.478,0.792,0.212,1.175
	c-0.044,0.064-0.452,0.637-1.24,1.162c-0.145,0.096-0.309,0.143-0.47,0.143C24.262,24.972,23.992,24.839,23.829,24.593z"/>
</svg>
