<?xml version="1.0" encoding="utf-8"?>
<!-- Generator: Adobe Illustrator 16.0.0, SVG Export Plug-In . SVG Version: 6.00 Build 0)  -->
<!DOCTYPE svg PUBLIC "-//W3C//DTD SVG 1.1//EN" "http://www.w3.org/Graphics/SVG/1.1/DTD/svg11.dtd">
<svg version="1.1" id="Layer_1" xmlns="http://www.w3.org/2000/svg" xmlns:xlink="http://www.w3.org/1999/xlink" x="0px" y="0px"
	 width="72px" height="72px" viewBox="0 0 72 72" enable-background="new 0 0 72 72" xml:space="preserve">
<path fill="#444444" d="M57.393,34.135c-0.504-1.238-1.438-2.293-2.705-3.052c-1.524-0.913-3.528-1.396-5.795-1.396
	c-0.441,0-0.896,0.018-1.365,0.055c-1.17,0.09-2.397,0.276-3.748,0.567c2.404-3.219,4.164-5.984,5.096-8.009
	c0.727-1.709,0.646-2.961-0.24-3.827c-0.486-0.474-1.123-0.714-1.895-0.714c-0.811,0-1.555,0.263-2.037,0.485
	c-11.92,5.493-18.904,9.738-23.348,14.194c-4.562,4.574-6.637,9.509-6.939,16.516c-0.144,2.69,1.094,4.302,3.896,5.071
	c1.213,0.332,2.721,0.5,4.479,0.5c0.426,0,0.864-0.008,1.311-0.027c2.231-0.096,4.718-0.424,7.392-0.977
	c2.677-0.549,5.379-1.287,8.025-2.191c2.847-0.971,5.494-2.084,7.867-3.309c2.37-1.225,4.389-2.524,5.997-3.864
	c2.199-1.83,3.65-3.89,4.198-5.952C57.96,36.781,57.895,35.372,57.393,34.135z M17.789,51.727l-0.125-0.002
	c-0.494-0.021-0.884-0.185-1.16-0.488c-0.402-0.44-0.58-1.186-0.529-2.215c0.283-6.582,2.223-11.209,6.486-15.482
	c4.303-4.313,11.151-8.464,22.896-13.876c0.227-0.105,0.814-0.348,1.381-0.348c0.349,0,0.619,0.093,0.807,0.276
	c0.449,0.439,0.25,1.349-0.086,2.056c-1.838,3.998-7.297,11.265-13.27,17.667c-5.739,6.151-10.804,10.371-14.262,11.879
	C19.116,51.548,18.396,51.727,17.789,51.727z M37.811,39.029c0.297,0.385,0.51,0.81,0.631,1.264
	c0.336,1.264-0.059,2.657-1.108,3.928c-1.115,1.346-2.814,2.377-4.783,2.9c-0.897,0.238-1.802,0.359-2.689,0.359l-0.301-0.004
	c-0.467-0.016-0.923-0.064-1.359-0.146c2.255-1.957,4.653-4.295,7.13-6.952c0.618-0.662,1.231-1.333,1.835-2.007
	C37.41,38.572,37.626,38.794,37.811,39.029z M56.074,37.809c-0.465,1.746-1.74,3.529-3.686,5.149c-1.52,1.265-3.443,2.5-5.717,3.675
	c-2.298,1.188-4.873,2.27-7.654,3.217c-2.6,0.89-5.238,1.61-7.834,2.146c-2.597,0.532-5.001,0.851-7.147,0.944
	c-0.432,0.018-0.852,0.027-1.26,0.027c-0.977,0-1.869-0.056-2.658-0.166c0.143-0.055,0.287-0.113,0.433-0.177
	c1.723-0.752,3.804-2.119,6.187-4.062c0.865,0.283,1.797,0.442,2.774,0.473c0.117,0.004,0.233,0.006,0.351,0.006
	c1.023,0,2.062-0.139,3.086-0.409c2.283-0.606,4.268-1.819,5.586-3.414c1.384-1.669,1.888-3.559,1.419-5.321
	c-0.177-0.66-0.481-1.269-0.908-1.814c-0.245-0.314-0.53-0.609-0.851-0.88c1.433-1.641,2.809-3.305,4.041-4.91
	c1.986-0.539,3.757-0.864,5.408-0.992c0.435-0.034,0.854-0.051,1.258-0.051c1.98,0,3.705,0.406,4.984,1.173
	c0.971,0.582,1.682,1.379,2.057,2.301C56.318,35.645,56.363,36.713,56.074,37.809z"/>
</svg>
