<?xml version="1.0" encoding="utf-8"?>
<!-- Generator: Adobe Illustrator 16.0.0, SVG Export Plug-In . SVG Version: 6.00 Build 0)  -->
<!DOCTYPE svg PUBLIC "-//W3C//DTD SVG 1.1//EN" "http://www.w3.org/Graphics/SVG/1.1/DTD/svg11.dtd">
<svg version="1.1" id="Layer_1" xmlns="http://www.w3.org/2000/svg" xmlns:xlink="http://www.w3.org/1999/xlink" x="0px" y="0px"
	 width="72px" height="72px" viewBox="0 0 72 72" enable-background="new 0 0 72 72" xml:space="preserve">
<path fill="#444444" d="M58.44,26.065c0.101-0.185,0.181-0.381,0.236-0.585c0.197-0.717,0.104-1.469-0.265-2.116
	c-0.305-0.535-0.767-0.945-1.325-1.183c0.081-0.6-0.036-1.208-0.342-1.743c-0.368-0.647-0.967-1.111-1.686-1.309
	c-0.345-0.095-0.708-0.119-1.061-0.078c-0.334-0.735-0.978-1.303-1.788-1.525c-0.549-0.151-1.137-0.128-1.667,0.06
	c-0.359-0.431-0.845-0.749-1.398-0.9c-1.411-0.388-2.941,0.451-3.386,1.827c-1.002,0.177-1.844,0.895-2.163,1.878
	c-1.003,0.178-1.846,0.898-2.161,1.878c-1.042,0.185-1.911,0.955-2.199,2c-0.177,0.649-0.113,1.321,0.17,1.915
	c-0.295,0.489-0.573,0.993-0.837,1.507c-0.646-1.127-1.346-2.209-2.114-3.222c0.287-0.735,0.292-1.545,0.001-2.295
	c-0.464-1.195-1.574-1.981-2.85-2.029c-0.472-1.176-1.573-1.947-2.837-1.994c-0.472-1.177-1.573-1.948-2.837-1.995
	c-0.482-1.201-1.668-2.005-2.965-2.005c-0.396,0-0.784,0.073-1.154,0.217c-0.655,0.253-1.199,0.713-1.56,1.297
	c-0.657-0.188-1.378-0.159-2.027,0.093c-0.944,0.365-1.632,1.143-1.903,2.078c-0.452-0.028-0.91,0.044-1.336,0.21
	c-0.796,0.309-1.424,0.908-1.768,1.689c-0.304,0.69-0.355,1.448-0.149,2.164c-1.459,0.727-2.154,2.465-1.553,4.013
	c0.106,0.274,0.251,0.531,0.429,0.764c-0.948,0.864-1.321,2.255-0.83,3.521c0.315,0.811,0.935,1.441,1.717,1.773
	c0.188,3.094,0.915,6.345,2.116,9.441c3.334,8.599,8.352,13.313,16.779,15.763l0.144,0.042c0.939,0.279,1.986,0.565,2.628,0.565
	c0.421,0,0.743-0.128,0.957-0.38c0.184-0.215,0.262-0.502,0.216-0.788c-0.091-0.545,0.242-1.348,0.436-1.495
	c1.139-0.812,2.069-1.917,2.81-3.229c0.125,0.226,0.242,0.539,0.227,0.79c-0.015,0.233,0.093,0.54,0.254,0.711
	c0.135,0.145,0.383,0.316,0.792,0.316c0.447,0,1.128-0.207,2.352-0.714l0.092-0.038c6.761-2.74,10.51-7.064,12.535-14.461
	c0.722-2.626,1.047-5.339,0.95-7.886c0.608-0.363,1.06-0.946,1.253-1.648C59.671,27.866,59.271,26.742,58.44,26.065z M37.119,53.734
	c-0.591,0.422-1.035,1.362-1.14,2.278c-0.387-0.077-0.93-0.22-1.625-0.426l-0.153-0.046c-7.861-2.285-12.547-6.694-15.668-14.745
	c-1.211-3.124-1.914-6.407-2.031-9.493c-0.015-0.396-0.301-0.729-0.69-0.803c-0.51-0.097-0.925-0.441-1.111-0.919
	c-0.298-0.768,0.085-1.636,0.815-1.921c0.027-0.006,0.119-0.031,0.145-0.04c0.322-0.107,0.549-0.396,0.578-0.734
	c0.028-0.338-0.146-0.662-0.446-0.822c-0.227-0.121-0.531-0.353-0.691-0.767c-0.298-0.767,0.085-1.635,0.848-1.931
	c0.114-0.043,0.245-0.071,0.411-0.087c0.307-0.029,0.574-0.222,0.698-0.504s0.085-0.61-0.101-0.855
	c-0.1-0.131-0.167-0.245-0.209-0.356c-0.145-0.372-0.135-0.777,0.025-1.142c0.161-0.365,0.455-0.646,0.829-0.791
	c0.171-0.066,0.349-0.1,0.531-0.1c0.201,0,0.398,0.04,0.588,0.12c0.269,0.113,0.579,0.08,0.82-0.089
	c0.239-0.169,0.375-0.449,0.358-0.742c-0.037-0.651,0.341-1.244,0.941-1.476c0.454-0.175,0.972-0.114,1.376,0.158
	c0.23,0.155,0.522,0.188,0.782,0.087c0.259-0.101,0.453-0.321,0.519-0.592c0.116-0.477,0.457-0.867,0.912-1.043
	c0.752-0.292,1.645,0.11,1.932,0.853c0.04,0.101,0.066,0.218,0.083,0.356c0.028,0.24,0.156,0.457,0.354,0.596
	c0.197,0.139,0.443,0.188,0.68,0.134c0.719-0.164,1.458,0.23,1.721,0.907c0.039,0.101,0.065,0.216,0.083,0.361
	c0.029,0.239,0.158,0.454,0.354,0.593c0.197,0.138,0.443,0.188,0.678,0.133c0.718-0.161,1.459,0.229,1.723,0.908
	c0.038,0.098,0.064,0.212,0.082,0.359c0.029,0.239,0.158,0.454,0.354,0.592c0.197,0.139,0.442,0.189,0.677,0.134
	c0.716-0.163,1.46,0.23,1.723,0.908c0.169,0.438,0.121,0.922-0.134,1.329c-0.19,0.304-0.169,0.695,0.053,0.977
	c1.78,2.258,3.243,4.851,4.348,7.708C42.516,41.51,41.647,50.508,37.119,53.734z M57.731,28.51c-0.1,0.36-0.375,0.64-0.738,0.75
	c-0.379,0.114-0.629,0.474-0.604,0.869c0.164,2.528-0.134,5.266-0.861,7.917c-1.871,6.828-5.32,10.816-11.538,13.335l-0.102,0.043
	c-0.528,0.219-0.898,0.356-1.155,0.442c-0.182-0.664-0.573-1.285-1.032-1.615c1.85-4.711,1.605-11.402-0.977-18.061
	c-0.35-0.903-0.746-1.772-1.162-2.624c0.459-1.021,0.974-2,1.558-2.922c0.192-0.303,0.173-0.693-0.047-0.976
	c-0.214-0.276-0.286-0.623-0.197-0.95c0.128-0.466,0.558-0.792,1.044-0.792c0.044,0,0.089,0.003,0.133,0.008
	c0.245,0.033,0.48-0.044,0.663-0.204c0.182-0.159,0.287-0.388,0.29-0.629c0.002-0.104,0.012-0.187,0.032-0.261
	c0.14-0.509,0.642-0.851,1.175-0.784c0.236,0.031,0.478-0.044,0.659-0.2c0.182-0.157,0.288-0.383,0.294-0.623
	c0.003-0.111,0.014-0.199,0.034-0.273c0.139-0.508,0.645-0.842,1.177-0.782c0.247,0.03,0.48-0.045,0.663-0.204
	c0.182-0.159,0.287-0.388,0.29-0.629c0.002-0.102,0.012-0.188,0.033-0.263c0.153-0.563,0.755-0.919,1.332-0.758
	c0.347,0.095,0.614,0.346,0.736,0.688c0.093,0.262,0.309,0.462,0.577,0.535c0.264,0.073,0.555,0.01,0.77-0.168
	c0.271-0.228,0.638-0.31,0.981-0.215c0.45,0.123,0.766,0.523,0.788,0.995c0.013,0.293,0.176,0.558,0.432,0.702
	c0.255,0.144,0.568,0.145,0.823,0.006c0.25-0.136,0.544-0.172,0.808-0.1c0.28,0.077,0.514,0.259,0.658,0.511
	c0.144,0.252,0.18,0.544,0.104,0.822c-0.021,0.08-0.063,0.167-0.129,0.277c-0.157,0.263-0.146,0.589,0.006,0.856
	c0.15,0.266,0.448,0.431,0.755,0.431c0.11,0,0.2,0.01,0.274,0.03c0.279,0.077,0.513,0.258,0.656,0.51
	c0.144,0.252,0.18,0.544,0.104,0.824c-0.086,0.31-0.287,0.499-0.441,0.603c-0.278,0.188-0.42,0.521-0.361,0.852
	c0.058,0.331,0.305,0.596,0.631,0.677c0.055,0.014,0.104,0.02,0.104,0.016C57.548,27.336,57.889,27.934,57.731,28.51z
	 M55.457,29.271c0.232,0.408,0.091,0.927-0.317,1.16c-0.133,0.076-0.277,0.112-0.42,0.112c-0.296,0-0.582-0.154-0.739-0.429
	l-0.365-0.641l-0.642,0.366c-0.222,0.127-0.473,0.134-0.696,0.057c-0.241-0.042-0.464-0.181-0.595-0.411l-0.365-0.641l-0.641,0.365
	c-0.407,0.233-0.927,0.091-1.159-0.317c-0.232-0.408-0.091-0.927,0.317-1.159l1.379-0.786c0.195-0.111,0.427-0.141,0.646-0.082
	c0.218,0.06,0.402,0.203,0.514,0.399l0.413,0.725l0.725-0.414c0.409-0.232,0.927-0.09,1.159,0.317L55.457,29.271z M47.923,22.692
	c-0.232-0.408-0.091-0.927,0.317-1.16l1.379-0.787c0.195-0.112,0.427-0.14,0.646-0.082c0.218,0.06,0.402,0.203,0.514,0.399
	l0.413,0.725l0.726-0.414c0.195-0.111,0.431-0.14,0.646-0.082c0.218,0.06,0.403,0.204,0.515,0.4l0.785,1.381
	c0.231,0.408,0.089,0.927-0.319,1.159c-0.133,0.076-0.276,0.111-0.419,0.111c-0.296,0-0.583-0.155-0.74-0.43l-0.364-0.641
	l-0.641,0.365c-0.222,0.127-0.472,0.134-0.694,0.058c-0.242-0.042-0.466-0.181-0.597-0.411l-0.365-0.641l-0.641,0.365
	C48.675,23.243,48.156,23.1,47.923,22.692z M48.247,27.123c-0.296,0-0.582-0.154-0.739-0.429l-0.366-0.642l-0.641,0.365
	c-0.222,0.127-0.473,0.134-0.696,0.057c-0.242-0.042-0.465-0.181-0.596-0.411l-0.364-0.64l-0.642,0.365
	c-0.407,0.233-0.928,0.09-1.159-0.318c-0.232-0.408-0.09-0.927,0.317-1.159l1.38-0.786c0.409-0.232,0.928-0.089,1.159,0.318
	l0.412,0.724l0.726-0.413c0.409-0.232,0.927-0.09,1.159,0.317l0.787,1.379c0.232,0.408,0.091,0.927-0.317,1.16
	C48.534,27.087,48.39,27.123,48.247,27.123z M55.479,34.349c-0.04,0.403-1.04,9.908-6.354,12.705
	c-0.126,0.066-0.262,0.099-0.395,0.099c-0.306,0-0.601-0.166-0.753-0.455c-0.219-0.415-0.06-0.929,0.356-1.147
	c4.514-2.376,5.445-11.279,5.454-11.369c0.046-0.467,0.467-0.808,0.93-0.762C55.184,33.465,55.525,33.882,55.479,34.349z
	 M18.644,31.415c-0.115,0-0.231-0.023-0.343-0.072c-0.429-0.189-0.624-0.691-0.435-1.121l0.776-1.759
	c0.19-0.43,0.692-0.624,1.121-0.435l1.089,0.48l0.481-1.089c0.189-0.429,0.693-0.624,1.12-0.435l1.759,0.776
	c0.43,0.189,0.625,0.691,0.435,1.121c-0.189,0.43-0.692,0.624-1.121,0.435l-0.982-0.433l-0.434,0.981
	c-0.11,0.249-0.326,0.415-0.571,0.477c-0.215,0.102-0.468,0.123-0.703,0.019l-0.982-0.433l-0.433,0.981
	C19.281,31.226,18.97,31.415,18.644,31.415z M19.019,22.554l0.777-1.759c0.189-0.429,0.691-0.625,1.12-0.435l1.089,0.48l0.481-1.089
	c0.19-0.429,0.692-0.623,1.121-0.434l1.759,0.776c0.429,0.189,0.624,0.691,0.435,1.121c-0.19,0.43-0.692,0.624-1.121,0.435
	l-0.981-0.433l-0.434,0.982c-0.11,0.249-0.327,0.415-0.572,0.477c-0.215,0.102-0.467,0.121-0.701,0.018l-0.983-0.433l-0.434,0.981
	c-0.14,0.318-0.452,0.507-0.778,0.507c-0.115,0-0.231-0.023-0.343-0.073C19.023,23.485,18.829,22.983,19.019,22.554z M32.022,23.959
	c-0.19,0.429-0.691,0.623-1.121,0.435l-0.981-0.434l-0.434,0.983c-0.111,0.25-0.329,0.417-0.576,0.478
	c-0.215,0.101-0.466,0.119-0.699,0.016l-0.983-0.434l-0.433,0.981c-0.14,0.318-0.452,0.507-0.778,0.507
	c-0.115,0-0.231-0.023-0.342-0.072c-0.43-0.189-0.625-0.691-0.435-1.121l0.776-1.759c0.091-0.207,0.26-0.368,0.47-0.45
	c0.21-0.082,0.444-0.076,0.65,0.015l1.09,0.48l0.48-1.089c0.19-0.429,0.691-0.623,1.121-0.435l1.759,0.776
	C32.017,23.028,32.211,23.53,32.022,23.959z M28.707,50.152c-0.133,0.331-0.452,0.533-0.789,0.533c-0.105,0-0.212-0.021-0.316-0.062
	c-6.661-2.679-9.023-13.913-9.121-14.39c-0.094-0.46,0.203-0.909,0.663-1.002c0.461-0.092,0.91,0.202,1.003,0.662
	c0.022,0.108,2.277,10.816,8.089,13.152C28.67,49.222,28.882,49.717,28.707,50.152z"/>
</svg>
