<?xml version="1.0" encoding="utf-8"?>
<!-- Generator: Adobe Illustrator 16.0.0, SVG Export Plug-In . SVG Version: 6.00 Build 0)  -->
<!DOCTYPE svg PUBLIC "-//W3C//DTD SVG 1.1//EN" "http://www.w3.org/Graphics/SVG/1.1/DTD/svg11.dtd">
<svg version="1.1" id="Layer_1" xmlns="http://www.w3.org/2000/svg" xmlns:xlink="http://www.w3.org/1999/xlink" x="0px" y="0px"
	 width="72px" height="72px" viewBox="0 0 72 72" enable-background="new 0 0 72 72" xml:space="preserve">
<path fill="#444444" d="M36.275,34.223c1.694,5.55,1.913,10.443,0.648,14.542c-1.458,4.729-5.243,7.827-10.387,8.502
	c-0.03,0.004-0.059,0.004-0.089,0.004c-0.043,0-0.082-0.015-0.123-0.022c-0.069,0.026-0.141,0.048-0.22,0.05
	c-0.128,0.004-0.254,0.006-0.38,0.006c-3.645,0-6.78-1.347-9.088-3.906c-2.144-2.381-3.495-5.681-3.907-9.547
	c-0.38-3.563-0.098-7.338,0.84-11.224c0.439-1.822,1.005-3.55,1.681-5.134c0.307-0.719,0.663-1.454,1.087-2.248
	c0.043-0.08,0.086-0.157,0.129-0.232c0.118-0.208,0.208-0.369,0.25-0.535c-0.069-0.399-0.174-1.447,0.436-2.166
	c0.359-0.425,0.862-0.919,1.553-0.974c0.298-0.024,0.567,0.048,0.817,0.155c0.125,0.027,0.245,0.076,0.342,0.174
	c0.005,0.005,0.01,0.01,0.015,0.015c0.177,0.113,0.344,0.235,0.487,0.358c0.103,0.088,0.161,0.203,0.196,0.324
	c0.01,0.01,0.022,0.023,0.033,0.033c0.267,0.262,0.269,0.69,0.006,0.957c-0.131,0.133-0.307,0.201-0.481,0.201
	c-0.172,0-0.344-0.065-0.476-0.195c-0.187-0.184-0.409-0.405-0.615-0.612c-0.11-0.054-0.178-0.063-0.217-0.06
	c-0.081,0.006-0.271,0.08-0.627,0.5c-0.23,0.271-0.168,0.922-0.12,1.129c0.019,0.081,0.022,0.163,0.013,0.244
	c-0.062,0.465-0.259,0.812-0.433,1.119c-0.037,0.065-0.075,0.134-0.113,0.202c-0.405,0.761-0.744,1.461-1.035,2.142
	c-0.646,1.516-1.188,3.171-1.61,4.921c-0.901,3.734-1.174,7.354-0.811,10.762c0.646,6.045,4.143,12.437,11.994,12.237
	c0.052-0.002,0.099,0.016,0.148,0.025c0.047-0.018,0.091-0.042,0.143-0.049c4.595-0.602,7.974-3.355,9.268-7.555
	c1.184-3.838,0.964-8.463-0.65-13.75c-0.621-2.037-1.419-3.995-2.371-5.817c-0.462-0.887-0.956-1.729-1.467-2.502
	c-0.301-0.455-0.555-0.816-0.8-1.139c-0.086-0.113-0.214-0.244-0.351-0.383c-0.328-0.332-0.7-0.71-0.853-1.205
	c-0.052-0.168-0.083-0.314-0.107-0.433c-0.046-0.225-0.064-0.308-0.18-0.452c-0.274-0.337-0.62-0.519-0.816-0.518
	c-0.015,0.028-0.019,0.058-0.038,0.084c-0.197,0.272-0.431,0.592-0.618,0.846c-0.133,0.178-0.338,0.275-0.545,0.275
	c-0.14,0-0.281-0.043-0.402-0.133c-0.301-0.222-0.365-0.646-0.143-0.949c0.071-0.095,0.15-0.203,0.229-0.311
	c0.009-0.09,0.034-0.181,0.081-0.266c0.294-0.532,0.754-0.852,1.294-0.899c0.813-0.073,1.57,0.477,2.008,1.014
	c0.326,0.4,0.399,0.751,0.457,1.033c0.021,0.104,0.042,0.202,0.074,0.308c0.056,0.179,0.316,0.443,0.524,0.655
	c0.161,0.162,0.326,0.331,0.463,0.512c0.264,0.347,0.535,0.732,0.853,1.214c0.537,0.813,1.053,1.694,1.538,2.62
	C34.799,30.07,35.629,32.105,36.275,34.223z M21.196,23.687c0.681-1.023,1.819-1.869,1.987-1.99
	c0.222-0.159,0.518-0.171,0.751-0.027c0.225,0.138,2.21,1.395,2.585,2.838c0.015,0.057,0.009,0.111,0.009,0.167
	c0.028,0.137,0.026,0.282-0.037,0.418c-1.184,2.559-1.491,7.795-1.047,9.604c0.059,0.239-0.027,0.472-0.19,0.634
	c0.725,3.491,1.341,7.841,1.612,13.14c0.019,0.373-0.268,0.692-0.642,0.711c-0.011,0.002-0.022,0.002-0.035,0.002
	c-0.358,0-0.657-0.281-0.676-0.643c-0.854-16.662-5.252-23.887-5.297-23.957c-0.198-0.318-0.102-0.735,0.215-0.933
	C20.676,23.497,20.978,23.523,21.196,23.687z M22.046,25.024c-0.004,0.026-0.019,0.046-0.026,0.071
	c0.499,1.037,1.223,2.75,1.964,5.203c0.161-1.972,0.547-4.063,1.184-5.552c-0.208-0.555-0.945-1.223-1.56-1.664
	C22.929,23.645,22.147,24.47,22.046,25.024z M29.448,50.695c-0.292,0.231-0.339,0.658-0.105,0.951
	c0.133,0.166,0.331,0.254,0.529,0.254c0.149,0,0.298-0.049,0.424-0.148c2.97-2.384,4.221-6.546,3.619-12.043
	c-0.041-0.371-0.376-0.641-0.748-0.6s-0.641,0.375-0.6,0.746C32.95,43.352,32.72,48.068,29.448,50.695z M34.362,25.53
	c0.174,0,0.346-0.065,0.477-0.196c1.772-1.764,3.843-3.375,6.149-4.785c1.537-0.939,3.092-1.726,4.619-2.342
	c0.687-0.276,1.422-0.53,2.246-0.78c0.076-0.023,0.15-0.044,0.225-0.065c0.339-0.093,0.725-0.199,1.096-0.484
	c0.064-0.05,0.121-0.112,0.164-0.182c0.112-0.18,0.529-0.685,0.883-0.713c0.549-0.045,0.735,0.037,0.797,0.09
	c0.031,0.026,0.074,0.084,0.115,0.204c-0.001,0.291,0,0.595,0.002,0.857c0.002,0.373,0.305,0.675,0.676,0.675
	c0.002,0,0.002,0,0.006,0c0.373,0,0.675-0.302,0.672-0.676c0-0.017,0-0.039,0-0.056c0.059-0.11,0.099-0.232,0.089-0.366
	c-0.014-0.185-0.045-0.385-0.089-0.586c0-0.006,0-0.013,0-0.019c0.001-0.127-0.043-0.238-0.104-0.338
	c-0.101-0.267-0.247-0.522-0.486-0.727c-0.526-0.449-1.231-0.456-1.787-0.409c-0.939,0.077-1.605,0.891-1.84,1.223
	c-0.147,0.088-0.324,0.137-0.555,0.2c-0.084,0.023-0.17,0.048-0.256,0.074c-0.861,0.259-1.634,0.53-2.359,0.82
	c-1.597,0.642-3.218,1.463-4.817,2.442c-2.397,1.465-4.551,3.141-6.4,4.982c-0.264,0.264-0.266,0.692-0.002,0.957
	C34.015,25.464,34.189,25.53,34.362,25.53z M58.865,21.226c-0.465-0.39-1.053-0.51-1.651-0.339
	c-0.094,0.027-0.177,0.074-0.247,0.133c-0.131,0.021-0.264,0.041-0.38,0.059c-0.37,0.055-0.625,0.4-0.569,0.77
	c0.051,0.336,0.34,0.576,0.67,0.576c0.033,0,0.066-0.002,0.1-0.007c0.313-0.047,0.703-0.108,1.037-0.162
	c0.032-0.005,0.058-0.023,0.088-0.033c0.027,0.015,0.057,0.019,0.084,0.042c0.238,0.2,0.4,0.661,0.363,1.021
	c-0.021,0.098-0.242,0.33-0.436,0.46c-0.097,0.061-0.174,0.147-0.229,0.249c-0.24,0.458-0.244,0.988-0.248,1.457
	c-0.002,0.194-0.004,0.377-0.021,0.518c-0.054,0.401-0.131,0.836-0.24,1.371c-0.185,0.91-0.431,1.853-0.729,2.806
	c-0.618,1.962-1.438,3.911-2.438,5.791c-2.598,4.878-5.713,8.306-9.264,10.182c-1.841,0.974-3.773,1.394-5.744,1.246
	c-0.377-0.03-0.697,0.252-0.725,0.625c-0.028,0.373,0.252,0.698,0.625,0.726c0.291,0.022,0.58,0.034,0.869,0.033
	c1.926,0,3.809-0.48,5.609-1.436c3.793-2.008,7.098-5.619,9.825-10.742c1.04-1.954,1.892-3.979,2.533-6.022
	c0.313-0.996,0.571-1.984,0.767-2.939c0.114-0.565,0.195-1.029,0.254-1.461c0.031-0.225,0.033-0.46,0.035-0.689
	c0.002-0.241,0.004-0.531,0.051-0.72c0.293-0.229,0.791-0.706,0.854-1.313C59.792,22.603,59.453,21.719,58.865,21.226z
	 M52.001,18.464c1.206-0.243,2.609-0.035,2.813-0.003c0.271,0.046,0.488,0.246,0.551,0.512c0.063,0.258,0.578,2.548-0.178,3.836
	c-0.023,0.04-0.064,0.058-0.094,0.091c-0.076,0.131-0.189,0.242-0.344,0.3c-2.646,0.971-6.566,4.458-7.532,6.051
	c-0.127,0.211-0.351,0.326-0.579,0.326c-0.005,0-0.01-0.004-0.016-0.004c-1.78,2.714-4.111,5.855-7.2,9.373
	c-0.135,0.152-0.321,0.23-0.51,0.23c-0.158,0-0.317-0.056-0.446-0.168c-0.281-0.247-0.31-0.676-0.063-0.957
	c10.4-11.841,12.252-19.569,12.27-19.646c0.083-0.365,0.446-0.593,0.811-0.51C51.768,17.959,51.964,18.193,52.001,18.464z
	 M51.657,20.012c-0.022,0.016-0.049,0.019-0.073,0.031c-0.379,1.084-1.081,2.804-2.295,5.071c1.507-1.28,3.258-2.486,4.763-3.091
	c0.251-0.539,0.207-1.529,0.085-2.281C53.258,19.658,52.121,19.69,51.657,20.012z M39.547,44.794c3.469,0,6.947-2.062,10.116-6.009
	c0.235-0.291,0.188-0.719-0.104-0.952c-0.291-0.235-0.718-0.187-0.951,0.104c-2.201,2.74-5.697,5.914-9.869,5.455
	c-0.37-0.039-0.707,0.229-0.748,0.602c-0.04,0.372,0.229,0.706,0.601,0.747C38.909,44.775,39.227,44.794,39.547,44.794z"/>
</svg>
