<?xml version="1.0" encoding="utf-8"?>
<!-- Generator: Adobe Illustrator 16.0.0, SVG Export Plug-In . SVG Version: 6.00 Build 0)  -->
<!DOCTYPE svg PUBLIC "-//W3C//DTD SVG 1.1//EN" "http://www.w3.org/Graphics/SVG/1.1/DTD/svg11.dtd">
<svg version="1.1" id="Layer_1" xmlns="http://www.w3.org/2000/svg" xmlns:xlink="http://www.w3.org/1999/xlink" x="0px" y="0px"
	 width="72px" height="72px" viewBox="0 0 72 72" enable-background="new 0 0 72 72" xml:space="preserve">
<path fill="#444444" d="M56.294,42.605c-0.682-0.304-1.302-2.406-2.354-1.354c-0.196,0.194-0.396,0.743-0.725,0.505
	c-0.438-0.321-0.963-0.431-1.439-0.124c-0.87,0.56-0.578,1.986-1.846,1.986c-0.864,0-1.754-0.01-2.625,0.009
	c1.189-0.841,2.335-2.742,3.896-2.389c2.004,0.462,1.392-1.146,2.488-2.035c0.438-0.355,0.579-1.16,0.191-1.605
	c-0.445-0.514-0.443-0.348-0.279-0.892c0.365-0.385,0.818-0.874,0.677-1.458c-0.152-0.625-0.906-1.262-1.554-1.262
	c-0.874,0-0.725,0.759-1.233,1.143c-0.306,0.231-1.012-0.327-1.474-0.005c-0.974,0.679,0.293,1.927-0.769,2.537
	c-0.889,0.854-0.759,1.102-0.229,2.238c0.557,1.194-2.554,2.947-3.45,3.522c0.209-0.574,0.438-2.192,0.988-2.432
	c0.637-0.276,2.072-0.331,2.084-1.295c0.006-0.482-0.434-0.889-0.394-1.341c0.076-0.849,1.33-1.199,0.73-2.241
	c-0.438-0.762-0.884-0.694-1.059-1.624c-0.145-0.798-0.942-1.133-1.679-1.009c-0.69,0.116-1.175,0.637-1.171,1.352
	c0.004,0.956-1.124,1.259-1.073,2.113c0.024,0.408,0.328,0.708,0.215,1.135c-0.087,0.327-0.346,0.649-0.279,1.01
	c0.146,0.794,1.19,1.062,1.215,1.887c0.026,0.353-0.293,1.025-0.389,1.363c-0.241,0.851-0.184,1.71-0.963,2.164
	c-2.268,1.32-4.279,2.831-6.076,4.76c1.045-3.977,2.743-7.788,3.396-11.865c0.499-3.298,4.983-4.672,7.346-6.41
	c0.336-0.247,0.577-0.652,1.018-0.55c0.372,0.087,0.734,0.208,1.112,0.267c0.92,0.145,1.124-0.241,1.326-1.045
	c0.122-0.488,1.248-0.362,1.424-1.249c0.162-0.816-1.022-1.244-0.369-1.938c1.37-1.462-1.218-2.823-2.376-1.853
	c-0.502,0.421-0.185,1.234-0.676,1.626c-0.444,0.355-1.123,0.17-1.256,0.913c0.07-0.537-0.341-0.966-0.713-1.281
	c-0.393-0.325-0.215-0.708-0.234-1.149c-0.037-0.988-1.103-1.208-1.903-1.092c-1.082,0.166-0.727,1.115-1.249,1.748
	c-0.431,0.522-1.501,1.113-0.488,1.851c0.988,0.72-0.57,1.654,0.536,2.25c0.875,0.474,1.968,0.367,1.566,1.621
	c-1.678,0.997-3.507,1.872-4.781,3.399c0.084-1.883-0.018-3.771-0.239-5.642c-0.195-1.651-0.773-2.897,0.269-4.338
	c0.428-0.591,1.054-1.411,1.806-1.076c0.617,0.275,1.405,0.823,2.065,0.336c0.444-0.336,0.553-0.787,0.78-1.263
	c0.262-0.555,1.218-0.373,1.488-1.15c0.237-0.681-0.497-1.266-0.11-1.892c0.293-0.474,0.658-0.873,0.497-1.494
	c-0.202-0.787-1.018-1.346-1.813-1.346c-0.967,0-1.035,0.679-1.475,1.32c-0.356,0.52-1.112,0.42-1.641,0.607
	c-0.774,0.275-0.819,1.069-0.688,1.767c0.103,0.529,0.214,1.817-0.275,2.193c-0.653,0.502-1.303,1.035-1.763,1.73
	c-0.096-0.348-1.281-3.727-1.196-3.783c0.867-1.188,2.552-1.583,1.319-3.295c-0.433-0.605,1.393-1.557,0.136-2.514
	c-1.055-0.803-0.285-2.119-1.67-2.796c-0.613-0.299-1.286-0.306-1.795,0.211c-0.416,0.421-0.244,1.066-0.59,1.49
	c-0.767,0.943-1.879,1.224-0.933,2.611c0.468,0.687-0.158,0.97-0.162,1.665c-0.007,0.723,0.429,1.234,1.017,1.594
	c0.475,0.291,1.004,0.494,1.445,0.84c0.518,0.407,0.609,1.596,0.803,2.215c0.597,1.913,1.137,3.792,1.41,5.783
	c-1.074-1.193-2.534-1.947-3.965-2.624c-0.901-0.426-1.805-0.846-2.661-1.359c-0.833-0.499,0.135-1.219,0.161-2.049
	c0.021-0.671-0.432-1.084-1.015-1.278c-0.562-0.19-0.285-0.86-0.266-1.376c0.025-0.661-0.458-1.083-1.103-1.083
	c-0.828,0-1.163,0.589-1.908-0.058c-1.185-1.041-2.475,0.085-2.286,1.466c0.09,0.657,0.684,1.111,0.753,1.739
	c0.089,0.811-0.324,1.579,0.65,2.032c0.448,0.208,0.846,0.154,0.994,0.689c0.197,0.726,0.685,1.063,1.445,0.898
	c1.071-0.232,0.993-0.526,1.981,0.032c0.693,0.391,1.411,0.737,2.126,1.084c-1.011,0.118-2.006,0.391-2.988,0.652
	c-0.997,0.266-1.014-1.076-1.891-1.362c-0.712-0.232-1.431,0.682-2.02,0.422c-0.715-0.307-0.898-1.101-1.838-0.908
	c-0.761,0.155-1.062,0.779-0.93,1.505c0.161,0.883-0.262,1.505-0.238,2.351c0.024,0.841,0.983,1.457,1.759,1.139
	c0.83-0.341,0.953,0.071,1.732,0.378c0.645,0.254,0.921-0.651,1.513-0.651c0.787,0,1.182,0.178,1.604-0.699
	c0.136-0.282,0.26-0.586,0.348-0.887c0.084-0.292,0.929-0.379,1.241-0.474c1.162-0.354,2.346-0.682,3.563-0.402
	c1.362,0.313,3.418,2.022,3.499,3.496c0.134,2.415,0.002,4.846-0.427,7.228c-0.283-0.727-1.08-1.404-0.616-2.101
	c0.637-0.973,0.452-1.383-0.254-2.199c-0.471-0.544,0.151-1.209-0.129-1.853c-0.393-0.902-1.179-0.424-1.697-1.004
	c-0.421-0.471-0.352-1.294-1.097-1.463c-0.652-0.148-1.619,0.386-1.673,1.093c-0.02,0.26,0.067,0.503,0.082,0.76
	c0.025,0.42-0.434,0.659-0.545,1.049c-0.314,1.095,0.692,1.224,1.105,1.955c0.328,0.58-0.286,1.245,0.21,1.87
	c0.53,0.667,1.567,0.448,2.297,0.603c1.064,0.226,1.77,2.488,1.803,3.509c0.021,0.612-0.381,1.424-0.565,2.007
	c-0.36,1.129-0.751,2.248-1.127,3.372c-0.739,2.209-1.404,4.441-1.71,6.757c-1.123-1.354-2.516-2.446-3.909-3.504
	c-0.611-0.464-1.226-0.924-1.825-1.402c-0.665-0.532-0.1-1.918,0.358-2.547c0.466-0.64,1.053-1.178,1.562-1.783
	c0.552-0.657,1.278-0.798,2.056-1.112c0.582-0.234,1.358-0.561,1.592-1.203c0.247-0.669-0.799-1.396-0.628-1.752
	c0.73-1.553-1.034-1.328-1.119-2.334c-0.119-1.453-2.415-0.978-2.514,0.328c-0.034,0.438,0.262,1.104-0.055,1.479
	c-0.584,0.692-1.329,0.961-0.758,2.004c0.314,0.592,0.831,1.086,0.825,1.8c-0.417,0.614-0.977,1.111-1.456,1.674
	c-0.117-0.979-0.727-1.554-0.1-2.437c0.253-0.355,0.493-0.732,0.437-1.19c0.009,0.071-0.346-0.897-0.445-0.699
	c0.401-0.643,1.198-1.114,0.6-1.991c-0.203-0.298-0.55-0.438-0.744-0.739c-0.296-0.458-0.164-1.069-0.49-1.514
	c-0.55-0.751-1.809-0.532-2.125,0.309c-0.278,0.74-1.361,0.58-1.601,1.341c-0.229,0.728,0.243,1.394-0.06,2.205
	c-0.315,0.854,0.078,1.618,0.878,1.998c1.106,0.52,2.061,0.822,2.411,2.052c0.289,1.013,0.34,2.054,0.173,3.092
	c-2.49-2.257-4.25-5.184-5.001-8.464c-0.208-0.91-0.128-1.123,0.706-1.579c0.625-0.34,1.332-0.806,1.105-1.637
	c-0.238-0.875-0.441-0.468,0.028-1.389c0.357-0.703-0.495-1.233-0.938-1.612c-0.44-0.375-0.126-0.806-0.432-1.288
	c-0.335-0.53-1.239-1.027-1.867-0.737c-0.614,0.283-0.803,1.147-1.393,1.54c-0.771,0.513-0.952,1.18-0.255,1.851
	c0.602,0.591,0.354,0.767,0.105,1.404c-0.33,0.844,0.362,1.415,0.972,1.847c0.841,0.599,0.762,1.063,0.983,2.048
	c0.221,0.983,0.547,1.942,0.959,2.862c-0.472-0.158-0.958-0.237-1.439-0.358c-0.689-0.154-0.761-0.052-0.831-0.746
	c-0.062-0.592-0.099-1.401-0.609-1.807c-0.391-0.31-1.186,0.076-1.438-0.224c-0.395-0.469-0.157-1.201-0.571-1.689
	c-0.594-0.7-1.564-0.669-2.093,0.084c-0.38,0.54-1.056,0.803-1.353,1.376c-0.461,0.888,0.44,1.577,0.464,2.449
	c0.019,0.653,0.185,1.267,0.941,1.356c0.365,0.043,1.115-0.135,1.367,0.202c1.356,1.784,2.018-0.618,3.351-0.258
	c0.745,0.202,1.499,0.391,2.213,0.688c0.919,0.381,1.19,1.173,1.76,1.948c1.097,1.493,2.417,2.823,3.841,4.005
	c-0.896,0.014-1.753,0.22-2.625,0.398c-0.409,0.083-0.969-1.065-1.361-1.316c-0.507-0.324-1.076-0.211-1.603,0.004
	c-0.823,0.326-1.343-0.53-2.165-0.631c-0.766,0-0.892,0.765-1.138,1.285c-0.243,0.514-1.229,0.111-1.446,0.926
	c-0.104,0.396,0.14,0.772,0.334,1.09c0.301,0.495,0.276,0.796,0.288,1.332c0.018,0.795,0.451,1.429,1.288,1.103
	c0.881-0.344,0.895-0.31,1.688,0.169c1.088,0.656,1.405-0.743,2.321-0.385c0.585,0.218,1.115,0.159,1.342-0.494
	c0.267-0.767-0.053-1.759,0.84-1.981c1.43-0.356,3.08-0.816,4.33,0.106c0.89,0.652,1.785,1.305,2.599,2.052
	c0.339,0.312,0.663,0.639,0.962,0.987c0.56,0.649,0.54,0.898,0.522,1.736c-0.641-0.441-1.574-0.306-2.133-0.737
	c-0.545-0.42-0.95-1.024-1.658-1.188c-0.532-0.123-0.945,0.134-1.46,0.134c-0.839,0-1.404-0.909-2.201-0.067
	c-0.219,0.231-0.379,0.56-0.67,0.716c-0.301,0.161-0.635,0.086-0.92,0.304c-0.508,0.389-0.572,0.839-0.446,1.424
	c0.208,0.966,0.306,2.949,1.828,2.569c0.453-0.112,1.058-0.641,1.496-0.338c0.357,0.247,0.774,0.348,1.197,0.236
	c0.439-0.122,0.5-0.612,0.889-0.755c0.569-0.209,1.201,0.084,1.565-0.569c0.308-0.551,0.374-1.486,1.216-1.229
	c1.597,0.49,1.418,2.168,1.777,3.498c0.117,0.435,0.312,1.671,1.039,1.298c0.645-0.33-0.248-2.402-0.35-2.981
	c-0.232-1.333,1.716-2.586,2.841-2.934c0.738-0.229,1.514-0.279,2.282-0.244c1.091,0.06,1.246,0.27,1.654,1.238
	c0.202,0.479,0.535,0.977,1.104,1.029c0.808,0.076,0.824-0.882,1.505,0.027c0.418,0.574,1.224,0.5,1.69,0.033
	c0.581-0.578,0.457-0.893,1.262-1.213c0.674-0.268,1.192-1.121,0.98-1.85c-0.167-0.563-0.851-0.795-1.191-1.254
	c-0.291-0.35-0.469-0.807-0.896-1.028c-0.894-0.464-1.153,0.974-1.806,0.974c-0.572,0-0.83-0.718-1.525-0.218
	c-0.546,0.392-0.742,1.224-1.366,1.504c-1.875-0.362-3.712-0.437-5.405,0.599c-0.473,0.289-0.898,0.65-1.259,1.071
	c0.007-1.013-0.049-2.354,0.436-3.268c0.446-0.841,1.11-1.578,1.756-2.27c1.083-1.158,1.629-1.464,3.248-1.533
	c2.078-0.089,4.123,0.599,6.127,1.071c0.722,0.171,0.787,1.276,1.314,1.713c0.406,0.329,0.94,0.262,1.367,0.012
	c0.784-0.462,0.775-0.368,1.582-0.052c0.979,0.385,1.501-0.685,1.582-1.476c0.078-0.816,1.051-1.876,0.249-2.626
	c-0.4-0.375-1.197-0.12-1.718-0.354c-0.333-0.149-0.651-0.337-1.021-0.149c-0.477,0.242-0.548,0.795-0.995,0.36
	c-0.752-0.684-1.198-0.289-1.607,0.563c-0.43,0.802-0.275,1.02-1.252,0.851c-1.854-0.321-3.722-0.908-5.611-0.91
	c0.924-0.969,2.689-2.006,4.021-2.131c1.048-0.1,2.1-0.087,3.149-0.152c0.896-0.056,0.896,0.135,1.411,0.878
	c0.563,0.813,1.029,0.117,1.657,0.117c0.466,0,0.753,0.596,1.285,0.596c0.453,0,0.707-0.313,0.948-0.65
	c0.007-0.01,0.22-0.514,0.223-0.517c0.173-0.134,0.864-0.021,1.162-0.206C56.748,44.419,57.092,42.954,56.294,42.605
	C55.889,42.425,56.629,42.752,56.294,42.605z M50,38.318c0.568-0.459,0.83-0.968,0.73-1.715c-0.063-0.462,0.149-0.446,0.578-0.432
	c0.629,0.02,1.137-0.385,1.278-1.012c0.274,0.261,0.325,0.616,0.276,0.882c-0.769,0.772-0.597,1.302-0.021,2.117
	c0.195,0.276-0.661,0.711-0.76,1.103c-0.246,0.971,0.03,1.125-1.215,0.847c0.205-0.327,1.559-2.741,0.508-2.741
	c-0.47,0-1.188,1.812-1.468,2.198C49.646,39,49.466,38.752,50,38.318C50.244,38.121,49.626,38.622,50,38.318z M50.023,27.28
	c0.473-0.176,0.833-0.385,1.011-0.881c0.106-0.294,0.147-0.859,0.453-1.039c0.284-0.168,1.042,0.121,0.655,0.521
	c-0.333,0.354-0.667,0.767-0.534,1.288c0.027,0.109,0.761,1.068,0.736,1.088c-0.64,0.52-1.685,0.141-1.575,1.403
	c-0.215-0.032-0.427-0.078-0.636-0.138c0.307-0.345,1.452-1.564,1.101-2.093c-0.449-0.703-1.373,0.82-1.635,1.089
	C49.591,27.936,49.385,27.517,50.023,27.28C50.211,27.21,49.635,27.424,50.023,27.28z M48.339,28.738
	c-0.028-0.104-0.34-0.493-0.284-0.559c0.267-0.313,0.524-0.511,0.604-0.949c-0.062,0.558-0.043,1.172,0,1.731
	c0.056,0.721-0.8,1.075-1.364,1.447C47.208,29.951,48.605,29.714,48.339,28.738C48.284,28.538,48.557,29.535,48.339,28.738z
	 M46.148,25.68c-1.078,0-0.175,2.816-0.049,3.309c-0.411-0.176-0.895-0.152-0.621-0.656c0.383-0.743,0.195-1.491-0.619-1.831
	c0.394-0.326,0.632-0.43,0.754-0.976c0.064-0.292,0.08-0.633,0.398-0.774c0.234-0.104,0.639-0.033,0.647,0.282
	c0.021,0.761-0.023,1.032,0.589,1.589c0.724,0.653-0.274,0.714-0.378,1.4C46.746,27.584,46.703,25.68,46.148,25.68z M43.284,19.748
	c0.508-0.707,1.751-0.106,2.284-1.186c0.139-0.281,0.373-0.906,0.772-0.906c0.845,0,0.608,0.825,0.24,1.225
	c-0.297,0.324-0.552,0.75-0.411,1.211c0.188,0.605,0.735,0.871-0.033,1.206c-0.506,0.22-0.832,0.396-1.06,0.938
	c-0.323,0.771-0.597,0.539-1.349,0.3c0.842-0.655,1.665-1.41,2.01-2.452c0.298-0.887-0.778-0.216-0.963,0.034
	c-0.401,0.544-0.901,1.004-1.428,1.425C43.398,21.163,43.059,20.058,43.284,19.748C43.398,19.589,43.227,19.827,43.284,19.748z
	 M38.543,17.187c-0.061-0.887,0.225-1.754,0.229-2.639c0.012-0.7-0.758-0.352-0.863,0.105c-0.34,1.459-0.362,3.035-0.061,4.501
	c-0.477-0.292-1.279-0.551-1.221-1.248c0.029-0.349,0.275-0.617,0.304-0.964c0.037-0.474-0.286-0.86-0.489-1.255
	c-0.348-0.676,0.737-1.066,1.026-1.578c0.271-0.48,0.597-1.891,1.364-1.149c0.562,0.542-0.423,1.441,0.437,2.104
	c0.823,0.635,0.799,0.598,0.21,1.565c-0.456,0.748,0.409,0.95,0.341,1.502c-0.057,0.456-0.636,0.912-0.956,1.2
	C38.71,18.625,38.594,17.909,38.543,17.187C38.512,16.731,38.59,17.852,38.543,17.187z M32.196,23.374
	c-0.52-0.284-1.084-0.956-1.472-1.495c-0.26-0.361-0.711-1.729-1.199-1.729c-1.568,0,1.235,3.662,1.618,3.983
	c-0.881,0.146-0.59-0.044-0.957-0.703c-0.301-0.542-1.185-0.427-1.378-1.045c-0.208-0.667,0.195-1.158-0.247-1.85
	c-0.243-0.321-0.875-0.8-0.293-1.167c0.642-0.404,0.815,0.462,1.488,0.521c0.65,0.054,1.123-0.511,1.596,0.134
	c-0.039,0.721-0.341,1.313,0.464,1.747C32.649,22.218,32.535,22.511,32.196,23.374z M30.399,28.9c-0.579,0-0.853-0.266-1.356,0.235
	c-0.412,0.411-0.782,0.008-1.229-0.148c-0.678-0.237-1.949,0.645-1.528-0.579c0.401-1.17-0.445-2.83,1.125-1.529
	c1.102,0.913,2.192-0.953,2.992,0.491c-0.542,0.08-3.058-0.233-3.15,0.27c-0.178,1.008,3.111,0.85,3.71,0.771
	C30.843,28.656,30.656,28.819,30.399,28.9z M38.491,35.567c-0.636-0.966-1.314-1.917-1.813-2.965
	c-0.356-0.753-0.747,0.314-0.626,0.746c0.249,0.891,0.708,1.701,1.207,2.473c-0.743-0.047-1.118-0.085-1.074-0.927
	c0.027-0.456,0.039-0.936-0.33-1.271c-0.193-0.176-0.83-0.452-0.853-0.771c-0.021-0.284,0.372-0.498,0.487-0.727
	c0.135-0.268,0.11-0.562,0.075-0.848c-0.06-0.504,0.122-0.987,0.493-0.353c0.229,0.393,0.368,1.001,0.821,1.2
	c0.253,0.111,1.145,0.055,1.125,0.372c-0.034,0.549-0.388,0.977-0.168,1.543C38.096,34.714,38.811,34.746,38.491,35.567z
	 M32.119,39.557c0.865-0.752,0.082-1.691,0.618-2.378c0.336-0.431,0.67,0.928,1.211,1.123c0.732,0.264-0.12,1.411,0.615,1.954
	c0.84,0.631-0.931,1.04-1.3,1.151c0.121-0.398,0.806-2.857-0.049-2.857c-0.608,0-0.814,2.223-0.951,2.615
	C31.975,40.512,31.417,40.169,32.119,39.557C32.558,39.175,31.565,40.04,32.119,39.557z M23.609,34.247
	c-0.005-0.327-0.377-0.477-0.62-0.282c-0.367,0.294-0.236,1.391-0.234,1.799c-0.517-0.371-0.78-0.528-0.481-1.16
	c0.447-0.959-0.086-1.245-0.458-2.071c-0.154-0.342,0.452-0.514,0.661-0.68c0.305-0.243,0.825-1.28,1.129-0.334
	c0.112,0.349-0.035,0.667,0.208,1.002c0.131,0.181,1.132,0.483,1.058,0.712c-0.225,0.688-0.775,0.986-0.256,1.726
	c0.389,0.552-0.517,0.752-0.893,1.014C23.662,35.399,23.622,34.823,23.609,34.247C23.605,34.006,23.621,34.808,23.609,34.247z
	 M17.659,39.484c0.661,0.953,1.653,1.558,2.73,1.938c-0.595,0.355-0.795,0.555-1.219,0.028c-0.359-0.445-0.8-0.448-1.317-0.46
	c-0.683-0.017-0.603-0.143-0.575-0.75c0.02-0.42-0.892-1.529-0.554-1.761c0.312-0.214,0.562-0.19,0.808-0.513
	c0.137-0.18,0.386-0.769,0.663-0.769c0.49,0,0.454,1.356,0.592,1.651c0.254,0.533,0.98,0.642,1.498,0.539
	c0.46-0.1,0.457,0.848,0.479,1.129c-0.66-0.268-1.293-0.602-1.875-1.013c-0.235-0.166-0.586-0.603-0.902-0.603
	C17.71,38.902,17.461,39.205,17.659,39.484C18.421,40.582,17.579,39.371,17.659,39.484z M29.285,41.119
	c-0.062,0.088-0.124,0.177-0.185,0.265c-0.236-0.456-0.788-2.704-1.254-2.704c-0.822,0-0.111,1.936,0.025,2.279
	c-0.309-0.144-1.13-0.251-1.272-0.648c-0.188-0.532,0.526-1.067,0.514-1.617c-0.013-0.584-0.542-0.768,0.058-1.181
	c0.281-0.193,1.055-1.008,1.363-1.008c0.174,0,0.207,0.83,0.279,0.966c0.208,0.383,1.078,0.766,0.789,1.27
	c-0.194,0.336-0.525,0.54-0.613,0.939C28.871,40.214,29.589,40.666,29.285,41.119z M25.634,51.673
	c-0.281-0.072-0.391-0.209-0.621-0.354c-0.538-0.342-0.968,0.254-1.335,0.528c-0.369,0.275-1.021-0.534-1.472-0.534
	c-0.313,0-1.018,0.154-1.252,0.406c-0.105-0.231,0.097-0.647,0.069-0.904c-0.05-0.477-0.289-0.694-0.469-1.104
	c-0.091-0.208,0.597-0.426,0.713-0.495c0.337-0.202,0.389-0.809,0.689-0.924c0.613-0.234,1.153,1,1.94,0.56
	c0.902-0.503,1.229-0.57,1.874,0.341c-0.993,0.236-1.994,0.452-3.012,0.551c-0.328,0.032-1.031-0.085-1.3,0.149
	c-0.476,0.413,0.261,0.686,0.533,0.746c0.931,0.209,1.894,0.146,2.826-0.023c0.17-0.031,1.026-0.373,1.067-0.098
	C25.939,50.889,25.792,51.344,25.634,51.673z M32.845,55.316c-0.158,0.315-0.151,0.852-0.619,0.758
	c-0.47-0.094-1.014-0.116-1.33,0.324c-0.525,0.731-0.499,0.308-1.288,0.13c-0.608-0.138-1.45,0.716-1.778,0.009
	c-0.69-1.487,0.057-1.644,1.091-2.442c0.549-0.424,1.125,0.171,1.75,0.171c0.55,0,1.021-0.288,1.56,0.006
	c-0.414,0.034-4.728,0.681-3.895,1.483C28.745,56.148,32.785,55.468,32.845,55.316C32.8,55.407,32.851,55.302,32.845,55.316z
	 M45.887,54.516c0.333,0.001,3.187-0.554,2.238-1.248c-0.335-0.244-0.936,0.154-1.255,0.216c-0.676,0.132-1.363,0.095-2.04-0.007
	c0.294-0.35,0.428-0.822,0.869-0.804c0.817,0.563,1.442,0.39,2.06-0.364c0.521,0.461,1.939,1.411,0.798,1.894
	c-0.344,0.146-1.285,1.356-1.427,1.356c-0.306-0.465-0.643-0.925-1.258-0.925c-0.8,0-0.816,0.771-1.373-0.265
	C44.957,54.45,45.42,54.516,45.887,54.516C46.723,54.518,45.417,54.516,45.887,54.516z M53.273,47.557
	c-0.031-0.052-0.063-0.104-0.094-0.156c0.185,0.015,0.683-0.303,0.467,0.175c-0.139,0.306-0.465,0.539-0.465,0.905
	c-0.002,0.275,0.028,0.669-0.14,0.906c-0.216,0.303-1.358-0.563-1.915-0.121c-0.77,0.596-0.781,0.685-1.266-0.283
	C50.444,48.978,53.592,48.605,53.273,47.557C53.253,47.495,53.326,47.73,53.273,47.557z M50.182,47.253
	c1.031,0.875,1.686-0.39,2.657,0.073c-0.922,0.434-1.986,0.688-3.008,0.595C49.844,47.895,50.209,47.325,50.182,47.253
	C50.452,47.482,50.193,47.284,50.182,47.253z M45.398,39.336c-0.611-0.487-0.171-0.566-0.002-1.161
	c0.202-0.746-0.455-0.982,0.228-1.647c0.217-0.314,0.377-0.496,0.468-0.89c0.005-0.034,0.464-1.559,0.785-0.793
	c-0.048,0.85,0.379,1.048,0.872,1.629c0.409,0.481-0.341,0.978-0.5,1.416c-0.311,0.859,0.801,1.953-0.621,2.077
	c0.135-0.623,0.704-2.844,0.091-3.335c-0.716-0.572-1.053,2.427-1.158,2.84C45.507,39.426,45.452,39.381,45.398,39.336
	C45.245,39.214,45.462,39.386,45.398,39.336z M54.904,43.893c-0.708,0-1.009,1.156-1.434,0.932
	c-0.252-0.133-0.544-0.381-0.848-0.381c-0.638,0-0.662,0.584-1.155,0.011c0.648-0.069,2.826-0.176,3.158-0.864
	c0.581-1.203-2.311-0.375-2.681-0.285c0.182-0.338,0.315-1.109,0.809-0.647c0.654,0.604,1.372,0.05,1.704-0.562
	c-0.018-0.009,0.829,1.813,1.103,1.402C55.539,43.753,55.093,43.893,54.904,43.893z"/>
</svg>
