<?xml version="1.0" encoding="utf-8"?>
<!-- Generator: Adobe Illustrator 16.0.0, SVG Export Plug-In . SVG Version: 6.00 Build 0)  -->
<!DOCTYPE svg PUBLIC "-//W3C//DTD SVG 1.1//EN" "http://www.w3.org/Graphics/SVG/1.1/DTD/svg11.dtd">
<svg version="1.1" id="Layer_1" xmlns="http://www.w3.org/2000/svg" xmlns:xlink="http://www.w3.org/1999/xlink" x="0px" y="0px"
	 width="72px" height="72px" viewBox="0 0 72 72" enable-background="new 0 0 72 72" xml:space="preserve">
<path fill="#444444" d="M36.099,12.662c-12.813,0-23.237,10.424-23.237,23.237c0,12.814,10.424,23.238,23.237,23.238
	s23.237-10.424,23.237-23.238C59.336,23.086,48.912,12.662,36.099,12.662z M36.099,57.492c-11.906,0-21.593-9.687-21.593-21.593
	c0-11.906,9.687-21.593,21.593-21.593c11.906,0,21.592,9.687,21.592,21.593C57.691,47.806,48.005,57.492,36.099,57.492z
	 M39.48,24.892l0.016-0.061c0.011-0.048,0.021-0.097,0.031-0.145c0.045-0.236-0.055-0.478-0.254-0.613
	c-0.649-0.443-1.17-1.014-1.549-1.693c-0.568-1.028-0.758-2.23-0.529-3.386c0.046-0.239-0.079-0.5-0.279-0.637
	c-0.193-0.131-0.448-0.139-0.65-0.021l-0.074,0.048c-1.625,0.901-3.695,0.801-5.228-0.235c-0.192-0.129-0.444-0.138-0.646-0.021
	l-0.173,0.107c-0.214,0.132-0.323,0.382-0.277,0.628c0.374,2-0.536,4.069-2.263,5.147c-0.202,0.127-0.307,0.397-0.275,0.633
	c0.002,0.015,0.013,0.078,0.017,0.091c0.054,0.274,0.289,0.474,0.566,0.485c1.754,0.078,3.308,1.035,4.156,2.563
	c0.247,0.445,0.426,0.927,0.529,1.435c0.055,0.27,0.297,0.469,0.57,0.483c0.017,0.001,0.03,0.002,0.047,0.002
	c0.278,0,0.526-0.192,0.591-0.47c0.32-1.379,1.208-2.561,2.436-3.242c0.806-0.446,1.695-0.655,2.621-0.62
	C39.174,25.373,39.418,25.181,39.48,24.892z M35.653,24.929c-1.029,0.572-1.867,1.426-2.425,2.446
	c-0.031-0.061-0.064-0.122-0.098-0.183c-0.832-1.5-2.211-2.558-3.829-2.984c1.21-1.192,1.892-2.853,1.862-4.557
	c1.462,0.676,3.197,0.757,4.726,0.201c-0.019,1.084,0.247,2.162,0.779,3.117c0.26,0.468,0.57,0.894,0.934,1.273
	C36.921,24.361,36.261,24.592,35.653,24.929z M34.805,22.843c0,0.765-0.622,1.387-1.387,1.387s-1.387-0.622-1.387-1.387
	s0.622-1.387,1.387-1.387S34.805,22.078,34.805,22.843z M50.129,42.95c-0.091,0-0.184-0.021-0.273-0.062
	c-0.332-0.149-0.478-0.543-0.326-0.875l0.561-1.227c0.151-0.332,0.544-0.477,0.876-0.326c0.331,0.15,0.478,0.543,0.325,0.875
	l-0.561,1.227C50.619,42.807,50.381,42.95,50.129,42.95z M47.581,46.127l-0.56,1.227c-0.112,0.244-0.353,0.388-0.604,0.388
	c-0.09,0-0.184-0.021-0.273-0.062c-0.332-0.15-0.478-0.543-0.326-0.875l0.561-1.227c0.152-0.331,0.544-0.477,0.875-0.326
	C47.586,45.404,47.73,45.796,47.581,46.127z M51.736,46.669l-0.561,1.228c-0.111,0.244-0.351,0.387-0.601,0.387
	c-0.093,0-0.185-0.02-0.274-0.061c-0.332-0.15-0.477-0.543-0.326-0.875l0.561-1.227c0.152-0.332,0.544-0.477,0.876-0.326
	C51.742,45.945,51.891,46.338,51.736,46.669z M45.538,51.01l-0.562,1.227c-0.11,0.244-0.351,0.388-0.602,0.388
	c-0.09,0-0.184-0.021-0.273-0.062c-0.332-0.149-0.478-0.541-0.326-0.873l0.561-1.228c0.15-0.333,0.544-0.478,0.875-0.327
	C45.543,50.286,45.688,50.68,45.538,51.01z M42.145,48.604l-0.56,1.227c-0.112,0.243-0.353,0.386-0.603,0.386
	c-0.09,0-0.185-0.021-0.273-0.062c-0.332-0.149-0.479-0.543-0.326-0.875l0.561-1.227c0.152-0.33,0.543-0.476,0.875-0.324
	C42.15,47.879,42.297,48.271,42.145,48.604z M39.561,53.438l-0.56,1.228c-0.112,0.243-0.353,0.386-0.603,0.386
	c-0.09,0-0.185-0.019-0.274-0.06c-0.33-0.151-0.478-0.543-0.325-0.875l0.561-1.228c0.15-0.332,0.545-0.478,0.875-0.326
	C39.566,52.714,39.713,53.105,39.561,53.438z"/>
</svg>
