<?xml version="1.0" encoding="utf-8"?>
<!-- Generator: Adobe Illustrator 16.0.0, SVG Export Plug-In . SVG Version: 6.00 Build 0)  -->
<!DOCTYPE svg PUBLIC "-//W3C//DTD SVG 1.1//EN" "http://www.w3.org/Graphics/SVG/1.1/DTD/svg11.dtd">
<svg version="1.1" id="Layer_1" xmlns="http://www.w3.org/2000/svg" xmlns:xlink="http://www.w3.org/1999/xlink" x="0px" y="0px"
	 width="72px" height="72px" viewBox="0 0 72 72" enable-background="new 0 0 72 72" xml:space="preserve">
<path fill="#444444" d="M50.42,43.027c3.568-6.022,4.029-13.346,1.162-19.229c0.139-0.115,0.272-0.236,0.4-0.364
	c2.276-2.277,2.276-5.983,0-8.26c-2.277-2.278-5.983-2.278-8.263,0c-0.126,0.127-0.247,0.26-0.362,0.399
	c-7.574-3.699-17.218-1.843-23.703,4.644c-6.451,6.451-8.325,16.059-4.687,23.618c-0.147,0.121-0.289,0.25-0.425,0.386
	c-1.122,1.121-1.74,2.612-1.74,4.199c0,1.586,0.618,3.078,1.74,4.199c1.158,1.157,2.679,1.736,4.2,1.736s3.042-0.579,4.201-1.736
	c0.135-0.135,0.263-0.276,0.384-0.424c3.184,1.534,6.775,2.115,10.461,1.712c2.759,2.906,6.644,4.676,10.827,4.676
	c1.361,0,2.722-0.188,4.044-0.56c6.262-1.758,10.744-7.574,10.901-14.145l0.021-0.852H50.42z M38.003,49.738
	c-0.98-1.048-1.706-2.319-2.104-3.741c-0.121-0.429-0.199-0.866-0.255-1.306h7.111L38.003,49.738z M43.855,45.948l0.029,6.629
	c-1.284-0.104-2.543-0.476-3.7-1.126c-0.328-0.185-0.636-0.393-0.934-0.611L43.855,45.948z M45.549,52.559l-0.03-6.783l5.001,4.64
	c-0.978,0.846-2.142,1.492-3.449,1.859C46.567,52.416,46.059,52.505,45.549,52.559z M51.673,49.217l-4.878-4.524h6.768
	C53.354,46.384,52.688,47.939,51.673,49.217z M23.459,50.398l-0.684-0.363l-0.412,0.656c-0.171,0.272-0.373,0.525-0.598,0.752
	c-1.667,1.666-4.381,1.666-6.048,0c-0.808-0.808-1.252-1.882-1.252-3.023c0-1.143,0.444-2.216,1.251-3.022
	c0.23-0.229,0.483-0.431,0.753-0.6l0.658-0.411l-0.365-0.685c-3.73-7.011-2.058-16.185,4.066-22.309
	c6.158-6.159,15.361-7.813,22.387-4.022l0.685,0.37l0.414-0.659c0.168-0.267,0.363-0.513,0.581-0.731
	c1.629-1.629,4.281-1.629,5.91,0c1.628,1.629,1.628,4.279,0.002,5.907c-0.223,0.221-0.47,0.418-0.734,0.584l-0.657,0.415
	l0.369,0.684c3.102,5.75,2.563,13.193-1.335,19.087H29.617l0.071,0.897c0.008,0.102,0.201,2.491,0.553,3.753
	c0.481,1.714,1.262,3.283,2.265,4.673C29.292,52.516,26.192,51.852,23.459,50.398z M48.209,56.422
	c-1.176,0.33-2.386,0.498-3.595,0.498c-5.918,0-11.169-3.985-12.771-9.69c-0.186-0.665-0.327-1.763-0.411-2.538h2.543
	c0.064,0.592,0.16,1.181,0.322,1.756c0.774,2.759,2.576,5.051,5.073,6.454c1.626,0.913,3.42,1.379,5.234,1.379
	c0.974,0,1.952-0.134,2.915-0.404c4.245-1.191,7.263-4.827,7.719-9.184h2.611C57.364,50.184,53.502,54.936,48.209,56.422z"/>
</svg>
