<?xml version="1.0" encoding="utf-8"?>
<!-- Generator: Adobe Illustrator 16.0.0, SVG Export Plug-In . SVG Version: 6.00 Build 0)  -->
<!DOCTYPE svg PUBLIC "-//W3C//DTD SVG 1.1//EN" "http://www.w3.org/Graphics/SVG/1.1/DTD/svg11.dtd">
<svg version="1.1" id="Layer_1" xmlns="http://www.w3.org/2000/svg" xmlns:xlink="http://www.w3.org/1999/xlink" x="0px" y="0px"
	 width="72px" height="72px" viewBox="0 0 72 72" enable-background="new 0 0 72 72" xml:space="preserve">
<path fill="#414042" d="M34.047,20.339l-0.227-1.27c1.911-0.343,3.909,0.126,5.485,1.281l-0.763,1.041
	C37.23,20.429,35.636,20.056,34.047,20.339z M16.892,32.265l1.092,0.688c0.861-1.365,2.213-2.295,3.808-2.617l-0.255-1.266
	C19.62,29.458,17.928,30.623,16.892,32.265z M22.998,57.768c-0.356-0.305-0.774-0.58-1.233-0.812
	c-0.46-0.245-0.929-0.429-1.385-0.546l0.406-1.637l-0.258-0.26c-2.3-2.293-2.84-5.773-1.345-8.658l-1.146-0.595
	c-1.698,3.277-1.159,7.208,1.323,9.9l-0.579,2.336l0.747,0.067c0.498,0.047,1.077,0.234,1.645,0.535
	c0.561,0.283,1.049,0.648,1.373,1.029l0.488,0.571l1.796-2.079l-0.978-0.844L22.998,57.768z M19.643,46.094
	c-0.865,1.67-1.014,3.641-0.407,5.405l1.221-0.418c-0.5-1.456-0.382-3.017,0.332-4.394L19.643,46.094z M45.473,39.664l-1.242,0.352
	c0.533,1.881,1.822,3.479,3.539,4.387l0.604-1.141C46.945,42.507,45.917,41.229,45.473,39.664z M33.925,47.533l-1.287-0.094
	c-0.141,1.949,0.526,3.894,1.83,5.332l0.957-0.869C34.341,50.708,33.809,49.156,33.925,47.533z M59.846,35.589
	c0.768,2.713,0.25,5.571-1.422,7.843c-0.609,0.803-1.216,1.4-2.051,2.01l0.102,2.481l-0.746-0.083
	c-0.521-0.057-1.158,0.014-1.791,0.201c-0.65,0.176-1.229,0.449-1.643,0.771l-0.592,0.463l-1.221-2.178
	c-0.594-0.041-1.17-0.147-1.729-0.298c0.077,0.597,0.1,1.2,0.057,1.806c-0.203,2.811-1.664,5.32-4.011,6.886
	c-0.741,0.495-1.597,0.884-2.608,1.188l-0.748,2.37l-0.67-0.333c-0.471-0.232-1.094-0.382-1.752-0.422
	c-0.672-0.057-1.309,0.003-1.807,0.166l-0.712,0.23l-0.404-2.461c-1.186-0.528-2.212-1.291-3.044-2.213
	c-1.297,1.998-3.336,3.369-5.714,3.809l-0.235-1.27c2.177-0.404,4.016-1.728,5.099-3.642c-1.059-1.618-1.601-3.572-1.453-5.613
	c0.071-0.985,0.304-1.931,0.671-2.819c-0.623-0.737-1.37-1.347-2.239-1.797c-1.197,1.127-2.709,1.943-4.43,2.293
	c-0.606,0.123-1.214,0.184-1.818,0.184c-2.144,0-4.222-0.762-5.891-2.198c-0.731-0.651-1.39-1.435-1.855-2.198l-2.473-0.086
	l0.138-0.738c0.097-0.517,0.074-1.155-0.063-1.801c-0.127-0.662-0.356-1.261-0.646-1.7l-0.415-0.626l2.263-1.05
	c0.557-3.776,3.394-6.784,7.165-7.548c1.677-0.339,3.396-0.195,4.975,0.397c-0.066-0.403-0.109-0.813-0.121-1.229l1.29-0.036
	c0.069,2.418,1.225,4.623,3.175,6.051c3.455,2.531,8.323,1.78,10.852-1.676c1.22-1.673,1.719-3.726,1.402-5.776
	c-0.313-2.051-1.404-3.856-3.076-5.082c-2.743-2.014-6.433-2.014-9.178-0.002l-0.294,0.216l-1.636-0.687
	c-0.193,0.458-0.461,0.92-0.793,1.362c-0.316,0.441-0.673,0.834-1.051,1.155l0.901,1.061l-0.984,0.836l-1.835-2.161l0.64-0.395
	c0.448-0.277,0.905-0.724,1.289-1.26c0.404-0.539,0.693-1.109,0.82-1.618l0.184-0.729l2.301,0.966
	c3.166-2.131,7.3-2.058,10.402,0.213c1.944,1.432,3.221,3.536,3.59,5.928c0.166,1.084,0.129,2.165-0.086,3.207
	c2.633-0.548,5.064-1.626,7.18-3.121c0.01-0.006,0.017-0.015,0.026-0.022l0.002,0.003c4.062-2.882,6.952-7.301,7.843-12.448
	l1.271,0.22c-0.951,5.498-4.042,10.217-8.383,13.293c-1.204,0.944-1.729,2.212-1.91,3.203c1.924-0.257,3.869,0.1,5.594,1.063
	C57.662,31.33,59.188,33.263,59.846,35.589z M32.051,43.244c0.484-0.791,1.088-1.516,1.809-2.141
	c1.172-1.013,2.549-1.691,4.02-2.006c0.034-1.656,0.272-3.175,1.002-4.752c-1.2,0.556-2.506,0.846-3.824,0.846
	c-1.858,0-3.732-0.568-5.342-1.748c-1.479-1.084-2.564-2.555-3.166-4.226c-1.575-0.822-3.381-1.088-5.134-0.733
	c-3.337,0.675-5.823,3.402-6.184,6.787l-0.039,0.362l-1.609,0.746c0.209,0.453,0.37,0.962,0.474,1.506
	c0.114,0.533,0.163,1.061,0.146,1.557l1.76,0.062l0.175,0.325c0.397,0.734,1.037,1.525,1.757,2.167
	c1.826,1.571,4.237,2.2,6.604,1.721c3.743-0.758,6.361-4.073,6.224-7.886l1.291-0.046c0.08,2.224-0.643,4.302-1.933,5.935
	C30.814,42.136,31.477,42.645,32.051,43.244z M47.525,48.516c0.054-0.748-0.004-1.49-0.159-2.214
	c-2.366-1.077-4.206-3.144-4.948-5.772c-1.35-4.793,1.424-9.793,6.203-11.172c0.059-0.578,0.206-1.199,0.459-1.816
	c-1.729,0.852-3.594,1.467-5.555,1.809c-0.287,0.752-0.67,1.473-1.154,2.139c-0.074,0.102-0.152,0.199-0.23,0.297l0.004,0.001
	c-0.019,0.02-0.033,0.039-0.049,0.059c-0.063,0.076-0.125,0.15-0.188,0.223c-2.093,2.49-2.653,4.473-2.729,6.857
	c0.418-0.027,0.838-0.035,1.262-0.006l-0.092,1.288c-2.068-0.147-4.07,0.517-5.639,1.874c-1.57,1.357-2.517,3.246-2.666,5.314
	c-0.245,3.396,1.715,6.522,4.877,7.779l0.338,0.135l0.286,1.752c0.488-0.082,1.021-0.1,1.574-0.053
	c0.542,0.033,1.063,0.127,1.536,0.276l0.525-1.663l0.338-0.091c1.024-0.278,1.864-0.642,2.568-1.112
	C46.098,53.078,47.352,50.924,47.525,48.516z M58.605,35.942c-0.565-1.997-1.873-3.653-3.687-4.665
	c-1.173-0.656-2.468-0.99-3.776-0.99c-0.711,0-1.427,0.099-2.129,0.297c-4.121,1.168-6.522,5.471-5.357,9.596
	c0.927,3.275,3.837,5.545,7.238,5.648l0.363,0.011l0.868,1.548c0.435-0.242,0.929-0.441,1.463-0.586
	c0.521-0.154,1.044-0.242,1.54-0.264l-0.072-1.746l0.291-0.202c0.87-0.601,1.461-1.159,2.045-1.928
	C58.818,40.721,59.264,38.27,58.605,35.942z"/>
</svg>
