<?xml version="1.0" encoding="utf-8"?>
<!-- Generator: Adobe Illustrator 16.0.0, SVG Export Plug-In . SVG Version: 6.00 Build 0)  -->
<!DOCTYPE svg PUBLIC "-//W3C//DTD SVG 1.1//EN" "http://www.w3.org/Graphics/SVG/1.1/DTD/svg11.dtd">
<svg version="1.1" id="Layer_1" xmlns="http://www.w3.org/2000/svg" xmlns:xlink="http://www.w3.org/1999/xlink" x="0px" y="0px"
	 width="72px" height="72px" viewBox="0 0 72 72" enable-background="new 0 0 72 72" xml:space="preserve">
<path fill="#444444" d="M60.302,26.055c-0.248-0.305-0.69-0.363-1.01-0.136c-1.418,1.015-3.09,1.572-4.834,1.611
	c-0.358,0.008-0.659,0.27-0.718,0.624c-0.39,2.382-2.253,4.246-4.636,4.636c-0.383,0.063-0.653,0.409-0.621,0.795
	c0.145,1.738-1.09,3.328-2.81,3.619c-0.323,0.055-0.573,0.315-0.614,0.641c-0.195,1.557-1.06,2.945-2.369,3.81l0.818,1.242
	c1.526-1.007,2.578-2.57,2.941-4.346c1.983-0.571,3.411-2.372,3.524-4.425c2.515-0.649,4.476-2.62,5.111-5.139
	c0.701-0.057,1.391-0.186,2.059-0.383c-1.732,2.768-3.348,6.714-5.03,10.825c-3.257,7.958-6.949,16.978-11.64,16.978
	c-0.674,0-1.203-0.054-1.602-0.122c0.342-0.522,0.619-1.119,0.891-1.71c0.496-1.079,1.009-2.194,1.929-2.984
	c0.188-0.162,0.284-0.408,0.254-0.655c-0.275-2.247,0.057-4.534,0.96-6.612c0.099-0.228,0.078-0.488-0.055-0.696
	c-1.201-1.884-1.201-4.317,0-6.201c0.187-0.292,0.146-0.674-0.097-0.921c-1.606-1.636-2.207-4.018-1.566-6.217
	c0.063-0.213,0.026-0.443-0.1-0.626c-1.49-2.189-2.069-4.833-1.631-7.442c0.037-0.22-0.026-0.444-0.173-0.612
	c-1.394-1.6-2.244-4.507-2.446-6.531c-0.037-0.38-0.357-0.67-0.74-0.67s-0.702,0.29-0.74,0.67c-0.202,2.025-1.053,4.933-2.445,6.53
	c-0.146,0.168-0.21,0.393-0.173,0.612c0.439,2.609-0.141,5.252-1.631,7.442c-0.125,0.184-0.162,0.413-0.099,0.626
	c0.641,2.2,0.04,4.582-1.566,6.217c-0.243,0.247-0.283,0.629-0.097,0.922c1.201,1.883,1.201,4.316,0,6.199
	c-0.133,0.209-0.154,0.47-0.055,0.697c0.904,2.079,1.236,4.365,0.961,6.612c-0.03,0.247,0.065,0.493,0.253,0.655
	c0.92,0.79,1.433,1.905,1.928,2.984c0.271,0.591,0.548,1.186,0.89,1.709c-0.399,0.067-0.928,0.121-1.6,0.121
	c-4.691,0-8.383-9.019-11.64-16.977c-1.683-4.11-3.297-8.057-5.03-10.824c0.667,0.198,1.356,0.327,2.059,0.383
	c0.635,2.519,2.597,4.49,5.11,5.139c0.114,2.054,1.542,3.854,3.525,4.425c0.363,1.775,1.415,3.339,2.94,4.346l0.819-1.242
	c-1.31-0.864-2.174-2.253-2.37-3.81c-0.041-0.326-0.291-0.586-0.614-0.641c-1.72-0.291-2.954-1.88-2.81-3.619
	c0.032-0.387-0.238-0.733-0.621-0.795c-2.382-0.391-4.246-2.254-4.636-4.636c-0.058-0.354-0.359-0.615-0.717-0.624
	c-1.745-0.04-3.417-0.597-4.834-1.611c-0.319-0.227-0.762-0.169-1.01,0.136c-0.248,0.305-0.216,0.75,0.074,1.017
	c2.324,2.137,4.467,7.375,6.737,12.92c3.602,8.801,7.327,17.901,13.017,17.901c1.439,0,2.351-0.218,2.846-0.387
	c0.421,0.237,0.914,0.389,1.529,0.389c0.615,0,1.107-0.15,1.529-0.389c0.494,0.17,1.406,0.389,2.847,0.389
	c5.689,0,9.414-9.102,13.017-17.902c2.27-5.545,4.413-10.783,6.737-12.921C60.518,26.805,60.55,26.36,60.302,26.055z M36.099,56.406
	c-1.132,0-1.572-0.841-2.313-2.453c-0.489-1.064-1.038-2.259-2.015-3.221c0.214-2.258-0.117-4.541-0.966-6.647
	c1.21-2.149,1.239-4.789,0.086-6.962c1.616-1.905,2.229-4.479,1.638-6.913c1.505-2.354,2.114-5.133,1.731-7.898
	c0.785-0.998,1.401-2.309,1.839-3.65c0.438,1.341,1.054,2.651,1.84,3.65c-0.384,2.765,0.226,5.544,1.73,7.898
	c-0.592,2.433,0.022,5.008,1.638,6.913c-1.152,2.173-1.123,4.813,0.086,6.962c-0.849,2.106-1.18,4.389-0.966,6.647
	c-0.978,0.962-1.526,2.156-2.016,3.221C37.671,55.565,37.231,56.406,36.099,56.406z M41.626,32.209
	c0.588-0.8,0.903-2.757,0.772-3.845c-0.039-0.324,0.137-0.635,0.434-0.768c1.813-0.813,3.007-2.619,3.043-4.604
	c0.006-0.354,0.261-0.654,0.608-0.718c2.198-0.405,4.216-1.555,5.68-3.238c0.269-0.309,0.731-0.343,1.042-0.079
	c0.311,0.263,0.353,0.727,0.094,1.041c-3.067,3.723-5.955,11.762-5.955,15.277h-1.488c0-2.846,1.678-8.303,3.927-12.553
	c-0.78,0.39-1.605,0.691-2.459,0.895c-0.235,2.145-1.517,4.064-3.412,5.103c0.032,1.315-0.284,3.28-1.088,4.371L41.626,32.209z
	 M18.901,19.998c-0.258-0.314-0.217-0.778,0.094-1.041c0.31-0.264,0.773-0.228,1.042,0.079c1.464,1.683,3.481,2.833,5.68,3.238
	c0.348,0.064,0.603,0.364,0.609,0.718c0.036,1.984,1.23,3.792,3.042,4.604c0.297,0.133,0.473,0.445,0.434,0.768
	c-0.132,1.087,0.183,3.045,0.772,3.845l-1.198,0.882c-0.803-1.092-1.12-3.056-1.087-4.371c-1.896-1.039-3.177-2.958-3.413-5.103
	c-0.853-0.203-1.678-0.505-2.458-0.895c2.249,4.25,3.926,9.707,3.926,12.553h-1.487C24.856,31.761,21.968,23.721,18.901,19.998z"/>
</svg>
