<?xml version="1.0" encoding="utf-8"?>
<!-- Generator: Adobe Illustrator 16.0.0, SVG Export Plug-In . SVG Version: 6.00 Build 0)  -->
<!DOCTYPE svg PUBLIC "-//W3C//DTD SVG 1.1//EN" "http://www.w3.org/Graphics/SVG/1.1/DTD/svg11.dtd">
<svg version="1.1" id="Layer_1" xmlns="http://www.w3.org/2000/svg" xmlns:xlink="http://www.w3.org/1999/xlink" x="0px" y="0px"
	 width="72px" height="72px" viewBox="0 0 72 72" enable-background="new 0 0 72 72" xml:space="preserve">
<path fill="#444444" d="M31.842,37.684c0.049,0,0.099-0.002,0.148-0.009c0.023,0.058,0.051,0.115,0.084,0.171
	c0.311,0.523,0.791,0.811,1.352,0.811c0.133,0,0.273-0.016,0.414-0.049c0.401-0.094,0.642-0.344,0.822-0.529
	c0.049-0.053,0.131-0.139,0.159-0.141c0.056,0,0.116,0.008,0.246,0.021c0.118,0.012,0.239,0.025,0.366,0.025
	c0.646,0,1.096-0.342,1.268-0.963c0.174-0.617-0.215-1.02-0.381-1.192c-0.014-0.015-0.029-0.031-0.048-0.047
	c0.002-0.003,0.005-0.006,0.007-0.008c0.667-0.797,0.28-1.42,0.082-1.651c-0.359-0.418-0.799-0.422-0.953-0.422
	c-0.002,0-0.133,0.003-0.133,0.003c-0.055-0.158-0.146-0.413-0.375-0.619c-0.281-0.252-0.636-0.385-1.025-0.385
	c-0.198,0-0.398,0.034-0.594,0.101c-0.412,0.138-0.607,0.419-0.66,0.565c-0.129-0.042-0.306-0.1-0.516-0.1
	c-0.238,0-0.683,0.081-0.98,0.626c-0.269,0.496-0.103,0.963,0.007,1.273l0.053,0.048c-0.019,0.034-0.091,0.106-0.13,0.145
	c-0.193,0.195-0.552,0.56-0.491,1.166c0.053,0.521,0.497,1.006,1.035,1.134C31.679,37.675,31.76,37.684,31.842,37.684z
	 M32.473,34.775c0.07,0.013,0.15,0.022,0.233,0.022c0.218,0,0.418-0.061,0.597-0.183c0.201-0.139,0.318-0.305,0.404-0.428
	c0.014-0.022,0.043-0.062,0.028-0.062h-0.001c0.051-0.016,0.098-0.025,0.141-0.025l0.1,0.017l-0.019,0.057
	c0.066,0.191,0.175,0.512,0.509,0.733c0.197,0.128,0.394,0.175,0.582,0.191c-0.302,0.485-0.283,0.986,0.061,1.463
	c-0.095-0.009-0.193-0.017-0.293-0.017l-0.11,0.004c-0.539,0.032-0.847,0.353-1.052,0.562c-0.081,0.086-0.131,0.133-0.227,0.15
	c-0.034,0-0.076,0-0.139-0.104l-0.037-0.098c-0.062-0.175-0.168-0.468-0.442-0.657c-0.165-0.112-0.354-0.169-0.565-0.169
	c-0.032,0-0.062,0.001-0.092,0.007c0.082-0.088,0.175-0.199,0.253-0.338C32.644,35.475,32.571,35.081,32.473,34.775z M31.844,25.295
	c0.435-1.595,1.277-3.455,1.631-4.097c1.507-2.725,4.927-6.987,8.171-7.563c0.041-0.008,0.084-0.012,0.127-0.012
	c0.195,0,0.387,0.082,0.521,0.224c2.252,2.356,3.146,10.661-0.082,15.682c-0.136,0.209-0.362,0.333-0.608,0.333
	c-0.139,0-0.273-0.04-0.392-0.115c-0.162-0.104-0.274-0.266-0.315-0.454s-0.006-0.382,0.099-0.544
	c1.298-2.018,1.983-4.934,1.881-8.002c-0.078-2.323-0.617-4.505-1.379-5.593c-2.634,0.777-5.537,4.537-6.758,6.745
	c-0.313,0.566-1.101,2.312-1.501,3.776c-0.086,0.313-0.371,0.532-0.696,0.532c-0.064,0-0.129-0.009-0.191-0.025
	C31.967,26.078,31.739,25.679,31.844,25.295z M19.043,30.828c-2.296-2.315-5.44-5.487-4.843-9.248
	c0.041-0.25,0.211-0.463,0.447-0.558c0.845-0.335,1.979-0.513,3.282-0.513c3.895,0,9.441,1.634,12.415,5.222
	c0.124,0.149,0.181,0.338,0.163,0.53c-0.019,0.191-0.11,0.365-0.259,0.487c-0.129,0.107-0.292,0.167-0.46,0.167
	c-0.216,0-0.419-0.096-0.557-0.263c-2.555-3.081-7.658-4.693-11.378-4.693c-0.882,0-1.645,0.091-2.27,0.271
	c-0.174,2.878,2.518,5.593,4.488,7.579l0.691,0.703c0.506,0.523,2.073,1.892,3.403,2.685c0.341,0.204,0.454,0.648,0.25,0.99
	c-0.13,0.22-0.369,0.355-0.622,0.355c-0.128,0-0.255-0.035-0.369-0.102c-1.464-0.872-3.134-2.333-3.703-2.922
	C19.51,31.298,19.282,31.069,19.043,30.828z M41.686,41.314c-0.048-0.061-0.111-0.099-0.174-0.141
	c0.223-0.246,0.407-0.525,0.521-0.845c0.439-1.236-0.172-2.011-0.664-2.632c-0.117-0.149-0.241-0.305-0.346-0.463
	c-0.015-0.021-0.032-0.057-0.048-0.081c1.852-0.317,4.409-0.685,6.403-0.685c0.66,0,1.227,0.04,1.682,0.119
	c0.041,0.008,0.082,0.012,0.123,0.012c0.353,0,0.651-0.252,0.713-0.6c0.027-0.15,0.004-0.304-0.066-0.446
	c-0.104-0.208-0.293-0.351-0.521-0.392c-0.523-0.091-1.166-0.138-1.912-0.138c-2.137,0-4.801,0.382-6.699,0.71
	c0.003-0.012,0-0.023,0.004-0.036c0.063-0.213,0.207-0.396,0.374-0.607c0.28-0.355,0.663-0.839,0.663-1.589
	c0-1.964-0.875-3.045-2.6-3.212c-0.214-0.02-0.441-0.029-0.714-0.029l-0.694,0.007c-0.309,0-0.566-0.021-0.803-0.08
	c1.195-1.91,2.288-5.096,3.02-7.551c0.115-0.381-0.104-0.785-0.485-0.899c-0.067-0.02-0.137-0.03-0.207-0.03
	c-0.315,0-0.601,0.212-0.69,0.516c-0.687,2.306-1.696,5.274-2.763,7.047c-0.091-0.171-0.174-0.355-0.258-0.549
	c-0.295-0.686-0.631-1.464-1.541-1.892c-0.455-0.214-0.982-0.331-1.488-0.331c-1.098,0-1.99,0.539-2.386,1.443
	c-0.251,0.575-0.212,1.11-0.177,1.586c0.022,0.289,0.04,0.538-0.012,0.75c-0.047,0.192-0.162,0.438-0.299,0.678
	c-1-1.73-4.759-4.256-5.672-4.73c-0.102-0.053-0.216-0.08-0.33-0.08c-0.272,0-0.519,0.15-0.644,0.391
	c-0.089,0.171-0.106,0.366-0.047,0.55c0.058,0.185,0.185,0.335,0.357,0.424c1.211,0.627,4.788,3.272,5.149,4.294
	c0.022,0.063,0.056,0.12,0.094,0.173c-0.083,0.024-0.159,0.05-0.259,0.075c-0.245,0.063-0.522,0.133-0.814,0.27
	c-1.114,0.525-2.46,1.692-2.779,3.015c-0.174,0.725-0.027,1.424,0.41,2.033c-0.135-0.146-0.322-0.235-0.528-0.235
	c-0.095,0-0.189,0.019-0.278,0.056c-1.724,0.717-3.908,2.399-4.467,2.899c-2.458,2.194-5.452,6.033-6.22,9.277
	c-0.09,0.381,0.134,0.759,0.509,0.862c0.734,0.205,2.001,0.328,3.391,0.328c4.662,0,10.614-1.299,13.336-4.941
	c0.115-0.155,0.164-0.346,0.136-0.537c-0.028-0.191-0.129-0.359-0.283-0.475c-0.126-0.094-0.276-0.145-0.433-0.145
	c-0.227,0-0.444,0.107-0.579,0.291c-2.417,3.237-8.054,4.385-12.146,4.385c-0.874,0-1.671-0.051-2.317-0.15
	c0.952-2.803,3.541-6.006,5.568-7.816c0.571-0.509,2.618-2.042,4.06-2.645c0.179-0.074,0.318-0.213,0.392-0.394
	c0.074-0.178,0.073-0.374-0.001-0.55c-0.014-0.033-0.036-0.061-0.054-0.09c0.666,0.837,1.592,1.138,2.417,1.402
	c0.256,0.082,0.502,0.165,0.736,0.258c-0.75,1.469-2.097,2.723-4.346,4.031c-0.167,0.096-0.286,0.252-0.335,0.44
	c-0.05,0.187-0.023,0.381,0.074,0.547c0.128,0.222,0.368,0.36,0.625,0.36c0.126,0,0.251-0.033,0.364-0.1
	c2.328-1.354,3.81-2.691,4.714-4.261c0.047,0.259,0.042,0.574,0.018,0.981c-0.054,0.924-0.121,2.072,0.978,2.91
	c0.368,0.28,0.92,0.379,1.342,0.415c-0.011,0.049-0.031,0.094-0.032,0.145c-0.064,3.536,2.171,6.843,4.057,8.994
	c2.157,2.462,4.676,4.35,6.051,4.944c0.092,0.041,0.188,0.061,0.287,0.061c0.276,0,0.533-0.161,0.652-0.411
	c1.443-3.006,1.529-7.874,0.997-11.125C43.648,46.223,42.8,42.729,41.686,41.314z M30.228,38.652
	c-0.643-0.645-1.463-0.906-2.186-1.137s-1.347-0.431-1.739-0.937c-0.22-0.282-0.285-0.569-0.204-0.901
	c0.196-0.813,1.171-1.659,1.989-2.044c0.172-0.081,0.358-0.128,0.571-0.183c0.425-0.107,0.906-0.229,1.372-0.649
	c0.552-0.497,1.141-1.475,1.312-2.18c0.107-0.437,0.075-0.86,0.049-1.205c-0.024-0.348-0.046-0.648,0.062-0.895
	c0.219-0.502,0.758-0.577,1.06-0.577c0.295,0,0.606,0.069,0.874,0.197c0.392,0.184,0.57,0.558,0.827,1.154
	c0.224,0.518,0.478,1.106,1.001,1.574c0.874,0.78,1.757,0.844,2.513,0.844l0.695-0.006c0.225,0,0.406,0.006,0.574,0.023
	c0.818,0.079,1.293,0.395,1.293,1.772c0,0.237-0.115,0.391-0.357,0.698c-0.217,0.275-0.483,0.617-0.623,1.098
	c-0.26,0.893-0.078,1.868,0.51,2.743c0.127,0.188,0.257,0.354,0.412,0.554c0.453,0.569,0.601,0.79,0.437,1.25
	c-0.188,0.53-0.856,0.904-1.396,0.961c-0.039,0.004-0.078,0.006-0.119,0.006c-0.383,0-0.827-0.168-1.309-0.351
	c-0.552-0.208-1.123-0.423-1.729-0.423c-0.332,0-0.646,0.066-0.933,0.197c-0.791,0.359-1.147,1.041-1.461,1.645
	c-0.311,0.596-0.525,0.971-0.969,1.117c-0.065,0.021-0.254,0.059-0.544,0.059c-0.532,0-0.857-0.113-0.899-0.143
	c-0.465-0.355-0.46-0.82-0.411-1.678C30.947,40.432,31.006,39.432,30.228,38.652z M33.209,44.368
	c1.025-0.341,1.452-1.162,1.801-1.83c0.132-0.254,0.257-0.482,0.399-0.665c0.003,0.006,0.003,0.014,0.006,0.02
	c0.55,0.972,2.659,6.781,2.675,7.76c0.006,0.393,0.33,0.646,0.723,0.646h0.01c0.4,0,0.719-0.273,0.713-0.672
	c-0.02-1.197-1.849-6.235-2.645-7.973c0.15,0.051,0.306,0.107,0.467,0.168c0.568,0.214,1.156,0.435,1.797,0.435
	c0.092,0,0.182-0.005,0.27-0.013c0.322-0.033,0.667-0.135,1-0.287c0.025,0.089,0.066,0.174,0.126,0.251
	c0.816,1.036,1.642,4.052,1.813,5.112c0.439,2.682,0.438,6.8-0.584,9.576c-3.008-1.756-8.679-7.209-8.588-12.25
	c0.001-0.094-0.018-0.182-0.049-0.265C33.164,44.376,33.188,44.375,33.209,44.368z M58.563,34.479
	c-1.229,1.771-7.709,7.343-13.756,7.343c-0.683,0-1.347-0.072-1.974-0.215c-0.39-0.092-0.632-0.479-0.543-0.867
	c0.076-0.33,0.364-0.563,0.704-0.563c0.055,0,0.109,0.008,0.162,0.02c0.52,0.119,1.076,0.18,1.654,0.18
	c4.711,0,10.146-3.956,12.106-6.152c-2.522-1.556-6.56-2.372-9.271-2.474l-0.264-0.004c-1.136,0-3.421,0.165-4.712,0.606
	c-0.075,0.025-0.153,0.039-0.233,0.039c-0.31,0-0.584-0.197-0.685-0.49c-0.063-0.183-0.051-0.379,0.035-0.553
	c0.085-0.173,0.231-0.303,0.415-0.364c1.643-0.562,4.309-0.685,5.195-0.685c0.113,0,0.215,0.001,0.301,0.005
	c3.291,0.123,8.046,1.173,10.705,3.185C58.716,33.723,58.786,34.158,58.563,34.479z"/>
</svg>
