<?xml version="1.0" encoding="utf-8"?>
<!-- Generator: Adobe Illustrator 16.0.0, SVG Export Plug-In . SVG Version: 6.00 Build 0)  -->
<!DOCTYPE svg PUBLIC "-//W3C//DTD SVG 1.1//EN" "http://www.w3.org/Graphics/SVG/1.1/DTD/svg11.dtd">
<svg version="1.1" id="Layer_1" xmlns="http://www.w3.org/2000/svg" xmlns:xlink="http://www.w3.org/1999/xlink" x="0px" y="0px"
	 width="72px" height="72px" viewBox="0 0 72 72" enable-background="new 0 0 72 72" xml:space="preserve">
<path fill="#444444" d="M55.304,24.32c-0.541-3.334-3.167-12.292-15.737-12.006l-0.83,0.019v0.831
	c0,0.127,1.064,12.144,13.71,13.181c-0.444,0.561-0.756,1.139-0.971,1.646c-1.554-1.475-3.545-2.185-6.159-2.185
	c-3.349,0-7.54,1.126-12.846,2.551c-1.253,0.337-2.57,0.69-3.954,1.05c-13.121,3.411-18.015,12.778-16.068,20.268
	c1.651,6.354,6.867,10.147,13.952,10.147c2.946,0,6.18-0.654,9.61-1.942c9.205-3.458,15.356-11.691,17.37-18.316
	c1.22-4.015,0.984-7.554-0.63-10.034c0.119-0.526,0.552-1.973,1.873-2.958c0.084-0.063,0.186-0.1,0.273-0.156l0.567-0.008
	l-0.008-0.311c1.039-0.473,2.316-0.608,3.821-0.382l0.254-1.681C57.935,23.792,56.523,23.894,55.304,24.32z M40.573,14.011
	c10.737,0.197,12.724,8.021,13.09,10.706C43.509,24.446,41.105,16.73,40.573,14.011z M51.755,39.069
	c-1.831,6.024-7.725,13.982-16.341,17.219c-3.239,1.217-6.271,1.834-9.013,1.834c-6.262,0-10.862-3.317-12.307-8.875
	c-1.734-6.672,2.81-15.064,14.85-18.194c1.388-0.361,2.709-0.716,3.967-1.054c5.185-1.393,9.28-2.493,12.405-2.493
	c2.716,0,4.529,0.842,5.881,2.73C52.665,32.285,52.863,35.422,51.755,39.069z M37.098,31.189l0.545,1.61
	c-0.964,0.326-1.912,0.615-2.982,0.909l-0.45-1.64C35.249,31.784,36.166,31.504,37.098,31.189z M28.042,33.836l0.567,1.603
	c-1.775,0.628-3.514,1.425-5.472,2.507c-5.758,3.177-5.832,7.839-5.832,8.036l-1.7,0.01c-0.002-0.236,0.028-5.848,6.71-9.534
	C24.357,35.329,26.177,34.496,28.042,33.836z"/>
</svg>
