<?xml version="1.0" encoding="utf-8"?>
<!-- Generator: Adobe Illustrator 16.0.0, SVG Export Plug-In . SVG Version: 6.00 Build 0)  -->
<!DOCTYPE svg PUBLIC "-//W3C//DTD SVG 1.1//EN" "http://www.w3.org/Graphics/SVG/1.1/DTD/svg11.dtd">
<svg version="1.1" id="Layer_1" xmlns="http://www.w3.org/2000/svg" xmlns:xlink="http://www.w3.org/1999/xlink" x="0px" y="0px"
	 width="72px" height="72px" viewBox="0 0 72 72" enable-background="new 0 0 72 72" xml:space="preserve">
<path fill="#444444" d="M57.893,14.274c-0.754-0.749-1.822-1.037-2.851-0.771c-0.019,0.003-0.033,0.009-0.05,0.014l-14.778,5.022
	c-0.651,0.174-1.19,0.595-1.519,1.184c-0.334,0.597-0.404,1.289-0.2,1.942l0.669,2.147l-12.761,7.78
	c-0.006,0.004-0.011,0.007-0.017,0.011c-1.617,1.051-2.452,2.922-2.127,4.766c0.17,0.966,0.63,2.205,1.215,3.435
	c-0.644,0.625-1.253,0.638-2.021,0.65c-0.87,0.014-1.954,0.032-3.002,1.081c-1.048,1.049-1.066,2.132-1.081,3.002
	c-0.012,0.781-0.023,1.398-0.678,2.054c-0.656,0.657-1.273,0.666-2.054,0.679c-0.871,0.015-1.954,0.032-3.002,1.082
	c-0.268,0.268-0.268,0.703,0,0.972c0.134,0.134,0.31,0.2,0.486,0.2c0.175,0,0.351-0.066,0.484-0.2
	c0.656-0.656,1.273-0.665,2.054-0.679c0.87-0.016,1.954-0.033,3.002-1.082c1.049-1.047,1.067-2.131,1.082-3.002
	c0.012-0.783,0.023-1.398,0.678-2.055c0.656-0.654,1.273-0.665,2.054-0.678c0.772-0.014,1.711-0.033,2.646-0.768
	c0.665,1.197,1.409,2.29,2.092,2.976c-0.702,0.55-1.333,0.624-2.102,0.711c-0.983,0.11-2.096,0.235-3.299,1.438
	s-1.329,2.317-1.439,3.299c-0.102,0.904-0.182,1.619-1.045,2.481c-0.863,0.863-1.577,0.944-2.481,1.046
	c-0.982,0.109-2.095,0.235-3.299,1.438c-0.268,0.268-0.268,0.702,0,0.972c0.134,0.135,0.31,0.201,0.486,0.201
	c0.176,0,0.352-0.066,0.486-0.201c0.862-0.863,1.577-0.943,2.481-1.046c0.982-0.11,2.095-0.235,3.299-1.438
	c1.203-1.203,1.328-2.316,1.439-3.299c0.102-0.904,0.182-1.617,1.045-2.48c0.863-0.863,1.577-0.943,2.481-1.045
	c0.906-0.102,1.924-0.227,3.02-1.188c0.584,0.43,1.259,0.854,1.982,1.253c-0.604,0.874-0.628,1.743-0.64,2.466
	c-0.013,0.781-0.023,1.398-0.679,2.054c-0.656,0.657-1.273,0.666-2.054,0.679c-0.87,0.016-1.953,0.032-3.002,1.081
	c-1.048,1.049-1.066,2.132-1.081,3.003c-0.012,0.782-0.023,1.398-0.678,2.053c-0.269,0.271-0.269,0.703,0,0.973
	c0.133,0.135,0.31,0.201,0.485,0.201c0.176,0,0.352-0.067,0.487-0.201c1.048-1.049,1.066-2.131,1.081-3.002
	c0.012-0.782,0.023-1.398,0.678-2.055c0.655-0.656,1.273-0.666,2.054-0.678c0.87-0.016,1.953-0.033,3.002-1.081
	c1.048-1.049,1.067-2.132,1.081-3.003c0.012-0.703,0.026-1.272,0.504-1.855c1.215,0.574,2.435,1.023,3.388,1.19
	c0.265,0.047,0.53,0.07,0.792,0.07c1.567,0,3.069-0.812,3.969-2.199c0.006-0.006,0.01-0.015,0.014-0.022l7.675-12.854l2.173,0.697
	c0.246,0.079,0.5,0.117,0.754,0.117c0.42,0,0.838-0.106,1.209-0.313c0.588-0.328,1.021-0.888,1.188-1.538l5.011-14.787
	c0.006-0.019,0.012-0.037,0.016-0.057C58.947,16.085,58.648,15.021,57.893,14.274z M57.365,16.762l-5.008,14.782
	c-0.008,0.019-0.012,0.038-0.018,0.057c-0.072,0.3-0.261,0.548-0.531,0.698c-0.269,0.15-0.578,0.181-0.873,0.087l-5.238-1.68
	c-0.36-0.117-0.747,0.083-0.862,0.444c-0.118,0.361,0.082,0.748,0.442,0.864L47,32.566l-7.503,12.569
	c-0.74,1.13-2.091,1.738-3.365,1.513c-1.983-0.349-5.551-2.188-6.941-3.578c-1.391-1.389-3.229-4.957-3.579-6.939
	c-0.224-1.277,0.384-2.631,1.515-3.37l12.458-7.597l0.522,1.677c0.113,0.362,0.5,0.564,0.861,0.451
	c0.362-0.113,0.564-0.497,0.451-0.86l-1.613-5.177c-0.092-0.29-0.061-0.597,0.088-0.862c0.149-0.265,0.394-0.454,0.688-0.53
	c0.019-0.005,0.033-0.009,0.05-0.015l14.774-5.021c0.55-0.133,1.116,0.025,1.519,0.424C57.329,15.649,57.491,16.212,57.365,16.762z
	 M36.47,29.448c0.205,0.32,0.112,0.745-0.207,0.949l-6.539,4.194c-0.114,0.074-0.243,0.108-0.37,0.108
	c-0.226,0-0.448-0.11-0.579-0.316c-0.205-0.318-0.112-0.743,0.207-0.949l6.539-4.193C35.84,29.037,36.265,29.13,36.47,29.448z
	 M38.861,27.819c0.207,0.317,0.117,0.743-0.2,0.95l-0.472,0.307c-0.115,0.075-0.246,0.112-0.375,0.112
	c-0.223,0-0.441-0.109-0.572-0.312c-0.206-0.319-0.117-0.744,0.199-0.951l0.471-0.307C38.23,27.41,38.654,27.5,38.861,27.819z"/>
</svg>
