<?xml version="1.0" encoding="utf-8"?>
<!-- Generator: Adobe Illustrator 16.0.0, SVG Export Plug-In . SVG Version: 6.00 Build 0)  -->
<!DOCTYPE svg PUBLIC "-//W3C//DTD SVG 1.1//EN" "http://www.w3.org/Graphics/SVG/1.1/DTD/svg11.dtd">
<svg version="1.1" id="Layer_1" xmlns="http://www.w3.org/2000/svg" xmlns:xlink="http://www.w3.org/1999/xlink" x="0px" y="0px"
	 width="72px" height="72px" viewBox="0 0 72 72" enable-background="new 0 0 72 72" xml:space="preserve">
<path fill="#444444" d="M31.795,37.271c0.458,0,0.828,0.371,0.828,0.828s-0.371,0.828-0.828,0.828c-0.457,0-0.828-0.371-0.828-0.828
	S31.338,37.271,31.795,37.271z M18.628,35.015c0,0.458,0.371,0.829,0.829,0.829s0.829-0.371,0.829-0.829
	c0-0.458-0.371-0.829-0.829-0.829S18.628,34.557,18.628,35.015z M22.541,43.439c-0.458,0-0.829,0.371-0.829,0.828
	c0,0.458,0.371,0.83,0.829,0.83s0.829-0.372,0.829-0.83C23.37,43.811,22.999,43.439,22.541,43.439z M22.541,31.102
	c-0.458,0-0.829,0.371-0.829,0.829c0,0.458,0.371,0.829,0.829,0.829s0.829-0.371,0.829-0.829
	C23.37,31.473,22.999,31.102,22.541,31.102z M22.541,23.506c0.458,0,0.828-0.371,0.828-0.828c0-0.458-0.371-0.828-0.828-0.828
	s-0.828,0.371-0.828,0.828C21.713,23.135,22.083,23.506,22.541,23.506z M28.71,23.391c-0.458,0-0.829,0.371-0.829,0.829
	c0,0.458,0.371,0.829,0.829,0.829s0.829-0.371,0.829-0.829C29.539,23.762,29.168,23.391,28.71,23.391z M28.71,46.523
	c-0.458,0-0.829,0.371-0.829,0.83c0,0.457,0.371,0.828,0.829,0.828s0.829-0.371,0.829-0.828
	C29.539,46.895,29.168,46.523,28.71,46.523z M45.031,36.914c-0.106-0.063-0.225-0.096-0.348-0.096c-0.232,0-0.453,0.123-0.572,0.32
	c-0.191,0.315-0.09,0.729,0.225,0.92c0.105,0.064,0.225,0.098,0.348,0.098c0.235,0,0.449-0.12,0.572-0.322
	c0.092-0.152,0.12-0.332,0.078-0.506C45.291,37.154,45.184,37.008,45.031,36.914z M44.333,44.352
	c-0.104-0.063-0.226-0.098-0.347-0.098c-0.233,0-0.452,0.124-0.573,0.322c-0.19,0.316-0.089,0.729,0.226,0.92
	c0.105,0.064,0.225,0.098,0.348,0.098c0.236,0,0.451-0.121,0.572-0.322c0.094-0.151,0.121-0.332,0.078-0.506
	C44.593,44.592,44.484,44.445,44.333,44.352z M53.023,44.986c-0.104-0.063-0.226-0.098-0.346-0.098
	c-0.234,0-0.453,0.123-0.574,0.322c-0.092,0.152-0.121,0.332-0.078,0.506c0.043,0.176,0.15,0.322,0.303,0.414
	c0.105,0.064,0.225,0.098,0.347,0.098c0.236,0,0.45-0.121,0.573-0.321C53.439,45.591,53.339,45.178,53.023,44.986z M47.343,36.106
	c-0.104-0.063-0.224-0.097-0.346-0.097c-0.231,0-0.453,0.123-0.573,0.321c-0.191,0.316-0.09,0.729,0.225,0.92
	c0.105,0.064,0.225,0.098,0.348,0.098c0.232,0,0.453-0.123,0.572-0.322C47.762,36.711,47.659,36.298,47.343,36.106z M47.203,49.918
	c-0.105-0.064-0.225-0.098-0.348-0.098c-0.235,0-0.449,0.121-0.571,0.322c-0.191,0.315-0.091,0.729,0.225,0.92
	c0.104,0.063,0.224,0.097,0.347,0.097c0.232,0,0.453-0.123,0.574-0.321C47.62,50.521,47.518,50.109,47.203,49.918z M60.73,42.275
	c-0.543,3.644-2.448,7.136-4.051,9.771c-2.869,4.723-9.799,5.771-15.447,2.339c-2.158-1.313-3.817-3.093-4.888-5.055
	c-0.264-0.481-0.485-0.974-0.674-1.474c-1.064-2.789-0.981-5.784,0.523-8.26c0.606-0.996,1.301-2.09,2.092-3.18
	c-0.145-3.479-0.57-7.309-1.756-10.677c-2.011-5.723-5.578-8.504-10.903-8.504s-8.891,2.781-10.904,8.504
	c-1.619,4.603-1.827,10.072-1.827,14.321c0,7.02,5.71,12.73,12.731,12.73c4.083,0,7.712-1.939,10.043-4.934
	c0.19,0.498,0.41,0.992,0.674,1.473c-2.604,3.007-6.438,4.92-10.718,4.92c-7.824,0-14.188-6.366-14.188-14.188
	c0-4.368,0.218-9.996,1.91-14.808c1.003-2.851,2.425-5.092,4.228-6.662c2.145-1.866,4.854-2.813,8.05-2.813s5.905,0.946,8.05,2.813
	c1.803,1.57,3.226,3.81,4.229,6.662c1.053,2.993,1.533,6.302,1.746,9.426l0,0c0.994-1.171,2.102-2.279,3.35-3.183
	c1.771-1.281,3.619-2.01,5.496-2.166c2.234-0.186,4.536,0.431,6.844,1.834c2.309,1.401,3.917,3.161,4.781,5.229
	C60.848,38.135,61.053,40.111,60.73,42.275z M54.807,32.047c-3.846-2.336-7.439-2.222-10.992,0.348
	c-1.561,1.131-2.906,2.602-4.064,4.123c-0.504,0.66-0.973,1.326-1.404,1.98c-0.395,0.596-0.765,1.184-1.102,1.738
	c-1.18,1.943-1.382,4.246-0.777,6.469c0.154,0.57,0.36,1.133,0.621,1.686c0.938,1.986,2.532,3.811,4.68,5.115
	c5.068,3.079,11.287,2.139,13.86-2.1c1.558-2.564,3.414-5.955,3.933-9.445C60.206,37.625,58.65,34.383,54.807,32.047z"/>
</svg>
