<?xml version="1.0" encoding="utf-8"?>
<!-- Generator: Adobe Illustrator 16.0.0, SVG Export Plug-In . SVG Version: 6.00 Build 0)  -->
<!DOCTYPE svg PUBLIC "-//W3C//DTD SVG 1.1//EN" "http://www.w3.org/Graphics/SVG/1.1/DTD/svg11.dtd">
<svg version="1.1" id="Layer_1" xmlns="http://www.w3.org/2000/svg" xmlns:xlink="http://www.w3.org/1999/xlink" x="0px" y="0px"
	 width="72px" height="72px" viewBox="0 0 72 72" enable-background="new 0 0 72 72" xml:space="preserve">
<path fill="#444444" d="M47.122,43.424l0.439,1.643c-3.161,0.848-7.314,1.271-11.467,1.271s-8.306-0.423-11.467-1.271l0.44-1.643
	C31.147,45.056,41.041,45.054,47.122,43.424z M38.018,57.013c-0.008,0.624-0.521,1.132-1.146,1.132h-1.551
	c-0.626,0-1.142-0.508-1.15-1.133l-0.125-9.404l-1.7,0.023l0.125,9.403c0.02,1.55,1.299,2.81,2.85,2.81h1.551
	c1.55,0,2.826-1.26,2.845-2.809l0.125-9.406l-1.699-0.023L38.018,57.013z M31.054,18.41c-1.387,0.85-1.156,3.922-0.877,5.76
	c-0.239,0.01-0.473,0.053-0.691,0.154c-0.787,0.366-1.238,1.247-1.238,2.417c0,2.897,0.684,5.34,2.032,7.26
	c1.288,1.832,1.968,3.904,1.968,6.002l0.041,3.143l1.7-0.021l-0.041-3.132c0-2.439-0.788-4.849-2.277-6.968
	c-1.143-1.628-1.723-3.742-1.723-6.283c0-0.552,0.156-0.83,0.255-0.876c0.077-0.038,0.339,0.015,0.698,0.316
	c0.708,0.596,1.643,1.8,2.565,3.305l1.449-0.888c-0.588-0.96-1.738-2.702-2.878-3.68c-0.502-2.348-0.436-4.491-0.129-5.003
	c0.074,0.032,0.203,0.104,0.393,0.264c0.363,0.306,0.782,0.765,1.244,1.365l1.347-1.038c-0.538-0.697-1.02-1.223-1.478-1.61
	c1.372-3.968,2.399-4.993,2.674-5.043c0.29,0.051,1.315,1.078,2.687,5.044c-0.454,0.385-0.938,0.911-1.477,1.608l1.346,1.039
	c0.465-0.602,0.884-1.062,1.245-1.365c0.19-0.16,0.318-0.232,0.393-0.264c0.307,0.513,0.372,2.655-0.13,5.004
	c-1.14,0.979-2.29,2.719-2.878,3.679l1.449,0.888c0.922-1.504,1.857-2.709,2.565-3.305c0.358-0.302,0.622-0.354,0.698-0.317
	c0.099,0.046,0.256,0.324,0.256,0.876c0,2.541-0.58,4.654-1.723,6.282c-1.49,2.12-2.277,4.529-2.277,6.958l-0.041,3.143l1.699,0.021
	l0.041-3.153c0-2.087,0.681-4.159,1.969-5.992c1.349-1.919,2.031-4.362,2.031-7.259c0-1.17-0.45-2.051-1.237-2.417
	c-0.218-0.102-0.452-0.145-0.691-0.155c0.279-1.838,0.509-4.91-0.878-5.759c-0.206-0.127-0.479-0.221-0.806-0.216
	c-1.882-5.383-3.31-6.04-4.233-6.04c-0.926,0-2.356,0.657-4.236,6.04C31.532,18.189,31.261,18.284,31.054,18.41z M49.506,25.534
	c-0.19-0.089-0.393-0.137-0.599-0.153c0.265-1.749,0.459-4.562-0.862-5.371c-0.192-0.119-0.443-0.208-0.744-0.212
	c-1.763-5.029-3.119-5.643-3.998-5.643c-1.144,0-1.952,1.193-2.461,2.09l1.479,0.839c0.618-1.09,0.971-1.221,0.965-1.23
	c0.272,0.071,1.216,1.055,2.46,4.646c-0.421,0.363-0.878,0.857-1.36,1.484l1.348,1.037c0.425-0.553,0.813-0.979,1.154-1.266
	c0.138-0.116,0.239-0.18,0.307-0.216c0.258,0.532,0.314,2.414-0.147,4.577c-0.595,0.512-1.255,1.291-1.969,2.328l1.4,0.964
	c0.64-0.929,1.233-1.635,1.719-2.043c0.354-0.298,0.56-0.303,0.593-0.288c0.041,0.019,0.207,0.216,0.207,0.768
	c0,2.364-0.539,4.33-1.603,5.842c-1.398,1.993-2.138,4.256-2.138,6.534l-0.021,1.718l1.699,0.021l0.021-1.729
	c0-1.938,0.633-3.863,1.829-5.568c1.269-1.804,1.911-4.098,1.911-6.819C50.695,26.728,50.262,25.886,49.506,25.534z M45.047,56.141
	c-0.008,0.554-0.465,1.004-1.02,1.004h-1.936v1.699h1.936c1.479,0,2.699-1.202,2.719-2.681l0.123-9.367l-1.699-0.021L45.047,56.141z
	 M25.254,41.959l1.7-0.021l-0.021-1.707c0-2.288-0.739-4.551-2.139-6.545c-1.063-1.511-1.602-3.477-1.602-5.841
	c0-0.552,0.166-0.749,0.207-0.768c0.033-0.013,0.237-0.012,0.593,0.289c0.486,0.409,1.08,1.115,1.717,2.042l1.401-0.963
	c-0.711-1.035-1.373-1.814-1.969-2.329c-0.461-2.162-0.404-4.045-0.146-4.576c0.067,0.036,0.169,0.1,0.307,0.216
	c0.339,0.285,0.727,0.71,1.154,1.265l1.348-1.036c-0.483-0.628-0.94-1.126-1.36-1.487c1.248-3.6,2.19-4.578,2.424-4.644
	c0.003,0.001,0.359,0.099,1,1.23l1.479-0.838c-0.509-0.897-1.317-2.09-2.46-2.09c-0.88,0-2.236,0.614-3.999,5.644
	c-0.3,0.004-0.551,0.093-0.744,0.211c-1.32,0.809-1.127,3.622-0.862,5.371c-0.208,0.017-0.409,0.064-0.599,0.153
	c-0.756,0.352-1.19,1.193-1.19,2.31c0,2.722,0.643,5.016,1.911,6.818c1.197,1.706,1.83,3.631,1.83,5.579L25.254,41.959z
	 M27.142,56.142l-0.123-9.367l-1.7,0.021l0.123,9.368c0.021,1.478,1.24,2.68,2.719,2.68h1.936v-1.699h-1.936
	C27.607,57.145,27.149,56.694,27.142,56.142z"/>
</svg>
