<?xml version="1.0" encoding="utf-8"?>
<!-- Generator: Adobe Illustrator 16.0.0, SVG Export Plug-In . SVG Version: 6.00 Build 0)  -->
<!DOCTYPE svg PUBLIC "-//W3C//DTD SVG 1.1//EN" "http://www.w3.org/Graphics/SVG/1.1/DTD/svg11.dtd">
<svg version="1.1" id="Layer_1" xmlns="http://www.w3.org/2000/svg" xmlns:xlink="http://www.w3.org/1999/xlink" x="0px" y="0px"
	 width="72px" height="72px" viewBox="0 0 72 72" enable-background="new 0 0 72 72" xml:space="preserve">
<path fill="#444444" d="M38.818,23.839c-0.234-0.407-0.095-0.927,0.312-1.161c0.407-0.233,0.927-0.095,1.16,0.31
	c0.011,0.019,1.021,1.701,2.564,2.281c0.111-0.181,0.611-1.059,0.751-2.446c0.047-0.468,0.466-0.813,0.931-0.761
	c0.467,0.047,0.808,0.464,0.761,0.931c-0.104,1.033-0.372,1.852-0.614,2.416c1.378-0.222,2.865-0.953,3.456-1.302
	c0.406-0.237,0.926-0.105,1.165,0.298c0.238,0.404,0.105,0.925-0.298,1.164c-0.123,0.073-2.732,1.604-5.098,1.604
	c-0.29,0-0.576-0.023-0.854-0.075C40.443,26.61,38.884,23.952,38.818,23.839z M57.088,31.424c-0.496,0.356-1.175,0.844-1.575,1.19
	c0.248,0.135,0.572,0.286,0.82,0.402c1.271,0.591,3.396,1.581,2.644,3.422c-0.389,0.947-1.639,1.714-3.345,2.052
	c-2.191,0.433-5.235,0.167-7.663-1.72c-1.308,2.059-3.13,2.919-4.045,3.238c-0.363,1.395-1.909,4.962-8.47,10.329
	c-7.438,6.084-13.929,8.085-14.202,8.167c-0.017,0.005-0.033,0.004-0.05,0.008c-0.733,0.243-1.502,0.372-2.296,0.372
	c-0.158,0-0.319-0.005-0.483-0.015c-1.278-0.081-2.558-0.514-3.605-1.22c-1.082-0.72-1.969-1.785-2.494-2.998
	c-0.405-0.933-0.608-1.941-0.584-2.918c0.058-1.709,0.737-2.914,1.671-3.051c0.021-0.005,0.042-0.007,0.064-0.01
	c0.037-0.004,0.072-0.018,0.11-0.018c0.045,0.001,0.084,0.013,0.127,0.018c0.021,0.003,0.039-0.004,0.06,0
	c0.052,0.011,5.363,1.027,11.952-2.41c7.003-3.654,9.173-7.994,9.683-9.271c-0.249-0.451-0.441-1.118-0.576-1.996
	c-2.001,0.636-4.335,0.353-6.455-0.822c-1.338-0.742-2.799-2.003-2.891-3.319c-0.122-1.8,1.838-2.38,3.01-2.727
	c0.227-0.067,0.534-0.158,0.744-0.238c-0.085-0.268-0.248-0.667-0.376-0.983c-0.696-1.712-1.747-4.299-0.151-5.919
	c0.635-0.645,1.502-0.921,2.51-0.789c0.982,0.125,2.01,0.632,2.889,1.22c-0.148-1.544,0.13-2.812,0.811-3.492
	c0.431-0.431,0.982-0.659,1.595-0.659c1.067,0,2.116,0.666,3.042,1.254c0.293,0.187,0.705,0.448,0.959,0.564
	c0.188-0.278,0.47-0.836,0.688-1.267c0.975-1.933,2.47-4.882,5.083-4.724c2.724,0.164,2.966,3.521,3.127,5.743
	c0.042,0.578,0.097,1.337,0.19,1.69c0.005,0,0.011,0,0.017,0c0.375,0,0.964-0.119,1.588-0.245c0.834-0.168,1.778-0.358,2.647-0.358
	c1.405,0,2.351,0.511,2.809,1.518c0.274,0.601,0.409,1.624-0.506,3.085c-0.383,0.611-0.918,1.234-1.57,1.834
	c1.917-0.259,3.889-0.499,5.27,0.866c0.264,0.261,0.393,0.606,0.363,0.974C60.144,29.182,58.98,30.065,57.088,31.424z
	 M35.942,22.191c0.475,2.218,1.979,4.968,4.775,6.033c0.358,0.137,0.581,0.497,0.543,0.878c-0.02,0.203-0.034,0.434-0.045,0.676
	c0,0.011,0,0.021-0.001,0.031c-0.042,1.033,0.015,2.333,0.289,3.236c0.834-0.773,2.083-2.163,2.325-3.727
	c0.063-0.407,0.408-0.71,0.819-0.72c4.871-0.117,8.821-2.979,10.07-4.974c0.389-0.621,0.538-1.174,0.399-1.478
	c-0.071-0.157-0.238-0.523-1.262-0.523c-0.7,0-1.556,0.173-2.311,0.325c-1.141,0.229-2.145,0.396-2.763,0.128
	c-0.866-0.378-0.949-1.527-1.064-3.117c-0.156-2.157-0.392-4.1-1.534-4.168c-0.001,0-0.002,0-0.003,0
	c-1.546,0-2.698,2.282-3.46,3.793c-0.644,1.273-1.031,2.042-1.745,2.219c-0.672,0.168-1.412-0.264-2.331-0.847
	c-0.693-0.441-1.557-0.989-2.13-0.989c-0.165,0-0.278,0.047-0.393,0.161C35.856,19.395,35.572,20.462,35.942,22.191z M20.728,56.886
	c0.531-0.188,0.871-0.399,1.073-0.562c-0.35-0.131-0.872-0.272-1.198-0.361c-0.495-0.136-1.169-0.32-1.811-0.565
	c-0.685-0.257-1.283-0.558-1.825-0.918c-0.535-0.358-1.01-0.784-1.498-1.342c-0.433-0.499-0.802-1.043-1.107-1.509l-0.092-0.141
	c-0.189-0.292-0.425-0.654-0.613-0.902c-0.098,0.24-0.201,0.629-0.22,1.198c-0.012,0.501,0.056,1.296,0.445,2.191
	c0.391,0.903,1.076,1.728,1.88,2.262c0.805,0.543,1.786,0.874,2.766,0.936C19.32,57.229,20.044,57.122,20.728,56.886z
	 M56.096,30.043c0.679-0.487,1.854-1.332,2.291-1.826c-0.854-0.539-2.228-0.354-3.671-0.158c-0.916,0.123-1.859,0.241-2.781,0.208
	c-1.557,0.875-3.39,1.552-5.358,1.856c0.902,0.426,2.185,0.89,3.318,0.774c0.479-0.047,0.884,0.293,0.932,0.76
	s-0.293,0.884-0.76,0.932c-0.173,0.018-0.348,0.026-0.521,0.026c-1.827,0-3.678-0.903-4.551-1.395
	c-1.043,2.231-3.152,3.77-3.262,3.849c-0.149,0.108-0.323,0.16-0.496,0.16c-0.242,0-0.483-0.104-0.65-0.303
	c-0.813-0.966-1.037-2.67-1.076-4.023c-0.486,0.102-0.956,0.152-1.398,0.152c-2.585,0-4.346-1.482-4.441-1.564
	c-0.355-0.306-0.396-0.843-0.089-1.199c0.306-0.354,0.84-0.396,1.195-0.092c0.083,0.07,1.815,1.499,4.233,1.072
	c-2.074-1.169-3.441-3.092-4.193-4.991c-0.016-0.022-0.04-0.037-0.054-0.061c-0.235-0.402-2.177-2.136-3.764-2.335
	c-0.625-0.077-0.915,0.132-1.077,0.296c-0.811,0.824-0.013,2.787,0.515,4.086c0.461,1.136,0.74,1.821,0.431,2.423
	c-0.309,0.601-1.042,0.818-1.892,1.069c-0.727,0.215-1.826,0.54-1.796,0.98c0.021,0.3,0.634,1.181,2.018,1.948
	c0.757,0.42,3.425,1.684,5.945,0.341c0.252-0.135,0.555-0.134,0.806,0.003c0.251,0.136,0.417,0.39,0.441,0.674
	c0.155,1.817,0.448,2.379,0.519,2.491c0.247,0.21,0.358,0.548,0.27,0.873c-0.067,0.245-1.745,6.044-10.668,10.701
	c-4.42,2.306-8.278,2.762-10.639,2.762c-0.068,0-0.128-0.002-0.193-0.003c0.007,0.011,0.014,0.021,0.021,0.032l0.09,0.138
	c0.272,0.417,0.601,0.901,0.965,1.321c0.385,0.44,0.754,0.772,1.159,1.044c0.431,0.286,0.917,0.529,1.483,0.742
	c0.568,0.217,1.172,0.382,1.657,0.516c1.261,0.342,2.261,0.62,2.577,1.416c2.547-1.146,6.508-3.248,10.75-6.718
	c7.563-6.187,7.957-9.693,7.959-9.728c0.021-0.385,0.3-0.708,0.678-0.786c0.103-0.021,2.631-0.6,3.949-3.438
	c0.117-0.252,0.351-0.432,0.625-0.479c0.266-0.047,0.554,0.041,0.75,0.24c2.055,2.078,4.942,2.394,6.963,1.992
	c1.262-0.25,1.988-0.751,2.102-1.027c0.139-0.341-1.162-0.947-1.788-1.238c-0.979-0.456-1.752-0.816-2.001-1.507
	C53.268,32.076,54.271,31.354,56.096,30.043z M23.108,51.515c-0.907,0.361-1.51,0.983-1.348,1.39
	c0.162,0.406,1.028,0.443,1.935,0.082s1.51-0.983,1.348-1.391C24.881,51.189,24.015,51.153,23.108,51.515z M27.021,49.846
	c-0.69,0.398-1.106,0.973-0.927,1.281c0.179,0.311,0.883,0.238,1.574-0.161c0.69-0.398,1.106-0.973,0.927-1.282
	C28.417,49.375,27.712,49.447,27.021,49.846z"/>
</svg>
