<?xml version="1.0" encoding="utf-8"?>
<!-- Generator: Adobe Illustrator 16.0.0, SVG Export Plug-In . SVG Version: 6.00 Build 0)  -->
<!DOCTYPE svg PUBLIC "-//W3C//DTD SVG 1.1//EN" "http://www.w3.org/Graphics/SVG/1.1/DTD/svg11.dtd">
<svg version="1.1" id="Layer_1" xmlns="http://www.w3.org/2000/svg" xmlns:xlink="http://www.w3.org/1999/xlink" x="0px" y="0px"
	 width="72px" height="72px" viewBox="0 0 72 72" enable-background="new 0 0 72 72" xml:space="preserve">
<path fill="#444444" d="M59.377,26.69c-2.272-5.622-8.562-8.978-16.822-8.978c-4.182,0-8.62,0.901-12.835,2.605
	c-6.161,2.49-11.315,6.442-14.513,11.129c-3.27,4.792-4.118,9.786-2.389,14.063c2.273,5.622,8.561,8.978,16.822,8.978
	c4.182,0,8.62-0.9,12.836-2.605c6.161-2.49,11.315-6.442,14.513-11.128C60.257,35.962,61.105,30.967,59.377,26.69z M55.584,39.795
	c-3.011,4.413-7.892,8.146-13.745,10.511c-4.016,1.624-8.234,2.481-12.199,2.481c-7.542,0-13.242-2.958-15.246-7.914
	c-1.509-3.732-0.722-8.161,2.217-12.468c3.01-4.413,7.892-8.146,13.746-10.511c4.015-1.624,8.233-2.481,12.198-2.481
	c7.543,0,13.242,2.959,15.246,7.915C59.31,31.061,58.522,35.488,55.584,39.795z M49.291,24.806l-0.104,0.001
	c-2.034,0.035-4.422,0.069-7.189-1.306c-0.735-0.364-1.676-0.549-2.795-0.549c-1.727,0-4.146,0.51-4.859,1.245
	c-0.391,0.405-1.995,1.256-3.243,1.02c-0.119-0.022-0.245-0.034-0.377-0.034c-1.884,0-4.99,2.643-5.897,3.453
	c-0.243,0.217-0.394,0.517-0.603,0.933c-0.399,0.795-0.947,1.884-2.17,2.42c-1.561,0.682-1.958,1.759-2.615,3.542
	c-0.145,0.392-0.307,0.833-0.529,1.408c-0.582,2.05-1.276,3.929-1.283,3.948l-0.041,0.148c-0.249,1.419,0.133,2.78,1.104,3.936
	c1.694,2.017,4.703,2.919,6.935,2.919c0.23,0,0.457-0.009,0.678-0.027c1.162-0.089,2.086,0.108,3.073,0.324
	c0.81,0.177,1.646,0.36,2.595,0.36c0.832,0,1.649-0.143,2.5-0.435c1.197-0.413,1.803-0.438,2.44-0.324
	c0.663,0.12,1.654,0.159,3.078-0.278c0.49-0.151,0.887-0.526,1.388-1.001c0.813-0.771,1.928-1.827,3.882-2.274
	c3.209-0.74,5.606-4.047,6.315-6.932c0.157-0.641,0.474-1.02,0.953-1.594c0.657-0.788,1.476-1.768,2.176-3.792
	c0.646-1.871,0.515-3.463-0.39-4.734C52.923,25.233,50.216,24.806,49.291,24.806z M53.095,31.361
	c-0.598,1.729-1.275,2.542-1.874,3.258c-0.538,0.646-1.047,1.255-1.298,2.277c-0.671,2.73-2.841,5.173-5.046,5.682
	c-2.406,0.55-3.769,1.842-4.671,2.696c-0.264,0.251-0.593,0.563-0.717,0.61c-1.08,0.331-1.677,0.34-2.277,0.23
	c-0.262-0.047-0.559-0.101-0.941-0.101c-0.646,0-1.372,0.151-2.354,0.49c-1.467,0.504-2.792,0.324-4.178,0.021
	c-0.869-0.19-1.767-0.387-2.854-0.387c-0.233,0-0.474,0.01-0.723,0.03c-2.254,0.174-4.932-0.815-6.171-2.291
	c-0.63-0.75-0.879-1.584-0.742-2.479c0.14-0.384,0.753-2.087,1.269-3.917c0.201-0.509,0.368-0.961,0.516-1.363
	c0.637-1.729,0.84-2.197,1.702-2.574c1.786-0.782,2.551-2.305,3.008-3.214c0.085-0.169,0.201-0.4,0.216-0.428
	c1.638-1.462,3.861-3.016,4.82-3.016c0.001,0,0.002,0,0.004,0c0.239,0.045,0.493,0.069,0.754,0.069c1.638,0,3.394-0.917,4.006-1.557
	c0.278-0.217,1.906-0.747,3.66-0.747c0.843,0,1.548,0.129,2.039,0.372c2.652,1.317,4.999,1.494,6.945,1.494
	c0.355,0,0.698-0.006,1.104-0.013c0.768,0,2.75,0.419,3.637,1.664C53.495,28.966,53.552,30.041,53.095,31.361z M45.345,28.002
	c-0.001,0-0.001,0-0.002,0l-0.578,0.005c-1.318,0-2.763-0.111-4.394-0.917c-0.563-0.277-1.276-0.418-2.121-0.418
	c-1.278,0-3.005,0.353-3.567,0.925c-0.213,0.218-1.264,0.784-2.063,0.626c-0.102-0.02-0.21-0.03-0.324-0.03
	c-1.375,0-3.47,1.712-4.307,2.448c-0.21,0.185-0.331,0.424-0.484,0.728c-0.261,0.517-0.619,1.224-1.393,1.556
	c-1.201,0.51-1.509,1.345-1.976,2.609c-0.1,0.271-0.212,0.575-0.375,1c-0.399,1.414-0.879,2.71-0.884,2.723l-0.041,0.151
	c-0.183,1.06,0.105,2.077,0.833,2.941c1.38,1.638,3.864,2.287,5.605,2.149c0.785-0.061,1.42,0.082,2.102,0.231
	c0.593,0.131,1.206,0.267,1.914,0.267c0.605,0,1.199-0.101,1.816-0.307c0.818-0.273,1.254-0.272,1.604-0.208
	c0.461,0.084,1.229,0.125,2.28-0.188c0.404-0.12,0.719-0.413,1.083-0.753c0.58-0.542,1.304-1.216,2.611-1.505
	c2.37-0.525,4.124-2.913,4.633-5.002c0.089-0.367,0.262-0.583,0.611-0.997c0.451-0.534,1.069-1.265,1.572-2.72
	c0.592-1.713,0.156-2.858-0.313-3.517C48.138,28.326,46.108,28.002,45.345,28.002z M47.894,32.761
	c-0.399,1.155-0.858,1.698-1.264,2.178c-0.382,0.453-0.777,0.92-0.965,1.693c-0.433,1.779-1.903,3.424-3.348,3.743
	c-1.761,0.389-2.79,1.349-3.404,1.923c-0.153,0.143-0.362,0.338-0.407,0.366c-0.743,0.22-1.162,0.204-1.491,0.146
	c-0.6-0.111-1.318-0.111-2.449,0.268c-0.989,0.33-1.875,0.202-2.824-0.007c-0.607-0.135-1.294-0.286-2.104-0.286
	c-0.159,0-0.323,0.006-0.492,0.019c-1.514,0.112-3.356-0.575-4.176-1.549c-0.39-0.462-0.543-0.949-0.469-1.487
	c0.115-0.314,0.528-1.47,0.869-2.69c0.141-0.355,0.257-0.672,0.361-0.954c0.449-1.215,0.557-1.425,1.049-1.634
	c1.345-0.577,1.929-1.732,2.243-2.352c0.059-0.117,0.104-0.217,0.09-0.218c1.269-1.116,2.697-2.024,3.184-2.025
	c1.301,0.252,2.972-0.459,3.549-1.061c0.208-0.137,1.276-0.459,2.404-0.459c0.573,0,1.048,0.084,1.369,0.243
	c1.947,0.962,3.694,1.092,5.146,1.092l0.645-0.005c0.434,0,1.805,0.257,2.395,1.084C48.153,31.278,48.184,31.924,47.894,32.761z"/>
</svg>
