<?xml version="1.0" encoding="utf-8"?>
<!-- Generator: Adobe Illustrator 16.0.0, SVG Export Plug-In . SVG Version: 6.00 Build 0)  -->
<!DOCTYPE svg PUBLIC "-//W3C//DTD SVG 1.1//EN" "http://www.w3.org/Graphics/SVG/1.1/DTD/svg11.dtd">
<svg version="1.1" id="Layer_1" xmlns="http://www.w3.org/2000/svg" xmlns:xlink="http://www.w3.org/1999/xlink" x="0px" y="0px"
	 width="72px" height="72px" viewBox="0 0 72 72" enable-background="new 0 0 72 72" xml:space="preserve">
<path fill="#444444" d="M50.295,15.115c-2.428-1.196-5.316-1.215-8.137-0.054c-0.066,0.028-0.118,0.073-0.173,0.115
	c-1.792-1.12-3.826-1.763-5.985-1.763c-2.161,0-4.196,0.643-5.989,1.764c-0.056-0.042-0.108-0.089-0.177-0.117
	c-2.819-1.161-5.708-1.14-8.135,0.054c-5.883,2.9-7.703,11.947-4.057,20.169c1.734,3.909,5.451,7.488,11.02,10.648
	c-0.826,1.556-1.575,3.289-1.575,4.815c0,4.594,3.664,6.371,6.32,6.504c0.117,0.188,0.239,0.359,0.37,0.513
	c0.594,0.696,1.362,1.064,2.221,1.064c0.857,0,1.624-0.368,2.217-1.064c0.129-0.152,0.248-0.326,0.362-0.513
	c2.656-0.128,6.329-1.904,6.33-6.503c0-1.526-0.748-3.26-1.575-4.815c5.569-3.159,9.285-6.737,11.02-10.648
	C57.998,27.062,56.178,18.015,50.295,15.115z M19.13,34.664c-3.316-7.477-1.835-15.623,3.304-18.154
	c1.834-0.904,3.932-0.982,6.1-0.25c-3.318,2.804-5.494,7.412-5.494,12.622c0,5.214,2.174,10.04,5.818,12.912
	c0.514,0.405,0.968,0.865,1.37,1.362c-0.158,0.284-0.333,0.59-0.532,0.934c-0.085,0.147-0.177,0.306-0.267,0.461
	C24.195,41.572,20.72,38.251,19.13,34.664z M28.707,50.747c0-1.761,1.387-4.149,2.401-5.892c0.038-0.065,0.07-0.121,0.106-0.185
	c0.335,0.671,0.579,1.383,0.717,2.121l0.036,0.179c-0.112,3.81,0.132,6.665,0.728,8.616C30.822,55.21,28.707,53.796,28.707,50.747z
	 M36.967,56.768c-0.378,0.443-0.735,0.496-0.969,0.496c-0.236,0-0.592-0.053-0.97-0.496c-2.98-3.5-0.769-20.421,0.97-30.352
	C37.736,36.345,39.945,53.268,36.967,56.768z M43.859,30.089c-0.317-0.306-0.83-0.306-1.146,0l-3.893,3.763
	c-0.245-1.753-0.502-3.42-0.75-4.929c0.039-0.026,0.084-0.042,0.119-0.076l3.24-3.132c0.315-0.306,0.315-0.801,0-1.107
	c-0.318-0.307-0.83-0.307-1.146,0l-2.528,2.446c-0.448-2.587-0.823-4.485-0.963-5.177c-0.075-0.368-0.408-0.633-0.795-0.633
	c-0.388,0-0.721,0.265-0.795,0.633c-0.008,0.039-0.421,2.097-0.95,5.189l-2.542-2.458c-0.318-0.307-0.83-0.307-1.146,0
	c-0.317,0.305-0.317,0.8,0,1.107l3.239,3.132c0.04,0.039,0.091,0.059,0.137,0.088c-0.246,1.509-0.501,3.182-0.745,4.938
	l-3.915-3.784c-0.317-0.306-0.83-0.306-1.146,0c-0.316,0.304-0.316,0.801,0,1.107l4.798,4.637c-0.074,0.58-0.147,1.164-0.216,1.753
	c-0.234,1.992-0.413,3.831-0.542,5.534c-0.606-0.955-1.376-1.817-2.293-2.54c-3.271-2.578-5.224-6.951-5.224-11.699
	c0-7.664,5.088-13.901,11.341-13.901c6.251,0,11.338,6.237,11.338,13.901c0,4.748-1.953,9.121-5.224,11.699
	c-0.912,0.718-1.677,1.574-2.281,2.521c-0.176-2.419-0.441-4.904-0.748-7.291l4.775-4.615
	C44.176,30.891,44.176,30.394,43.859,30.089z M39.285,55.591c0.639-2.127,0.825-5.179,0.74-8.593l0.041-0.206
	c0.138-0.737,0.381-1.448,0.715-2.118c0.037,0.063,0.068,0.117,0.105,0.182c1.012,1.744,2.399,4.133,2.399,5.893
	C43.286,53.805,41.161,55.218,39.285,55.591z M52.863,34.665c-1.59,3.587-5.064,6.908-10.299,9.886
	c-0.09-0.155-0.181-0.313-0.267-0.461c-0.198-0.344-0.373-0.649-0.53-0.933c0.401-0.497,0.856-0.958,1.371-1.364
	c3.644-2.872,5.819-7.698,5.819-12.912c0-5.211-2.177-9.818-5.494-12.622c2.168-0.73,4.263-0.651,6.095,0.252
	C54.697,19.042,56.18,27.187,52.863,34.665z"/>
</svg>
