<?xml version="1.0" encoding="utf-8"?>
<!-- Generator: Adobe Illustrator 16.0.0, SVG Export Plug-In . SVG Version: 6.00 Build 0)  -->
<!DOCTYPE svg PUBLIC "-//W3C//DTD SVG 1.1//EN" "http://www.w3.org/Graphics/SVG/1.1/DTD/svg11.dtd">
<svg version="1.1" id="Layer_1" xmlns="http://www.w3.org/2000/svg" xmlns:xlink="http://www.w3.org/1999/xlink" x="0px" y="0px"
	 width="72px" height="72px" viewBox="0 0 72 72" enable-background="new 0 0 72 72" xml:space="preserve">
<path fill="#444444" d="M58.344,14.678c-0.004-0.01-0.012-0.015-0.017-0.023c-0.005-0.008-0.005-0.018-0.011-0.025
	c-0.023-0.035-0.06-0.056-0.086-0.086c-0.035-0.037-0.066-0.077-0.107-0.105s-0.085-0.045-0.13-0.063
	c-0.044-0.02-0.084-0.043-0.132-0.055c-0.047-0.011-0.096-0.009-0.146-0.011c-0.047-0.002-0.094-0.008-0.141,0
	c-0.05,0.007-0.097,0.028-0.146,0.047c-0.039,0.016-0.078,0.019-0.115,0.037c-0.008,0.005-0.012,0.015-0.02,0.02
	c-0.008,0.004-0.018,0.004-0.025,0.01L10.735,45.527c-0.007,0.007-0.011,0.015-0.018,0.018c-0.008,0.007-0.018,0.008-0.025,0.014
	c-0.034,0.027-0.054,0.064-0.083,0.098c-0.033,0.035-0.07,0.068-0.095,0.109c-0.025,0.041-0.038,0.088-0.055,0.133
	c-0.016,0.047-0.037,0.09-0.044,0.137c-0.009,0.049-0.002,0.096-0.001,0.145s-0.001,0.094,0.009,0.143
	c0.011,0.05,0.037,0.096,0.059,0.144c0.017,0.037,0.021,0.075,0.044,0.109c0.006,0.009,0.016,0.016,0.022,0.024
	c0.003,0.006,0.004,0.012,0.008,0.019c5.633,7.271,14.175,11.133,22.828,11.133c5.515,0,11.074-1.571,15.949-4.83
	C61.857,44.551,65.814,27.751,58.344,14.678z M52.781,19.236c4.836,9.681,1.695,21.758-7.368,27.814
	c-9.061,6.056-21.419,4.341-28.514-3.829L52.781,19.236z M48.497,51.667c-11.642,7.778-27.393,5.397-36.237-5.347l3.382-2.26
	c4.529,5.305,11.109,8.116,17.757,8.116c4.455,0,8.94-1.261,12.85-3.874c9.744-6.512,13.084-19.53,7.792-29.91l3.38-2.258
	C63.964,28.418,60.141,43.885,48.497,51.667z M46.919,26.784c-0.006-0.242,0.087-0.478,0.265-0.663
	c0.524-0.554,1.865-0.645,2.418-0.659l0.213-0.003c1.143,0,2.51,0.207,2.533,1.189c0.006,0.24-0.089,0.475-0.266,0.662
	c-0.525,0.553-1.867,0.644-2.419,0.658l-0.208,0.002C48.313,27.97,46.945,27.765,46.919,26.784z M46.037,34.21
	c0.089-0.233,0.354-0.623,1.105-0.623c0.485,0,1.172,0.157,1.877,0.428c0.516,0.199,1.748,0.735,2.059,1.43
	c0.104,0.236,0.113,0.489,0.025,0.715c-0.088,0.233-0.352,0.625-1.105,0.625c-0.486,0-1.17-0.156-1.878-0.429
	c-0.545-0.209-1.045-0.466-1.406-0.722C45.919,35.07,45.906,34.549,46.037,34.21z M41.328,43.848
	c-0.561-0.843-1.368-2.348-0.459-2.953c0.148-0.098,0.322-0.149,0.504-0.149c0.785,0,1.615,1.075,2.043,1.718
	c0.305,0.457,1.001,1.607,0.85,2.355c-0.051,0.252-0.19,0.465-0.393,0.599c-0.145,0.094-0.318,0.147-0.502,0.147
	C42.586,45.564,41.754,44.488,41.328,43.848z M32.649,48.572c-0.507-0.531-0.554-1.762-0.537-2.448
	c0.032-1.226,0.283-2.685,1.301-2.685c1.059,0.028,1.238,1.511,1.206,2.748c-0.031,1.223-0.282,2.682-1.3,2.682
	c-0.007,0-0.018,0-0.024,0C33.056,48.863,32.825,48.758,32.649,48.572z M23.146,44.943c0.073-0.438,0.245-0.971,0.483-1.508
	c0.414-0.934,1.077-2.047,1.882-2.047c0.106,0,0.266,0.032,0.363,0.075c0.219,0.097,0.392,0.283,0.485,0.522
	c0.275,0.711-0.216,1.962-0.439,2.467c-0.414,0.936-1.078,2.051-1.885,2.051c-0.104,0-0.266-0.035-0.362-0.077
	C23.342,46.279,22.982,45.904,23.146,44.943z"/>
</svg>
