<?xml version="1.0" encoding="utf-8"?>
<!-- Generator: Adobe Illustrator 16.0.0, SVG Export Plug-In . SVG Version: 6.00 Build 0)  -->
<!DOCTYPE svg PUBLIC "-//W3C//DTD SVG 1.1//EN" "http://www.w3.org/Graphics/SVG/1.1/DTD/svg11.dtd">
<svg version="1.1" id="Layer_1" xmlns="http://www.w3.org/2000/svg" xmlns:xlink="http://www.w3.org/1999/xlink" x="0px" y="0px"
	 width="72px" height="72px" viewBox="0 0 72 72" enable-background="new 0 0 72 72" xml:space="preserve">
<path fill="#444444" d="M55.535,20.425c-0.02-0.209-0.135-0.398-0.313-0.511l-2.287-1.443c-0.258-0.162-0.593-0.132-0.816,0.072
	l-10.452,12.72L50.29,17.6c0.198-0.315,0.104-0.732-0.21-0.932l-2.287-1.443c-0.314-0.198-0.732-0.104-0.932,0.211l-8.629,13.67
	l6.988-14.916c0.09-0.293-0.027-0.606-0.285-0.769l-2.285-1.443c-0.18-0.111-0.399-0.136-0.598-0.063
	c-0.197,0.073-0.35,0.235-0.41,0.437L31.539,34.138c-4.935-0.804-10.107,1.329-12.938,5.815c-0.745,1.18-1.253,2.458-1.578,3.773
	c-0.004,0.006-0.012,0.01-0.016,0.017c-0.085,0.137-0.107,0.291-0.089,0.438c-0.614,2.954-0.203,6.082,1.3,8.813
	c0.675,1.226,1.151,2.479,1.417,3.723c0.321,1.507,1.285,2.974,1.326,3.034c0.054,0.08,0.123,0.148,0.203,0.198
	s0.17,0.085,0.266,0.097c0.074,0.014,1.813,0.251,3.31-0.105c1.238-0.297,2.573-0.404,3.969-0.324
	c3.142,0.184,6.181-0.794,8.596-2.653c0.078-0.039,0.147-0.092,0.209-0.161c1.086-0.873,2.039-1.93,2.807-3.145
	c2.832-4.487,2.531-10.073-0.317-14.182L55.32,20.984C55.475,20.841,55.555,20.634,55.535,20.425z M47.643,16.728l1.144,0.723
	L36.872,36.327c-0.188-0.134-0.373-0.26-0.561-0.378c-0.187-0.118-0.38-0.232-0.582-0.344L47.643,16.728z M42.676,13.595
	l1.104,0.694l-9.8,20.5c-0.395-0.149-0.794-0.277-1.197-0.385L42.676,13.595z M40.907,46.038l-2.696-1.702
	c-0.316-0.199-0.732-0.104-0.934,0.211c-0.198,0.314-0.104,0.732,0.211,0.932l3.426,2.162c-0.131,1.826-0.695,3.645-1.738,5.297
	c-0.621,0.985-1.391,1.84-2.251,2.576l-1.839-1.16c-0.316-0.199-0.733-0.104-0.932,0.211c-0.2,0.315-0.105,0.731,0.21,0.932
	l1.408,0.889c-2.033,1.338-4.469,2.031-6.984,1.883c-1.528-0.086-2.997,0.033-4.363,0.36c-0.911,0.218-1.983,0.162-2.5,0.116
	c-0.262-0.444-0.771-1.387-0.968-2.307c-0.293-1.373-0.816-2.752-1.554-4.092c-1.215-2.207-1.636-4.705-1.304-7.115l4.264,2.691
	c0.316,0.198,0.733,0.105,0.932-0.211c0.199-0.314,0.105-0.732-0.211-0.932l-4.696-2.965c0.294-1.094,0.735-2.155,1.357-3.142
	c2.632-4.171,7.525-6.054,12.092-5.093c0.375,0.08,0.746,0.177,1.113,0.294c0.015,0.005,0.03-0.053,0.046-0.048
	c0.384,0.125,0.762,0.373,1.132,0.373c0.001,0,0.002,0,0.003,0c0.115,0,0.232,0.158,0.347,0.213
	c0.088,0.043,0.166,0.117,0.249,0.161c0.292,0.149,0.582,0.323,0.865,0.502c0.278,0.175,0.54,0.374,0.798,0.569
	c0.081,0.062,0.159,0.121,0.242,0.188c0.001,0.001,0.002,0.003,0.002,0.004c0.097,0.076,0.183,0.161,0.276,0.24
	c0.002,0.002,0.003,0.004,0.004,0.005c0.309,0.262,0.602,0.542,0.88,0.835c0.011,0.012,0.021,0.023,0.033,0.035
	c0.271,0.285,0.522,0.587,0.761,0.898C39.96,41.654,40.755,43.813,40.907,46.038z M39.227,38.471
	c-0.271-0.316-0.559-0.623-0.861-0.916L52.65,19.89l1.104,0.693L39.227,38.471z M27.111,42.93c-0.2,0.314-0.617,0.407-0.932,0.209
	l-3.429-2.164c-0.315-0.199-0.41-0.617-0.211-0.932c0.2-0.316,0.617-0.41,0.932-0.211l3.43,2.164
	C27.216,42.193,27.311,42.611,27.111,42.93z M30.541,45.092c-0.199,0.315-0.616,0.411-0.932,0.211l-1.144-0.721
	c-0.316-0.2-0.409-0.618-0.211-0.934c0.199-0.314,0.617-0.408,0.933-0.209l1.143,0.721C30.645,44.359,30.739,44.777,30.541,45.092z
	 M33.01,53.843c-0.2,0.315-0.616,0.41-0.933,0.21l-1.143-0.721c-0.314-0.199-0.409-0.618-0.21-0.934
	c0.199-0.314,0.617-0.408,0.932-0.209l1.143,0.721C33.114,53.109,33.209,53.525,33.01,53.843z"/>
</svg>
