<?xml version="1.0" encoding="utf-8"?>
<!-- Generator: Adobe Illustrator 16.0.0, SVG Export Plug-In . SVG Version: 6.00 Build 0)  -->
<!DOCTYPE svg PUBLIC "-//W3C//DTD SVG 1.1//EN" "http://www.w3.org/Graphics/SVG/1.1/DTD/svg11.dtd">
<svg version="1.1" id="Layer_1" xmlns="http://www.w3.org/2000/svg" xmlns:xlink="http://www.w3.org/1999/xlink" x="0px" y="0px"
	 width="72px" height="72px" viewBox="0 0 72 72" enable-background="new 0 0 72 72" xml:space="preserve">
<path fill="#444444" d="M52.716,30.78c-1.752-2.725-4.313-4.425-7.216-4.788c-0.648-0.082-1.286-0.122-1.896-0.122
	c-3.365,0-5.513,1.221-6.737,2.277c-0.056,0.025-0.101,0.038-0.151,0.059c0.154-1.938,1.006-8.366,5.57-11.31
	c0.346-0.223,0.445-0.685,0.222-1.031c-0.224-0.346-0.685-0.445-1.03-0.222c-1.867,1.205-3.18,2.88-4.102,4.631
	c-0.229-0.922-0.675-2.045-1.564-2.94c-1.193-1.203-2.873-1.701-4.963-1.469c-0.38,0.042-0.771,0.063-1.159,0.064
	c-4.005,0-7.072-2.282-7.103-2.304c-0.243-0.185-0.575-0.202-0.837-0.042c-0.261,0.159-0.399,0.461-0.348,0.762
	c0.049,0.283,1.259,6.958,7.482,9.504c1.197,0.49,2.375,0.738,3.503,0.738c1.588,0,2.813-0.486,3.66-0.99
	c-0.555,1.894-0.751,3.564-0.82,4.461c-1.261-1.051-3.369-2.187-6.622-2.187c-0.611,0-1.25,0.041-1.898,0.122
	c-2.902,0.363-5.465,2.063-7.217,4.789c-2.547,3.962-3.096,9.416-1.471,14.601c2.693,8.592,9.41,13.357,13.223,13.494
	c2.503,0.09,4.055-1.193,4.856-2.146c0.879,1.045,2.42,2.149,4.624,2.149c0.079,0,0.161-0.001,0.244-0.004
	c3.813-0.138,10.53-4.901,13.225-13.494C55.814,40.195,55.264,34.741,52.716,30.78z M32.387,23.098
	c-0.933,0-1.922-0.211-2.939-0.627c-3.601-1.473-5.311-4.636-6.059-6.626c1.433,0.729,3.667,1.578,6.3,1.578
	c0.443,0,0.889-0.025,1.324-0.074c1.653-0.183,2.872,0.168,3.732,1.031c1.072,1.074,1.306,2.691,1.357,3.339
	C35.646,22.142,34.391,23.098,32.387,23.098z M52.768,44.938c-2.455,7.83-8.567,12.332-11.854,12.449l-0.192,0.004
	c-2.771,0-3.902-2.217-3.949-2.311c-0.125-0.254-0.383-0.414-0.667-0.414h-0.001c-0.284,0-0.542,0.162-0.668,0.416
	c-0.046,0.094-1.17,2.309-3.948,2.309l-0.192-0.004c-3.286-0.117-9.398-4.619-11.854-12.449c-1.473-4.698-0.973-9.809,1.303-13.35
	c1.531-2.381,3.657-3.804,6.147-4.116c0.587-0.073,1.164-0.11,1.713-0.11c3.035,0,4.892,1.114,5.915,2.05
	c0.064,0.059,0.139,0.106,0.22,0.139c1.062,0.438,1.814,0.405,2.863-0.102c0.062-0.03,0.117-0.067,0.168-0.113
	c1.021-0.9,2.858-1.974,5.832-1.974c0.549,0,1.125,0.037,1.713,0.11c2.49,0.312,4.617,1.735,6.146,4.116
	C53.738,35.128,54.238,40.238,52.768,44.938z"/>
</svg>
