<?xml version="1.0" encoding="utf-8"?>
<!-- Generator: Adobe Illustrator 16.0.0, SVG Export Plug-In . SVG Version: 6.00 Build 0)  -->
<!DOCTYPE svg PUBLIC "-//W3C//DTD SVG 1.1//EN" "http://www.w3.org/Graphics/SVG/1.1/DTD/svg11.dtd">
<svg version="1.1" id="Layer_1" xmlns="http://www.w3.org/2000/svg" xmlns:xlink="http://www.w3.org/1999/xlink" x="0px" y="0px"
	 width="72px" height="72px" viewBox="0 0 72 72" enable-background="new 0 0 72 72" xml:space="preserve">
<path fill="#444444" d="M61.082,21.057c-0.563-3.527-3.413-6.381-6.933-6.939c-2.282-0.365-4.563,0.193-6.384,1.554
	c-0.909,0.678-2.119,1.684-3.237,2.691c-0.191,0.173-0.385,0.352-0.582,0.535c-1.784,1.654-3.807,3.528-7.88,3.528
	c-3.737,0-5.692-1.693-7.417-3.188c-0.372-0.322-0.73-0.632-1.089-0.914c-0.437-0.341-0.91-0.751-1.39-1.165
	c-0.603-0.52-1.226-1.058-1.803-1.488c-1.822-1.357-4.098-1.915-6.382-1.554c-3.521,0.559-6.372,3.412-6.934,6.94
	c-0.335,2.113,0.12,4.222,1.283,5.982c-0.179,1.022-0.062,2.333,1.491,3.873c1.269,1.258,3.059,1.538,4.537,0.951
	c0.761,1.134,2.032,1.83,3.441,1.83c0.792,0,1.561-0.231,2.219-0.649c0.55,1.121,1.622,1.93,2.893,2.121
	c0.797,1.911,3.729,9.497,2.632,15.287c-0.362,1.914,0.142,3.877,1.384,5.386c1.233,1.499,3.048,2.366,4.966,2.379l0.168,0.002h0h0
	l0.158-0.002c1.93-0.013,3.745-0.88,4.979-2.38c1.241-1.509,1.745-3.472,1.382-5.385c-1.094-5.782,1.835-13.373,2.632-15.286
	c1.273-0.19,2.346-1,2.896-2.122c0.658,0.418,1.428,0.65,2.22,0.65c1.408,0,2.679-0.695,3.44-1.829
	c1.474,0.587,3.272,0.308,4.536-0.951c1.556-1.542,1.672-2.853,1.492-3.874C60.964,25.276,61.417,23.167,61.082,21.057z
	 M40.916,50.768c0.269,1.416-0.105,2.87-1.025,3.988c-0.912,1.109-2.252,1.751-3.689,1.761l-0.135,0.002h0h0l-0.146-0.002
	c-1.424-0.01-2.764-0.651-3.676-1.76c-0.92-1.118-1.295-2.572-1.027-3.989c1.115-5.884-1.467-13.134-2.525-15.758
	c0.248-0.082,0.491-0.181,0.719-0.313c0.422,0.413,0.944,0.707,1.504,0.889c0.282,0.742,0.935,2.512,1.388,4.189
	c0.103,0.379,0.446,0.629,0.82,0.629c0.073,0,0.148-0.01,0.222-0.03c0.453-0.122,0.721-0.589,0.599-1.042
	c-0.358-1.323-0.822-2.668-1.157-3.589c0.5-0.074,0.99-0.232,1.433-0.503c0.315,0.161,0.652,0.267,0.996,0.339v6.659
	c0,0.47,0.381,0.85,0.85,0.85s0.85-0.38,0.85-0.85v-6.658c0.345-0.072,0.683-0.178,0.999-0.339c0.439,0.271,0.92,0.445,1.421,0.527
	c-0.335,0.921-0.793,2.252-1.146,3.564c-0.123,0.453,0.146,0.92,0.599,1.042c0.074,0.021,0.148,0.03,0.223,0.03
	c0.374,0,0.718-0.25,0.819-0.629c0.448-1.658,1.094-3.415,1.38-4.17c0.564-0.188,1.087-0.487,1.517-0.907
	c0.227,0.13,0.468,0.23,0.715,0.312C42.385,37.632,39.803,44.883,40.916,50.768z M58.206,26.359
	c-0.147,0.204-0.197,0.462-0.136,0.707c0.173,0.685,0.241,1.452-0.958,2.641c-0.492,0.49-1.11,0.771-1.695,0.771
	c-0.547,0-1.075-0.16-1.526-0.463c-0.214-0.144-0.481-0.182-0.729-0.104c-0.246,0.078-0.443,0.263-0.537,0.504
	c-0.371,0.959-1.271,1.579-2.29,1.579c-0.791,0-1.517-0.373-1.989-1.024c-0.211-0.292-0.584-0.418-0.932-0.315
	c-0.346,0.104-0.588,0.415-0.604,0.775c-0.055,1.167-1.007,2.08-2.168,2.08c-0.546,0-1.071-0.21-1.479-0.591
	c-0.185-0.172-0.437-0.25-0.685-0.222c-0.25,0.031-0.473,0.171-0.609,0.383c-0.422,0.654-1.133,1.044-1.901,1.044
	c-0.67,0-1.163-0.298-1.458-0.548c-0.158-0.134-0.354-0.202-0.55-0.202c-0.172,0-0.345,0.052-0.493,0.158
	c-0.832,0.592-1.964,0.591-2.792,0c-0.316-0.226-0.746-0.208-1.043,0.043c-0.295,0.25-0.788,0.548-1.459,0.548
	c-0.769,0-1.479-0.39-1.9-1.044c-0.137-0.211-0.36-0.352-0.61-0.383c-0.249-0.028-0.5,0.051-0.685,0.222
	c-0.408,0.381-0.935,0.591-1.481,0.591c-1.161,0-2.113-0.914-2.167-2.08c-0.017-0.361-0.259-0.672-0.605-0.775
	c-0.348-0.104-0.72,0.022-0.932,0.315c-0.472,0.651-1.197,1.024-1.988,1.024c-1.021,0-1.919-0.62-2.29-1.579
	c-0.093-0.241-0.291-0.426-0.536-0.504c-0.248-0.079-0.515-0.04-0.729,0.104c-0.455,0.304-0.983,0.464-1.528,0.464
	c-0.584,0-1.203-0.281-1.698-0.772c-1.196-1.185-1.127-1.954-0.956-2.64c0.062-0.245,0.011-0.503-0.137-0.708
	c-1.058-1.453-1.484-3.241-1.2-5.033c0.448-2.81,2.719-5.083,5.522-5.528c1.827-0.291,3.644,0.153,5.1,1.238
	c0.528,0.394,1.128,0.912,1.708,1.412c0.501,0.433,0.998,0.86,1.452,1.216c0.337,0.265,0.675,0.557,1.025,0.86
	c1.853,1.605,4.159,3.603,8.53,3.603c4.74,0,7.123-2.208,9.037-3.982c0.19-0.177,0.379-0.351,0.564-0.519
	c1.081-0.975,2.245-1.943,3.115-2.591c1.454-1.087,3.271-1.528,5.101-1.238c2.802,0.445,5.072,2.718,5.52,5.528
	C59.688,23.115,59.263,24.903,58.206,26.359z M17.906,23.089c0.346,0.318,0.368,0.855,0.051,1.201
	c-0.457,0.497-0.754,1.106-0.859,1.762c-0.035,0.215-0.049,0.428-0.044,0.633c0.012,0.469-0.359,0.859-0.829,0.871
	c-0.007,0-0.014,0-0.021,0c-0.459,0-0.838-0.367-0.849-0.829c-0.008-0.309,0.014-0.626,0.065-0.944
	c0.158-0.986,0.603-1.9,1.286-2.644C17.023,22.794,17.562,22.772,17.906,23.089z M22.265,19.673
	c-0.098,0.384-0.444,0.639-0.823,0.639c-0.07,0-0.141-0.009-0.211-0.027c-0.456-0.116-0.931-0.137-1.411-0.06
	c-0.102,0.016-0.198,0.038-0.294,0.061c-0.457,0.109-0.916-0.17-1.027-0.625c-0.11-0.457,0.169-0.916,0.625-1.027
	c0.142-0.034,0.285-0.065,0.431-0.088c0.708-0.114,1.416-0.083,2.098,0.093C22.107,18.755,22.382,19.218,22.265,19.673z"/>
</svg>
