<?xml version="1.0" encoding="utf-8"?>
<!-- Generator: Adobe Illustrator 16.0.0, SVG Export Plug-In . SVG Version: 6.00 Build 0)  -->
<!DOCTYPE svg PUBLIC "-//W3C//DTD SVG 1.1//EN" "http://www.w3.org/Graphics/SVG/1.1/DTD/svg11.dtd">
<svg version="1.1" id="Layer_1" xmlns="http://www.w3.org/2000/svg" xmlns:xlink="http://www.w3.org/1999/xlink" x="0px" y="0px"
	 width="72px" height="72px" viewBox="0 0 72 72" enable-background="new 0 0 72 72" xml:space="preserve">
<path fill="#444444" d="M22.535,15.254c-0.108-0.276-0.038-0.585,0.178-0.79c0.134-0.125,0.31-0.195,0.495-0.195
	c0.105,0,0.208,0.023,0.303,0.067l7.899,3.67l4.077-6.703c0.132-0.217,0.362-0.347,0.615-0.347c0.25,0,0.486,0.132,0.617,0.346
	l4.092,6.694l7.875-3.659c0.096-0.044,0.197-0.067,0.303-0.067c0.186,0,0.359,0.069,0.492,0.195c0.219,0.204,0.287,0.513,0.18,0.79
	l-2.385,6.071c-0.443-0.195-0.899-0.35-1.366-0.461l1.75-4.461l-6.813,3.166c-0.095,0.043-0.193,0.066-0.297,0.066
	c-0.154,0-0.309-0.051-0.434-0.144l-0.09-0.077c-0.062-0.057-0.103-0.104-0.129-0.149l-3.792-6.203l-3.774,6.204
	c-0.075,0.124-0.189,0.218-0.34,0.282c-0.127,0.061-0.239,0.085-0.347,0.085c-0.102,0-0.2-0.021-0.293-0.064l-6.814-3.166l1.75,4.46
	c-0.467,0.112-0.924,0.267-1.368,0.462L22.535,15.254z M54.959,41.902c0,3.097-1.854,5.855-4.436,6.714L50.1,48.742v0.396
	c0,3.844-2.672,6.971-5.998,6.971c-0.531,0-1.043-0.086-1.574-0.254l-0.533-0.174l-0.146,0.555c-0.803,2.916-3.109,4.877-5.75,4.877
	c-2.637,0-4.949-1.961-5.751-4.881l-0.153-0.553l-0.547,0.174c-0.529,0.17-1.015,0.256-1.549,0.256
	c-3.326,0-5.997-3.127-5.997-6.971v-0.396l-0.429-0.125C19.089,47.76,17.26,45,17.26,41.904c0-1.659,0.505-3.271,1.447-4.541
	l0.191-0.266l-0.145-0.302c-0.454-0.956-0.686-1.985-0.686-3.061c0-3.274,2.125-6.016,4.947-6.377l0.292-0.038l0.131-0.263
	c0.994-1.997,2.844-3.237,4.825-3.237c1.448,0,2.823,0.652,3.875,1.836l0.318,0.358l0.4-0.266c0.991-0.661,2.112-1.01,3.243-1.01
	c1.13,0,2.251,0.349,3.242,1.01l0.4,0.266l0.318-0.359c1.051-1.185,2.426-1.836,3.875-1.836c1.979,0,3.83,1.24,4.825,3.237
	l0.132,0.263l0.291,0.038c2.821,0.361,4.948,3.103,4.948,6.377c0,1.075-0.229,2.104-0.687,3.061l-0.141,0.301l0.196,0.266
	C54.441,38.631,54.959,40.243,54.959,41.902z M48.389,34.066l-0.554,0.851l1.079-0.004c0.953,0,1.874,0.258,2.734,0.765l0.613,0.361
	l0.196-0.684c0.151-0.527,0.229-1.072,0.229-1.62c0-1.933-0.939-3.705-2.396-4.514L49.4,28.726l0.074,1.017
	c0.012,0.165,0.022,0.33,0.022,0.498C49.497,31.624,49.111,32.946,48.389,34.066z M40.779,27.023l0.263,0.351
	c0.922,1.235,1.463,2.75,1.563,4.378l0.033,0.535l0.557-0.02l0.15-0.012c1.105,0,2.176,0.376,3.092,1.088l0.487,0.377l0.321-0.525
	c0.529-0.865,0.809-1.886,0.809-2.954c0-2.745-1.849-4.977-4.121-4.977c-1.074,0-2.096,0.506-2.871,1.425L40.779,27.023z
	 M31.129,45.695c0,3.295,2.229,6.037,4.969,6.037c2.739,0,4.968-2.773,4.968-6.067c0-3.235-2.19-6.063-4.882-6.063h-0.165h-0.006
	C33.32,39.602,31.129,42.46,31.129,45.695z M32.643,39.587l0.601-0.446l-0.606-0.44c-1.432-1.042-2.45-2.655-2.866-4.543
	l-0.083-0.377l-0.383-0.05c-0.15-0.022-0.302-0.033-0.456-0.033c-0.541,0-1.07,0.127-1.574,0.379
	c-0.887,0.443-1.622,1.249-2.07,2.27c-0.312,0.714-0.477,1.52-0.477,2.329c0,2.744,1.849,4.978,4.121,4.978
	c0.296,0,0.595-0.041,0.886-0.116l0.288-0.077l0.094-0.282C30.607,41.711,31.504,40.438,32.643,39.587z M42.079,43.174l0.094,0.281
	l0.287,0.077c0.291,0.077,0.59,0.116,0.888,0.116c2.271,0,4.118-2.231,4.118-4.977c0-0.809-0.163-1.613-0.476-2.328
	c-0.447-1.021-1.184-1.828-2.07-2.271c-0.504-0.248-1.033-0.376-1.574-0.376c-0.154,0-0.307,0.011-0.455,0.031l-0.384,0.05
	l-0.083,0.377c-0.416,1.885-1.434,3.5-2.865,4.542l-0.606,0.439l0.603,0.447C40.693,40.434,41.59,41.707,42.079,43.174z
	 M31.008,32.298c0,3.315,2.245,6.155,5.005,6.209l0.083,0.094c2.852-0.009,5.091-2.896,5.091-6.206c0-3.372-2.283-6.212-5.089-6.212
	C33.291,26.183,31.008,28.927,31.008,32.298z M24.14,30.241c0,1.068,0.28,2.089,0.809,2.954l0.322,0.526l0.486-0.378
	c0.917-0.711,1.987-1.088,3.093-1.088l0.17,0.014l0.536,0.018l0.033-0.535c0.102-1.627,0.643-3.141,1.564-4.378l0.262-0.351
	l-0.283-0.334c-0.775-0.919-1.795-1.425-2.871-1.425C25.989,25.264,24.14,27.496,24.14,30.241z M19.506,33.736
	c0,0.545,0.077,1.09,0.229,1.62l0.197,0.684l0.613-0.519c0.86-0.507,1.781-0.921,2.736-0.921h1.016l-0.489-0.691
	c-0.727-1.118-1.111-2.362-1.111-3.746c0-0.168,0.011-0.294,0.023-0.459l0.07-0.995l-0.888,0.513
	C20.446,30.031,19.506,31.803,19.506,33.736z M22.367,46.732c0.409-1.291,1.138-2.409,2.106-3.232l0.387-0.329l-0.296-0.413
	c-0.824-1.148-1.277-2.598-1.277-4.083c0-0.521,0.064-1.05,0.195-1.62l0.172-0.754l-0.767,0.079
	c-2.401,0.247-4.211,2.622-4.211,5.524c0,2.299,1.15,4.324,2.931,5.162l0.57,0.268L22.367,46.732z M31.969,52.016l0.179-0.354
	l-0.277-0.282c-1.388-1.416-2.185-3.44-2.185-5.56l0.011-0.188l0.014-0.596l-0.595,0.031c0,0-0.229,0.022-0.267,0.022
	c-0.907,0-1.775-0.248-2.58-0.737l-0.315-0.19l-0.296,0.22c-0.685,0.502-1.252,1.209-1.638,2.044
	c-0.381,0.824-0.583,1.755-0.583,2.694c0,0.077,0.004,0.154,0.008,0.23c0.135,3.012,2.153,5.315,4.599,5.315
	C29.657,54.667,31.125,53.675,31.969,52.016z M40.669,54.829l-0.222-0.198c-0.522-0.472-0.973-1.033-1.338-1.67l-0.248-0.434
	l-0.455,0.205c-0.749,0.336-1.525,0.506-2.31,0.506c-0.785,0-1.562-0.17-2.31-0.506l-0.456-0.205l-0.247,0.434
	c-0.364,0.637-0.814,1.198-1.338,1.67l-0.221,0.198l0.045,0.293c0.398,2.636,2.302,4.549,4.527,4.549
	c2.224,0,4.13-1.913,4.528-4.549L40.669,54.829z M48.759,49.12c0-0.938-0.2-1.871-0.583-2.694c-0.386-0.835-0.951-1.542-1.638-2.044
	l-0.297-0.218l-0.313,0.191c-0.808,0.488-1.675,0.736-2.58,0.736c-0.039,0-0.267-0.023-0.267-0.023l-0.593-0.03l0.01,0.608
	l0.008,0.113c0.004,2.18-0.793,4.204-2.182,5.62l-0.277,0.282l0.18,0.354c0.844,1.659,2.312,2.651,3.924,2.651
	c2.445,0,4.465-2.306,4.597-5.246C48.755,49.271,48.759,49.195,48.759,49.12z M53.518,41.904c0-2.902-1.811-5.277-4.211-5.524
	l-0.767-0.079l0.174,0.754c0.13,0.563,0.194,1.094,0.194,1.62c0,1.485-0.453,2.937-1.277,4.083l-0.297,0.413l0.389,0.329
	c0.969,0.822,1.697,1.941,2.105,3.232l0.189,0.602l0.569-0.268C52.367,46.229,53.518,44.203,53.518,41.904z"/>
</svg>
