<?xml version="1.0" encoding="utf-8"?>
<!-- Generator: Adobe Illustrator 16.0.0, SVG Export Plug-In . SVG Version: 6.00 Build 0)  -->
<!DOCTYPE svg PUBLIC "-//W3C//DTD SVG 1.1//EN" "http://www.w3.org/Graphics/SVG/1.1/DTD/svg11.dtd">
<svg version="1.1" id="Layer_1" xmlns="http://www.w3.org/2000/svg" xmlns:xlink="http://www.w3.org/1999/xlink" x="0px" y="0px"
	 width="72px" height="72px" viewBox="0 0 72 72" enable-background="new 0 0 72 72" xml:space="preserve">
<path fill="#444444" d="M32.875,32.656c0,0.414-0.336,0.75-0.75,0.75s-0.75-0.336-0.75-0.75c0-0.415,0.336-0.75,0.75-0.75
	S32.875,32.242,32.875,32.656z M57.552,45.539c0.015,0.188-0.046,0.369-0.17,0.511c-0.133,0.153-0.325,0.241-0.528,0.241
	c-0.172,0-0.33-0.061-0.459-0.172L52.5,42.734c-0.25-0.215-0.572-0.334-0.907-0.334c-0.19,0-0.382,0.039-0.56,0.113l-4.016,1.967
	l-0.054,0.108c-0.131,0.271-0.284,0.534-0.455,0.783l-0.424,0.619l3.774-0.366c0.091-0.009,0.18-0.014,0.27-0.014
	c0.74,0,1.438,0.291,1.971,0.82l3.871,4.017c0.131,0.135,0.2,0.313,0.196,0.5c-0.003,0.188-0.079,0.362-0.215,0.491
	c-0.132,0.127-0.304,0.197-0.486,0.197c-0.192,0-0.372-0.076-0.506-0.215l-3.829-3.974c-0.271-0.28-0.627-0.435-1.002-0.435
	c-0.045,0-0.089,0.002-0.134,0.006l-6.214,0.604l-1.143,0.689l5.971,1.922c0.527,0.17,0.983,0.479,1.322,0.89l2.838,3.483
	c0.244,0.301,0.198,0.744-0.103,0.988c-0.125,0.103-0.28,0.158-0.44,0.158c-0.213,0-0.41-0.095-0.547-0.26l-2.837-3.482
	c-0.165-0.203-0.396-0.355-0.663-0.441l-6.992-2.25l-0.145,0.109c-0.348,0.264-0.672,0.526-0.969,0.772l-0.359,0.299l1.745,1.174
	c1.001,0.673,1.456,1.896,1.146,3.054l-0.797,2.781c-0.084,0.303-0.363,0.512-0.672,0.512c-0.066,0-0.132-0.01-0.191-0.026
	c-0.184-0.052-0.332-0.171-0.424-0.335c-0.09-0.164-0.111-0.354-0.061-0.533l0.782-2.729c0.173-0.598-0.048-1.207-0.562-1.553
	l-2.326-1.563c0,0-0.324,0.084-0.412,0.103c-0.57,0.116-1.187,0.225-1.813,0.225c-0.74,0-1.405-0.119-1.911-0.224
	c-0.08-0.017-0.162-0.036-0.241-0.059l-0.156-0.044L31.5,52.846c-0.513,0.344-0.733,0.953-0.562,1.551l0.782,2.73
	c0.107,0.371-0.108,0.762-0.48,0.868c-0.063,0.019-0.127,0.026-0.194,0.026c-0.312,0-0.589-0.209-0.674-0.508l-0.782-2.729
	c-0.338-1.177,0.115-2.425,1.128-3.104l1.74-1.17l-0.365-0.299c-0.329-0.27-0.653-0.523-0.976-0.771l-0.146-0.11l-6.986,2.249
	l-0.108,0.031c-0.188,0.078-0.358,0.201-0.494,0.353L20.5,55.497c-0.134,0.165-0.332,0.26-0.544,0.26
	c-0.161,0-0.318-0.057-0.442-0.159c-0.146-0.119-0.236-0.285-0.256-0.472c-0.019-0.188,0.036-0.37,0.155-0.517l2.783-3.407
	c0.399-0.498,0.854-0.81,1.372-0.976l0.136-0.033l5.879-1.892l-1.151-0.674l-6.244-0.606c-0.046-0.004-0.09-0.006-0.135-0.006
	c-0.376,0-0.731,0.154-1.001,0.435l-3.83,3.974c-0.133,0.139-0.313,0.215-0.506,0.215c-0.183,0-0.355-0.07-0.486-0.197
	c-0.135-0.129-0.211-0.305-0.215-0.491c-0.003-0.188,0.066-0.365,0.197-0.5l3.871-4.017c0.532-0.529,1.229-0.819,1.97-0.819
	c0.089,0,0.179,0.004,0.269,0.013l3.774,0.365l-0.429-0.62c-0.177-0.255-0.332-0.521-0.462-0.787l-0.052-0.108l-3.874-1.656
	c0,0-0.5-0.176-0.69-0.176c-0.335,0-0.657-0.004-0.907,0.213l-3.895,3.324c-0.127,0.11-0.29,0.142-0.46,0.142
	c-0.203,0-0.396-0.104-0.53-0.257c-0.123-0.143-0.184-0.33-0.17-0.519c0.014-0.187,0.098-0.36,0.239-0.481l3.895-3.387
	c0.506-0.438,1.154-0.683,1.826-0.683c0.431,0,0.864,0.101,1.255,0.294l2.759,1.352l-0.015-0.578
	c-0.007-0.307,0.008-0.61,0.046-0.906l0.033-0.268l-3.488-1.41c-0.444-0.194-0.813-0.537-1.045-0.967l-0.041-0.076l-0.071-0.047
	c-1.32-0.892-2.293-2.287-2.671-3.827c-0.047-0.191-0.084-0.383-0.113-0.574l-0.012-0.081l-0.047-0.066
	c-1.331-1.92-1.825-4.338-1.354-6.635c0.486-2.381,1.966-4.455,4.059-5.692c0.506-0.342,0.848-0.815,1.006-1.38
	c0.57-2.058,1.901-3.783,3.746-4.858c1.246-0.727,2.657-1.11,4.084-1.11c0.666,0,1.334,0.083,1.986,0.247
	c0.599,0.149,1.016,0.684,1.014,1.3c-0.003,0.609-0.435,1.158-1.028,1.303c-1.787,0.435-3.246,1.793-3.808,3.546
	c-0.086,0.263-0.147,0.531-0.189,0.802l-0.11,0.713l0.628-0.354c1.451-0.817,3.1-1.25,4.769-1.25l0.215,0.002
	c0.69,0.075,1.141,0.474,1.266,1.048c0.135,0.621-0.152,1.237-0.697,1.5c-3.913,2.346-7.089,5.671-9.229,9.641l-0.068,0.125
	l0.039,0.137c0.045,0.158,0.099,0.313,0.163,0.464l0.071,0.167l0.178,0.038c0.424,0.092,0.807,0.301,1.105,0.605l2.446,2.496
	l0.241-0.286C29.959,34.92,32.849,34,36.065,34h0.175c3.194,0,5.958,0.895,8.223,2.41l0.24,0.225l2.458-2.468
	c0.303-0.309,0.682-0.504,1.095-0.595l0.178-0.031l0.069-0.163c0.063-0.149,0.117-0.301,0.161-0.456l0.038-0.136l-0.067-0.124
	c-2.158-4.002-5.363-7.346-9.271-9.672c-0.523-0.289-0.783-0.878-0.655-1.469c0.131-0.604,0.649-1.034,1.265-1.048l0.217-0.002
	c1.668,0,3.317,0.433,4.769,1.25l0.628,0.354l-0.109-0.713c-0.043-0.271-0.104-0.539-0.189-0.803
	c-0.563-1.752-2.021-3.11-3.809-3.545c-0.594-0.146-1.01-0.887-1.012-1.51c-0.003-0.615,0.161-1.193,0.992-1.506h0.003
	c0.654,0,1.324-0.041,1.991-0.041c1.424,0,2.834,0.485,4.078,1.208c1.844,1.074,3.174,2.85,3.744,4.904
	c0.156,0.556,0.514,1.071,1.009,1.405c2.11,1.25,3.59,3.338,4.077,5.718c0.472,2.306-0.03,4.741-1.377,6.671l-0.045,0.07
	l-0.014,0.08c-0.027,0.183-0.063,0.365-0.107,0.546c-0.385,1.567-1.328,2.925-2.66,3.823l-0.072,0.05l-0.041,0.075
	c-0.242,0.454-0.633,0.808-1.102,0.996l-3.439,1.392l0.032,0.267c0.038,0.304,0.053,0.608,0.045,0.907l-0.017,0.418l2.938-1.286
	c0,0,0.717-0.206,1.076-0.206c0.672,0,1.328,0.242,1.835,0.681l3.897,3.386C57.453,45.182,57.539,45.352,57.552,45.539z
	 M45.336,23.656l-0.205-0.151c-1.013-0.749-2.201-1.265-3.438-1.492l-0.26,0.633c1,0.681,1.967,1.44,2.871,2.257l0.323,0.292
	l0.216-0.379c0.164-0.289,0.303-0.599,0.41-0.918L45.336,23.656z M26.831,23.655l0.082,0.242c0.107,0.318,0.245,0.627,0.409,0.917
	l0.215,0.381l0.324-0.293c0.899-0.812,1.866-1.571,2.875-2.258l-0.261-0.633c-1.236,0.227-2.426,0.743-3.439,1.493L26.831,23.655z
	 M52.861,30.385c-0.059-0.1-0.146-0.16-0.25-0.226c-0.381-0.234-0.813-0.329-1.254-0.329c-0.246,0-1.451,0.248-1.25,1.013
	c0.188,0.923,0.129,1.853-0.172,2.741l-0.092,0.257l0.246,0.138c0.829,0.483,1.471,1.197,1.857,2.072l0.238,0.537l0.358-0.467
	c0.433-0.559,0.737-1.195,0.908-1.891C53.771,32.927,53.557,31.525,52.861,30.385z M48.977,29.541
	c0.271-0.471,0.707-0.821,1.226-0.989c0.374-0.121,0.764-0.182,1.157-0.182c0.701,0,1.389,0.195,1.988,0.564
	c0.289,0.181,0.537,0.43,0.715,0.722c0.111,0.185,0.215,0.374,0.308,0.568l0.478,1.002l0.185-1.095
	c0.147-0.88,0.133-1.77-0.048-2.643c-0.409-2.008-1.659-3.753-3.43-4.786l-0.093-0.063c-0.753-0.519-1.299-1.277-1.539-2.141
	c-0.815-2.94-3.58-4.865-6.608-4.874l0.019,0.603c0.538,0.28,1.03,0.629,1.47,1.036c0.84,0.781,1.471,1.773,1.821,2.869
	c0.351,1.093,0.415,2.266,0.187,3.393c-0.177,0.87-0.52,1.688-1.021,2.43l-0.157,0.231l0.192,0.204
	c0.932,0.987,1.793,2.055,2.562,3.174l0.313,0.458L48.977,29.541z M18.825,28.934c0.599-0.369,1.285-0.564,1.984-0.564
	c0.393,0,0.78,0.062,1.154,0.182c0.52,0.168,0.954,0.52,1.224,0.989l0.277,0.481l0.314-0.458c0.768-1.116,1.63-2.185,2.563-3.174
	l0.191-0.204l-0.156-0.231c-0.499-0.74-0.843-1.558-1.021-2.431c-0.229-1.126-0.164-2.299,0.187-3.393
	c0.353-1.096,0.983-2.088,1.822-2.867c0.434-0.404,0.921-0.75,1.451-1.029l-0.169-0.659c-2.979,0.046-5.615,2.075-6.408,4.934
	c-0.242,0.872-0.79,1.634-1.542,2.146l-0.146,0.1c-1.736,1.043-2.949,2.761-3.353,4.733c-0.178,0.869-0.195,1.752-0.051,2.624
	l0.181,1.085l0.479-0.99c0.091-0.186,0.189-0.369,0.298-0.548C18.284,29.366,18.533,29.115,18.825,28.934z M22.074,33.973
	l0.248-0.145l-0.093-0.271c-0.077-0.229-0.139-0.463-0.185-0.7c-0.131-0.736-0.122-1.409,0.015-2.07
	c0.078-0.385-0.152-0.779-0.525-0.897c-0.234-0.077-0.478-0.116-0.725-0.116c-0.439,0-0.87,0.122-1.245,0.354
	c-0.104,0.065-0.194,0.156-0.258,0.258c-0.707,1.164-0.917,2.527-0.594,3.843c0.166,0.675,0.48,1.326,0.911,1.885l0.359,0.465
	l0.238-0.537C20.607,35.17,21.247,34.454,22.074,33.973z M26.15,37.797l0.219-0.23l-2.35-2.391
	c-0.145-0.147-0.354-0.229-0.576-0.229c-0.1,0-0.198,0.019-0.292,0.053c-0.993,0.425-1.687,1.299-1.872,2.346
	c-0.021,0.127-0.011,0.252,0.027,0.368c0.078,0.211,0.213,0.252,0.385,0.343l3.366,1.363l0.143-0.236
	C25.451,38.666,25.771,38.221,26.15,37.797z M46.175,42.075c0.054-1.515-0.632-2.798-1.829-3.722C42.197,36.678,39.473,36,36.241,36
	h-0.158c-3.29,0-6.036,0-8.165,2L27.5,38.288c-1,0.585-1.124,1.354-1.396,2.237c-0.02,0.104,0.013,0.156-0.007,0.203
	c-0.124,0.482-0.146,0.916-0.13,1.348c0.018,0.521,0.135,1.035,0.326,1.525c0.036,0.072,0.059,0.113,0.072,0.155
	c0.374,0.854,0.961,1.556,1.704,2.06l0.854,0.478c0.059,0.022,0.112,0.054,0.163,0.091c0.436,0.248,0.839,0.483,1.233,0.749
	c0.349,0.237,0.698,0.483,1.05,0.742c0.143,0.074,0.216,0.129,0.277,0.197c0.599,0.456,1.151,0.895,1.717,1.368l0.033,0.026
	c0.157,0.134,0.316,0.239,0.488,0.326c0.109,0.038,0.159,0.06,0.21,0.089c0.168,0.067,0.288,0.104,0.409,0.127
	c0.405,0.083,1.008,0.194,1.542,0.193c0.589,0,1.145-0.098,1.617-0.194c0.145-0.028,0.281-0.071,0.417-0.125l0.144-0.063
	c0.202-0.094,0.394-0.219,0.566-0.368l0.23-0.194c0.436-0.363,0.959-0.792,1.537-1.212c0.068-0.06,0.11-0.09,0.154-0.114
	l0.087-0.059c0.306-0.214,0.544-0.376,0.783-0.532c0.476-0.313,0.948-0.604,1.414-0.88c0.122-0.102,0.198-0.146,0.284-0.175
	c0.313-0.177,0.563-0.317,0.806-0.454C45.352,44.979,46.123,43.579,46.175,42.075z M47.109,39.425L50.354,38
	c0,0,0.514-0.378,0.467-0.652c-0.187-1.059-0.854-1.936-1.84-2.35c-0.09-0.037-0.154-0.057-0.254-0.057
	c-0.207,0-0.412,0.088-0.563,0.241l-2.364,2.402l0.221,0.244c0.379,0.423,0.697,0.9,0.947,1.417L47.109,39.425z M40.792,32.656
	c0-0.415-0.336-0.75-0.75-0.75s-0.75,0.335-0.75,0.75c0,0.414,0.336,0.75,0.75,0.75S40.792,33.07,40.792,32.656z"/>
</svg>
