<?xml version="1.0" encoding="utf-8"?>
<!-- Generator: Adobe Illustrator 16.0.0, SVG Export Plug-In . SVG Version: 6.00 Build 0)  -->
<!DOCTYPE svg PUBLIC "-//W3C//DTD SVG 1.1//EN" "http://www.w3.org/Graphics/SVG/1.1/DTD/svg11.dtd">
<svg version="1.1" id="Layer_1" xmlns="http://www.w3.org/2000/svg" xmlns:xlink="http://www.w3.org/1999/xlink" x="0px" y="0px"
	 width="72px" height="72px" viewBox="0 0 72 72" enable-background="new 0 0 72 72" xml:space="preserve">
<path fill="#444444" d="M52.816,17.844c0.51,2.594-0.461,8.031-5.043,12.163c-0.346-1.815-0.523-4.253,0.076-6.904
	c0.813-3.594,3.438-6.321,5.737-7.529c1.776-0.862,3.625-1.521,5.554-1.971l-0.293-1.253c-1.8,0.42-3.531,1.013-5.201,1.772v-0.003
	c-0.063,0.026-0.127,0.06-0.191,0.089c-0.078,0.037-0.156,0.073-0.234,0.11c-0.045,0.022-0.088,0.042-0.132,0.065
	c-3.278,1.58-6.31,3.832-9.112,6.772l-0.014-0.011c-0.027,0.034-0.054,0.077-0.081,0.112c-2.365,2.5-4.565,5.503-6.616,9.002
	c0.542-2.857-0.092-5.923-2.02-8.388c-1.048-1.338-2.364-2.372-3.845-3.054l0.494-1.225L30.7,17.11l-0.5,1.243
	c-1.085-0.343-2.237-0.514-3.424-0.487l0.03,1.288c2.92-0.079,5.628,1.213,7.426,3.511c3.11,3.977,2.409,9.744-1.567,12.856
	c-0.95,0.744-2.015,1.286-3.166,1.605l0.348,1.24c1.313-0.369,2.528-0.986,3.611-1.832c0.334-0.262,0.642-0.545,0.936-0.838
	c-0.089,0.187-0.181,0.366-0.27,0.556c-0.79,0.847-1.448,1.82-1.929,2.909c-0.096,0.219-0.185,0.44-0.265,0.662l1.21,0.44
	c0.071-0.195,0.148-0.39,0.232-0.582c0.986-2.238,2.786-3.957,5.065-4.842c2.279-0.886,4.769-0.831,7.006,0.156
	c1.104,0.486,2.084,1.171,2.912,2.033l0.929-0.894c-0.945-0.984-2.063-1.764-3.32-2.318c-1.636-0.721-3.39-1-5.123-0.847
	c0.146-2.83,2.206-8.428,4.021-10.873c1.07-1.128,2.176-2.154,3.314-3.072c-0.705,1.129-1.268,2.402-1.582,3.793
	c-0.777,3.436-0.344,6.533,0.158,8.526l0.244,0.968l0.781-0.622c5.715-4.549,6.898-11.06,6.303-14.094L52.816,17.844z
	 M39.546,33.177c-0.53,0.116-1.058,0.262-1.573,0.462c-0.521,0.203-1.015,0.453-1.489,0.729c1.47-2.875,3.02-5.462,4.663-7.749
	C40.229,29.034,39.572,31.556,39.546,33.177z M25.69,57.247l0.121,1.282c-0.324,0.029-0.648,0.045-0.972,0.045
	c-0.629,0-1.257-0.059-1.876-0.172l0.232-1.267C24.017,57.287,24.857,57.323,25.69,57.247z M20.975,56.425l-0.544,1.167
	c-0.851-0.398-1.645-0.908-2.36-1.517l0.834-0.979C19.532,55.629,20.229,56.076,20.975,56.425z M16.282,54.109
	c-0.551-0.789-0.989-1.649-1.304-2.56l1.217-0.421c0.275,0.798,0.66,1.553,1.142,2.242L16.282,54.109z M15.845,46.434
	c-0.165,0.873-0.2,1.766-0.106,2.651l-1.28,0.136c-0.108-1.009-0.068-2.027,0.12-3.025L15.845,46.434z M27.346,56.366l0.734,3.291
	l-1.256,0.28l-0.722-3.232L27.346,56.366z M25.369,53.438l-0.383-1.718l1.257-0.28l0.383,1.719L25.369,53.438z M22.68,50.994
	l-1.296,1.191l-0.872-0.948l1.296-1.191L22.68,50.994z M19.982,45.924l1.68,0.527l-0.386,1.229l-1.68-0.527L19.982,45.924z
	 M23.936,54.416l1.286,0.053l-0.094,2.246l-1.286-0.054L23.936,54.416z M28.243,56.021l-1.041-1.992l1.142-0.598l1.041,1.994
	L28.243,56.021z M20.915,53.117l1.087,0.689l-1.205,1.898l-1.087-0.689L20.915,53.117z M18.948,50.481l0.596,1.142l-1.993,1.041
	l-0.596-1.141L18.948,50.481z M16.313,47.123l2.246,0.094l-0.055,1.287l-2.246-0.095L16.313,47.123z M17.958,42.988l1.899,1.205
	l-0.69,1.088l-1.899-1.205L17.958,42.988z M16.449,46.166l-3.204-1.006l0.385-1.227l3.16,0.99L16.449,46.166z M16.596,50.626
	l-3.28,0.731l-0.28-1.254l3.232-0.722l0.19,0.617L16.596,50.626z M18.939,54.43l-2.461,2.262l-0.872-0.949l2.438-2.24l0.475,0.439
	L18.939,54.43z M22.274,56.327l0.606,0.216l-0.999,3.186l-1.228-0.386l0.992-3.159L22.274,56.327z M21.927,37.428
	c-0.823-0.457-1.581-1.027-2.251-1.692l0.906-0.914c0.587,0.582,1.25,1.082,1.972,1.484L21.927,37.428z M18.175,30.692
	c0.217,0.806,0.545,1.58,0.974,2.3l-1.106,0.659c-0.489-0.82-0.863-1.703-1.111-2.624L18.175,30.692z M16.575,28.391
	c-0.007-0.939,0.112-1.875,0.354-2.782l1.244,0.332c-0.212,0.795-0.317,1.617-0.311,2.441L16.575,28.391z M19.056,23.784
	l-1.12-0.636c0.475-0.835,1.063-1.601,1.75-2.277l0.903,0.917C19.987,22.379,19.471,23.051,19.056,23.784z M22.236,20.498
	l-0.673-1.097c0.867-0.531,1.804-0.933,2.784-1.192l0.33,1.244C23.817,19.68,22.997,20.032,22.236,20.498z M17.999,36.185
	l-0.793-1.013l2.649-2.074l0.793,1.014L17.999,36.185z M24.631,30.995l-1.387,1.085l-0.793-1.014l1.387-1.084L24.631,30.995z
	 M21.865,26.921l0.482-1.193l1.633,0.66l-0.482,1.193L21.865,26.921z M26.915,22.972l0.247,1.744l-1.274,0.181l-0.247-1.744
	L26.915,22.972z M19.389,32.254l-0.504-1.185l2.068-0.88l0.504,1.185L19.389,32.254z M23.736,33.746l-1.351,1.797l-1.028-0.773
	l1.351-1.797L23.736,33.746z M18.595,26.63l2.232,0.273l-0.157,1.279l-2.232-0.274L18.595,26.63z M20.561,22.645l1.797,1.352
	l-0.774,1.029l-1.797-1.352L20.561,22.645z M25.138,22.239l-1.185,0.504l-0.88-2.069l1.185-0.504L25.138,22.239z M28.423,22.113
	l-1.278-0.156l0.272-2.233l1.277,0.156L28.423,22.113z M25.174,19.851l-0.465-3.294l1.274-0.18l0.464,3.279l-0.923,0.166
	L25.174,19.851z M21.219,21.94l-2.076-2.652l1.014-0.793l2.041,2.607L21.219,21.94z M18.804,25.692l-3.118-1.257l0.481-1.195
	l3.118,1.258L18.804,25.692z M15.27,30.621l-0.18-1.276l3.331-0.47l0.175,1.274l-0.002,0.001L15.27,30.621z M43.32,51.855
	l0.365,3.344l-1.281,0.139l-0.357-3.292l0.635-0.122L43.32,51.855z M53.357,41.342l0.142,1.277l-1.326,0.145
	c0.072,1.201-0.06,2.418-0.407,3.584l-1.233-0.367c0.704-2.366,0.405-4.963-0.819-7.131l1.119-0.636
	c0.579,1.021,0.975,2.134,1.182,3.274L53.357,41.342z M49.594,48.107l1.104,0.664c-0.492,0.819-1.094,1.566-1.789,2.219
	l-0.883-0.938C48.635,49.479,49.162,48.827,49.594,48.107z M46.139,51.42l0.615,1.13c-0.824,0.449-1.706,0.786-2.621,1.001
	l-0.294-1.254C44.641,52.107,45.414,51.813,46.139,51.42z M39.039,52.129c0.804,0.251,1.639,0.389,2.48,0.408l-0.029,1.288
	c-0.961-0.025-1.916-0.181-2.834-0.468L39.039,52.129z M49.875,46.264l3.076,1.354l-0.518,1.176l-3.076-1.354L49.875,46.264z
	 M45.248,44.215l1.611,0.709l-0.52,1.18l-1.611-0.71L45.248,44.215z M42.966,48.577l-1.28,0.139l-0.189-1.749l1.279-0.139
	L42.966,48.577z M37.855,47.026l-0.76-1.037l1.418-1.04l0.761,1.037L37.855,47.026z M47.08,46.834l1.752,1.407l-0.808,1.005
	l-1.752-1.407L47.08,46.834z M48.092,43.707l2.222,0.344l-0.196,1.272l-2.223-0.344L48.092,43.707z M44.635,49.037l0.813,2.096
	l-1.2,0.467l-0.813-2.096L44.635,49.037z M41.418,49.724l-0.344,2.224l-1.272-0.197l0.344-2.224L41.418,49.724z M35.884,49.658
	l1.408-1.751l1.003,0.807l-1.408,1.751L35.884,49.658z M38.871,51.507l-1.354,3.079l-1.177-0.518l1.355-3.079L38.871,51.507z
	 M49.105,38.785l-0.42-0.489l-0.358-0.536l2.69-1.969l0.76,1.039L49.105,38.785z M47.344,49.935l1.99,2.716l-1.039,0.76
	l-1.988-2.715L47.344,49.935z M34.636,51.581c-0.487,1.35-1.227,2.605-2.202,3.662l0.938,1.021l-0.949,0.871l-0.917-0.999
	c-0.909,0.771-1.954,1.397-3.112,1.814l-0.437-1.212c4.252-1.53,6.811-6.19,5.825-10.608c-0.532-2.387-1.963-4.423-4.028-5.737
	c-2.065-1.315-4.516-1.744-6.904-1.211c-2.848,0.639-5.168,2.536-6.364,5.201l-1.174-0.527c0.485-1.08,1.135-2.047,1.913-2.879
	l-0.907-0.992l0.948-0.875l0.895,0.978c1.253-1.046,2.752-1.792,4.41-2.161c2.723-0.607,5.52-0.119,7.875,1.377
	c2.356,1.502,3.988,3.824,4.595,6.549c0.33,1.478,0.292,2.974-0.021,4.401c0.559,0.457,1.246,0.867,1.922,1.24l-0.623,1.127
	C35.749,52.305,35.168,51.963,34.636,51.581z"/>
</svg>
