<?xml version="1.0" encoding="utf-8"?>
<!-- Generator: Adobe Illustrator 16.0.0, SVG Export Plug-In . SVG Version: 6.00 Build 0)  -->
<!DOCTYPE svg PUBLIC "-//W3C//DTD SVG 1.1//EN" "http://www.w3.org/Graphics/SVG/1.1/DTD/svg11.dtd">
<svg version="1.1" id="Layer_1" xmlns="http://www.w3.org/2000/svg" xmlns:xlink="http://www.w3.org/1999/xlink" x="0px" y="0px"
	 width="72px" height="72px" viewBox="0 0 72 72" enable-background="new 0 0 72 72" xml:space="preserve">
<path fill="#444444" d="M28.631,30.876H26.77c-3.594,0-6.517,2.923-6.517,6.517c0,0.287,0.132,0.557,0.358,0.732
	c0.225,0.176,0.52,0.236,0.798,0.17c2.289-0.572,4.707-0.572,6.996,0c0.075,0.018,0.151,0.027,0.226,0.027
	c0.206,0,0.409-0.069,0.573-0.198c0.227-0.174,0.359-0.444,0.359-0.731v-5.586C29.563,31.292,29.145,30.876,28.631,30.876z
	 M27.7,36.245c-0.922-0.161-1.856-0.24-2.792-0.24c-0.885,0-1.769,0.07-2.644,0.213c0.522-2,2.344-3.48,4.506-3.48h0.93V36.245z
	 M45.391,30.877h-1.861c-0.514,0-0.932,0.416-0.932,0.93v5.585c0,0.287,0.133,0.557,0.359,0.732s0.52,0.236,0.799,0.17
	c2.288-0.572,4.707-0.572,6.995,0c0.076,0.018,0.151,0.027,0.226,0.027c0.207,0,0.408-0.069,0.574-0.196
	c0.225-0.174,0.358-0.444,0.358-0.731C51.909,33.8,48.984,30.877,45.391,30.877z M44.461,36.245V32.74h0.93
	c2.162,0,3.985,1.479,4.506,3.479C48.098,35.925,46.254,35.932,44.461,36.245z M36.08,13.553c-12.398,0-23.273,10.005-23.273,21.411
	c0,2.966,0.767,5.074,2.349,6.438c2.815,2.434,7.507,1.883,12.545,1.152v13.368c0,1.539,1.253,2.792,2.793,2.792h2.792h5.589h2.793
	c1.539,0,2.793-1.253,2.792-2.792V42.555c5.037,0.732,9.731,1.283,12.545-1.152c1.582-1.364,2.351-3.469,2.351-6.438
	C59.355,23.558,48.48,13.553,36.08,13.553z M37.012,56.854h-1.864l-0.001-12.946c0-0.513,0.417-0.931,0.931-0.931
	c0.515,0,0.934,0.418,0.934,0.931V56.854z M55.787,39.996c-2.313,1.999-6.934,1.32-11.825,0.605l-0.299-0.045
	c-0.267-0.041-0.539,0.041-0.744,0.217c-0.204,0.178-0.321,0.433-0.321,0.703v14.446c0,0.513-0.416,0.931-0.931,0.931h-2.792V43.907
	c0-1.54-1.253-2.792-2.796-2.792c-1.54,0-2.793,1.252-2.793,2.792v12.946h-2.793c-0.514,0-0.931-0.418-0.931-0.931V41.477
	c0-0.269-0.117-0.525-0.322-0.703c-0.17-0.147-0.386-0.228-0.609-0.228c-0.044,0-0.089,0.003-0.135,0.011l-0.299,0.045
	c-4.891,0.715-9.512,1.394-11.825-0.605c-1.147-0.991-1.705-2.637-1.705-5.032c0-10.414,10.005-19.55,21.411-19.55
	c11.408,0,21.413,9.136,21.413,19.55C57.491,37.357,56.934,39.005,55.787,39.996z"/>
</svg>
