<?xml version="1.0" encoding="utf-8"?>
<!-- Generator: Adobe Illustrator 16.0.0, SVG Export Plug-In . SVG Version: 6.00 Build 0)  -->
<!DOCTYPE svg PUBLIC "-//W3C//DTD SVG 1.1//EN" "http://www.w3.org/Graphics/SVG/1.1/DTD/svg11.dtd">
<svg version="1.1" id="Layer_1" xmlns="http://www.w3.org/2000/svg" xmlns:xlink="http://www.w3.org/1999/xlink" x="0px" y="0px"
	 width="72px" height="72px" viewBox="0 0 72 72" enable-background="new 0 0 72 72" xml:space="preserve">
<path fill="#4D4D4D" d="M55.15,15.404c-0.592-1.238-1.862-2.039-3.293-2.039c-1.651,0.025-3.236,0.829-4.24,2.148l-0.119,0.157
	l-0.197-0.021c-0.128-0.014-0.257-0.021-0.385-0.021c-0.6,0-1.186,0.154-1.698,0.447c-0.575,0.326-1.043,0.812-1.352,1.404
	l-0.107,0.204l-0.229-0.018c-0.102-0.007-0.202-0.011-0.305-0.011c-0.729,0-1.48,0.193-2.177,0.556
	c-1.028,0.538-1.911,1.45-2.421,2.502l-0.094,0.191l-0.211,0.006c-1.191,0.034-2.383,0.489-3.446,1.314
	c-1.068,0.829-1.891,1.929-2.379,3.181l-0.068,0.175l-0.183,0.04c-3.276,0.722-6.061,3.005-7.448,6.109l-0.064,0.145l-0.15,0.047
	c-0.194,0.062-0.373,0.135-0.584,0.222l-0.192,0.076c-1.065,0.406-2.296,0.936-3.35,1.789c-3.177,2.571-4.474,6.99-3.384,11.531
	l0.077,0.315c0.339,1.396,0.659,2.715,0.33,3.959l-0.021,0.078l-0.053,0.062c-0.868,1.008-1.185,2.353-0.842,3.616
	c0.95,3.225,3.843,5.393,7.197,5.393c0.446,0,0.899-0.041,1.357-0.124c3.016-0.589,5.625-2.315,7.345-4.858
	c1.538-2.27,2.217-5.019,1.915-7.738l-0.028-0.252l0.23-0.105c1.216-0.556,2.267-1.47,3.039-2.643
	c0.743-1.131,1.194-2.448,1.31-3.809l0.022-0.261l0.256-0.053c1.496-0.308,2.84-1.063,3.883-2.187
	c1.114-1.197,1.783-2.686,1.937-4.308l0.018-0.186l0.165-0.089c1.786-0.965,3.005-2.736,3.261-4.738l0.027-0.21l0.197-0.074
	c0.897-0.334,1.682-0.906,2.269-1.654c0.603-0.767,0.97-1.684,1.065-2.653l0.018-0.184l0.165-0.088
	c1.017-0.545,1.692-1.56,1.806-2.714l0.016-0.144l0.109-0.092c0.195-0.162,0.377-0.344,0.541-0.54
	C55.576,18.186,55.758,16.674,55.15,15.404z M24.84,57.377c-0.355,0.064-0.717,0.096-1.074,0.096c-2.684,0-5.003-1.732-5.774-4.322
	c-0.214-0.805,0.044-1.729,0.699-2.4l0.003-0.003c1.187-1.45,2.729-2.606,4.457-3.347c0.477-0.205,1.006-0.313,1.53-0.313
	l0.183,0.004c0.49,0.023,0.977,0.035,1.465,0.035c2.087,0,4.169-0.216,6.187-0.641l0.394-0.082l0.028,0.4
	C33.288,51.854,29.81,56.398,24.84,57.377z M37.428,39.542c-0.289,2.47-1.94,4.573-4.12,5.235c-2.252,0.572-4.6,0.861-6.978,0.861
	c-0.464,0-0.929-0.012-1.395-0.033c-0.084-0.004-0.167-0.006-0.251-0.006c-0.414,0-0.831,0.049-1.237,0.146l-0.128,0.03
	l-0.116-0.063c-0.793-0.422-1.315-1.24-1.361-2.143c-0.053-1.342,0.379-2.655,1.218-3.694c0.06-0.075,0.088-0.167,0.078-0.263
	c-0.01-0.094-0.056-0.18-0.131-0.24c-0.081-0.064-0.167-0.079-0.224-0.079c-0.109,0-0.211,0.049-0.279,0.133
	c-0.949,1.175-1.438,2.658-1.376,4.181c0.04,0.808,0.374,1.567,0.939,2.141l0.341,0.348l-0.438,0.213
	c-0.839,0.409-1.641,0.914-2.384,1.498l-0.481,0.379l-0.082-0.606c-0.097-0.718-0.265-1.409-0.428-2.08l-0.074-0.308
	c-0.749-3.118-0.387-7.391,2.873-10.027c0.893-0.722,1.989-1.192,2.946-1.557l0.271-0.107c0.316-0.131,0.555-0.224,0.758-0.224
	l0.071,0.004c0.687,0.078,1.389,0.389,2.046,0.712c0.951,0.468,1.757,1.153,2.644,1.906c0.29,0.246,0.589,0.5,0.896,0.745
	c0.869,0.697,1.791,1.265,2.741,1.689c1.186,0.531,2.359,0.713,3.351,0.82l0.351,0.039L37.428,39.542z M43.499,32.857
	c-0.431,2.663-2.603,4.68-5.34,4.903c-1.188-0.105-2.534-0.225-3.785-0.785c-0.836-0.375-1.649-0.876-2.42-1.493
	c-0.294-0.235-0.579-0.476-0.895-0.745c-0.883-0.751-1.796-1.527-2.916-2.079c-0.376-0.186-0.875-0.421-1.4-0.596l-0.402-0.134
	l0.208-0.37c1.355-2.404,3.664-4.062,6.335-4.551l0.081-0.013l0.078,0.022c0.843,0.238,1.642,0.581,2.444,1.049
	c0.669,0.391,1.271,0.879,1.924,1.406c0.543,0.439,1.104,0.894,1.717,1.29c1.146,0.74,2.452,1.28,4.11,1.702l0.312,0.078
	L43.499,32.857z M46.961,27.652c-0.266,1.491-1.238,2.786-2.605,3.464l-0.11,0.056l-0.122-0.028
	c-1.199-0.275-2.757-0.709-4.188-1.633c-0.556-0.358-1.063-0.769-1.6-1.205c-0.65-0.527-1.324-1.073-2.101-1.526
	c-0.632-0.37-1.256-0.668-1.909-0.91l-0.37-0.138l0.181-0.351c0.921-1.785,2.662-2.984,4.331-2.984c0.116,0,0.231,0.006,0.439,0.038
	c1.243,0.479,2.298,1.318,3.489,2.267l0.229,0.182c1.403,1.112,2.71,1.868,4.11,2.377l0.277,0.101L46.961,27.652z M50.502,23.225
	c-0.266,1.346-1.261,2.419-2.598,2.8l-0.1,0.028l-0.102-0.031c-1.412-0.445-2.732-1.176-4.156-2.303l-0.303-0.24
	c-0.904-0.72-1.84-1.466-2.917-2.028l-0.339-0.177l0.205-0.322c0.387-0.605,0.92-1.097,1.545-1.424
	c0.486-0.253,1.002-0.387,1.492-0.387c0.265,0,0.522,0.038,0.797,0.125c0.736,0.302,1.604,0.676,2.471,1.147
	c0.697,0.38,1.313,0.91,1.98,1.481c0.473,0.407,1.056,0.711,1.78,0.928l0.306,0.091L50.502,23.225z M52.41,20.42
	c-0.189,0.481-0.568,0.875-1.036,1.079l-0.104,0.045l-0.11-0.024c-0.527-0.117-1.197-0.308-1.722-0.758
	c-0.683-0.588-1.39-1.195-2.231-1.654c-0.487-0.266-1.033-0.532-1.622-0.793l-0.439-0.195l0.32-0.358
	c0.139-0.158,0.305-0.291,0.49-0.396c0.29-0.165,0.623-0.253,0.965-0.253c0.229,0,0.458,0.039,0.678,0.116l0.039,0.014
	c0.459,0.13,0.842,0.289,1.17,0.481c0.202,0.118,0.381,0.29,0.594,0.497l0.199,0.191c0.512,0.478,1.061,0.864,1.633,1.146
	c0.326,0.161,0.658,0.293,0.97,0.403l0.342,0.122L52.41,20.42z M53.542,18.302c-0.078,0.094-0.163,0.182-0.252,0.263l-0.149,0.139
	l-0.195-0.063c-0.409-0.134-0.754-0.273-1.055-0.421c-0.447-0.22-0.875-0.525-1.272-0.899l-0.179-0.177
	c-0.242-0.235-0.517-0.509-0.902-0.736l-0.544-0.317l0.387-0.368c0.699-0.597,1.588-1.023,2.502-1.023v-0.003h0.031h0.003
	c0.805,0,1.547,0.544,1.895,1.27C54.167,16.715,54.063,17.677,53.542,18.302z M29.889,49.777c0.04,0.087,0.044,0.185,0.011,0.273
	c-0.44,1.202-1.188,2.277-2.161,3.107c-0.975,0.832-2.154,1.4-3.409,1.646l-0.07,0.008c-0.17,0-0.317-0.121-0.35-0.289
	c-0.018-0.094,0.001-0.188,0.054-0.269c0.054-0.079,0.135-0.133,0.229-0.151c2.3-0.449,4.23-2.098,5.037-4.299
	c0.052-0.141,0.187-0.234,0.336-0.234c0.042,0,0.083,0.008,0.122,0.021C29.777,49.624,29.849,49.691,29.889,49.777z M26.458,36.01
	c0.045,0.084,0.055,0.181,0.028,0.271c-0.027,0.092-0.089,0.167-0.173,0.213c-0.605,0.328-1.141,0.755-1.592,1.271
	c-0.068,0.077-0.166,0.123-0.269,0.123c-0.087,0-0.169-0.031-0.236-0.09c-0.071-0.063-0.114-0.15-0.121-0.244
	c-0.006-0.096,0.025-0.188,0.088-0.26c0.509-0.583,1.112-1.064,1.791-1.429c0.053-0.029,0.11-0.044,0.169-0.044
	C26.275,35.822,26.396,35.894,26.458,36.01z M33.103,29.696c0.038,0.088,0.039,0.186,0.003,0.273
	c-0.035,0.089-0.103,0.158-0.191,0.195c-0.591,0.254-1.138,0.59-1.625,1.001c-0.081,0.068-0.169,0.083-0.228,0.083
	c-0.108,0-0.205-0.046-0.274-0.128c-0.127-0.15-0.107-0.377,0.043-0.504c0.545-0.457,1.152-0.83,1.804-1.108
	c0.044-0.02,0.091-0.029,0.139-0.029C32.918,29.479,33.047,29.564,33.103,29.696z"/>
</svg>
