<?xml version="1.0" encoding="utf-8"?>
<!-- Generator: Adobe Illustrator 16.0.0, SVG Export Plug-In . SVG Version: 6.00 Build 0)  -->
<!DOCTYPE svg PUBLIC "-//W3C//DTD SVG 1.1//EN" "http://www.w3.org/Graphics/SVG/1.1/DTD/svg11.dtd">
<svg version="1.1" id="Layer_1" xmlns="http://www.w3.org/2000/svg" xmlns:xlink="http://www.w3.org/1999/xlink" x="0px" y="0px"
	 width="72px" height="72px" viewBox="0 0 72 72" enable-background="new 0 0 72 72" xml:space="preserve">
<path fill="#444444" d="M36.161,12.854c-6.179,0-11.995,2.413-16.375,6.792c-4.381,4.38-6.793,10.196-6.793,16.375
	c0,12.773,10.394,23.167,23.168,23.168c12.774,0,23.168-10.395,23.168-23.168S48.936,12.854,36.161,12.854z M36.161,57.732
	C24.189,57.73,14.45,47.99,14.45,36.021c0-5.79,2.261-11.239,6.366-15.344c4.105-4.105,9.554-6.366,15.343-6.366c0,0,0,0,0.001,0
	c11.97,0,21.71,9.739,21.71,21.71C57.871,47.992,48.131,57.732,36.161,57.732z M34.906,31.906c0.121,0.257,0.38,0.417,0.659,0.417
	c0.033,0,0.065-0.002,0.099-0.007c0.239-0.032,0.481-0.042,0.726-0.026c0.323,0.013,0.61-0.169,0.723-0.464l4.541-11.774
	c0.072-0.19,0.063-0.401-0.025-0.584c-0.089-0.183-0.252-0.319-0.447-0.377c-3.693-1.1-7.66-0.953-11.256,0.407
	c-0.19,0.072-0.341,0.22-0.417,0.408c-0.076,0.189-0.07,0.4,0.016,0.584L34.906,31.906z M40.004,20.281l-4.035,10.463L31.187,20.6
	C34.027,19.679,37.094,19.566,40.004,20.281z M37.412,40.135c-0.135-0.287-0.438-0.457-0.758-0.41
	c-0.239,0.033-0.481,0.041-0.725,0.027c-0.315-0.021-0.608,0.169-0.722,0.465l-4.54,11.773c-0.073,0.189-0.064,0.4,0.025,0.584
	c0.09,0.182,0.251,0.318,0.446,0.376c1.637,0.487,3.328,0.733,5.027,0.733c2.131,0,4.228-0.383,6.229-1.14
	c0.189-0.071,0.342-0.219,0.418-0.408c0.076-0.188,0.069-0.399-0.017-0.584L37.412,40.135z M32.316,51.762l4.035-10.463
	l4.781,10.145C38.293,52.361,35.228,52.477,32.316,51.762z M38.495,33.104c0.133,0.107,0.267,0.23,0.401,0.379
	c0.142,0.153,0.336,0.234,0.535,0.234c0.104,0,0.211-0.023,0.312-0.07l11.421-5.383c0.184-0.087,0.322-0.247,0.384-0.44
	c0.062-0.194,0.039-0.405-0.063-0.582c-1.785-3.118-4.44-5.587-7.68-7.138c-0.182-0.088-0.394-0.096-0.582-0.021
	s-0.339,0.226-0.412,0.416l-4.539,11.774C38.157,32.569,38.247,32.905,38.495,33.104z M43.88,21.776
	c2.421,1.307,4.449,3.193,5.931,5.513l-9.846,4.641L43.88,21.776z M33.825,38.938c-0.131-0.104-0.262-0.229-0.399-0.377
	c-0.215-0.233-0.559-0.301-0.847-0.166l-11.421,5.388c-0.184,0.086-0.323,0.245-0.384,0.438c-0.061,0.194-0.038,0.404,0.063,0.581
	c1.784,3.115,4.438,5.583,7.677,7.136c0.1,0.049,0.208,0.072,0.315,0.072c0.091,0,0.182-0.018,0.269-0.051
	c0.188-0.076,0.338-0.227,0.411-0.416l4.542-11.773C34.164,39.473,34.073,39.137,33.825,38.938z M28.439,50.266
	c-2.422-1.309-4.449-3.192-5.929-5.512l9.846-4.643L28.439,50.266z M52.684,29.788c-0.072-0.19-0.221-0.341-0.408-0.417
	c-0.188-0.076-0.4-0.07-0.584,0.016l-11.416,5.382c-0.289,0.135-0.455,0.442-0.412,0.757c0.033,0.233,0.041,0.478,0.025,0.726
	c-0.019,0.316,0.17,0.609,0.465,0.723l11.774,4.541c0.084,0.031,0.175,0.049,0.263,0.049c0.11,0,0.221-0.024,0.321-0.074
	c0.183-0.09,0.317-0.251,0.377-0.446C54.197,37.318,54.059,33.427,52.684,29.788z M51.9,39.865L41.438,35.83l10.145-4.782
	C52.514,33.92,52.623,36.939,51.9,39.865z M32.456,36.516c-0.032-0.23-0.041-0.476-0.027-0.725c0.019-0.316-0.169-0.607-0.465-0.722
	l-11.773-4.542c-0.19-0.072-0.401-0.064-0.584,0.026c-0.183,0.089-0.319,0.251-0.377,0.446c-1.108,3.728-0.968,7.619,0.406,11.256
	c0.072,0.19,0.22,0.343,0.409,0.418c0.087,0.036,0.181,0.054,0.273,0.054c0.106,0,0.213-0.022,0.311-0.069l11.417-5.382
	C32.333,37.141,32.5,36.832,32.456,36.516z M20.737,40.994c-0.931-2.87-1.04-5.888-0.318-8.817l10.462,4.037L20.737,40.994z
	 M51.684,42.673L39.91,38.131c-0.297-0.113-0.633-0.023-0.832,0.225c-0.105,0.134-0.23,0.265-0.379,0.4
	c-0.233,0.217-0.301,0.559-0.164,0.848l5.384,11.42c0.087,0.185,0.247,0.322,0.44,0.385c0.07,0.021,0.146,0.033,0.219,0.033
	c0.126,0,0.25-0.032,0.361-0.096c3.119-1.785,5.586-4.438,7.139-7.679c0.087-0.183,0.094-0.396,0.02-0.583
	C52.021,42.895,51.871,42.745,51.684,42.673z M44.893,49.67l-4.643-9.846l10.154,3.918C49.098,46.162,47.213,48.191,44.893,49.67z
	 M20.638,29.369l11.773,4.541c0.085,0.033,0.174,0.049,0.262,0.049c0.216,0,0.427-0.097,0.568-0.272
	c0.105-0.131,0.229-0.263,0.379-0.401c0.233-0.216,0.3-0.559,0.165-0.846L28.4,21.018c-0.087-0.184-0.246-0.323-0.44-0.384
	c-0.195-0.059-0.404-0.037-0.581,0.063c-3.116,1.783-5.583,4.438-7.137,7.678c-0.088,0.184-0.095,0.395-0.021,0.584
	C20.298,29.147,20.448,29.296,20.638,29.369z M27.427,22.371l4.642,9.846L21.915,28.3C23.223,25.878,25.108,23.85,27.427,22.371z"/>
</svg>
