<?xml version="1.0" encoding="utf-8"?>
<!-- Generator: Adobe Illustrator 16.0.0, SVG Export Plug-In . SVG Version: 6.00 Build 0)  -->
<!DOCTYPE svg PUBLIC "-//W3C//DTD SVG 1.1//EN" "http://www.w3.org/Graphics/SVG/1.1/DTD/svg11.dtd">
<svg version="1.1" id="Layer_1" xmlns="http://www.w3.org/2000/svg" xmlns:xlink="http://www.w3.org/1999/xlink" x="0px" y="0px"
	 width="72px" height="72px" viewBox="0 0 72 72" enable-background="new 0 0 72 72" xml:space="preserve">
<path fill="#444444" d="M31.271,28.721v1.7c-5.107,0-9.834,1.389-9.834,11.466h-1.7C19.737,30.217,25.901,28.721,31.271,28.721z
	 M57.016,41.886c0,9.71-6.902,17.608-15.387,17.608c-1.422,0-2.824-0.231-4.18-0.668c-1.903,0.912-3.989,1.42-6.178,1.42
	c-8.844,0-16.039-8.235-16.039-18.359c0-10.123,7.195-18.359,16.039-18.359c1.89,0,3.696,0.396,5.381,1.085
	c0.089-0.546,0.25-1.225,0.532-1.952c-0.948,0.241-2.133,0.452-3.379,0.452c-1.529,0-2.878-0.318-4.009-0.946
	c-3.965-2.199-4.83-7.925-4.864-8.168l-0.092-0.639l0.59-0.26c0.106-0.047,2.632-1.146,5.485-1.146c1.534,0,2.887,0.319,4.021,0.948
	c2.693,1.494,3.951,4.61,4.492,6.532c1.657-1.437,3.908-2.156,6.688-2.151l-0.01,1.7c-0.03,0-0.06,0-0.089,0
	c-2.507,0-4.455,0.677-5.791,2.014c-0.138,0.138-0.264,0.28-0.383,0.424l0.04,0.28l-0.373,0.165
	c-0.674,0.985-0.992,2.038-1.141,2.814c1.065-0.263,2.156-0.401,3.259-0.401C50.113,24.279,57.016,32.177,57.016,41.886z
	 M33.805,21.414c1.714,0,3.325-0.469,4.175-0.767c-0.327-1.441-1.348-4.859-3.87-6.258c-0.879-0.487-1.954-0.734-3.196-0.734
	c-1.703,0-3.316,0.466-4.17,0.763c0.33,1.445,1.353,4.865,3.875,6.264C31.496,21.167,32.568,21.414,33.805,21.414z M31.271,58.547
	c7.907,0,14.339-7.474,14.339-16.66c0-9.186-6.433-16.659-14.339-16.659s-14.339,7.473-14.339,16.659
	C16.932,51.073,23.364,58.547,31.271,58.547z M55.316,41.886c0-8.771-6.141-15.907-13.688-15.907c-0.711,0-1.415,0.067-2.11,0.192
	c4.659,3.216,7.791,9.047,7.791,15.716c0,6.668-3.132,12.5-7.79,15.716c0.695,0.125,1.4,0.192,2.109,0.192
	C49.176,57.795,55.316,50.658,55.316,41.886z"/>
</svg>
