<?xml version="1.0" encoding="utf-8"?>
<!-- Generator: Adobe Illustrator 16.0.0, SVG Export Plug-In . SVG Version: 6.00 Build 0)  -->
<!DOCTYPE svg PUBLIC "-//W3C//DTD SVG 1.1//EN" "http://www.w3.org/Graphics/SVG/1.1/DTD/svg11.dtd">
<svg version="1.1" id="Layer_1" xmlns="http://www.w3.org/2000/svg" xmlns:xlink="http://www.w3.org/1999/xlink" x="0px" y="0px"
	 width="72px" height="72px" viewBox="0 0 72 72" enable-background="new 0 0 72 72" xml:space="preserve">
<path fill="#444444" d="M58.26,36.455c0.002,0.211-0.084,0.415-0.234,0.561c-0.146,0.141-0.332,0.215-0.534,0.215
	c-0.052-0.002-0.411-0.019-1.028-0.019c-3.156,0-13.886,0.423-19.363,5.89l-9.312,9.311c-1.08,1.078-2.506,1.673-4.016,1.673
	c-0.158,0-0.315-0.01-0.473-0.022l-0.214-0.018l-1.648,3.782c-0.127,0.278-0.403,0.46-0.708,0.46c-0.105,0-0.208-0.021-0.305-0.064
	c-0.188-0.08-0.333-0.23-0.408-0.422c-0.075-0.191-0.071-0.398,0.011-0.587l1.56-3.577l-0.254-0.128
	c-0.237-0.118-0.48-0.268-0.722-0.442l-0.207-0.148l-2.578,2.578c-0.144,0.145-0.336,0.225-0.542,0.225
	c-0.205,0-0.397-0.08-0.542-0.225c-0.299-0.299-0.299-0.785,0-1.084l2.613-2.614l-0.126-0.202c-0.145-0.23-0.27-0.474-0.376-0.723
	l-0.119-0.277l-3.708,1.615c-0.099,0.043-0.201,0.064-0.305,0.064c-0.303,0-0.578-0.18-0.699-0.461
	c-0.168-0.388,0.008-0.84,0.394-1.01l4.004-1.746l-0.005-0.201c-0.038-1.541,0.57-3.053,1.667-4.149l9.31-9.309
	c6.474-6.487,5.813-20.281,5.806-20.419c-0.012-0.206,0.063-0.41,0.203-0.563c0.14-0.15,0.338-0.24,0.541-0.244l5.958-0.148
	c0.345,0,0.629,0.199,0.738,0.507c1.748,4.858,0.771,10.22-0.383,13.916c-0.818,0.206-1.346,0.355-1.793,0.498
	c1.061-3.083,2.372-8.405,0.975-13.153l-0.063-0.221l-4.619,0.114l0.002,0.296c0.028,3.271-0.334,14.414-6.179,20.394l-0.207,0.213
	l-9.205,9.203c-1.589,1.589-1.641,4.124-0.115,5.649c0.717,0.718,1.683,1.111,2.72,1.111c1.099,0,2.14-0.436,2.931-1.227l9.34-9.338
	c5.908-5.859,16.961-6.314,20.209-6.314l0.466,0.002l-0.044-4.204l-0.196-0.07c-1.232-0.441-2.701-0.665-4.365-0.665
	c-6.844,0-14.908,3.686-15.25,3.843c-0.104,0.049-0.213,0.073-0.324,0.073c-0.297,0-0.57-0.174-0.695-0.443
	c-0.179-0.383-0.012-0.84,0.371-1.019c0.191-0.09,4.773-2.216,10.119-3.324l0.08-0.017l0.061-0.055
	c2.326-2.107,4.348-4.251,6.688-6.732l0.198-0.21l-3.312-3.367l-0.214,0.192c-0.773,0.697-2.152,1.951-4.113,3.783
	c0.094-0.765,0.153-1.521,0.182-2.263c2.433-2.253,3.664-3.335,3.674-3.344c0.143-0.125,0.322-0.192,0.508-0.192
	c0.207,0,0.4,0.081,0.547,0.229l4.34,4.413c0.289,0.296,0.295,0.763,0.01,1.063l-0.674,0.715c-1.646,1.747-3.07,3.255-4.555,4.719
	l-0.596,0.587l0.834-0.074c0.732-0.065,1.445-0.099,2.119-0.099c2.199,0,4.098,0.352,5.64,1.047c0.271,0.122,0.448,0.394,0.452,0.69
	L58.26,36.455z"/>
</svg>
