<?xml version="1.0" encoding="utf-8"?>
<!-- Generator: Adobe Illustrator 16.0.0, SVG Export Plug-In . SVG Version: 6.00 Build 0)  -->
<!DOCTYPE svg PUBLIC "-//W3C//DTD SVG 1.1//EN" "http://www.w3.org/Graphics/SVG/1.1/DTD/svg11.dtd">
<svg version="1.1" id="Layer_1" xmlns="http://www.w3.org/2000/svg" xmlns:xlink="http://www.w3.org/1999/xlink" x="0px" y="0px"
	 width="72px" height="72px" viewBox="0 0 72 72" enable-background="new 0 0 72 72" xml:space="preserve">
<path fill="#444444" d="M42.203,43.514l-0.457,1.159c-1.857-0.731-3.357-2.22-4.117-4.081l1.153-0.471
	C39.423,41.691,40.639,42.896,42.203,43.514z M53.092,34.28c1.211,2.973,0.821,6.31-1.041,8.93l-1.015-0.722
	c1.612-2.271,1.95-5.162,0.901-7.739c-1.681-4.126-6.406-6.116-10.535-4.433c-4.127,1.682-6.117,6.413-4.432,10.538
	c1.239,3.039,4.163,5.014,7.451,5.027c0.229,0.002,0.439,0.127,0.546,0.329l0.527,0.983l0.407-0.728
	c0.144-0.253,0.44-0.375,0.72-0.293l1.413,0.413l0.722-1.284c0.142-0.252,0.44-0.374,0.718-0.291l0.801,0.233l-0.312-1.072
	l1.197-0.346l0.625,2.16c0.063,0.218,0.002,0.453-0.158,0.613c-0.161,0.161-0.396,0.221-0.614,0.157l-1.412-0.413l-0.724,1.283
	c-0.142,0.254-0.44,0.376-0.718,0.293l-1.413-0.414l-0.722,1.284c-0.11,0.196-0.317,0.317-0.543,0.317c-0.002,0-0.004,0-0.006,0
	c-0.229-0.002-0.436-0.129-0.543-0.328l-0.893-1.664c-1.484-0.065-2.891-0.481-4.137-1.174c0.305,1.345,0.31,2.74-0.004,4.115
	c-0.814,3.571-3.612,6.303-7.178,7.051l-0.61,1.785c-0.073,0.215-0.258,0.373-0.481,0.412c-0.037,0.006-0.072,0.01-0.107,0.01
	c-0.187,0-0.367-0.086-0.486-0.234l-0.92-1.148l-1.328,0.637c-0.262,0.125-0.574,0.056-0.756-0.172l-0.92-1.149l-1.328,0.637
	c-0.205,0.099-0.447,0.077-0.632-0.055c-0.185-0.134-0.282-0.354-0.256-0.58l0.224-1.875c-2.889-2.22-4.224-5.894-3.41-9.465
	c0.223-0.97,0.592-1.888,1.1-2.734l1.067,0.644c-0.44,0.73-0.761,1.527-0.952,2.369c-0.729,3.201,0.533,6.496,3.217,8.395
	c0.187,0.131,0.285,0.354,0.258,0.582l-0.131,1.107l0.751-0.36c0.263-0.126,0.575-0.056,0.755,0.172l0.922,1.149l1.326-0.637
	c0.262-0.128,0.575-0.056,0.756,0.172l0.521,0.65l0.361-1.057c0.074-0.215,0.259-0.375,0.486-0.411
	c3.241-0.55,5.81-2.97,6.539-6.171c0.387-1.695,0.226-3.432-0.467-5.021l0.016-0.007c-0.916-0.82-1.676-1.827-2.219-2.982
	l-0.016,0.021c-0.988-0.831-2.13-1.397-3.397-1.687c-0.219-0.049-0.441-0.082-0.663-0.113c-0.762,0.751-1.651,1.38-2.653,1.839
	c-1.251,0.575-2.578,0.854-3.893,0.854c-2.186,0-4.343-0.774-6.069-2.257l-1.789,0.603c-0.215,0.074-0.453,0.022-0.619-0.131
	c-0.168-0.154-0.239-0.387-0.184-0.607l0.352-1.43l-1.313-0.666c-0.259-0.131-0.392-0.424-0.323-0.704l0.353-1.435l-1.313-0.665
	c-0.203-0.102-0.334-0.307-0.342-0.535s0.11-0.441,0.305-0.556l1.935-1.15l0.635,1.071l-0.959,0.569l0.744,0.377
	c0.258,0.131,0.392,0.423,0.322,0.704l-0.352,1.436l1.313,0.664c0.259,0.131,0.392,0.424,0.323,0.704l-0.199,0.812l1.057-0.357
	c0.217-0.072,0.456-0.02,0.623,0.135c2.408,2.24,5.891,2.801,8.875,1.434c4.05-1.858,5.833-6.67,3.975-10.72
	c-0.9-1.962-2.511-3.456-4.535-4.207s-4.219-0.668-6.181,0.231c-2.361,1.083-4.065,3.255-4.56,5.81l-1.223-0.237
	c0.572-2.949,2.539-5.455,5.264-6.705c2.264-1.039,4.797-1.135,7.133-0.268c1.432,0.531,2.681,1.386,3.675,2.489l-0.002-0.07
	c3.248-0.092,6.555-1.393,9.188-3.589c0.046-3.31-1.646-6.509-4.279-8.022c-3.063-1.759-6.654-1.483-8.566-1.147
	c0.84,2.419,2.827,5.365,5.317,6.797c1.826,1.05,3.511,1.301,5.298,0.788l0.343,1.197c-2.101,0.603-4.153,0.307-6.262-0.905
	c-3.008-1.729-5.344-5.428-6.098-8.189l-0.172-0.631l0.639-0.142c1.762-0.389,6.276-1.057,10.123,1.153
	c2.78,1.599,4.604,4.679,4.872,8.081c4.278-3.463,9.446-5.855,15.101-6.85l0.215,1.227c-7.268,1.279-13.705,4.952-18.371,10.283
	c-0.381,0.909-0.614,2.054-0.666,3.175c0.596-0.43,1.242-0.8,1.939-1.085c2.309-0.939,4.844-0.926,7.14,0.041
	C50.371,30.168,52.154,31.971,53.092,34.28z M37.814,29.4c-1.282,1.778-2.381,3.704-3.273,5.757
	c-0.096,0.484-0.221,0.964-0.396,1.438c-0.309,0.834-0.731,1.604-1.245,2.301c0.874,0.199,1.696,0.518,2.461,0.945
	c-0.426-1.882-0.266-3.847,0.497-5.661c0.456-1.083,1.105-2.047,1.899-2.866C37.721,30.689,37.741,30.042,37.814,29.4z
	 M38.122,26.957c-1.591,0.685-3.266,1.117-4.943,1.261c0.258,0.394,0.498,0.804,0.698,1.24c0.392,0.852,0.648,1.742,0.771,2.645
	C35.645,30.267,36.809,28.545,38.122,26.957z M23.617,46.35c-0.447,1.959-0.071,4.039,1.029,5.705l1.039-0.688
	c-0.928-1.403-1.23-3.088-0.854-4.742L23.617,46.35z M22.84,27.778l-0.52-1.132c-1.827,0.838-3.249,2.402-3.9,4.29l1.178,0.406
	C20.147,29.751,21.298,28.486,22.84,27.778z"/>
</svg>
