<?xml version="1.0" encoding="utf-8"?>
<!-- Generator: Adobe Illustrator 16.0.0, SVG Export Plug-In . SVG Version: 6.00 Build 0)  -->
<!DOCTYPE svg PUBLIC "-//W3C//DTD SVG 1.1//EN" "http://www.w3.org/Graphics/SVG/1.1/DTD/svg11.dtd">
<svg version="1.1" id="Layer_1" xmlns="http://www.w3.org/2000/svg" xmlns:xlink="http://www.w3.org/1999/xlink" x="0px" y="0px"
	 width="72px" height="72px" viewBox="0 0 72 72" enable-background="new 0 0 72 72" xml:space="preserve">
<path fill="#444444" d="M55.002,24.908c-1.228-2.445-4.027-3.924-8.295-4.427c2.296-4.219,1.895-8.165,1.866-8.414l-0.142-1.241
	l-1.103,0.586c-0.038,0.021-3.925,2.092-10.094,5.703c-0.833,0.488-1.552,1.023-2.174,1.587c-0.396-0.322-0.923-0.599-1.603-0.699
	c-2.915-0.43-7.029,2.538-12.213,8.816C16.3,32.812,15.03,38.296,17.85,41.492c1.291,1.463,3.253,2.192,5.488,2.192
	c2.306,0,4.902-0.777,7.347-2.328c6.579-4.17,13.004-9.918,12.531-13.359c-0.001-0.008-0.004-0.019-0.005-0.027
	c1.469-0.817,4.282-1.991,5.439-1.28c0.485,0.297,0.692,1.009,0.614,2.117c-0.264,3.76-3.179,6.619-5.997,9.385
	c-1.604,1.572-3.118,3.059-4.033,4.637c-2.363,4.082-4.865,9.111-4.635,17.162l0.023,0.825h9.38l1.207-0.002l-0.408-1.137
	c-0.02-0.055-1.912-5.521,1.717-11.954c0.532-0.943,1.268-2.091,2.119-3.421C52.446,38.354,57.663,30.208,55.002,24.908z
	 M38.095,18.583c4.109-2.406,7.198-4.123,8.801-5.001c-0.127,2.521-1.146,8.09-7.301,11.785l0.123,0.205
	c-2.078-0.208-4.502,0.309-6.852,1.35C33.006,25.014,33.834,21.077,38.095,18.583z M29.774,39.921
	c-4.038,2.561-8.616,2.751-10.649,0.446c-2.218-2.515-0.936-7.174,3.432-12.464c6.222-7.536,9.324-8.382,10.617-8.222
	c0.316,0.04,0.535,0.152,0.711,0.274c-2.573,3.127-2.762,6.658-2.742,7.821c-2.614,1.472-4.977,3.555-6.428,5.936l1.451,0.885
	c3.188-5.227,10.625-8.291,14.483-7.138c0.81,0.243,0.86,0.613,0.882,0.771C41.795,30.146,37.469,35.043,29.774,39.921z
	 M47.205,43.385c-0.865,1.352-1.612,2.518-2.168,3.502c-3.047,5.4-2.588,10.132-2.143,12.229h-6.611
	c-0.036-7.117,2.158-11.528,4.42-15.436c0.799-1.379,2.233-2.786,3.753-4.276c2.903-2.848,6.194-6.076,6.502-10.479
	c0.126-1.791-0.353-3.031-1.422-3.686c-2.16-1.322-5.919,0.551-7.162,1.244c-0.191-0.164-0.416-0.318-0.7-0.45
	c1.736-1.223,3.044-2.578,4.025-3.951c4.13,0.342,6.756,1.544,7.783,3.588C55.71,30.105,50.592,38.097,47.205,43.385z"/>
</svg>
